<svg xmlns="http://www.w3.org/2000/svg" height="230" width="800" version="1.1" y="0" x="0" preserveAspectRatio="none" xmlns:xlink="http://www.w3.org/1999/xlink" viewBox="0 0 800 230"  >
<g class="clusterblast-cluster" label="Query sequence"  >
<text class="clusterblast-acc" y="20" x="5"  >
Query sequence</text>
<line y1="35" x2="778.0" style="stroke:grey; stroke-width:1; " x1="10" y2="35"  />
<polygon style="stroke:black; stroke-width:1; fill:rgb(190,63,63); " description="unannotated orf[br]Location: 260 - 1310" locus_tag="ctg1_orf00001" class="clusterblast-orf" points="155,40 159,40 164,35 159,30 155,30 155,40 " id="knownclusterblast-1_q1_5_0"  />
<polygon style="stroke:black; stroke-width:1; fill:#FFFFFF; " description="unannotated orf[br]Location: 1383 - 2187" locus_tag="ctg1_orf00002" class="clusterblast-orf" points="164,35 169,30 171,30 171,40 169,40 164,35 " id="knownclusterblast-1_q1_5_1"  />
<polygon style="stroke:black; stroke-width:1; fill:#FFFFFF; " description="unannotated orf[br]Location: 2403 - 3531" locus_tag="ctg1_orf00003" class="clusterblast-orf" points="173,40 178,40 183,35 178,30 173,30 173,40 " id="knownclusterblast-1_q1_5_2"  />
<polygon style="stroke:black; stroke-width:1; fill:rgb(63,63,190); " description="unannotated orf[br]Location: 3682 - 18142" locus_tag="ctg1_orf00007" class="clusterblast-orf" points="184,40 304,40 309,35 304,30 184,30 184,40 " id="knownclusterblast-1_q1_5_3"  />
<polygon style="stroke:black; stroke-width:1; fill:rgb(63,190,63); " description="unannotated orf[br]Location: 18158 - 18875" locus_tag="ctg1_orf00009" class="clusterblast-orf" points="309,40 310,40 315,35 310,30 309,30 309,40 " id="knownclusterblast-1_q1_5_4"  />
<polygon style="stroke:black; stroke-width:1; fill:rgb(190,63,190); " description="unannotated orf[br]Location: 19409 - 19649" locus_tag="ctg1_orf00011" class="clusterblast-orf" points="320,40 322,35 320,30 320,40 " id="knownclusterblast-1_q1_5_5"  />
<polygon style="stroke:black; stroke-width:1; fill:#FFFFFF; " description="unannotated orf[br]Location: 19645 - 20791" locus_tag="ctg1_orf00012" class="clusterblast-orf" points="322,40 327,40 332,35 327,30 322,30 322,40 " id="knownclusterblast-1_q1_5_6"  />
<polygon style="stroke:black; stroke-width:1; fill:#FFFFFF; " description="unannotated orf[br]Location: 20961 - 21354" locus_tag="ctg1_orf00013" class="clusterblast-orf" points="333,40 337,35 333,30 333,40 " id="knownclusterblast-1_q1_5_7"  />
<polygon style="stroke:black; stroke-width:1; fill:rgb(190,190,63); " description="unannotated orf[br]Location: 21361 - 22417" locus_tag="ctg1_orf00014" class="clusterblast-orf" points="337,40 341,40 346,35 341,30 337,30 337,40 " id="knownclusterblast-1_q1_5_8"  />
<polygon style="stroke:black; stroke-width:1; fill:#FFFFFF; " description="unannotated orf[br]Location: 22413 - 23247" locus_tag="ctg1_orf00015" class="clusterblast-orf" points="346,40 348,40 353,35 348,30 346,30 346,40 " id="knownclusterblast-1_q1_5_9"  />
<polygon style="stroke:black; stroke-width:1; fill:#FFFFFF; " description="unannotated orf[br]Location: 23381 - 24590" locus_tag="ctg1_orf00016" class="clusterblast-orf" points="354,40 360,40 365,35 360,30 354,30 354,40 " id="knownclusterblast-1_q1_5_10"  />
<polygon style="stroke:black; stroke-width:1; fill:#FFFFFF; " description="unannotated orf[br]Location: 24939 - 26151" locus_tag="ctg1_orf00017" class="clusterblast-orf" points="368,40 373,40 378,35 373,30 368,30 368,40 " id="knownclusterblast-1_q1_5_11"  />
<polygon style="stroke:black; stroke-width:1; fill:#FFFFFF; " description="unannotated orf[br]Location: 26128 - 27313" locus_tag="ctg1_orf00018" class="clusterblast-orf" points="378,40 383,40 388,35 383,30 378,30 378,40 " id="knownclusterblast-1_q1_5_12"  />
<polygon style="stroke:black; stroke-width:1; fill:#FFFFFF; " description="unannotated orf[br]Location: 27334 - 28456" locus_tag="ctg1_orf00019" class="clusterblast-orf" points="388,40 393,40 398,35 393,30 388,30 388,40 " id="knownclusterblast-1_q1_5_13"  />
<polygon style="stroke:black; stroke-width:1; fill:#FFFFFF; " description="unannotated orf[br]Location: 28591 - 29011" locus_tag="ctg1_orf00020" class="clusterblast-orf" points="399,40 403,35 399,30 399,40 " id="knownclusterblast-1_q1_5_14"  />
<polygon style="stroke:black; stroke-width:1; fill:#FFFFFF; " description="unannotated orf[br]Location: 29041 - 29932" locus_tag="ctg1_orf00021" class="clusterblast-orf" points="403,35 408,30 411,30 411,40 408,40 403,35 " id="knownclusterblast-1_q1_5_15"  />
<polygon style="stroke:black; stroke-width:1; fill:rgb(190,190,190); " description="unannotated orf[br]Location: 30215 - 31343" locus_tag="ctg1_orf00022" class="clusterblast-orf" points="413,40 418,40 423,35 418,30 413,30 413,40 " id="knownclusterblast-1_q1_5_16"  />
<polygon style="stroke:black; stroke-width:1; fill:rgb(63,190,190); " description="unannotated orf[br]Location: 31458 - 55542" locus_tag="ctg1_orf00029" class="clusterblast-orf" points="424,40 627,40 632,35 627,30 424,30 424,40 " id="knownclusterblast-1_q1_5_17"  />
</g>
<g class="clusterblast-cluster" description="Laspartomycin biosynthetic gene cluster (13% of genes show similarity)" label="BGC0000379_c1"  >
<text class="clusterblast-acc" y="70" x="5"  >
<a xlink:href="http://mibig.secondarymetabolites.org/repository/BGC0000379/index.html" target="_blank">BGC0000379_c1</a>: Laspartomycin biosynthetic gene cluster (13% of genes show similarity)</text>
<line y1="85" x2="778.0" style="stroke:grey; stroke-width:1; " x1="10" y2="85"  />
<polygon style="stroke:black; stroke-width:1; fill:#FFFFFF; " description="ABC_transporter-like_protein[br]Location: 36 - 1925" locus_tag="AEG64672.1" id="knownclusterblast-1_h1_5_0" points="10,85 15,80 26,80 26,90 15,90 10,85 " class="clusterblast-orf"  />
<polygon style="stroke:black; stroke-width:1; fill:#FFFFFF; " description="sodium/hydrogen_exchanger[br]Location: 2193 - 3959" locus_tag="AEG64673.1" id="knownclusterblast-1_h1_5_1" points="28,85 33,80 43,80 43,90 33,90 28,85 " class="clusterblast-orf"  />
<polygon style="stroke:black; stroke-width:1; fill:#FFFFFF; " description="integral_membrane_protein[br]Location: 3976 - 4926" locus_tag="AEG64674.1" id="knownclusterblast-1_h1_5_2" points="44,85 49,80 52,80 52,90 49,90 44,85 " class="clusterblast-orf"  />
<polygon style="stroke:black; stroke-width:1; fill:#FFFFFF; " description="glycosyl_hydrolase[br]Location: 5088 - 6905" locus_tag="AEG64675.1" id="knownclusterblast-1_h1_5_3" points="53,90 64,90 69,85 64,80 53,80 53,90 " class="clusterblast-orf"  />
<polygon style="stroke:black; stroke-width:1; fill:#FFFFFF; " description="cyclase[br]Location: 6910 - 7854" locus_tag="AEG64676.1" id="knownclusterblast-1_h1_5_4" points="69,90 72,90 77,85 72,80 69,80 69,90 " class="clusterblast-orf"  />
<polygon style="stroke:black; stroke-width:1; fill:#FFFFFF; " description="putative_choline_dehydrogenase[br]Location: 7936 - 9516" locus_tag="AEG64677.1" id="knownclusterblast-1_h1_5_5" points="78,90 86,90 91,85 86,80 78,80 78,90 " class="clusterblast-orf"  />
<polygon style="stroke:black; stroke-width:1; fill:#FFFFFF; " description="cytochrome_d_ubiquinol_oxidase_subunit_II[br]Location: 9522 - 10562" locus_tag="AEG64678.1" id="knownclusterblast-1_h1_5_6" points="91,85 96,80 100,80 100,90 96,90 91,85 " class="clusterblast-orf"  />
<polygon style="stroke:black; stroke-width:1; fill:#FFFFFF; " description="cytochrome_bd-I_oxidase_subunit_I[br]Location: 10562 - 12010" locus_tag="AEG64679.1" id="knownclusterblast-1_h1_5_7" points="100,85 105,80 113,80 113,90 105,90 100,85 " class="clusterblast-orf"  />
<polygon style="stroke:black; stroke-width:1; fill:#FFFFFF; " description="NADH_dehydrogenase[br]Location: 12039 - 13379" locus_tag="AEG64680.1" id="knownclusterblast-1_h1_5_8" points="113,85 118,80 125,80 125,90 118,90 113,85 " class="clusterblast-orf"  />
<polygon style="stroke:black; stroke-width:1; fill:#FFFFFF; " description="2-deoxy-D-gluconate_3-dehydrogenase[br]Location: 13386 - 14228" locus_tag="AEG64681.1" id="knownclusterblast-1_h1_5_9" points="125,85 130,80 132,80 132,90 130,90 125,85 " class="clusterblast-orf"  />
<polygon style="stroke:black; stroke-width:1; fill:#FFFFFF; " description="LysR-type_transcriptional_regulator[br]Location: 14403 - 15320" locus_tag="AEG64682.1" id="knownclusterblast-1_h1_5_10" points="134,85 139,80 142,80 142,90 139,90 134,85 " class="clusterblast-orf"  />
<polygon style="stroke:black; stroke-width:1; fill:#FFFFFF; " description="HAD_superfamily_(subfamily_IIIB)_phosphatase[br]Location: 15806 - 16465" locus_tag="AEG64683.1" id="knownclusterblast-1_h1_5_11" points="146,90 146,90 151,85 146,80 146,80 146,90 " class="clusterblast-orf"  />
<polygon style="stroke:black; stroke-width:1; fill:#FFFFFF; " description="regulatory_protein_A[br]Location: 16883 - 17719" locus_tag="AEG64684.1" id="knownclusterblast-1_h1_5_12" points="155,90 157,90 162,85 157,80 155,80 155,90 " class="clusterblast-orf"  />
<polygon style="stroke:black; stroke-width:1; fill:rgb(190,190,63); " description="Daunorubicin_resistance_ABC_transporter_ATPase_subunit[br]Location: 17743 - 18837&lt;br&gt;&lt;br&gt;&lt;b&gt;BlastP hit with ctg1_orf00014&lt;/b&gt;&lt;br&gt;Percentage identity: 50%&lt;br&gt;Percentage coverage: 86%&lt;br&gt;BLAST bit score: 274&lt;br&gt;E-value: 2.2e-73" locus_tag="AEG64685.1" id="knownclusterblast-1_h1_5_13" points="163,90 167,90 172,85 167,80 163,80 163,90 " class="clusterblast-orf"  />
<polygon style="stroke:black; stroke-width:1; fill:#FFFFFF; " description="diaminobutyric_acid_synthase_A[br]Location: 18942 - 20018" locus_tag="AEG64686.1" id="knownclusterblast-1_h1_5_14" points="173,90 177,90 182,85 177,80 173,80 173,90 " class="clusterblast-orf"  />
<polygon style="stroke:black; stroke-width:1; fill:#FFFFFF; " description="diaminobutyric_acid_synthase_B[br]Location: 20102 - 21520" locus_tag="AEG64687.1" id="knownclusterblast-1_h1_5_15" points="183,90 190,90 195,85 190,80 183,80 183,90 " class="clusterblast-orf"  />
<polygon style="stroke:black; stroke-width:1; fill:#FFFFFF; " description="diaminobutyric_acid_synthase_C[br]Location: 21517 - 22791" locus_tag="AEG64688.1" id="knownclusterblast-1_h1_5_16" points="195,90 201,90 206,85 201,80 195,80 195,90 " class="clusterblast-orf"  />
<polygon style="stroke:black; stroke-width:1; fill:#FFFFFF; " description="LpmA[br]Location: 22788 - 25616" locus_tag="AEG64689.1" id="knownclusterblast-1_h1_5_17" points="206,90 226,90 231,85 226,80 206,80 206,90 " class="clusterblast-orf"  />
<polygon style="stroke:black; stroke-width:1; fill:#FFFFFF; " description="regulatory_protein_B[br]Location: 25748 - 26695" locus_tag="AEF16019.1" id="knownclusterblast-1_h1_5_18" points="232,85 237,80 240,80 240,90 237,90 232,85 " class="clusterblast-orf"  />
<polygon style="stroke:black; stroke-width:1; fill:#FFFFFF; " description="ABC_transporter_protein[br]Location: 26737 - 27579" locus_tag="AEF16020.1" id="knownclusterblast-1_h1_5_19" points="240,85 245,80 248,80 248,90 245,90 240,85 " class="clusterblast-orf"  />
<polygon style="stroke:black; stroke-width:1; fill:#FFFFFF; " description="acyl-CoA_synthase[br]Location: 27878 - 29701" locus_tag="AEF16021.1" id="knownclusterblast-1_h1_5_20" points="250,90 261,90 266,85 261,80 250,80 250,90 " class="clusterblast-orf"  />
<polygon style="stroke:black; stroke-width:1; fill:#FFFFFF; " description="acyl-CoA_dehydrogenase[br]Location: 29698 - 31437" locus_tag="AEG64690.1" id="knownclusterblast-1_h1_5_21" points="266,90 276,90 281,85 276,80 266,80 266,90 " class="clusterblast-orf"  />
<polygon style="stroke:black; stroke-width:1; fill:#FFFFFF; " description="hypothetical_protein[br]Location: 31434 - 32240" locus_tag="AEF16023.1" id="knownclusterblast-1_h1_5_22" points="281,90 283,90 288,85 283,80 281,80 281,90 " class="clusterblast-orf"  />
<polygon style="stroke:black; stroke-width:1; fill:#FFFFFF; " description="acyl_carrier_protein[br]Location: 32261 - 32542" locus_tag="AEF16024.1" id="knownclusterblast-1_h1_5_23" points="288,90 290,85 288,80 288,90 " class="clusterblast-orf"  />
<polygon style="stroke:black; stroke-width:1; fill:#FFFFFF; " description="LpmB[br]Location: 32712 - 42275" locus_tag="AEG64696.1" id="knownclusterblast-1_h1_5_24" points="292,90 369,90 374,85 369,80 292,80 292,90 " class="clusterblast-orf"  />
<polygon style="stroke:black; stroke-width:1; fill:rgb(63,190,190); " description="LpmC[br]Location: 42386 - 62701&lt;br&gt;&lt;br&gt;&lt;b&gt;BlastP hit with ctg1_orf00029&lt;/b&gt;&lt;br&gt;Percentage identity: 48%&lt;br&gt;Percentage coverage: 40%&lt;br&gt;BLAST bit score: 2642&lt;br&gt;E-value: 0.0e+00" locus_tag="AEG64697.1" id="knownclusterblast-1_h1_5_25" points="375,90 546,90 551,85 546,80 375,80 375,90 " class="clusterblast-orf"  />
<polygon style="stroke:black; stroke-width:1; fill:#FFFFFF; " description="LpmD[br]Location: 62701 - 69918" locus_tag="AEG64698.1" id="knownclusterblast-1_h1_5_26" points="551,90 608,90 613,85 608,80 551,80 551,90 " class="clusterblast-orf"  />
<polygon style="stroke:black; stroke-width:1; fill:rgb(190,63,190); " description="MbtH-like_protein[br]Location: 69950 - 70174&lt;br&gt;&lt;br&gt;&lt;b&gt;BlastP hit with ctg1_orf00011&lt;/b&gt;&lt;br&gt;Percentage identity: 61%&lt;br&gt;Percentage coverage: 83%&lt;br&gt;BLAST bit score: 93&lt;br&gt;E-value: 1.2e-19" locus_tag="AEG64691.1" id="knownclusterblast-1_h1_5_27" points="614,90 616,85 614,80 614,90 " class="clusterblast-orf"  />
<polygon style="stroke:black; stroke-width:1; fill:#FFFFFF; " description="LipE-like_protein[br]Location: 70265 - 71071" locus_tag="AEF16028.1" id="knownclusterblast-1_h1_5_28" points="616,90 618,90 623,85 618,80 616,80 616,90 " class="clusterblast-orf"  />
<polygon style="stroke:black; stroke-width:1; fill:#FFFFFF; " description="putative_drug_exporter[br]Location: 71176 - 73497" locus_tag="AEF16029.1" id="knownclusterblast-1_h1_5_29" points="624,85 629,80 644,80 644,90 629,90 624,85 " class="clusterblast-orf"  />
<polygon style="stroke:black; stroke-width:1; fill:#FFFFFF; " description="lysine_cyclodeaminase[br]Location: 73752 - 74780" locus_tag="AEF16030.1" id="knownclusterblast-1_h1_5_30" points="646,90 650,90 655,85 650,80 646,80 646,90 " class="clusterblast-orf"  />
<polygon style="stroke:black; stroke-width:1; fill:#FFFFFF; " description="regulatory_protein_C[br]Location: 74978 - 75622" locus_tag="AEF16031.1" id="knownclusterblast-1_h1_5_31" points="657,85 662,80 663,80 663,90 662,90 657,85 " class="clusterblast-orf"  />
<polygon style="stroke:black; stroke-width:1; fill:#FFFFFF; " description="regulatory_protein_D[br]Location: 75613 - 76899" locus_tag="AEF16032.1" id="knownclusterblast-1_h1_5_32" points="663,85 668,80 674,80 674,90 668,90 663,85 " class="clusterblast-orf"  />
<polygon style="stroke:black; stroke-width:1; fill:#FFFFFF; " description="hypothetical_protein[br]Location: 76908 - 77711" locus_tag="AEF16033.1" id="knownclusterblast-1_h1_5_33" points="674,85 679,80 681,80 681,90 679,90 674,85 " class="clusterblast-orf"  />
<polygon style="stroke:black; stroke-width:1; fill:#FFFFFF; " description="VanW_family_protein[br]Location: 77739 - 79493" locus_tag="AEF16034.1" id="knownclusterblast-1_h1_5_34" points="681,85 686,80 696,80 696,90 686,90 681,85 " class="clusterblast-orf"  />
<polygon style="stroke:black; stroke-width:1; fill:#FFFFFF; " description="integral_membrane_protein[br]Location: 79616 - 80737" locus_tag="AEF16035.1" id="knownclusterblast-1_h1_5_35" points="697,85 702,80 707,80 707,90 702,90 697,85 " class="clusterblast-orf"  />
<polygon style="stroke:black; stroke-width:1; fill:#FFFFFF; " description="integral_membrane_protein[br]Location: 81132 - 82637" locus_tag="AEF16036.1" id="knownclusterblast-1_h1_5_36" points="710,85 715,80 723,80 723,90 715,90 710,85 " class="clusterblast-orf"  />
<polygon style="stroke:black; stroke-width:1; fill:#FFFFFF; " description="integral_membrane_protein[br]Location: 82645 - 83184" locus_tag="AEF16037.1" id="knownclusterblast-1_h1_5_37" points="723,85 728,80 728,80 728,90 728,90 723,85 " class="clusterblast-orf"  />
<polygon style="stroke:black; stroke-width:1; fill:#FFFFFF; " description="hypothetical_protein[br]Location: 83181 - 84137" locus_tag="AEF16038.1" id="knownclusterblast-1_h1_5_38" points="728,85 733,80 736,80 736,90 733,90 728,85 " class="clusterblast-orf"  />
<polygon style="stroke:black; stroke-width:1; fill:#FFFFFF; " description="two_component_system_histidine_kinase[br]Location: 84295 - 85956" locus_tag="AEG64692.1" id="knownclusterblast-1_h1_5_39" points="738,90 747,90 752,85 747,80 738,80 738,90 " class="clusterblast-orf"  />
<polygon style="stroke:black; stroke-width:1; fill:#FFFFFF; " description="two_component_system_response_regulator[br]Location: 85953 - 86636" locus_tag="AEG64693.1" id="knownclusterblast-1_h1_5_40" points="752,90 753,90 758,85 753,80 752,80 752,90 " class="clusterblast-orf"  />
<polygon style="stroke:black; stroke-width:1; fill:#FFFFFF; " description="hypothetical_protein[br]Location: 86903 - 87937" locus_tag="AEG64694.1" id="knownclusterblast-1_h1_5_41" points="760,90 764,90 769,85 764,80 760,80 760,90 " class="clusterblast-orf"  />
<polygon style="stroke:black; stroke-width:1; fill:#FFFFFF; " description="response_regulator[br]Location: 88235 - 88912" locus_tag="AEG64695.1" id="knownclusterblast-1_h1_5_42" points="772,90 773,90 778,85 773,80 772,80 772,90 " class="clusterblast-orf"  />
</g>
</svg>
