<svg xmlns="http://www.w3.org/2000/svg" height="230" width="800" version="1.1" y="0" x="0" preserveAspectRatio="none" xmlns:xlink="http://www.w3.org/1999/xlink" viewBox="0 0 800 230"  >
<g class="clusterblast-cluster" label="Query sequence"  >
<text class="clusterblast-acc" y="20" x="5"  >
Query sequence</text>
<line y1="35" x2="778.0" style="stroke:grey; stroke-width:1; " x1="10" y2="35"  />
<polygon style="stroke:black; stroke-width:1; fill:rgb(190,63,63); " description="unannotated orf[br]Location: 260 - 1310" locus_tag="ctg1_orf00001" class="clusterblast-orf" points="94,40 100,40 105,35 100,30 94,30 94,40 " id="knownclusterblast-1_q1_6_0"  />
<polygon style="stroke:black; stroke-width:1; fill:#FFFFFF; " description="unannotated orf[br]Location: 1383 - 2187" locus_tag="ctg1_orf00002" class="clusterblast-orf" points="106,35 111,30 114,30 114,40 111,40 106,35 " id="knownclusterblast-1_q1_6_1"  />
<polygon style="stroke:black; stroke-width:1; fill:#FFFFFF; " description="unannotated orf[br]Location: 2403 - 3531" locus_tag="ctg1_orf00003" class="clusterblast-orf" points="117,40 124,40 129,35 124,30 117,30 117,40 " id="knownclusterblast-1_q1_6_2"  />
<polygon style="stroke:black; stroke-width:1; fill:rgb(63,63,190); " description="unannotated orf[br]Location: 3682 - 18142" locus_tag="ctg1_orf00007" class="clusterblast-orf" points="131,40 282,40 287,35 282,30 131,30 131,40 " id="knownclusterblast-1_q1_6_3"  />
<polygon style="stroke:black; stroke-width:1; fill:rgb(63,190,63); " description="unannotated orf[br]Location: 18158 - 18875" locus_tag="ctg1_orf00009" class="clusterblast-orf" points="288,40 290,40 295,35 290,30 288,30 288,40 " id="knownclusterblast-1_q1_6_4"  />
<polygon style="stroke:black; stroke-width:1; fill:rgb(190,63,190); " description="unannotated orf[br]Location: 19409 - 19649" locus_tag="ctg1_orf00011" class="clusterblast-orf" points="301,40 304,35 301,30 301,40 " id="knownclusterblast-1_q1_6_5"  />
<polygon style="stroke:black; stroke-width:1; fill:#FFFFFF; " description="unannotated orf[br]Location: 19645 - 20791" locus_tag="ctg1_orf00012" class="clusterblast-orf" points="304,40 311,40 316,35 311,30 304,30 304,40 " id="knownclusterblast-1_q1_6_6"  />
<polygon style="stroke:black; stroke-width:1; fill:#FFFFFF; " description="unannotated orf[br]Location: 20961 - 21354" locus_tag="ctg1_orf00013" class="clusterblast-orf" points="318,40 322,35 318,30 318,40 " id="knownclusterblast-1_q1_6_7"  />
<polygon style="stroke:black; stroke-width:1; fill:rgb(190,190,63); " description="unannotated orf[br]Location: 21361 - 22417" locus_tag="ctg1_orf00014" class="clusterblast-orf" points="322,40 329,40 334,35 329,30 322,30 322,40 " id="knownclusterblast-1_q1_6_8"  />
<polygon style="stroke:black; stroke-width:1; fill:#FFFFFF; " description="unannotated orf[br]Location: 22413 - 23247" locus_tag="ctg1_orf00015" class="clusterblast-orf" points="334,40 338,40 343,35 338,30 334,30 334,40 " id="knownclusterblast-1_q1_6_9"  />
<polygon style="stroke:black; stroke-width:1; fill:#FFFFFF; " description="unannotated orf[br]Location: 23381 - 24590" locus_tag="ctg1_orf00016" class="clusterblast-orf" points="344,40 352,40 357,35 352,30 344,30 344,40 " id="knownclusterblast-1_q1_6_10"  />
<polygon style="stroke:black; stroke-width:1; fill:#FFFFFF; " description="unannotated orf[br]Location: 24939 - 26151" locus_tag="ctg1_orf00017" class="clusterblast-orf" points="361,40 369,40 374,35 369,30 361,30 361,40 " id="knownclusterblast-1_q1_6_11"  />
<polygon style="stroke:black; stroke-width:1; fill:#FFFFFF; " description="unannotated orf[br]Location: 26128 - 27313" locus_tag="ctg1_orf00018" class="clusterblast-orf" points="374,40 382,40 387,35 382,30 374,30 374,40 " id="knownclusterblast-1_q1_6_12"  />
<polygon style="stroke:black; stroke-width:1; fill:#FFFFFF; " description="unannotated orf[br]Location: 27334 - 28456" locus_tag="ctg1_orf00019" class="clusterblast-orf" points="387,40 394,40 399,35 394,30 387,30 387,40 " id="knownclusterblast-1_q1_6_13"  />
<polygon style="stroke:black; stroke-width:1; fill:#FFFFFF; " description="unannotated orf[br]Location: 28591 - 29011" locus_tag="ctg1_orf00020" class="clusterblast-orf" points="401,40 405,35 401,30 401,40 " id="knownclusterblast-1_q1_6_14"  />
<polygon style="stroke:black; stroke-width:1; fill:#FFFFFF; " description="unannotated orf[br]Location: 29041 - 29932" locus_tag="ctg1_orf00021" class="clusterblast-orf" points="406,35 411,30 415,30 415,40 411,40 406,35 " id="knownclusterblast-1_q1_6_15"  />
<polygon style="stroke:black; stroke-width:1; fill:rgb(190,190,190); " description="unannotated orf[br]Location: 30215 - 31343" locus_tag="ctg1_orf00022" class="clusterblast-orf" points="418,40 426,40 431,35 426,30 418,30 418,40 " id="knownclusterblast-1_q1_6_16"  />
<polygon style="stroke:black; stroke-width:1; fill:rgb(63,190,190); " description="unannotated orf[br]Location: 31458 - 55542" locus_tag="ctg1_orf00029" class="clusterblast-orf" points="432,40 688,40 693,35 688,30 432,30 432,40 " id="knownclusterblast-1_q1_6_17"  />
</g>
<g class="clusterblast-cluster" description="Friulimicin biosynthetic gene cluster (13% of genes show similarity)" label="BGC0000354_c1"  >
<text class="clusterblast-acc" y="70" x="5"  >
<a xlink:href="http://mibig.secondarymetabolites.org/repository/BGC0000354/index.html" target="_blank">BGC0000354_c1</a>: Friulimicin biosynthetic gene cluster (13% of genes show similarity)</text>
<line y1="85" x2="778.0" style="stroke:grey; stroke-width:1; " x1="10" y2="85"  />
<polygon style="stroke:black; stroke-width:1; fill:#FFFFFF; " description="hypothetical_protein[br]Location: 1 - 1411" locus_tag="CAM56763.1" id="knownclusterblast-1_h1_6_0" points="10,85 15,80 25,80 25,90 15,90 10,85 " class="clusterblast-orf"  />
<polygon style="stroke:black; stroke-width:1; fill:#FFFFFF; " description="putative_alkaline_phosphatase[br]Location: 1614 - 2438" locus_tag="CAM56764.1" id="knownclusterblast-1_h1_6_1" points="27,90 31,90 36,85 31,80 27,80 27,90 " class="clusterblast-orf"  />
<polygon style="stroke:black; stroke-width:1; fill:#FFFFFF; " description="regulatory_protein_A[br]Location: 3057 - 3785" locus_tag="CAM56765.1" id="knownclusterblast-1_h1_6_2" points="43,90 46,90 51,85 46,80 43,80 43,90 " class="clusterblast-orf"  />
<polygon style="stroke:black; stroke-width:1; fill:rgb(190,190,63); " description="ExpB[br]Location: 3964 - 4917&lt;br&gt;&lt;br&gt;&lt;b&gt;BlastP hit with ctg1_orf00014&lt;/b&gt;&lt;br&gt;Percentage identity: 49%&lt;br&gt;Percentage coverage: 86%&lt;br&gt;BLAST bit score: 262&lt;br&gt;E-value: 5.1e-70" locus_tag="CAM56766.1" id="knownclusterblast-1_h1_6_3" points="52,90 58,90 63,85 58,80 52,80 52,90 " class="clusterblast-orf"  />
<polygon style="stroke:black; stroke-width:1; fill:#FFFFFF; " description="DabA[br]Location: 4914 - 5987" locus_tag="CAM56767.1" id="knownclusterblast-1_h1_6_4" points="63,90 69,90 74,85 69,80 63,80 63,90 " class="clusterblast-orf"  />
<polygon style="stroke:black; stroke-width:1; fill:#FFFFFF; " description="DabB[br]Location: 5984 - 7426" locus_tag="CAM56768.1" id="knownclusterblast-1_h1_6_5" points="74,90 85,90 90,85 85,80 74,80 74,90 " class="clusterblast-orf"  />
<polygon style="stroke:black; stroke-width:1; fill:#FFFFFF; " description="DabC[br]Location: 7423 - 8646" locus_tag="CAM56769.1" id="knownclusterblast-1_h1_6_6" points="90,90 98,90 103,85 98,80 90,80 90,90 " class="clusterblast-orf"  />
<polygon style="stroke:black; stroke-width:1; fill:#FFFFFF; " description="non-ribosomal_peptide_synthetase_A[br]Location: 8643 - 11831" locus_tag="CAD32904.2" id="knownclusterblast-1_h1_6_7" points="103,90 133,90 138,85 133,80 103,80 103,90 " class="clusterblast-orf"  />
<polygon style="stroke:black; stroke-width:1; fill:#FFFFFF; " description="hypothetical_protein[br]Location: 11828 - 12736" locus_tag="CAD32905.1" id="knownclusterblast-1_h1_6_8" points="138,90 143,90 148,85 143,80 138,80 138,90 " class="clusterblast-orf"  />
<polygon style="stroke:black; stroke-width:1; fill:#FFFFFF; " description="regulatory_protein_B[br]Location: 12792 - 13697" locus_tag="CAD32906.1" id="knownclusterblast-1_h1_6_9" points="148,85 153,80 158,80 158,90 153,90 148,85 " class="clusterblast-orf"  />
<polygon style="stroke:black; stroke-width:1; fill:#FFFFFF; " description="ABC_transporter_protein[br]Location: 13714 - 14553" locus_tag="CAD32907.1" id="knownclusterblast-1_h1_6_10" points="158,85 163,80 167,80 167,90 163,90 158,85 " class="clusterblast-orf"  />
<polygon style="stroke:black; stroke-width:1; fill:#FFFFFF; " description="glutamate_mutase_subunit_B[br]Location: 14550 - 15797" locus_tag="CAD32908.1" id="knownclusterblast-1_h1_6_11" points="167,85 172,80 181,80 181,90 172,90 167,85 " class="clusterblast-orf"  />
<polygon style="stroke:black; stroke-width:1; fill:#FFFFFF; " description="glutamate_mutase_subunit_A[br]Location: 15794 - 16231" locus_tag="CAD32909.1" id="knownclusterblast-1_h1_6_12" points="181,85 186,80 186,80 186,90 186,90 181,85 " class="clusterblast-orf"  />
<polygon style="stroke:black; stroke-width:1; fill:#FFFFFF; " description="acyl-CoA_synthase[br]Location: 16501 - 18267" locus_tag="CAD32910.2" id="knownclusterblast-1_h1_6_13" points="188,90 203,90 208,85 203,80 188,80 188,90 " class="clusterblast-orf"  />
<polygon style="stroke:black; stroke-width:1; fill:#FFFFFF; " description="acyl-CoA_dehydrogenase[br]Location: 18264 - 19802" locus_tag="CAJ18234.2" id="knownclusterblast-1_h1_6_14" points="208,90 219,90 224,85 219,80 208,80 208,90 " class="clusterblast-orf"  />
<polygon style="stroke:black; stroke-width:1; fill:#FFFFFF; " description="hypothetical_protein[br]Location: 19799 - 20506" locus_tag="CAJ18235.1" id="knownclusterblast-1_h1_6_15" points="224,90 227,90 232,85 227,80 224,80 224,90 " class="clusterblast-orf"  />
<polygon style="stroke:black; stroke-width:1; fill:#FFFFFF; " description="acyl_carrier_protein[br]Location: 20524 - 20790" locus_tag="CAJ18236.1" id="knownclusterblast-1_h1_6_16" points="232,90 235,85 232,80 232,90 " class="clusterblast-orf"  />
<polygon style="stroke:black; stroke-width:1; fill:#FFFFFF; " description="non-ribosomal_peptide_synthetase_B[br]Location: 20826 - 30257" locus_tag="CAJ18237.2" id="knownclusterblast-1_h1_6_17" points="235,90 333,90 338,85 333,80 235,80 235,90 " class="clusterblast-orf"  />
<polygon style="stroke:black; stroke-width:1; fill:rgb(63,190,190); " description="[br]Location: 30254 - 50239&lt;br&gt;&lt;br&gt;&lt;b&gt;BlastP hit with ctg1_orf00029&lt;/b&gt;&lt;br&gt;Percentage identity: 48%&lt;br&gt;Percentage coverage: 40%&lt;br&gt;BLAST bit score: 2590&lt;br&gt;E-value: 0.0e+00" locus_tag="CAM56770.1" id="knownclusterblast-1_h1_6_18" points="338,90 549,90 554,85 549,80 338,80 338,90 " class="clusterblast-orf"  />
<polygon style="stroke:black; stroke-width:1; fill:#FFFFFF; " description="[br]Location: 50239 - 57351" locus_tag="CAM56771.1" id="knownclusterblast-1_h1_6_19" points="554,90 626,90 631,85 626,80 554,80 554,90 " class="clusterblast-orf"  />
<polygon style="stroke:black; stroke-width:1; fill:rgb(190,63,190); " description="hypothetical_protein[br]Location: 57381 - 57593&lt;br&gt;&lt;br&gt;&lt;b&gt;BlastP hit with ctg1_orf00011&lt;/b&gt;&lt;br&gt;Percentage identity: 59%&lt;br&gt;Percentage coverage: 83%&lt;br&gt;BLAST bit score: 89&lt;br&gt;E-value: 1.7e-18" locus_tag="CAM56772.1" id="knownclusterblast-1_h1_6_20" points="632,90 634,85 632,80 632,90 " class="clusterblast-orf"  />
<polygon style="stroke:black; stroke-width:1; fill:#FFFFFF; " description="LipE[br]Location: 57669 - 58475" locus_tag="CAM56773.1" id="knownclusterblast-1_h1_6_21" points="635,90 639,90 644,85 639,80 635,80 635,90 " class="clusterblast-orf"  />
<polygon style="stroke:black; stroke-width:1; fill:#FFFFFF; " description="Mem[br]Location: 58561 - 60852" locus_tag="CAM56774.1" id="knownclusterblast-1_h1_6_22" points="645,85 650,80 669,80 669,90 650,90 645,85 " class="clusterblast-orf"  />
<polygon style="stroke:black; stroke-width:1; fill:#FFFFFF; " description="lysine_cyclodeaminase[br]Location: 61160 - 62179" locus_tag="CAM56775.1" id="knownclusterblast-1_h1_6_23" points="673,90 679,90 684,85 679,80 673,80 673,90 " class="clusterblast-orf"  />
<polygon style="stroke:black; stroke-width:1; fill:#FFFFFF; " description="regulatory_protein_C[br]Location: 62183 - 62827" locus_tag="CAM56776.1" id="knownclusterblast-1_h1_6_24" points="684,85 689,80 691,80 691,90 689,90 684,85 " class="clusterblast-orf"  />
<polygon style="stroke:black; stroke-width:1; fill:#FFFFFF; " description="regulatory_protein_D[br]Location: 62818 - 64197" locus_tag="CAM56777.1" id="knownclusterblast-1_h1_6_25" points="691,85 696,80 706,80 706,90 696,90 691,85 " class="clusterblast-orf"  />
<polygon style="stroke:black; stroke-width:1; fill:#FFFFFF; " description="hypothetical_protein[br]Location: 64196 - 64807" locus_tag="CAM56778.1" id="knownclusterblast-1_h1_6_26" points="706,90 707,90 712,85 707,80 706,80 706,90 " class="clusterblast-orf"  />
<polygon style="stroke:black; stroke-width:1; fill:#FFFFFF; " description="Mem2[br]Location: 64951 - 66540" locus_tag="CAM56779.1" id="knownclusterblast-1_h1_6_27" points="714,90 726,90 731,85 726,80 714,80 714,90 " class="clusterblast-orf"  />
<polygon style="stroke:black; stroke-width:1; fill:#FFFFFF; " description="regulatory_protein_E[br]Location: 66581 - 67204" locus_tag="CAM56780.1" id="knownclusterblast-1_h1_6_28" points="732,90 733,90 738,85 733,80 732,80 732,90 " class="clusterblast-orf"  />
<polygon style="stroke:black; stroke-width:1; fill:#FFFFFF; " description="hypothetical_protein[br]Location: 67201 - 68169" locus_tag="CAM56781.1" id="knownclusterblast-1_h1_6_29" points="738,90 744,90 749,85 744,80 738,80 738,90 " class="clusterblast-orf"  />
<polygon style="stroke:black; stroke-width:1; fill:#FFFFFF; " description="hypothetical_protein[br]Location: 68230 - 69102" locus_tag="CAM56782.1" id="knownclusterblast-1_h1_6_30" points="749,90 754,90 759,85 754,80 749,80 749,90 " class="clusterblast-orf"  />
<polygon style="stroke:black; stroke-width:1; fill:#FFFFFF; " description="hypothetical_protein[br]Location: 69316 - 70509" locus_tag="CAM56783.1" id="knownclusterblast-1_h1_6_31" points="761,90 769,90 774,85 769,80 761,80 761,90 " class="clusterblast-orf"  />
<polygon style="stroke:black; stroke-width:1; fill:#FFFFFF; " description="hypothetical_protein[br]Location: 70587 - 70820" locus_tag="CAM56784.1" id="knownclusterblast-1_h1_6_32" points="775,90 778,85 775,80 775,90 " class="clusterblast-orf"  />
</g>
</svg>
