<svg xmlns="http://www.w3.org/2000/svg" height="230" width="800" version="1.1" y="0" x="0" preserveAspectRatio="none" xmlns:xlink="http://www.w3.org/1999/xlink" viewBox="0 0 800 230"  >
<g class="clusterblast-cluster" label="Query sequence"  >
<text class="clusterblast-acc" y="20" x="5"  >
Query sequence</text>
<line y1="35" x2="778.0" style="stroke:grey; stroke-width:1; " x1="10" y2="35"  />
<polygon style="stroke:black; stroke-width:1; fill:rgb(190,63,63); " description="unannotated orf[br]Location: 260 - 1310" locus_tag="ctg1_orf00001" class="clusterblast-orf" points="107,40 112,40 117,35 112,30 107,30 107,40 " id="knownclusterblast-1_q1_10_0"  />
<polygon style="stroke:black; stroke-width:1; fill:#FFFFFF; " description="unannotated orf[br]Location: 1383 - 2187" locus_tag="ctg1_orf00002" class="clusterblast-orf" points="118,35 123,30 127,30 127,40 123,40 118,35 " id="knownclusterblast-1_q1_10_1"  />
<polygon style="stroke:black; stroke-width:1; fill:#FFFFFF; " description="unannotated orf[br]Location: 2403 - 3531" locus_tag="ctg1_orf00003" class="clusterblast-orf" points="129,40 135,40 140,35 135,30 129,30 129,40 " id="knownclusterblast-1_q1_10_2"  />
<polygon style="stroke:black; stroke-width:1; fill:rgb(63,63,190); " description="unannotated orf[br]Location: 3682 - 18142" locus_tag="ctg1_orf00007" class="clusterblast-orf" points="142,40 287,40 292,35 287,30 142,30 142,40 " id="knownclusterblast-1_q1_10_3"  />
<polygon style="stroke:black; stroke-width:1; fill:rgb(63,190,63); " description="unannotated orf[br]Location: 18158 - 18875" locus_tag="ctg1_orf00009" class="clusterblast-orf" points="292,40 295,40 300,35 295,30 292,30 292,40 " id="knownclusterblast-1_q1_10_4"  />
<polygon style="stroke:black; stroke-width:1; fill:rgb(190,63,190); " description="unannotated orf[br]Location: 19409 - 19649" locus_tag="ctg1_orf00011" class="clusterblast-orf" points="305,40 308,35 305,30 305,40 " id="knownclusterblast-1_q1_10_5"  />
<polygon style="stroke:black; stroke-width:1; fill:#FFFFFF; " description="unannotated orf[br]Location: 19645 - 20791" locus_tag="ctg1_orf00012" class="clusterblast-orf" points="308,40 315,40 320,35 315,30 308,30 308,40 " id="knownclusterblast-1_q1_10_6"  />
<polygon style="stroke:black; stroke-width:1; fill:#FFFFFF; " description="unannotated orf[br]Location: 20961 - 21354" locus_tag="ctg1_orf00013" class="clusterblast-orf" points="321,40 325,35 321,30 321,40 " id="knownclusterblast-1_q1_10_7"  />
<polygon style="stroke:black; stroke-width:1; fill:rgb(190,190,63); " description="unannotated orf[br]Location: 21361 - 22417" locus_tag="ctg1_orf00014" class="clusterblast-orf" points="326,40 332,40 337,35 332,30 326,30 326,40 " id="knownclusterblast-1_q1_10_8"  />
<polygon style="stroke:black; stroke-width:1; fill:#FFFFFF; " description="unannotated orf[br]Location: 22413 - 23247" locus_tag="ctg1_orf00015" class="clusterblast-orf" points="336,40 340,40 345,35 340,30 336,30 336,40 " id="knownclusterblast-1_q1_10_9"  />
<polygon style="stroke:black; stroke-width:1; fill:#FFFFFF; " description="unannotated orf[br]Location: 23381 - 24590" locus_tag="ctg1_orf00016" class="clusterblast-orf" points="347,40 354,40 359,35 354,30 347,30 347,40 " id="knownclusterblast-1_q1_10_10"  />
<polygon style="stroke:black; stroke-width:1; fill:#FFFFFF; " description="unannotated orf[br]Location: 24939 - 26151" locus_tag="ctg1_orf00017" class="clusterblast-orf" points="363,40 370,40 375,35 370,30 363,30 363,40 " id="knownclusterblast-1_q1_10_11"  />
<polygon style="stroke:black; stroke-width:1; fill:#FFFFFF; " description="unannotated orf[br]Location: 26128 - 27313" locus_tag="ctg1_orf00018" class="clusterblast-orf" points="375,40 382,40 387,35 382,30 375,30 375,40 " id="knownclusterblast-1_q1_10_12"  />
<polygon style="stroke:black; stroke-width:1; fill:#FFFFFF; " description="unannotated orf[br]Location: 27334 - 28456" locus_tag="ctg1_orf00019" class="clusterblast-orf" points="388,40 394,40 399,35 394,30 388,30 388,40 " id="knownclusterblast-1_q1_10_13"  />
<polygon style="stroke:black; stroke-width:1; fill:#FFFFFF; " description="unannotated orf[br]Location: 28591 - 29011" locus_tag="ctg1_orf00020" class="clusterblast-orf" points="401,40 405,35 401,30 401,40 " id="knownclusterblast-1_q1_10_14"  />
<polygon style="stroke:black; stroke-width:1; fill:#FFFFFF; " description="unannotated orf[br]Location: 29041 - 29932" locus_tag="ctg1_orf00021" class="clusterblast-orf" points="405,35 410,30 415,30 415,40 410,40 405,35 " id="knownclusterblast-1_q1_10_15"  />
<polygon style="stroke:black; stroke-width:1; fill:rgb(190,190,190); " description="unannotated orf[br]Location: 30215 - 31343" locus_tag="ctg1_orf00022" class="clusterblast-orf" points="417,40 424,40 429,35 424,30 417,30 417,40 " id="knownclusterblast-1_q1_10_16"  />
<polygon style="stroke:black; stroke-width:1; fill:rgb(63,190,190); " description="unannotated orf[br]Location: 31458 - 55542" locus_tag="ctg1_orf00029" class="clusterblast-orf" points="430,40 675,40 680,35 675,30 430,30 430,40 " id="knownclusterblast-1_q1_10_17"  />
</g>
<g class="clusterblast-cluster" description="Bafilomycin biosynthetic gene cluster (8% of genes show similarity)" label="BGC0000028_c1"  >
<text class="clusterblast-acc" y="70" x="5"  >
<a xlink:href="http://mibig.secondarymetabolites.org/repository/BGC0000028/index.html" target="_blank">BGC0000028_c1</a>: Bafilomycin biosynthetic gene cluster (8% of genes show similarity)</text>
<line y1="85" x2="778.0" style="stroke:grey; stroke-width:1; " x1="10" y2="85"  />
<polygon style="stroke:black; stroke-width:1; fill:#FFFFFF; " description="BafX[br]Location: 1 - 1587" locus_tag="ADC79613.1" id="knownclusterblast-1_h1_10_0" points="10,85 15,80 26,80 26,90 15,90 10,85 " class="clusterblast-orf"  />
<polygon style="stroke:black; stroke-width:1; fill:#FFFFFF; " description="BafY[br]Location: 1595 - 3139" locus_tag="ADC79614.1" id="knownclusterblast-1_h1_10_1" points="26,85 31,80 42,80 42,90 31,90 26,85 " class="clusterblast-orf"  />
<polygon style="stroke:black; stroke-width:1; fill:#FFFFFF; " description="BafZ[br]Location: 3350 - 4594" locus_tag="ADC79615.1" id="knownclusterblast-1_h1_10_2" points="44,90 52,90 57,85 52,80 44,80 44,90 " class="clusterblast-orf"  />
<polygon style="stroke:black; stroke-width:1; fill:#FFFFFF; " description="BafAI[br]Location: 4831 - 19485" locus_tag="ADC79616.1" id="knownclusterblast-1_h1_10_3" points="60,90 207,90 212,85 207,80 60,80 60,90 " class="clusterblast-orf"  />
<polygon style="stroke:black; stroke-width:1; fill:#FFFFFF; " description="BafAII[br]Location: 19502 - 34939" locus_tag="ADC79617.1" id="knownclusterblast-1_h1_10_4" points="212,90 367,90 372,85 367,80 212,80 212,90 " class="clusterblast-orf"  />
<polygon style="stroke:black; stroke-width:1; fill:rgb(63,63,190); " description="BafAIII[br]Location: 34977 - 46883&lt;br&gt;&lt;br&gt;&lt;b&gt;BlastP hit with ctg1_orf00007&lt;/b&gt;&lt;br&gt;Percentage identity: 46%&lt;br&gt;Percentage coverage: 67%&lt;br&gt;BLAST bit score: 2273&lt;br&gt;E-value: 0.0e+00" locus_tag="ADC79618.1" id="knownclusterblast-1_h1_10_5" points="373,90 491,90 496,85 491,80 373,80 373,90 " class="clusterblast-orf"  />
<polygon style="stroke:black; stroke-width:1; fill:#FFFFFF; " description="BafAIV[br]Location: 46933 - 57468" locus_tag="ADC79619.1" id="knownclusterblast-1_h1_10_6" points="497,90 601,90 606,85 601,80 497,80 497,90 " class="clusterblast-orf"  />
<polygon style="stroke:black; stroke-width:1; fill:#FFFFFF; " description="BafAV[br]Location: 57521 - 63832" locus_tag="ADC79620.1" id="knownclusterblast-1_h1_10_7" points="607,90 667,90 672,85 667,80 607,80 607,90 " class="clusterblast-orf"  />
<polygon style="stroke:black; stroke-width:1; fill:#FFFFFF; " description="BafB[br]Location: 63829 - 64719" locus_tag="ADC79621.1" id="knownclusterblast-1_h1_10_8" points="672,90 676,90 681,85 676,80 672,80 672,90 " class="clusterblast-orf"  />
<polygon style="stroke:black; stroke-width:1; fill:#FFFFFF; " description="BafC[br]Location: 64742 - 65023" locus_tag="ADC79622.1" id="knownclusterblast-1_h1_10_9" points="682,90 685,85 682,80 682,90 " class="clusterblast-orf"  />
<polygon style="stroke:black; stroke-width:1; fill:#FFFFFF; " description="BafD[br]Location: 65040 - 66131" locus_tag="ADC79623.1" id="knownclusterblast-1_h1_10_10" points="685,90 691,90 696,85 691,80 685,80 685,90 " class="clusterblast-orf"  />
<polygon style="stroke:black; stroke-width:1; fill:#FFFFFF; " description="BafE[br]Location: 66167 - 67264" locus_tag="ADC79624.1" id="knownclusterblast-1_h1_10_11" points="696,90 703,90 708,85 703,80 696,80 696,90 " class="clusterblast-orf"  />
<polygon style="stroke:black; stroke-width:1; fill:#FFFFFF; " description="BafF[br]Location: 67307 - 67969" locus_tag="ADC79625.1" id="knownclusterblast-1_h1_10_12" points="708,85 713,80 715,80 715,90 713,90 708,85 " class="clusterblast-orf"  />
<polygon style="stroke:black; stroke-width:1; fill:#FFFFFF; " description="BafG[br]Location: 68094 - 69923" locus_tag="ADC79626.1" id="knownclusterblast-1_h1_10_13" points="716,85 721,80 735,80 735,90 721,90 716,85 " class="clusterblast-orf"  />
<polygon style="stroke:black; stroke-width:1; fill:rgb(63,190,63); " description="BafH[br]Location: 70537 - 71298&lt;br&gt;&lt;br&gt;&lt;b&gt;BlastP hit with ctg1_orf00009&lt;/b&gt;&lt;br&gt;Percentage identity: 51%&lt;br&gt;Percentage coverage: 97%&lt;br&gt;BLAST bit score: 217&lt;br&gt;E-value: 2.2e-56" locus_tag="ADC79627.1" id="knownclusterblast-1_h1_10_14" points="742,90 745,90 750,85 745,80 742,80 742,90 " class="clusterblast-orf"  />
<polygon style="stroke:black; stroke-width:1; fill:#FFFFFF; " description="putative_LuxR-like_protein[br]Location: 71332 - 71685" locus_tag="ADC79628.1" id="knownclusterblast-1_h1_10_15" points="750,90 754,85 750,80 750,90 " class="clusterblast-orf"  />
<polygon style="stroke:black; stroke-width:1; fill:#FFFFFF; " description="putative_malonyl_transferase[br]Location: 71939 - 72901" locus_tag="ADC79629.1" id="knownclusterblast-1_h1_10_16" points="756,90 761,90 766,85 761,80 756,80 756,90 " class="clusterblast-orf"  />
<polygon style="stroke:black; stroke-width:1; fill:#FFFFFF; " description="putative_CoA_ligase[br]Location: 72979 - 73977" locus_tag="ADC79630.1" id="knownclusterblast-1_h1_10_17" points="767,90 773,90 778,85 773,80 767,80 767,90 " class="clusterblast-orf"  />
</g>
</svg>
