<svg xmlns="http://www.w3.org/2000/svg" height="230" width="800" version="1.1" y="0" x="0" preserveAspectRatio="none" xmlns:xlink="http://www.w3.org/1999/xlink" viewBox="0 0 800 230"  >
<g class="clusterblast-cluster" label="Query sequence"  >
<text class="clusterblast-acc" y="20" x="5"  >
Query sequence</text>
<line y1="35" x2="778.0" style="stroke:grey; stroke-width:1; " x1="10" y2="35"  />
<polygon style="stroke:black; stroke-width:1; fill:rgb(190,63,63); " description="unannotated orf[br]Location: 260 - 1310" locus_tag="ctg1_orf00001" class="clusterblast-orf" points="225,40 226,40 231,35 226,30 225,30 225,40 " id="knownclusterblast-1_q1_2_0"  />
<polygon style="stroke:black; stroke-width:1; fill:#FFFFFF; " description="unannotated orf[br]Location: 1383 - 2187" locus_tag="ctg1_orf00002" class="clusterblast-orf" points="231,35 236,30 236,30 236,40 236,40 231,35 " id="knownclusterblast-1_q1_2_1"  />
<polygon style="stroke:black; stroke-width:1; fill:#FFFFFF; " description="unannotated orf[br]Location: 2403 - 3531" locus_tag="ctg1_orf00003" class="clusterblast-orf" points="238,40 239,40 244,35 239,30 238,30 238,40 " id="knownclusterblast-1_q1_2_2"  />
<polygon style="stroke:black; stroke-width:1; fill:rgb(63,63,190); " description="unannotated orf[br]Location: 3682 - 18142" locus_tag="ctg1_orf00007" class="clusterblast-orf" points="245,40 329,40 334,35 329,30 245,30 245,40 " id="knownclusterblast-1_q1_2_3"  />
<polygon style="stroke:black; stroke-width:1; fill:rgb(63,190,63); " description="unannotated orf[br]Location: 18158 - 18875" locus_tag="ctg1_orf00009" class="clusterblast-orf" points="334,40 338,35 334,30 334,40 " id="knownclusterblast-1_q1_2_4"  />
<polygon style="stroke:black; stroke-width:1; fill:rgb(190,63,190); " description="unannotated orf[br]Location: 19409 - 19649" locus_tag="ctg1_orf00011" class="clusterblast-orf" points="341,40 343,35 341,30 341,40 " id="knownclusterblast-1_q1_2_5"  />
<polygon style="stroke:black; stroke-width:1; fill:#FFFFFF; " description="unannotated orf[br]Location: 19645 - 20791" locus_tag="ctg1_orf00012" class="clusterblast-orf" points="343,40 345,40 350,35 345,30 343,30 343,40 " id="knownclusterblast-1_q1_2_6"  />
<polygon style="stroke:black; stroke-width:1; fill:#FFFFFF; " description="unannotated orf[br]Location: 20961 - 21354" locus_tag="ctg1_orf00013" class="clusterblast-orf" points="351,40 353,35 351,30 351,40 " id="knownclusterblast-1_q1_2_7"  />
<polygon style="stroke:black; stroke-width:1; fill:rgb(190,190,63); " description="unannotated orf[br]Location: 21361 - 22417" locus_tag="ctg1_orf00014" class="clusterblast-orf" points="353,40 355,40 360,35 355,30 353,30 353,40 " id="knownclusterblast-1_q1_2_8"  />
<polygon style="stroke:black; stroke-width:1; fill:#FFFFFF; " description="unannotated orf[br]Location: 22413 - 23247" locus_tag="ctg1_orf00015" class="clusterblast-orf" points="360,40 360,40 365,35 360,30 360,30 360,40 " id="knownclusterblast-1_q1_2_9"  />
<polygon style="stroke:black; stroke-width:1; fill:#FFFFFF; " description="unannotated orf[br]Location: 23381 - 24590" locus_tag="ctg1_orf00016" class="clusterblast-orf" points="366,40 368,40 373,35 368,30 366,30 366,40 " id="knownclusterblast-1_q1_2_10"  />
<polygon style="stroke:black; stroke-width:1; fill:#FFFFFF; " description="unannotated orf[br]Location: 24939 - 26151" locus_tag="ctg1_orf00017" class="clusterblast-orf" points="375,40 378,40 383,35 378,30 375,30 375,40 " id="knownclusterblast-1_q1_2_11"  />
<polygon style="stroke:black; stroke-width:1; fill:#FFFFFF; " description="unannotated orf[br]Location: 26128 - 27313" locus_tag="ctg1_orf00018" class="clusterblast-orf" points="383,40 385,40 390,35 385,30 383,30 383,40 " id="knownclusterblast-1_q1_2_12"  />
<polygon style="stroke:black; stroke-width:1; fill:#FFFFFF; " description="unannotated orf[br]Location: 27334 - 28456" locus_tag="ctg1_orf00019" class="clusterblast-orf" points="390,40 392,40 397,35 392,30 390,30 390,40 " id="knownclusterblast-1_q1_2_13"  />
<polygon style="stroke:black; stroke-width:1; fill:#FFFFFF; " description="unannotated orf[br]Location: 28591 - 29011" locus_tag="ctg1_orf00020" class="clusterblast-orf" points="398,40 400,35 398,30 398,40 " id="knownclusterblast-1_q1_2_14"  />
<polygon style="stroke:black; stroke-width:1; fill:#FFFFFF; " description="unannotated orf[br]Location: 29041 - 29932" locus_tag="ctg1_orf00021" class="clusterblast-orf" points="400,35 405,30 406,30 406,40 405,40 400,35 " id="knownclusterblast-1_q1_2_15"  />
<polygon style="stroke:black; stroke-width:1; fill:rgb(190,190,190); " description="unannotated orf[br]Location: 30215 - 31343" locus_tag="ctg1_orf00022" class="clusterblast-orf" points="407,40 409,40 414,35 409,30 407,30 407,40 " id="knownclusterblast-1_q1_2_16"  />
<polygon style="stroke:black; stroke-width:1; fill:rgb(63,190,190); " description="unannotated orf[br]Location: 31458 - 55542" locus_tag="ctg1_orf00029" class="clusterblast-orf" points="415,40 557,40 562,35 557,30 415,30 415,40 " id="knownclusterblast-1_q1_2_17"  />
</g>
<g class="clusterblast-cluster" description="Nystatin-like Pseudonocardia polyene biosynthetic gene cluster (8% of genes show similarity)" label="BGC0000116_c1"  >
<text class="clusterblast-acc" y="70" x="5"  >
<a xlink:href="http://mibig.secondarymetabolites.org/repository/BGC0000116/index.html" target="_blank">BGC0000116_c1</a>: Nystatin-like Pseudonocardia polyene biosynthetic gene cluster (8% of genes show similarity)</text>
<line y1="85" x2="778.0" style="stroke:grey; stroke-width:1; " x1="10" y2="85"  />
<polygon style="stroke:black; stroke-width:1; fill:#FFFFFF; " description="CppF[br]Location: 1 - 675" locus_tag="ABV83217.1" id="knownclusterblast-1_h1_2_0" points="10,85 14,80 14,90 10,85 " class="clusterblast-orf"  />
<polygon style="stroke:black; stroke-width:1; fill:#FFFFFF; " description="CppG[br]Location: 1551 - 3329" locus_tag="ABV83218.1" id="knownclusterblast-1_h1_2_1" points="19,85 24,80 30,80 30,90 24,90 19,85 " class="clusterblast-orf"  />
<polygon style="stroke:black; stroke-width:1; fill:#FFFFFF; " description="CppH[br]Location: 3421 - 5175" locus_tag="ABV83219.1" id="knownclusterblast-1_h1_2_2" points="30,85 35,80 41,80 41,90 35,90 30,85 " class="clusterblast-orf"  />
<polygon style="stroke:black; stroke-width:1; fill:#FFFFFF; " description="CppDIII[br]Location: 5466 - 6500" locus_tag="ABV83220.1" id="knownclusterblast-1_h1_2_3" points="43,90 44,90 49,85 44,80 43,80 43,90 " class="clusterblast-orf"  />
<polygon style="stroke:black; stroke-width:1; fill:#FFFFFF; " description="CppI[br]Location: 6673 - 35172" locus_tag="ABV83221.1" id="knownclusterblast-1_h1_2_4" points="50,90 219,90 224,85 219,80 50,80 50,90 " class="clusterblast-orf"  />
<polygon style="stroke:black; stroke-width:1; fill:#FFFFFF; " description="CppJ[br]Location: 35193 - 51470" locus_tag="ABV83222.1" id="knownclusterblast-1_h1_2_5" points="224,90 319,90 324,85 319,80 224,80 224,90 " class="clusterblast-orf"  />
<polygon style="stroke:black; stroke-width:1; fill:#FFFFFF; " description="CppK[br]Location: 51508 - 57603" locus_tag="ABV83223.1" id="knownclusterblast-1_h1_2_6" points="324,90 356,90 361,85 356,80 324,80 324,90 " class="clusterblast-orf"  />
<polygon style="stroke:black; stroke-width:1; fill:#FFFFFF; " description="CppL[br]Location: 57600 - 58811" locus_tag="ABV83224.1" id="knownclusterblast-1_h1_2_7" points="361,90 364,90 369,85 364,80 361,80 361,90 " class="clusterblast-orf"  />
<polygon style="stroke:black; stroke-width:1; fill:#FFFFFF; " description="CppN[br]Location: 58862 - 60103" locus_tag="ABV83225.1" id="knownclusterblast-1_h1_2_8" points="369,85 374,80 377,80 377,90 374,90 369,85 " class="clusterblast-orf"  />
<polygon style="stroke:black; stroke-width:1; fill:#FFFFFF; " description="CppDII[br]Location: 60100 - 61158" locus_tag="ABV83226.1" id="knownclusterblast-1_h1_2_9" points="377,85 382,80 383,80 383,90 382,90 377,85 " class="clusterblast-orf"  />
<polygon style="stroke:black; stroke-width:1; fill:#FFFFFF; " description="CppDI[br]Location: 61190 - 62659" locus_tag="ABV83227.1" id="knownclusterblast-1_h1_2_10" points="383,85 388,80 392,80 392,90 388,90 383,85 " class="clusterblast-orf"  />
<polygon style="stroke:black; stroke-width:1; fill:#FFFFFF; " description="CppA[br]Location: 62823 - 66116" locus_tag="ABV83228.1" id="knownclusterblast-1_h1_2_11" points="393,90 408,90 413,85 408,80 393,80 393,90 " class="clusterblast-orf"  />
<polygon style="stroke:black; stroke-width:1; fill:#FFFFFF; " description="CppB[br]Location: 66162 - 75689" locus_tag="ABV83229.1" id="knownclusterblast-1_h1_2_12" points="414,90 467,90 472,85 467,80 414,80 414,90 " class="clusterblast-orf"  />
<polygon style="stroke:black; stroke-width:1; fill:rgb(63,63,190); " description="CppC[br]Location: 75724 - 108354&lt;br&gt;&lt;br&gt;&lt;b&gt;BlastP hit with ctg1_orf00007&lt;/b&gt;&lt;br&gt;Percentage identity: 46%&lt;br&gt;Percentage coverage: 66%&lt;br&gt;BLAST bit score: 2285&lt;br&gt;E-value: 0.0e+00" locus_tag="ABV83230.1" id="knownclusterblast-1_h1_2_13" points="472,90 666,90 671,85 666,80 472,80 472,90 " class="clusterblast-orf"  />
<polygon style="stroke:black; stroke-width:1; fill:rgb(63,190,63); " description="CppE[br]Location: 108432 - 109256&lt;br&gt;&lt;br&gt;&lt;b&gt;BlastP hit with ctg1_orf00009&lt;/b&gt;&lt;br&gt;Percentage identity: 48%&lt;br&gt;Percentage coverage: 99%&lt;br&gt;BLAST bit score: 203&lt;br&gt;E-value: 1.9e-52" locus_tag="ABV83231.1" id="knownclusterblast-1_h1_2_14" points="672,90 672,90 677,85 672,80 672,80 672,90 " class="clusterblast-orf"  />
<polygon style="stroke:black; stroke-width:1; fill:#FFFFFF; " description="CppRI[br]Location: 109391 - 112231" locus_tag="ABV83232.1" id="knownclusterblast-1_h1_2_15" points="678,90 690,90 695,85 690,80 678,80 678,90 " class="clusterblast-orf"  />
<polygon style="stroke:black; stroke-width:1; fill:#FFFFFF; " description="CppRII[br]Location: 112240 - 114537" locus_tag="ABV83233.1" id="knownclusterblast-1_h1_2_16" points="695,90 704,90 709,85 704,80 695,80 695,90 " class="clusterblast-orf"  />
<polygon style="stroke:black; stroke-width:1; fill:#FFFFFF; " description="CppRIII[br]Location: 114555 - 117332" locus_tag="ABV83234.1" id="knownclusterblast-1_h1_2_17" points="709,90 721,90 726,85 721,80 709,80 709,90 " class="clusterblast-orf"  />
<polygon style="stroke:black; stroke-width:1; fill:#FFFFFF; " description="CppO[br]Location: 117603 - 119183" locus_tag="ABV83235.1" id="knownclusterblast-1_h1_2_18" points="728,85 733,80 738,80 738,90 733,90 728,85 " class="clusterblast-orf"  />
<polygon style="stroke:black; stroke-width:1; fill:#FFFFFF; " description="CppRIV[br]Location: 119224 - 119865" locus_tag="ABV83236.1" id="knownclusterblast-1_h1_2_19" points="738,85 742,80 742,90 738,85 " class="clusterblast-orf"  />
<polygon style="stroke:black; stroke-width:1; fill:#FFFFFF; " description="CppM[br]Location: 120205 - 120621" locus_tag="ABV83237.1" id="knownclusterblast-1_h1_2_20" points="744,85 746,80 746,90 744,85 " class="clusterblast-orf"  />
<polygon style="stroke:black; stroke-width:1; fill:#FFFFFF; " description="CppRV[br]Location: 120734 - 123625" locus_tag="ABV83238.1" id="knownclusterblast-1_h1_2_21" points="747,90 760,90 765,85 760,80 747,80 747,90 " class="clusterblast-orf"  />
<polygon style="stroke:black; stroke-width:1; fill:#FFFFFF; " description="CppRVI[br]Location: 123663 - 125717" locus_tag="ABV83239.1" id="knownclusterblast-1_h1_2_22" points="765,90 773,90 778,85 773,80 765,80 765,90 " class="clusterblast-orf"  />
</g>
</svg>
