<svg xmlns="http://www.w3.org/2000/svg" height="230" width="800" version="1.1" y="0" x="0" preserveAspectRatio="none" xmlns:xlink="http://www.w3.org/1999/xlink" viewBox="0 0 800 230"  >
<g class="clusterblast-cluster" label="Query sequence"  >
<text class="clusterblast-acc" y="20" x="5"  >
Query sequence</text>
<line y1="35" x2="778.0" style="stroke:grey; stroke-width:1; " x1="10" y2="35"  />
<polygon style="stroke:black; stroke-width:1; fill:rgb(190,63,63); " description="unannotated orf[br]Location: 260 - 1310" locus_tag="ctg1_orf00001" class="clusterblast-orf" points="227,40 228,40 233,35 228,30 227,30 227,40 " id="knownclusterblast-1_q1_9_0"  />
<polygon style="stroke:black; stroke-width:1; fill:#FFFFFF; " description="unannotated orf[br]Location: 1383 - 2187" locus_tag="ctg1_orf00002" class="clusterblast-orf" points="233,35 238,30 238,30 238,40 238,40 233,35 " id="knownclusterblast-1_q1_9_1"  />
<polygon style="stroke:black; stroke-width:1; fill:#FFFFFF; " description="unannotated orf[br]Location: 2403 - 3531" locus_tag="ctg1_orf00003" class="clusterblast-orf" points="239,40 241,40 246,35 241,30 239,30 239,40 " id="knownclusterblast-1_q1_9_2"  />
<polygon style="stroke:black; stroke-width:1; fill:rgb(63,63,190); " description="unannotated orf[br]Location: 3682 - 18142" locus_tag="ctg1_orf00007" class="clusterblast-orf" points="247,40 329,40 334,35 329,30 247,30 247,40 " id="knownclusterblast-1_q1_9_3"  />
<polygon style="stroke:black; stroke-width:1; fill:rgb(63,190,63); " description="unannotated orf[br]Location: 18158 - 18875" locus_tag="ctg1_orf00009" class="clusterblast-orf" points="335,40 339,35 335,30 335,40 " id="knownclusterblast-1_q1_9_4"  />
<polygon style="stroke:black; stroke-width:1; fill:rgb(190,63,190); " description="unannotated orf[br]Location: 19409 - 19649" locus_tag="ctg1_orf00011" class="clusterblast-orf" points="342,40 344,35 342,30 342,40 " id="knownclusterblast-1_q1_9_5"  />
<polygon style="stroke:black; stroke-width:1; fill:#FFFFFF; " description="unannotated orf[br]Location: 19645 - 20791" locus_tag="ctg1_orf00012" class="clusterblast-orf" points="344,40 345,40 350,35 345,30 344,30 344,40 " id="knownclusterblast-1_q1_9_6"  />
<polygon style="stroke:black; stroke-width:1; fill:#FFFFFF; " description="unannotated orf[br]Location: 20961 - 21354" locus_tag="ctg1_orf00013" class="clusterblast-orf" points="351,40 354,35 351,30 351,40 " id="knownclusterblast-1_q1_9_7"  />
<polygon style="stroke:black; stroke-width:1; fill:rgb(190,190,63); " description="unannotated orf[br]Location: 21361 - 22417" locus_tag="ctg1_orf00014" class="clusterblast-orf" points="354,40 355,40 360,35 355,30 354,30 354,40 " id="knownclusterblast-1_q1_9_8"  />
<polygon style="stroke:black; stroke-width:1; fill:#FFFFFF; " description="unannotated orf[br]Location: 22413 - 23247" locus_tag="ctg1_orf00015" class="clusterblast-orf" points="360,40 360,40 365,35 360,30 360,30 360,40 " id="knownclusterblast-1_q1_9_9"  />
<polygon style="stroke:black; stroke-width:1; fill:#FFFFFF; " description="unannotated orf[br]Location: 23381 - 24590" locus_tag="ctg1_orf00016" class="clusterblast-orf" points="366,40 368,40 373,35 368,30 366,30 366,40 " id="knownclusterblast-1_q1_9_10"  />
<polygon style="stroke:black; stroke-width:1; fill:#FFFFFF; " description="unannotated orf[br]Location: 24939 - 26151" locus_tag="ctg1_orf00017" class="clusterblast-orf" points="375,40 378,40 383,35 378,30 375,30 375,40 " id="knownclusterblast-1_q1_9_11"  />
<polygon style="stroke:black; stroke-width:1; fill:#FFFFFF; " description="unannotated orf[br]Location: 26128 - 27313" locus_tag="ctg1_orf00018" class="clusterblast-orf" points="383,40 385,40 390,35 385,30 383,30 383,40 " id="knownclusterblast-1_q1_9_12"  />
<polygon style="stroke:black; stroke-width:1; fill:#FFFFFF; " description="unannotated orf[br]Location: 27334 - 28456" locus_tag="ctg1_orf00019" class="clusterblast-orf" points="390,40 392,40 397,35 392,30 390,30 390,40 " id="knownclusterblast-1_q1_9_13"  />
<polygon style="stroke:black; stroke-width:1; fill:#FFFFFF; " description="unannotated orf[br]Location: 28591 - 29011" locus_tag="ctg1_orf00020" class="clusterblast-orf" points="398,40 400,35 398,30 398,40 " id="knownclusterblast-1_q1_9_14"  />
<polygon style="stroke:black; stroke-width:1; fill:#FFFFFF; " description="unannotated orf[br]Location: 29041 - 29932" locus_tag="ctg1_orf00021" class="clusterblast-orf" points="400,35 405,30 406,30 406,40 405,40 400,35 " id="knownclusterblast-1_q1_9_15"  />
<polygon style="stroke:black; stroke-width:1; fill:rgb(190,190,190); " description="unannotated orf[br]Location: 30215 - 31343" locus_tag="ctg1_orf00022" class="clusterblast-orf" points="407,40 409,40 414,35 409,30 407,30 407,40 " id="knownclusterblast-1_q1_9_16"  />
<polygon style="stroke:black; stroke-width:1; fill:rgb(63,190,190); " description="unannotated orf[br]Location: 31458 - 55542" locus_tag="ctg1_orf00029" class="clusterblast-orf" points="415,40 555,40 560,35 555,30 415,30 415,40 " id="knownclusterblast-1_q1_9_17"  />
</g>
<g class="clusterblast-cluster" description="Salinomycin biosynthetic gene cluster (8% of genes show similarity)" label="BGC0000144_c1"  >
<text class="clusterblast-acc" y="70" x="5"  >
<a xlink:href="http://mibig.secondarymetabolites.org/repository/BGC0000144/index.html" target="_blank">BGC0000144_c1</a>: Salinomycin biosynthetic gene cluster (8% of genes show similarity)</text>
<line y1="85" x2="778.0" style="stroke:grey; stroke-width:1; " x1="10" y2="85"  />
<polygon style="stroke:black; stroke-width:1; fill:#FFFFFF; " description="putative_alkyl_hydroperoxide_reductase_subunit_C_protein[br]Location: 239 - 694" locus_tag="AEZ53933.1" id="knownclusterblast-1_h1_9_0" points="10,85 12,80 12,90 10,85 " class="clusterblast-orf"  />
<polygon style="stroke:black; stroke-width:1; fill:#FFFFFF; " description="putative_membrane_protein[br]Location: 824 - 1201" locus_tag="AEZ53934.1" id="knownclusterblast-1_h1_9_1" points="13,85 15,80 15,90 13,85 " class="clusterblast-orf"  />
<polygon style="stroke:black; stroke-width:1; fill:#FFFFFF; " description="putative_transcription_regulator[br]Location: 1418 - 1918" locus_tag="AEZ53935.1" id="knownclusterblast-1_h1_9_2" points="17,90 20,85 17,80 17,90 " class="clusterblast-orf"  />
<polygon style="stroke:black; stroke-width:1; fill:#FFFFFF; " description="putative_amidinotransferase[br]Location: 2137 - 2913" locus_tag="AEZ53936.1" id="knownclusterblast-1_h1_9_3" points="21,90 21,90 26,85 21,80 21,80 21,90 " class="clusterblast-orf"  />
<polygon style="stroke:black; stroke-width:1; fill:#FFFFFF; " description="putative_ornithine_aminotransferase[br]Location: 2910 - 4139" locus_tag="AEZ53937.1" id="knownclusterblast-1_h1_9_4" points="26,90 28,90 33,85 28,80 26,80 26,90 " class="clusterblast-orf"  />
<polygon style="stroke:black; stroke-width:1; fill:#FFFFFF; " description="putative_zinc-binding_dehydrogenase_family_oxidoreductase[br]Location: 4218 - 5267" locus_tag="AEZ53938.1" id="knownclusterblast-1_h1_9_5" points="34,85 39,80 40,80 40,90 39,90 34,85 " class="clusterblast-orf"  />
<polygon style="stroke:black; stroke-width:1; fill:#FFFFFF; " description="putative_glucose-6-phosphate_1-dehydrogenase[br]Location: 5560 - 7008" locus_tag="AEZ53939.1" id="knownclusterblast-1_h1_9_6" points="42,90 45,90 50,85 45,80 42,80 42,90 " class="clusterblast-orf"  />
<polygon style="stroke:black; stroke-width:1; fill:#FFFFFF; " description="putative_membrane_protein[br]Location: 7005 - 8204" locus_tag="AEZ53940.1" id="knownclusterblast-1_h1_9_7" points="50,90 53,90 58,85 53,80 50,80 50,90 " class="clusterblast-orf"  />
<polygon style="stroke:black; stroke-width:1; fill:#FFFFFF; " description="putative_regulatory_protein[br]Location: 8477 - 9460" locus_tag="AEZ53941.1" id="knownclusterblast-1_h1_9_8" points="59,85 64,80 65,80 65,90 64,90 59,85 " class="clusterblast-orf"  />
<polygon style="stroke:black; stroke-width:1; fill:#FFFFFF; " description="putative_transcriptional_regulator[br]Location: 10037 - 10519" locus_tag="AEZ53942.1" id="knownclusterblast-1_h1_9_9" points="69,90 72,85 69,80 69,90 " class="clusterblast-orf"  />
<polygon style="stroke:black; stroke-width:1; fill:#FFFFFF; " description="putative_3-hydroxybutyryl-CoA_dehydrogenase[br]Location: 10611 - 12329" locus_tag="AEZ53943.1" id="knownclusterblast-1_h1_9_10" points="72,85 77,80 82,80 82,90 77,90 72,85 " class="clusterblast-orf"  />
<polygon style="stroke:black; stroke-width:1; fill:#FFFFFF; " description="putative_3-oxoacyl-(acyl-carrier-protein_)_synthase_III[br]Location: 12326 - 13354" locus_tag="AEZ53944.1" id="knownclusterblast-1_h1_9_11" points="82,85 87,80 89,80 89,90 87,90 82,85 " class="clusterblast-orf"  />
<polygon style="stroke:black; stroke-width:1; fill:rgb(63,63,190); " description="polyketide_synthase[br]Location: 13658 - 28435&lt;br&gt;&lt;br&gt;&lt;b&gt;BlastP hit with ctg1_orf00007&lt;/b&gt;&lt;br&gt;Percentage identity: 46%&lt;br&gt;Percentage coverage: 69%&lt;br&gt;BLAST bit score: 2429&lt;br&gt;E-value: 0.0e+00" locus_tag="AEZ53945.1" id="knownclusterblast-1_h1_9_12" points="91,90 175,90 180,85 175,80 91,80 91,90 " class="clusterblast-orf"  />
<polygon style="stroke:black; stroke-width:1; fill:#FFFFFF; " description="polyketide_synthase[br]Location: 28468 - 40221" locus_tag="AEZ53946.1" id="knownclusterblast-1_h1_9_13" points="180,90 246,90 251,85 246,80 180,80 180,90 " class="clusterblast-orf"  />
<polygon style="stroke:black; stroke-width:1; fill:#FFFFFF; " description="polyketide_synthase[br]Location: 40244 - 48322" locus_tag="AEZ53947.1" id="knownclusterblast-1_h1_9_14" points="251,90 295,90 300,85 295,80 251,80 251,90 " class="clusterblast-orf"  />
<polygon style="stroke:black; stroke-width:1; fill:#FFFFFF; " description="polyketide_synthase[br]Location: 48450 - 53378" locus_tag="AEZ53948.1" id="knownclusterblast-1_h1_9_15" points="301,90 325,90 330,85 325,80 301,80 301,90 " class="clusterblast-orf"  />
<polygon style="stroke:black; stroke-width:1; fill:#FFFFFF; " description="polyketide_synthase[br]Location: 53431 - 64683" locus_tag="AEZ53949.1" id="knownclusterblast-1_h1_9_16" points="331,90 394,90 399,85 394,80 331,80 331,90 " class="clusterblast-orf"  />
<polygon style="stroke:black; stroke-width:1; fill:#FFFFFF; " description="polyketide_synthase[br]Location: 64798 - 69105" locus_tag="AEZ53950.1" id="knownclusterblast-1_h1_9_17" points="399,90 420,90 425,85 420,80 399,80 399,90 " class="clusterblast-orf"  />
<polygon style="stroke:black; stroke-width:1; fill:#FFFFFF; " description="polyketide_synthase[br]Location: 69148 - 74082" locus_tag="AEZ53951.1" id="knownclusterblast-1_h1_9_18" points="426,90 450,90 455,85 450,80 426,80 426,90 " class="clusterblast-orf"  />
<polygon style="stroke:black; stroke-width:1; fill:#FFFFFF; " description="polyketide_synthase[br]Location: 74150 - 85324" locus_tag="AEZ53952.1" id="knownclusterblast-1_h1_9_19" points="456,90 518,90 523,85 518,80 456,80 456,90 " class="clusterblast-orf"  />
<polygon style="stroke:black; stroke-width:1; fill:#FFFFFF; " description="polyketide_synthase[br]Location: 85352 - 92290" locus_tag="AEZ53953.1" id="knownclusterblast-1_h1_9_20" points="523,90 560,90 565,85 560,80 523,80 523,90 " class="clusterblast-orf"  />
<polygon style="stroke:black; stroke-width:1; fill:#FFFFFF; " description="putative_epoxide_hydrolase[br]Location: 92379 - 92765" locus_tag="AEZ53954.1" id="knownclusterblast-1_h1_9_21" points="566,90 568,85 566,80 566,90 " class="clusterblast-orf"  />
<polygon style="stroke:black; stroke-width:1; fill:rgb(63,190,63); " description="putative_thioesterase[br]Location: 92807 - 93604&lt;br&gt;&lt;br&gt;&lt;b&gt;BlastP hit with ctg1_orf00009&lt;/b&gt;&lt;br&gt;Percentage identity: 46%&lt;br&gt;Percentage coverage: 97%&lt;br&gt;BLAST bit score: 186&lt;br&gt;E-value: 4.1e-47" locus_tag="AEZ53955.1" id="knownclusterblast-1_h1_9_22" points="568,90 568,90 573,85 568,80 568,80 568,90 " class="clusterblast-orf"  />
<polygon style="stroke:black; stroke-width:1; fill:#FFFFFF; " description="putative_O-methyltransferase-like_protein[br]Location: 93645 - 94460" locus_tag="AEZ53956.1" id="knownclusterblast-1_h1_9_23" points="573,90 573,90 578,85 573,80 573,80 573,90 " class="clusterblast-orf"  />
<polygon style="stroke:black; stroke-width:1; fill:#FFFFFF; " description="putative_ferridoxin_protein[br]Location: 94655 - 94936" locus_tag="AEZ53957.1" id="knownclusterblast-1_h1_9_24" points="579,85 581,80 581,90 579,85 " class="clusterblast-orf"  />
<polygon style="stroke:black; stroke-width:1; fill:#FFFFFF; " description="putative_cytochrome_P450[br]Location: 94933 - 96156" locus_tag="AEZ53958.1" id="knownclusterblast-1_h1_9_25" points="581,85 586,80 589,80 589,90 586,90 581,85 " class="clusterblast-orf"  />
<polygon style="stroke:black; stroke-width:1; fill:#FFFFFF; " description="putative_ABC_transporter_ATP-binding_protein[br]Location: 96333 - 97292" locus_tag="AEZ53959.1" id="knownclusterblast-1_h1_9_26" points="590,90 590,90 595,85 590,80 590,80 590,90 " class="clusterblast-orf"  />
<polygon style="stroke:black; stroke-width:1; fill:#FFFFFF; " description="putative_antibiotic_ABC_transporter_efflux_pump[br]Location: 97289 - 98929" locus_tag="AEZ53960.1" id="knownclusterblast-1_h1_9_27" points="595,90 600,90 605,85 600,80 595,80 595,90 " class="clusterblast-orf"  />
<polygon style="stroke:black; stroke-width:1; fill:#FFFFFF; " description="putative_epoxide_hydrolase[br]Location: 99101 - 99550" locus_tag="AEZ53961.1" id="knownclusterblast-1_h1_9_28" points="606,85 609,80 609,90 606,85 " class="clusterblast-orf"  />
<polygon style="stroke:black; stroke-width:1; fill:#FFFFFF; " description="putative_epoxide_hydrolase[br]Location: 99543 - 100004" locus_tag="AEZ53962.1" id="knownclusterblast-1_h1_9_29" points="609,85 612,80 612,90 609,85 " class="clusterblast-orf"  />
<polygon style="stroke:black; stroke-width:1; fill:#FFFFFF; " description="epoxidase[br]Location: 100184 - 101638" locus_tag="AEZ53963.1" id="knownclusterblast-1_h1_9_30" points="613,90 617,90 622,85 617,80 613,80 613,90 " class="clusterblast-orf"  />
<polygon style="stroke:black; stroke-width:1; fill:#FFFFFF; " description="putative_transcriptional_regulator[br]Location: 102168 - 104888" locus_tag="AEZ53964.1" id="knownclusterblast-1_h1_9_31" points="625,90 636,90 641,85 636,80 625,80 625,90 " class="clusterblast-orf"  />
<polygon style="stroke:black; stroke-width:1; fill:#FFFFFF; " description="putative_thioesterase[br]Location: 105116 - 105877" locus_tag="AEZ53965.1" id="knownclusterblast-1_h1_9_32" points="643,90 647,85 643,80 643,90 " class="clusterblast-orf"  />
<polygon style="stroke:black; stroke-width:1; fill:#FFFFFF; " description="putative_peptide_synthetase[br]Location: 106029 - 108617" locus_tag="AEZ53966.1" id="knownclusterblast-1_h1_9_33" points="648,90 659,90 664,85 659,80 648,80 648,90 " class="clusterblast-orf"  />
<polygon style="stroke:black; stroke-width:1; fill:#FFFFFF; " description="hypothetical_protein[br]Location: 108679 - 108927" locus_tag="AEZ53967.1" id="knownclusterblast-1_h1_9_34" points="664,85 666,80 666,90 664,85 " class="clusterblast-orf"  />
<polygon style="stroke:black; stroke-width:1; fill:#FFFFFF; " description="putative_SARP_family_transcriptional_regulator[br]Location: 109104 - 111671" locus_tag="AEZ53968.1" id="knownclusterblast-1_h1_9_35" points="667,85 672,80 682,80 682,90 672,90 667,85 " class="clusterblast-orf"  />
<polygon style="stroke:black; stroke-width:1; fill:#FFFFFF; " description="putative_AMP-binding_domain-containing_protein[br]Location: 111987 - 113780" locus_tag="AEZ53969.1" id="knownclusterblast-1_h1_9_36" points="684,90 690,90 695,85 690,80 684,80 684,90 " class="clusterblast-orf"  />
<polygon style="stroke:black; stroke-width:1; fill:#FFFFFF; " description="putative_acyl-CoA_dehydrogenase[br]Location: 113774 - 115492" locus_tag="AEZ53970.1" id="knownclusterblast-1_h1_9_37" points="695,90 700,90 705,85 700,80 695,80 695,90 " class="clusterblast-orf"  />
<polygon style="stroke:black; stroke-width:1; fill:#FFFFFF; " description="putative_peptide_carrier_protein[br]Location: 115524 - 115814" locus_tag="AEZ53971.1" id="knownclusterblast-1_h1_9_38" points="705,90 707,85 705,80 705,90 " class="clusterblast-orf"  />
<polygon style="stroke:black; stroke-width:1; fill:#FFFFFF; " description="putative_4'-phosphopantetheinyl_transferase[br]Location: 115811 - 116650" locus_tag="AEZ53972.1" id="knownclusterblast-1_h1_9_39" points="707,90 707,90 712,85 707,80 707,80 707,90 " class="clusterblast-orf"  />
<polygon style="stroke:black; stroke-width:1; fill:#FFFFFF; " description="putative_gamma-butyrolactone_biosynthesis_protein[br]Location: 116675 - 117658" locus_tag="AEZ53973.1" id="knownclusterblast-1_h1_9_40" points="712,85 717,80 718,80 718,90 717,90 712,85 " class="clusterblast-orf"  />
<polygon style="stroke:black; stroke-width:1; fill:#FFFFFF; " description="hypothetical_protein[br]Location: 117832 - 118878" locus_tag="AEZ53974.1" id="knownclusterblast-1_h1_9_41" points="719,85 724,80 726,80 726,90 724,90 719,85 " class="clusterblast-orf"  />
<polygon style="stroke:black; stroke-width:1; fill:#FFFFFF; " description="putative_secreted_protein[br]Location: 119021 - 120190" locus_tag="AEZ53975.1" id="knownclusterblast-1_h1_9_42" points="727,85 732,80 734,80 734,90 732,90 727,85 " class="clusterblast-orf"  />
<polygon style="stroke:black; stroke-width:1; fill:#FFFFFF; " description="putative_beta-hexosaminidase[br]Location: 120227 - 121783" locus_tag="AEZ53976.1" id="knownclusterblast-1_h1_9_43" points="734,85 739,80 743,80 743,90 739,90 734,85 " class="clusterblast-orf"  />
<polygon style="stroke:black; stroke-width:1; fill:#FFFFFF; " description="putative_sugar_transporter_membrane_protein[br]Location: 121828 - 122730" locus_tag="AEZ53977.1" id="knownclusterblast-1_h1_9_44" points="744,85 749,80 749,80 749,90 749,90 744,85 " class="clusterblast-orf"  />
<polygon style="stroke:black; stroke-width:1; fill:#FFFFFF; " description="putative_sugar_transporter_membrane_protein[br]Location: 122727 - 123713" locus_tag="AEZ53978.1" id="knownclusterblast-1_h1_9_45" points="749,85 754,80 755,80 755,90 754,90 749,85 " class="clusterblast-orf"  />
<polygon style="stroke:black; stroke-width:1; fill:#FFFFFF; " description="putative_sugar_transporter_sugar_binding_protein[br]Location: 123761 - 125026" locus_tag="AEZ53979.1" id="knownclusterblast-1_h1_9_46" points="755,85 760,80 763,80 763,90 760,90 755,85 " class="clusterblast-orf"  />
<polygon style="stroke:black; stroke-width:1; fill:#FFFFFF; " description="putative_hydrolase[br]Location: 125286 - 126194" locus_tag="AEZ53980.1" id="knownclusterblast-1_h1_9_47" points="764,85 769,80 770,80 770,90 769,90 764,85 " class="clusterblast-orf"  />
<polygon style="stroke:black; stroke-width:1; fill:#FFFFFF; " description="putative_transcriptional_regulator[br]Location: 126616 - 127455" locus_tag="AEZ53981.1" id="knownclusterblast-1_h1_9_48" points="772,90 773,90 778,85 773,80 772,80 772,90 " class="clusterblast-orf"  />
</g>
</svg>
