<svg xmlns="http://www.w3.org/2000/svg" height="230" width="800" version="1.1" y="0" x="0" preserveAspectRatio="none" xmlns:xlink="http://www.w3.org/1999/xlink" viewBox="0 0 800 230"  >
<g class="clusterblast-cluster" label="Query sequence"  >
<text class="clusterblast-acc" y="20" x="5"  >
Query sequence</text>
<line y1="35" x2="778.0" style="stroke:grey; stroke-width:1; " x1="10" y2="35"  />
<polygon style="stroke:black; stroke-width:1; fill:rgb(190,63,63); " description="unannotated orf[br]Location: 260 - 1310" locus_tag="ctg1_orf00001" class="clusterblast-orf" points="239,40 239,40 244,35 239,30 239,30 239,40 " id="knownclusterblast-1_q1_4_0"  />
<polygon style="stroke:black; stroke-width:1; fill:#FFFFFF; " description="unannotated orf[br]Location: 1383 - 2187" locus_tag="ctg1_orf00002" class="clusterblast-orf" points="245,35 249,30 249,40 245,35 " id="knownclusterblast-1_q1_4_1"  />
<polygon style="stroke:black; stroke-width:1; fill:#FFFFFF; " description="unannotated orf[br]Location: 2403 - 3531" locus_tag="ctg1_orf00003" class="clusterblast-orf" points="250,40 252,40 257,35 252,30 250,30 250,40 " id="knownclusterblast-1_q1_4_2"  />
<polygon style="stroke:black; stroke-width:1; fill:rgb(63,63,190); " description="unannotated orf[br]Location: 3682 - 18142" locus_tag="ctg1_orf00007" class="clusterblast-orf" points="258,40 334,40 339,35 334,30 258,30 258,40 " id="knownclusterblast-1_q1_4_3"  />
<polygon style="stroke:black; stroke-width:1; fill:rgb(63,190,63); " description="unannotated orf[br]Location: 18158 - 18875" locus_tag="ctg1_orf00009" class="clusterblast-orf" points="339,40 343,35 339,30 339,40 " id="knownclusterblast-1_q1_4_4"  />
<polygon style="stroke:black; stroke-width:1; fill:rgb(190,63,190); " description="unannotated orf[br]Location: 19409 - 19649" locus_tag="ctg1_orf00011" class="clusterblast-orf" points="346,40 347,35 346,30 346,40 " id="knownclusterblast-1_q1_4_5"  />
<polygon style="stroke:black; stroke-width:1; fill:#FFFFFF; " description="unannotated orf[br]Location: 19645 - 20791" locus_tag="ctg1_orf00012" class="clusterblast-orf" points="347,40 348,40 353,35 348,30 347,30 347,40 " id="knownclusterblast-1_q1_4_6"  />
<polygon style="stroke:black; stroke-width:1; fill:#FFFFFF; " description="unannotated orf[br]Location: 20961 - 21354" locus_tag="ctg1_orf00013" class="clusterblast-orf" points="354,40 357,35 354,30 354,40 " id="knownclusterblast-1_q1_4_7"  />
<polygon style="stroke:black; stroke-width:1; fill:rgb(190,190,63); " description="unannotated orf[br]Location: 21361 - 22417" locus_tag="ctg1_orf00014" class="clusterblast-orf" points="357,40 358,40 363,35 358,30 357,30 357,40 " id="knownclusterblast-1_q1_4_8"  />
<polygon style="stroke:black; stroke-width:1; fill:#FFFFFF; " description="unannotated orf[br]Location: 22413 - 23247" locus_tag="ctg1_orf00015" class="clusterblast-orf" points="363,40 367,35 363,30 363,40 " id="knownclusterblast-1_q1_4_9"  />
<polygon style="stroke:black; stroke-width:1; fill:#FFFFFF; " description="unannotated orf[br]Location: 23381 - 24590" locus_tag="ctg1_orf00016" class="clusterblast-orf" points="368,40 370,40 375,35 370,30 368,30 368,40 " id="knownclusterblast-1_q1_4_10"  />
<polygon style="stroke:black; stroke-width:1; fill:#FFFFFF; " description="unannotated orf[br]Location: 24939 - 26151" locus_tag="ctg1_orf00017" class="clusterblast-orf" points="377,40 378,40 383,35 378,30 377,30 377,40 " id="knownclusterblast-1_q1_4_11"  />
<polygon style="stroke:black; stroke-width:1; fill:#FFFFFF; " description="unannotated orf[br]Location: 26128 - 27313" locus_tag="ctg1_orf00018" class="clusterblast-orf" points="383,40 385,40 390,35 385,30 383,30 383,40 " id="knownclusterblast-1_q1_4_12"  />
<polygon style="stroke:black; stroke-width:1; fill:#FFFFFF; " description="unannotated orf[br]Location: 27334 - 28456" locus_tag="ctg1_orf00019" class="clusterblast-orf" points="390,40 391,40 396,35 391,30 390,30 390,40 " id="knownclusterblast-1_q1_4_13"  />
<polygon style="stroke:black; stroke-width:1; fill:#FFFFFF; " description="unannotated orf[br]Location: 28591 - 29011" locus_tag="ctg1_orf00020" class="clusterblast-orf" points="397,40 399,35 397,30 397,40 " id="knownclusterblast-1_q1_4_14"  />
<polygon style="stroke:black; stroke-width:1; fill:#FFFFFF; " description="unannotated orf[br]Location: 29041 - 29932" locus_tag="ctg1_orf00021" class="clusterblast-orf" points="400,35 405,30 405,30 405,40 405,40 400,35 " id="knownclusterblast-1_q1_4_15"  />
<polygon style="stroke:black; stroke-width:1; fill:rgb(190,190,190); " description="unannotated orf[br]Location: 30215 - 31343" locus_tag="ctg1_orf00022" class="clusterblast-orf" points="406,40 408,40 413,35 408,30 406,30 406,40 " id="knownclusterblast-1_q1_4_16"  />
<polygon style="stroke:black; stroke-width:1; fill:rgb(63,190,190); " description="unannotated orf[br]Location: 31458 - 55542" locus_tag="ctg1_orf00029" class="clusterblast-orf" points="413,40 543,40 548,35 543,30 413,30 413,40 " id="knownclusterblast-1_q1_4_17"  />
</g>
<g class="clusterblast-cluster" description="FR-008 biosynthetic gene cluster (17% of genes show similarity)" label="BGC0000061_c1"  >
<text class="clusterblast-acc" y="70" x="5"  >
<a xlink:href="http://mibig.secondarymetabolites.org/repository/BGC0000061/index.html" target="_blank">BGC0000061_c1</a>: FR-008 biosynthetic gene cluster (17% of genes show similarity)</text>
<line y1="85" x2="778.0" style="stroke:grey; stroke-width:1; " x1="10" y2="85"  />
<polygon style="stroke:black; stroke-width:1; fill:#FFFFFF; " description="FscO[br]Location: 574 - 1950" locus_tag="AAQ82549.1" id="knownclusterblast-1_h1_4_0" points="10,85 15,80 17,80 17,90 15,90 10,85 " class="clusterblast-orf"  />
<polygon style="stroke:black; stroke-width:1; fill:#FFFFFF; " description="PabC[br]Location: 2264 - 3037" locus_tag="AAQ82550.2" id="knownclusterblast-1_h1_4_1" points="19,85 23,80 23,90 19,85 " class="clusterblast-orf"  />
<polygon style="stroke:black; stroke-width:1; fill:#FFFFFF; " description="FscRI[br]Location: 3150 - 3818" locus_tag="AAQ82551.1" id="knownclusterblast-1_h1_4_2" points="24,85 28,80 28,90 24,85 " class="clusterblast-orf"  />
<polygon style="stroke:black; stroke-width:1; fill:#FFFFFF; " description="FscRII[br]Location: 4377 - 7205" locus_tag="AAQ82552.1" id="knownclusterblast-1_h1_4_3" points="31,85 36,80 47,80 47,90 36,90 31,85 " class="clusterblast-orf"  />
<polygon style="stroke:black; stroke-width:1; fill:#FFFFFF; " description="FscRIII[br]Location: 7210 - 10254" locus_tag="AAQ82553.1" id="knownclusterblast-1_h1_4_4" points="47,85 52,80 64,80 64,90 52,90 47,85 " class="clusterblast-orf"  />
<polygon style="stroke:black; stroke-width:1; fill:#FFFFFF; " description="FscRIV[br]Location: 10298 - 13315" locus_tag="AAQ82554.1" id="knownclusterblast-1_h1_4_5" points="64,85 69,80 81,80 81,90 69,90 64,85 " class="clusterblast-orf"  />
<polygon style="stroke:black; stroke-width:1; fill:#FFFFFF; " description="FscMI[br]Location: 13522 - 14898" locus_tag="AAQ82555.1" id="knownclusterblast-1_h1_4_6" points="82,90 85,90 90,85 85,80 82,80 82,90 " class="clusterblast-orf"  />
<polygon style="stroke:black; stroke-width:1; fill:#FFFFFF; " description="FscMII[br]Location: 14953 - 16011" locus_tag="AAQ82556.1" id="knownclusterblast-1_h1_4_7" points="90,90 91,90 96,85 91,80 90,80 90,90 " class="clusterblast-orf"  />
<polygon style="stroke:black; stroke-width:1; fill:#FFFFFF; " description="FscP[br]Location: 16106 - 17287" locus_tag="AAQ82557.1" id="knownclusterblast-1_h1_4_8" points="96,90 98,90 103,85 98,80 96,80 96,90 " class="clusterblast-orf"  />
<polygon style="stroke:black; stroke-width:1; fill:#FFFFFF; " description="FscFE[br]Location: 17334 - 17528" locus_tag="AAQ82558.1" id="knownclusterblast-1_h1_4_9" points="103,90 104,85 103,80 103,90 " class="clusterblast-orf"  />
<polygon style="stroke:black; stroke-width:1; fill:rgb(63,190,63); " description="FscTE[br]Location: 17556 - 18413&lt;br&gt;&lt;br&gt;&lt;b&gt;BlastP hit with ctg1_orf00009&lt;/b&gt;&lt;br&gt;Percentage identity: 48%&lt;br&gt;Percentage coverage: 94%&lt;br&gt;BLAST bit score: 191&lt;br&gt;E-value: 7.5e-49" locus_tag="AAQ82559.1" id="knownclusterblast-1_h1_4_10" points="105,90 109,85 105,80 105,90 " class="clusterblast-orf"  />
<polygon style="stroke:black; stroke-width:1; fill:#FFFFFF; " description="PabAB[br]Location: 18610 - 20781" locus_tag="AAQ82560.1" id="knownclusterblast-1_h1_4_11" points="110,90 118,90 123,85 118,80 110,80 110,90 " class="clusterblast-orf"  />
<polygon style="stroke:black; stroke-width:1; fill:#FFFFFF; " description="FscA[br]Location: 20927 - 26158" locus_tag="AAQ82561.1" id="knownclusterblast-1_h1_4_12" points="123,90 148,90 153,85 148,80 123,80 123,90 " class="clusterblast-orf"  />
<polygon style="stroke:black; stroke-width:1; fill:rgb(190,190,63); " description="FscTI[br]Location: 26333 - 27340&lt;br&gt;&lt;br&gt;&lt;b&gt;BlastP hit with ctg1_orf00014&lt;/b&gt;&lt;br&gt;Percentage identity: 51%&lt;br&gt;Percentage coverage: 87%&lt;br&gt;BLAST bit score: 282&lt;br&gt;E-value: 8.2e-76" locus_tag="AAQ82562.1" id="knownclusterblast-1_h1_4_13" points="154,90 154,90 159,85 154,80 154,80 154,90 " class="clusterblast-orf"  />
<polygon style="stroke:black; stroke-width:1; fill:#FFFFFF; " description="FscTII[br]Location: 27561 - 28280" locus_tag="AAQ82563.1" id="knownclusterblast-1_h1_4_14" points="161,90 165,85 161,80 161,90 " class="clusterblast-orf"  />
<polygon style="stroke:black; stroke-width:1; fill:rgb(63,63,190); " description="FscC[br]Location: 28983 - 60860&lt;br&gt;&lt;br&gt;&lt;b&gt;BlastP hit with ctg1_orf00007&lt;/b&gt;&lt;br&gt;Percentage identity: 48%&lt;br&gt;Percentage coverage: 46%&lt;br&gt;BLAST bit score: 1697&lt;br&gt;E-value: 0.0e+00" locus_tag="AAQ82564.1" id="knownclusterblast-1_h1_4_15" points="169,85 174,80 347,80 347,90 174,90 169,85 " class="clusterblast-orf"  />
<polygon style="stroke:black; stroke-width:1; fill:#FFFFFF; " description="FscB[br]Location: 60962 - 77587" locus_tag="AAQ82565.1" id="knownclusterblast-1_h1_4_16" points="348,85 353,80 441,80 441,90 353,90 348,85 " class="clusterblast-orf"  />
<polygon style="stroke:black; stroke-width:1; fill:#FFFFFF; " description="FscF[br]Location: 77983 - 84132" locus_tag="AAQ82566.1" id="knownclusterblast-1_h1_4_17" points="443,85 448,80 477,80 477,90 448,90 443,85 " class="clusterblast-orf"  />
<polygon style="stroke:black; stroke-width:1; fill:rgb(63,63,190); " description="FscE[br]Location: 84170 - 107485&lt;br&gt;&lt;br&gt;&lt;b&gt;BlastP hit with ctg1_orf00007&lt;/b&gt;&lt;br&gt;Percentage identity: 46%&lt;br&gt;Percentage coverage: 53%&lt;br&gt;BLAST bit score: 1894&lt;br&gt;E-value: 0.0e+00" locus_tag="AAQ82567.1" id="knownclusterblast-1_h1_4_18" points="477,85 482,80 608,80 608,90 482,90 477,85 " class="clusterblast-orf"  />
<polygon style="stroke:black; stroke-width:1; fill:#FFFFFF; " description="FscD[br]Location: 107496 - 136148" locus_tag="AAQ82568.1" id="knownclusterblast-1_h1_4_19" points="608,85 613,80 768,80 768,90 613,90 608,85 " class="clusterblast-orf"  />
<polygon style="stroke:black; stroke-width:1; fill:#FFFFFF; " description="FscMIII[br]Location: 136558 - 137766" locus_tag="AAQ82569.1" id="knownclusterblast-1_h1_4_20" points="771,85 776,80 778,80 778,90 776,90 771,85 " class="clusterblast-orf"  />
</g>
</svg>
