<svg xmlns="http://www.w3.org/2000/svg" height="230" width="800" version="1.1" y="0" x="0" preserveAspectRatio="none" xmlns:xlink="http://www.w3.org/1999/xlink" viewBox="0 0 800 230"  >
<g class="clusterblast-cluster" label="Query sequence"  >
<text class="clusterblast-acc" y="20" x="5"  >
Query sequence</text>
<line y1="35" x2="778.0" style="stroke:grey; stroke-width:1; " x1="10" y2="35"  />
<polygon style="stroke:black; stroke-width:1; fill:rgb(190,63,63); " description="unannotated orf[br]Location: 260 - 1310" locus_tag="ctg1_orf00001" class="clusterblast-orf" points="10,40 19,40 24,35 19,30 10,30 10,40 " id="knownclusterblast-1_q1_1_0"  />
<polygon style="stroke:black; stroke-width:1; fill:#FFFFFF; " description="unannotated orf[br]Location: 1383 - 2187" locus_tag="ctg1_orf00002" class="clusterblast-orf" points="25,35 30,30 36,30 36,40 30,40 25,35 " id="knownclusterblast-1_q1_1_1"  />
<polygon style="stroke:black; stroke-width:1; fill:#FFFFFF; " description="unannotated orf[br]Location: 2403 - 3531" locus_tag="ctg1_orf00003" class="clusterblast-orf" points="39,40 50,40 55,35 50,30 39,30 39,40 " id="knownclusterblast-1_q1_1_2"  />
<polygon style="stroke:black; stroke-width:1; fill:rgb(63,63,190); " description="unannotated orf[br]Location: 3682 - 18142" locus_tag="ctg1_orf00007" class="clusterblast-orf" points="57,40 253,40 258,35 253,30 57,30 57,40 " id="knownclusterblast-1_q1_1_3"  />
<polygon style="stroke:black; stroke-width:1; fill:rgb(63,190,63); " description="unannotated orf[br]Location: 18158 - 18875" locus_tag="ctg1_orf00009" class="clusterblast-orf" points="258,40 263,40 268,35 263,30 258,30 258,40 " id="knownclusterblast-1_q1_1_4"  />
<polygon style="stroke:black; stroke-width:1; fill:rgb(190,63,190); " description="unannotated orf[br]Location: 19409 - 19649" locus_tag="ctg1_orf00011" class="clusterblast-orf" points="276,40 279,35 276,30 276,40 " id="knownclusterblast-1_q1_1_5"  />
<polygon style="stroke:black; stroke-width:1; fill:#FFFFFF; " description="unannotated orf[br]Location: 19645 - 20791" locus_tag="ctg1_orf00012" class="clusterblast-orf" points="279,40 290,40 295,35 290,30 279,30 279,40 " id="knownclusterblast-1_q1_1_6"  />
<polygon style="stroke:black; stroke-width:1; fill:#FFFFFF; " description="unannotated orf[br]Location: 20961 - 21354" locus_tag="ctg1_orf00013" class="clusterblast-orf" points="297,40 298,40 303,35 298,30 297,30 297,40 " id="knownclusterblast-1_q1_1_7"  />
<polygon style="stroke:black; stroke-width:1; fill:rgb(190,190,63); " description="unannotated orf[br]Location: 21361 - 22417" locus_tag="ctg1_orf00014" class="clusterblast-orf" points="303,40 312,40 317,35 312,30 303,30 303,40 " id="knownclusterblast-1_q1_1_8"  />
<polygon style="stroke:black; stroke-width:1; fill:#FFFFFF; " description="unannotated orf[br]Location: 22413 - 23247" locus_tag="ctg1_orf00015" class="clusterblast-orf" points="317,40 324,40 329,35 324,30 317,30 317,40 " id="knownclusterblast-1_q1_1_9"  />
<polygon style="stroke:black; stroke-width:1; fill:#FFFFFF; " description="unannotated orf[br]Location: 23381 - 24590" locus_tag="ctg1_orf00016" class="clusterblast-orf" points="331,40 343,40 348,35 343,30 331,30 331,40 " id="knownclusterblast-1_q1_1_10"  />
<polygon style="stroke:black; stroke-width:1; fill:#FFFFFF; " description="unannotated orf[br]Location: 24939 - 26151" locus_tag="ctg1_orf00017" class="clusterblast-orf" points="352,40 364,40 369,35 364,30 352,30 352,40 " id="knownclusterblast-1_q1_1_11"  />
<polygon style="stroke:black; stroke-width:1; fill:#FFFFFF; " description="unannotated orf[br]Location: 26128 - 27313" locus_tag="ctg1_orf00018" class="clusterblast-orf" points="369,40 380,40 385,35 380,30 369,30 369,40 " id="knownclusterblast-1_q1_1_12"  />
<polygon style="stroke:black; stroke-width:1; fill:#FFFFFF; " description="unannotated orf[br]Location: 27334 - 28456" locus_tag="ctg1_orf00019" class="clusterblast-orf" points="386,40 396,40 401,35 396,30 386,30 386,40 " id="knownclusterblast-1_q1_1_13"  />
<polygon style="stroke:black; stroke-width:1; fill:#FFFFFF; " description="unannotated orf[br]Location: 28591 - 29011" locus_tag="ctg1_orf00020" class="clusterblast-orf" points="403,40 404,40 409,35 404,30 403,30 403,40 " id="knownclusterblast-1_q1_1_14"  />
<polygon style="stroke:black; stroke-width:1; fill:#FFFFFF; " description="unannotated orf[br]Location: 29041 - 29932" locus_tag="ctg1_orf00021" class="clusterblast-orf" points="409,35 414,30 422,30 422,40 414,40 409,35 " id="knownclusterblast-1_q1_1_15"  />
<polygon style="stroke:black; stroke-width:1; fill:rgb(190,190,190); " description="unannotated orf[br]Location: 30215 - 31343" locus_tag="ctg1_orf00022" class="clusterblast-orf" points="426,40 436,40 441,35 436,30 426,30 426,40 " id="knownclusterblast-1_q1_1_16"  />
<polygon style="stroke:black; stroke-width:1; fill:rgb(63,190,190); " description="unannotated orf[br]Location: 31458 - 55542" locus_tag="ctg1_orf00029" class="clusterblast-orf" points="443,40 773,40 778,35 773,30 443,30 443,40 " id="knownclusterblast-1_q1_1_17"  />
</g>
<g class="clusterblast-cluster" description="Cyclomarin biosynthetic gene cluster (17% of genes show similarity)" label="BGC0000333_c1"  >
<text class="clusterblast-acc" y="70" x="5"  >
<a xlink:href="http://mibig.secondarymetabolites.org/repository/BGC0000333/index.html" target="_blank">BGC0000333_c1</a>: Cyclomarin biosynthetic gene cluster (17% of genes show similarity)</text>
<line y1="85" x2="778.0" style="stroke:grey; stroke-width:1; " x1="10" y2="85"  />
<polygon style="stroke:black; stroke-width:1; fill:#FFFFFF; " description="pyruvate_phosphate_dikinase_PEP/pyruvate-binding[br]Location: 1 - 1161" locus_tag="Sare_4547" id="knownclusterblast-1_h1_1_0" points="64,85 69,80 80,80 80,90 69,90 64,85 " class="clusterblast-orf"  />
<polygon style="stroke:black; stroke-width:1; fill:#FFFFFF; " description="conserved_hypothetical_protein[br]Location: 1252 - 1896" locus_tag="Sare_4548" id="knownclusterblast-1_h1_1_1" points="81,90 85,90 90,85 85,80 81,80 81,90 " class="clusterblast-orf"  />
<polygon style="stroke:black; stroke-width:1; fill:#FFFFFF; " description="Phosphoglycerate_mutase[br]Location: 1906 - 2508" locus_tag="Sare_4549" id="knownclusterblast-1_h1_1_2" points="90,90 93,90 98,85 93,80 90,80 90,90 " class="clusterblast-orf"  />
<polygon style="stroke:black; stroke-width:1; fill:rgb(190,190,63); " description="daunorubicin_resistance_ABC_transporter_ATPase_subunit[br]Location: 2574 - 3518&lt;br&gt;&lt;br&gt;&lt;b&gt;BlastP hit with ctg1_orf00014&lt;/b&gt;&lt;br&gt;Percentage identity: 52%&lt;br&gt;Percentage coverage: 85%&lt;br&gt;BLAST bit score: 287&lt;br&gt;E-value: 1.9e-77" locus_tag="Sare_4550" id="knownclusterblast-1_h1_1_3" points="99,90 107,90 112,85 107,80 99,80 99,90 " class="clusterblast-orf"  />
<polygon style="stroke:black; stroke-width:1; fill:#FFFFFF; " description="ABC-2_type_transporter[br]Location: 3515 - 4309" locus_tag="Sare_4551" id="knownclusterblast-1_h1_1_4" points="112,90 118,90 123,85 118,80 112,80 112,90 " class="clusterblast-orf"  />
<polygon style="stroke:black; stroke-width:1; fill:#FFFFFF; " description="transcriptional_regulator,_winged_helix_family[br]Location: 4227 - 7358" locus_tag="Sare_4552" id="knownclusterblast-1_h1_1_5" points="122,85 127,80 166,80 166,90 127,90 122,85 " class="clusterblast-orf"  />
<polygon style="stroke:black; stroke-width:1; fill:#FFFFFF; " description="cytochrome_P450[br]Location: 7528 - 8742" locus_tag="Sare_4553" id="knownclusterblast-1_h1_1_6" points="168,90 180,90 185,85 180,80 168,80 168,90 " class="clusterblast-orf"  />
<polygon style="stroke:black; stroke-width:1; fill:#FFFFFF; " description="methyltransferase_FkbM_family[br]Location: 8739 - 9530" locus_tag="Sare_4554" id="knownclusterblast-1_h1_1_7" points="185,90 191,90 196,85 191,80 185,80 185,90 " class="clusterblast-orf"  />
<polygon style="stroke:black; stroke-width:1; fill:#FFFFFF; " description="Thioesterase[br]Location: 9527 - 10255" locus_tag="Sare_4555" id="knownclusterblast-1_h1_1_8" points="196,90 201,90 206,85 201,80 196,80 196,90 " class="clusterblast-orf"  />
<polygon style="stroke:black; stroke-width:1; fill:#FFFFFF; " description="hypothetical_protein[br]Location: 10265 - 10756" locus_tag="Sare_4556" id="knownclusterblast-1_h1_1_9" points="206,90 208,90 213,85 208,80 206,80 206,90 " class="clusterblast-orf"  />
<polygon style="stroke:black; stroke-width:1; fill:#FFFFFF; " description="cytochrome_P450[br]Location: 10783 - 12045" locus_tag="Sare_4557" id="knownclusterblast-1_h1_1_10" points="213,85 218,80 231,80 231,90 218,90 213,85 " class="clusterblast-orf"  />
<polygon style="stroke:black; stroke-width:1; fill:#FFFFFF; " description="transposase_IS4_family_protein[br]Location: 12394 - 13218" locus_tag="Sare_4558" id="knownclusterblast-1_h1_1_11" points="236,90 242,90 247,85 242,80 236,80 236,90 " class="clusterblast-orf"  />
<polygon style="stroke:black; stroke-width:1; fill:#FFFFFF; " description="transcriptional_regulator,_LuxR_family[br]Location: 13556 - 16189" locus_tag="Sare_4559" id="knownclusterblast-1_h1_1_12" points="252,90 283,90 288,85 283,80 252,80 252,90 " class="clusterblast-orf"  />
<polygon style="stroke:black; stroke-width:1; fill:rgb(190,190,190); " description="cytochrome_P450[br]Location: 16321 - 17508&lt;br&gt;&lt;br&gt;&lt;b&gt;BlastP hit with ctg1_orf00022&lt;/b&gt;&lt;br&gt;Percentage identity: 52%&lt;br&gt;Percentage coverage: 98%&lt;br&gt;BLAST bit score: 375&lt;br&gt;E-value: 5.8e-104" locus_tag="Sare_4560" id="knownclusterblast-1_h1_1_13" points="290,90 302,90 307,85 302,80 290,80 290,90 " class="clusterblast-orf"  />
<polygon style="stroke:black; stroke-width:1; fill:#FFFFFF; " description="Phytanoyl-CoA_dioxygenase[br]Location: 17588 - 18382" locus_tag="Sare_4561" id="knownclusterblast-1_h1_1_14" points="308,90 314,90 319,85 314,80 308,80 308,90 " class="clusterblast-orf"  />
<polygon style="stroke:black; stroke-width:1; fill:rgb(63,190,190); " description="amino_acid_adenylation_domain[br]Location: 18423 - 41780&lt;br&gt;&lt;br&gt;&lt;b&gt;BlastP hit with ctg1_orf00029&lt;/b&gt;&lt;br&gt;Percentage identity: 52%&lt;br&gt;Percentage coverage: 63%&lt;br&gt;BLAST bit score: 4819&lt;br&gt;E-value: 0.0e+00" locus_tag="Sare_4562" id="knownclusterblast-1_h1_1_15" points="319,90 639,90 644,85 639,80 319,80 319,90 " class="clusterblast-orf"  />
<polygon style="stroke:black; stroke-width:1; fill:rgb(190,63,190); " description="MbtH_domain_protein[br]Location: 41780 - 41995&lt;br&gt;&lt;br&gt;&lt;b&gt;BlastP hit with ctg1_orf00011&lt;/b&gt;&lt;br&gt;Percentage identity: 58%&lt;br&gt;Percentage coverage: 84%&lt;br&gt;BLAST bit score: 91&lt;br&gt;E-value: 3.5e-19" locus_tag="Sare_4563" id="knownclusterblast-1_h1_1_16" points="644,90 647,85 644,80 644,90 " class="clusterblast-orf"  />
<polygon style="stroke:black; stroke-width:1; fill:#FFFFFF; " description="isopentenyl-diphosphate_delta-isomerase,_type_1[br]Location: 41999 - 42589" locus_tag="Sare_4564" id="knownclusterblast-1_h1_1_17" points="647,90 650,90 655,85 650,80 647,80 647,90 " class="clusterblast-orf"  />
<polygon style="stroke:black; stroke-width:1; fill:#FFFFFF; " description="hypothetical_protein[br]Location: 42633 - 43754" locus_tag="Sare_4565" id="knownclusterblast-1_h1_1_18" points="656,90 666,90 671,85 666,80 656,80 656,90 " class="clusterblast-orf"  />
<polygon style="stroke:black; stroke-width:1; fill:#FFFFFF; " description="Acetaldehyde_dehydrogenase[br]Location: 43751 - 44638" locus_tag="Sare_4566" id="knownclusterblast-1_h1_1_19" points="671,90 679,90 684,85 679,80 671,80 671,90 " class="clusterblast-orf"  />
<polygon style="stroke:black; stroke-width:1; fill:#FFFFFF; " description="pyruvate_carboxyltransferase[br]Location: 44638 - 45684" locus_tag="Sare_4567" id="knownclusterblast-1_h1_1_20" points="684,90 693,90 698,85 693,80 684,80 684,90 " class="clusterblast-orf"  />
<polygon style="stroke:black; stroke-width:1; fill:#FFFFFF; " description="Methyltransferase_type_12[br]Location: 45703 - 46686" locus_tag="Sare_4568" id="knownclusterblast-1_h1_1_21" points="698,90 707,90 712,85 707,80 698,80 698,90 " class="clusterblast-orf"  />
<polygon style="stroke:black; stroke-width:1; fill:#FFFFFF; " description="4-oxalocrotonate_decarboxylase[br]Location: 46683 - 47477" locus_tag="Sare_4569" id="knownclusterblast-1_h1_1_22" points="712,90 718,90 723,85 718,80 712,80 712,90 " class="clusterblast-orf"  />
</g>
</svg>
