<svg xmlns="http://www.w3.org/2000/svg" height="230" width="800" version="1.1" y="0" x="0" preserveAspectRatio="none" xmlns:xlink="http://www.w3.org/1999/xlink" viewBox="0 0 800 230"  >
<g class="clusterblast-cluster" label="Query sequence"  >
<text class="clusterblast-acc" y="20" x="5"  >
Query sequence</text>
<line y1="35" x2="778.0" style="stroke:grey; stroke-width:1; " x1="10" y2="35"  />
<polygon style="stroke:black; stroke-width:1; fill:rgb(190,63,63); " description="unannotated orf[br]Location: 260 - 1310" locus_tag="ctg1_orf00001" class="clusterblast-orf" points="210,40 211,40 216,35 211,30 210,30 210,40 " id="knownclusterblast-1_q1_7_0"  />
<polygon style="stroke:black; stroke-width:1; fill:#FFFFFF; " description="unannotated orf[br]Location: 1383 - 2187" locus_tag="ctg1_orf00002" class="clusterblast-orf" points="217,35 222,30 222,30 222,40 222,40 217,35 " id="knownclusterblast-1_q1_7_1"  />
<polygon style="stroke:black; stroke-width:1; fill:#FFFFFF; " description="unannotated orf[br]Location: 2403 - 3531" locus_tag="ctg1_orf00003" class="clusterblast-orf" points="224,40 226,40 231,35 226,30 224,30 224,40 " id="knownclusterblast-1_q1_7_2"  />
<polygon style="stroke:black; stroke-width:1; fill:rgb(63,63,190); " description="unannotated orf[br]Location: 3682 - 18142" locus_tag="ctg1_orf00007" class="clusterblast-orf" points="232,40 323,40 328,35 323,30 232,30 232,40 " id="knownclusterblast-1_q1_7_3"  />
<polygon style="stroke:black; stroke-width:1; fill:rgb(63,190,63); " description="unannotated orf[br]Location: 18158 - 18875" locus_tag="ctg1_orf00009" class="clusterblast-orf" points="328,40 328,40 333,35 328,30 328,30 328,40 " id="knownclusterblast-1_q1_7_4"  />
<polygon style="stroke:black; stroke-width:1; fill:rgb(190,63,190); " description="unannotated orf[br]Location: 19409 - 19649" locus_tag="ctg1_orf00011" class="clusterblast-orf" points="337,40 338,35 337,30 337,40 " id="knownclusterblast-1_q1_7_5"  />
<polygon style="stroke:black; stroke-width:1; fill:#FFFFFF; " description="unannotated orf[br]Location: 19645 - 20791" locus_tag="ctg1_orf00012" class="clusterblast-orf" points="338,40 341,40 346,35 341,30 338,30 338,40 " id="knownclusterblast-1_q1_7_6"  />
<polygon style="stroke:black; stroke-width:1; fill:#FFFFFF; " description="unannotated orf[br]Location: 20961 - 21354" locus_tag="ctg1_orf00013" class="clusterblast-orf" points="347,40 349,35 347,30 347,40 " id="knownclusterblast-1_q1_7_7"  />
<polygon style="stroke:black; stroke-width:1; fill:rgb(190,190,63); " description="unannotated orf[br]Location: 21361 - 22417" locus_tag="ctg1_orf00014" class="clusterblast-orf" points="350,40 352,40 357,35 352,30 350,30 350,40 " id="knownclusterblast-1_q1_7_8"  />
<polygon style="stroke:black; stroke-width:1; fill:#FFFFFF; " description="unannotated orf[br]Location: 22413 - 23247" locus_tag="ctg1_orf00015" class="clusterblast-orf" points="356,40 357,40 362,35 357,30 356,30 356,40 " id="knownclusterblast-1_q1_7_9"  />
<polygon style="stroke:black; stroke-width:1; fill:#FFFFFF; " description="unannotated orf[br]Location: 23381 - 24590" locus_tag="ctg1_orf00016" class="clusterblast-orf" points="363,40 366,40 371,35 366,30 363,30 363,40 " id="knownclusterblast-1_q1_7_10"  />
<polygon style="stroke:black; stroke-width:1; fill:#FFFFFF; " description="unannotated orf[br]Location: 24939 - 26151" locus_tag="ctg1_orf00017" class="clusterblast-orf" points="373,40 376,40 381,35 376,30 373,30 373,40 " id="knownclusterblast-1_q1_7_11"  />
<polygon style="stroke:black; stroke-width:1; fill:#FFFFFF; " description="unannotated orf[br]Location: 26128 - 27313" locus_tag="ctg1_orf00018" class="clusterblast-orf" points="381,40 384,40 389,35 384,30 381,30 381,40 " id="knownclusterblast-1_q1_7_12"  />
<polygon style="stroke:black; stroke-width:1; fill:#FFFFFF; " description="unannotated orf[br]Location: 27334 - 28456" locus_tag="ctg1_orf00019" class="clusterblast-orf" points="389,40 392,40 397,35 392,30 389,30 389,40 " id="knownclusterblast-1_q1_7_13"  />
<polygon style="stroke:black; stroke-width:1; fill:#FFFFFF; " description="unannotated orf[br]Location: 28591 - 29011" locus_tag="ctg1_orf00020" class="clusterblast-orf" points="397,40 400,35 397,30 397,40 " id="knownclusterblast-1_q1_7_14"  />
<polygon style="stroke:black; stroke-width:1; fill:#FFFFFF; " description="unannotated orf[br]Location: 29041 - 29932" locus_tag="ctg1_orf00021" class="clusterblast-orf" points="400,35 405,30 406,30 406,40 405,40 400,35 " id="knownclusterblast-1_q1_7_15"  />
<polygon style="stroke:black; stroke-width:1; fill:rgb(190,190,190); " description="unannotated orf[br]Location: 30215 - 31343" locus_tag="ctg1_orf00022" class="clusterblast-orf" points="408,40 411,40 416,35 411,30 408,30 408,40 " id="knownclusterblast-1_q1_7_16"  />
<polygon style="stroke:black; stroke-width:1; fill:rgb(63,190,190); " description="unannotated orf[br]Location: 31458 - 55542" locus_tag="ctg1_orf00029" class="clusterblast-orf" points="417,40 571,40 576,35 571,30 417,30 417,40 " id="knownclusterblast-1_q1_7_17"  />
</g>
<g class="clusterblast-cluster" description="Apoptolidin biosynthetic gene cluster (13% of genes show similarity)" label="BGC0000021_c1"  >
<text class="clusterblast-acc" y="70" x="5"  >
<a xlink:href="http://mibig.secondarymetabolites.org/repository/BGC0000021/index.html" target="_blank">BGC0000021_c1</a>: Apoptolidin biosynthetic gene cluster (13% of genes show similarity)</text>
<line y1="85" x2="778.0" style="stroke:grey; stroke-width:1; " x1="10" y2="85"  />
<polygon style="stroke:black; stroke-width:1; fill:#FFFFFF; " description="SARP_transcriptional_regulator[br]Location: 112897 - 115746" locus_tag="AEP40943.1" id="knownclusterblast-1_h1_7_0" points="10,90 23,90 28,85 23,80 10,80 10,90 " class="clusterblast-orf"  />
<polygon style="stroke:black; stroke-width:1; fill:#FFFFFF; " description="unknown[br]Location: 111950 - 113080" locus_tag="AEP40942.1" id="knownclusterblast-1_h1_7_1" points="27,85 32,80 35,80 35,90 32,90 27,85 " class="clusterblast-orf"  />
<polygon style="stroke:black; stroke-width:1; fill:#FFFFFF; " description="sugar_O-methyltransferase[br]Location: 110681 - 111472" locus_tag="AEP40941.1" id="knownclusterblast-1_h1_7_2" points="38,85 43,80 43,80 43,90 43,90 38,85 " class="clusterblast-orf"  />
<polygon style="stroke:black; stroke-width:1; fill:#FFFFFF; " description="polyketide_synthase_type_I[br]Location: 91574 - 110368" locus_tag="AEP40940.1" id="knownclusterblast-1_h1_7_3" points="45,90 165,90 170,85 165,80 45,80 45,90 " class="clusterblast-orf"  />
<polygon style="stroke:black; stroke-width:1; fill:#FFFFFF; " description="polyketide_synthase_type_I[br]Location: 86172 - 91535" locus_tag="AEP40939.1" id="knownclusterblast-1_h1_7_4" points="170,90 201,90 206,85 201,80 170,80 170,90 " class="clusterblast-orf"  />
<polygon style="stroke:black; stroke-width:1; fill:#FFFFFF; " description="polyketide_synthase_type_I[br]Location: 84753 - 86120" locus_tag="AEP40938.1" id="knownclusterblast-1_h1_7_5" points="206,90 210,90 215,85 210,80 206,80 206,90 " class="clusterblast-orf"  />
<polygon style="stroke:black; stroke-width:1; fill:#FFFFFF; " description="polyketide_synthase_type_I[br]Location: 81326 - 84694" locus_tag="AEP40937.1" id="knownclusterblast-1_h1_7_6" points="216,90 233,90 238,85 233,80 216,80 216,90 " class="clusterblast-orf"  />
<polygon style="stroke:black; stroke-width:1; fill:rgb(63,63,190); " description="polyketide_synthase_type_I[br]Location: 65477 - 81277&lt;br&gt;&lt;br&gt;&lt;b&gt;BlastP hit with ctg1_orf00007&lt;/b&gt;&lt;br&gt;Percentage identity: 46%&lt;br&gt;Percentage coverage: 57%&lt;br&gt;BLAST bit score: 1908&lt;br&gt;E-value: 0.0e+00" locus_tag="AEP40936.1" id="knownclusterblast-1_h1_7_7" points="238,90 338,90 343,85 338,80 238,80 238,90 " class="clusterblast-orf"  />
<polygon style="stroke:black; stroke-width:1; fill:#FFFFFF; " description="polyketide_synthase_type_I[br]Location: 55537 - 65484" locus_tag="AEP40935.1" id="knownclusterblast-1_h1_7_8" points="343,90 404,90 409,85 404,80 343,80 343,90 " class="clusterblast-orf"  />
<polygon style="stroke:black; stroke-width:1; fill:#FFFFFF; " description="polyketide_synthase_type_I[br]Location: 45012 - 55520" locus_tag="AEP40934.1" id="knownclusterblast-1_h1_7_9" points="409,90 474,90 479,85 474,80 409,80 409,90 " class="clusterblast-orf"  />
<polygon style="stroke:black; stroke-width:1; fill:#FFFFFF; " description="UDP-glucosyl_transferase[br]Location: 43843 - 44973" locus_tag="AEP40933.1" id="knownclusterblast-1_h1_7_10" points="479,90 482,90 487,85 482,80 479,80 479,90 " class="clusterblast-orf"  />
<polygon style="stroke:black; stroke-width:1; fill:#FFFFFF; " description="polyketide_synthase_type_I[br]Location: 37599 - 43232" locus_tag="AEP40932.1" id="knownclusterblast-1_h1_7_11" points="491,90 523,90 528,85 523,80 491,80 491,90 " class="clusterblast-orf"  />
<polygon style="stroke:black; stroke-width:1; fill:#FFFFFF; " description="cytochrome_P450_monooxygenase[br]Location: 36375 - 37568" locus_tag="AEP40931.1" id="knownclusterblast-1_h1_7_12" points="528,90 531,90 536,85 531,80 528,80 528,90 " class="clusterblast-orf"  />
<polygon style="stroke:black; stroke-width:1; fill:#FFFFFF; " description="polyketide_cyclase[br]Location: 35620 - 36162" locus_tag="AEP40930.1" id="knownclusterblast-1_h1_7_13" points="538,85 541,80 541,90 538,85 " class="clusterblast-orf"  />
<polygon style="stroke:black; stroke-width:1; fill:#FFFFFF; " description="glucose-methanol-choline_oxidoreductase[br]Location: 33833 - 35533" locus_tag="AEP40929.1" id="knownclusterblast-1_h1_7_14" points="542,90 548,90 553,85 548,80 542,80 542,90 " class="clusterblast-orf"  />
<polygon style="stroke:black; stroke-width:1; fill:#FFFFFF; " description="NAD_binding_oxidoreductase[br]Location: 32781 - 33794" locus_tag="AEP40928.1" id="knownclusterblast-1_h1_7_15" points="553,90 555,90 560,85 555,80 553,80 553,90 " class="clusterblast-orf"  />
<polygon style="stroke:black; stroke-width:1; fill:#FFFFFF; " description="SARP_transcriptional_regulator[br]Location: 30165 - 32288" locus_tag="AEP40927.1" id="knownclusterblast-1_h1_7_16" points="563,90 572,90 577,85 572,80 563,80 563,90 " class="clusterblast-orf"  />
<polygon style="stroke:black; stroke-width:1; fill:rgb(190,63,63); " description="operon_transcriptional_regulator[br]Location: 28684 - 29718&lt;br&gt;&lt;br&gt;&lt;b&gt;BlastP hit with ctg1_orf00001&lt;/b&gt;&lt;br&gt;Percentage identity: 48%&lt;br&gt;Percentage coverage: 97%&lt;br&gt;BLAST bit score: 284&lt;br&gt;E-value: 1.6e-76" locus_tag="AEP40926.1" id="knownclusterblast-1_h1_7_17" points="580,90 582,90 587,85 582,80 580,80 580,90 " class="clusterblast-orf"  />
<polygon style="stroke:black; stroke-width:1; fill:#FFFFFF; " description="polyketide_synthase_type_I[br]Location: 23922 - 28388" locus_tag="AEP40925.1" id="knownclusterblast-1_h1_7_18" points="589,90 614,90 619,85 614,80 589,80 589,90 " class="clusterblast-orf"  />
<polygon style="stroke:black; stroke-width:1; fill:#FFFFFF; " description="3-hydroxyacyl-CoA_dehydrogenase[br]Location: 22867 - 23733" locus_tag="AEP40924.1" id="knownclusterblast-1_h1_7_19" points="620,90 621,90 626,85 621,80 620,80 620,90 " class="clusterblast-orf"  />
<polygon style="stroke:black; stroke-width:1; fill:#FFFFFF; " description="acyl-carrier_protein[br]Location: 22577 - 22870" locus_tag="AEP40923.1" id="knownclusterblast-1_h1_7_20" points="626,90 628,85 626,80 626,90 " class="clusterblast-orf"  />
<polygon style="stroke:black; stroke-width:1; fill:#FFFFFF; " description="acyl_CoA_dehydrogenase[br]Location: 21460 - 22584" locus_tag="AEP40922.1" id="knownclusterblast-1_h1_7_21" points="628,90 630,90 635,85 630,80 628,80 628,90 " class="clusterblast-orf"  />
<polygon style="stroke:black; stroke-width:1; fill:#FFFFFF; " description="haloacid_dehalogenase-like_hydrolases,_methoxymalonyl-ACP_biosynthesis[br]Location: 20381 - 21463" locus_tag="AEP40921.1" id="knownclusterblast-1_h1_7_22" points="635,90 637,90 642,85 637,80 635,80 635,90 " class="clusterblast-orf"  />
<polygon style="stroke:black; stroke-width:1; fill:#FFFFFF; " description="caffeoyl-CoA_o-methyltransferase[br]Location: 19605 - 20141" locus_tag="AEP40920.1" id="knownclusterblast-1_h1_7_23" points="644,85 647,80 647,90 644,85 " class="clusterblast-orf"  />
<polygon style="stroke:black; stroke-width:1; fill:#FFFFFF; " description="O-methyltransferase[br]Location: 18667 - 19452" locus_tag="AEP40919.1" id="knownclusterblast-1_h1_7_24" points="648,85 653,80 654,80 654,90 653,90 648,85 " class="clusterblast-orf"  />
<polygon style="stroke:black; stroke-width:1; fill:#FFFFFF; " description="transcriptional_regulator,_SARP_family[br]Location: 15368 - 18496" locus_tag="AEP40918.1" id="knownclusterblast-1_h1_7_25" points="655,85 660,80 676,80 676,90 660,90 655,85 " class="clusterblast-orf"  />
<polygon style="stroke:black; stroke-width:1; fill:rgb(63,190,63); " description="thioesterase[br]Location: 14412 - 15200&lt;br&gt;&lt;br&gt;&lt;b&gt;BlastP hit with ctg1_orf00009&lt;/b&gt;&lt;br&gt;Percentage identity: 48%&lt;br&gt;Percentage coverage: 98%&lt;br&gt;BLAST bit score: 210&lt;br&gt;E-value: 2.0e-54" locus_tag="AEP40917.1" id="knownclusterblast-1_h1_7_26" points="677,85 682,80 682,80 682,90 682,90 677,85 " class="clusterblast-orf"  />
<polygon style="stroke:black; stroke-width:1; fill:#FFFFFF; " description="rebeccamycin_sugar_4'-O-methyltransferase[br]Location: 13035 - 14018" locus_tag="AEP40916.1" id="knownclusterblast-1_h1_7_27" points="684,90 686,90 691,85 686,80 684,80 684,90 " class="clusterblast-orf"  />
<polygon style="stroke:black; stroke-width:1; fill:#FFFFFF; " description="dioxygenase_ferredoxin_subunit[br]Location: 12689 - 13021" locus_tag="AEP40915.1" id="knownclusterblast-1_h1_7_28" points="691,90 693,85 691,80 691,90 " class="clusterblast-orf"  />
<polygon style="stroke:black; stroke-width:1; fill:#FFFFFF; " description="terminal_dioxygenase_small_beta-subunit[br]Location: 12075 - 12671" locus_tag="AEP40914.1" id="knownclusterblast-1_h1_7_29" points="693,90 697,85 693,80 693,90 " class="clusterblast-orf"  />
<polygon style="stroke:black; stroke-width:1; fill:#FFFFFF; " description="terminal_dioxygenase_large_alpha-subunit[br]Location: 10768 - 12027" locus_tag="AEP40913.1" id="knownclusterblast-1_h1_7_30" points="698,90 701,90 706,85 701,80 698,80 698,90 " class="clusterblast-orf"  />
<polygon style="stroke:black; stroke-width:1; fill:#FFFFFF; " description="glycosyl_transferases,_related_to_UDP-glucuronosyltransferase[br]Location: 9344 - 10513" locus_tag="AEP40912.1" id="knownclusterblast-1_h1_7_31" points="708,85 713,80 716,80 716,90 713,90 708,85 " class="clusterblast-orf"  />
<polygon style="stroke:black; stroke-width:1; fill:#FFFFFF; " description="NDP-hexose_2,3-dehydratase[br]Location: 7401 - 8861" locus_tag="AEP40911.1" id="knownclusterblast-1_h1_7_32" points="719,90 723,90 728,85 723,80 719,80 719,90 " class="clusterblast-orf"  />
<polygon style="stroke:black; stroke-width:1; fill:#FFFFFF; " description="putative_dNDP-hexose_3-ketoreductase[br]Location: 6430 - 7404" locus_tag="AEP40910.1" id="knownclusterblast-1_h1_7_33" points="728,90 730,90 735,85 730,80 728,80 728,90 " class="clusterblast-orf"  />
<polygon style="stroke:black; stroke-width:1; fill:#FFFFFF; " description="sugar_3-C-methyl_transferase[br]Location: 5159 - 6433" locus_tag="AEP40909.1" id="knownclusterblast-1_h1_7_34" points="735,90 738,90 743,85 738,80 735,80 735,90 " class="clusterblast-orf"  />
<polygon style="stroke:black; stroke-width:1; fill:#FFFFFF; " description="NDP-4-keto-6-deoxyhexose_reductase[br]Location: 4132 - 5124" locus_tag="AEP40908.1" id="knownclusterblast-1_h1_7_35" points="744,85 749,80 750,80 750,90 749,90 744,85 " class="clusterblast-orf"  />
<polygon style="stroke:black; stroke-width:1; fill:#FFFFFF; " description="glycosyl_transferase[br]Location: 2821 - 4095" locus_tag="AEP40907.1" id="knownclusterblast-1_h1_7_36" points="750,85 755,80 759,80 759,90 755,90 750,85 " class="clusterblast-orf"  />
<polygon style="stroke:black; stroke-width:1; fill:#FFFFFF; " description="NDP-4-keto-6-deoxyhexose_4-ketoreductase[br]Location: 1453 - 2460" locus_tag="AEP40906.1" id="knownclusterblast-1_h1_7_37" points="761,90 763,90 768,85 763,80 761,80 761,90 " class="clusterblast-orf"  />
<polygon style="stroke:black; stroke-width:1; fill:#FFFFFF; " description="carboxylic_ester_hydrolase[br]Location: 1 - 1446" locus_tag="AEP40905.1" id="knownclusterblast-1_h1_7_38" points="768,85 773,80 778,80 778,90 773,90 768,85 " class="clusterblast-orf"  />
</g>
</svg>
