<svg xmlns="http://www.w3.org/2000/svg" height="230" width="800" version="1.1" y="0" x="0" preserveAspectRatio="none" xmlns:xlink="http://www.w3.org/1999/xlink" viewBox="0 0 800 230"  >
<g class="clusterblast-cluster" label="Query sequence"  >
<text class="clusterblast-acc" y="20" x="5"  >
Query sequence</text>
<line y1="35" x2="778.0" style="stroke:grey; stroke-width:1; " x1="10" y2="35"  />
<polygon style="stroke:black; stroke-width:1; fill:rgb(190,63,63); " description="unannotated orf[br]Location: 260 - 1310" locus_tag="ctg1_orf00001" class="clusterblast-orf" points="193,40 195,40 200,35 195,30 193,30 193,40 " id="knownclusterblast-1_q1_8_0"  />
<polygon style="stroke:black; stroke-width:1; fill:#FFFFFF; " description="unannotated orf[br]Location: 1383 - 2187" locus_tag="ctg1_orf00002" class="clusterblast-orf" points="201,35 206,30 206,30 206,40 206,40 201,35 " id="knownclusterblast-1_q1_8_1"  />
<polygon style="stroke:black; stroke-width:1; fill:#FFFFFF; " description="unannotated orf[br]Location: 2403 - 3531" locus_tag="ctg1_orf00003" class="clusterblast-orf" points="208,40 211,40 216,35 211,30 208,30 208,40 " id="knownclusterblast-1_q1_8_2"  />
<polygon style="stroke:black; stroke-width:1; fill:rgb(63,63,190); " description="unannotated orf[br]Location: 3682 - 18142" locus_tag="ctg1_orf00007" class="clusterblast-orf" points="217,40 317,40 322,35 317,30 217,30 217,40 " id="knownclusterblast-1_q1_8_3"  />
<polygon style="stroke:black; stroke-width:1; fill:rgb(63,190,63); " description="unannotated orf[br]Location: 18158 - 18875" locus_tag="ctg1_orf00009" class="clusterblast-orf" points="322,40 323,40 328,35 323,30 322,30 322,40 " id="knownclusterblast-1_q1_8_4"  />
<polygon style="stroke:black; stroke-width:1; fill:rgb(190,63,190); " description="unannotated orf[br]Location: 19409 - 19649" locus_tag="ctg1_orf00011" class="clusterblast-orf" points="332,40 333,35 332,30 332,40 " id="knownclusterblast-1_q1_8_5"  />
<polygon style="stroke:black; stroke-width:1; fill:#FFFFFF; " description="unannotated orf[br]Location: 19645 - 20791" locus_tag="ctg1_orf00012" class="clusterblast-orf" points="333,40 337,40 342,35 337,30 333,30 333,40 " id="knownclusterblast-1_q1_8_6"  />
<polygon style="stroke:black; stroke-width:1; fill:#FFFFFF; " description="unannotated orf[br]Location: 20961 - 21354" locus_tag="ctg1_orf00013" class="clusterblast-orf" points="343,40 346,35 343,30 343,40 " id="knownclusterblast-1_q1_8_7"  />
<polygon style="stroke:black; stroke-width:1; fill:rgb(190,190,63); " description="unannotated orf[br]Location: 21361 - 22417" locus_tag="ctg1_orf00014" class="clusterblast-orf" points="346,40 348,40 353,35 348,30 346,30 346,40 " id="knownclusterblast-1_q1_8_8"  />
<polygon style="stroke:black; stroke-width:1; fill:#FFFFFF; " description="unannotated orf[br]Location: 22413 - 23247" locus_tag="ctg1_orf00015" class="clusterblast-orf" points="353,40 354,40 359,35 354,30 353,30 353,40 " id="knownclusterblast-1_q1_8_9"  />
<polygon style="stroke:black; stroke-width:1; fill:#FFFFFF; " description="unannotated orf[br]Location: 23381 - 24590" locus_tag="ctg1_orf00016" class="clusterblast-orf" points="360,40 364,40 369,35 364,30 360,30 360,40 " id="knownclusterblast-1_q1_8_10"  />
<polygon style="stroke:black; stroke-width:1; fill:#FFFFFF; " description="unannotated orf[br]Location: 24939 - 26151" locus_tag="ctg1_orf00017" class="clusterblast-orf" points="372,40 375,40 380,35 375,30 372,30 372,40 " id="knownclusterblast-1_q1_8_11"  />
<polygon style="stroke:black; stroke-width:1; fill:#FFFFFF; " description="unannotated orf[br]Location: 26128 - 27313" locus_tag="ctg1_orf00018" class="clusterblast-orf" points="380,40 384,40 389,35 384,30 380,30 380,40 " id="knownclusterblast-1_q1_8_12"  />
<polygon style="stroke:black; stroke-width:1; fill:#FFFFFF; " description="unannotated orf[br]Location: 27334 - 28456" locus_tag="ctg1_orf00019" class="clusterblast-orf" points="389,40 392,40 397,35 392,30 389,30 389,40 " id="knownclusterblast-1_q1_8_13"  />
<polygon style="stroke:black; stroke-width:1; fill:#FFFFFF; " description="unannotated orf[br]Location: 28591 - 29011" locus_tag="ctg1_orf00020" class="clusterblast-orf" points="398,40 401,35 398,30 398,40 " id="knownclusterblast-1_q1_8_14"  />
<polygon style="stroke:black; stroke-width:1; fill:#FFFFFF; " description="unannotated orf[br]Location: 29041 - 29932" locus_tag="ctg1_orf00021" class="clusterblast-orf" points="401,35 406,30 408,30 408,40 406,40 401,35 " id="knownclusterblast-1_q1_8_15"  />
<polygon style="stroke:black; stroke-width:1; fill:rgb(190,190,190); " description="unannotated orf[br]Location: 30215 - 31343" locus_tag="ctg1_orf00022" class="clusterblast-orf" points="410,40 413,40 418,35 413,30 410,30 410,40 " id="knownclusterblast-1_q1_8_16"  />
<polygon style="stroke:black; stroke-width:1; fill:rgb(63,190,190); " description="unannotated orf[br]Location: 31458 - 55542" locus_tag="ctg1_orf00029" class="clusterblast-orf" points="419,40 589,40 594,35 589,30 419,30 419,40 " id="knownclusterblast-1_q1_8_17"  />
</g>
<g class="clusterblast-cluster" description="Cremimycin biosynthetic gene cluster (17% of genes show similarity)" label="BGC0000042_c1"  >
<text class="clusterblast-acc" y="70" x="5"  >
<a xlink:href="http://mibig.secondarymetabolites.org/repository/BGC0000042/index.html" target="_blank">BGC0000042_c1</a>: Cremimycin biosynthetic gene cluster (17% of genes show similarity)</text>
<line y1="85" x2="778.0" style="stroke:grey; stroke-width:1; " x1="10" y2="85"  />
<polygon style="stroke:black; stroke-width:1; fill:#FFFFFF; " description="purine_cytosine_permease[br]Location: 104317 - 105777" locus_tag="BAO66548.1" id="knownclusterblast-1_h1_8_0" points="10,90 15,90 20,85 15,80 10,80 10,90 " class="clusterblast-orf"  />
<polygon style="stroke:black; stroke-width:1; fill:#FFFFFF; " description="cyclohexanecarboxylate-CoA_ligase[br]Location: 102133 - 103728" locus_tag="BAO66547.1" id="knownclusterblast-1_h1_8_1" points="24,90 31,90 36,85 31,80 24,80 24,90 " class="clusterblast-orf"  />
<polygon style="stroke:black; stroke-width:1; fill:#FFFFFF; " description="LuxR-type_transcriptional_regulator[br]Location: 98983 - 101670" locus_tag="BAO66546.1" id="knownclusterblast-1_h1_8_2" points="39,85 44,80 59,80 59,90 44,90 39,85 " class="clusterblast-orf"  />
<polygon style="stroke:black; stroke-width:1; fill:#FFFFFF; " description="LuxR-type_transcriptional_regulator[br]Location: 95624 - 98380" locus_tag="BAO66545.1" id="knownclusterblast-1_h1_8_3" points="63,90 78,90 83,85 78,80 63,80 63,90 " class="clusterblast-orf"  />
<polygon style="stroke:black; stroke-width:1; fill:#FFFFFF; " description="xylose_isomerase[br]Location: 94586 - 95455" locus_tag="BAO66544.1" id="knownclusterblast-1_h1_8_4" points="84,90 86,90 91,85 86,80 84,80 84,90 " class="clusterblast-orf"  />
<polygon style="stroke:black; stroke-width:1; fill:#FFFFFF; " description="type_I_polyketide_synthase[br]Location: 89683 - 94560" locus_tag="BAO66543.1" id="knownclusterblast-1_h1_8_5" points="91,90 121,90 126,85 121,80 91,80 91,90 " class="clusterblast-orf"  />
<polygon style="stroke:black; stroke-width:1; fill:rgb(63,63,190); " description="type_I_polyketide_synthase[br]Location: 74047 - 89649&lt;br&gt;&lt;br&gt;&lt;b&gt;BlastP hit with ctg1_orf00007&lt;/b&gt;&lt;br&gt;Percentage identity: 47%&lt;br&gt;Percentage coverage: 47%&lt;br&gt;BLAST bit score: 1743&lt;br&gt;E-value: 0.0e+00" locus_tag="BAO66542.1" id="knownclusterblast-1_h1_8_6" points="127,90 235,90 240,85 235,80 127,80 127,90 " class="clusterblast-orf"  />
<polygon style="stroke:black; stroke-width:1; fill:#FFFFFF; " description="type_I_polyketide_synthase[br]Location: 68036 - 74047" locus_tag="BAO66541.1" id="knownclusterblast-1_h1_8_7" points="240,90 279,90 284,85 279,80 240,80 240,90 " class="clusterblast-orf"  />
<polygon style="stroke:black; stroke-width:1; fill:#FFFFFF; " description="putative_proline_iminopeptidase[br]Location: 67126 - 68019" locus_tag="BAO66540.1" id="knownclusterblast-1_h1_8_8" points="284,90 285,90 290,85 285,80 284,80 284,90 " class="clusterblast-orf"  />
<polygon style="stroke:black; stroke-width:1; fill:#FFFFFF; " description="type_I_polyketide_synthase[br]Location: 59120 - 67081" locus_tag="BAO66539.1" id="knownclusterblast-1_h1_8_9" points="290,90 343,90 348,85 343,80 290,80 290,90 " class="clusterblast-orf"  />
<polygon style="stroke:black; stroke-width:1; fill:#FFFFFF; " description="NDP-1-glucose_synthase[br]Location: 57786 - 58850" locus_tag="BAO66538.1" id="knownclusterblast-1_h1_8_10" points="350,90 353,90 358,85 353,80 350,80 350,90 " class="clusterblast-orf"  />
<polygon style="stroke:black; stroke-width:1; fill:#FFFFFF; " description="dTDP-glucose_4,6-dehydratase[br]Location: 56791 - 57789" locus_tag="BAO66537.1" id="knownclusterblast-1_h1_8_11" points="358,90 360,90 365,85 360,80 358,80 358,90 " class="clusterblast-orf"  />
<polygon style="stroke:black; stroke-width:1; fill:#FFFFFF; " description="NDP-hexose_2,3-dehydratase[br]Location: 55256 - 56794" locus_tag="BAO66536.1" id="knownclusterblast-1_h1_8_12" points="365,90 371,90 376,85 371,80 365,80 365,90 " class="clusterblast-orf"  />
<polygon style="stroke:black; stroke-width:1; fill:#FFFFFF; " description="3-ketoreductase[br]Location: 54261 - 55259" locus_tag="BAO66535.1" id="knownclusterblast-1_h1_8_13" points="376,90 379,90 384,85 379,80 376,80 376,90 " class="clusterblast-orf"  />
<polygon style="stroke:black; stroke-width:1; fill:#FFFFFF; " description="glycosyltransferase[br]Location: 53013 - 54254" locus_tag="BAO66534.1" id="knownclusterblast-1_h1_8_14" points="384,85 389,80 393,80 393,90 389,90 384,85 " class="clusterblast-orf"  />
<polygon style="stroke:black; stroke-width:1; fill:#FFFFFF; " description="nonribosomal_peptide_synthase[br]Location: 51284 - 52867" locus_tag="BAO66533.1" id="knownclusterblast-1_h1_8_15" points="394,85 399,80 405,80 405,90 399,90 394,85 " class="clusterblast-orf"  />
<polygon style="stroke:black; stroke-width:1; fill:#FFFFFF; " description="acyltransferase[br]Location: 50151 - 51104" locus_tag="BAO66532.1" id="knownclusterblast-1_h1_8_16" points="406,90 408,90 413,85 408,80 406,80 406,90 " class="clusterblast-orf"  />
<polygon style="stroke:black; stroke-width:1; fill:#FFFFFF; " description="peptidyl_carrier_protein[br]Location: 49840 - 50076" locus_tag="BAO66531.1" id="knownclusterblast-1_h1_8_17" points="414,85 416,80 416,90 414,85 " class="clusterblast-orf"  />
<polygon style="stroke:black; stroke-width:1; fill:#FFFFFF; " description="nonribosomal_peptide_synthase[br]Location: 48180 - 49730" locus_tag="BAO66530.1" id="knownclusterblast-1_h1_8_18" points="416,90 423,90 428,85 423,80 416,80 416,90 " class="clusterblast-orf"  />
<polygon style="stroke:black; stroke-width:1; fill:rgb(63,63,190); " description="type_I_polyketide_synthase[br]Location: 32555 - 48247&lt;br&gt;&lt;br&gt;&lt;b&gt;BlastP hit with ctg1_orf00007&lt;/b&gt;&lt;br&gt;Percentage identity: 48%&lt;br&gt;Percentage coverage: 47%&lt;br&gt;BLAST bit score: 1767&lt;br&gt;E-value: 0.0e+00" locus_tag="BAO66529.1" id="knownclusterblast-1_h1_8_19" points="427,90 536,90 541,85 536,80 427,80 427,90 " class="clusterblast-orf"  />
<polygon style="stroke:black; stroke-width:1; fill:#FFFFFF; " description="type_I_polyketide_synthase[br]Location: 29390 - 32524" locus_tag="BAO66528.1" id="knownclusterblast-1_h1_8_20" points="541,90 559,90 564,85 559,80 541,80 541,90 " class="clusterblast-orf"  />
<polygon style="stroke:black; stroke-width:1; fill:#FFFFFF; " description="FAD-dependent_glycine_oxydase[br]Location: 28258 - 29385" locus_tag="BAO66527.1" id="knownclusterblast-1_h1_8_21" points="564,85 569,80 572,80 572,90 569,90 564,85 " class="clusterblast-orf"  />
<polygon style="stroke:black; stroke-width:1; fill:#FFFFFF; " description="type_I_polyketide_synthase[br]Location: 26009 - 28183" locus_tag="BAO66526.1" id="knownclusterblast-1_h1_8_22" points="573,85 578,80 589,80 589,90 578,90 573,85 " class="clusterblast-orf"  />
<polygon style="stroke:black; stroke-width:1; fill:#FFFFFF; " description="putative_NRPS_accessory_protein[br]Location: 25426 - 26001" locus_tag="BAO66525.1" id="knownclusterblast-1_h1_8_23" points="589,85 593,80 593,90 589,85 " class="clusterblast-orf"  />
<polygon style="stroke:black; stroke-width:1; fill:#FFFFFF; " description="P450_monooxygenase[br]Location: 23963 - 25201" locus_tag="BAO66524.1" id="knownclusterblast-1_h1_8_24" points="595,90 599,90 604,85 599,80 595,80 595,90 " class="clusterblast-orf"  />
<polygon style="stroke:black; stroke-width:1; fill:#FFFFFF; " description="carveol_dehydrogenase[br]Location: 22990 - 23856" locus_tag="BAO66523.1" id="knownclusterblast-1_h1_8_25" points="604,85 609,80 611,80 611,90 609,90 604,85 " class="clusterblast-orf"  />
<polygon style="stroke:black; stroke-width:1; fill:#FFFFFF; " description="ABC_transporter[br]Location: 21993 - 22838" locus_tag="BAO66522.1" id="knownclusterblast-1_h1_8_26" points="612,85 617,80 618,80 618,90 617,90 612,85 " class="clusterblast-orf"  />
<polygon style="stroke:black; stroke-width:1; fill:rgb(190,190,63); " description="ABC_transporter[br]Location: 21016 - 21996&lt;br&gt;&lt;br&gt;&lt;b&gt;BlastP hit with ctg1_orf00014&lt;/b&gt;&lt;br&gt;Percentage identity: 48%&lt;br&gt;Percentage coverage: 90%&lt;br&gt;BLAST bit score: 268&lt;br&gt;E-value: 9.3e-72" locus_tag="BAO66521.1" id="knownclusterblast-1_h1_8_27" points="618,85 623,80 625,80 625,90 623,90 618,85 " class="clusterblast-orf"  />
<polygon style="stroke:black; stroke-width:1; fill:#FFFFFF; " description="TetR-type_transcriptional_regulator[br]Location: 20047 - 20802" locus_tag="BAO66520.1" id="knownclusterblast-1_h1_8_28" points="627,90 627,90 632,85 627,80 627,80 627,90 " class="clusterblast-orf"  />
<polygon style="stroke:black; stroke-width:1; fill:rgb(63,63,190); " description="type_I_polyketide_synthase[br]Location: 8973 - 19733&lt;br&gt;&lt;br&gt;&lt;b&gt;BlastP hit with ctg1_orf00007&lt;/b&gt;&lt;br&gt;Percentage identity: 46%&lt;br&gt;Percentage coverage: 52%&lt;br&gt;BLAST bit score: 1798&lt;br&gt;E-value: 0.0e+00" locus_tag="BAO66519.1" id="knownclusterblast-1_h1_8_29" points="634,90 707,90 712,85 707,80 634,80 634,90 " class="clusterblast-orf"  />
<polygon style="stroke:black; stroke-width:1; fill:#FFFFFF; " description="dTDP-4-deoxyglucose_3,5-epimerase[br]Location: 8269 - 8859" locus_tag="BAO66518.1" id="knownclusterblast-1_h1_8_30" points="713,85 718,80 718,80 718,90 718,90 713,85 " class="clusterblast-orf"  />
<polygon style="stroke:black; stroke-width:1; fill:#FFFFFF; " description="type_II_thioesterase[br]Location: 7441 - 8211" locus_tag="BAO66517.1" id="knownclusterblast-1_h1_8_31" points="718,85 723,80 724,80 724,90 723,90 718,85 " class="clusterblast-orf"  />
<polygon style="stroke:black; stroke-width:1; fill:#FFFFFF; " description="xylose_isomerase[br]Location: 6364 - 7230" locus_tag="BAO66516.1" id="knownclusterblast-1_h1_8_32" points="725,90 726,90 731,85 726,80 725,80 725,90 " class="clusterblast-orf"  />
<polygon style="stroke:black; stroke-width:1; fill:#FFFFFF; " description="retinol_dehydrogenase[br]Location: 5489 - 6367" locus_tag="BAO66515.1" id="knownclusterblast-1_h1_8_33" points="731,90 733,90 738,85 733,80 731,80 731,90 " class="clusterblast-orf"  />
<polygon style="stroke:black; stroke-width:1; fill:#FFFFFF; " description="4-ketoreductase[br]Location: 4365 - 5408" locus_tag="BAO66514.1" id="knownclusterblast-1_h1_8_34" points="738,90 741,90 746,85 741,80 738,80 738,90 " class="clusterblast-orf"  />
<polygon style="stroke:black; stroke-width:1; fill:#FFFFFF; " description="dTDP-6-deoxy-L-hexose-3-O-methyltransferase[br]Location: 3580 - 4350" locus_tag="BAO66513.1" id="knownclusterblast-1_h1_8_35" points="746,90 747,90 752,85 747,80 746,80 746,90 " class="clusterblast-orf"  />
<polygon style="stroke:black; stroke-width:1; fill:#FFFFFF; " description="metallophosphatase[br]Location: 2309 - 3163" locus_tag="BAO66512.1" id="knownclusterblast-1_h1_8_36" points="755,90 756,90 761,85 756,80 755,80 755,90 " class="clusterblast-orf"  />
<polygon style="stroke:black; stroke-width:1; fill:#FFFFFF; " description="phosphopantetheinyl_transferase[br]Location: 1638 - 2312" locus_tag="BAO66511.1" id="knownclusterblast-1_h1_8_37" points="761,90 761,90 766,85 761,80 761,80 761,90 " class="clusterblast-orf"  />
<polygon style="stroke:black; stroke-width:1; fill:#FFFFFF; " description="putative_transcriptional_regulator[br]Location: 1119 - 1610" locus_tag="BAO66510.1" id="knownclusterblast-1_h1_8_38" points="766,90 769,85 766,80 766,90 " class="clusterblast-orf"  />
<polygon style="stroke:black; stroke-width:1; fill:#FFFFFF; " description="SAM-dependent_methyltransferase[br]Location: 7 - 1047" locus_tag="BAO66509.1" id="knownclusterblast-1_h1_8_39" points="770,90 773,90 778,85 773,80 770,80 770,90 " class="clusterblast-orf"  />
</g>
</svg>
