<svg xmlns="http://www.w3.org/2000/svg" height="230" width="800" version="1.1" y="0" x="0" preserveAspectRatio="none" xmlns:xlink="http://www.w3.org/1999/xlink" viewBox="0 0 800 230"  >
<g class="clusterblast-cluster" label="Query sequence"  >
<text class="clusterblast-acc" y="20" x="5"  >
Query sequence</text>
<line y1="35" x2="778.0" style="stroke:grey; stroke-width:1; " x1="10" y2="35"  />
<polygon style="stroke:black; stroke-width:1; fill:rgb(190,63,63); " description="unannotated orf[br]Location: 260 - 1310" locus_tag="ctg1_orf00001" class="clusterblast-orf" points="149,40 153,40 158,35 153,30 149,30 149,40 " id="knownclusterblast-1_q1_3_0"  />
<polygon style="stroke:black; stroke-width:1; fill:#FFFFFF; " description="unannotated orf[br]Location: 1383 - 2187" locus_tag="ctg1_orf00002" class="clusterblast-orf" points="158,35 163,30 166,30 166,40 163,40 158,35 " id="knownclusterblast-1_q1_3_1"  />
<polygon style="stroke:black; stroke-width:1; fill:#FFFFFF; " description="unannotated orf[br]Location: 2403 - 3531" locus_tag="ctg1_orf00003" class="clusterblast-orf" points="167,40 172,40 177,35 172,30 167,30 167,40 " id="knownclusterblast-1_q1_3_2"  />
<polygon style="stroke:black; stroke-width:1; fill:rgb(63,63,190); " description="unannotated orf[br]Location: 3682 - 18142" locus_tag="ctg1_orf00007" class="clusterblast-orf" points="179,40 302,40 307,35 302,30 179,30 179,40 " id="knownclusterblast-1_q1_3_3"  />
<polygon style="stroke:black; stroke-width:1; fill:rgb(63,190,63); " description="unannotated orf[br]Location: 18158 - 18875" locus_tag="ctg1_orf00009" class="clusterblast-orf" points="307,40 308,40 313,35 308,30 307,30 307,40 " id="knownclusterblast-1_q1_3_4"  />
<polygon style="stroke:black; stroke-width:1; fill:rgb(190,63,190); " description="unannotated orf[br]Location: 19409 - 19649" locus_tag="ctg1_orf00011" class="clusterblast-orf" points="318,40 320,35 318,30 318,40 " id="knownclusterblast-1_q1_3_5"  />
<polygon style="stroke:black; stroke-width:1; fill:#FFFFFF; " description="unannotated orf[br]Location: 19645 - 20791" locus_tag="ctg1_orf00012" class="clusterblast-orf" points="320,40 325,40 330,35 325,30 320,30 320,40 " id="knownclusterblast-1_q1_3_6"  />
<polygon style="stroke:black; stroke-width:1; fill:#FFFFFF; " description="unannotated orf[br]Location: 20961 - 21354" locus_tag="ctg1_orf00013" class="clusterblast-orf" points="332,40 335,35 332,30 332,40 " id="knownclusterblast-1_q1_3_7"  />
<polygon style="stroke:black; stroke-width:1; fill:rgb(190,190,63); " description="unannotated orf[br]Location: 21361 - 22417" locus_tag="ctg1_orf00014" class="clusterblast-orf" points="336,40 340,40 345,35 340,30 336,30 336,40 " id="knownclusterblast-1_q1_3_8"  />
<polygon style="stroke:black; stroke-width:1; fill:#FFFFFF; " description="unannotated orf[br]Location: 22413 - 23247" locus_tag="ctg1_orf00015" class="clusterblast-orf" points="345,40 347,40 352,35 347,30 345,30 345,40 " id="knownclusterblast-1_q1_3_9"  />
<polygon style="stroke:black; stroke-width:1; fill:#FFFFFF; " description="unannotated orf[br]Location: 23381 - 24590" locus_tag="ctg1_orf00016" class="clusterblast-orf" points="353,40 359,40 364,35 359,30 353,30 353,40 " id="knownclusterblast-1_q1_3_10"  />
<polygon style="stroke:black; stroke-width:1; fill:#FFFFFF; " description="unannotated orf[br]Location: 24939 - 26151" locus_tag="ctg1_orf00017" class="clusterblast-orf" points="367,40 373,40 378,35 373,30 367,30 367,40 " id="knownclusterblast-1_q1_3_11"  />
<polygon style="stroke:black; stroke-width:1; fill:#FFFFFF; " description="unannotated orf[br]Location: 26128 - 27313" locus_tag="ctg1_orf00018" class="clusterblast-orf" points="378,40 383,40 388,35 383,30 378,30 378,40 " id="knownclusterblast-1_q1_3_12"  />
<polygon style="stroke:black; stroke-width:1; fill:#FFFFFF; " description="unannotated orf[br]Location: 27334 - 28456" locus_tag="ctg1_orf00019" class="clusterblast-orf" points="388,40 393,40 398,35 393,30 388,30 388,40 " id="knownclusterblast-1_q1_3_13"  />
<polygon style="stroke:black; stroke-width:1; fill:#FFFFFF; " description="unannotated orf[br]Location: 28591 - 29011" locus_tag="ctg1_orf00020" class="clusterblast-orf" points="400,40 403,35 400,30 400,40 " id="knownclusterblast-1_q1_3_14"  />
<polygon style="stroke:black; stroke-width:1; fill:#FFFFFF; " description="unannotated orf[br]Location: 29041 - 29932" locus_tag="ctg1_orf00021" class="clusterblast-orf" points="404,35 409,30 411,30 411,40 409,40 404,35 " id="knownclusterblast-1_q1_3_15"  />
<polygon style="stroke:black; stroke-width:1; fill:rgb(190,190,190); " description="unannotated orf[br]Location: 30215 - 31343" locus_tag="ctg1_orf00022" class="clusterblast-orf" points="414,40 419,40 424,35 419,30 414,30 414,40 " id="knownclusterblast-1_q1_3_16"  />
<polygon style="stroke:black; stroke-width:1; fill:rgb(63,190,190); " description="unannotated orf[br]Location: 31458 - 55542" locus_tag="ctg1_orf00029" class="clusterblast-orf" points="425,40 633,40 638,35 633,30 425,30 425,40 " id="knownclusterblast-1_q1_3_17"  />
</g>
<g class="clusterblast-cluster" description="Skyllamycin biosynthetic gene cluster (17% of genes show similarity)" label="BGC0000429_c1"  >
<text class="clusterblast-acc" y="70" x="5"  >
<a xlink:href="http://mibig.secondarymetabolites.org/repository/BGC0000429/index.html" target="_blank">BGC0000429_c1</a>: Skyllamycin biosynthetic gene cluster (17% of genes show similarity)</text>
<line y1="85" x2="778.0" style="stroke:grey; stroke-width:1; " x1="10" y2="85"  />
<polygon style="stroke:black; stroke-width:1; fill:#FFFFFF; " description="putative_SMR-type_multi-drug_efflux_transporter[br]Location: 148 - 561" locus_tag="AEA30245.1" id="knownclusterblast-1_h1_3_0" points="10,85 13,80 13,90 10,85 " class="clusterblast-orf"  />
<polygon style="stroke:black; stroke-width:1; fill:#FFFFFF; " description="putative_SMR-type_multi-drug_efflux_transporter[br]Location: 662 - 982" locus_tag="AEA30244.1" id="knownclusterblast-1_h1_3_1" points="14,85 17,80 17,90 14,85 " class="clusterblast-orf"  />
<polygon style="stroke:black; stroke-width:1; fill:#FFFFFF; " description="putative_cytosine/adenosine_deaminase[br]Location: 1093 - 1572" locus_tag="AEA30246.1" id="knownclusterblast-1_h1_3_2" points="18,85 22,80 22,90 18,85 " class="clusterblast-orf"  />
<polygon style="stroke:black; stroke-width:1; fill:#FFFFFF; " description="putative_oxidoreductase[br]Location: 1723 - 2841" locus_tag="AEA30247.1" id="knownclusterblast-1_h1_3_3" points="23,85 28,80 33,80 33,90 28,90 23,85 " class="clusterblast-orf"  />
<polygon style="stroke:black; stroke-width:1; fill:#FFFFFF; " description="putative_isomerase[br]Location: 2843 - 3499" locus_tag="AEA30248.1" id="knownclusterblast-1_h1_3_4" points="33,85 38,80 39,80 39,90 38,90 33,85 " class="clusterblast-orf"  />
<polygon style="stroke:black; stroke-width:1; fill:#FFFFFF; " description="putative_N-acetyltransferase[br]Location: 3724 - 4341" locus_tag="AEA30249.1" id="knownclusterblast-1_h1_3_5" points="41,90 42,90 47,85 42,80 41,80 41,90 " class="clusterblast-orf"  />
<polygon style="stroke:black; stroke-width:1; fill:#FFFFFF; " description="hypothetical_protein[br]Location: 4330 - 4737" locus_tag="AEA30250.1" id="knownclusterblast-1_h1_3_6" points="47,85 50,80 50,90 47,85 " class="clusterblast-orf"  />
<polygon style="stroke:black; stroke-width:1; fill:#FFFFFF; " description="putative_DNA-binding_protein[br]Location: 4894 - 5730" locus_tag="AEA30251.1" id="knownclusterblast-1_h1_3_7" points="52,90 54,90 59,85 54,80 52,80 52,90 " class="clusterblast-orf"  />
<polygon style="stroke:black; stroke-width:1; fill:#FFFFFF; " description="hypothetical_protein[br]Location: 5727 - 5963" locus_tag="AEA30252.1" id="knownclusterblast-1_h1_3_8" points="59,90 61,85 59,80 59,90 " class="clusterblast-orf"  />
<polygon style="stroke:black; stroke-width:1; fill:#FFFFFF; " description="putative_integrin-like_protein[br]Location: 6119 - 7495" locus_tag="AEA30253.1" id="knownclusterblast-1_h1_3_9" points="62,90 70,90 75,85 70,80 62,80 62,90 " class="clusterblast-orf"  />
<polygon style="stroke:black; stroke-width:1; fill:#FFFFFF; " description="putative_carboxyltransferase[br]Location: 7755 - 9338" locus_tag="AEA30254.1" id="knownclusterblast-1_h1_3_10" points="77,85 82,80 91,80 91,90 82,90 77,85 " class="clusterblast-orf"  />
<polygon style="stroke:black; stroke-width:1; fill:#FFFFFF; " description="putative_isoprenyl_diphosphate_synthase[br]Location: 9332 - 10375" locus_tag="AEA30255.1" id="knownclusterblast-1_h1_3_11" points="91,85 96,80 100,80 100,90 96,90 91,85 " class="clusterblast-orf"  />
<polygon style="stroke:black; stroke-width:1; fill:#FFFFFF; " description="putative_ACP-acyltransferase[br]Location: 11015 - 11932" locus_tag="AEA30256.1" id="knownclusterblast-1_h1_3_12" points="106,90 109,90 114,85 109,80 106,80 106,90 " class="clusterblast-orf"  />
<polygon style="stroke:black; stroke-width:1; fill:#FFFFFF; " description="putative_ABC1-family_protein_kinase[br]Location: 11985 - 13949" locus_tag="AEA30257.1" id="knownclusterblast-1_h1_3_13" points="114,90 127,90 132,85 127,80 114,80 114,90 " class="clusterblast-orf"  />
<polygon style="stroke:black; stroke-width:1; fill:rgb(190,63,190); " description="putative_MbtH-like_protein[br]Location: 14040 - 14261&lt;br&gt;&lt;br&gt;&lt;b&gt;BlastP hit with ctg1_orf00011&lt;/b&gt;&lt;br&gt;Percentage identity: 57%&lt;br&gt;Percentage coverage: 87%&lt;br&gt;BLAST bit score: 90&lt;br&gt;E-value: 7.8e-19" locus_tag="AEA30258.1" id="knownclusterblast-1_h1_3_14" points="133,85 135,80 135,90 133,85 " class="clusterblast-orf"  />
<polygon style="stroke:black; stroke-width:1; fill:#FFFFFF; " description="putative_acyl_carrier_protein[br]Location: 14696 - 14950" locus_tag="AEA30259.1" id="knownclusterblast-1_h1_3_15" points="138,90 141,85 138,80 138,90 " class="clusterblast-orf"  />
<polygon style="stroke:black; stroke-width:1; fill:#FFFFFF; " description="putative_3-oxoacyl-ACP_synthase_II[br]Location: 15003 - 16259" locus_tag="AEA30260.1" id="knownclusterblast-1_h1_3_16" points="141,90 147,90 152,85 147,80 141,80 141,90 " class="clusterblast-orf"  />
<polygon style="stroke:black; stroke-width:1; fill:#FFFFFF; " description="putative_3-oxoacyl-ACP_synthase_II[br]Location: 16256 - 17389" locus_tag="AEA30261.1" id="knownclusterblast-1_h1_3_17" points="152,90 157,90 162,85 157,80 152,80 152,90 " class="clusterblast-orf"  />
<polygon style="stroke:black; stroke-width:1; fill:#FFFFFF; " description="putative_3-oxoacyl-ACP_synthase_I[br]Location: 17386 - 18348" locus_tag="AEA30262.1" id="knownclusterblast-1_h1_3_18" points="162,90 166,90 171,85 166,80 162,80 162,90 " class="clusterblast-orf"  />
<polygon style="stroke:black; stroke-width:1; fill:#FFFFFF; " description="putative_hydrolase[br]Location: 18393 - 19211" locus_tag="AEA30263.1" id="knownclusterblast-1_h1_3_19" points="171,90 173,90 178,85 173,80 171,80 171,90 " class="clusterblast-orf"  />
<polygon style="stroke:black; stroke-width:1; fill:#FFFFFF; " description="putative_thioesterase[br]Location: 19217 - 20257" locus_tag="AEA30264.1" id="knownclusterblast-1_h1_3_20" points="178,90 183,90 188,85 183,80 178,80 178,90 " class="clusterblast-orf"  />
<polygon style="stroke:black; stroke-width:1; fill:#FFFFFF; " description="putative_3-oxoacyl-ACP_synthase_I[br]Location: 20286 - 21389" locus_tag="AEA30265.1" id="knownclusterblast-1_h1_3_21" points="188,90 193,90 198,85 193,80 188,80 188,90 " class="clusterblast-orf"  />
<polygon style="stroke:black; stroke-width:1; fill:#FFFFFF; " description="putative_acyl_carrier_protein[br]Location: 21449 - 21697" locus_tag="AEA30266.1" id="knownclusterblast-1_h1_3_22" points="198,90 200,85 198,80 198,90 " class="clusterblast-orf"  />
<polygon style="stroke:black; stroke-width:1; fill:#FFFFFF; " description="putative_dehydratase[br]Location: 21751 - 22140" locus_tag="AEA30267.1" id="knownclusterblast-1_h1_3_23" points="201,90 204,85 201,80 201,90 " class="clusterblast-orf"  />
<polygon style="stroke:black; stroke-width:1; fill:#FFFFFF; " description="putative_3-hydroxyacyl-ACP_dehydratase[br]Location: 22137 - 22625" locus_tag="AEA30268.1" id="knownclusterblast-1_h1_3_24" points="204,90 204,90 209,85 204,80 204,80 204,90 " class="clusterblast-orf"  />
<polygon style="stroke:black; stroke-width:1; fill:#FFFFFF; " description="putative_3-oxoacyl-ACP_reductase[br]Location: 22647 - 23393" locus_tag="AEA30269.1" id="knownclusterblast-1_h1_3_25" points="209,90 211,90 216,85 211,80 209,80 209,90 " class="clusterblast-orf"  />
<polygon style="stroke:black; stroke-width:1; fill:#FFFFFF; " description="putative_isomerase[br]Location: 23435 - 24145" locus_tag="AEA30270.1" id="knownclusterblast-1_h1_3_26" points="216,90 217,90 222,85 217,80 216,80 216,90 " class="clusterblast-orf"  />
<polygon style="stroke:black; stroke-width:1; fill:#FFFFFF; " description="putative_oxidoreductase[br]Location: 24243 - 25910" locus_tag="AEA30271.1" id="knownclusterblast-1_h1_3_27" points="223,90 233,90 238,85 233,80 223,80 223,90 " class="clusterblast-orf"  />
<polygon style="stroke:black; stroke-width:1; fill:rgb(63,190,190); " description="peptide_synthetase[br]Location: 26089 - 40332&lt;br&gt;&lt;br&gt;&lt;b&gt;BlastP hit with ctg1_orf00029&lt;/b&gt;&lt;br&gt;Percentage identity: 47%&lt;br&gt;Percentage coverage: 41%&lt;br&gt;BLAST bit score: 2672&lt;br&gt;E-value: 0.0e+00" locus_tag="AEA30272.1" id="knownclusterblast-1_h1_3_28" points="239,90 361,90 366,85 361,80 239,80 239,90 " class="clusterblast-orf"  />
<polygon style="stroke:black; stroke-width:1; fill:rgb(63,190,190); " description="peptide_synthetase[br]Location: 40329 - 54515&lt;br&gt;&lt;br&gt;&lt;b&gt;BlastP hit with ctg1_orf00029&lt;/b&gt;&lt;br&gt;Percentage identity: 50%&lt;br&gt;Percentage coverage: 40%&lt;br&gt;BLAST bit score: 2841&lt;br&gt;E-value: 0.0e+00" locus_tag="AEA30273.1" id="knownclusterblast-1_h1_3_29" points="366,90 486,90 491,85 486,80 366,80 366,90 " class="clusterblast-orf"  />
<polygon style="stroke:black; stroke-width:1; fill:#FFFFFF; " description="peptide_synthetase[br]Location: 54509 - 66241" locus_tag="AEA30274.1" id="knownclusterblast-1_h1_3_30" points="491,90 590,90 595,85 590,80 491,80 491,90 " class="clusterblast-orf"  />
<polygon style="stroke:black; stroke-width:1; fill:#FFFFFF; " description="P450_monooxygenase[br]Location: 66281 - 67552" locus_tag="AEA30275.1" id="knownclusterblast-1_h1_3_31" points="596,90 602,90 607,85 602,80 596,80 596,90 " class="clusterblast-orf"  />
<polygon style="stroke:black; stroke-width:1; fill:#FFFFFF; " description="putative_type_II_thioesterase[br]Location: 67549 - 68322" locus_tag="AEA30276.1" id="knownclusterblast-1_h1_3_32" points="607,90 609,90 614,85 609,80 607,80 607,90 " class="clusterblast-orf"  />
<polygon style="stroke:black; stroke-width:1; fill:#FFFFFF; " description="hypothetical_protein[br]Location: 68342 - 68863" locus_tag="AEA30277.1" id="knownclusterblast-1_h1_3_33" points="614,85 618,80 618,90 614,85 " class="clusterblast-orf"  />
<polygon style="stroke:black; stroke-width:1; fill:rgb(190,190,63); " description="putative_ABC_transporter[br]Location: 69263 - 70240&lt;br&gt;&lt;br&gt;&lt;b&gt;BlastP hit with ctg1_orf00014&lt;/b&gt;&lt;br&gt;Percentage identity: 51%&lt;br&gt;Percentage coverage: 89%&lt;br&gt;BLAST bit score: 285&lt;br&gt;E-value: 5.7e-77" locus_tag="AEA30278.1" id="knownclusterblast-1_h1_3_34" points="622,90 626,90 631,85 626,80 622,80 622,90 " class="clusterblast-orf"  />
<polygon style="stroke:black; stroke-width:1; fill:#FFFFFF; " description="putative_ABC_transporter[br]Location: 70237 - 71025" locus_tag="AEA30279.1" id="knownclusterblast-1_h1_3_35" points="631,90 633,90 638,85 633,80 631,80 631,90 " class="clusterblast-orf"  />
<polygon style="stroke:black; stroke-width:1; fill:#FFFFFF; " description="O-methyltransferase[br]Location: 71195 - 72223" locus_tag="AEA30280.1" id="knownclusterblast-1_h1_3_36" points="639,90 643,90 648,85 643,80 639,80 639,90 " class="clusterblast-orf"  />
<polygon style="stroke:black; stroke-width:1; fill:#FFFFFF; " description="putative_ABC_transporter[br]Location: 72237 - 73031" locus_tag="AEA30281.1" id="knownclusterblast-1_h1_3_37" points="648,90 650,90 655,85 650,80 648,80 648,90 " class="clusterblast-orf"  />
<polygon style="stroke:black; stroke-width:1; fill:#FFFFFF; " description="flavin-dependent_monooxygenase[br]Location: 73116 - 74186" locus_tag="AEA30282.1" id="knownclusterblast-1_h1_3_38" points="656,90 661,90 666,85 661,80 656,80 656,90 " class="clusterblast-orf"  />
<polygon style="stroke:black; stroke-width:1; fill:#FFFFFF; " description="putative_flavin_reductase[br]Location: 74223 - 74789" locus_tag="AEA30283.1" id="knownclusterblast-1_h1_3_39" points="666,90 666,90 671,85 666,80 666,80 666,90 " class="clusterblast-orf"  />
<polygon style="stroke:black; stroke-width:1; fill:#FFFFFF; " description="glutamate_mutase_subunit_B[br]Location: 74880 - 76196" locus_tag="AEA30284.1" id="knownclusterblast-1_h1_3_40" points="672,85 677,80 683,80 683,90 677,90 672,85 " class="clusterblast-orf"  />
<polygon style="stroke:black; stroke-width:1; fill:#FFFFFF; " description="glutamate_mutase_subunit_A[br]Location: 76193 - 76663" locus_tag="AEA30285.1" id="knownclusterblast-1_h1_3_41" points="683,85 688,80 688,80 688,90 688,90 683,85 " class="clusterblast-orf"  />
<polygon style="stroke:black; stroke-width:1; fill:#FFFFFF; " description="putative_IclR-family_transcriptional_regulator[br]Location: 77324 - 78055" locus_tag="AEA30286.1" id="knownclusterblast-1_h1_3_42" points="693,85 698,80 700,80 700,90 698,90 693,85 " class="clusterblast-orf"  />
<polygon style="stroke:black; stroke-width:1; fill:#FFFFFF; " description="putative_AfsR-like_transcriptional_regulator[br]Location: 78748 - 80688" locus_tag="AEA30287.1" id="knownclusterblast-1_h1_3_43" points="706,85 711,80 723,80 723,90 711,90 706,85 " class="clusterblast-orf"  />
<polygon style="stroke:black; stroke-width:1; fill:#FFFFFF; " description="putative_IclR-family_transcriptional_regulator[br]Location: 80717 - 81394" locus_tag="AEA30288.1" id="knownclusterblast-1_h1_3_44" points="724,85 729,80 730,80 730,90 729,90 724,85 " class="clusterblast-orf"  />
<polygon style="stroke:black; stroke-width:1; fill:#FFFFFF; " description="putative_LuxR-family_transcriptional_regulator[br]Location: 81812 - 82651" locus_tag="AEA30289.1" id="knownclusterblast-1_h1_3_45" points="733,85 738,80 741,80 741,90 738,90 733,85 " class="clusterblast-orf"  />
<polygon style="stroke:black; stroke-width:1; fill:#FFFFFF; " description="putative_LuxR-family_transcriptional_regulator[br]Location: 82799 - 83590" locus_tag="AEA30290.1" id="knownclusterblast-1_h1_3_46" points="742,85 747,80 749,80 749,90 747,90 742,85 " class="clusterblast-orf"  />
<polygon style="stroke:black; stroke-width:1; fill:#FFFFFF; " description="putative_DNA-binding_protein[br]Location: 84713 - 85858" locus_tag="AEA30291.1" id="knownclusterblast-1_h1_3_47" points="759,85 764,80 769,80 769,90 764,90 759,85 " class="clusterblast-orf"  />
<polygon style="stroke:black; stroke-width:1; fill:#FFFFFF; " description="putative_DNA_polymerase_III[br]Location: 86556 - 86806" locus_tag="AEA30292.1" id="knownclusterblast-1_h1_3_48" points="775,90 778,85 775,80 775,90 " class="clusterblast-orf"  />
</g>
</svg>
