<svg version="1.1" xmlns="http://www.w3.org/2000/svg" height="230" width="800" xmlns:xlink="http://www.w3.org/1999/xlink" preserveAspectRatio="none" x="0" y="0" viewBox="0 0 800 230"  >
<g label="Query sequence" class="clusterblast-cluster"  >
<text class="clusterblast-acc" y="20" x="5"  >
Query sequence</text>
<line x1="10" x2="778.0" y2="35" style="stroke-width:1; stroke:grey; " y1="35"  />
<polygon locus_tag="SSMG_04259" description="&lt;b&gt;SSMG_04259&lt;/b&gt;&lt;br&gt;conserved hypothetical protein&lt;br&gt;Location: 4646055 - 4646568" points="33,35 38,30 41,30 41,40 38,40 33,35 " style="stroke-width:1; stroke:black; fill:white; " id="dummy-17_q0_0_all" class="clusterblast-orf"  />
<polygon locus_tag="SSMG_04260" description="&lt;b&gt;SSMG_04260&lt;/b&gt;&lt;br&gt;predicted protein&lt;br&gt;Location: 4646583 - 4647069" points="41,35 46,30 48,30 48,40 46,40 41,35 " style="stroke-width:1; stroke:black; fill:white; " id="dummy-17_q1_0_all" class="clusterblast-orf"  />
<polygon locus_tag="SSMG_04261" description="&lt;b&gt;SSMG_04261&lt;/b&gt;&lt;br&gt;phosphatidylinositol alpha-mannosyltransferase&lt;br&gt;Location: 4647065 - 4648208" points="48,35 53,30 64,30 64,40 53,40 48,35 " style="stroke-width:1; stroke:black; fill:white; " id="dummy-17_q2_0_all" class="clusterblast-orf"  />
<polygon locus_tag="SSMG_04262" description="&lt;b&gt;SSMG_04262&lt;/b&gt;&lt;br&gt;predicted protein&lt;br&gt;Location: 4648225 - 4649128" points="64,35 69,30 77,30 77,40 69,40 64,35 " style="stroke-width:1; stroke:black; fill:white; " id="dummy-17_q3_0_all" class="clusterblast-orf"  />
<polygon locus_tag="SSMG_04263" description="&lt;b&gt;SSMG_04263&lt;/b&gt;&lt;br&gt;phosphatidylinositol synthase&lt;br&gt;Location: 4649124 - 4649772" points="77,35 82,30 86,30 86,40 82,40 77,35 " style="stroke-width:1; stroke:black; fill:white; " id="dummy-17_q4_0_all" class="clusterblast-orf"  />
<polygon locus_tag="SSMG_04264" description="&lt;b&gt;SSMG_04264&lt;/b&gt;&lt;br&gt;MarR-family transcriptional repressor&lt;br&gt;Location: 4649872 - 4650403" points="87,35 92,30 95,30 95,40 92,40 87,35 " style="stroke-width:1; stroke:black; fill:white; " id="dummy-17_q5_0_all" class="clusterblast-orf"  />
<polygon locus_tag="SSMG_04265" description="&lt;b&gt;SSMG_04265&lt;/b&gt;&lt;br&gt;HIT family protein&lt;br&gt;Location: 4650453 - 4650996" points="95,35 100,30 103,30 103,40 100,40 95,35 " style="stroke-width:1; stroke:black; fill:white; " id="dummy-17_q6_0_all" class="clusterblast-orf"  />
<polygon locus_tag="SSMG_04266" description="&lt;b&gt;SSMG_04266&lt;/b&gt;&lt;br&gt;threonyl-tRNA synthetase&lt;br&gt;Location: 4650992 - 4653029" points="103,35 108,30 132,30 132,40 108,40 103,35 " style="stroke-width:1; stroke:black; fill:white; " id="dummy-17_q7_0_all" class="clusterblast-orf"  />
<polygon locus_tag="SSMG_04267" description="&lt;b&gt;SSMG_04267&lt;/b&gt;&lt;br&gt;nitroreductase&lt;br&gt;Location: 4653174 - 4653786" points="134,35 139,30 142,30 142,40 139,40 134,35 " style="stroke-width:1; stroke:black; fill:white; " id="dummy-17_q8_0_all" class="clusterblast-orf"  />
<polygon locus_tag="SSMG_04268" description="&lt;b&gt;SSMG_04268&lt;/b&gt;&lt;br&gt;undecaprenyl-phosphate glucose phosphotransferase&lt;br&gt;Location: 4653943 - 4655410" points="145,35 150,30 165,30 165,40 150,40 145,35 " style="stroke-width:1; stroke:black; fill:white; " id="dummy-17_q9_0_all" class="clusterblast-orf"  />
<polygon locus_tag="SSMG_04269" description="&lt;b&gt;SSMG_04269&lt;/b&gt;&lt;br&gt;predicted protein&lt;br&gt;Location: 4656012 - 4656249" points="174,35 177,30 177,40 174,35 " style="stroke-width:1; stroke:black; fill:white; " id="dummy-17_q10_0_all" class="clusterblast-orf"  />
<polygon locus_tag="SSMG_04270" description="&lt;b&gt;SSMG_04270&lt;/b&gt;&lt;br&gt;predicted protein&lt;br&gt;Location: 4656683 - 4657121" points="183,35 188,30 189,30 189,40 188,40 183,35 " style="stroke-width:1; stroke:black; fill:white; " id="dummy-17_q11_0_all" class="clusterblast-orf"  />
<polygon locus_tag="SSMG_04271" description="&lt;b&gt;SSMG_04271&lt;/b&gt;&lt;br&gt;predicted protein&lt;br&gt;Location: 4658192 - 4659011" points="204,40 211,40 216,35 211,30 204,30 204,40 " style="stroke-width:1; stroke:black; fill:white; " id="dummy-17_q12_0_all" class="clusterblast-orf"  />
<polygon locus_tag="SSMG_04272" description="&lt;b&gt;SSMG_04272&lt;/b&gt;&lt;br&gt;3-oxoacyl-(acyl carrier protein) synthase III&lt;br&gt;Location: 4659025 - 4659964" points="216,35 221,30 229,30 229,40 221,40 216,35 " style="stroke-width:1; stroke:black; fill:white; " id="dummy-17_q13_0_all" class="clusterblast-orf"  />
<polygon locus_tag="SSMG_04273" description="&lt;b&gt;SSMG_04273&lt;/b&gt;&lt;br&gt;predicted protein&lt;br&gt;Location: 4659985 - 4662595" points="230,35 235,30 266,30 266,40 235,40 230,35 " style="stroke-width:1; stroke:black; fill:white; " id="dummy-17_q14_0_all" class="clusterblast-orf"  />
<polygon locus_tag="SSMG_04274" description="&lt;b&gt;SSMG_04274&lt;/b&gt;&lt;br&gt;conserved hypothetical protein&lt;br&gt;Location: 4662699 - 4663347" points="268,35 273,30 277,30 277,40 273,40 268,35 " style="stroke-width:1; stroke:black; fill:white; " id="dummy-17_q15_0_all" class="clusterblast-orf"  />
<polygon locus_tag="SSMG_04275" description="&lt;b&gt;SSMG_04275&lt;/b&gt;&lt;br&gt;3-oxoacyl-[acyl-carrier-protein] reductase&lt;br&gt;Location: 4663491 - 4664232" points="279,35 284,30 290,30 290,40 284,40 279,35 " style="stroke-width:1; stroke:black; fill:#d81515; " id="dummy-17_q16_0_all" class="clusterblast-orf"  />
<polygon locus_tag="SSMG_04276" description="&lt;b&gt;SSMG_04276&lt;/b&gt;&lt;br&gt;predicted protein&lt;br&gt;Location: 4664228 - 4664642" points="290,35 295,30 295,30 295,40 295,40 290,35 " style="stroke-width:1; stroke:black; fill:white; " id="dummy-17_q17_0_all" class="clusterblast-orf"  />
<polygon locus_tag="SSMG_04277" description="&lt;b&gt;SSMG_04277&lt;/b&gt;&lt;br&gt;predicted protein&lt;br&gt;Location: 4664638 - 4664989" points="295,35 300,30 300,30 300,40 300,40 295,35 " style="stroke-width:1; stroke:black; fill:white; " id="dummy-17_q18_0_all" class="clusterblast-orf"  />
<polygon locus_tag="SSMG_04278" description="&lt;b&gt;SSMG_04278&lt;/b&gt;&lt;br&gt;predicted protein&lt;br&gt;Location: 4664964 - 4665975" points="300,35 305,30 314,30 314,40 305,40 300,35 " style="stroke-width:1; stroke:black; fill:white; " id="dummy-17_q19_0_all" class="clusterblast-orf"  />
<polygon locus_tag="SSMG_04279" description="&lt;b&gt;SSMG_04279&lt;/b&gt;&lt;br&gt;3-oxoacyl-[acyl-carrier-protein] synthase 2&lt;br&gt;Location: 4665971 - 4667213" points="314,35 319,30 332,30 332,40 319,40 314,35 " style="stroke-width:1; stroke:black; fill:#15d815; " id="dummy-17_q20_0_all" class="clusterblast-orf"  />
<polygon locus_tag="SSMG_04280" description="&lt;b&gt;SSMG_04280&lt;/b&gt;&lt;br&gt;acyl carrier protein&lt;br&gt;Location: 4667214 - 4667502" points="332,35 336,30 336,40 332,35 " style="stroke-width:1; stroke:black; fill:white; " id="dummy-17_q21_0_all" class="clusterblast-orf"  />
<polygon locus_tag="SSMG_04281" description="&lt;b&gt;SSMG_04281&lt;/b&gt;&lt;br&gt;predicted protein&lt;br&gt;Location: 4667530 - 4668379" points="336,35 341,30 348,30 348,40 341,40 336,35 " style="stroke-width:1; stroke:black; fill:white; " id="dummy-17_q22_0_all" class="clusterblast-orf"  />
<polygon locus_tag="SSMG_04282" description="&lt;b&gt;SSMG_04282&lt;/b&gt;&lt;br&gt;dicarboxylate-CoA ligase PimA&lt;br&gt;Location: 4668401 - 4669997" points="348,35 353,30 371,30 371,40 353,40 348,35 " style="stroke-width:1; stroke:black; fill:#1597d8; " id="dummy-17_q23_0_all" class="clusterblast-orf"  />
<polygon locus_tag="SSMG_04283" description="&lt;b&gt;SSMG_04283&lt;/b&gt;&lt;br&gt;predicted protein&lt;br&gt;Location: 4669993 - 4671523" points="371,35 376,30 392,30 392,40 376,40 371,35 " style="stroke-width:1; stroke:black; fill:#9715d8; " id="dummy-17_q24_0_all" class="clusterblast-orf"  />
<polygon locus_tag="SSMG_04284" description="&lt;b&gt;SSMG_04284&lt;/b&gt;&lt;br&gt;modular polyketide synthase&lt;br&gt;Location: 4671446 - 4677095" points="391,35 396,30 471,30 471,40 396,40 391,35 " style="stroke-width:1; stroke:black; fill:#d89715; " id="dummy-17_q25_0_all" class="clusterblast-orf"  />
<polygon locus_tag="SSMG_04285" description="&lt;b&gt;SSMG_04285&lt;/b&gt;&lt;br&gt;predicted protein&lt;br&gt;Location: 4677855 - 4678209" points="482,35 487,30 487,30 487,40 487,40 482,35 " style="stroke-width:1; stroke:black; fill:#15d897; " id="dummy-17_q26_0_all" class="clusterblast-orf"  />
<polygon locus_tag="SSMG_04286" description="&lt;b&gt;SSMG_04286&lt;/b&gt;&lt;br&gt;conserved hypothetical protein&lt;br&gt;Location: 4678234 - 4678792" points="487,35 492,30 495,30 495,40 492,40 487,35 " style="stroke-width:1; stroke:black; fill:#1515d8; " id="dummy-17_q27_0_all" class="clusterblast-orf"  />
<polygon locus_tag="SSMG_04287" description="&lt;b&gt;SSMG_04287&lt;/b&gt;&lt;br&gt;predicted protein&lt;br&gt;Location: 4678788 - 4679991" points="495,35 500,30 512,30 512,40 500,40 495,35 " style="stroke-width:1; stroke:black; fill:#d81597; " id="dummy-17_q28_0_all" class="clusterblast-orf"  />
<polygon locus_tag="SSMG_04288" description="&lt;b&gt;SSMG_04288&lt;/b&gt;&lt;br&gt;predicted protein&lt;br&gt;Location: 4680008 - 4681220" points="512,35 517,30 529,30 529,40 517,40 512,35 " style="stroke-width:1; stroke:black; fill:#d81597; " id="dummy-17_q29_0_all" class="clusterblast-orf"  />
<polygon locus_tag="SSMG_04289" description="&lt;b&gt;SSMG_04289&lt;/b&gt;&lt;br&gt;taurine catabolism dioxygenase&lt;br&gt;Location: 4681253 - 4682135" points="529,35 534,30 542,30 542,40 534,40 529,35 " style="stroke-width:1; stroke:black; fill:#97d815; " id="dummy-17_q30_0_all" class="clusterblast-orf"  />
<polygon locus_tag="SSMG_04290" description="&lt;b&gt;SSMG_04290&lt;/b&gt;&lt;br&gt;regulator&lt;br&gt;Location: 4683071 - 4683497" points="555,40 556,40 561,35 556,30 555,30 555,40 " style="stroke-width:1; stroke:black; fill:white; " id="dummy-17_q31_0_all" class="clusterblast-orf"  />
<polygon locus_tag="SSMG_04291" description="&lt;b&gt;SSMG_04291&lt;/b&gt;&lt;br&gt;glucose-6-phosphate dehydrogenase, F420-dependent&lt;br&gt;Location: 4684438 - 4685443" points="574,35 579,30 588,30 588,40 579,40 574,35 " style="stroke-width:1; stroke:black; fill:white; " id="dummy-17_q32_0_all" class="clusterblast-orf"  />
<polygon locus_tag="SSMG_04292" description="&lt;b&gt;SSMG_04292&lt;/b&gt;&lt;br&gt;predicted protein&lt;br&gt;Location: 4685755 - 4686505" points="593,35 598,30 603,30 603,40 598,40 593,35 " style="stroke-width:1; stroke:black; fill:white; " id="dummy-17_q33_0_all" class="clusterblast-orf"  />
<polygon locus_tag="SSMG_04293" description="&lt;b&gt;SSMG_04293&lt;/b&gt;&lt;br&gt;siderophore interacting protein&lt;br&gt;Location: 4687111 - 4687906" points="612,40 618,40 623,35 618,30 612,30 612,40 " style="stroke-width:1; stroke:black; fill:white; " id="dummy-17_q34_0_all" class="clusterblast-orf"  />
<polygon locus_tag="SSMG_04294" description="&lt;b&gt;SSMG_04294&lt;/b&gt;&lt;br&gt;methylated-DNA-protein-cysteine methyltransferase&lt;br&gt;Location: 4687911 - 4688481" points="623,35 628,30 631,30 631,40 628,40 623,35 " style="stroke-width:1; stroke:black; fill:white; " id="dummy-17_q35_0_all" class="clusterblast-orf"  />
<polygon locus_tag="SSMG_04295" description="&lt;b&gt;SSMG_04295&lt;/b&gt;&lt;br&gt;4-carboxy-4-hydroxy-2-oxoadipate aldolase/oxaloacetate decarboxylase&lt;br&gt;Location: 4688461 - 4689097" points="631,40 635,40 640,35 635,30 631,30 631,40 " style="stroke-width:1; stroke:black; fill:white; " id="dummy-17_q36_0_all" class="clusterblast-orf"  />
<polygon locus_tag="SSMG_04296" description="&lt;b&gt;SSMG_04296&lt;/b&gt;&lt;br&gt;predicted protein&lt;br&gt;Location: 4689033 - 4689261" points="639,40 642,35 639,30 639,40 " style="stroke-width:1; stroke:black; fill:white; " id="dummy-17_q37_0_all" class="clusterblast-orf"  />
<polygon locus_tag="SSMG_04297" description="&lt;b&gt;SSMG_04297&lt;/b&gt;&lt;br&gt;predicted protein&lt;br&gt;Location: 4689680 - 4689869" points="648,35 651,30 651,40 648,35 " style="stroke-width:1; stroke:black; fill:white; " id="dummy-17_q38_0_all" class="clusterblast-orf"  />
<polygon locus_tag="SSMG_04298" description="&lt;b&gt;SSMG_04298&lt;/b&gt;&lt;br&gt;predicted protein&lt;br&gt;Location: 4689991 - 4690285" points="653,40 657,35 653,30 653,40 " style="stroke-width:1; stroke:black; fill:white; " id="dummy-17_q39_0_all" class="clusterblast-orf"  />
<polygon locus_tag="SSMG_04299" description="&lt;b&gt;SSMG_04299&lt;/b&gt;&lt;br&gt;proline iminopeptidase&lt;br&gt;Location: 4690952 - 4692182" points="666,40 678,40 683,35 678,30 666,30 666,40 " style="stroke-width:1; stroke:black; fill:white; " id="dummy-17_q40_0_all" class="clusterblast-orf"  />
<polygon locus_tag="SSMG_04300" description="&lt;b&gt;SSMG_04300&lt;/b&gt;&lt;br&gt;2-hydroxycyclohexanecarboxyl-CoA dehydrogenase&lt;br&gt;Location: 4692227 - 4693079" points="684,35 689,30 696,30 696,40 689,40 684,35 " style="stroke-width:1; stroke:black; fill:white; " id="dummy-17_q41_0_all" class="clusterblast-orf"  />
<polygon locus_tag="SSMG_04301" description="&lt;b&gt;SSMG_04301&lt;/b&gt;&lt;br&gt;predicted protein&lt;br&gt;Location: 4693154 - 4694012" points="697,35 702,30 709,30 709,40 702,40 697,35 " style="stroke-width:1; stroke:black; fill:white; " id="dummy-17_q42_0_all" class="clusterblast-orf"  />
<polygon locus_tag="SSMG_04302" description="&lt;b&gt;SSMG_04302&lt;/b&gt;&lt;br&gt;conserved hypothetical protein&lt;br&gt;Location: 4694070 - 4695588" points="710,35 715,30 731,30 731,40 715,40 710,35 " style="stroke-width:1; stroke:black; fill:white; " id="dummy-17_q43_0_all" class="clusterblast-orf"  />
<polygon locus_tag="SSMG_04303" description="&lt;b&gt;SSMG_04303&lt;/b&gt;&lt;br&gt;conserved hypothetical protein&lt;br&gt;Location: 4695563 - 4696613" points="731,35 736,30 746,30 746,40 736,40 731,35 " style="stroke-width:1; stroke:black; fill:white; " id="dummy-17_q44_0_all" class="clusterblast-orf"  />
</g>
<g label="BGC0001297" description="BGC0001297_c1: WS9326 (5% of genes show similarity), NRP" class="clusterblast-cluster"  >
<text class="clusterblast-acc" y="70" x="5"  >
<a xlink:href="https://mibig.secondarymetabolites.org/go/BGC0001297/1" target="_blank">BGC0001297</a>:                                                                           WS9326 (5% of genes show similarity), NRP</text>
<line x1="10" x2="778.0" y2="85" style="stroke-width:1; stroke:grey; " y1="85"  />
</g>
<g id="a17_000"  >
<polygon locus_tag="ALG65296.1" description="&lt;b&gt;ALG65296.1&lt;/b&gt;&lt;br&gt;Cal40&lt;br&gt;Location: 49 - 891" points="0,85 5,80 11,80 11,90 5,90 0,85 " style="stroke-width:1; stroke:black; fill:white; " id="dummy-17_h17_5_0" class="clusterblast-orf"  />
</g>
<g id="a17_001"  >
<polygon locus_tag="ALG65297.1" description="&lt;b&gt;ALG65297.1&lt;/b&gt;&lt;br&gt;Cal39&lt;br&gt;Location: 929 - 1885" points="12,85 17,80 25,80 25,90 17,90 12,85 " style="stroke-width:1; stroke:black; fill:white; " id="dummy-17_h17_5_1" class="clusterblast-orf"  />
</g>
<g id="a17_002"  >
<polygon locus_tag="ALG65298.1" description="&lt;b&gt;ALG65298.1&lt;/b&gt;&lt;br&gt;Cal38&lt;br&gt;Location: 1989 - 2525" points="27,85 32,80 34,80 34,90 32,90 27,85 " style="stroke-width:1; stroke:black; fill:white; " id="dummy-17_h17_5_2" class="clusterblast-orf"  />
</g>
<g id="a17_003"  >
<polygon locus_tag="ALG65299.1" description="&lt;b&gt;ALG65299.1&lt;/b&gt;&lt;br&gt;Cal37&lt;br&gt;Location: 2525 - 3271&lt;br&gt;&lt;br&gt;&lt;b&gt;BlastP hit with SSMG_04275&lt;/b&gt;&lt;br&gt;Percentage identity: 61&lt;br&gt;Percentage coverage: 98&lt;br&gt;BLAST bit score: 282&lt;br&gt;E-value: 6.6e-76" points="34,85 39,80 45,80 45,90 39,90 34,85 " style="stroke-width:1; stroke:black; fill:#d81515; " id="dummy-17_h17_5_3" class="clusterblast-orf"  />
</g>
<g id="a17_004"  >
<polygon locus_tag="ALG65300.1" description="&lt;b&gt;ALG65300.1&lt;/b&gt;&lt;br&gt;Cal36&lt;br&gt;Location: 3345 - 3824" points="46,85 51,80 53,80 53,90 51,90 46,85 " style="stroke-width:1; stroke:black; fill:white; " id="dummy-17_h17_5_4" class="clusterblast-orf"  />
</g>
<g id="a17_005"  >
<polygon locus_tag="ALG65301.1" description="&lt;b&gt;ALG65301.1&lt;/b&gt;&lt;br&gt;Cal35&lt;br&gt;Location: 3818 - 4219" points="53,85 58,80 58,80 58,90 58,90 53,85 " style="stroke-width:1; stroke:black; fill:white; " id="dummy-17_h17_5_5" class="clusterblast-orf"  />
</g>
<g id="a17_006"  >
<polygon locus_tag="ALG65302.1" description="&lt;b&gt;ALG65302.1&lt;/b&gt;&lt;br&gt;Cal34&lt;br&gt;Location: 4216 - 4479" points="58,85 62,80 62,90 58,85 " style="stroke-width:1; stroke:black; fill:white; " id="dummy-17_h17_5_6" class="clusterblast-orf"  />
</g>
<g id="a17_007"  >
<polygon locus_tag="ALG65303.1" description="&lt;b&gt;ALG65303.1&lt;/b&gt;&lt;br&gt;Cal33&lt;br&gt;Location: 4599 - 5714" points="64,85 69,80 79,80 79,90 69,90 64,85 " style="stroke-width:1; stroke:black; fill:white; " id="dummy-17_h17_5_7" class="clusterblast-orf"  />
</g>
<g id="a17_008"  >
<polygon locus_tag="ALG65304.1" description="&lt;b&gt;ALG65304.1&lt;/b&gt;&lt;br&gt;Cal32&lt;br&gt;Location: 5815 - 6759" points="81,85 86,80 94,80 94,90 86,90 81,85 " style="stroke-width:1; stroke:black; fill:white; " id="dummy-17_h17_5_8" class="clusterblast-orf"  />
</g>
<g id="a17_009"  >
<polygon locus_tag="ALG65305.1" description="&lt;b&gt;ALG65305.1&lt;/b&gt;&lt;br&gt;Cal31&lt;br&gt;Location: 6759 - 7898" points="94,85 99,80 110,80 110,90 99,90 94,85 " style="stroke-width:1; stroke:black; fill:white; " id="dummy-17_h17_5_9" class="clusterblast-orf"  />
</g>
<g id="a17_0010"  >
<polygon locus_tag="ALG65306.1" description="&lt;b&gt;ALG65306.1&lt;/b&gt;&lt;br&gt;Cal30&lt;br&gt;Location: 7895 - 9145&lt;br&gt;&lt;br&gt;&lt;b&gt;BlastP hit with SSMG_04279&lt;/b&gt;&lt;br&gt;Percentage identity: 62&lt;br&gt;Percentage coverage: 97&lt;br&gt;BLAST bit score: 489&lt;br&gt;E-value: 4.5e-138" points="110,85 115,80 128,80 128,90 115,90 110,85 " style="stroke-width:1; stroke:black; fill:#15d815; " id="dummy-17_h17_5_10" class="clusterblast-orf"  />
</g>
<g id="a17_0011"  >
<polygon locus_tag="ALG65307.1" description="&lt;b&gt;ALG65307.1&lt;/b&gt;&lt;br&gt;Cal29&lt;br&gt;Location: 9267 - 9527" points="129,85 133,80 133,90 129,85 " style="stroke-width:1; stroke:black; fill:white; " id="dummy-17_h17_5_11" class="clusterblast-orf"  />
</g>
<g id="a17_0012"  >
<polygon locus_tag="ALG65308.1" description="&lt;b&gt;ALG65308.1&lt;/b&gt;&lt;br&gt;Cal28&lt;br&gt;Location: 9670 - 11394" points="135,85 140,80 159,80 159,90 140,90 135,85 " style="stroke-width:1; stroke:black; fill:white; " id="dummy-17_h17_5_12" class="clusterblast-orf"  />
</g>
<g id="a17_0013"  >
<polygon locus_tag="ALG65309.1" description="&lt;b&gt;ALG65309.1&lt;/b&gt;&lt;br&gt;Cal27&lt;br&gt;Location: 11480 - 12205" points="161,85 166,80 171,80 171,90 166,90 161,85 " style="stroke-width:1; stroke:black; fill:white; " id="dummy-17_h17_5_13" class="clusterblast-orf"  />
</g>
<g id="a17_0014"  >
<polygon locus_tag="ALG65310.1" description="&lt;b&gt;ALG65310.1&lt;/b&gt;&lt;br&gt;Cal26&lt;br&gt;Location: 12234 - 13235" points="171,85 176,80 185,80 185,90 176,90 171,85 " style="stroke-width:1; stroke:black; fill:white; " id="dummy-17_h17_5_14" class="clusterblast-orf"  />
</g>
<g id="a17_0015"  >
<polygon locus_tag="ALG65311.1" description="&lt;b&gt;ALG65311.1&lt;/b&gt;&lt;br&gt;Cal25&lt;br&gt;Location: 13252 - 14076" points="186,85 191,80 197,80 197,90 191,90 186,85 " style="stroke-width:1; stroke:black; fill:white; " id="dummy-17_h17_5_15" class="clusterblast-orf"  />
</g>
<g id="a17_0016"  >
<polygon locus_tag="ALG65312.1" description="&lt;b&gt;ALG65312.1&lt;/b&gt;&lt;br&gt;Cal24&lt;br&gt;Location: 14497 - 15699" points="203,85 208,80 220,80 220,90 208,90 203,85 " style="stroke-width:1; stroke:black; fill:white; " id="dummy-17_h17_5_16" class="clusterblast-orf"  />
</g>
<g id="a17_0017"  >
<polygon locus_tag="ALG65313.1" description="&lt;b&gt;ALG65313.1&lt;/b&gt;&lt;br&gt;Cal23&lt;br&gt;Location: 15696 - 17498" points="220,85 225,80 245,80 245,90 225,90 220,85 " style="stroke-width:1; stroke:black; fill:white; " id="dummy-17_h17_5_17" class="clusterblast-orf"  />
</g>
<g id="a17_0018"  >
<polygon locus_tag="ALG65314.1" description="&lt;b&gt;ALG65314.1&lt;/b&gt;&lt;br&gt;Cal22&lt;br&gt;Location: 17542 - 20478" points="246,85 251,80 287,80 287,90 251,90 246,85 " style="stroke-width:1; stroke:black; fill:white; " id="dummy-17_h17_5_18" class="clusterblast-orf"  />
</g>
<g id="a17_0019"  >
<polygon locus_tag="ALG65315.1" description="&lt;b&gt;ALG65315.1&lt;/b&gt;&lt;br&gt;Cal21&lt;br&gt;Location: 20503 - 21330" points="288,85 293,80 299,80 299,90 293,90 288,85 " style="stroke-width:1; stroke:black; fill:white; " id="dummy-17_h17_5_19" class="clusterblast-orf"  />
</g>
<g id="a17_0020"  >
<polygon locus_tag="ALG65316.1" description="&lt;b&gt;ALG65316.1&lt;/b&gt;&lt;br&gt;Cal20&lt;br&gt;Location: 21378 - 22079" points="300,85 305,80 310,80 310,90 305,90 300,85 " style="stroke-width:1; stroke:black; fill:white; " id="dummy-17_h17_5_20" class="clusterblast-orf"  />
</g>
<g id="a17_0021"  >
<polygon locus_tag="ALG65317.1" description="&lt;b&gt;ALG65317.1&lt;/b&gt;&lt;br&gt;Cal19&lt;br&gt;Location: 22137 - 27815" points="311,85 316,80 391,80 391,90 316,90 311,85 " style="stroke-width:1; stroke:black; fill:white; " id="dummy-17_h17_5_21" class="clusterblast-orf"  />
</g>
<g id="a17_0022"  >
<polygon locus_tag="ALG65318.1" description="&lt;b&gt;ALG65318.1&lt;/b&gt;&lt;br&gt;Cal18&lt;br&gt;Location: 27812 - 35542" points="391,85 396,80 500,80 500,90 396,90 391,85 " style="stroke-width:1; stroke:black; fill:white; " id="dummy-17_h17_5_22" class="clusterblast-orf"  />
</g>
<g id="a17_0023"  >
<polygon locus_tag="ALG65319.1" description="&lt;b&gt;ALG65319.1&lt;/b&gt;&lt;br&gt;Cal17&lt;br&gt;Location: 35546 - 43249" points="500,85 505,80 608,80 608,90 505,90 500,85 " style="stroke-width:1; stroke:black; fill:white; " id="dummy-17_h17_5_23" class="clusterblast-orf"  />
</g>
<g id="a17_0024"  >
<polygon locus_tag="ALG65320.1" description="&lt;b&gt;ALG65320.1&lt;/b&gt;&lt;br&gt;Cal16&lt;br&gt;Location: 43526 - 44749" points="612,90 624,90 629,85 624,80 612,80 612,90 " style="stroke-width:1; stroke:black; fill:white; " id="dummy-17_h17_5_24" class="clusterblast-orf"  />
</g>
<g id="a17_0025"  >
<polygon locus_tag="ALG65321.1" description="&lt;b&gt;ALG65321.1&lt;/b&gt;&lt;br&gt;Cal15&lt;br&gt;Location: 44755 - 44952" points="629,90 632,85 629,80 629,90 " style="stroke-width:1; stroke:black; fill:white; " id="dummy-17_h17_5_25" class="clusterblast-orf"  />
</g>
<g id="a17_0026"  >
<polygon locus_tag="ALG65322.1" description="&lt;b&gt;ALG65322.1&lt;/b&gt;&lt;br&gt;Cal14&lt;br&gt;Location: 45084 - 45857" points="634,90 640,90 645,85 640,80 634,80 634,90 " style="stroke-width:1; stroke:black; fill:white; " id="dummy-17_h17_5_26" class="clusterblast-orf"  />
</g>
<g id="a17_0027"  >
<polygon locus_tag="ALG65323.1" description="&lt;b&gt;ALG65323.1&lt;/b&gt;&lt;br&gt;Cal13&lt;br&gt;Location: 45928 - 46872" points="646,85 651,80 659,80 659,90 651,90 646,85 " style="stroke-width:1; stroke:black; fill:white; " id="dummy-17_h17_5_27" class="clusterblast-orf"  />
</g>
<g id="a17_0028"  >
<polygon locus_tag="ALG65324.1" description="&lt;b&gt;ALG65324.1&lt;/b&gt;&lt;br&gt;Cal12&lt;br&gt;Location: 46869 - 47291" points="659,85 664,80 665,80 665,90 664,90 659,85 " style="stroke-width:1; stroke:black; fill:white; " id="dummy-17_h17_5_28" class="clusterblast-orf"  />
</g>
<g id="a17_0029"  >
<polygon locus_tag="ALG65325.1" description="&lt;b&gt;ALG65325.1&lt;/b&gt;&lt;br&gt;Cal11&lt;br&gt;Location: 47291 - 47701" points="665,85 670,80 671,80 671,90 670,90 665,85 " style="stroke-width:1; stroke:black; fill:white; " id="dummy-17_h17_5_29" class="clusterblast-orf"  />
</g>
<g id="a17_0030"  >
<polygon locus_tag="ALG65326.1" description="&lt;b&gt;ALG65326.1&lt;/b&gt;&lt;br&gt;Cal10&lt;br&gt;Location: 47701 - 48072" points="671,85 676,80 676,80 676,90 676,90 671,85 " style="stroke-width:1; stroke:black; fill:white; " id="dummy-17_h17_5_30" class="clusterblast-orf"  />
</g>
<g id="a17_0031"  >
<polygon locus_tag="ALG65327.1" description="&lt;b&gt;ALG65327.1&lt;/b&gt;&lt;br&gt;Cal9&lt;br&gt;Location: 48072 - 48323" points="676,85 680,80 680,90 676,85 " style="stroke-width:1; stroke:black; fill:white; " id="dummy-17_h17_5_31" class="clusterblast-orf"  />
</g>
<g id="a17_0032"  >
<polygon locus_tag="ALG65328.1" description="&lt;b&gt;ALG65328.1&lt;/b&gt;&lt;br&gt;Cal8&lt;br&gt;Location: 48540 - 49781" points="683,90 695,90 700,85 695,80 683,80 683,90 " style="stroke-width:1; stroke:black; fill:white; " id="dummy-17_h17_5_32" class="clusterblast-orf"  />
</g>
<g id="a17_0033"  >
<polygon locus_tag="ALG65329.1" description="&lt;b&gt;ALG65329.1&lt;/b&gt;&lt;br&gt;Cal7&lt;br&gt;Location: 49778 - 50782" points="700,90 709,90 714,85 709,80 700,80 700,90 " style="stroke-width:1; stroke:black; fill:white; " id="dummy-17_h17_5_33" class="clusterblast-orf"  />
</g>
<g id="a17_0034"  >
<polygon locus_tag="ALG65330.1" description="&lt;b&gt;ALG65330.1&lt;/b&gt;&lt;br&gt;Cal6&lt;br&gt;Location: 50852 - 51811" points="715,90 724,90 729,85 724,80 715,80 715,90 " style="stroke-width:1; stroke:black; fill:white; " id="dummy-17_h17_5_34" class="clusterblast-orf"  />
</g>
<g id="a17_0035"  >
<polygon locus_tag="ALG65331.1" description="&lt;b&gt;ALG65331.1&lt;/b&gt;&lt;br&gt;Cal5&lt;br&gt;Location: 51908 - 52696" points="730,85 735,80 741,80 741,90 735,90 730,85 " style="stroke-width:1; stroke:black; fill:white; " id="dummy-17_h17_5_35" class="clusterblast-orf"  />
</g>
<g id="a17_0036"  >
<polygon locus_tag="ALG65332.1" description="&lt;b&gt;ALG65332.1&lt;/b&gt;&lt;br&gt;Cal4&lt;br&gt;Location: 52701 - 52919" points="741,85 745,80 745,90 741,85 " style="stroke-width:1; stroke:black; fill:white; " id="dummy-17_h17_5_36" class="clusterblast-orf"  />
</g>
<g id="a17_0037"  >
<polygon locus_tag="ALG65333.1" description="&lt;b&gt;ALG65333.1&lt;/b&gt;&lt;br&gt;Cal3&lt;br&gt;Location: 52967 - 53206" points="745,85 749,80 749,90 745,85 " style="stroke-width:1; stroke:black; fill:white; " id="dummy-17_h17_5_37" class="clusterblast-orf"  />
</g>
<g id="a17_0038"  >
<polygon locus_tag="ALG65334.1" description="&lt;b&gt;ALG65334.1&lt;/b&gt;&lt;br&gt;Cal2&lt;br&gt;Location: 53526 - 54170" points="753,85 758,80 762,80 762,90 758,90 753,85 " style="stroke-width:1; stroke:black; fill:white; " id="dummy-17_h17_5_38" class="clusterblast-orf"  />
</g>
<g id="a17_0039"  >
<polygon locus_tag="ALG65335.1" description="&lt;b&gt;ALG65335.1&lt;/b&gt;&lt;br&gt;Cal1&lt;br&gt;Location: 54161 - 55402" points="762,85 767,80 780,80 780,90 767,90 762,85 " style="stroke-width:1; stroke:black; fill:white; " id="dummy-17_h17_5_39" class="clusterblast-orf"  />
</g>
</svg>
