<svg version="1.1" xmlns="http://www.w3.org/2000/svg" height="230" width="800" xmlns:xlink="http://www.w3.org/1999/xlink" preserveAspectRatio="none" x="0" y="0" viewBox="0 0 800 230"  >
<g label="Query sequence" class="clusterblast-cluster"  >
<text class="clusterblast-acc" y="20" x="5"  >
Query sequence</text>
<line x1="10" x2="778.0" y2="35" style="stroke-width:1; stroke:grey; " y1="35"  />
<polygon locus_tag="SSMG_03375" description="&lt;b&gt;SSMG_03375&lt;/b&gt;&lt;br&gt;predicted protein&lt;br&gt;Location: 3680898 - 3681750" points="20,40 30,40 35,35 30,30 20,30 20,40 " style="stroke-width:1; stroke:black; fill:white; " id="dummy-13_q0_0_all" class="clusterblast-orf"  />
<polygon locus_tag="SSMG_03376" description="&lt;b&gt;SSMG_03376&lt;/b&gt;&lt;br&gt;predicted protein&lt;br&gt;Location: 3681823 - 3683095" points="36,35 41,30 58,30 58,40 41,40 36,35 " style="stroke-width:1; stroke:black; fill:white; " id="dummy-13_q1_0_all" class="clusterblast-orf"  />
<polygon locus_tag="SSMG_03377" description="&lt;b&gt;SSMG_03377&lt;/b&gt;&lt;br&gt;ECF sub family sigma-70 factor&lt;br&gt;Location: 3683266 - 3683791" points="61,40 65,40 70,35 65,30 61,30 61,40 " style="stroke-width:1; stroke:black; fill:white; " id="dummy-13_q2_0_all" class="clusterblast-orf"  />
<polygon locus_tag="SSMG_03378" description="&lt;b&gt;SSMG_03378&lt;/b&gt;&lt;br&gt;predicted protein&lt;br&gt;Location: 3683787 - 3684474" points="70,40 77,40 82,35 77,30 70,30 70,40 " style="stroke-width:1; stroke:black; fill:white; " id="dummy-13_q3_0_all" class="clusterblast-orf"  />
<polygon locus_tag="SSMG_03379" description="&lt;b&gt;SSMG_03379&lt;/b&gt;&lt;br&gt;predicted protein&lt;br&gt;Location: 3684512 - 3684920" points="82,40 84,40 89,35 84,30 82,30 82,40 " style="stroke-width:1; stroke:black; fill:white; " id="dummy-13_q4_0_all" class="clusterblast-orf"  />
<polygon locus_tag="SSMG_03380" description="&lt;b&gt;SSMG_03380&lt;/b&gt;&lt;br&gt;metallophosphoesterase&lt;br&gt;Location: 3684916 - 3685855" points="89,40 101,40 106,35 101,30 89,30 89,40 " style="stroke-width:1; stroke:black; fill:white; " id="dummy-13_q5_0_all" class="clusterblast-orf"  />
<polygon locus_tag="SSMG_03381" description="&lt;b&gt;SSMG_03381&lt;/b&gt;&lt;br&gt;predicted protein&lt;br&gt;Location: 3685851 - 3686256" points="105,40 107,40 112,35 107,30 105,30 105,40 " style="stroke-width:1; stroke:black; fill:white; " id="dummy-13_q6_0_all" class="clusterblast-orf"  />
<polygon locus_tag="SSMG_03382" description="&lt;b&gt;SSMG_03382&lt;/b&gt;&lt;br&gt;transcriptional regulator&lt;br&gt;Location: 3686293 - 3686932" points="113,35 118,30 124,30 124,40 118,40 113,35 " style="stroke-width:1; stroke:black; fill:white; " id="dummy-13_q7_0_all" class="clusterblast-orf"  />
<polygon locus_tag="SSMG_03383" description="&lt;b&gt;SSMG_03383&lt;/b&gt;&lt;br&gt;conserved hypothetical protein&lt;br&gt;Location: 3686936 - 3687500" points="124,35 129,30 134,30 134,40 129,40 124,35 " style="stroke-width:1; stroke:black; fill:white; " id="dummy-13_q8_0_all" class="clusterblast-orf"  />
<polygon locus_tag="SSMG_03384" description="&lt;b&gt;SSMG_03384&lt;/b&gt;&lt;br&gt;predicted protein&lt;br&gt;Location: 3687873 - 3688647" points="140,35 145,30 154,30 154,40 145,40 140,35 " style="stroke-width:1; stroke:black; fill:white; " id="dummy-13_q9_0_all" class="clusterblast-orf"  />
<polygon locus_tag="SSMG_03385" description="&lt;b&gt;SSMG_03385&lt;/b&gt;&lt;br&gt;predicted protein&lt;br&gt;Location: 3688668 - 3689325" points="154,35 159,30 165,30 165,40 159,40 154,35 " style="stroke-width:1; stroke:black; fill:white; " id="dummy-13_q10_0_all" class="clusterblast-orf"  />
<polygon locus_tag="SSMG_03386" description="&lt;b&gt;SSMG_03386&lt;/b&gt;&lt;br&gt;predicted protein&lt;br&gt;Location: 3689568 - 3689937" points="170,35 175,30 176,30 176,40 175,40 170,35 " style="stroke-width:1; stroke:black; fill:white; " id="dummy-13_q11_0_all" class="clusterblast-orf"  />
<polygon locus_tag="SSMG_03387" description="&lt;b&gt;SSMG_03387&lt;/b&gt;&lt;br&gt;conserved hypothetical protein&lt;br&gt;Location: 3689917 - 3690343" points="176,35 181,30 183,30 183,40 181,40 176,35 " style="stroke-width:1; stroke:black; fill:white; " id="dummy-13_q12_0_all" class="clusterblast-orf"  />
<polygon locus_tag="SSMG_03388" description="&lt;b&gt;SSMG_03388&lt;/b&gt;&lt;br&gt;short chain dehydrogenase&lt;br&gt;Location: 3690377 - 3691079" points="183,35 188,30 196,30 196,40 188,40 183,35 " style="stroke-width:1; stroke:black; fill:white; " id="dummy-13_q13_0_all" class="clusterblast-orf"  />
<polygon locus_tag="SSMG_03389" description="&lt;b&gt;SSMG_03389&lt;/b&gt;&lt;br&gt;conserved hypothetical protein&lt;br&gt;Location: 3691165 - 3691654" points="197,40 200,40 205,35 200,30 197,30 197,40 " style="stroke-width:1; stroke:black; fill:white; " id="dummy-13_q14_0_all" class="clusterblast-orf"  />
<polygon locus_tag="SSMG_03390" description="&lt;b&gt;SSMG_03390&lt;/b&gt;&lt;br&gt;acetyl-CoA C-acyltransferase FadA&lt;br&gt;Location: 3691709 - 3692876" points="206,35 211,30 227,30 227,40 211,40 206,35 " style="stroke-width:1; stroke:black; fill:white; " id="dummy-13_q15_0_all" class="clusterblast-orf"  />
<polygon locus_tag="SSMG_03391" description="&lt;b&gt;SSMG_03391&lt;/b&gt;&lt;br&gt;transcriptional regulator&lt;br&gt;Location: 3692998 - 3693439" points="229,40 231,40 236,35 231,30 229,30 229,40 " style="stroke-width:1; stroke:black; fill:white; " id="dummy-13_q16_0_all" class="clusterblast-orf"  />
<polygon locus_tag="SSMG_03392" description="&lt;b&gt;SSMG_03392&lt;/b&gt;&lt;br&gt;predicted protein&lt;br&gt;Location: 3693425 - 3693881" points="236,40 239,40 244,35 239,30 236,30 236,40 " style="stroke-width:1; stroke:black; fill:white; " id="dummy-13_q17_0_all" class="clusterblast-orf"  />
<polygon locus_tag="SSMG_03393" description="&lt;b&gt;SSMG_03393&lt;/b&gt;&lt;br&gt;CalU8&lt;br&gt;Location: 3693975 - 3694626" points="246,40 252,40 257,35 252,30 246,30 246,40 " style="stroke-width:1; stroke:black; fill:#d81515; " id="dummy-13_q18_0_all" class="clusterblast-orf"  />
<polygon locus_tag="SSMG_03394" description="&lt;b&gt;SSMG_03394&lt;/b&gt;&lt;br&gt;predicted protein&lt;br&gt;Location: 3695111 - 3696059" points="265,40 276,40 281,35 276,30 265,30 265,40 " style="stroke-width:1; stroke:black; fill:white; " id="dummy-13_q19_0_all" class="clusterblast-orf"  />
<polygon locus_tag="SSMG_03395" description="&lt;b&gt;SSMG_03395&lt;/b&gt;&lt;br&gt;FG-GAP repeat-containing protein&lt;br&gt;Location: 3696112 - 3698014" points="282,40 310,40 315,35 310,30 282,30 282,40 " style="stroke-width:1; stroke:black; fill:#4dd815; " id="dummy-13_q20_0_all" class="clusterblast-orf"  />
<polygon locus_tag="SSMG_03396" description="&lt;b&gt;SSMG_03396&lt;/b&gt;&lt;br&gt;UnbU protein&lt;br&gt;Location: 3698010 - 3699000" points="315,40 327,40 332,35 327,30 315,30 315,40 " style="stroke-width:1; stroke:black; fill:#1585d8; " id="dummy-13_q21_0_all" class="clusterblast-orf"  />
<polygon locus_tag="SSMG_03397" description="&lt;b&gt;SSMG_03397&lt;/b&gt;&lt;br&gt;predicted protein&lt;br&gt;Location: 3700172 - 3704279" points="352,40 418,40 423,35 418,30 352,30 352,40 " style="stroke-width:1; stroke:black; fill:white; " id="dummy-13_q22_0_all" class="clusterblast-orf"  />
<polygon locus_tag="SSMG_03398" description="&lt;b&gt;SSMG_03398&lt;/b&gt;&lt;br&gt;TebC protein&lt;br&gt;Location: 3704275 - 3704689" points="423,40 425,40 430,35 425,30 423,30 423,40 " style="stroke-width:1; stroke:black; fill:#a115d8; " id="dummy-13_q23_0_all" class="clusterblast-orf"  />
<polygon locus_tag="SSMG_03399" description="&lt;b&gt;SSMG_03399&lt;/b&gt;&lt;br&gt;predicted protein&lt;br&gt;Location: 3704698 - 3706147" points="430,40 450,40 455,35 450,30 430,30 430,40 " style="stroke-width:1; stroke:black; fill:white; " id="dummy-13_q24_0_all" class="clusterblast-orf"  />
<polygon locus_tag="SSMG_03400" description="&lt;b&gt;SSMG_03400&lt;/b&gt;&lt;br&gt;methionine synthase vitamin-B12 independent&lt;br&gt;Location: 3706143 - 3707229" points="455,40 469,40 474,35 469,30 455,30 455,40 " style="stroke-width:1; stroke:black; fill:#d86915; " id="dummy-13_q25_0_all" class="clusterblast-orf"  />
<polygon locus_tag="SSMG_03401" description="&lt;b&gt;SSMG_03401&lt;/b&gt;&lt;br&gt;CalU12&lt;br&gt;Location: 3707219 - 3707882" points="474,35 479,30 485,30 485,40 479,40 474,35 " style="stroke-width:1; stroke:black; fill:#15d831; " id="dummy-13_q26_0_all" class="clusterblast-orf"  />
<polygon locus_tag="SSMG_03402" description="&lt;b&gt;SSMG_03402&lt;/b&gt;&lt;br&gt;ATP-dependent chaperone ClpB&lt;br&gt;Location: 3708067 - 3710563" points="488,40 526,40 531,35 526,30 488,30 488,40 " style="stroke-width:1; stroke:black; fill:#1531d8; " id="dummy-13_q27_0_all" class="clusterblast-orf"  />
<polygon locus_tag="SSMG_03403" description="&lt;b&gt;SSMG_03403&lt;/b&gt;&lt;br&gt;CalU10&lt;br&gt;Location: 3710746 - 3711949" points="535,40 550,40 555,35 550,30 535,30 535,40 " style="stroke-width:1; stroke:black; fill:#d815bc; " id="dummy-13_q28_0_all" class="clusterblast-orf"  />
<polygon locus_tag="SSMG_03404" description="&lt;b&gt;SSMG_03404&lt;/b&gt;&lt;br&gt;CalE3&lt;br&gt;Location: 3712083 - 3712944" points="558,40 567,40 572,35 567,30 558,30 558,40 " style="stroke-width:1; stroke:black; fill:#d8bc15; " id="dummy-13_q29_0_all" class="clusterblast-orf"  />
<polygon locus_tag="SSMG_03405" description="&lt;b&gt;SSMG_03405&lt;/b&gt;&lt;br&gt;predicted protein&lt;br&gt;Location: 3712943 - 3713582" points="572,40 578,40 583,35 578,30 572,30 572,40 " style="stroke-width:1; stroke:black; fill:white; " id="dummy-13_q30_0_all" class="clusterblast-orf"  />
<polygon locus_tag="SSMG_03406" description="&lt;b&gt;SSMG_03406&lt;/b&gt;&lt;br&gt;CalR9&lt;br&gt;Location: 3713574 - 3714834" points="583,40 600,40 605,35 600,30 583,30 583,40 " style="stroke-width:1; stroke:black; fill:#15d885; " id="dummy-13_q31_0_all" class="clusterblast-orf"  />
<polygon locus_tag="SSMG_03407" description="&lt;b&gt;SSMG_03407&lt;/b&gt;&lt;br&gt;transcriptional regulator&lt;br&gt;Location: 3715094 - 3715925" points="610,40 619,40 624,35 619,30 610,30 610,40 " style="stroke-width:1; stroke:black; fill:white; " id="dummy-13_q32_0_all" class="clusterblast-orf"  />
<polygon locus_tag="SSMG_03408" description="&lt;b&gt;SSMG_03408&lt;/b&gt;&lt;br&gt;predicted protein&lt;br&gt;Location: 3715940 - 3716801" points="624,35 629,30 639,30 639,40 629,40 624,35 " style="stroke-width:1; stroke:black; fill:#4d15d8; " id="dummy-13_q33_0_all" class="clusterblast-orf"  />
<polygon locus_tag="SSMG_03409" description="&lt;b&gt;SSMG_03409&lt;/b&gt;&lt;br&gt;predicted protein&lt;br&gt;Location: 3717072 - 3717516" points="644,40 646,40 651,35 646,30 644,30 644,40 " style="stroke-width:1; stroke:black; fill:white; " id="dummy-13_q34_0_all" class="clusterblast-orf"  />
<polygon locus_tag="SSMG_03410" description="&lt;b&gt;SSMG_03410&lt;/b&gt;&lt;br&gt;predicted protein&lt;br&gt;Location: 3717512 - 3718970" points="651,40 671,40 676,35 671,30 651,30 651,40 " style="stroke-width:1; stroke:black; fill:white; " id="dummy-13_q35_0_all" class="clusterblast-orf"  />
<polygon locus_tag="SSMG_03411" description="&lt;b&gt;SSMG_03411&lt;/b&gt;&lt;br&gt;predicted protein&lt;br&gt;Location: 3718979 - 3720668" points="676,35 681,30 706,30 706,40 681,40 676,35 " style="stroke-width:1; stroke:black; fill:#d81569; " id="dummy-13_q36_0_all" class="clusterblast-orf"  />
<polygon locus_tag="SSMG_03412" description="&lt;b&gt;SSMG_03412&lt;/b&gt;&lt;br&gt;CalE9&lt;br&gt;Location: 3720664 - 3721978" points="706,35 711,30 728,30 728,40 711,40 706,35 " style="stroke-width:1; stroke:black; fill:#a1d815; " id="dummy-13_q37_0_all" class="clusterblast-orf"  />
<polygon locus_tag="SSMG_03413" description="&lt;b&gt;SSMG_03413&lt;/b&gt;&lt;br&gt;CalT6&lt;br&gt;Location: 3722072 - 3723779" points="730,40 754,40 759,35 754,30 730,30 730,40 " style="stroke-width:1; stroke:black; fill:#15d8d8; " id="dummy-13_q38_0_all" class="clusterblast-orf"  />
</g>
<g label="BGC0001378" description="BGC0001378_c1: tiancimycin (11% of genes show similarity), Polyketide" class="clusterblast-cluster"  >
<text class="clusterblast-acc" y="70" x="5"  >
<a xlink:href="https://mibig.secondarymetabolites.org/go/BGC0001378/1" target="_blank">BGC0001378</a>:                                                                      tiancimycin (11% of genes show similarity), Polyketide</text>
<line x1="10" x2="778.0" y2="85" style="stroke-width:1; stroke:grey; " y1="85"  />
</g>
<g id="a13_000"  >
<polygon locus_tag="AME18026.1" description="&lt;b&gt;AME18026.1&lt;/b&gt;&lt;br&gt;hypothetical protein&lt;br&gt;Location: 48711 - 47998" points="0,90 7,90 12,85 7,80 0,80 0,90 " style="stroke-width:1; stroke:black; fill:white; " id="dummy-13_h13_2_0" class="clusterblast-orf"  />
</g>
<g id="a13_001"  >
<polygon locus_tag="AME18025.1" description="&lt;b&gt;AME18025.1&lt;/b&gt;&lt;br&gt;glyoxalase/bleomycin resisance protein/dioxygenase&lt;br&gt;Location: 47986 - 47612" points="12,90 13,90 18,85 13,80 12,80 12,90 " style="stroke-width:1; stroke:black; fill:white; " id="dummy-13_h13_2_1" class="clusterblast-orf"  />
</g>
<g id="a13_002"  >
<polygon locus_tag="AME18024.1" description="&lt;b&gt;AME18024.1&lt;/b&gt;&lt;br&gt;MFS transporter&lt;br&gt;Location: 47492 - 45786" points="21,90 45,90 50,85 45,80 21,80 21,90 " style="stroke-width:1; stroke:black; fill:white; " id="dummy-13_h13_2_2" class="clusterblast-orf"  />
</g>
<g id="a13_003"  >
<polygon locus_tag="AME18023.1" description="&lt;b&gt;AME18023.1&lt;/b&gt;&lt;br&gt;AraC family transcriptional regulator&lt;br&gt;Location: 45697 - 45113" points="51,90 57,90 62,85 57,80 51,80 51,90 " style="stroke-width:1; stroke:black; fill:white; " id="dummy-13_h13_2_3" class="clusterblast-orf"  />
</g>
<g id="a13_004"  >
<polygon locus_tag="AME18022.1" description="&lt;b&gt;AME18022.1&lt;/b&gt;&lt;br&gt;glyoxalase/bleomycin resisance protein/dioxygenase&lt;br&gt;Location: 45116 - 44709" points="61,90 63,90 68,85 63,80 61,80 61,90 " style="stroke-width:1; stroke:black; fill:white; " id="dummy-13_h13_2_4" class="clusterblast-orf"  />
</g>
<g id="a13_005"  >
<polygon locus_tag="AME18021.1" description="&lt;b&gt;AME18021.1&lt;/b&gt;&lt;br&gt;transporter&lt;br&gt;Location: 44681 - 43014" points="69,90 93,90 98,85 93,80 69,80 69,90 " style="stroke-width:1; stroke:black; fill:white; " id="dummy-13_h13_2_5" class="clusterblast-orf"  />
</g>
<g id="a13_006"  >
<polygon locus_tag="AME18020.1" description="&lt;b&gt;AME18020.1&lt;/b&gt;&lt;br&gt;glyoxalase/bleomycin resisance protein/dioxygenase&lt;br&gt;Location: 42900 - 42520" points="100,90 101,90 106,85 101,80 100,80 100,90 " style="stroke-width:1; stroke:black; fill:white; " id="dummy-13_h13_2_6" class="clusterblast-orf"  />
</g>
<g id="a13_007"  >
<polygon locus_tag="AME18019.1" description="&lt;b&gt;AME18019.1&lt;/b&gt;&lt;br&gt;hypothetical protein&lt;br&gt;Location: 42512 - 41943" points="106,90 111,90 116,85 111,80 106,80 106,90 " style="stroke-width:1; stroke:black; fill:white; " id="dummy-13_h13_2_7" class="clusterblast-orf"  />
</g>
<g id="a13_008"  >
<polygon locus_tag="AME18018.1" description="&lt;b&gt;AME18018.1&lt;/b&gt;&lt;br&gt;putative tegulator&lt;br&gt;Location: 41890 - 40610" points="117,85 122,80 139,80 139,90 122,90 117,85 " style="stroke-width:1; stroke:black; fill:white; " id="dummy-13_h13_2_8" class="clusterblast-orf"  />
</g>
<g id="a13_009"  >
<polygon locus_tag="AME18017.1" description="&lt;b&gt;AME18017.1&lt;/b&gt;&lt;br&gt;epoxidase&lt;br&gt;Location: 40536 - 39373" points="140,85 145,80 160,80 160,90 145,90 140,85 " style="stroke-width:1; stroke:black; fill:white; " id="dummy-13_h13_2_9" class="clusterblast-orf"  />
</g>
<g id="a13_0010"  >
<polygon locus_tag="AME18016.1" description="&lt;b&gt;AME18016.1&lt;/b&gt;&lt;br&gt;hypothetical protein&lt;br&gt;Location: 39376 - 38888" points="160,85 165,80 169,80 169,90 165,90 160,85 " style="stroke-width:1; stroke:black; fill:white; " id="dummy-13_h13_2_10" class="clusterblast-orf"  />
</g>
<g id="a13_0011"  >
<polygon locus_tag="AME18015.1" description="&lt;b&gt;AME18015.1&lt;/b&gt;&lt;br&gt;ester cyclase&lt;br&gt;Location: 38840 - 38400" points="170,85 175,80 177,80 177,90 175,90 170,85 " style="stroke-width:1; stroke:black; fill:white; " id="dummy-13_h13_2_11" class="clusterblast-orf"  />
</g>
<g id="a13_0012"  >
<polygon locus_tag="AME18014.1" description="&lt;b&gt;AME18014.1&lt;/b&gt;&lt;br&gt;rieske (2Fe-2S) iron-sulfur domain protein&lt;br&gt;Location: 38206 - 37187" points="181,90 193,90 198,85 193,80 181,80 181,90 " style="stroke-width:1; stroke:black; fill:white; " id="dummy-13_h13_2_12" class="clusterblast-orf"  />
</g>
<g id="a13_0013"  >
<polygon locus_tag="AME18013.1" description="&lt;b&gt;AME18013.1&lt;/b&gt;&lt;br&gt;rieske (2Fe-2S) iron-sulfur domain protein&lt;br&gt;Location: 37110 - 36097" points="199,90 212,90 217,85 212,80 199,80 199,90 " style="stroke-width:1; stroke:black; fill:white; " id="dummy-13_h13_2_13" class="clusterblast-orf"  />
</g>
<g id="a13_0014"  >
<polygon locus_tag="AME18012.1" description="&lt;b&gt;AME18012.1&lt;/b&gt;&lt;br&gt;cytochrome P450 monooxygenase&lt;br&gt;Location: 36026 - 34764" points="218,85 223,80 240,80 240,90 223,90 218,85 " style="stroke-width:1; stroke:black; fill:white; " id="dummy-13_h13_2_14" class="clusterblast-orf"  />
</g>
<g id="a13_0015"  >
<polygon locus_tag="AME18011.1" description="&lt;b&gt;AME18011.1&lt;/b&gt;&lt;br&gt;secreted hydrolase&lt;br&gt;Location: 34747 - 33278" points="240,85 245,80 266,80 266,90 245,90 240,85 " style="stroke-width:1; stroke:black; fill:white; " id="dummy-13_h13_2_15" class="clusterblast-orf"  />
</g>
<g id="a13_0016"  >
<polygon locus_tag="AME18010.1" description="&lt;b&gt;AME18010.1&lt;/b&gt;&lt;br&gt;secreted hydrolase&lt;br&gt;Location: 33281 - 31827" points="265,85 270,80 291,80 291,90 270,90 265,85 " style="stroke-width:1; stroke:black; fill:white; " id="dummy-13_h13_2_16" class="clusterblast-orf"  />
</g>
<g id="a13_0017"  >
<polygon locus_tag="AME18009.1" description="&lt;b&gt;AME18009.1&lt;/b&gt;&lt;br&gt;putative methyltransferase&lt;br&gt;Location: 31796 - 30684" points="291,85 296,80 310,80 310,90 296,90 291,85 " style="stroke-width:1; stroke:black; fill:white; " id="dummy-13_h13_2_17" class="clusterblast-orf"  />
</g>
<g id="a13_0018"  >
<polygon locus_tag="AME18008.1" description="&lt;b&gt;AME18008.1&lt;/b&gt;&lt;br&gt;HxlR family transcriptional regulator&lt;br&gt;Location: 30518 - 29775&lt;br&gt;&lt;br&gt;&lt;b&gt;BlastP hit with SSMG_03393&lt;/b&gt;&lt;br&gt;Percentage identity: 65&lt;br&gt;Percentage coverage: 100&lt;br&gt;BLAST bit score: 288&lt;br&gt;E-value: 8e-78" points="313,90 321,90 326,85 321,80 313,80 313,90 " style="stroke-width:1; stroke:black; fill:#d81515; " id="dummy-13_h13_2_18" class="clusterblast-orf"  />
</g>
<g id="a13_0019"  >
<polygon locus_tag="AME18007.1" description="&lt;b&gt;AME18007.1&lt;/b&gt;&lt;br&gt;oxidoreductase&lt;br&gt;Location: 29682 - 28843" points="327,90 337,90 342,85 337,80 327,80 327,90 " style="stroke-width:1; stroke:black; fill:white; " id="dummy-13_h13_2_19" class="clusterblast-orf"  />
</g>
<g id="a13_0020"  >
<polygon locus_tag="AME18006.1" description="&lt;b&gt;AME18006.1&lt;/b&gt;&lt;br&gt;hypothetical protein&lt;br&gt;Location: 28585 - 27617" points="346,90 358,90 363,85 358,80 346,80 346,90 " style="stroke-width:1; stroke:black; fill:white; " id="dummy-13_h13_2_20" class="clusterblast-orf"  />
</g>
<g id="a13_0021"  >
<polygon locus_tag="AME18005.1" description="&lt;b&gt;AME18005.1&lt;/b&gt;&lt;br&gt;hypothetical protein&lt;br&gt;Location: 27391 - 25433&lt;br&gt;&lt;br&gt;&lt;b&gt;BlastP hit with SSMG_03395&lt;/b&gt;&lt;br&gt;Percentage identity: 51&lt;br&gt;Percentage coverage: 101&lt;br&gt;BLAST bit score: 597&lt;br&gt;E-value: 2.4e-170" points="367,90 396,90 401,85 396,80 367,80 367,90 " style="stroke-width:1; stroke:black; fill:#4dd815; " id="dummy-13_h13_2_21" class="clusterblast-orf"  />
</g>
<g id="a13_0022"  >
<polygon locus_tag="AME18004.1" description="&lt;b&gt;AME18004.1&lt;/b&gt;&lt;br&gt;hypothetical protein&lt;br&gt;Location: 25423 - 24413&lt;br&gt;&lt;br&gt;&lt;b&gt;BlastP hit with SSMG_03396&lt;/b&gt;&lt;br&gt;Percentage identity: 55&lt;br&gt;Percentage coverage: 88&lt;br&gt;BLAST bit score: 291&lt;br&gt;E-value: 1.9e-78" points="401,90 413,90 418,85 413,80 401,80 401,90 " style="stroke-width:1; stroke:black; fill:#1585d8; " id="dummy-13_h13_2_22" class="clusterblast-orf"  />
</g>
<g id="a13_0023"  >
<polygon locus_tag="AME18003.1" description="&lt;b&gt;AME18003.1&lt;/b&gt;&lt;br&gt;enediyne polyketie synthase&lt;br&gt;Location: 24416 - 18087" points="418,90 522,90 527,85 522,80 418,80 418,90 " style="stroke-width:1; stroke:black; fill:white; " id="dummy-13_h13_2_23" class="clusterblast-orf"  />
</g>
<g id="a13_0024"  >
<polygon locus_tag="AME18002.1" description="&lt;b&gt;AME18002.1&lt;/b&gt;&lt;br&gt;type II thioesterase&lt;br&gt;Location: 18090 - 17647&lt;br&gt;&lt;br&gt;&lt;b&gt;BlastP hit with SSMG_03398&lt;/b&gt;&lt;br&gt;Percentage identity: 55&lt;br&gt;Percentage coverage: 100&lt;br&gt;BLAST bit score: 149&lt;br&gt;E-value: 4.8e-36" points="527,90 530,90 535,85 530,80 527,80 527,90 " style="stroke-width:1; stroke:black; fill:#a115d8; " id="dummy-13_h13_2_24" class="clusterblast-orf"  />
</g>
<g id="a13_0025"  >
<polygon locus_tag="AME18001.1" description="&lt;b&gt;AME18001.1&lt;/b&gt;&lt;br&gt;O-methyltransferase&lt;br&gt;Location: 17573 - 16539" points="536,85 541,80 554,80 554,90 541,90 536,85 " style="stroke-width:1; stroke:black; fill:white; " id="dummy-13_h13_2_25" class="clusterblast-orf"  />
</g>
<g id="a13_0026"  >
<polygon locus_tag="AME18000.1" description="&lt;b&gt;AME18000.1&lt;/b&gt;&lt;br&gt;hypothetical protein&lt;br&gt;Location: 16523 - 14310" points="554,85 559,80 592,80 592,90 559,90 554,85 " style="stroke-width:1; stroke:black; fill:white; " id="dummy-13_h13_2_26" class="clusterblast-orf"  />
</g>
<g id="a13_0027"  >
<polygon locus_tag="AME17999.1" description="&lt;b&gt;AME17999.1&lt;/b&gt;&lt;br&gt;hypothetical protein&lt;br&gt;Location: 14156 - 13506" points="595,85 600,80 606,80 606,90 600,90 595,85 " style="stroke-width:1; stroke:black; fill:white; " id="dummy-13_h13_2_27" class="clusterblast-orf"  />
</g>
<g id="a13_0028"  >
<polygon locus_tag="AME17998.1" description="&lt;b&gt;AME17998.1&lt;/b&gt;&lt;br&gt;PBS lyase HEAT-like repeat protein&lt;br&gt;Location: 13478 - 12156" points="607,85 612,80 630,80 630,90 612,90 607,85 " style="stroke-width:1; stroke:black; fill:white; " id="dummy-13_h13_2_28" class="clusterblast-orf"  />
</g>
<g id="a13_0029"  >
<polygon locus_tag="AME17997.1" description="&lt;b&gt;AME17997.1&lt;/b&gt;&lt;br&gt;ketone reductase&lt;br&gt;Location: 12067 - 10694" points="631,85 636,80 655,80 655,90 636,90 631,85 " style="stroke-width:1; stroke:black; fill:white; " id="dummy-13_h13_2_29" class="clusterblast-orf"  />
</g>
<g id="a13_0030"  >
<polygon locus_tag="AME17996.1" description="&lt;b&gt;AME17996.1&lt;/b&gt;&lt;br&gt;hypothetical protein&lt;br&gt;Location: 10697 - 9411" points="655,85 660,80 677,80 677,90 660,90 655,85 " style="stroke-width:1; stroke:black; fill:white; " id="dummy-13_h13_2_30" class="clusterblast-orf"  />
</g>
<g id="a13_0031"  >
<polygon locus_tag="AME17995.1" description="&lt;b&gt;AME17995.1&lt;/b&gt;&lt;br&gt;enediyne self-sacrifice resistance protein&lt;br&gt;Location: 9204 - 8293" points="680,90 691,90 696,85 691,80 680,80 680,90 " style="stroke-width:1; stroke:black; fill:white; " id="dummy-13_h13_2_31" class="clusterblast-orf"  />
</g>
<g id="a13_0032"  >
<polygon locus_tag="AME17994.1" description="&lt;b&gt;AME17994.1&lt;/b&gt;&lt;br&gt;AraC family transcriptional regulator&lt;br&gt;Location: 8087 - 7173" points="700,90 710,90 715,85 710,80 700,80 700,90 " style="stroke-width:1; stroke:black; fill:white; " id="dummy-13_h13_2_32" class="clusterblast-orf"  />
</g>
<g id="a13_0033"  >
<polygon locus_tag="AME17993.1" description="&lt;b&gt;AME17993.1&lt;/b&gt;&lt;br&gt;flavin reductase&lt;br&gt;Location: 7137 - 6637" points="716,90 720,90 725,85 720,80 716,80 716,90 " style="stroke-width:1; stroke:black; fill:white; " id="dummy-13_h13_2_33" class="clusterblast-orf"  />
</g>
<g id="a13_0034"  >
<polygon locus_tag="AME17992.1" description="&lt;b&gt;AME17992.1&lt;/b&gt;&lt;br&gt;ATP-dependent DNA helicase RecQ&lt;br&gt;Location: 5783 - 4086" points="739,85 744,80 769,80 769,90 744,90 739,85 " style="stroke-width:1; stroke:black; fill:white; " id="dummy-13_h13_2_34" class="clusterblast-orf"  />
</g>
<g id="a13_0035"  >
<polygon locus_tag="AME17991.1" description="&lt;b&gt;AME17991.1&lt;/b&gt;&lt;br&gt;hypothetical protein&lt;br&gt;Location: 3887 - 3459" points="772,90 775,90 780,85 775,80 772,80 772,90 " style="stroke-width:1; stroke:black; fill:white; " id="dummy-13_h13_2_35" class="clusterblast-orf"  />
</g>
</svg>
