<svg version="1.1" xmlns="http://www.w3.org/2000/svg" height="230" width="800" xmlns:xlink="http://www.w3.org/1999/xlink" preserveAspectRatio="none" x="0" y="0" viewBox="0 0 800 230"  >
<g label="Query sequence" class="clusterblast-cluster"  >
<text class="clusterblast-acc" y="20" x="5"  >
Query sequence</text>
<line x1="10" x2="778.0" y2="35" style="stroke-width:1; stroke:grey; " y1="35"  />
<polygon locus_tag="SSMG_03800" description="&lt;b&gt;SSMG_03800&lt;/b&gt;&lt;br&gt;predicted protein&lt;br&gt;Location: 4135625 - 4136882" points="97,35 102,30 110,30 110,40 102,40 97,35 " style="stroke-width:1; stroke:black; fill:white; " id="dummy-15_q0_0_all" class="clusterblast-orf"  />
<polygon locus_tag="SSMG_03801" description="&lt;b&gt;SSMG_03801&lt;/b&gt;&lt;br&gt;predicted protein&lt;br&gt;Location: 4138121 - 4138613" points="123,35 128,30 128,30 128,40 128,40 123,35 " style="stroke-width:1; stroke:black; fill:white; " id="dummy-15_q1_0_all" class="clusterblast-orf"  />
<polygon locus_tag="SSMG_03802" description="&lt;b&gt;SSMG_03802&lt;/b&gt;&lt;br&gt;transposase&lt;br&gt;Location: 4138531 - 4139158" points="127,40 129,40 134,35 129,30 127,30 127,40 " style="stroke-width:1; stroke:black; fill:white; " id="dummy-15_q2_0_all" class="clusterblast-orf"  />
<polygon locus_tag="SSMG_03803" description="&lt;b&gt;SSMG_03803&lt;/b&gt;&lt;br&gt;predicted protein&lt;br&gt;Location: 4139336 - 4139750" points="136,40 140,35 136,30 136,40 " style="stroke-width:1; stroke:black; fill:white; " id="dummy-15_q3_0_all" class="clusterblast-orf"  />
<polygon locus_tag="SSMG_03804" description="&lt;b&gt;SSMG_03804&lt;/b&gt;&lt;br&gt;RNA polymerase sigma factor RpoE&lt;br&gt;Location: 4139929 - 4140688" points="142,40 145,40 150,35 145,30 142,30 142,40 " style="stroke-width:1; stroke:black; fill:#d81515; " id="dummy-15_q4_0_all" class="clusterblast-orf"  />
<polygon locus_tag="SSMG_03805" description="&lt;b&gt;SSMG_03805&lt;/b&gt;&lt;br&gt;predicted protein&lt;br&gt;Location: 4140871 - 4141780" points="152,35 157,30 162,30 162,40 157,40 152,35 " style="stroke-width:1; stroke:black; fill:white; " id="dummy-15_q5_0_all" class="clusterblast-orf"  />
<polygon locus_tag="SSMG_03806" description="&lt;b&gt;SSMG_03806&lt;/b&gt;&lt;br&gt;predicted protein&lt;br&gt;Location: 4141905 - 4144077" points="163,40 181,40 186,35 181,30 163,30 163,40 " style="stroke-width:1; stroke:black; fill:white; " id="dummy-15_q6_0_all" class="clusterblast-orf"  />
<polygon locus_tag="SSMG_03807" description="&lt;b&gt;SSMG_03807&lt;/b&gt;&lt;br&gt;periplasmic solute binding protein&lt;br&gt;Location: 4144082 - 4144871" points="186,35 191,30 194,30 194,40 191,40 186,35 " style="stroke-width:1; stroke:black; fill:white; " id="dummy-15_q7_0_all" class="clusterblast-orf"  />
<polygon locus_tag="SSMG_03808" description="&lt;b&gt;SSMG_03808&lt;/b&gt;&lt;br&gt;predicted protein&lt;br&gt;Location: 4144840 - 4145686" points="194,35 199,30 203,30 203,40 199,40 194,35 " style="stroke-width:1; stroke:black; fill:white; " id="dummy-15_q8_0_all" class="clusterblast-orf"  />
<polygon locus_tag="SSMG_03809" description="&lt;b&gt;SSMG_03809&lt;/b&gt;&lt;br&gt;ABC transporter&lt;br&gt;Location: 4145682 - 4146336" points="203,35 208,30 210,30 210,40 208,40 203,35 " style="stroke-width:1; stroke:black; fill:white; " id="dummy-15_q9_0_all" class="clusterblast-orf"  />
<polygon locus_tag="SSMG_03810" description="&lt;b&gt;SSMG_03810&lt;/b&gt;&lt;br&gt;predicted protein&lt;br&gt;Location: 4146416 - 4147538" points="211,35 216,30 223,30 223,40 216,40 211,35 " style="stroke-width:1; stroke:black; fill:white; " id="dummy-15_q10_0_all" class="clusterblast-orf"  />
<polygon locus_tag="SSMG_03811" description="&lt;b&gt;SSMG_03811&lt;/b&gt;&lt;br&gt;predicted protein&lt;br&gt;Location: 4147626 - 4149222" points="224,40 235,40 240,35 235,30 224,30 224,40 " style="stroke-width:1; stroke:black; fill:white; " id="dummy-15_q11_0_all" class="clusterblast-orf"  />
<polygon locus_tag="SSMG_03812" description="&lt;b&gt;SSMG_03812&lt;/b&gt;&lt;br&gt;cyclohexanecarboxylate-CoA ligase&lt;br&gt;Location: 4149218 - 4150868" points="240,40 253,40 258,35 253,30 240,30 240,40 " style="stroke-width:1; stroke:black; fill:#15d815; " id="dummy-15_q12_0_all" class="clusterblast-orf"  />
<polygon locus_tag="SSMG_03813" description="&lt;b&gt;SSMG_03813&lt;/b&gt;&lt;br&gt;high-affinity nickel-transporter&lt;br&gt;Location: 4150933 - 4152067" points="258,35 263,30 270,30 270,40 263,40 258,35 " style="stroke-width:1; stroke:black; fill:white; " id="dummy-15_q13_0_all" class="clusterblast-orf"  />
<polygon locus_tag="SSMG_03814" description="&lt;b&gt;SSMG_03814&lt;/b&gt;&lt;br&gt;predicted protein&lt;br&gt;Location: 4153135 - 4153549" points="282,35 286,30 286,40 282,35 " style="stroke-width:1; stroke:black; fill:white; " id="dummy-15_q14_0_all" class="clusterblast-orf"  />
<polygon locus_tag="SSMG_03815" description="&lt;b&gt;SSMG_03815&lt;/b&gt;&lt;br&gt;5,10-methylenetetrahydromethanopterin reductase&lt;br&gt;Location: 4153709 - 4154882" points="288,40 295,40 300,35 295,30 288,30 288,40 " style="stroke-width:1; stroke:black; fill:white; " id="dummy-15_q15_0_all" class="clusterblast-orf"  />
<polygon locus_tag="SSMG_03816" description="&lt;b&gt;SSMG_03816&lt;/b&gt;&lt;br&gt;predicted protein&lt;br&gt;Location: 4154971 - 4167916" points="301,40 433,40 438,35 433,30 301,30 301,40 " style="stroke-width:1; stroke:black; fill:#1515d8; " id="dummy-15_q16_0_all" class="clusterblast-orf"  />
<polygon locus_tag="SSMG_03817" description="&lt;b&gt;SSMG_03817&lt;/b&gt;&lt;br&gt;predicted protein&lt;br&gt;Location: 4167902 - 4171460" points="438,40 470,40 475,35 470,30 438,30 438,40 " style="stroke-width:1; stroke:black; fill:#1515d8; " id="dummy-15_q17_0_all" class="clusterblast-orf"  />
<polygon locus_tag="SSMG_03818" description="&lt;b&gt;SSMG_03818&lt;/b&gt;&lt;br&gt;conserved hypothetical protein&lt;br&gt;Location: 4173548 - 4174076" points="497,40 498,40 503,35 498,30 497,30 497,40 " style="stroke-width:1; stroke:black; fill:white; " id="dummy-15_q18_0_all" class="clusterblast-orf"  />
<polygon locus_tag="SSMG_03819" description="&lt;b&gt;SSMG_03819&lt;/b&gt;&lt;br&gt;lipolytic enzyme&lt;br&gt;Location: 4174081 - 4174861" points="503,35 508,30 511,30 511,40 508,40 503,35 " style="stroke-width:1; stroke:black; fill:white; " id="dummy-15_q19_0_all" class="clusterblast-orf"  />
<polygon locus_tag="SSMG_03820" description="&lt;b&gt;SSMG_03820&lt;/b&gt;&lt;br&gt;predicted protein&lt;br&gt;Location: 4174949 - 4175519" points="512,35 517,30 518,30 518,40 517,40 512,35 " style="stroke-width:1; stroke:black; fill:white; " id="dummy-15_q20_0_all" class="clusterblast-orf"  />
<polygon locus_tag="SSMG_03821" description="&lt;b&gt;SSMG_03821&lt;/b&gt;&lt;br&gt;major facilitator transporter&lt;br&gt;Location: 4175685 - 4177029" points="520,40 529,40 534,35 529,30 520,30 520,40 " style="stroke-width:1; stroke:black; fill:white; " id="dummy-15_q21_0_all" class="clusterblast-orf"  />
<polygon locus_tag="SSMG_03822" description="&lt;b&gt;SSMG_03822&lt;/b&gt;&lt;br&gt;SPFH domain/band 7 family protein&lt;br&gt;Location: 4177090 - 4178488" points="535,35 540,30 549,30 549,40 540,40 535,35 " style="stroke-width:1; stroke:black; fill:white; " id="dummy-15_q22_0_all" class="clusterblast-orf"  />
<polygon locus_tag="SSMG_03823" description="&lt;b&gt;SSMG_03823&lt;/b&gt;&lt;br&gt;predicted protein&lt;br&gt;Location: 4178553 - 4178988" points="550,35 555,30 555,30 555,40 555,40 550,35 " style="stroke-width:1; stroke:black; fill:white; " id="dummy-15_q23_0_all" class="clusterblast-orf"  />
<polygon locus_tag="SSMG_03824" description="&lt;b&gt;SSMG_03824&lt;/b&gt;&lt;br&gt;conserved hypothetical protein&lt;br&gt;Location: 4179080 - 4179887" points="556,35 561,30 564,30 564,40 561,40 556,35 " style="stroke-width:1; stroke:black; fill:white; " id="dummy-15_q24_0_all" class="clusterblast-orf"  />
<polygon locus_tag="SSMG_03825" description="&lt;b&gt;SSMG_03825&lt;/b&gt;&lt;br&gt;aldo/keto reductase&lt;br&gt;Location: 4180049 - 4181042" points="566,40 571,40 576,35 571,30 566,30 566,40 " style="stroke-width:1; stroke:black; fill:#d815d8; " id="dummy-15_q25_0_all" class="clusterblast-orf"  />
<polygon locus_tag="SSMG_03826" description="&lt;b&gt;SSMG_03826&lt;/b&gt;&lt;br&gt;predicted protein&lt;br&gt;Location: 4181073 - 4181988" points="577,35 582,30 586,30 586,40 582,40 577,35 " style="stroke-width:1; stroke:black; fill:white; " id="dummy-15_q26_0_all" class="clusterblast-orf"  />
<polygon locus_tag="SSMG_03827" description="&lt;b&gt;SSMG_03827&lt;/b&gt;&lt;br&gt;phosphatidylinositol 3-and 4-kinase&lt;br&gt;Location: 4181972 - 4182782" points="586,35 591,30 595,30 595,40 591,40 586,35 " style="stroke-width:1; stroke:black; fill:white; " id="dummy-15_q27_0_all" class="clusterblast-orf"  />
<polygon locus_tag="SSMG_03828" description="&lt;b&gt;SSMG_03828&lt;/b&gt;&lt;br&gt;conserved hypothetical protein&lt;br&gt;Location: 4182790 - 4183366" points="595,35 600,30 601,30 601,40 600,40 595,35 " style="stroke-width:1; stroke:black; fill:white; " id="dummy-15_q28_0_all" class="clusterblast-orf"  />
<polygon locus_tag="SSMG_03829" description="&lt;b&gt;SSMG_03829&lt;/b&gt;&lt;br&gt;acyl-peptide hydrolase&lt;br&gt;Location: 4183496 - 4185428" points="602,40 618,40 623,35 618,30 602,30 602,40 " style="stroke-width:1; stroke:black; fill:#d8d815; " id="dummy-15_q29_0_all" class="clusterblast-orf"  />
<polygon locus_tag="SSMG_03830" description="&lt;b&gt;SSMG_03830&lt;/b&gt;&lt;br&gt;conserved hypothetical protein&lt;br&gt;Location: 4185424 - 4186324" points="623,40 627,40 632,35 627,30 623,30 623,40 " style="stroke-width:1; stroke:black; fill:#15d8d8; " id="dummy-15_q30_0_all" class="clusterblast-orf"  />
<polygon locus_tag="SSMG_03831" description="&lt;b&gt;SSMG_03831&lt;/b&gt;&lt;br&gt;pyridoxamine 5'-phosphate oxidase&lt;br&gt;Location: 4186330 - 4186744" points="632,40 632,40 637,35 632,30 632,30 632,40 " style="stroke-width:1; stroke:black; fill:white; " id="dummy-15_q31_0_all" class="clusterblast-orf"  />
<polygon locus_tag="SSMG_03832" description="&lt;b&gt;SSMG_03832&lt;/b&gt;&lt;br&gt;hypothetical protein&lt;br&gt;Location: 4186778 - 4187462" points="637,40 639,40 644,35 639,30 637,30 637,40 " style="stroke-width:1; stroke:black; fill:white; " id="dummy-15_q32_0_all" class="clusterblast-orf"  />
<polygon locus_tag="SSMG_03833" description="&lt;b&gt;SSMG_03833&lt;/b&gt;&lt;br&gt;predicted protein&lt;br&gt;Location: 4187472 - 4188066" points="644,40 646,40 651,35 646,30 644,30 644,40 " style="stroke-width:1; stroke:black; fill:white; " id="dummy-15_q33_0_all" class="clusterblast-orf"  />
<polygon locus_tag="SSMG_03834" description="&lt;b&gt;SSMG_03834&lt;/b&gt;&lt;br&gt;predicted protein&lt;br&gt;Location: 4188384 - 4189485" points="654,40 661,40 666,35 661,30 654,30 654,40 " style="stroke-width:1; stroke:black; fill:white; " id="dummy-15_q34_0_all" class="clusterblast-orf"  />
<polygon locus_tag="SSMG_03835" description="&lt;b&gt;SSMG_03835&lt;/b&gt;&lt;br&gt;predicted protein&lt;br&gt;Location: 4189531 - 4191085" points="666,35 671,30 682,30 682,40 671,40 666,35 " style="stroke-width:1; stroke:black; fill:white; " id="dummy-15_q35_0_all" class="clusterblast-orf"  />
</g>
<g label="BGC0001694" description="BGC0001694_c1: meoabyssomicin / abyssomicin (12% of genes show similarity), Polyketide" class="clusterblast-cluster"  >
<text class="clusterblast-acc" y="70" x="5"  >
<a xlink:href="https://mibig.secondarymetabolites.org/go/BGC0001694/1" target="_blank">BGC0001694</a>:                                                     meoabyssomicin / abyssomicin (12% of genes show similarity), Polyketide</text>
<line x1="10" x2="778.0" y2="85" style="stroke-width:1; stroke:grey; " y1="85"  />
</g>
<g id="a15_000"  >
<polygon locus_tag="AVI57408.1" description="&lt;b&gt;AVI57408.1&lt;/b&gt;&lt;br&gt;amino acid permease&lt;br&gt;Location: 1 - 2064" points="0,90 16,90 21,85 16,80 0,80 0,90 " style="stroke-width:1; stroke:black; fill:white; " id="dummy-15_h15_6_0" class="clusterblast-orf"  />
</g>
<g id="a15_001"  >
<polygon locus_tag="AVI57409.1" description="&lt;b&gt;AVI57409.1&lt;/b&gt;&lt;br&gt;AbmN&lt;br&gt;Location: 2166 - 3503" points="22,90 31,90 36,85 31,80 22,80 22,90 " style="stroke-width:1; stroke:black; fill:white; " id="dummy-15_h15_6_1" class="clusterblast-orf"  />
</g>
<g id="a15_002"  >
<polygon locus_tag="AVI57410.1" description="&lt;b&gt;AVI57410.1&lt;/b&gt;&lt;br&gt;AbmI&lt;br&gt;Location: 3534 - 4340" points="37,85 42,80 45,80 45,90 42,90 37,85 " style="stroke-width:1; stroke:black; fill:white; " id="dummy-15_h15_6_2" class="clusterblast-orf"  />
</g>
<g id="a15_003"  >
<polygon locus_tag="AVI57411.1" description="&lt;b&gt;AVI57411.1&lt;/b&gt;&lt;br&gt;AbmE2&lt;br&gt;Location: 4585 - 5655" points="48,90 54,90 59,85 54,80 48,80 48,90 " style="stroke-width:1; stroke:black; fill:white; " id="dummy-15_h15_6_3" class="clusterblast-orf"  />
</g>
<g id="a15_004"  >
<polygon locus_tag="AVI57412.1" description="&lt;b&gt;AVI57412.1&lt;/b&gt;&lt;br&gt;AbmU&lt;br&gt;Location: 5766 - 6422" points="60,85 65,80 67,80 67,90 65,90 60,85 " style="stroke-width:1; stroke:black; fill:white; " id="dummy-15_h15_6_4" class="clusterblast-orf"  />
</g>
<g id="a15_005"  >
<polygon locus_tag="AVI57413.1" description="&lt;b&gt;AVI57413.1&lt;/b&gt;&lt;br&gt;AbmK&lt;br&gt;Location: 6458 - 7228" points="68,85 73,80 76,80 76,90 73,90 68,85 " style="stroke-width:1; stroke:black; fill:white; " id="dummy-15_h15_6_5" class="clusterblast-orf"  />
</g>
<g id="a15_006"  >
<polygon locus_tag="AVI57414.1" description="&lt;b&gt;AVI57414.1&lt;/b&gt;&lt;br&gt;AbmL&lt;br&gt;Location: 7225 - 8070" points="76,85 81,80 85,80 85,90 81,90 76,85 " style="stroke-width:1; stroke:black; fill:white; " id="dummy-15_h15_6_6" class="clusterblast-orf"  />
</g>
<g id="a15_007"  >
<polygon locus_tag="AVI57415.1" description="&lt;b&gt;AVI57415.1&lt;/b&gt;&lt;br&gt;AbmF4&lt;br&gt;Location: 8067 - 9749" points="85,85 90,80 102,80 102,90 90,90 85,85 " style="stroke-width:1; stroke:black; fill:white; " id="dummy-15_h15_6_7" class="clusterblast-orf"  />
</g>
<g id="a15_008"  >
<polygon locus_tag="AVI57416.1" description="&lt;b&gt;AVI57416.1&lt;/b&gt;&lt;br&gt;AbmF3&lt;br&gt;Location: 9736 - 10632" points="102,85 107,80 112,80 112,90 107,90 102,85 " style="stroke-width:1; stroke:black; fill:white; " id="dummy-15_h15_6_8" class="clusterblast-orf"  />
</g>
<g id="a15_009"  >
<polygon locus_tag="AVI57417.1" description="&lt;b&gt;AVI57417.1&lt;/b&gt;&lt;br&gt;AbmM&lt;br&gt;Location: 10629 - 11870" points="112,85 117,80 125,80 125,90 117,90 112,85 " style="stroke-width:1; stroke:black; fill:white; " id="dummy-15_h15_6_9" class="clusterblast-orf"  />
</g>
<g id="a15_0010"  >
<polygon locus_tag="AVI57418.1" description="&lt;b&gt;AVI57418.1&lt;/b&gt;&lt;br&gt;AbnF2&lt;br&gt;Location: 11867 - 12808" points="125,85 130,80 135,80 135,90 130,90 125,85 " style="stroke-width:1; stroke:black; fill:white; " id="dummy-15_h15_6_10" class="clusterblast-orf"  />
</g>
<g id="a15_0011"  >
<polygon locus_tag="AVI57419.1" description="&lt;b&gt;AVI57419.1&lt;/b&gt;&lt;br&gt;AbmF1&lt;br&gt;Location: 12805 - 14445" points="135,85 140,80 152,80 152,90 140,90 135,85 " style="stroke-width:1; stroke:black; fill:white; " id="dummy-15_h15_6_11" class="clusterblast-orf"  />
</g>
<g id="a15_0012"  >
<polygon locus_tag="AVI57420.1" description="&lt;b&gt;AVI57420.1&lt;/b&gt;&lt;br&gt;AbmJ&lt;br&gt;Location: 14442 - 15437&lt;br&gt;&lt;br&gt;&lt;b&gt;BlastP hit with SSMG_03825&lt;/b&gt;&lt;br&gt;Percentage identity: 49&lt;br&gt;Percentage coverage: 100&lt;br&gt;BLAST bit score: 256&lt;br&gt;E-value: 5.2e-68" points="152,85 157,80 162,80 162,90 157,90 152,85 " style="stroke-width:1; stroke:black; fill:#d815d8; " id="dummy-15_h15_6_12" class="clusterblast-orf"  />
</g>
<g id="a15_0013"  >
<polygon locus_tag="AVI57421.1" description="&lt;b&gt;AVI57421.1&lt;/b&gt;&lt;br&gt;AbmG&lt;br&gt;Location: 15525 - 15758" points="163,85 166,80 166,90 163,85 " style="stroke-width:1; stroke:black; fill:white; " id="dummy-15_h15_6_13" class="clusterblast-orf"  />
</g>
<g id="a15_0014"  >
<polygon locus_tag="AVI57422.1" description="&lt;b&gt;AVI57422.1&lt;/b&gt;&lt;br&gt;AbmV&lt;br&gt;Location: 15755 - 16972" points="166,85 171,80 179,80 179,90 171,90 166,85 " style="stroke-width:1; stroke:black; fill:white; " id="dummy-15_h15_6_14" class="clusterblast-orf"  />
</g>
<g id="a15_0015"  >
<polygon locus_tag="AVI57423.1" description="&lt;b&gt;AVI57423.1&lt;/b&gt;&lt;br&gt;AbmC&lt;br&gt;Location: 17070 - 17843" points="180,85 185,80 188,80 188,90 185,90 180,85 " style="stroke-width:1; stroke:black; fill:white; " id="dummy-15_h15_6_15" class="clusterblast-orf"  />
</g>
<g id="a15_0016"  >
<polygon locus_tag="AVI57424.1" description="&lt;b&gt;AVI57424.1&lt;/b&gt;&lt;br&gt;AbmE1&lt;br&gt;Location: 17952 - 19013" points="189,90 195,90 200,85 195,80 189,80 189,90 " style="stroke-width:1; stroke:black; fill:white; " id="dummy-15_h15_6_16" class="clusterblast-orf"  />
</g>
<g id="a15_0017"  >
<polygon locus_tag="AVI57425.1" description="&lt;b&gt;AVI57425.1&lt;/b&gt;&lt;br&gt;AbmD&lt;br&gt;Location: 19094 - 20557" points="201,90 212,90 217,85 212,80 201,80 201,90 " style="stroke-width:1; stroke:black; fill:white; " id="dummy-15_h15_6_17" class="clusterblast-orf"  />
</g>
<g id="a15_0018"  >
<polygon locus_tag="AVI57426.1" description="&lt;b&gt;AVI57426.1&lt;/b&gt;&lt;br&gt;AbmA1&lt;br&gt;Location: 20783 - 21814" points="219,90 225,90 230,85 225,80 219,80 219,90 " style="stroke-width:1; stroke:black; fill:white; " id="dummy-15_h15_6_18" class="clusterblast-orf"  />
</g>
<g id="a15_0019"  >
<polygon locus_tag="AVI57427.1" description="&lt;b&gt;AVI57427.1&lt;/b&gt;&lt;br&gt;AbmA2&lt;br&gt;Location: 21820 - 23706" points="230,90 245,90 250,85 245,80 230,80 230,90 " style="stroke-width:1; stroke:black; fill:white; " id="dummy-15_h15_6_19" class="clusterblast-orf"  />
</g>
<g id="a15_0020"  >
<polygon locus_tag="AVI57428.1" description="&lt;b&gt;AVI57428.1&lt;/b&gt;&lt;br&gt;AbmA3&lt;br&gt;Location: 23703 - 23930" points="250,90 252,85 250,80 250,90 " style="stroke-width:1; stroke:black; fill:white; " id="dummy-15_h15_6_20" class="clusterblast-orf"  />
</g>
<g id="a15_0021"  >
<polygon locus_tag="AVI57429.1" description="&lt;b&gt;AVI57429.1&lt;/b&gt;&lt;br&gt;AbmA4&lt;br&gt;Location: 23927 - 24769" points="252,90 256,90 261,85 256,80 252,80 252,90 " style="stroke-width:1; stroke:black; fill:white; " id="dummy-15_h15_6_21" class="clusterblast-orf"  />
</g>
<g id="a15_0022"  >
<polygon locus_tag="AVI57430.1" description="&lt;b&gt;AVI57430.1&lt;/b&gt;&lt;br&gt;AbmA5&lt;br&gt;Location: 24766 - 25887" points="261,90 268,90 273,85 268,80 261,80 261,90 " style="stroke-width:1; stroke:black; fill:white; " id="dummy-15_h15_6_22" class="clusterblast-orf"  />
</g>
<g id="a15_0023"  >
<polygon locus_tag="AVI57431.1" description="&lt;b&gt;AVI57431.1&lt;/b&gt;&lt;br&gt;AbmT&lt;br&gt;Location: 25884 - 26708" points="273,90 277,90 282,85 277,80 273,80 273,90 " style="stroke-width:1; stroke:black; fill:white; " id="dummy-15_h15_6_23" class="clusterblast-orf"  />
</g>
<g id="a15_0024"  >
<polygon locus_tag="AVI57432.1" description="&lt;b&gt;AVI57432.1&lt;/b&gt;&lt;br&gt;AbmZ&lt;br&gt;Location: 26788 - 27324" points="282,90 283,90 288,85 283,80 282,80 282,90 " style="stroke-width:1; stroke:black; fill:white; " id="dummy-15_h15_6_24" class="clusterblast-orf"  />
</g>
<g id="a15_0025"  >
<polygon locus_tag="AVI57433.1" description="&lt;b&gt;AVI57433.1&lt;/b&gt;&lt;br&gt;AbmB1&lt;br&gt;Location: 27314 - 46663&lt;br&gt;&lt;br&gt;&lt;b&gt;BlastP hit with SSMG_03817&lt;/b&gt;&lt;br&gt;Percentage identity: 51&lt;br&gt;Percentage coverage: 55&lt;br&gt;BLAST bit score: 579&lt;br&gt;E-value: 1.6e-164" points="288,90 487,90 492,85 487,80 288,80 288,90 " style="stroke-width:1; stroke:black; fill:#1515d8; " id="dummy-15_h15_6_25" class="clusterblast-orf"  />
</g>
<g id="a15_0026"  >
<polygon locus_tag="AVI57434.1" description="&lt;b&gt;AVI57434.1&lt;/b&gt;&lt;br&gt;AbmB2&lt;br&gt;Location: 46746 - 58910&lt;br&gt;&lt;br&gt;&lt;b&gt;BlastP hit with SSMG_03817&lt;/b&gt;&lt;br&gt;Percentage identity: 51&lt;br&gt;Percentage coverage: 57&lt;br&gt;BLAST bit score: 607&lt;br&gt;E-value: 3.3e-173" points="493,90 617,90 622,85 617,80 493,80 493,90 " style="stroke-width:1; stroke:black; fill:#1515d8; " id="dummy-15_h15_6_26" class="clusterblast-orf"  />
</g>
<g id="a15_0027"  >
<polygon locus_tag="AVI57435.1" description="&lt;b&gt;AVI57435.1&lt;/b&gt;&lt;br&gt;AbmB3&lt;br&gt;Location: 58941 - 62063&lt;br&gt;&lt;br&gt;&lt;b&gt;BlastP hit with SSMG_03817&lt;/b&gt;&lt;br&gt;Percentage identity: 49&lt;br&gt;Percentage coverage: 58&lt;br&gt;BLAST bit score: 565&lt;br&gt;E-value: 2.4e-160" points="622,90 650,90 655,85 650,80 622,80 622,90 " style="stroke-width:1; stroke:black; fill:#1515d8; " id="dummy-15_h15_6_27" class="clusterblast-orf"  />
</g>
<g id="a15_0028"  >
<polygon locus_tag="AVI57436.1" description="&lt;b&gt;AVI57436.1&lt;/b&gt;&lt;br&gt;AbmH&lt;br&gt;Location: 62267 - 65095" points="657,90 682,90 687,85 682,80 657,80 657,90 " style="stroke-width:1; stroke:black; fill:white; " id="dummy-15_h15_6_28" class="clusterblast-orf"  />
</g>
<g id="a15_0029"  >
<polygon locus_tag="AVI57437.1" description="&lt;b&gt;AVI57437.1&lt;/b&gt;&lt;br&gt;hypothetical protein&lt;br&gt;Location: 65206 - 66798" points="688,85 693,80 705,80 705,90 693,90 688,85 " style="stroke-width:1; stroke:black; fill:white; " id="dummy-15_h15_6_29" class="clusterblast-orf"  />
</g>
<g id="a15_0030"  >
<polygon locus_tag="AVI57438.1" description="&lt;b&gt;AVI57438.1&lt;/b&gt;&lt;br&gt;hypothetical protein&lt;br&gt;Location: 66795 - 72614" points="705,85 710,80 766,80 766,90 710,90 705,85 " style="stroke-width:1; stroke:black; fill:white; " id="dummy-15_h15_6_30" class="clusterblast-orf"  />
</g>
<g id="a15_0031"  >
<polygon locus_tag="AVI57439.1" description="&lt;b&gt;AVI57439.1&lt;/b&gt;&lt;br&gt;alcohol dehydrogenase-like protein&lt;br&gt;Location: 72875 - 73870" points="769,85 774,80 780,80 780,90 774,90 769,85 " style="stroke-width:1; stroke:black; fill:white; " id="dummy-15_h15_6_31" class="clusterblast-orf"  />
</g>
</svg>
