<svg version="1.1" xmlns="http://www.w3.org/2000/svg" height="230" width="800" xmlns:xlink="http://www.w3.org/1999/xlink" preserveAspectRatio="none" x="0" y="0" viewBox="0 0 800 230"  >
<g label="Query sequence" class="clusterblast-cluster"  >
<text class="clusterblast-acc" y="20" x="5"  >
Query sequence</text>
<line x1="10" x2="778.0" y2="35" style="stroke-width:1; stroke:grey; " y1="35"  />
<polygon locus_tag="SSMG_05904" description="&lt;b&gt;SSMG_05904&lt;/b&gt;&lt;br&gt;predicted protein&lt;br&gt;Location: 6494403 - 6494646" points="0,35 1,30 1,40 0,35 " style="stroke-width:1; stroke:black; fill:white; " id="dummy-22_q0_0_all" class="clusterblast-orf"  />
<polygon locus_tag="SSMG_05905" description="&lt;b&gt;SSMG_05905&lt;/b&gt;&lt;br&gt;monooxygenase&lt;br&gt;Location: 6494758 - 6495877" points="2,35 7,30 10,30 10,40 7,40 2,35 " style="stroke-width:1; stroke:black; fill:white; " id="dummy-22_q1_0_all" class="clusterblast-orf"  />
<polygon locus_tag="SSMG_05906" description="&lt;b&gt;SSMG_05906&lt;/b&gt;&lt;br&gt;ATPase&lt;br&gt;Location: 6497554 - 6501253" points="23,35 28,30 50,30 50,40 28,40 23,35 " style="stroke-width:1; stroke:black; fill:white; " id="dummy-22_q2_0_all" class="clusterblast-orf"  />
<polygon locus_tag="SSMG_05907" description="&lt;b&gt;SSMG_05907&lt;/b&gt;&lt;br&gt;predicted protein&lt;br&gt;Location: 6501367 - 6502021" points="50,40 50,40 55,35 50,30 50,30 50,40 " style="stroke-width:1; stroke:black; fill:white; " id="dummy-22_q3_0_all" class="clusterblast-orf"  />
<polygon locus_tag="SSMG_05908" description="&lt;b&gt;SSMG_05908&lt;/b&gt;&lt;br&gt;sigma-70 region 2 domain-containing protein&lt;br&gt;Location: 6502030 - 6503281" points="55,35 60,30 64,30 64,40 60,40 55,35 " style="stroke-width:1; stroke:black; fill:white; " id="dummy-22_q4_0_all" class="clusterblast-orf"  />
<polygon locus_tag="SSMG_05909" description="&lt;b&gt;SSMG_05909&lt;/b&gt;&lt;br&gt;dgpfaetke family protein&lt;br&gt;Location: 6503244 - 6503568" points="64,35 66,30 66,40 64,35 " style="stroke-width:1; stroke:black; fill:white; " id="dummy-22_q5_0_all" class="clusterblast-orf"  />
<polygon locus_tag="SSMG_05910" description="&lt;b&gt;SSMG_05910&lt;/b&gt;&lt;br&gt;riboflavin biosynthesis protein RibD domain-containing protein&lt;br&gt;Location: 6503592 - 6504213" points="67,35 71,30 71,40 67,35 " style="stroke-width:1; stroke:black; fill:white; " id="dummy-22_q6_0_all" class="clusterblast-orf"  />
<polygon locus_tag="SSMG_05911" description="&lt;b&gt;SSMG_05911&lt;/b&gt;&lt;br&gt;conserved hypothetical protein&lt;br&gt;Location: 6504333 - 6505188" points="72,35 77,30 78,30 78,40 77,40 72,35 " style="stroke-width:1; stroke:black; fill:white; " id="dummy-22_q7_0_all" class="clusterblast-orf"  />
<polygon locus_tag="SSMG_05912" description="&lt;b&gt;SSMG_05912&lt;/b&gt;&lt;br&gt;ribonuclease Z&lt;br&gt;Location: 6505189 - 6506098" points="78,35 83,30 85,30 85,40 83,40 78,35 " style="stroke-width:1; stroke:black; fill:white; " id="dummy-22_q8_0_all" class="clusterblast-orf"  />
<polygon locus_tag="SSMG_05913" description="&lt;b&gt;SSMG_05913&lt;/b&gt;&lt;br&gt;predicted protein&lt;br&gt;Location: 6506223 - 6507189" points="86,35 91,30 93,30 93,40 91,40 86,35 " style="stroke-width:1; stroke:black; fill:white; " id="dummy-22_q9_0_all" class="clusterblast-orf"  />
<polygon locus_tag="SSMG_05914" description="&lt;b&gt;SSMG_05914&lt;/b&gt;&lt;br&gt;predicted protein&lt;br&gt;Location: 6507197 - 6508166" points="93,35 98,30 100,30 100,40 98,40 93,35 " style="stroke-width:1; stroke:black; fill:white; " id="dummy-22_q10_0_all" class="clusterblast-orf"  />
<polygon locus_tag="SSMG_05915" description="&lt;b&gt;SSMG_05915&lt;/b&gt;&lt;br&gt;butyrolactone receptor&lt;br&gt;Location: 6508346 - 6508979" points="101,40 101,40 106,35 101,30 101,30 101,40 " style="stroke-width:1; stroke:black; fill:white; " id="dummy-22_q11_0_all" class="clusterblast-orf"  />
<polygon locus_tag="SSMG_05916" description="&lt;b&gt;SSMG_05916&lt;/b&gt;&lt;br&gt;predicted protein&lt;br&gt;Location: 6509405 - 6510080" points="109,35 114,30 114,30 114,40 114,40 109,35 " style="stroke-width:1; stroke:black; fill:white; " id="dummy-22_q12_0_all" class="clusterblast-orf"  />
<polygon locus_tag="SSMG_05917" description="&lt;b&gt;SSMG_05917&lt;/b&gt;&lt;br&gt;predicted protein&lt;br&gt;Location: 6510293 - 6511061" points="115,40 116,40 121,35 116,30 115,30 115,40 " style="stroke-width:1; stroke:black; fill:white; " id="dummy-22_q13_0_all" class="clusterblast-orf"  />
<polygon locus_tag="SSMG_05918" description="&lt;b&gt;SSMG_05918&lt;/b&gt;&lt;br&gt;predicted protein&lt;br&gt;Location: 6511551 - 6512124" points="125,35 129,30 129,40 125,35 " style="stroke-width:1; stroke:black; fill:white; " id="dummy-22_q14_0_all" class="clusterblast-orf"  />
<polygon locus_tag="SSMG_05919" description="&lt;b&gt;SSMG_05919&lt;/b&gt;&lt;br&gt;predicted protein&lt;br&gt;Location: 6512270 - 6513098" points="130,35 135,30 136,30 136,40 135,40 130,35 " style="stroke-width:1; stroke:black; fill:#d81515; " id="dummy-22_q15_0_all" class="clusterblast-orf"  />
<polygon locus_tag="SSMG_05920" description="&lt;b&gt;SSMG_05920&lt;/b&gt;&lt;br&gt;nodulation ABC transporter NodI&lt;br&gt;Location: 6513097 - 6514048" points="136,35 141,30 143,30 143,40 141,40 136,35 " style="stroke-width:1; stroke:black; fill:#6ad815; " id="dummy-22_q16_0_all" class="clusterblast-orf"  />
<polygon locus_tag="SSMG_05921" description="&lt;b&gt;SSMG_05921&lt;/b&gt;&lt;br&gt;polyketide synthase type I&lt;br&gt;Location: 6514125 - 6524589" points="143,35 148,30 220,30 220,40 148,40 143,35 " style="stroke-width:1; stroke:black; fill:#15bfd8; " id="dummy-22_q17_0_all" class="clusterblast-orf"  />
<polygon locus_tag="SSMG_05922" description="&lt;b&gt;SSMG_05922&lt;/b&gt;&lt;br&gt;acyl transferase domain-containing protein&lt;br&gt;Location: 6524595 - 6529314" points="220,35 225,30 254,30 254,40 225,40 220,35 " style="stroke-width:1; stroke:black; fill:#15bfd8; " id="dummy-22_q18_0_all" class="clusterblast-orf"  />
<polygon locus_tag="SSMG_05923" description="&lt;b&gt;SSMG_05923&lt;/b&gt;&lt;br&gt;polyketide synthase type I&lt;br&gt;Location: 6529325 - 6534461" points="254,35 259,30 292,30 292,40 259,40 254,35 " style="stroke-width:1; stroke:black; fill:#15bfd8; " id="dummy-22_q19_0_all" class="clusterblast-orf"  />
<polygon locus_tag="SSMG_05924" description="&lt;b&gt;SSMG_05924&lt;/b&gt;&lt;br&gt;predicted protein&lt;br&gt;Location: 6534559 - 6535441" points="292,35 297,30 299,30 299,40 297,40 292,35 " style="stroke-width:1; stroke:black; fill:#9d15d8; " id="dummy-22_q20_0_all" class="clusterblast-orf"  />
<polygon locus_tag="SSMG_05925" description="&lt;b&gt;SSMG_05925&lt;/b&gt;&lt;br&gt;predicted protein&lt;br&gt;Location: 6535532 - 6538088" points="299,35 304,30 318,30 318,40 304,40 299,35 " style="stroke-width:1; stroke:black; fill:white; " id="dummy-22_q21_0_all" class="clusterblast-orf"  />
<polygon locus_tag="SSMG_05926" description="&lt;b&gt;SSMG_05926&lt;/b&gt;&lt;br&gt;lipoprotein releasing system, ATP-binding protein&lt;br&gt;Location: 6538084 - 6538930" points="318,35 323,30 324,30 324,40 323,40 318,35 " style="stroke-width:1; stroke:black; fill:#d84815; " id="dummy-22_q22_0_all" class="clusterblast-orf"  />
<polygon locus_tag="SSMG_05927" description="&lt;b&gt;SSMG_05927&lt;/b&gt;&lt;br&gt;hypothetical protein&lt;br&gt;Location: 6539188 - 6539740" points="326,35 330,30 330,40 326,35 " style="stroke-width:1; stroke:black; fill:#37d815; " id="dummy-22_q23_0_all" class="clusterblast-orf"  />
<polygon locus_tag="SSMG_05928" description="&lt;b&gt;SSMG_05928&lt;/b&gt;&lt;br&gt;hypothetical protein&lt;br&gt;Location: 6539678 - 6540389" points="330,40 330,40 335,35 330,30 330,30 330,40 " style="stroke-width:1; stroke:black; fill:white; " id="dummy-22_q24_0_all" class="clusterblast-orf"  />
<polygon locus_tag="SSMG_05929" description="&lt;b&gt;SSMG_05929&lt;/b&gt;&lt;br&gt;predicted protein&lt;br&gt;Location: 6540909 - 6550362" points="339,35 344,30 408,30 408,40 344,40 339,35 " style="stroke-width:1; stroke:black; fill:#15bfd8; " id="dummy-22_q25_0_all" class="clusterblast-orf"  />
<polygon locus_tag="SSMG_05930" description="&lt;b&gt;SSMG_05930&lt;/b&gt;&lt;br&gt;predicted protein&lt;br&gt;Location: 6550532 - 6551294" points="409,40 409,40 414,35 409,30 409,30 409,40 " style="stroke-width:1; stroke:black; fill:#158cd8; " id="dummy-22_q26_0_all" class="clusterblast-orf"  />
<polygon locus_tag="SSMG_05931" description="&lt;b&gt;SSMG_05931&lt;/b&gt;&lt;br&gt;UDP-glucose/GDP-mannose dehydrogenase&lt;br&gt;Location: 6551358 - 6552651" points="415,40 419,40 424,35 419,30 415,30 415,40 " style="stroke-width:1; stroke:black; fill:#d015d8; " id="dummy-22_q27_0_all" class="clusterblast-orf"  />
<polygon locus_tag="SSMG_05932" description="&lt;b&gt;SSMG_05932&lt;/b&gt;&lt;br&gt;NAD-dependent epimerase/dehydratase&lt;br&gt;Location: 6552702 - 6553677" points="425,40 427,40 432,35 427,30 425,30 425,40 " style="stroke-width:1; stroke:black; fill:#d87b15; " id="dummy-22_q28_0_all" class="clusterblast-orf"  />
<polygon locus_tag="SSMG_05933" description="&lt;b&gt;SSMG_05933&lt;/b&gt;&lt;br&gt;hypothetical protein&lt;br&gt;Location: 6553888 - 6556477" points="433,35 438,30 452,30 452,40 438,40 433,35 " style="stroke-width:1; stroke:black; fill:white; " id="dummy-22_q29_0_all" class="clusterblast-orf"  />
<polygon locus_tag="SSMG_05934" description="&lt;b&gt;SSMG_05934&lt;/b&gt;&lt;br&gt;predicted protein&lt;br&gt;Location: 6556689 - 6558081" points="454,40 459,40 464,35 459,30 454,30 454,40 " style="stroke-width:1; stroke:black; fill:white; " id="dummy-22_q30_0_all" class="clusterblast-orf"  />
<polygon locus_tag="SSMG_05935" description="&lt;b&gt;SSMG_05935&lt;/b&gt;&lt;br&gt;thioesterase&lt;br&gt;Location: 6558131 - 6558914" points="464,40 465,40 470,35 465,30 464,30 464,40 " style="stroke-width:1; stroke:black; fill:#15d826; " id="dummy-22_q31_0_all" class="clusterblast-orf"  />
<polygon locus_tag="SSMG_05936" description="&lt;b&gt;SSMG_05936&lt;/b&gt;&lt;br&gt;predicted protein&lt;br&gt;Location: 6558953 - 6559295" points="470,40 473,35 470,30 470,40 " style="stroke-width:1; stroke:black; fill:#1559d8; " id="dummy-22_q32_0_all" class="clusterblast-orf"  />
<polygon locus_tag="SSMG_05937" description="&lt;b&gt;SSMG_05937&lt;/b&gt;&lt;br&gt;predicted protein&lt;br&gt;Location: 6559696 - 6560167" points="476,35 479,30 479,40 476,35 " style="stroke-width:1; stroke:black; fill:white; " id="dummy-22_q33_0_all" class="clusterblast-orf"  />
<polygon locus_tag="SSMG_05938" description="&lt;b&gt;SSMG_05938&lt;/b&gt;&lt;br&gt;PKS module 4&lt;br&gt;Location: 6560592 - 6565977" points="482,35 487,30 521,30 521,40 487,40 482,35 " style="stroke-width:1; stroke:black; fill:#15bfd8; " id="dummy-22_q34_0_all" class="clusterblast-orf"  />
<polygon locus_tag="SSMG_05939" description="&lt;b&gt;SSMG_05939&lt;/b&gt;&lt;br&gt;modular polyketide synthase&lt;br&gt;Location: 6565973 - 6581756" points="521,35 526,30 636,30 636,40 526,40 521,35 " style="stroke-width:1; stroke:black; fill:#15bfd8; " id="dummy-22_q35_0_all" class="clusterblast-orf"  />
<polygon locus_tag="SSMG_05940" description="&lt;b&gt;SSMG_05940&lt;/b&gt;&lt;br&gt;cytochrome P450&lt;br&gt;Location: 6581852 - 6583049" points="637,35 642,30 646,30 646,40 642,40 637,35 " style="stroke-width:1; stroke:black; fill:#d815ae; " id="dummy-22_q36_0_all" class="clusterblast-orf"  />
<polygon locus_tag="SSMG_05941" description="&lt;b&gt;SSMG_05941&lt;/b&gt;&lt;br&gt;glutamate mutase subunit B&lt;br&gt;Location: 6583045 - 6584314" points="646,35 651,30 655,30 655,40 651,40 646,35 " style="stroke-width:1; stroke:black; fill:#d8ae15; " id="dummy-22_q37_0_all" class="clusterblast-orf"  />
<polygon locus_tag="SSMG_05942" description="&lt;b&gt;SSMG_05942&lt;/b&gt;&lt;br&gt;glutamate mutase S-chain&lt;br&gt;Location: 6584310 - 6584787" points="655,35 658,30 658,40 655,35 " style="stroke-width:1; stroke:black; fill:#15d859; " id="dummy-22_q38_0_all" class="clusterblast-orf"  />
<polygon locus_tag="SSMG_05943" description="&lt;b&gt;SSMG_05943&lt;/b&gt;&lt;br&gt;diaminopimelate decarboxylase&lt;br&gt;Location: 6584783 - 6585998" points="658,35 663,30 667,30 667,40 663,40 658,35 " style="stroke-width:1; stroke:black; fill:#1526d8; " id="dummy-22_q39_0_all" class="clusterblast-orf"  />
<polygon locus_tag="SSMG_05944" description="&lt;b&gt;SSMG_05944&lt;/b&gt;&lt;br&gt;O-succinylbenzoate-CoA ligase&lt;br&gt;Location: 6585994 - 6587455" points="667,35 672,30 678,30 678,40 672,40 667,35 " style="stroke-width:1; stroke:black; fill:#d8157b; " id="dummy-22_q40_0_all" class="clusterblast-orf"  />
<polygon locus_tag="SSMG_05945" description="&lt;b&gt;SSMG_05945&lt;/b&gt;&lt;br&gt;AMP-dependent synthetase and ligase&lt;br&gt;Location: 6587651 - 6589199" points="679,35 684,30 691,30 691,40 684,40 679,35 " style="stroke-width:1; stroke:black; fill:#d0d815; " id="dummy-22_q41_0_all" class="clusterblast-orf"  />
<polygon locus_tag="SSMG_05946" description="&lt;b&gt;SSMG_05946&lt;/b&gt;&lt;br&gt;predicted protein&lt;br&gt;Location: 6589274 - 6589628" points="691,40 694,35 691,30 691,40 " style="stroke-width:1; stroke:black; fill:#15d88c; " id="dummy-22_q42_0_all" class="clusterblast-orf"  />
<polygon locus_tag="SSMG_05947" description="&lt;b&gt;SSMG_05947&lt;/b&gt;&lt;br&gt;malonyl-CoA-[acyl-carrier-protein] transacylase&lt;br&gt;Location: 6589620 - 6590580" points="694,35 699,30 701,30 701,40 699,40 694,35 " style="stroke-width:1; stroke:black; fill:#3715d8; " id="dummy-22_q43_0_all" class="clusterblast-orf"  />
<polygon locus_tag="SSMG_05948" description="&lt;b&gt;SSMG_05948&lt;/b&gt;&lt;br&gt;proline-specific peptidase&lt;br&gt;Location: 6590572 - 6591505" points="701,35 706,30 707,30 707,40 706,40 701,35 " style="stroke-width:1; stroke:black; fill:#d81548; " id="dummy-22_q44_0_all" class="clusterblast-orf"  />
<polygon locus_tag="SSMG_05949" description="&lt;b&gt;SSMG_05949&lt;/b&gt;&lt;br&gt;predicted protein&lt;br&gt;Location: 6591738 - 6593001" points="709,40 713,40 718,35 713,30 709,30 709,40 " style="stroke-width:1; stroke:black; fill:#9dd815; " id="dummy-22_q45_0_all" class="clusterblast-orf"  />
<polygon locus_tag="SSMG_05950" description="&lt;b&gt;SSMG_05950&lt;/b&gt;&lt;br&gt;predicted protein&lt;br&gt;Location: 6592910 - 6594107" points="718,40 721,40 726,35 721,30 718,30 718,40 " style="stroke-width:1; stroke:black; fill:#15d8bf; " id="dummy-22_q46_0_all" class="clusterblast-orf"  />
<polygon locus_tag="SSMG_05951" description="&lt;b&gt;SSMG_05951&lt;/b&gt;&lt;br&gt;two component transcriptional regulator&lt;br&gt;Location: 6594130 - 6594784" points="727,40 731,35 727,30 727,40 " style="stroke-width:1; stroke:black; fill:#6a15d8; " id="dummy-22_q47_0_all" class="clusterblast-orf"  />
<polygon locus_tag="SSMG_05952" description="&lt;b&gt;SSMG_05952&lt;/b&gt;&lt;br&gt;predicted protein&lt;br&gt;Location: 6595236 - 6595497" points="735,35 737,30 737,40 735,35 " style="stroke-width:1; stroke:black; fill:white; " id="dummy-22_q48_0_all" class="clusterblast-orf"  />
<polygon locus_tag="SSMG_05953" description="&lt;b&gt;SSMG_05953&lt;/b&gt;&lt;br&gt;acetyl-CoA carboxylase complex&lt;br&gt;Location: 6596157 - 6597732" points="741,35 746,30 753,30 753,40 746,40 741,35 " style="stroke-width:1; stroke:black; fill:white; " id="dummy-22_q49_0_all" class="clusterblast-orf"  />
<polygon locus_tag="SSMG_05954" description="&lt;b&gt;SSMG_05954&lt;/b&gt;&lt;br&gt;thioesterase&lt;br&gt;Location: 6597718 - 6598489" points="753,35 758,30 758,30 758,40 758,40 753,35 " style="stroke-width:1; stroke:black; fill:#15d826; " id="dummy-22_q50_0_all" class="clusterblast-orf"  />
<polygon locus_tag="SSMG_05955" description="&lt;b&gt;SSMG_05955&lt;/b&gt;&lt;br&gt;predicted protein&lt;br&gt;Location: 6598699 - 6598879" points="760,40 761,35 760,30 760,40 " style="stroke-width:1; stroke:black; fill:white; " id="dummy-22_q51_0_all" class="clusterblast-orf"  />
<polygon locus_tag="SSMG_05956" description="&lt;b&gt;SSMG_05956&lt;/b&gt;&lt;br&gt;acetyltransferase&lt;br&gt;Location: 6598857 - 6599643" points="761,35 766,30 767,30 767,40 766,40 761,35 " style="stroke-width:1; stroke:black; fill:white; " id="dummy-22_q52_0_all" class="clusterblast-orf"  />
<polygon locus_tag="SSMG_05957" description="&lt;b&gt;SSMG_05957&lt;/b&gt;&lt;br&gt;conserved hypothetical protein&lt;br&gt;Location: 6599693 - 6600416" points="767,40 767,40 772,35 767,30 767,30 767,40 " style="stroke-width:1; stroke:black; fill:white; " id="dummy-22_q53_0_all" class="clusterblast-orf"  />
<polygon locus_tag="SSMG_05958" description="&lt;b&gt;SSMG_05958&lt;/b&gt;&lt;br&gt;predicted protein&lt;br&gt;Location: 6600437 - 6600926" points="773,40 776,35 773,30 773,40 " style="stroke-width:1; stroke:black; fill:white; " id="dummy-22_q54_0_all" class="clusterblast-orf"  />
<polygon locus_tag="SSMG_05959" description="&lt;b&gt;SSMG_05959&lt;/b&gt;&lt;br&gt;transcriptional regulator&lt;br&gt;Location: 6600933 - 6601395" points="776,35 780,30 780,40 776,35 " style="stroke-width:1; stroke:black; fill:white; " id="dummy-22_q55_0_all" class="clusterblast-orf"  />
</g>
<g label="BGC0001658" description="BGC0001658_c1: macrotermycins (96% of genes show similarity), Polyketide" class="clusterblast-cluster"  >
<text class="clusterblast-acc" y="70" x="5"  >
<a xlink:href="https://mibig.secondarymetabolites.org/go/BGC0001658/1" target="_blank">BGC0001658</a>:                                                                   macrotermycins (96% of genes show similarity), Polyketide</text>
<line x1="10" x2="778.0" y2="85" style="stroke-width:1; stroke:grey; " y1="85"  />
</g>
<g id="a22_000"  >
<polygon locus_tag="A4R44_03199" description="&lt;b&gt;A4R44_03199&lt;/b&gt;&lt;br&gt;Daunorubicin/doxorubicin resistance ABC transporter permease protein DrrB&lt;br&gt;Location: 53529 - 52702&lt;br&gt;&lt;br&gt;&lt;b&gt;BlastP hit with SSMG_05919&lt;/b&gt;&lt;br&gt;Percentage identity: 75&lt;br&gt;Percentage coverage: 100&lt;br&gt;BLAST bit score: 401&lt;br&gt;E-value: 1.4e-111" points="194,85 199,80 200,80 200,90 199,90 194,85 " style="stroke-width:1; stroke:black; fill:#d81515; " id="dummy-22_h22_1_0" class="clusterblast-orf"  />
</g>
<g id="a22_001"  >
<polygon locus_tag="A4R44_03198" description="&lt;b&gt;A4R44_03198&lt;/b&gt;&lt;br&gt;Daunorubicin/doxorubicin resistance ATP-binding protein DrrA&lt;br&gt;Location: 52702 - 51779&lt;br&gt;&lt;br&gt;&lt;b&gt;BlastP hit with SSMG_05920&lt;/b&gt;&lt;br&gt;Percentage identity: 85&lt;br&gt;Percentage coverage: 97&lt;br&gt;BLAST bit score: 498&lt;br&gt;E-value: 5.7e-141" points="200,85 205,80 207,80 207,90 205,90 200,85 " style="stroke-width:1; stroke:black; fill:#6ad815; " id="dummy-22_h22_1_1" class="clusterblast-orf"  />
</g>
<g id="a22_002"  >
<polygon locus_tag="A4R44_03197" description="&lt;b&gt;A4R44_03197&lt;/b&gt;&lt;br&gt;Phenolphthiocerol synthesis polyketide synthase type I Pks15/1&lt;br&gt;Location: 51665 - 41289&lt;br&gt;&lt;br&gt;&lt;b&gt;BlastP hit with SSMG_05921&lt;/b&gt;&lt;br&gt;Percentage identity: 87&lt;br&gt;Percentage coverage: 99&lt;br&gt;BLAST bit score: 5798&lt;br&gt;E-value: 0.0&lt;br&gt;&lt;br&gt;&lt;b&gt;BlastP hit with SSMG_05923&lt;/b&gt;&lt;br&gt;Percentage identity: 54&lt;br&gt;Percentage coverage: 99&lt;br&gt;BLAST bit score: 1592&lt;br&gt;E-value: 0.0&lt;br&gt;&lt;br&gt;&lt;b&gt;BlastP hit with SSMG_05929&lt;/b&gt;&lt;br&gt;Percentage identity: 50&lt;br&gt;Percentage coverage: 93&lt;br&gt;BLAST bit score: 2473&lt;br&gt;E-value: 0.0&lt;br&gt;&lt;br&gt;&lt;b&gt;BlastP hit with SSMG_05938&lt;/b&gt;&lt;br&gt;Percentage identity: 52&lt;br&gt;Percentage coverage: 101&lt;br&gt;BLAST bit score: 1562&lt;br&gt;E-value: 0.0&lt;br&gt;&lt;br&gt;&lt;b&gt;BlastP hit with SSMG_05939&lt;/b&gt;&lt;br&gt;Percentage identity: 52&lt;br&gt;Percentage coverage: 66&lt;br&gt;BLAST bit score: 3053&lt;br&gt;E-value: 0.0" points="208,85 213,80 284,80 284,90 213,90 208,85 " style="stroke-width:1; stroke:black; fill:#15bfd8; " id="dummy-22_h22_1_2" class="clusterblast-orf"  />
</g>
<g id="a22_003"  >
<polygon locus_tag="A4R44_03196" description="&lt;b&gt;A4R44_03196&lt;/b&gt;&lt;br&gt;Erythronolide synthase, modules 1 and 2&lt;br&gt;Location: 41255 - 36492&lt;br&gt;&lt;br&gt;&lt;b&gt;BlastP hit with SSMG_05922&lt;/b&gt;&lt;br&gt;Percentage identity: 83&lt;br&gt;Percentage coverage: 101&lt;br&gt;BLAST bit score: 2509&lt;br&gt;E-value: 0.0" points="284,85 289,80 319,80 319,90 289,90 284,85 " style="stroke-width:1; stroke:black; fill:#15bfd8; " id="dummy-22_h22_1_3" class="clusterblast-orf"  />
</g>
<g id="a22_004"  >
<polygon locus_tag="A4R44_03195" description="&lt;b&gt;A4R44_03195&lt;/b&gt;&lt;br&gt;Phenolphthiocerol synthesis polyketide synthase type I Pks15/1&lt;br&gt;Location: 36495 - 31237&lt;br&gt;&lt;br&gt;&lt;b&gt;BlastP hit with SSMG_05921&lt;/b&gt;&lt;br&gt;Percentage identity: 54&lt;br&gt;Percentage coverage: 49&lt;br&gt;BLAST bit score: 1639&lt;br&gt;E-value: 0.0&lt;br&gt;&lt;br&gt;&lt;b&gt;BlastP hit with SSMG_05923&lt;/b&gt;&lt;br&gt;Percentage identity: 74&lt;br&gt;Percentage coverage: 101&lt;br&gt;BLAST bit score: 2439&lt;br&gt;E-value: 0.0&lt;br&gt;&lt;br&gt;&lt;b&gt;BlastP hit with SSMG_05929&lt;/b&gt;&lt;br&gt;Percentage identity: 53&lt;br&gt;Percentage coverage: 54&lt;br&gt;BLAST bit score: 1530&lt;br&gt;E-value: 0.0&lt;br&gt;&lt;br&gt;&lt;b&gt;BlastP hit with SSMG_05938&lt;/b&gt;&lt;br&gt;Percentage identity: 53&lt;br&gt;Percentage coverage: 100&lt;br&gt;BLAST bit score: 1657&lt;br&gt;E-value: 0.0" points="319,85 324,80 357,80 357,90 324,90 319,85 " style="stroke-width:1; stroke:black; fill:#15bfd8; " id="dummy-22_h22_1_4" class="clusterblast-orf"  />
</g>
<g id="a22_005"  >
<polygon locus_tag="A4R44_03194" description="&lt;b&gt;A4R44_03194&lt;/b&gt;&lt;br&gt;Desosaminyl transferase EryCIII precursor&lt;br&gt;Location: 30978 - 30082&lt;br&gt;&lt;br&gt;&lt;b&gt;BlastP hit with SSMG_05924&lt;/b&gt;&lt;br&gt;Percentage identity: 70&lt;br&gt;Percentage coverage: 85&lt;br&gt;BLAST bit score: 314&lt;br&gt;E-value: 1.4e-85" points="359,85 364,80 365,80 365,90 364,90 359,85 " style="stroke-width:1; stroke:black; fill:#9d15d8; " id="dummy-22_h22_1_5" class="clusterblast-orf"  />
</g>
<g id="a22_006"  >
<polygon locus_tag="A4R44_03193" description="&lt;b&gt;A4R44_03193&lt;/b&gt;&lt;br&gt;hypothetical protein&lt;br&gt;Location: 29861 - 29445&lt;br&gt;&lt;br&gt;&lt;b&gt;BlastP hit with SSMG_05927&lt;/b&gt;&lt;br&gt;Percentage identity: 62&lt;br&gt;Percentage coverage: 74&lt;br&gt;BLAST bit score: 160&lt;br&gt;E-value: 2.8e-39" points="367,85 370,80 370,90 367,85 " style="stroke-width:1; stroke:black; fill:#37d815; " id="dummy-22_h22_1_6" class="clusterblast-orf"  />
</g>
<g id="a22_007"  >
<polygon locus_tag="A4R44_03192" description="&lt;b&gt;A4R44_03192&lt;/b&gt;&lt;br&gt;UDP-glucose/GDP-mannose dehydrogenase family, NAD binding domain&lt;br&gt;Location: 29095 - 28907" points="373,90 374,85 373,80 373,90 " style="stroke-width:1; stroke:black; fill:white; " id="dummy-22_h22_1_7" class="clusterblast-orf"  />
</g>
<g id="a22_008"  >
<polygon locus_tag="A4R44_03191" description="&lt;b&gt;A4R44_03191&lt;/b&gt;&lt;br&gt;Phenolphthiocerol synthesis polyketide synthase type I Pks15/1&lt;br&gt;Location: 28408 - 19967&lt;br&gt;&lt;br&gt;&lt;b&gt;BlastP hit with SSMG_05923&lt;/b&gt;&lt;br&gt;Percentage identity: 48&lt;br&gt;Percentage coverage: 68&lt;br&gt;BLAST bit score: 951&lt;br&gt;E-value: 1.3e-276&lt;br&gt;&lt;br&gt;&lt;b&gt;BlastP hit with SSMG_05929&lt;/b&gt;&lt;br&gt;Percentage identity: 48&lt;br&gt;Percentage coverage: 104&lt;br&gt;BLAST bit score: 2582&lt;br&gt;E-value: 0.0&lt;br&gt;&lt;br&gt;&lt;b&gt;BlastP hit with SSMG_05938&lt;/b&gt;&lt;br&gt;Percentage identity: 47&lt;br&gt;Percentage coverage: 68&lt;br&gt;BLAST bit score: 975&lt;br&gt;E-value: 1.6e-283" points="378,85 383,80 439,80 439,90 383,90 378,85 " style="stroke-width:1; stroke:black; fill:#15bfd8; " id="dummy-22_h22_1_8" class="clusterblast-orf"  />
</g>
<g id="a22_009"  >
<polygon locus_tag="A4R44_03190" description="&lt;b&gt;A4R44_03190&lt;/b&gt;&lt;br&gt;Linear gramicidin dehydrogenase LgrE&lt;br&gt;Location: 19679 - 18864&lt;br&gt;&lt;br&gt;&lt;b&gt;BlastP hit with SSMG_05935&lt;/b&gt;&lt;br&gt;Percentage identity: 70&lt;br&gt;Percentage coverage: 97&lt;br&gt;BLAST bit score: 354&lt;br&gt;E-value: 1.4e-97&lt;br&gt;&lt;br&gt;&lt;b&gt;BlastP hit with SSMG_05954&lt;/b&gt;&lt;br&gt;Percentage identity: 51&lt;br&gt;Percentage coverage: 88&lt;br&gt;BLAST bit score: 220&lt;br&gt;E-value: 4.2e-57" points="441,90 442,90 447,85 442,80 441,80 441,90 " style="stroke-width:1; stroke:black; fill:#15d826; " id="dummy-22_h22_1_9" class="clusterblast-orf"  />
</g>
<g id="a22_0010"  >
<polygon locus_tag="A4R44_03189" description="&lt;b&gt;A4R44_03189&lt;/b&gt;&lt;br&gt;hypothetical protein&lt;br&gt;Location: 18757 - 18494&lt;br&gt;&lt;br&gt;&lt;b&gt;BlastP hit with SSMG_05936&lt;/b&gt;&lt;br&gt;Percentage identity: 67&lt;br&gt;Percentage coverage: 78&lt;br&gt;BLAST bit score: 122&lt;br&gt;E-value: 4e-28" points="448,90 450,85 448,80 448,90 " style="stroke-width:1; stroke:black; fill:#1559d8; " id="dummy-22_h22_1_10" class="clusterblast-orf"  />
</g>
<g id="a22_0011"  >
<polygon locus_tag="A4R44_03188" description="&lt;b&gt;A4R44_03188&lt;/b&gt;&lt;br&gt;Phenolphthiocerol synthesis polyketide synthase type I Pks15/1&lt;br&gt;Location: 18428 - 15150&lt;br&gt;&lt;br&gt;&lt;b&gt;BlastP hit with SSMG_05923&lt;/b&gt;&lt;br&gt;Percentage identity: 46&lt;br&gt;Percentage coverage: 63&lt;br&gt;BLAST bit score: 776&lt;br&gt;E-value: 1e-223&lt;br&gt;&lt;br&gt;&lt;b&gt;BlastP hit with SSMG_05938&lt;/b&gt;&lt;br&gt;Percentage identity: 69&lt;br&gt;Percentage coverage: 62&lt;br&gt;BLAST bit score: 1445&lt;br&gt;E-value: 0.0" points="450,85 455,80 474,80 474,90 455,90 450,85 " style="stroke-width:1; stroke:black; fill:#15bfd8; " id="dummy-22_h22_1_11" class="clusterblast-orf"  />
</g>
<g id="a22_0012"  >
<polygon locus_tag="A4R44_03187" description="&lt;b&gt;A4R44_03187&lt;/b&gt;&lt;br&gt;Phenolphthiocerol synthesis polyketide synthase type I Pks15/1&lt;br&gt;Location: 15141 - 13102&lt;br&gt;&lt;br&gt;&lt;b&gt;BlastP hit with SSMG_05922&lt;/b&gt;&lt;br&gt;Percentage identity: 57&lt;br&gt;Percentage coverage: 42&lt;br&gt;BLAST bit score: 685&lt;br&gt;E-value: 1.6e-196&lt;br&gt;&lt;br&gt;&lt;b&gt;BlastP hit with SSMG_05923&lt;/b&gt;&lt;br&gt;Percentage identity: 65&lt;br&gt;Percentage coverage: 40&lt;br&gt;BLAST bit score: 841&lt;br&gt;E-value: 3.3e-243" points="474,85 479,80 489,80 489,90 479,90 474,85 " style="stroke-width:1; stroke:black; fill:#15bfd8; " id="dummy-22_h22_1_12" class="clusterblast-orf"  />
</g>
<g id="a22_0013"  >
<polygon locus_tag="A4R44_03186" description="&lt;b&gt;A4R44_03186&lt;/b&gt;&lt;br&gt;Cytochrome P450 107B1&lt;br&gt;Location: 12948 - 11752&lt;br&gt;&lt;br&gt;&lt;b&gt;BlastP hit with SSMG_05940&lt;/b&gt;&lt;br&gt;Percentage identity: 87&lt;br&gt;Percentage coverage: 100&lt;br&gt;BLAST bit score: 698&lt;br&gt;E-value: 8.1e-201" points="490,85 495,80 499,80 499,90 495,90 490,85 " style="stroke-width:1; stroke:black; fill:#d815ae; " id="dummy-22_h22_1_13" class="clusterblast-orf"  />
</g>
<g id="a22_0014"  >
<polygon locus_tag="A4R44_03185" description="&lt;b&gt;A4R44_03185&lt;/b&gt;&lt;br&gt;Methylaspartate mutase E chain (MutE)&lt;br&gt;Location: 11752 - 11210&lt;br&gt;&lt;br&gt;&lt;b&gt;BlastP hit with SSMG_05941&lt;/b&gt;&lt;br&gt;Percentage identity: 94&lt;br&gt;Percentage coverage: 42&lt;br&gt;BLAST bit score: 326&lt;br&gt;E-value: 5.2e-89" points="499,85 503,80 503,90 499,85 " style="stroke-width:1; stroke:black; fill:#d8ae15; " id="dummy-22_h22_1_14" class="clusterblast-orf"  />
</g>
<g id="a22_0015"  >
<polygon locus_tag="A4R44_03184" description="&lt;b&gt;A4R44_03184&lt;/b&gt;&lt;br&gt;Methylaspartate mutase E chain&lt;br&gt;Location: 11268 - 10477&lt;br&gt;&lt;br&gt;&lt;b&gt;BlastP hit with SSMG_05941&lt;/b&gt;&lt;br&gt;Percentage identity: 94&lt;br&gt;Percentage coverage: 50&lt;br&gt;BLAST bit score: 420&lt;br&gt;E-value: 2.7e-117" points="502,85 507,80 508,80 508,90 507,90 502,85 " style="stroke-width:1; stroke:black; fill:#d8ae15; " id="dummy-22_h22_1_15" class="clusterblast-orf"  />
</g>
<g id="a22_0016"  >
<polygon locus_tag="A4R44_03183" description="&lt;b&gt;A4R44_03183&lt;/b&gt;&lt;br&gt;Methylaspartate mutase S chain&lt;br&gt;Location: 10480 - 10004&lt;br&gt;&lt;br&gt;&lt;b&gt;BlastP hit with SSMG_05942&lt;/b&gt;&lt;br&gt;Percentage identity: 93&lt;br&gt;Percentage coverage: 100&lt;br&gt;BLAST bit score: 298&lt;br&gt;E-value: 5.7e-81" points="508,85 512,80 512,90 508,85 " style="stroke-width:1; stroke:black; fill:#15d859; " id="dummy-22_h22_1_16" class="clusterblast-orf"  />
</g>
<g id="a22_0017"  >
<polygon locus_tag="A4R44_03182" description="&lt;b&gt;A4R44_03182&lt;/b&gt;&lt;br&gt;L-glutamyl-[BtrI acyl-carrier protein] decarboxylase&lt;br&gt;Location: 10007 - 8793&lt;br&gt;&lt;br&gt;&lt;b&gt;BlastP hit with SSMG_05943&lt;/b&gt;&lt;br&gt;Percentage identity: 98&lt;br&gt;Percentage coverage: 100&lt;br&gt;BLAST bit score: 787&lt;br&gt;E-value: 7.9e-228" points="512,85 517,80 521,80 521,90 517,90 512,85 " style="stroke-width:1; stroke:black; fill:#1526d8; " id="dummy-22_h22_1_17" class="clusterblast-orf"  />
</g>
<g id="a22_0018"  >
<polygon locus_tag="A4R44_03181" description="&lt;b&gt;A4R44_03181&lt;/b&gt;&lt;br&gt;Long-chain-fatty-acid--CoA ligase&lt;br&gt;Location: 8796 - 7336&lt;br&gt;&lt;br&gt;&lt;b&gt;BlastP hit with SSMG_05944&lt;/b&gt;&lt;br&gt;Percentage identity: 96&lt;br&gt;Percentage coverage: 100&lt;br&gt;BLAST bit score: 924&lt;br&gt;E-value: 6.5e-269" points="520,85 525,80 531,80 531,90 525,90 520,85 " style="stroke-width:1; stroke:black; fill:#d8157b; " id="dummy-22_h22_1_18" class="clusterblast-orf"  />
</g>
<g id="a22_0019"  >
<polygon locus_tag="A4R44_03180" description="&lt;b&gt;A4R44_03180&lt;/b&gt;&lt;br&gt;Surfactin synthase subunit 1&lt;br&gt;Location: 7136 - 5637&lt;br&gt;&lt;br&gt;&lt;b&gt;BlastP hit with SSMG_05945&lt;/b&gt;&lt;br&gt;Percentage identity: 95&lt;br&gt;Percentage coverage: 97&lt;br&gt;BLAST bit score: 948&lt;br&gt;E-value: 5.8e-276" points="533,85 538,80 544,80 544,90 538,90 533,85 " style="stroke-width:1; stroke:black; fill:#d0d815; " id="dummy-22_h22_1_19" class="clusterblast-orf"  />
</g>
<g id="a22_0020"  >
<polygon locus_tag="A4R44_03179" description="&lt;b&gt;A4R44_03179&lt;/b&gt;&lt;br&gt;Acyl carrier protein&lt;br&gt;Location: 5403 - 5158&lt;br&gt;&lt;br&gt;&lt;b&gt;BlastP hit with SSMG_05946&lt;/b&gt;&lt;br&gt;Percentage identity: 98&lt;br&gt;Percentage coverage: 69&lt;br&gt;BLAST bit score: 162&lt;br&gt;E-value: 4.7e-40" points="545,90 547,85 545,80 545,90 " style="stroke-width:1; stroke:black; fill:#15d88c; " id="dummy-22_h22_1_20" class="clusterblast-orf"  />
</g>
<g id="a22_0021"  >
<polygon locus_tag="A4R44_03178" description="&lt;b&gt;A4R44_03178&lt;/b&gt;&lt;br&gt;Malonyl CoA-acyl carrier protein transacylase&lt;br&gt;Location: 5165 - 4206&lt;br&gt;&lt;br&gt;&lt;b&gt;BlastP hit with SSMG_05947&lt;/b&gt;&lt;br&gt;Percentage identity: 98&lt;br&gt;Percentage coverage: 100&lt;br&gt;BLAST bit score: 647&lt;br&gt;E-value: 1e-185" points="547,85 552,80 554,80 554,90 552,90 547,85 " style="stroke-width:1; stroke:black; fill:#3715d8; " id="dummy-22_h22_1_21" class="clusterblast-orf"  />
</g>
<g id="a22_0022"  >
<polygon locus_tag="A4R44_03177" description="&lt;b&gt;A4R44_03177&lt;/b&gt;&lt;br&gt;L-amino acid amidase&lt;br&gt;Location: 4213 - 3281&lt;br&gt;&lt;br&gt;&lt;b&gt;BlastP hit with SSMG_05948&lt;/b&gt;&lt;br&gt;Percentage identity: 98&lt;br&gt;Percentage coverage: 100&lt;br&gt;BLAST bit score: 645&lt;br&gt;E-value: 4.9e-185" points="554,85 559,80 561,80 561,90 559,90 554,85 " style="stroke-width:1; stroke:black; fill:#d81548; " id="dummy-22_h22_1_22" class="clusterblast-orf"  />
</g>
<g id="a22_0023"  >
<polygon locus_tag="A4R44_03176" description="&lt;b&gt;A4R44_03176&lt;/b&gt;&lt;br&gt;Desosaminyl transferase EryCIII precursor&lt;br&gt;Location: 3046 - 1784&lt;br&gt;&lt;br&gt;&lt;b&gt;BlastP hit with SSMG_05949&lt;/b&gt;&lt;br&gt;Percentage identity: 91&lt;br&gt;Percentage coverage: 100&lt;br&gt;BLAST bit score: 768&lt;br&gt;E-value: 6.7e-222" points="562,90 567,90 572,85 567,80 562,80 562,90 " style="stroke-width:1; stroke:black; fill:#9dd815; " id="dummy-22_h22_1_23" class="clusterblast-orf"  />
</g>
<g id="a22_0024"  >
<polygon locus_tag="A4R44_03175" description="&lt;b&gt;A4R44_03175&lt;/b&gt;&lt;br&gt;Sensor histidine kinase LiaS&lt;br&gt;Location: 1793 - 678&lt;br&gt;&lt;br&gt;&lt;b&gt;BlastP hit with SSMG_05950&lt;/b&gt;&lt;br&gt;Percentage identity: 95&lt;br&gt;Percentage coverage: 93&lt;br&gt;BLAST bit score: 632&lt;br&gt;E-value: 5.5e-181" points="572,90 575,90 580,85 575,80 572,80 572,90 " style="stroke-width:1; stroke:black; fill:#15d8bf; " id="dummy-22_h22_1_24" class="clusterblast-orf"  />
</g>
<g id="a22_0025"  >
<polygon locus_tag="A4R44_03174" description="&lt;b&gt;A4R44_03174&lt;/b&gt;&lt;br&gt;Transcriptional regulatory protein DegU&lt;br&gt;Location: 654 - 1&lt;br&gt;&lt;br&gt;&lt;b&gt;BlastP hit with SSMG_05951&lt;/b&gt;&lt;br&gt;Percentage identity: 99&lt;br&gt;Percentage coverage: 100&lt;br&gt;BLAST bit score: 398&lt;br&gt;E-value: 5.5e-111" points="580,90 580,90 585,85 580,80 580,80 580,90 " style="stroke-width:1; stroke:black; fill:#6a15d8; " id="dummy-22_h22_1_25" class="clusterblast-orf"  />
</g>
</svg>
