<svg version="1.1" xmlns="http://www.w3.org/2000/svg" height="230" width="800" xmlns:xlink="http://www.w3.org/1999/xlink" preserveAspectRatio="none" x="0" y="0" viewBox="0 0 800 230"  >
<g label="Query sequence" class="clusterblast-cluster"  >
<text class="clusterblast-acc" y="20" x="5"  >
Query sequence</text>
<line x1="10" x2="778.0" y2="35" style="stroke-width:1; stroke:grey; " y1="35"  />
<polygon locus_tag="SSMG_04068" description="&lt;b&gt;SSMG_04068&lt;/b&gt;&lt;br&gt;predicted protein&lt;br&gt;Location: 4430591 - 4431389" points="225,40 226,40 231,35 226,30 225,30 225,40 " style="stroke-width:1; stroke:black; fill:white; " id="dummy-16_q0_0_all" class="clusterblast-orf"  />
<polygon locus_tag="SSMG_04069" description="&lt;b&gt;SSMG_04069&lt;/b&gt;&lt;br&gt;proline/betaine transporter&lt;br&gt;Location: 4431385 - 4432696" points="231,40 236,40 241,35 236,30 231,30 231,40 " style="stroke-width:1; stroke:black; fill:white; " id="dummy-16_q1_0_all" class="clusterblast-orf"  />
<polygon locus_tag="SSMG_04070" description="&lt;b&gt;SSMG_04070&lt;/b&gt;&lt;br&gt;predicted protein&lt;br&gt;Location: 4432692 - 4434222" points="241,40 247,40 252,35 247,30 241,30 241,40 " style="stroke-width:1; stroke:black; fill:white; " id="dummy-16_q2_0_all" class="clusterblast-orf"  />
<polygon locus_tag="SSMG_04071" description="&lt;b&gt;SSMG_04071&lt;/b&gt;&lt;br&gt;predicted protein&lt;br&gt;Location: 4434196 - 4436218" points="252,40 261,40 266,35 261,30 252,30 252,40 " style="stroke-width:1; stroke:black; fill:white; " id="dummy-16_q3_0_all" class="clusterblast-orf"  />
<polygon locus_tag="SSMG_04072" description="&lt;b&gt;SSMG_04072&lt;/b&gt;&lt;br&gt;predicted protein&lt;br&gt;Location: 4436425 - 4437238" points="268,35 273,30 274,30 274,40 273,40 268,35 " style="stroke-width:1; stroke:black; fill:white; " id="dummy-16_q4_0_all" class="clusterblast-orf"  />
<polygon locus_tag="SSMG_04073" description="&lt;b&gt;SSMG_04073&lt;/b&gt;&lt;br&gt;major facilitator superfamily transporter permease&lt;br&gt;Location: 4437234 - 4438521" points="273,35 278,30 283,30 283,40 278,40 273,35 " style="stroke-width:1; stroke:black; fill:white; " id="dummy-16_q5_0_all" class="clusterblast-orf"  />
<polygon locus_tag="SSMG_04074" description="&lt;b&gt;SSMG_04074&lt;/b&gt;&lt;br&gt;conserved hypothetical protein&lt;br&gt;Location: 4438628 - 4441787" points="284,40 301,40 306,35 301,30 284,30 284,40 " style="stroke-width:1; stroke:black; fill:white; " id="dummy-16_q6_0_all" class="clusterblast-orf"  />
<polygon locus_tag="SSMG_04075" description="&lt;b&gt;SSMG_04075&lt;/b&gt;&lt;br&gt;predicted protein&lt;br&gt;Location: 4442155 - 4443325" points="309,35 314,30 318,30 318,40 314,40 309,35 " style="stroke-width:1; stroke:black; fill:white; " id="dummy-16_q7_0_all" class="clusterblast-orf"  />
<polygon locus_tag="SSMG_04076" description="&lt;b&gt;SSMG_04076&lt;/b&gt;&lt;br&gt;acetyl coenzyme A synthetase&lt;br&gt;Location: 4443318 - 4445454" points="317,40 328,40 333,35 328,30 317,30 317,40 " style="stroke-width:1; stroke:black; fill:white; " id="dummy-16_q8_0_all" class="clusterblast-orf"  />
<polygon locus_tag="SSMG_04077" description="&lt;b&gt;SSMG_04077&lt;/b&gt;&lt;br&gt;predicted protein&lt;br&gt;Location: 4445446 - 4446766" points="333,40 337,40 342,35 337,30 333,30 333,40 " style="stroke-width:1; stroke:black; fill:white; " id="dummy-16_q9_0_all" class="clusterblast-orf"  />
<polygon locus_tag="SSMG_04078" description="&lt;b&gt;SSMG_04078&lt;/b&gt;&lt;br&gt;predicted protein&lt;br&gt;Location: 4446822 - 4448145" points="343,40 347,40 352,35 347,30 343,30 343,40 " style="stroke-width:1; stroke:black; fill:white; " id="dummy-16_q10_0_all" class="clusterblast-orf"  />
<polygon locus_tag="SSMG_04079" description="&lt;b&gt;SSMG_04079&lt;/b&gt;&lt;br&gt;predicted protein&lt;br&gt;Location: 4448144 - 4449326" points="352,40 356,40 361,35 356,30 352,30 352,40 " style="stroke-width:1; stroke:black; fill:white; " id="dummy-16_q11_0_all" class="clusterblast-orf"  />
<polygon locus_tag="SSMG_04080" description="&lt;b&gt;SSMG_04080&lt;/b&gt;&lt;br&gt;cytochrome P450&lt;br&gt;Location: 4449339 - 4450548" points="361,35 366,30 370,30 370,40 366,40 361,35 " style="stroke-width:1; stroke:black; fill:#d81515; " id="dummy-16_q12_0_all" class="clusterblast-orf"  />
<polygon locus_tag="SSMG_04081" description="&lt;b&gt;SSMG_04081&lt;/b&gt;&lt;br&gt;predicted protein&lt;br&gt;Location: 4450544 - 4456262" points="370,35 375,30 411,30 411,40 375,40 370,35 " style="stroke-width:1; stroke:black; fill:#15d8d8; " id="dummy-16_q13_0_all" class="clusterblast-orf"  />
<polygon locus_tag="SSMG_04082" description="&lt;b&gt;SSMG_04082&lt;/b&gt;&lt;br&gt;predicted protein&lt;br&gt;Location: 4456548 - 4457130" points="413,40 417,35 413,30 413,40 " style="stroke-width:1; stroke:black; fill:white; " id="dummy-16_q14_0_all" class="clusterblast-orf"  />
<polygon locus_tag="SSMG_04083" description="&lt;b&gt;SSMG_04083&lt;/b&gt;&lt;br&gt;translation elongation factor EF-1, subunit alpha&lt;br&gt;Location: 4457199 - 4459032" points="418,35 423,30 431,30 431,40 423,40 418,35 " style="stroke-width:1; stroke:black; fill:white; " id="dummy-16_q15_0_all" class="clusterblast-orf"  />
<polygon locus_tag="SSMG_04084" description="&lt;b&gt;SSMG_04084&lt;/b&gt;&lt;br&gt;sulfate adenylyltransferase subunit 2&lt;br&gt;Location: 4459028 - 4459946" points="431,35 436,30 438,30 438,40 436,40 431,35 " style="stroke-width:1; stroke:black; fill:white; " id="dummy-16_q16_0_all" class="clusterblast-orf"  />
<polygon locus_tag="SSMG_04085" description="&lt;b&gt;SSMG_04085&lt;/b&gt;&lt;br&gt;baiE protein&lt;br&gt;Location: 4460028 - 4460502" points="438,40 442,35 438,30 438,40 " style="stroke-width:1; stroke:black; fill:white; " id="dummy-16_q17_0_all" class="clusterblast-orf"  />
<polygon locus_tag="SSMG_04086" description="&lt;b&gt;SSMG_04086&lt;/b&gt;&lt;br&gt;transcriptional regulator&lt;br&gt;Location: 4460511 - 4461399" points="442,35 447,30 448,30 448,40 447,40 442,35 " style="stroke-width:1; stroke:black; fill:white; " id="dummy-16_q18_0_all" class="clusterblast-orf"  />
<polygon locus_tag="SSMG_04087" description="&lt;b&gt;SSMG_04087&lt;/b&gt;&lt;br&gt;conserved hypothetical protein&lt;br&gt;Location: 4461487 - 4462654" points="449,40 452,40 457,35 452,30 449,30 449,40 " style="stroke-width:1; stroke:black; fill:white; " id="dummy-16_q19_0_all" class="clusterblast-orf"  />
<polygon locus_tag="SSMG_04088" description="&lt;b&gt;SSMG_04088&lt;/b&gt;&lt;br&gt;3-oxoacyl-[acyl-carrier-protein] reductase&lt;br&gt;Location: 4462658 - 4463438" points="457,40 458,40 463,35 458,30 457,30 457,40 " style="stroke-width:1; stroke:black; fill:white; " id="dummy-16_q20_0_all" class="clusterblast-orf"  />
<polygon locus_tag="SSMG_04089" description="&lt;b&gt;SSMG_04089&lt;/b&gt;&lt;br&gt;conserved hypothetical protein&lt;br&gt;Location: 4463448 - 4464600" points="463,40 466,40 471,35 466,30 463,30 463,40 " style="stroke-width:1; stroke:black; fill:white; " id="dummy-16_q21_0_all" class="clusterblast-orf"  />
<polygon locus_tag="SSMG_04090" description="&lt;b&gt;SSMG_04090&lt;/b&gt;&lt;br&gt;predicted protein&lt;br&gt;Location: 4464580 - 4465225" points="471,40 471,40 476,35 471,30 471,30 471,40 " style="stroke-width:1; stroke:black; fill:white; " id="dummy-16_q22_0_all" class="clusterblast-orf"  />
<polygon locus_tag="SSMG_04091" description="&lt;b&gt;SSMG_04091&lt;/b&gt;&lt;br&gt;predicted protein&lt;br&gt;Location: 4465316 - 4469924" points="476,35 481,30 510,30 510,40 481,40 476,35 " style="stroke-width:1; stroke:black; fill:white; " id="dummy-16_q23_0_all" class="clusterblast-orf"  />
<polygon locus_tag="SSMG_04092" description="&lt;b&gt;SSMG_04092&lt;/b&gt;&lt;br&gt;conserved hypothetical protein&lt;br&gt;Location: 4470040 - 4470820" points="511,35 516,30 516,30 516,40 516,40 511,35 " style="stroke-width:1; stroke:black; fill:white; " id="dummy-16_q24_0_all" class="clusterblast-orf"  />
<polygon locus_tag="SSMG_04093" description="&lt;b&gt;SSMG_04093&lt;/b&gt;&lt;br&gt;predicted protein&lt;br&gt;Location: 4471112 - 4471874" points="518,40 519,40 524,35 519,30 518,30 518,40 " style="stroke-width:1; stroke:black; fill:white; " id="dummy-16_q25_0_all" class="clusterblast-orf"  />
<polygon locus_tag="SSMG_04094" description="&lt;b&gt;SSMG_04094&lt;/b&gt;&lt;br&gt;NUDIX hydrolase&lt;br&gt;Location: 4471920 - 4472331" points="524,40 527,35 524,30 524,40 " style="stroke-width:1; stroke:black; fill:white; " id="dummy-16_q26_0_all" class="clusterblast-orf"  />
<polygon locus_tag="SSMG_04095" description="&lt;b&gt;SSMG_04095&lt;/b&gt;&lt;br&gt;5-oxoprolinase&lt;br&gt;Location: 4472373 - 4473963" points="527,35 532,30 539,30 539,40 532,40 527,35 " style="stroke-width:1; stroke:black; fill:white; " id="dummy-16_q27_0_all" class="clusterblast-orf"  />
<polygon locus_tag="SSMG_04096" description="&lt;b&gt;SSMG_04096&lt;/b&gt;&lt;br&gt;5-oxoprolinase&lt;br&gt;Location: 4473959 - 4475999" points="539,35 544,30 554,30 554,40 544,40 539,35 " style="stroke-width:1; stroke:black; fill:white; " id="dummy-16_q28_0_all" class="clusterblast-orf"  />
</g>
<g label="BGC0001303" description="BGC0001303_c1: lobosamide A / lobosamide B / lobosamide C (13% of genes show similarity), Polyketide" class="clusterblast-cluster"  >
<text class="clusterblast-acc" y="70" x="5"  >
<a xlink:href="https://mibig.secondarymetabolites.org/go/BGC0001303/1" target="_blank">BGC0001303</a>:                                       lobosamide A / lobosamide B / lobosamide C (13% of genes show similarity), Polyketide</text>
<line x1="10" x2="778.0" y2="85" style="stroke-width:1; stroke:grey; " y1="85"  />
</g>
<g id="a16_000"  >
<polygon locus_tag="ALA09384.1" description="&lt;b&gt;ALA09384.1&lt;/b&gt;&lt;br&gt;hypothetical protein&lt;br&gt;Location: 108348 - 107488" points="0,85 5,80 6,80 6,90 5,90 0,85 " style="stroke-width:1; stroke:black; fill:white; " id="dummy-16_h16_1_0" class="clusterblast-orf"  />
</g>
<g id="a16_001"  >
<polygon locus_tag="ALA09383.1" description="&lt;b&gt;ALA09383.1&lt;/b&gt;&lt;br&gt;hypothetical protein&lt;br&gt;Location: 107378 - 106356" points="7,85 12,80 14,80 14,90 12,90 7,85 " style="stroke-width:1; stroke:black; fill:white; " id="dummy-16_h16_1_1" class="clusterblast-orf"  />
</g>
<g id="a16_002"  >
<polygon locus_tag="ALA09382.1" description="&lt;b&gt;ALA09382.1&lt;/b&gt;&lt;br&gt;hypothetical protein&lt;br&gt;Location: 106345 - 104444" points="14,85 19,80 28,80 28,90 19,90 14,85 " style="stroke-width:1; stroke:black; fill:white; " id="dummy-16_h16_1_2" class="clusterblast-orf"  />
</g>
<g id="a16_003"  >
<polygon locus_tag="ALA09381.1" description="&lt;b&gt;ALA09381.1&lt;/b&gt;&lt;br&gt;serine/threonine protein kinase&lt;br&gt;Location: 104091 - 102577" points="30,90 36,90 41,85 36,80 30,80 30,90 " style="stroke-width:1; stroke:black; fill:white; " id="dummy-16_h16_1_3" class="clusterblast-orf"  />
</g>
<g id="a16_004"  >
<polygon locus_tag="ALA09380.1" description="&lt;b&gt;ALA09380.1&lt;/b&gt;&lt;br&gt;sensor histidine kinase&lt;br&gt;Location: 102580 - 101255" points="41,90 46,90 51,85 46,80 41,80 41,90 " style="stroke-width:1; stroke:black; fill:white; " id="dummy-16_h16_1_4" class="clusterblast-orf"  />
</g>
<g id="a16_005"  >
<polygon locus_tag="ALA09379.1" description="&lt;b&gt;ALA09379.1&lt;/b&gt;&lt;br&gt;LuxR family DNA-binding response regulator&lt;br&gt;Location: 101246 - 100629" points="51,90 55,85 51,80 51,90 " style="stroke-width:1; stroke:black; fill:white; " id="dummy-16_h16_1_5" class="clusterblast-orf"  />
</g>
<g id="a16_006"  >
<polygon locus_tag="ALA09378.1" description="&lt;b&gt;ALA09378.1&lt;/b&gt;&lt;br&gt;ABC transporter&lt;br&gt;Location: 100428 - 97864" points="57,85 62,80 75,80 75,90 62,90 57,85 " style="stroke-width:1; stroke:black; fill:white; " id="dummy-16_h16_1_6" class="clusterblast-orf"  />
</g>
<g id="a16_007"  >
<polygon locus_tag="ALA09377.1" description="&lt;b&gt;ALA09377.1&lt;/b&gt;&lt;br&gt;ABC transporter&lt;br&gt;Location: 97864 - 97058" points="75,85 80,80 81,80 81,90 80,90 75,85 " style="stroke-width:1; stroke:black; fill:white; " id="dummy-16_h16_1_7" class="clusterblast-orf"  />
</g>
<g id="a16_008"  >
<polygon locus_tag="ALA09376.1" description="&lt;b&gt;ALA09376.1&lt;/b&gt;&lt;br&gt;transcriptional regulator&lt;br&gt;Location: 96917 - 96015" points="82,85 87,80 89,80 89,90 87,90 82,85 " style="stroke-width:1; stroke:black; fill:white; " id="dummy-16_h16_1_8" class="clusterblast-orf"  />
</g>
<g id="a16_009"  >
<polygon locus_tag="ALA09375.1" description="&lt;b&gt;ALA09375.1&lt;/b&gt;&lt;br&gt;transcriptional regulator&lt;br&gt;Location: 96030 - 94084" points="89,85 94,80 103,80 103,90 94,90 89,85 " style="stroke-width:1; stroke:black; fill:white; " id="dummy-16_h16_1_9" class="clusterblast-orf"  />
</g>
<g id="a16_0010"  >
<polygon locus_tag="ALA09374.1" description="&lt;b&gt;ALA09374.1&lt;/b&gt;&lt;br&gt;thioesterase&lt;br&gt;Location: 92804 - 92169" points="112,85 116,80 116,90 112,85 " style="stroke-width:1; stroke:black; fill:white; " id="dummy-16_h16_1_10" class="clusterblast-orf"  />
</g>
<g id="a16_0011"  >
<polygon locus_tag="ALA09373.1" description="&lt;b&gt;ALA09373.1&lt;/b&gt;&lt;br&gt;drug resistance transporter EmrB/QacA&lt;br&gt;Location: 91712 - 89979" points="120,85 125,80 132,80 132,90 125,90 120,85 " style="stroke-width:1; stroke:black; fill:white; " id="dummy-16_h16_1_11" class="clusterblast-orf"  />
</g>
<g id="a16_0012"  >
<polygon locus_tag="ALA09372.1" description="&lt;b&gt;ALA09372.1&lt;/b&gt;&lt;br&gt;transcriptional regulator&lt;br&gt;Location: 89897 - 89289" points="133,90 137,85 133,80 133,90 " style="stroke-width:1; stroke:black; fill:white; " id="dummy-16_h16_1_12" class="clusterblast-orf"  />
</g>
<g id="a16_0013"  >
<polygon locus_tag="ALA09371.1" description="&lt;b&gt;ALA09371.1&lt;/b&gt;&lt;br&gt;type I modular PKS&lt;br&gt;Location: 88672 - 67391&lt;br&gt;&lt;br&gt;&lt;b&gt;BlastP hit with SSMG_04081&lt;/b&gt;&lt;br&gt;Percentage identity: 50&lt;br&gt;Percentage coverage: 93&lt;br&gt;BLAST bit score: 1384&lt;br&gt;E-value: 0.0" points="142,85 147,80 295,80 295,90 147,90 142,85 " style="stroke-width:1; stroke:black; fill:#15d8d8; " id="dummy-16_h16_1_13" class="clusterblast-orf"  />
</g>
<g id="a16_0014"  >
<polygon locus_tag="ALA09370.1" description="&lt;b&gt;ALA09370.1&lt;/b&gt;&lt;br&gt;cytochrome P450&lt;br&gt;Location: 67021 - 65834&lt;br&gt;&lt;br&gt;&lt;b&gt;BlastP hit with SSMG_04080&lt;/b&gt;&lt;br&gt;Percentage identity: 51&lt;br&gt;Percentage coverage: 98&lt;br&gt;BLAST bit score: 380&lt;br&gt;E-value: 2.9e-105" points="298,85 303,80 307,80 307,90 303,90 298,85 " style="stroke-width:1; stroke:black; fill:#d81515; " id="dummy-16_h16_1_14" class="clusterblast-orf"  />
</g>
<g id="a16_0015"  >
<polygon locus_tag="ALA09369.1" description="&lt;b&gt;ALA09369.1&lt;/b&gt;&lt;br&gt;glutamate 2,3- aminomutase&lt;br&gt;Location: 65476 - 64130" points="309,90 314,90 319,85 314,80 309,80 309,90 " style="stroke-width:1; stroke:black; fill:white; " id="dummy-16_h16_1_15" class="clusterblast-orf"  />
</g>
<g id="a16_0016"  >
<polygon locus_tag="ALA09368.1" description="&lt;b&gt;ALA09368.1&lt;/b&gt;&lt;br&gt;aminotransferase&lt;br&gt;Location: 64101 - 62845" points="319,90 323,90 328,85 323,80 319,80 319,90 " style="stroke-width:1; stroke:black; fill:white; " id="dummy-16_h16_1_16" class="clusterblast-orf"  />
</g>
<g id="a16_0017"  >
<polygon locus_tag="ALA09367.1" description="&lt;b&gt;ALA09367.1&lt;/b&gt;&lt;br&gt;amalonyl CoA-acyl carrier protein transacylase&lt;br&gt;Location: 62776 - 61847" points="329,90 331,90 336,85 331,80 329,80 329,90 " style="stroke-width:1; stroke:black; fill:white; " id="dummy-16_h16_1_17" class="clusterblast-orf"  />
</g>
<g id="a16_0018"  >
<polygon locus_tag="ALA09366.1" description="&lt;b&gt;ALA09366.1&lt;/b&gt;&lt;br&gt;AMP-dependent synthetase and ligase&lt;br&gt;Location: 61821 - 60277" points="336,90 342,90 347,85 342,80 336,80 336,90 " style="stroke-width:1; stroke:black; fill:white; " id="dummy-16_h16_1_18" class="clusterblast-orf"  />
</g>
<g id="a16_0019"  >
<polygon locus_tag="ALA09365.1" description="&lt;b&gt;ALA09365.1&lt;/b&gt;&lt;br&gt;AMP-dependent synthetase and ligase&lt;br&gt;Location: 60135 - 58576" points="348,85 353,80 359,80 359,90 353,90 348,85 " style="stroke-width:1; stroke:black; fill:white; " id="dummy-16_h16_1_19" class="clusterblast-orf"  />
</g>
<g id="a16_0020"  >
<polygon locus_tag="ALA09364.1" description="&lt;b&gt;ALA09364.1&lt;/b&gt;&lt;br&gt;ACP starter unit biosynthesis protein&lt;br&gt;Location: 58381 - 58127" points="361,90 362,85 361,80 361,90 " style="stroke-width:1; stroke:black; fill:white; " id="dummy-16_h16_1_20" class="clusterblast-orf"  />
</g>
<g id="a16_0021"  >
<polygon locus_tag="ALA09363.1" description="&lt;b&gt;ALA09363.1&lt;/b&gt;&lt;br&gt;aldo/keto reductase family oxidoreductase&lt;br&gt;Location: 58061 - 57294" points="363,85 368,80 368,80 368,90 368,90 363,85 " style="stroke-width:1; stroke:black; fill:white; " id="dummy-16_h16_1_21" class="clusterblast-orf"  />
</g>
<g id="a16_0022"  >
<polygon locus_tag="ALA09362.1" description="&lt;b&gt;ALA09362.1&lt;/b&gt;&lt;br&gt;aldo/keto reductase family oxidoreductase&lt;br&gt;Location: 57294 - 57151" points="368,85 369,80 369,90 368,85 " style="stroke-width:1; stroke:black; fill:white; " id="dummy-16_h16_1_22" class="clusterblast-orf"  />
</g>
<g id="a16_0023"  >
<polygon locus_tag="ALA09361.1" description="&lt;b&gt;ALA09361.1&lt;/b&gt;&lt;br&gt;transcriptional regulator&lt;br&gt;Location: 57075 - 56632" points="370,90 373,85 370,80 370,90 " style="stroke-width:1; stroke:black; fill:white; " id="dummy-16_h16_1_23" class="clusterblast-orf"  />
</g>
<g id="a16_0024"  >
<polygon locus_tag="ALA09360.1" description="&lt;b&gt;ALA09360.1&lt;/b&gt;&lt;br&gt;peptidase&lt;br&gt;Location: 56519 - 55614" points="374,85 379,80 381,80 381,90 379,90 374,85 " style="stroke-width:1; stroke:black; fill:white; " id="dummy-16_h16_1_24" class="clusterblast-orf"  />
</g>
<g id="a16_0025"  >
<polygon locus_tag="ALA09359.1" description="&lt;b&gt;ALA09359.1&lt;/b&gt;&lt;br&gt;type I modular PKS&lt;br&gt;Location: 55590 - 53029" points="381,85 386,80 399,80 399,90 386,90 381,85 " style="stroke-width:1; stroke:black; fill:white; " id="dummy-16_h16_1_25" class="clusterblast-orf"  />
</g>
<g id="a16_0026"  >
<polygon locus_tag="ALA09358.1" description="&lt;b&gt;ALA09358.1&lt;/b&gt;&lt;br&gt;type I modular PKS&lt;br&gt;Location: 52861 - 48338&lt;br&gt;&lt;br&gt;&lt;b&gt;BlastP hit with SSMG_04081&lt;/b&gt;&lt;br&gt;Percentage identity: 53&lt;br&gt;Percentage coverage: 52&lt;br&gt;BLAST bit score: 937&lt;br&gt;E-value: 3.8e-272" points="401,85 406,80 433,80 433,90 406,90 401,85 " style="stroke-width:1; stroke:black; fill:#15d8d8; " id="dummy-16_h16_1_26" class="clusterblast-orf"  />
</g>
<g id="a16_0027"  >
<polygon locus_tag="ALA09357.1" description="&lt;b&gt;ALA09357.1&lt;/b&gt;&lt;br&gt;type I modular PKS&lt;br&gt;Location: 48341 - 39402&lt;br&gt;&lt;br&gt;&lt;b&gt;BlastP hit with SSMG_04081&lt;/b&gt;&lt;br&gt;Percentage identity: 47&lt;br&gt;Percentage coverage: 92&lt;br&gt;BLAST bit score: 1279&lt;br&gt;E-value: 0.0" points="433,85 438,80 498,80 498,90 438,90 433,85 " style="stroke-width:1; stroke:black; fill:#15d8d8; " id="dummy-16_h16_1_27" class="clusterblast-orf"  />
</g>
<g id="a16_0028"  >
<polygon locus_tag="ALA09356.1" description="&lt;b&gt;ALA09356.1&lt;/b&gt;&lt;br&gt;type I modular PKS&lt;br&gt;Location: 39342 - 34582" points="498,85 503,80 533,80 533,90 503,90 498,85 " style="stroke-width:1; stroke:black; fill:white; " id="dummy-16_h16_1_28" class="clusterblast-orf"  />
</g>
<g id="a16_0029"  >
<polygon locus_tag="ALA09355.1" description="&lt;b&gt;ALA09355.1&lt;/b&gt;&lt;br&gt;type I modular PKS&lt;br&gt;Location: 34541 - 25497&lt;br&gt;&lt;br&gt;&lt;b&gt;BlastP hit with SSMG_04081&lt;/b&gt;&lt;br&gt;Percentage identity: 53&lt;br&gt;Percentage coverage: 46&lt;br&gt;BLAST bit score: 799&lt;br&gt;E-value: 1.6e-230" points="533,85 538,80 598,80 598,90 538,90 533,85 " style="stroke-width:1; stroke:black; fill:#15d8d8; " id="dummy-16_h16_1_29" class="clusterblast-orf"  />
</g>
<g id="a16_0030"  >
<polygon locus_tag="ALA09354.1" description="&lt;b&gt;ALA09354.1&lt;/b&gt;&lt;br&gt;type I modular PKS&lt;br&gt;Location: 25313 - 20001&lt;br&gt;&lt;br&gt;&lt;b&gt;BlastP hit with SSMG_04081&lt;/b&gt;&lt;br&gt;Percentage identity: 48&lt;br&gt;Percentage coverage: 88&lt;br&gt;BLAST bit score: 1248&lt;br&gt;E-value: 0.0" points="600,85 605,80 638,80 638,90 605,90 600,85 " style="stroke-width:1; stroke:black; fill:#15d8d8; " id="dummy-16_h16_1_30" class="clusterblast-orf"  />
</g>
<g id="a16_0031"  >
<polygon locus_tag="ALA09353.1" description="&lt;b&gt;ALA09353.1&lt;/b&gt;&lt;br&gt;hypothetical protein&lt;br&gt;Location: 19654 - 18407" points="640,85 645,80 650,80 650,90 645,90 640,85 " style="stroke-width:1; stroke:black; fill:white; " id="dummy-16_h16_1_31" class="clusterblast-orf"  />
</g>
<g id="a16_0032"  >
<polygon locus_tag="ALA09352.1" description="&lt;b&gt;ALA09352.1&lt;/b&gt;&lt;br&gt;hypothetical protein&lt;br&gt;Location: 18082 - 17864" points="652,85 653,80 653,90 652,85 " style="stroke-width:1; stroke:black; fill:white; " id="dummy-16_h16_1_32" class="clusterblast-orf"  />
</g>
<g id="a16_0033"  >
<polygon locus_tag="ALA09351.1" description="&lt;b&gt;ALA09351.1&lt;/b&gt;&lt;br&gt;hypothetical protein&lt;br&gt;Location: 17787 - 16699" points="654,85 659,80 662,80 662,90 659,90 654,85 " style="stroke-width:1; stroke:black; fill:white; " id="dummy-16_h16_1_33" class="clusterblast-orf"  />
</g>
<g id="a16_0034"  >
<polygon locus_tag="ALA09350.1" description="&lt;b&gt;ALA09350.1&lt;/b&gt;&lt;br&gt;hypothetical protein&lt;br&gt;Location: 16498 - 15911" points="663,85 668,80 668,80 668,90 668,90 663,85 " style="stroke-width:1; stroke:black; fill:white; " id="dummy-16_h16_1_34" class="clusterblast-orf"  />
</g>
<g id="a16_0035"  >
<polygon locus_tag="ALA09349.1" description="&lt;b&gt;ALA09349.1&lt;/b&gt;&lt;br&gt;hypothetical protein&lt;br&gt;Location: 15792 - 14779" points="668,85 673,80 676,80 676,90 673,90 668,85 " style="stroke-width:1; stroke:black; fill:white; " id="dummy-16_h16_1_35" class="clusterblast-orf"  />
</g>
<g id="a16_0036"  >
<polygon locus_tag="ALA09348.1" description="&lt;b&gt;ALA09348.1&lt;/b&gt;&lt;br&gt;hypothetical protein&lt;br&gt;Location: 14782 - 14510" points="676,85 678,80 678,90 676,85 " style="stroke-width:1; stroke:black; fill:white; " id="dummy-16_h16_1_36" class="clusterblast-orf"  />
</g>
<g id="a16_0037"  >
<polygon locus_tag="ALA09347.1" description="&lt;b&gt;ALA09347.1&lt;/b&gt;&lt;br&gt;hypothetical protein&lt;br&gt;Location: 14393 - 13704" points="679,90 683,85 679,80 679,90 " style="stroke-width:1; stroke:black; fill:white; " id="dummy-16_h16_1_37" class="clusterblast-orf"  />
</g>
<g id="a16_0038"  >
<polygon locus_tag="ALA09346.1" description="&lt;b&gt;ALA09346.1&lt;/b&gt;&lt;br&gt;hypothetical protein&lt;br&gt;Location: 13499 - 8034" points="685,90 719,90 724,85 719,80 685,80 685,90 " style="stroke-width:1; stroke:black; fill:white; " id="dummy-16_h16_1_38" class="clusterblast-orf"  />
</g>
<g id="a16_0039"  >
<polygon locus_tag="ALA09345.1" description="&lt;b&gt;ALA09345.1&lt;/b&gt;&lt;br&gt;hypothetical protein&lt;br&gt;Location: 7495 - 5843" points="728,85 733,80 740,80 740,90 733,90 728,85 " style="stroke-width:1; stroke:black; fill:white; " id="dummy-16_h16_1_39" class="clusterblast-orf"  />
</g>
<g id="a16_0040"  >
<polygon locus_tag="ALA09344.1" description="&lt;b&gt;ALA09344.1&lt;/b&gt;&lt;br&gt;hypothetical protein&lt;br&gt;Location: 5670 - 4906" points="742,85 747,80 747,80 747,90 747,90 742,85 " style="stroke-width:1; stroke:black; fill:white; " id="dummy-16_h16_1_40" class="clusterblast-orf"  />
</g>
<g id="a16_0041"  >
<polygon locus_tag="ALA09343.1" description="&lt;b&gt;ALA09343.1&lt;/b&gt;&lt;br&gt;hypothetical protein&lt;br&gt;Location: 4882 - 3854" points="747,85 752,80 755,80 755,90 752,90 747,85 " style="stroke-width:1; stroke:black; fill:white; " id="dummy-16_h16_1_41" class="clusterblast-orf"  />
</g>
<g id="a16_0042"  >
<polygon locus_tag="ALA09342.1" description="&lt;b&gt;ALA09342.1&lt;/b&gt;&lt;br&gt;hypothetical protein&lt;br&gt;Location: 3823 - 3452" points="755,85 758,80 758,90 755,85 " style="stroke-width:1; stroke:black; fill:white; " id="dummy-16_h16_1_42" class="clusterblast-orf"  />
</g>
<g id="a16_0043"  >
<polygon locus_tag="ALA09341.1" description="&lt;b&gt;ALA09341.1&lt;/b&gt;&lt;br&gt;hypothetical protein&lt;br&gt;Location: 3470 - 2643" points="757,85 762,80 763,80 763,90 762,90 757,85 " style="stroke-width:1; stroke:black; fill:white; " id="dummy-16_h16_1_43" class="clusterblast-orf"  />
</g>
<g id="a16_0044"  >
<polygon locus_tag="ALA09340.1" description="&lt;b&gt;ALA09340.1&lt;/b&gt;&lt;br&gt;hypothetical protein&lt;br&gt;Location: 2462 - 1515" points="765,90 767,90 772,85 767,80 765,80 765,90 " style="stroke-width:1; stroke:black; fill:white; " id="dummy-16_h16_1_44" class="clusterblast-orf"  />
</g>
<g id="a16_0045"  >
<polygon locus_tag="ALA09339.1" description="&lt;b&gt;ALA09339.1&lt;/b&gt;&lt;br&gt;hypothetical protein&lt;br&gt;Location: 1432 - 419" points="772,90 775,90 780,85 775,80 772,80 772,90 " style="stroke-width:1; stroke:black; fill:white; " id="dummy-16_h16_1_45" class="clusterblast-orf"  />
</g>
</svg>
