<svg version="1.1" xmlns="http://www.w3.org/2000/svg" height="230" width="800" xmlns:xlink="http://www.w3.org/1999/xlink" preserveAspectRatio="none" x="0" y="0" viewBox="0 0 800 230"  >
<g label="Query sequence" class="clusterblast-cluster"  >
<text class="clusterblast-acc" y="20" x="5"  >
Query sequence</text>
<line x1="10" x2="778.0" y2="35" style="stroke-width:1; stroke:grey; " y1="35"  />
<polygon locus_tag="SSMG_00995" description="&lt;b&gt;SSMG_00995&lt;/b&gt;&lt;br&gt;predicted protein&lt;br&gt;Location: 1052056 - 1052755" points="291,40 292,40 297,35 292,30 291,30 291,40 " style="stroke-width:1; stroke:black; fill:white; " id="dummy-3_q0_0_all" class="clusterblast-orf"  />
<polygon locus_tag="SSMG_00996" description="&lt;b&gt;SSMG_00996&lt;/b&gt;&lt;br&gt;cytochrome P450 hydroxylase&lt;br&gt;Location: 1052894 - 1054115" points="299,40 305,40 310,35 305,30 299,30 299,40 " style="stroke-width:1; stroke:black; fill:#d81515; " id="dummy-3_q1_0_all" class="clusterblast-orf"  />
<polygon locus_tag="SSMG_00997" description="&lt;b&gt;SSMG_00997&lt;/b&gt;&lt;br&gt;transposase IS116/IS110/IS902 family protein&lt;br&gt;Location: 1054138 - 1055371" points="311,35 316,30 322,30 322,40 316,40 311,35 " style="stroke-width:1; stroke:black; fill:white; " id="dummy-3_q2_0_all" class="clusterblast-orf"  />
<polygon locus_tag="SSMG_00998" description="&lt;b&gt;SSMG_00998&lt;/b&gt;&lt;br&gt;predicted protein&lt;br&gt;Location: 1055392 - 1055722" points="323,40 326,35 323,30 323,40 " style="stroke-width:1; stroke:black; fill:white; " id="dummy-3_q3_0_all" class="clusterblast-orf"  />
<polygon locus_tag="SSMG_00999" description="&lt;b&gt;SSMG_00999&lt;/b&gt;&lt;br&gt;predicted protein&lt;br&gt;Location: 1055732 - 1055927" points="326,40 328,35 326,30 326,40 " style="stroke-width:1; stroke:black; fill:#15d863; " id="dummy-3_q4_0_all" class="clusterblast-orf"  />
<polygon locus_tag="SSMG_01000" description="&lt;b&gt;SSMG_01000&lt;/b&gt;&lt;br&gt;transcriptional regulator&lt;br&gt;Location: 1055976 - 1056777" points="328,40 331,40 336,35 331,30 328,30 328,40 " style="stroke-width:1; stroke:black; fill:white; " id="dummy-3_q5_0_all" class="clusterblast-orf"  />
<polygon locus_tag="SSMG_01001" description="&lt;b&gt;SSMG_01001&lt;/b&gt;&lt;br&gt;methyltransferase type 11&lt;br&gt;Location: 1056742 - 1057531" points="335,35 340,30 343,30 343,40 340,40 335,35 " style="stroke-width:1; stroke:black; fill:white; " id="dummy-3_q6_0_all" class="clusterblast-orf"  />
<polygon locus_tag="SSMG_01002" description="&lt;b&gt;SSMG_01002&lt;/b&gt;&lt;br&gt;predicted protein&lt;br&gt;Location: 1057505 - 1057736" points="343,35 345,30 345,40 343,35 " style="stroke-width:1; stroke:black; fill:white; " id="dummy-3_q7_0_all" class="clusterblast-orf"  />
<polygon locus_tag="SSMG_01003" description="&lt;b&gt;SSMG_01003&lt;/b&gt;&lt;br&gt;glutaredoxin&lt;br&gt;Location: 1057732 - 1057972" points="345,35 347,30 347,40 345,35 " style="stroke-width:1; stroke:black; fill:white; " id="dummy-3_q8_0_all" class="clusterblast-orf"  />
<polygon locus_tag="SSMG_01004" description="&lt;b&gt;SSMG_01004&lt;/b&gt;&lt;br&gt;predicted protein&lt;br&gt;Location: 1057968 - 1060089" points="347,35 352,30 367,30 367,40 352,40 347,35 " style="stroke-width:1; stroke:black; fill:#1563d8; " id="dummy-3_q9_0_all" class="clusterblast-orf"  />
<polygon locus_tag="SSMG_01005" description="&lt;b&gt;SSMG_01005&lt;/b&gt;&lt;br&gt;predicted protein&lt;br&gt;Location: 1060085 - 1060751" points="367,35 372,30 374,30 374,40 372,40 367,35 " style="stroke-width:1; stroke:black; fill:white; " id="dummy-3_q10_0_all" class="clusterblast-orf"  />
<polygon locus_tag="SSMG_01006" description="&lt;b&gt;SSMG_01006&lt;/b&gt;&lt;br&gt;predicted protein&lt;br&gt;Location: 1060669 - 1061392" points="373,35 378,30 380,30 380,40 378,40 373,35 " style="stroke-width:1; stroke:black; fill:#b115d8; " id="dummy-3_q11_0_all" class="clusterblast-orf"  />
<polygon locus_tag="SSMG_01007" description="&lt;b&gt;SSMG_01007&lt;/b&gt;&lt;br&gt;terpene synthase&lt;br&gt;Location: 1061718 - 1063962" points="383,35 388,30 404,30 404,40 388,40 383,35 " style="stroke-width:1; stroke:black; fill:#b1d815; " id="dummy-3_q12_0_all" class="clusterblast-orf"  />
<polygon locus_tag="SSMG_01008" description="&lt;b&gt;SSMG_01008&lt;/b&gt;&lt;br&gt;conserved hypothetical protein&lt;br&gt;Location: 1064394 - 1065990" points="408,40 419,40 424,35 419,30 408,30 408,40 " style="stroke-width:1; stroke:black; fill:white; " id="dummy-3_q13_0_all" class="clusterblast-orf"  />
<polygon locus_tag="SSMG_01009" description="&lt;b&gt;SSMG_01009&lt;/b&gt;&lt;br&gt;hydrolase&lt;br&gt;Location: 1066040 - 1068095" points="424,35 429,30 444,30 444,40 429,40 424,35 " style="stroke-width:1; stroke:black; fill:white; " id="dummy-3_q14_0_all" class="clusterblast-orf"  />
<polygon locus_tag="SSMG_01010" description="&lt;b&gt;SSMG_01010&lt;/b&gt;&lt;br&gt;sugar transport integral membrane protein&lt;br&gt;Location: 1068101 - 1068971" points="444,35 449,30 452,30 452,40 449,40 444,35 " style="stroke-width:1; stroke:black; fill:white; " id="dummy-3_q15_0_all" class="clusterblast-orf"  />
<polygon locus_tag="SSMG_01011" description="&lt;b&gt;SSMG_01011&lt;/b&gt;&lt;br&gt;sugar transport integral membrane protein&lt;br&gt;Location: 1068972 - 1069923" points="452,35 457,30 461,30 461,40 457,40 452,35 " style="stroke-width:1; stroke:black; fill:white; " id="dummy-3_q16_0_all" class="clusterblast-orf"  />
<polygon locus_tag="SSMG_01012" description="&lt;b&gt;SSMG_01012&lt;/b&gt;&lt;br&gt;sugar transport sugar binding protein&lt;br&gt;Location: 1069919 - 1071305" points="461,35 466,30 474,30 474,40 466,40 461,35 " style="stroke-width:1; stroke:black; fill:white; " id="dummy-3_q17_0_all" class="clusterblast-orf"  />
<polygon locus_tag="SSMG_01013" description="&lt;b&gt;SSMG_01013&lt;/b&gt;&lt;br&gt;catabolite control protein A&lt;br&gt;Location: 1071441 - 1072476" points="476,40 480,40 485,35 480,30 476,30 476,40 " style="stroke-width:1; stroke:black; fill:white; " id="dummy-3_q18_0_all" class="clusterblast-orf"  />
<polygon locus_tag="SSMG_01014" description="&lt;b&gt;SSMG_01014&lt;/b&gt;&lt;br&gt;predicted protein&lt;br&gt;Location: 1072468 - 1072789" points="485,40 488,35 485,30 485,40 " style="stroke-width:1; stroke:black; fill:white; " id="dummy-3_q19_0_all" class="clusterblast-orf"  />
</g>
<g label="BGC0001939" description="BGC0001939_c1: streptoseomycin (4% of genes show similarity), Polyketide" class="clusterblast-cluster"  >
<text class="clusterblast-acc" y="70" x="5"  >
<a xlink:href="https://mibig.secondarymetabolites.org/go/BGC0001939/1" target="_blank">BGC0001939</a>:                                                                  streptoseomycin (4% of genes show similarity), Polyketide</text>
<line x1="10" x2="778.0" y2="85" style="stroke-width:1; stroke:grey; " y1="85"  />
</g>
<g id="a3_000"  >
<polygon locus_tag="AWH12943.1" description="&lt;b&gt;AWH12943.1&lt;/b&gt;&lt;br&gt;crotonyl-CoA reductase/carboxylase&lt;br&gt;Location: 81870 - 80533" points="0,90 7,90 12,85 7,80 0,80 0,90 " style="stroke-width:1; stroke:black; fill:white; " id="dummy-3_h3_5_0" class="clusterblast-orf"  />
</g>
<g id="a3_001"  >
<polygon locus_tag="AWH12942.1" description="&lt;b&gt;AWH12942.1&lt;/b&gt;&lt;br&gt;monooxygenase&lt;br&gt;Location: 80454 - 79942" points="13,90 13,90 18,85 13,80 13,80 13,90 " style="stroke-width:1; stroke:black; fill:white; " id="dummy-3_h3_5_1" class="clusterblast-orf"  />
</g>
<g id="a3_002"  >
<polygon locus_tag="AWH12941.1" description="&lt;b&gt;AWH12941.1&lt;/b&gt;&lt;br&gt;HTH-type transcriptional regulator&lt;br&gt;Location: 79881 - 78949" points="18,85 23,80 27,80 27,90 23,90 18,85 " style="stroke-width:1; stroke:black; fill:white; " id="dummy-3_h3_5_2" class="clusterblast-orf"  />
</g>
<g id="a3_003"  >
<polygon locus_tag="AWH12940.1" description="&lt;b&gt;AWH12940.1&lt;/b&gt;&lt;br&gt;StmO3&lt;br&gt;Location: 78623 - 77811" points="30,90 33,90 38,85 33,80 30,80 30,90 " style="stroke-width:1; stroke:black; fill:white; " id="dummy-3_h3_5_3" class="clusterblast-orf"  />
</g>
<g id="a3_004"  >
<polygon locus_tag="AWH12939.1" description="&lt;b&gt;AWH12939.1&lt;/b&gt;&lt;br&gt;StmX&lt;br&gt;Location: 77814 - 77179" points="38,90 39,90 44,85 39,80 38,80 38,90 " style="stroke-width:1; stroke:black; fill:white; " id="dummy-3_h3_5_4" class="clusterblast-orf"  />
</g>
<g id="a3_005"  >
<polygon locus_tag="AWH12938.1" description="&lt;b&gt;AWH12938.1&lt;/b&gt;&lt;br&gt;StmC&lt;br&gt;Location: 76847 - 65850" points="47,85 52,80 152,80 152,90 52,90 47,85 " style="stroke-width:1; stroke:black; fill:white; " id="dummy-3_h3_5_5" class="clusterblast-orf"  />
</g>
<g id="a3_006"  >
<polygon locus_tag="AWH12937.1" description="&lt;b&gt;AWH12937.1&lt;/b&gt;&lt;br&gt;StmB&lt;br&gt;Location: 65834 - 51498" points="152,85 157,80 289,80 289,90 157,90 152,85 " style="stroke-width:1; stroke:black; fill:white; " id="dummy-3_h3_5_6" class="clusterblast-orf"  />
</g>
<g id="a3_007"  >
<polygon locus_tag="AWH12936.1" description="&lt;b&gt;AWH12936.1&lt;/b&gt;&lt;br&gt;StmA&lt;br&gt;Location: 51451 - 33551" points="289,85 294,80 460,80 460,90 294,90 289,85 " style="stroke-width:1; stroke:black; fill:white; " id="dummy-3_h3_5_7" class="clusterblast-orf"  />
</g>
<g id="a3_008"  >
<polygon locus_tag="AWH12935.1" description="&lt;b&gt;AWH12935.1&lt;/b&gt;&lt;br&gt;StmF1&lt;br&gt;Location: 33148 - 32945" points="464,90 466,85 464,80 464,90 " style="stroke-width:1; stroke:black; fill:white; " id="dummy-3_h3_5_8" class="clusterblast-orf"  />
</g>
<g id="a3_009"  >
<polygon locus_tag="AWH12934.1" description="&lt;b&gt;AWH12934.1&lt;/b&gt;&lt;br&gt;StmW&lt;br&gt;Location: 32815 - 31379" points="467,90 476,90 481,85 476,80 467,80 467,90 " style="stroke-width:1; stroke:black; fill:white; " id="dummy-3_h3_5_9" class="clusterblast-orf"  />
</g>
<g id="a3_0010"  >
<polygon locus_tag="AWH12933.1" description="&lt;b&gt;AWH12933.1&lt;/b&gt;&lt;br&gt;StmM4&lt;br&gt;Location: 31301 - 30519" points="481,85 486,80 489,80 489,90 486,90 481,85 " style="stroke-width:1; stroke:black; fill:white; " id="dummy-3_h3_5_10" class="clusterblast-orf"  />
</g>
<g id="a3_0011"  >
<polygon locus_tag="AWH12932.1" description="&lt;b&gt;AWH12932.1&lt;/b&gt;&lt;br&gt;StmP4&lt;br&gt;Location: 30336 - 29101" points="490,90 497,90 502,85 497,80 490,80 490,90 " style="stroke-width:1; stroke:black; fill:white; " id="dummy-3_h3_5_11" class="clusterblast-orf"  />
</g>
<g id="a3_0012"  >
<polygon locus_tag="AWH12931.1" description="&lt;b&gt;AWH12931.1&lt;/b&gt;&lt;br&gt;StmV&lt;br&gt;Location: 29065 - 28292" points="503,90 505,90 510,85 505,80 503,80 503,90 " style="stroke-width:1; stroke:black; fill:white; " id="dummy-3_h3_5_12" class="clusterblast-orf"  />
</g>
<g id="a3_0013"  >
<polygon locus_tag="AWH12930.1" description="&lt;b&gt;AWH12930.1&lt;/b&gt;&lt;br&gt;StmO4&lt;br&gt;Location: 28090 - 27095" points="512,85 517,80 521,80 521,90 517,90 512,85 " style="stroke-width:1; stroke:black; fill:white; " id="dummy-3_h3_5_13" class="clusterblast-orf"  />
</g>
<g id="a3_0014"  >
<polygon locus_tag="AWH12929.1" description="&lt;b&gt;AWH12929.1&lt;/b&gt;&lt;br&gt;StmU&lt;br&gt;Location: 27098 - 26352" points="521,85 526,80 528,80 528,90 526,90 521,85 " style="stroke-width:1; stroke:black; fill:white; " id="dummy-3_h3_5_14" class="clusterblast-orf"  />
</g>
<g id="a3_0015"  >
<polygon locus_tag="AWH12928.1" description="&lt;b&gt;AWH12928.1&lt;/b&gt;&lt;br&gt;StmT&lt;br&gt;Location: 26172 - 25222" points="530,90 534,90 539,85 534,80 530,80 530,90 " style="stroke-width:1; stroke:black; fill:white; " id="dummy-3_h3_5_15" class="clusterblast-orf"  />
</g>
<g id="a3_0016"  >
<polygon locus_tag="AWH12927.1" description="&lt;b&gt;AWH12927.1&lt;/b&gt;&lt;br&gt;StmS&lt;br&gt;Location: 24990 - 23575" points="541,85 546,80 555,80 555,90 546,90 541,85 " style="stroke-width:1; stroke:black; fill:white; " id="dummy-3_h3_5_16" class="clusterblast-orf"  />
</g>
<g id="a3_0017"  >
<polygon locus_tag="AWH12926.1" description="&lt;b&gt;AWH12926.1&lt;/b&gt;&lt;br&gt;StmR&lt;br&gt;Location: 23578 - 22748" points="555,85 560,80 563,80 563,90 560,90 555,85 " style="stroke-width:1; stroke:black; fill:white; " id="dummy-3_h3_5_17" class="clusterblast-orf"  />
</g>
<g id="a3_0018"  >
<polygon locus_tag="AWH12925.1" description="&lt;b&gt;AWH12925.1&lt;/b&gt;&lt;br&gt;StmP3&lt;br&gt;Location: 22580 - 21402" points="564,85 569,80 576,80 576,90 569,90 564,85 " style="stroke-width:1; stroke:black; fill:white; " id="dummy-3_h3_5_18" class="clusterblast-orf"  />
</g>
<g id="a3_0019"  >
<polygon locus_tag="AWH12924.1" description="&lt;b&gt;AWH12924.1&lt;/b&gt;&lt;br&gt;StmQ&lt;br&gt;Location: 21394 - 20567" points="576,85 581,80 584,80 584,90 581,90 576,85 " style="stroke-width:1; stroke:black; fill:white; " id="dummy-3_h3_5_19" class="clusterblast-orf"  />
</g>
<g id="a3_0020"  >
<polygon locus_tag="AWH12923.1" description="&lt;b&gt;AWH12923.1&lt;/b&gt;&lt;br&gt;StmN&lt;br&gt;Location: 20570 - 19665" points="584,85 589,80 592,80 592,90 589,90 584,85 " style="stroke-width:1; stroke:black; fill:white; " id="dummy-3_h3_5_20" class="clusterblast-orf"  />
</g>
<g id="a3_0021"  >
<polygon locus_tag="AWH12922.1" description="&lt;b&gt;AWH12922.1&lt;/b&gt;&lt;br&gt;StmM3&lt;br&gt;Location: 19427 - 18666" points="594,90 597,90 602,85 597,80 594,80 594,90 " style="stroke-width:1; stroke:black; fill:white; " id="dummy-3_h3_5_21" class="clusterblast-orf"  />
</g>
<g id="a3_0022"  >
<polygon locus_tag="AWH12921.1" description="&lt;b&gt;AWH12921.1&lt;/b&gt;&lt;br&gt;StmP2&lt;br&gt;Location: 18470 - 17298&lt;br&gt;&lt;br&gt;&lt;b&gt;BlastP hit with SSMG_00996&lt;/b&gt;&lt;br&gt;Percentage identity: 50&lt;br&gt;Percentage coverage: 96&lt;br&gt;BLAST bit score: 367&lt;br&gt;E-value: 3.3e-101" points="604,90 610,90 615,85 610,80 604,80 604,90 " style="stroke-width:1; stroke:black; fill:#d81515; " id="dummy-3_h3_5_22" class="clusterblast-orf"  />
</g>
<g id="a3_0023"  >
<polygon locus_tag="AWH12920.1" description="&lt;b&gt;AWH12920.1&lt;/b&gt;&lt;br&gt;StmF&lt;br&gt;Location: 17274 - 17080&lt;br&gt;&lt;br&gt;&lt;b&gt;BlastP hit with SSMG_00999&lt;/b&gt;&lt;br&gt;Percentage identity: 48&lt;br&gt;Percentage coverage: 97&lt;br&gt;BLAST bit score: 61&lt;br&gt;E-value: 8.1e-10" points="615,90 617,85 615,80 615,90 " style="stroke-width:1; stroke:black; fill:#15d863; " id="dummy-3_h3_5_23" class="clusterblast-orf"  />
</g>
<g id="a3_0024"  >
<polygon locus_tag="AWH12919.1" description="&lt;b&gt;AWH12919.1&lt;/b&gt;&lt;br&gt;StmL&lt;br&gt;Location: 17075 - 16203" points="617,90 620,90 625,85 620,80 617,80 617,90 " style="stroke-width:1; stroke:black; fill:white; " id="dummy-3_h3_5_24" class="clusterblast-orf"  />
</g>
<g id="a3_0025"  >
<polygon locus_tag="AWH12918.1" description="&lt;b&gt;AWH12918.1&lt;/b&gt;&lt;br&gt;StmK&lt;br&gt;Location: 16186 - 15137" points="625,90 630,90 635,85 630,80 625,80 625,90 " style="stroke-width:1; stroke:black; fill:white; " id="dummy-3_h3_5_25" class="clusterblast-orf"  />
</g>
<g id="a3_0026"  >
<polygon locus_tag="AWH12917.1" description="&lt;b&gt;AWH12917.1&lt;/b&gt;&lt;br&gt;StmM2&lt;br&gt;Location: 15122 - 14277" points="635,85 640,80 643,80 643,90 640,90 635,85 " style="stroke-width:1; stroke:black; fill:white; " id="dummy-3_h3_5_26" class="clusterblast-orf"  />
</g>
<g id="a3_0027"  >
<polygon locus_tag="AWH12916.1" description="&lt;b&gt;AWH12916.1&lt;/b&gt;&lt;br&gt;StmP1&lt;br&gt;Location: 14091 - 12826" points="645,90 652,90 657,85 652,80 645,80 645,90 " style="stroke-width:1; stroke:black; fill:white; " id="dummy-3_h3_5_27" class="clusterblast-orf"  />
</g>
<g id="a3_0028"  >
<polygon locus_tag="AWH12915.1" description="&lt;b&gt;AWH12915.1&lt;/b&gt;&lt;br&gt;StmO2&lt;br&gt;Location: 12778 - 11531" points="658,90 665,90 670,85 665,80 658,80 658,90 " style="stroke-width:1; stroke:black; fill:white; " id="dummy-3_h3_5_28" class="clusterblast-orf"  />
</g>
<g id="a3_0029"  >
<polygon locus_tag="AWH12914.1" description="&lt;b&gt;AWH12914.1&lt;/b&gt;&lt;br&gt;StmO1&lt;br&gt;Location: 11534 - 10587" points="670,90 674,90 679,85 674,80 670,80 670,90 " style="stroke-width:1; stroke:black; fill:white; " id="dummy-3_h3_5_29" class="clusterblast-orf"  />
</g>
<g id="a3_0030"  >
<polygon locus_tag="AWH12913.1" description="&lt;b&gt;AWH12913.1&lt;/b&gt;&lt;br&gt;StmJ&lt;br&gt;Location: 10539 - 9751" points="679,85 684,80 687,80 687,90 684,90 679,85 " style="stroke-width:1; stroke:black; fill:white; " id="dummy-3_h3_5_30" class="clusterblast-orf"  />
</g>
<g id="a3_0031"  >
<polygon locus_tag="AWH12912.1" description="&lt;b&gt;AWH12912.1&lt;/b&gt;&lt;br&gt;StmI&lt;br&gt;Location: 9754 - 8327" points="687,85 692,80 700,80 700,90 692,90 687,85 " style="stroke-width:1; stroke:black; fill:white; " id="dummy-3_h3_5_31" class="clusterblast-orf"  />
</g>
<g id="a3_0032"  >
<polygon locus_tag="AWH12911.1" description="&lt;b&gt;AWH12911.1&lt;/b&gt;&lt;br&gt;StmM1&lt;br&gt;Location: 8307 - 7546" points="700,85 705,80 708,80 708,90 705,90 700,85 " style="stroke-width:1; stroke:black; fill:white; " id="dummy-3_h3_5_32" class="clusterblast-orf"  />
</g>
<g id="a3_0033"  >
<polygon locus_tag="AWH12910.1" description="&lt;b&gt;AWH12910.1&lt;/b&gt;&lt;br&gt;StmH&lt;br&gt;Location: 7378 - 6170" points="709,90 716,90 721,85 716,80 709,80 709,90 " style="stroke-width:1; stroke:black; fill:white; " id="dummy-3_h3_5_33" class="clusterblast-orf"  />
</g>
<g id="a3_0034"  >
<polygon locus_tag="AWH12909.1" description="&lt;b&gt;AWH12909.1&lt;/b&gt;&lt;br&gt;StmG&lt;br&gt;Location: 6173 - 5067" points="721,90 726,90 731,85 726,80 721,80 721,90 " style="stroke-width:1; stroke:black; fill:white; " id="dummy-3_h3_5_34" class="clusterblast-orf"  />
</g>
<g id="a3_0035"  >
<polygon locus_tag="AWH12908.1" description="&lt;b&gt;AWH12908.1&lt;/b&gt;&lt;br&gt;StmY&lt;br&gt;Location: 4959 - 4189" points="732,90 735,90 740,85 735,80 732,80 732,90 " style="stroke-width:1; stroke:black; fill:white; " id="dummy-3_h3_5_35" class="clusterblast-orf"  />
</g>
<g id="a3_0036"  >
<polygon locus_tag="AWH12907.1" description="&lt;b&gt;AWH12907.1&lt;/b&gt;&lt;br&gt;StmD&lt;br&gt;Location: 4195 - 3737" points="740,85 744,80 744,90 740,85 " style="stroke-width:1; stroke:black; fill:white; " id="dummy-3_h3_5_36" class="clusterblast-orf"  />
</g>
<g id="a3_0037"  >
<polygon locus_tag="AWH12906.1" description="&lt;b&gt;AWH12906.1&lt;/b&gt;&lt;br&gt;StmE&lt;br&gt;Location: 3413 - 2601" points="747,85 752,80 755,80 755,90 752,90 747,85 " style="stroke-width:1; stroke:black; fill:white; " id="dummy-3_h3_5_37" class="clusterblast-orf"  />
</g>
<g id="a3_0038"  >
<polygon locus_tag="AWH12903.1" description="&lt;b&gt;AWH12903.1&lt;/b&gt;&lt;br&gt;hypothetical protein&lt;br&gt;Location: 2154 - 1672" points="759,85 764,80 764,80 764,90 764,90 759,85 " style="stroke-width:1; stroke:black; fill:white; " id="dummy-3_h3_5_38" class="clusterblast-orf"  />
</g>
<g id="a3_0039"  >
<polygon locus_tag="AWH12905.1" description="&lt;b&gt;AWH12905.1&lt;/b&gt;&lt;br&gt;TetR-family transcriptional regulator&lt;br&gt;Location: 1620 - 952" points="764,85 769,80 770,80 770,90 769,90 764,85 " style="stroke-width:1; stroke:black; fill:white; " id="dummy-3_h3_5_39" class="clusterblast-orf"  />
</g>
<g id="a3_0040"  >
<polygon locus_tag="AWH12904.1" description="&lt;b&gt;AWH12904.1&lt;/b&gt;&lt;br&gt;KR domain-containing protein&lt;br&gt;Location: 882 - 1" points="771,90 774,90 779,85 774,80 771,80 771,90 " style="stroke-width:1; stroke:black; fill:white; " id="dummy-3_h3_5_40" class="clusterblast-orf"  />
</g>
</svg>
