<svg version="1.1" xmlns="http://www.w3.org/2000/svg" height="230" width="800" xmlns:xlink="http://www.w3.org/1999/xlink" preserveAspectRatio="none" x="0" y="0" viewBox="0 0 800 230"  >
<g label="Query sequence" class="clusterblast-cluster"  >
<text class="clusterblast-acc" y="20" x="5"  >
Query sequence</text>
<line x1="10" x2="778.0" y2="35" style="stroke-width:1; stroke:grey; " y1="35"  />
<polygon locus_tag="SSMG_04259" description="&lt;b&gt;SSMG_04259&lt;/b&gt;&lt;br&gt;conserved hypothetical protein&lt;br&gt;Location: 4646055 - 4646568" points="253,35 256,30 256,40 253,35 " style="stroke-width:1; stroke:black; fill:white; " id="dummy-17_q0_0_all" class="clusterblast-orf"  />
<polygon locus_tag="SSMG_04260" description="&lt;b&gt;SSMG_04260&lt;/b&gt;&lt;br&gt;predicted protein&lt;br&gt;Location: 4646583 - 4647069" points="256,35 259,30 259,40 256,35 " style="stroke-width:1; stroke:black; fill:white; " id="dummy-17_q1_0_all" class="clusterblast-orf"  />
<polygon locus_tag="SSMG_04261" description="&lt;b&gt;SSMG_04261&lt;/b&gt;&lt;br&gt;phosphatidylinositol alpha-mannosyltransferase&lt;br&gt;Location: 4647065 - 4648208" points="259,35 264,30 265,30 265,40 264,40 259,35 " style="stroke-width:1; stroke:black; fill:white; " id="dummy-17_q2_0_all" class="clusterblast-orf"  />
<polygon locus_tag="SSMG_04262" description="&lt;b&gt;SSMG_04262&lt;/b&gt;&lt;br&gt;predicted protein&lt;br&gt;Location: 4648225 - 4649128" points="265,35 270,30 270,30 270,40 270,40 265,35 " style="stroke-width:1; stroke:black; fill:white; " id="dummy-17_q3_0_all" class="clusterblast-orf"  />
<polygon locus_tag="SSMG_04263" description="&lt;b&gt;SSMG_04263&lt;/b&gt;&lt;br&gt;phosphatidylinositol synthase&lt;br&gt;Location: 4649124 - 4649772" points="270,35 273,30 273,40 270,35 " style="stroke-width:1; stroke:black; fill:white; " id="dummy-17_q4_0_all" class="clusterblast-orf"  />
<polygon locus_tag="SSMG_04264" description="&lt;b&gt;SSMG_04264&lt;/b&gt;&lt;br&gt;MarR-family transcriptional repressor&lt;br&gt;Location: 4649872 - 4650403" points="274,35 277,30 277,40 274,35 " style="stroke-width:1; stroke:black; fill:white; " id="dummy-17_q5_0_all" class="clusterblast-orf"  />
<polygon locus_tag="SSMG_04265" description="&lt;b&gt;SSMG_04265&lt;/b&gt;&lt;br&gt;HIT family protein&lt;br&gt;Location: 4650453 - 4650996" points="277,35 280,30 280,40 277,35 " style="stroke-width:1; stroke:black; fill:white; " id="dummy-17_q6_0_all" class="clusterblast-orf"  />
<polygon locus_tag="SSMG_04266" description="&lt;b&gt;SSMG_04266&lt;/b&gt;&lt;br&gt;threonyl-tRNA synthetase&lt;br&gt;Location: 4650992 - 4653029" points="280,35 285,30 291,30 291,40 285,40 280,35 " style="stroke-width:1; stroke:black; fill:white; " id="dummy-17_q7_0_all" class="clusterblast-orf"  />
<polygon locus_tag="SSMG_04267" description="&lt;b&gt;SSMG_04267&lt;/b&gt;&lt;br&gt;nitroreductase&lt;br&gt;Location: 4653174 - 4653786" points="292,35 295,30 295,40 292,35 " style="stroke-width:1; stroke:black; fill:white; " id="dummy-17_q8_0_all" class="clusterblast-orf"  />
<polygon locus_tag="SSMG_04268" description="&lt;b&gt;SSMG_04268&lt;/b&gt;&lt;br&gt;undecaprenyl-phosphate glucose phosphotransferase&lt;br&gt;Location: 4653943 - 4655410" points="296,35 301,30 304,30 304,40 301,40 296,35 " style="stroke-width:1; stroke:black; fill:white; " id="dummy-17_q9_0_all" class="clusterblast-orf"  />
<polygon locus_tag="SSMG_04269" description="&lt;b&gt;SSMG_04269&lt;/b&gt;&lt;br&gt;predicted protein&lt;br&gt;Location: 4656012 - 4656249" points="307,35 308,30 308,40 307,35 " style="stroke-width:1; stroke:black; fill:white; " id="dummy-17_q10_0_all" class="clusterblast-orf"  />
<polygon locus_tag="SSMG_04270" description="&lt;b&gt;SSMG_04270&lt;/b&gt;&lt;br&gt;predicted protein&lt;br&gt;Location: 4656683 - 4657121" points="311,35 313,30 313,40 311,35 " style="stroke-width:1; stroke:black; fill:white; " id="dummy-17_q11_0_all" class="clusterblast-orf"  />
<polygon locus_tag="SSMG_04271" description="&lt;b&gt;SSMG_04271&lt;/b&gt;&lt;br&gt;predicted protein&lt;br&gt;Location: 4658192 - 4659011" points="319,40 323,35 319,30 319,40 " style="stroke-width:1; stroke:black; fill:white; " id="dummy-17_q12_0_all" class="clusterblast-orf"  />
<polygon locus_tag="SSMG_04272" description="&lt;b&gt;SSMG_04272&lt;/b&gt;&lt;br&gt;3-oxoacyl-(acyl carrier protein) synthase III&lt;br&gt;Location: 4659025 - 4659964" points="323,35 328,30 328,30 328,40 328,40 323,35 " style="stroke-width:1; stroke:black; fill:white; " id="dummy-17_q13_0_all" class="clusterblast-orf"  />
<polygon locus_tag="SSMG_04273" description="&lt;b&gt;SSMG_04273&lt;/b&gt;&lt;br&gt;predicted protein&lt;br&gt;Location: 4659985 - 4662595" points="328,35 333,30 342,30 342,40 333,40 328,35 " style="stroke-width:1; stroke:black; fill:white; " id="dummy-17_q14_0_all" class="clusterblast-orf"  />
<polygon locus_tag="SSMG_04274" description="&lt;b&gt;SSMG_04274&lt;/b&gt;&lt;br&gt;conserved hypothetical protein&lt;br&gt;Location: 4662699 - 4663347" points="343,35 346,30 346,40 343,35 " style="stroke-width:1; stroke:black; fill:white; " id="dummy-17_q15_0_all" class="clusterblast-orf"  />
<polygon locus_tag="SSMG_04275" description="&lt;b&gt;SSMG_04275&lt;/b&gt;&lt;br&gt;3-oxoacyl-[acyl-carrier-protein] reductase&lt;br&gt;Location: 4663491 - 4664232" points="347,35 351,30 351,40 347,35 " style="stroke-width:1; stroke:black; fill:#d81515; " id="dummy-17_q16_0_all" class="clusterblast-orf"  />
<polygon locus_tag="SSMG_04276" description="&lt;b&gt;SSMG_04276&lt;/b&gt;&lt;br&gt;predicted protein&lt;br&gt;Location: 4664228 - 4664642" points="351,35 353,30 353,40 351,35 " style="stroke-width:1; stroke:black; fill:white; " id="dummy-17_q17_0_all" class="clusterblast-orf"  />
<polygon locus_tag="SSMG_04277" description="&lt;b&gt;SSMG_04277&lt;/b&gt;&lt;br&gt;predicted protein&lt;br&gt;Location: 4664638 - 4664989" points="353,35 355,30 355,40 353,35 " style="stroke-width:1; stroke:black; fill:white; " id="dummy-17_q18_0_all" class="clusterblast-orf"  />
<polygon locus_tag="SSMG_04278" description="&lt;b&gt;SSMG_04278&lt;/b&gt;&lt;br&gt;predicted protein&lt;br&gt;Location: 4664964 - 4665975" points="355,35 360,30 361,30 361,40 360,40 355,35 " style="stroke-width:1; stroke:black; fill:white; " id="dummy-17_q19_0_all" class="clusterblast-orf"  />
<polygon locus_tag="SSMG_04279" description="&lt;b&gt;SSMG_04279&lt;/b&gt;&lt;br&gt;3-oxoacyl-[acyl-carrier-protein] synthase 2&lt;br&gt;Location: 4665971 - 4667213" points="361,35 366,30 367,30 367,40 366,40 361,35 " style="stroke-width:1; stroke:black; fill:#15d815; " id="dummy-17_q20_0_all" class="clusterblast-orf"  />
<polygon locus_tag="SSMG_04280" description="&lt;b&gt;SSMG_04280&lt;/b&gt;&lt;br&gt;acyl carrier protein&lt;br&gt;Location: 4667214 - 4667502" points="367,35 369,30 369,40 367,35 " style="stroke-width:1; stroke:black; fill:white; " id="dummy-17_q21_0_all" class="clusterblast-orf"  />
<polygon locus_tag="SSMG_04281" description="&lt;b&gt;SSMG_04281&lt;/b&gt;&lt;br&gt;predicted protein&lt;br&gt;Location: 4667530 - 4668379" points="369,35 374,30 374,30 374,40 374,40 369,35 " style="stroke-width:1; stroke:black; fill:white; " id="dummy-17_q22_0_all" class="clusterblast-orf"  />
<polygon locus_tag="SSMG_04282" description="&lt;b&gt;SSMG_04282&lt;/b&gt;&lt;br&gt;dicarboxylate-CoA ligase PimA&lt;br&gt;Location: 4668401 - 4669997" points="374,35 379,30 382,30 382,40 379,40 374,35 " style="stroke-width:1; stroke:black; fill:#1597d8; " id="dummy-17_q23_0_all" class="clusterblast-orf"  />
<polygon locus_tag="SSMG_04283" description="&lt;b&gt;SSMG_04283&lt;/b&gt;&lt;br&gt;predicted protein&lt;br&gt;Location: 4669993 - 4671523" points="382,35 387,30 391,30 391,40 387,40 382,35 " style="stroke-width:1; stroke:black; fill:#9715d8; " id="dummy-17_q24_0_all" class="clusterblast-orf"  />
<polygon locus_tag="SSMG_04284" description="&lt;b&gt;SSMG_04284&lt;/b&gt;&lt;br&gt;modular polyketide synthase&lt;br&gt;Location: 4671446 - 4677095" points="390,35 395,30 421,30 421,40 395,40 390,35 " style="stroke-width:1; stroke:black; fill:#d89715; " id="dummy-17_q25_0_all" class="clusterblast-orf"  />
<polygon locus_tag="SSMG_04285" description="&lt;b&gt;SSMG_04285&lt;/b&gt;&lt;br&gt;predicted protein&lt;br&gt;Location: 4677855 - 4678209" points="425,35 427,30 427,40 425,35 " style="stroke-width:1; stroke:black; fill:#15d897; " id="dummy-17_q26_0_all" class="clusterblast-orf"  />
<polygon locus_tag="SSMG_04286" description="&lt;b&gt;SSMG_04286&lt;/b&gt;&lt;br&gt;conserved hypothetical protein&lt;br&gt;Location: 4678234 - 4678792" points="427,35 430,30 430,40 427,35 " style="stroke-width:1; stroke:black; fill:#1515d8; " id="dummy-17_q27_0_all" class="clusterblast-orf"  />
<polygon locus_tag="SSMG_04287" description="&lt;b&gt;SSMG_04287&lt;/b&gt;&lt;br&gt;predicted protein&lt;br&gt;Location: 4678788 - 4679991" points="430,35 435,30 436,30 436,40 435,40 430,35 " style="stroke-width:1; stroke:black; fill:#d81597; " id="dummy-17_q28_0_all" class="clusterblast-orf"  />
<polygon locus_tag="SSMG_04288" description="&lt;b&gt;SSMG_04288&lt;/b&gt;&lt;br&gt;predicted protein&lt;br&gt;Location: 4680008 - 4681220" points="436,35 441,30 443,30 443,40 441,40 436,35 " style="stroke-width:1; stroke:black; fill:#d81597; " id="dummy-17_q29_0_all" class="clusterblast-orf"  />
<polygon locus_tag="SSMG_04289" description="&lt;b&gt;SSMG_04289&lt;/b&gt;&lt;br&gt;taurine catabolism dioxygenase&lt;br&gt;Location: 4681253 - 4682135" points="443,35 448,30 448,30 448,40 448,40 443,35 " style="stroke-width:1; stroke:black; fill:#97d815; " id="dummy-17_q30_0_all" class="clusterblast-orf"  />
<polygon locus_tag="SSMG_04290" description="&lt;b&gt;SSMG_04290&lt;/b&gt;&lt;br&gt;regulator&lt;br&gt;Location: 4683071 - 4683497" points="453,40 455,35 453,30 453,40 " style="stroke-width:1; stroke:black; fill:white; " id="dummy-17_q31_0_all" class="clusterblast-orf"  />
<polygon locus_tag="SSMG_04291" description="&lt;b&gt;SSMG_04291&lt;/b&gt;&lt;br&gt;glucose-6-phosphate dehydrogenase, F420-dependent&lt;br&gt;Location: 4684438 - 4685443" points="460,35 465,30 466,30 466,40 465,40 460,35 " style="stroke-width:1; stroke:black; fill:white; " id="dummy-17_q32_0_all" class="clusterblast-orf"  />
<polygon locus_tag="SSMG_04292" description="&lt;b&gt;SSMG_04292&lt;/b&gt;&lt;br&gt;predicted protein&lt;br&gt;Location: 4685755 - 4686505" points="467,35 471,30 471,40 467,35 " style="stroke-width:1; stroke:black; fill:white; " id="dummy-17_q33_0_all" class="clusterblast-orf"  />
<polygon locus_tag="SSMG_04293" description="&lt;b&gt;SSMG_04293&lt;/b&gt;&lt;br&gt;siderophore interacting protein&lt;br&gt;Location: 4687111 - 4687906" points="475,40 479,35 475,30 475,40 " style="stroke-width:1; stroke:black; fill:white; " id="dummy-17_q34_0_all" class="clusterblast-orf"  />
<polygon locus_tag="SSMG_04294" description="&lt;b&gt;SSMG_04294&lt;/b&gt;&lt;br&gt;methylated-DNA-protein-cysteine methyltransferase&lt;br&gt;Location: 4687911 - 4688481" points="479,35 482,30 482,40 479,35 " style="stroke-width:1; stroke:black; fill:white; " id="dummy-17_q35_0_all" class="clusterblast-orf"  />
<polygon locus_tag="SSMG_04295" description="&lt;b&gt;SSMG_04295&lt;/b&gt;&lt;br&gt;4-carboxy-4-hydroxy-2-oxoadipate aldolase/oxaloacetate decarboxylase&lt;br&gt;Location: 4688461 - 4689097" points="482,40 485,35 482,30 482,40 " style="stroke-width:1; stroke:black; fill:white; " id="dummy-17_q36_0_all" class="clusterblast-orf"  />
<polygon locus_tag="SSMG_04296" description="&lt;b&gt;SSMG_04296&lt;/b&gt;&lt;br&gt;predicted protein&lt;br&gt;Location: 4689033 - 4689261" points="485,40 486,35 485,30 485,40 " style="stroke-width:1; stroke:black; fill:white; " id="dummy-17_q37_0_all" class="clusterblast-orf"  />
<polygon locus_tag="SSMG_04297" description="&lt;b&gt;SSMG_04297&lt;/b&gt;&lt;br&gt;predicted protein&lt;br&gt;Location: 4689680 - 4689869" points="488,35 489,30 489,40 488,35 " style="stroke-width:1; stroke:black; fill:white; " id="dummy-17_q38_0_all" class="clusterblast-orf"  />
<polygon locus_tag="SSMG_04298" description="&lt;b&gt;SSMG_04298&lt;/b&gt;&lt;br&gt;predicted protein&lt;br&gt;Location: 4689991 - 4690285" points="490,40 492,35 490,30 490,40 " style="stroke-width:1; stroke:black; fill:white; " id="dummy-17_q39_0_all" class="clusterblast-orf"  />
<polygon locus_tag="SSMG_04299" description="&lt;b&gt;SSMG_04299&lt;/b&gt;&lt;br&gt;proline iminopeptidase&lt;br&gt;Location: 4690952 - 4692182" points="495,40 497,40 502,35 497,30 495,30 495,40 " style="stroke-width:1; stroke:black; fill:white; " id="dummy-17_q40_0_all" class="clusterblast-orf"  />
<polygon locus_tag="SSMG_04300" description="&lt;b&gt;SSMG_04300&lt;/b&gt;&lt;br&gt;2-hydroxycyclohexanecarboxyl-CoA dehydrogenase&lt;br&gt;Location: 4692227 - 4693079" points="502,35 507,30 507,30 507,40 507,40 502,35 " style="stroke-width:1; stroke:black; fill:white; " id="dummy-17_q41_0_all" class="clusterblast-orf"  />
<polygon locus_tag="SSMG_04301" description="&lt;b&gt;SSMG_04301&lt;/b&gt;&lt;br&gt;predicted protein&lt;br&gt;Location: 4693154 - 4694012" points="507,35 512,30 512,30 512,40 512,40 507,35 " style="stroke-width:1; stroke:black; fill:white; " id="dummy-17_q42_0_all" class="clusterblast-orf"  />
<polygon locus_tag="SSMG_04302" description="&lt;b&gt;SSMG_04302&lt;/b&gt;&lt;br&gt;conserved hypothetical protein&lt;br&gt;Location: 4694070 - 4695588" points="512,35 517,30 520,30 520,40 517,40 512,35 " style="stroke-width:1; stroke:black; fill:white; " id="dummy-17_q43_0_all" class="clusterblast-orf"  />
<polygon locus_tag="SSMG_04303" description="&lt;b&gt;SSMG_04303&lt;/b&gt;&lt;br&gt;conserved hypothetical protein&lt;br&gt;Location: 4695563 - 4696613" points="520,35 525,30 526,30 526,40 525,40 520,35 " style="stroke-width:1; stroke:black; fill:white; " id="dummy-17_q44_0_all" class="clusterblast-orf"  />
</g>
<g label="BGC0000163" description="BGC0000163_c1: tetronasin (5% of genes show similarity), Polyketide" class="clusterblast-cluster"  >
<text class="clusterblast-acc" y="70" x="5"  >
<a xlink:href="https://mibig.secondarymetabolites.org/go/BGC0000163/1" target="_blank">BGC0000163</a>:                                                                       tetronasin (5% of genes show similarity), Polyketide</text>
<line x1="10" x2="778.0" y2="85" style="stroke-width:1; stroke:grey; " y1="85"  />
</g>
<g id="a17_000"  >
<polygon locus_tag="ACR50801.1" description="&lt;b&gt;ACR50801.1&lt;/b&gt;&lt;br&gt;putative methyltransferase&lt;br&gt;Location: 144698 - 143949" points="0,90 4,85 0,80 0,90 " style="stroke-width:1; stroke:black; fill:white; " id="dummy-17_h17_2_0" class="clusterblast-orf"  />
</g>
<g id="a17_001"  >
<polygon locus_tag="ACR50800.1" description="&lt;b&gt;ACR50800.1&lt;/b&gt;&lt;br&gt;putative LuxR-family transcriptional regulator&lt;br&gt;Location: 143221 - 140465" points="7,90 17,90 22,85 17,80 7,80 7,90 " style="stroke-width:1; stroke:black; fill:white; " id="dummy-17_h17_2_1" class="clusterblast-orf"  />
</g>
<g id="a17_002"  >
<polygon locus_tag="ACR50799.1" description="&lt;b&gt;ACR50799.1&lt;/b&gt;&lt;br&gt;putative membrane protein&lt;br&gt;Location: 139933 - 138794" points="25,90 26,90 31,85 26,80 25,80 25,90 " style="stroke-width:1; stroke:black; fill:white; " id="dummy-17_h17_2_2" class="clusterblast-orf"  />
</g>
<g id="a17_003"  >
<polygon locus_tag="ACR50798.1" description="&lt;b&gt;ACR50798.1&lt;/b&gt;&lt;br&gt;putative TetR-family transcriptional regulator&lt;br&gt;Location: 138929 - 138180" points="31,90 35,85 31,80 31,90 " style="stroke-width:1; stroke:black; fill:white; " id="dummy-17_h17_2_3" class="clusterblast-orf"  />
</g>
<g id="a17_004"  >
<polygon locus_tag="ACR50797.1" description="&lt;b&gt;ACR50797.1&lt;/b&gt;&lt;br&gt;acyltransferase&lt;br&gt;Location: 138136 - 136385" points="35,85 40,80 44,80 44,90 40,90 35,85 " style="stroke-width:1; stroke:black; fill:white; " id="dummy-17_h17_2_4" class="clusterblast-orf"  />
</g>
<g id="a17_005"  >
<polygon locus_tag="ACR50796.1" description="&lt;b&gt;ACR50796.1&lt;/b&gt;&lt;br&gt;putative polyketide synthase&lt;br&gt;Location: 136011 - 128581" points="46,90 81,90 86,85 81,80 46,80 46,90 " style="stroke-width:1; stroke:black; fill:white; " id="dummy-17_h17_2_5" class="clusterblast-orf"  />
</g>
<g id="a17_006"  >
<polygon locus_tag="ACR50795.1" description="&lt;b&gt;ACR50795.1&lt;/b&gt;&lt;br&gt;putative polyketide synthase&lt;br&gt;Location: 128456 - 123948" points="87,90 106,90 111,85 106,80 87,80 87,90 " style="stroke-width:1; stroke:black; fill:white; " id="dummy-17_h17_2_6" class="clusterblast-orf"  />
</g>
<g id="a17_007"  >
<polygon locus_tag="ACR50794.1" description="&lt;b&gt;ACR50794.1&lt;/b&gt;&lt;br&gt;putative type II thioesterase&lt;br&gt;Location: 123907 - 123140" points="112,90 116,85 112,80 112,90 " style="stroke-width:1; stroke:black; fill:white; " id="dummy-17_h17_2_7" class="clusterblast-orf"  />
</g>
<g id="a17_008"  >
<polygon locus_tag="ACR50793.1" description="&lt;b&gt;ACR50793.1&lt;/b&gt;&lt;br&gt;putative P450 monooxygenase&lt;br&gt;Location: 122875 - 121604" points="117,85 122,80 124,80 124,90 122,90 117,85 " style="stroke-width:1; stroke:black; fill:white; " id="dummy-17_h17_2_8" class="clusterblast-orf"  />
</g>
<g id="a17_009"  >
<polygon locus_tag="ACR50792.1" description="&lt;b&gt;ACR50792.1&lt;/b&gt;&lt;br&gt;putative acyl-CoA synthase&lt;br&gt;Location: 121591 - 120029&lt;br&gt;&lt;br&gt;&lt;b&gt;BlastP hit with SSMG_04282&lt;/b&gt;&lt;br&gt;Percentage identity: 55&lt;br&gt;Percentage coverage: 95&lt;br&gt;BLAST bit score: 545&lt;br&gt;E-value: 1.2e-154" points="124,85 129,80 132,80 132,90 129,90 124,85 " style="stroke-width:1; stroke:black; fill:#1597d8; " id="dummy-17_h17_2_9" class="clusterblast-orf"  />
</g>
<g id="a17_0010"  >
<polygon locus_tag="ACR50791.1" description="&lt;b&gt;ACR50791.1&lt;/b&gt;&lt;br&gt;putative polyketide synthase&lt;br&gt;Location: 120032 - 113739&lt;br&gt;&lt;br&gt;&lt;b&gt;BlastP hit with SSMG_04284&lt;/b&gt;&lt;br&gt;Percentage identity: 53&lt;br&gt;Percentage coverage: 101&lt;br&gt;BLAST bit score: 1833&lt;br&gt;E-value: 0.0" points="132,85 137,80 166,80 166,90 137,90 132,85 " style="stroke-width:1; stroke:black; fill:#d89715; " id="dummy-17_h17_2_10" class="clusterblast-orf"  />
</g>
<g id="a17_0011"  >
<polygon locus_tag="ACR50790.1" description="&lt;b&gt;ACR50790.1&lt;/b&gt;&lt;br&gt;putative oxidoreductase&lt;br&gt;Location: 113113 - 112229&lt;br&gt;&lt;br&gt;&lt;b&gt;BlastP hit with SSMG_04289&lt;/b&gt;&lt;br&gt;Percentage identity: 62&lt;br&gt;Percentage coverage: 100&lt;br&gt;BLAST bit score: 386&lt;br&gt;E-value: 5e-107" points="170,85 175,80 175,80 175,90 175,90 170,85 " style="stroke-width:1; stroke:black; fill:#97d815; " id="dummy-17_h17_2_11" class="clusterblast-orf"  />
</g>
<g id="a17_0012"  >
<polygon locus_tag="ACR50789.1" description="&lt;b&gt;ACR50789.1&lt;/b&gt;&lt;br&gt;putative pathway specific activator&lt;br&gt;Location: 111842 - 111072" points="177,85 181,80 181,90 177,85 " style="stroke-width:1; stroke:black; fill:white; " id="dummy-17_h17_2_12" class="clusterblast-orf"  />
</g>
<g id="a17_0013"  >
<polygon locus_tag="ACR50788.1" description="&lt;b&gt;ACR50788.1&lt;/b&gt;&lt;br&gt;putative ABC transporter, ATP binding component&lt;br&gt;Location: 110544 - 109639" points="184,90 188,85 184,80 184,90 " style="stroke-width:1; stroke:black; fill:white; " id="dummy-17_h17_2_13" class="clusterblast-orf"  />
</g>
<g id="a17_0014"  >
<polygon locus_tag="ACR50787.1" description="&lt;b&gt;ACR50787.1&lt;/b&gt;&lt;br&gt;putative ABC transporter, membrane spanning protein&lt;br&gt;Location: 109642 - 108020" points="188,90 192,90 197,85 192,80 188,80 188,90 " style="stroke-width:1; stroke:black; fill:white; " id="dummy-17_h17_2_14" class="clusterblast-orf"  />
</g>
<g id="a17_0015"  >
<polygon locus_tag="ACR50786.1" description="&lt;b&gt;ACR50786.1&lt;/b&gt;&lt;br&gt;putative regulatory protein&lt;br&gt;Location: 107738 - 107202" points="199,85 202,80 202,90 199,85 " style="stroke-width:1; stroke:black; fill:white; " id="dummy-17_h17_2_15" class="clusterblast-orf"  />
</g>
<g id="a17_0016"  >
<polygon locus_tag="ACR50785.1" description="&lt;b&gt;ACR50785.1&lt;/b&gt;&lt;br&gt;polyketide synthase&lt;br&gt;Location: 107005 - 91916" points="203,90 279,90 284,85 279,80 203,80 203,90 " style="stroke-width:1; stroke:black; fill:white; " id="dummy-17_h17_2_16" class="clusterblast-orf"  />
</g>
<g id="a17_0017"  >
<polygon locus_tag="ACR50784.1" description="&lt;b&gt;ACR50784.1&lt;/b&gt;&lt;br&gt;putative 3-oxoacyl-ACP synthase III&lt;br&gt;Location: 91082 - 90030" points="289,85 294,80 294,80 294,90 294,90 289,85 " style="stroke-width:1; stroke:black; fill:white; " id="dummy-17_h17_2_17" class="clusterblast-orf"  />
</g>
<g id="a17_0018"  >
<polygon locus_tag="ACR50783.1" description="&lt;b&gt;ACR50783.1&lt;/b&gt;&lt;br&gt;P450 monooxygenase&lt;br&gt;Location: 89766 - 88582" points="296,90 297,90 302,85 297,80 296,80 296,90 " style="stroke-width:1; stroke:black; fill:white; " id="dummy-17_h17_2_18" class="clusterblast-orf"  />
</g>
<g id="a17_0019"  >
<polygon locus_tag="ACR50782.1" description="&lt;b&gt;ACR50782.1&lt;/b&gt;&lt;br&gt;polyketide synthase&lt;br&gt;Location: 88375 - 83714" points="303,90 323,90 328,85 323,80 303,80 303,90 " style="stroke-width:1; stroke:black; fill:white; " id="dummy-17_h17_2_19" class="clusterblast-orf"  />
</g>
<g id="a17_0020"  >
<polygon locus_tag="ACR50781.1" description="&lt;b&gt;ACR50781.1&lt;/b&gt;&lt;br&gt;putative FAD-dependent oxygenase&lt;br&gt;Location: 83697 - 82195" points="328,90 331,90 336,85 331,80 328,80 328,90 " style="stroke-width:1; stroke:black; fill:white; " id="dummy-17_h17_2_20" class="clusterblast-orf"  />
</g>
<g id="a17_0021"  >
<polygon locus_tag="ACR50780.1" description="&lt;b&gt;ACR50780.1&lt;/b&gt;&lt;br&gt;epoxidase&lt;br&gt;Location: 82076 - 80643" points="337,85 342,80 345,80 345,90 342,90 337,85 " style="stroke-width:1; stroke:black; fill:white; " id="dummy-17_h17_2_21" class="clusterblast-orf"  />
</g>
<g id="a17_0022"  >
<polygon locus_tag="ACR50779.1" description="&lt;b&gt;ACR50779.1&lt;/b&gt;&lt;br&gt;putative 3-oxoacyl-ACP synthase III&lt;br&gt;Location: 80646 - 79594" points="345,85 350,80 350,80 350,90 350,90 345,85 " style="stroke-width:1; stroke:black; fill:white; " id="dummy-17_h17_2_22" class="clusterblast-orf"  />
</g>
<g id="a17_0023"  >
<polygon locus_tag="ACR50778.1" description="&lt;b&gt;ACR50778.1&lt;/b&gt;&lt;br&gt;methyltransferase&lt;br&gt;Location: 79313 - 78441" points="352,90 352,90 357,85 352,80 352,80 352,90 " style="stroke-width:1; stroke:black; fill:white; " id="dummy-17_h17_2_23" class="clusterblast-orf"  />
</g>
<g id="a17_0024"  >
<polygon locus_tag="ACR50777.1" description="&lt;b&gt;ACR50777.1&lt;/b&gt;&lt;br&gt;putative major facilitator transporter&lt;br&gt;Location: 78327 - 77059" points="357,85 362,80 364,80 364,90 362,90 357,85 " style="stroke-width:1; stroke:black; fill:white; " id="dummy-17_h17_2_24" class="clusterblast-orf"  />
</g>
<g id="a17_0025"  >
<polygon locus_tag="ACR50776.1" description="&lt;b&gt;ACR50776.1&lt;/b&gt;&lt;br&gt;epoxide hydrolase&lt;br&gt;Location: 77062 - 76643" points="364,85 366,80 366,90 364,85 " style="stroke-width:1; stroke:black; fill:white; " id="dummy-17_h17_2_25" class="clusterblast-orf"  />
</g>
<g id="a17_0026"  >
<polygon locus_tag="ACR50775.1" description="&lt;b&gt;ACR50775.1&lt;/b&gt;&lt;br&gt;polyketide synthase&lt;br&gt;Location: 76650 - 58540" points="366,85 371,80 464,80 464,90 371,90 366,85 " style="stroke-width:1; stroke:black; fill:white; " id="dummy-17_h17_2_26" class="clusterblast-orf"  />
</g>
<g id="a17_0027"  >
<polygon locus_tag="ACR50774.1" description="&lt;b&gt;ACR50774.1&lt;/b&gt;&lt;br&gt;polyketide synthase&lt;br&gt;Location: 58468 - 41576" points="464,85 469,80 555,80 555,90 469,90 464,85 " style="stroke-width:1; stroke:black; fill:white; " id="dummy-17_h17_2_27" class="clusterblast-orf"  />
</g>
<g id="a17_0028"  >
<polygon locus_tag="ACR50773.1" description="&lt;b&gt;ACR50773.1&lt;/b&gt;&lt;br&gt;polyketide synthase&lt;br&gt;Location: 41511 - 26101" points="556,85 561,80 639,80 639,90 561,90 556,85 " style="stroke-width:1; stroke:black; fill:white; " id="dummy-17_h17_2_28" class="clusterblast-orf"  />
</g>
<g id="a17_0029"  >
<polygon locus_tag="ACR50772.1" description="&lt;b&gt;ACR50772.1&lt;/b&gt;&lt;br&gt;acyl carrier protein&lt;br&gt;Location: 25803 - 25477" points="640,90 642,85 640,80 640,90 " style="stroke-width:1; stroke:black; fill:white; " id="dummy-17_h17_2_29" class="clusterblast-orf"  />
</g>
<g id="a17_0030"  >
<polygon locus_tag="ACR50771.1" description="&lt;b&gt;ACR50771.1&lt;/b&gt;&lt;br&gt;pyruvate dehydrogenase E1 alpha subunit&lt;br&gt;Location: 25480 - 24443" points="642,90 643,90 648,85 643,80 642,80 642,90 " style="stroke-width:1; stroke:black; fill:white; " id="dummy-17_h17_2_30" class="clusterblast-orf"  />
</g>
<g id="a17_0031"  >
<polygon locus_tag="ACR50770.1" description="&lt;b&gt;ACR50770.1&lt;/b&gt;&lt;br&gt;pyruvate dehydrogenase E1 beta subunit&lt;br&gt;Location: 24464 - 23448" points="648,90 648,90 653,85 648,80 648,80 648,90 " style="stroke-width:1; stroke:black; fill:white; " id="dummy-17_h17_2_31" class="clusterblast-orf"  />
</g>
<g id="a17_0032"  >
<polygon locus_tag="ACR50769.1" description="&lt;b&gt;ACR50769.1&lt;/b&gt;&lt;br&gt;E2 dihydrolipoyl acyltransferase&lt;br&gt;Location: 23455 - 22160" points="653,90 655,90 660,85 655,80 653,80 653,90 " style="stroke-width:1; stroke:black; fill:white; " id="dummy-17_h17_2_32" class="clusterblast-orf"  />
</g>
<g id="a17_0033"  >
<polygon locus_tag="ACR50768.1" description="&lt;b&gt;ACR50768.1&lt;/b&gt;&lt;br&gt;putative E2-like acyltransferase component of pyruvate/2-oxoglutarate dehydrogenase&lt;br&gt;Location: 22122 - 21304" points="660,85 665,80 665,80 665,90 665,90 660,85 " style="stroke-width:1; stroke:black; fill:white; " id="dummy-17_h17_2_33" class="clusterblast-orf"  />
</g>
<g id="a17_0034"  >
<polygon locus_tag="ACR50767.1" description="&lt;b&gt;ACR50767.1&lt;/b&gt;&lt;br&gt;hypothetical protein&lt;br&gt;Location: 20994 - 20581" points="666,90 669,85 666,80 666,90 " style="stroke-width:1; stroke:black; fill:white; " id="dummy-17_h17_2_34" class="clusterblast-orf"  />
</g>
<g id="a17_0035"  >
<polygon locus_tag="ACR50766.1" description="&lt;b&gt;ACR50766.1&lt;/b&gt;&lt;br&gt;putative phosphoesterase&lt;br&gt;Location: 20401 - 19520" points="670,90 674,85 670,80 670,90 " style="stroke-width:1; stroke:black; fill:white; " id="dummy-17_h17_2_35" class="clusterblast-orf"  />
</g>
<g id="a17_0036"  >
<polygon locus_tag="ACR50765.1" description="&lt;b&gt;ACR50765.1&lt;/b&gt;&lt;br&gt;hypothetical protein&lt;br&gt;Location: 19616 - 18798" points="674,85 678,80 678,90 674,85 " style="stroke-width:1; stroke:black; fill:white; " id="dummy-17_h17_2_36" class="clusterblast-orf"  />
</g>
<g id="a17_0037"  >
<polygon locus_tag="ACR50764.1" description="&lt;b&gt;ACR50764.1&lt;/b&gt;&lt;br&gt;hypothetical protein&lt;br&gt;Location: 18683 - 18327" points="679,90 681,85 679,80 679,90 " style="stroke-width:1; stroke:black; fill:white; " id="dummy-17_h17_2_37" class="clusterblast-orf"  />
</g>
<g id="a17_0038"  >
<polygon locus_tag="ACR50763.1" description="&lt;b&gt;ACR50763.1&lt;/b&gt;&lt;br&gt;periplasmic beta-glucosidase&lt;br&gt;Location: 18077 - 15861" points="682,90 689,90 694,85 689,80 682,80 682,90 " style="stroke-width:1; stroke:black; fill:white; " id="dummy-17_h17_2_38" class="clusterblast-orf"  />
</g>
<g id="a17_0039"  >
<polygon locus_tag="ACR50762.1" description="&lt;b&gt;ACR50762.1&lt;/b&gt;&lt;br&gt;conserved hypothetical protein&lt;br&gt;Location: 15675 - 15322" points="695,90 697,85 695,80 695,90 " style="stroke-width:1; stroke:black; fill:white; " id="dummy-17_h17_2_39" class="clusterblast-orf"  />
</g>
<g id="a17_0040"  >
<polygon locus_tag="ACR50761.1" description="&lt;b&gt;ACR50761.1&lt;/b&gt;&lt;br&gt;6-phosphogluconate 1-dehydrogenase&lt;br&gt;Location: 14896 - 13457" points="699,85 704,80 707,80 707,90 704,90 699,85 " style="stroke-width:1; stroke:black; fill:white; " id="dummy-17_h17_2_40" class="clusterblast-orf"  />
</g>
<g id="a17_0041"  >
<polygon locus_tag="ACR50760.1" description="&lt;b&gt;ACR50760.1&lt;/b&gt;&lt;br&gt;hypothetical protein&lt;br&gt;Location: 13090 - 11993" points="709,90 710,90 715,85 710,80 709,80 709,90 " style="stroke-width:1; stroke:black; fill:white; " id="dummy-17_h17_2_41" class="clusterblast-orf"  />
</g>
<g id="a17_0042"  >
<polygon locus_tag="ACR50759.1" description="&lt;b&gt;ACR50759.1&lt;/b&gt;&lt;br&gt;putative secreted protein&lt;br&gt;Location: 11776 - 10058" points="716,90 720,90 725,85 720,80 716,80 716,90 " style="stroke-width:1; stroke:black; fill:white; " id="dummy-17_h17_2_42" class="clusterblast-orf"  />
</g>
<g id="a17_0043"  >
<polygon locus_tag="ACR50758.1" description="&lt;b&gt;ACR50758.1&lt;/b&gt;&lt;br&gt;DeoR family transcriptional regulator&lt;br&gt;Location: 9528 - 8767" points="728,90 732,85 728,80 728,90 " style="stroke-width:1; stroke:black; fill:white; " id="dummy-17_h17_2_43" class="clusterblast-orf"  />
</g>
<g id="a17_0044"  >
<polygon locus_tag="ACR50757.1" description="&lt;b&gt;ACR50757.1&lt;/b&gt;&lt;br&gt;putative multiple sugar ABC transporter solute-binding protein&lt;br&gt;Location: 8585 - 7266" points="733,90 735,90 740,85 735,80 733,80 733,90 " style="stroke-width:1; stroke:black; fill:white; " id="dummy-17_h17_2_44" class="clusterblast-orf"  />
</g>
<g id="a17_0045"  >
<polygon locus_tag="ACR50756.1" description="&lt;b&gt;ACR50756.1&lt;/b&gt;&lt;br&gt;putative ABC transporter permease protein&lt;br&gt;Location: 7269 - 6283" points="740,90 741,90 746,85 741,80 740,80 740,90 " style="stroke-width:1; stroke:black; fill:white; " id="dummy-17_h17_2_45" class="clusterblast-orf"  />
</g>
<g id="a17_0046"  >
<polygon locus_tag="ACR50755.1" description="&lt;b&gt;ACR50755.1&lt;/b&gt;&lt;br&gt;integral membrane sugar transport protein&lt;br&gt;Location: 6286 - 5369" points="746,90 746,90 751,85 746,80 746,80 746,90 " style="stroke-width:1; stroke:black; fill:white; " id="dummy-17_h17_2_46" class="clusterblast-orf"  />
</g>
<g id="a17_0047"  >
<polygon locus_tag="ACR50754.1" description="&lt;b&gt;ACR50754.1&lt;/b&gt;&lt;br&gt;zinc-binding dehydrogenase&lt;br&gt;Location: 5339 - 4383" points="751,90 751,90 756,85 751,80 751,80 751,90 " style="stroke-width:1; stroke:black; fill:white; " id="dummy-17_h17_2_47" class="clusterblast-orf"  />
</g>
<g id="a17_0048"  >
<polygon locus_tag="ACR50753.1" description="&lt;b&gt;ACR50753.1&lt;/b&gt;&lt;br&gt;putative sugar kinase&lt;br&gt;Location: 4326 - 3427" points="756,90 756,90 761,85 756,80 756,80 756,90 " style="stroke-width:1; stroke:black; fill:white; " id="dummy-17_h17_2_48" class="clusterblast-orf"  />
</g>
<g id="a17_0049"  >
<polygon locus_tag="ACR50752.1" description="&lt;b&gt;ACR50752.1&lt;/b&gt;&lt;br&gt;conserved hypothetical protein&lt;br&gt;Location: 3256 - 1838" points="762,90 765,90 770,85 765,80 762,80 762,90 " style="stroke-width:1; stroke:black; fill:white; " id="dummy-17_h17_2_49" class="clusterblast-orf"  />
</g>
<g id="a17_0050"  >
<polygon locus_tag="ACR50751.1" description="&lt;b&gt;ACR50751.1&lt;/b&gt;&lt;br&gt;putative ABC transporter permease protein&lt;br&gt;Location: 1778 - 1020" points="770,85 774,80 774,90 770,85 " style="stroke-width:1; stroke:black; fill:white; " id="dummy-17_h17_2_50" class="clusterblast-orf"  />
</g>
<g id="a17_0051"  >
<polygon locus_tag="ACR50750.1" description="&lt;b&gt;ACR50750.1&lt;/b&gt;&lt;br&gt;putative ABC transporter permease protein&lt;br&gt;Location: 910 - 1" points="775,85 780,80 780,80 780,90 780,90 775,85 " style="stroke-width:1; stroke:black; fill:white; " id="dummy-17_h17_2_51" class="clusterblast-orf"  />
</g>
</svg>
