<svg version="1.1" xmlns="http://www.w3.org/2000/svg" height="230" width="800" xmlns:xlink="http://www.w3.org/1999/xlink" preserveAspectRatio="none" x="0" y="0" viewBox="0 0 800 230"  >
<g label="Query sequence" class="clusterblast-cluster"  >
<text class="clusterblast-acc" y="20" x="5"  >
Query sequence</text>
<line x1="10" x2="778.0" y2="35" style="stroke-width:1; stroke:grey; " y1="35"  />
<polygon locus_tag="SSMG_02504" description="&lt;b&gt;SSMG_02504&lt;/b&gt;&lt;br&gt;2-dehydro-3-deoxyglucarate aldolase&lt;br&gt;Location: 2691109 - 2692015" points="0,40 3,40 8,35 3,30 0,30 0,40 " style="stroke-width:1; stroke:black; fill:white; " id="dummy-8_q0_0_all" class="clusterblast-orf"  />
<polygon locus_tag="SSMG_02505" description="&lt;b&gt;SSMG_02505&lt;/b&gt;&lt;br&gt;2-deoxy-D-gluconate 3-dehydrogenase&lt;br&gt;Location: 2692030 - 2692864" points="8,40 11,40 16,35 11,30 8,30 8,40 " style="stroke-width:1; stroke:black; fill:white; " id="dummy-8_q1_0_all" class="clusterblast-orf"  />
<polygon locus_tag="SSMG_02506" description="&lt;b&gt;SSMG_02506&lt;/b&gt;&lt;br&gt;predicted protein&lt;br&gt;Location: 2693034 - 2693775" points="18,35 23,30 25,30 25,40 23,40 18,35 " style="stroke-width:1; stroke:black; fill:white; " id="dummy-8_q2_0_all" class="clusterblast-orf"  />
<polygon locus_tag="SSMG_02507" description="&lt;b&gt;SSMG_02507&lt;/b&gt;&lt;br&gt;hypothetical protein&lt;br&gt;Location: 2693983 - 2694943" points="27,40 31,40 36,35 31,30 27,30 27,40 " style="stroke-width:1; stroke:black; fill:white; " id="dummy-8_q3_0_all" class="clusterblast-orf"  />
<polygon locus_tag="SSMG_02508" description="&lt;b&gt;SSMG_02508&lt;/b&gt;&lt;br&gt;predicted protein&lt;br&gt;Location: 2694975 - 2695683" points="36,40 38,40 43,35 38,30 36,30 36,40 " style="stroke-width:1; stroke:black; fill:white; " id="dummy-8_q4_0_all" class="clusterblast-orf"  />
<polygon locus_tag="SSMG_02509" description="&lt;b&gt;SSMG_02509&lt;/b&gt;&lt;br&gt;predicted protein&lt;br&gt;Location: 2695703 - 2697239" points="43,40 53,40 58,35 53,30 43,30 43,40 " style="stroke-width:1; stroke:black; fill:white; " id="dummy-8_q5_0_all" class="clusterblast-orf"  />
<polygon locus_tag="SSMG_02510" description="&lt;b&gt;SSMG_02510&lt;/b&gt;&lt;br&gt;nickel ABC transporter, permease subunit NikB&lt;br&gt;Location: 2697313 - 2698276" points="59,40 63,40 68,35 63,30 59,30 59,40 " style="stroke-width:1; stroke:black; fill:white; " id="dummy-8_q6_0_all" class="clusterblast-orf"  />
<polygon locus_tag="SSMG_02511" description="&lt;b&gt;SSMG_02511&lt;/b&gt;&lt;br&gt;predicted protein&lt;br&gt;Location: 2698272 - 2700219" points="68,40 81,40 86,35 81,30 68,30 68,40 " style="stroke-width:1; stroke:black; fill:white; " id="dummy-8_q7_0_all" class="clusterblast-orf"  />
<polygon locus_tag="SSMG_02512" description="&lt;b&gt;SSMG_02512&lt;/b&gt;&lt;br&gt;ABC transporter ATP-binding protein&lt;br&gt;Location: 2700788 - 2701310" points="92,40 92,40 97,35 92,30 92,30 92,40 " style="stroke-width:1; stroke:black; fill:white; " id="dummy-8_q8_0_all" class="clusterblast-orf"  />
<polygon locus_tag="SSMG_02513" description="&lt;b&gt;SSMG_02513&lt;/b&gt;&lt;br&gt;pimeloyl-CoA dehydrogenase, large subunit&lt;br&gt;Location: 2702696 - 2703827" points="110,35 115,30 121,30 121,40 115,40 110,35 " style="stroke-width:1; stroke:black; fill:white; " id="dummy-8_q9_0_all" class="clusterblast-orf"  />
<polygon locus_tag="SSMG_02514" description="&lt;b&gt;SSMG_02514&lt;/b&gt;&lt;br&gt;predicted protein&lt;br&gt;Location: 2703854 - 2706251" points="121,35 126,30 144,30 144,40 126,40 121,35 " style="stroke-width:1; stroke:black; fill:white; " id="dummy-8_q10_0_all" class="clusterblast-orf"  />
<polygon locus_tag="SSMG_02515" description="&lt;b&gt;SSMG_02515&lt;/b&gt;&lt;br&gt;3-dehydroquinate synthase&lt;br&gt;Location: 2706207 - 2707470" points="143,35 148,30 155,30 155,40 148,40 143,35 " style="stroke-width:1; stroke:black; fill:white; " id="dummy-8_q11_0_all" class="clusterblast-orf"  />
<polygon locus_tag="SSMG_02516" description="&lt;b&gt;SSMG_02516&lt;/b&gt;&lt;br&gt;conserved hypothetical protein&lt;br&gt;Location: 2707797 - 2708793" points="158,35 163,30 168,30 168,40 163,40 158,35 " style="stroke-width:1; stroke:black; fill:white; " id="dummy-8_q12_0_all" class="clusterblast-orf"  />
<polygon locus_tag="SSMG_02517" description="&lt;b&gt;SSMG_02517&lt;/b&gt;&lt;br&gt;pyruvate dehydrogenase E1 component alpha subunit&lt;br&gt;Location: 2708789 - 2709737" points="168,35 173,30 177,30 177,40 173,40 168,35 " style="stroke-width:1; stroke:black; fill:white; " id="dummy-8_q13_0_all" class="clusterblast-orf"  />
<polygon locus_tag="SSMG_02518" description="&lt;b&gt;SSMG_02518&lt;/b&gt;&lt;br&gt;hypothetical protein&lt;br&gt;Location: 2709733 - 2710180" points="177,35 181,30 181,40 177,35 " style="stroke-width:1; stroke:black; fill:white; " id="dummy-8_q14_0_all" class="clusterblast-orf"  />
<polygon locus_tag="SSMG_02519" description="&lt;b&gt;SSMG_02519&lt;/b&gt;&lt;br&gt;hypothetical protein&lt;br&gt;Location: 2710188 - 2710650" points="181,35 186,30 186,30 186,40 186,40 181,35 " style="stroke-width:1; stroke:black; fill:white; " id="dummy-8_q15_0_all" class="clusterblast-orf"  />
<polygon locus_tag="SSMG_02520" description="&lt;b&gt;SSMG_02520&lt;/b&gt;&lt;br&gt;O-succinylbenzoate-CoA ligase&lt;br&gt;Location: 2710646 - 2712215" points="186,35 191,30 201,30 201,40 191,40 186,35 " style="stroke-width:1; stroke:black; fill:white; " id="dummy-8_q16_0_all" class="clusterblast-orf"  />
<polygon locus_tag="SSMG_02521" description="&lt;b&gt;SSMG_02521&lt;/b&gt;&lt;br&gt;cyclohexanecarboxyl-CoA dehydrogenase&lt;br&gt;Location: 2712224 - 2713370" points="201,35 206,30 212,30 212,40 206,40 201,35 " style="stroke-width:1; stroke:black; fill:white; " id="dummy-8_q17_0_all" class="clusterblast-orf"  />
<polygon locus_tag="SSMG_02522" description="&lt;b&gt;SSMG_02522&lt;/b&gt;&lt;br&gt;lactaldehyde reductase&lt;br&gt;Location: 2713480 - 2714695" points="213,40 219,40 224,35 219,30 213,30 213,40 " style="stroke-width:1; stroke:black; fill:white; " id="dummy-8_q18_0_all" class="clusterblast-orf"  />
<polygon locus_tag="SSMG_02523" description="&lt;b&gt;SSMG_02523&lt;/b&gt;&lt;br&gt;3-hydroxybutyryl-CoA dehydrogenase&lt;br&gt;Location: 2715144 - 2716008" points="228,40 232,40 237,35 232,30 228,30 228,40 " style="stroke-width:1; stroke:black; fill:white; " id="dummy-8_q19_0_all" class="clusterblast-orf"  />
<polygon locus_tag="SSMG_02524" description="&lt;b&gt;SSMG_02524&lt;/b&gt;&lt;br&gt;predicted protein&lt;br&gt;Location: 2716057 - 2717053" points="237,40 242,40 247,35 242,30 237,30 237,40 " style="stroke-width:1; stroke:black; fill:white; " id="dummy-8_q20_0_all" class="clusterblast-orf"  />
<polygon locus_tag="SSMG_02525" description="&lt;b&gt;SSMG_02525&lt;/b&gt;&lt;br&gt;propionyl-CoA carboxylase&lt;br&gt;Location: 2717072 - 2718461" points="247,40 255,40 260,35 255,30 247,30 247,40 " style="stroke-width:1; stroke:black; fill:white; " id="dummy-8_q21_0_all" class="clusterblast-orf"  />
<polygon locus_tag="SSMG_02526" description="&lt;b&gt;SSMG_02526&lt;/b&gt;&lt;br&gt;predicted protein&lt;br&gt;Location: 2718457 - 2718682" points="260,40 262,35 260,30 260,40 " style="stroke-width:1; stroke:black; fill:white; " id="dummy-8_q22_0_all" class="clusterblast-orf"  />
<polygon locus_tag="SSMG_02527" description="&lt;b&gt;SSMG_02527&lt;/b&gt;&lt;br&gt;predicted protein&lt;br&gt;Location: 2718678 - 2720046" points="262,40 270,40 275,35 270,30 262,30 262,40 " style="stroke-width:1; stroke:black; fill:white; " id="dummy-8_q23_0_all" class="clusterblast-orf"  />
<polygon locus_tag="SSMG_02528" description="&lt;b&gt;SSMG_02528&lt;/b&gt;&lt;br&gt;predicted protein&lt;br&gt;Location: 2720089 - 2721058" points="275,35 280,30 285,30 285,40 280,40 275,35 " style="stroke-width:1; stroke:black; fill:white; " id="dummy-8_q24_0_all" class="clusterblast-orf"  />
<polygon locus_tag="SSMG_02529" description="&lt;b&gt;SSMG_02529&lt;/b&gt;&lt;br&gt;predicted protein&lt;br&gt;Location: 2721439 - 2721766" points="288,40 291,35 288,30 288,40 " style="stroke-width:1; stroke:black; fill:white; " id="dummy-8_q25_0_all" class="clusterblast-orf"  />
<polygon locus_tag="SSMG_02530" description="&lt;b&gt;SSMG_02530&lt;/b&gt;&lt;br&gt;4-hydroxybenzoyl-CoA reductase, gamma subunit&lt;br&gt;Location: 2721725 - 2722226" points="291,40 291,40 296,35 291,30 291,30 291,40 " style="stroke-width:1; stroke:black; fill:white; " id="dummy-8_q26_0_all" class="clusterblast-orf"  />
<polygon locus_tag="SSMG_02531" description="&lt;b&gt;SSMG_02531&lt;/b&gt;&lt;br&gt;TetR family transcriptional regulator&lt;br&gt;Location: 2722390 - 2722987" points="297,35 302,30 303,30 303,40 302,40 297,35 " style="stroke-width:1; stroke:black; fill:#d81515; " id="dummy-8_q27_0_all" class="clusterblast-orf"  />
<polygon locus_tag="SSMG_02532" description="&lt;b&gt;SSMG_02532&lt;/b&gt;&lt;br&gt;predicted protein&lt;br&gt;Location: 2723072 - 2724563" points="304,40 313,40 318,35 313,30 304,30 304,40 " style="stroke-width:1; stroke:black; fill:#4dd815; " id="dummy-8_q28_0_all" class="clusterblast-orf"  />
<polygon locus_tag="SSMG_02533" description="&lt;b&gt;SSMG_02533&lt;/b&gt;&lt;br&gt;amine oxidase&lt;br&gt;Location: 2724609 - 2725971" points="319,40 326,40 331,35 326,30 319,30 319,40 " style="stroke-width:1; stroke:black; fill:#1585d8; " id="dummy-8_q29_0_all" class="clusterblast-orf"  />
<polygon locus_tag="SSMG_02534" description="&lt;b&gt;SSMG_02534&lt;/b&gt;&lt;br&gt;predicted protein&lt;br&gt;Location: 2726286 - 2727519" points="334,40 341,40 346,35 341,30 334,30 334,40 " style="stroke-width:1; stroke:black; fill:#a115d8; " id="dummy-8_q30_0_all" class="clusterblast-orf"  />
<polygon locus_tag="SSMG_02535" description="&lt;b&gt;SSMG_02535&lt;/b&gt;&lt;br&gt;non-ribosomal peptide synthetase&lt;br&gt;Location: 2727575 - 2730929" points="347,35 352,30 379,30 379,40 352,40 347,35 " style="stroke-width:1; stroke:black; fill:#d86915; " id="dummy-8_q31_0_all" class="clusterblast-orf"  />
<polygon locus_tag="SSMG_02536" description="&lt;b&gt;SSMG_02536&lt;/b&gt;&lt;br&gt;hypothetical protein&lt;br&gt;Location: 2730922 - 2738011" points="379,35 384,30 446,30 446,40 384,40 379,35 " style="stroke-width:1; stroke:black; fill:#15d831; " id="dummy-8_q32_0_all" class="clusterblast-orf"  />
<polygon locus_tag="SSMG_02537" description="&lt;b&gt;SSMG_02537&lt;/b&gt;&lt;br&gt;predicted protein&lt;br&gt;Location: 2738003 - 2742209" points="446,35 451,30 486,30 486,40 451,40 446,35 " style="stroke-width:1; stroke:black; fill:#15d831; " id="dummy-8_q33_0_all" class="clusterblast-orf"  />
<polygon locus_tag="SSMG_02538" description="&lt;b&gt;SSMG_02538&lt;/b&gt;&lt;br&gt;predicted protein&lt;br&gt;Location: 2742193 - 2749195" points="486,35 491,30 553,30 553,40 491,40 486,35 " style="stroke-width:1; stroke:black; fill:#15d831; " id="dummy-8_q34_0_all" class="clusterblast-orf"  />
<polygon locus_tag="SSMG_02539" description="&lt;b&gt;SSMG_02539&lt;/b&gt;&lt;br&gt;mbtH protein&lt;br&gt;Location: 2749191 - 2749413" points="553,35 555,30 555,40 553,35 " style="stroke-width:1; stroke:black; fill:#1531d8; " id="dummy-8_q35_0_all" class="clusterblast-orf"  />
<polygon locus_tag="SSMG_02540" description="&lt;b&gt;SSMG_02540&lt;/b&gt;&lt;br&gt;LipE protein&lt;br&gt;Location: 2749461 - 2750268" points="555,35 560,30 563,30 563,40 560,40 555,35 " style="stroke-width:1; stroke:black; fill:#d815bc; " id="dummy-8_q36_0_all" class="clusterblast-orf"  />
<polygon locus_tag="SSMG_02541" description="&lt;b&gt;SSMG_02541&lt;/b&gt;&lt;br&gt;major facilitator superfamily transporter multidrug resistance protein&lt;br&gt;Location: 2750240 - 2751416" points="563,35 568,30 574,30 574,40 568,40 563,35 " style="stroke-width:1; stroke:black; fill:#d8bc15; " id="dummy-8_q37_0_all" class="clusterblast-orf"  />
<polygon locus_tag="SSMG_02542" description="&lt;b&gt;SSMG_02542&lt;/b&gt;&lt;br&gt;2,3-dihydroxybenzoate-AMP ligase&lt;br&gt;Location: 2751558 - 2753106" points="575,40 585,40 590,35 585,30 575,30 575,40 " style="stroke-width:1; stroke:black; fill:#15d885; " id="dummy-8_q38_0_all" class="clusterblast-orf"  />
<polygon locus_tag="SSMG_02543" description="&lt;b&gt;SSMG_02543&lt;/b&gt;&lt;br&gt;predicted protein&lt;br&gt;Location: 2753102 - 2754086" points="590,40 594,40 599,35 594,30 590,30 590,40 " style="stroke-width:1; stroke:black; fill:#4d15d8; " id="dummy-8_q39_0_all" class="clusterblast-orf"  />
<polygon locus_tag="SSMG_02544" description="&lt;b&gt;SSMG_02544&lt;/b&gt;&lt;br&gt;predicted protein&lt;br&gt;Location: 2754082 - 2755066" points="599,40 603,40 608,35 603,30 599,30 599,40 " style="stroke-width:1; stroke:black; fill:#d81569; " id="dummy-8_q40_0_all" class="clusterblast-orf"  />
<polygon locus_tag="SSMG_02545" description="&lt;b&gt;SSMG_02545&lt;/b&gt;&lt;br&gt;salicylate synthase&lt;br&gt;Location: 2755073 - 2756384" points="609,35 614,30 621,30 621,40 614,40 609,35 " style="stroke-width:1; stroke:black; fill:#a1d815; " id="dummy-8_q41_0_all" class="clusterblast-orf"  />
<polygon locus_tag="SSMG_02546" description="&lt;b&gt;SSMG_02546&lt;/b&gt;&lt;br&gt;peptide monooxygenase&lt;br&gt;Location: 2756347 - 2757628" points="621,35 626,30 633,30 633,40 626,40 621,35 " style="stroke-width:1; stroke:black; fill:#15d8d8; " id="dummy-8_q42_0_all" class="clusterblast-orf"  />
<polygon locus_tag="SSMG_02547" description="&lt;b&gt;SSMG_02547&lt;/b&gt;&lt;br&gt;2-hydroxycyclohexanecarboxyl-CoA dehydrogenase&lt;br&gt;Location: 2757922 - 2758678" points="636,40 638,40 643,35 638,30 636,30 636,40 " style="stroke-width:1; stroke:black; fill:white; " id="dummy-8_q43_0_all" class="clusterblast-orf"  />
<polygon locus_tag="SSMG_02548" description="&lt;b&gt;SSMG_02548&lt;/b&gt;&lt;br&gt;cis-2,3-dihydrobiphenyl-2,3-diol dehydrogenase&lt;br&gt;Location: 2758674 - 2759448" points="643,40 645,40 650,35 645,30 643,30 643,40 " style="stroke-width:1; stroke:black; fill:white; " id="dummy-8_q44_0_all" class="clusterblast-orf"  />
<polygon locus_tag="SSMG_02549" description="&lt;b&gt;SSMG_02549&lt;/b&gt;&lt;br&gt;general substrate transporter&lt;br&gt;Location: 2759501 - 2760806" points="651,40 658,40 663,35 658,30 651,30 651,40 " style="stroke-width:1; stroke:black; fill:white; " id="dummy-8_q45_0_all" class="clusterblast-orf"  />
<polygon locus_tag="SSMG_02550" description="&lt;b&gt;SSMG_02550&lt;/b&gt;&lt;br&gt;chitinase A&lt;br&gt;Location: 2760973 - 2761990" points="665,40 669,40 674,35 669,30 665,30 665,40 " style="stroke-width:1; stroke:black; fill:white; " id="dummy-8_q46_0_all" class="clusterblast-orf"  />
<polygon locus_tag="SSMG_02551" description="&lt;b&gt;SSMG_02551&lt;/b&gt;&lt;br&gt;predicted protein&lt;br&gt;Location: 2762381 - 2762945" points="678,35 683,30 683,30 683,40 683,40 678,35 " style="stroke-width:1; stroke:black; fill:white; " id="dummy-8_q47_0_all" class="clusterblast-orf"  />
<polygon locus_tag="SSMG_02552" description="&lt;b&gt;SSMG_02552&lt;/b&gt;&lt;br&gt;pimeloyl-CoA dehydrogenase, small subunit&lt;br&gt;Location: 2762980 - 2764075" points="684,35 689,30 694,30 694,40 689,40 684,35 " style="stroke-width:1; stroke:black; fill:white; " id="dummy-8_q48_0_all" class="clusterblast-orf"  />
<polygon locus_tag="SSMG_02553" description="&lt;b&gt;SSMG_02553&lt;/b&gt;&lt;br&gt;pimeloyl-CoA dehydrogenase, large subunit&lt;br&gt;Location: 2764071 - 2765250" points="694,35 699,30 705,30 705,40 699,40 694,35 " style="stroke-width:1; stroke:black; fill:white; " id="dummy-8_q49_0_all" class="clusterblast-orf"  />
<polygon locus_tag="SSMG_02554" description="&lt;b&gt;SSMG_02554&lt;/b&gt;&lt;br&gt;acyl-CoA dehydrogenase&lt;br&gt;Location: 2765246 - 2766470" points="705,35 710,30 717,30 717,40 710,40 705,35 " style="stroke-width:1; stroke:black; fill:white; " id="dummy-8_q50_0_all" class="clusterblast-orf"  />
<polygon locus_tag="SSMG_02555" description="&lt;b&gt;SSMG_02555&lt;/b&gt;&lt;br&gt;acyl-Coenzyme A dehydrogenase&lt;br&gt;Location: 2766469 - 2767495" points="717,35 722,30 727,30 727,40 722,40 717,35 " style="stroke-width:1; stroke:black; fill:white; " id="dummy-8_q51_0_all" class="clusterblast-orf"  />
<polygon locus_tag="SSMG_02556" description="&lt;b&gt;SSMG_02556&lt;/b&gt;&lt;br&gt;acyl dehydratase&lt;br&gt;Location: 2767527 - 2767980" points="727,35 731,30 731,40 727,35 " style="stroke-width:1; stroke:black; fill:white; " id="dummy-8_q52_0_all" class="clusterblast-orf"  />
<polygon locus_tag="SSMG_02557" description="&lt;b&gt;SSMG_02557&lt;/b&gt;&lt;br&gt;3-oxoacyl-[acyl-carrier-protein] reductase&lt;br&gt;Location: 2767985 - 2768741" points="731,35 736,30 739,30 739,40 736,40 731,35 " style="stroke-width:1; stroke:black; fill:white; " id="dummy-8_q53_0_all" class="clusterblast-orf"  />
<polygon locus_tag="SSMG_02558" description="&lt;b&gt;SSMG_02558&lt;/b&gt;&lt;br&gt;predicted protein&lt;br&gt;Location: 2768897 - 2769545" points="740,35 745,30 746,30 746,40 745,40 740,35 " style="stroke-width:1; stroke:black; fill:white; " id="dummy-8_q54_0_all" class="clusterblast-orf"  />
<polygon locus_tag="SSMG_02559" description="&lt;b&gt;SSMG_02559&lt;/b&gt;&lt;br&gt;predicted protein&lt;br&gt;Location: 2769584 - 2770664" points="747,35 752,30 757,30 757,40 752,40 747,35 " style="stroke-width:1; stroke:black; fill:white; " id="dummy-8_q55_0_all" class="clusterblast-orf"  />
<polygon locus_tag="SSMG_02560" description="&lt;b&gt;SSMG_02560&lt;/b&gt;&lt;br&gt;hypothetical protein&lt;br&gt;Location: 2770764 - 2771310" points="758,35 763,30 763,30 763,40 763,40 758,35 " style="stroke-width:1; stroke:black; fill:white; " id="dummy-8_q56_0_all" class="clusterblast-orf"  />
<polygon locus_tag="SSMG_02561" description="&lt;b&gt;SSMG_02561&lt;/b&gt;&lt;br&gt;predicted protein&lt;br&gt;Location: 2771608 - 2773045" points="766,40 775,40 780,35 775,30 766,30 766,40 " style="stroke-width:1; stroke:black; fill:white; " id="dummy-8_q57_0_all" class="clusterblast-orf"  />
</g>
<g label="BGC0000324" description="BGC0000324_c1: coelibactin (27% of genes show similarity), NRP" class="clusterblast-cluster"  >
<text class="clusterblast-acc" y="70" x="5"  >
<a xlink:href="https://mibig.secondarymetabolites.org/go/BGC0000324/1" target="_blank">BGC0000324</a>:                                                                      coelibactin (27% of genes show similarity), NRP</text>
<line x1="10" x2="778.0" y2="85" style="stroke-width:1; stroke:grey; " y1="85"  />
</g>
<g id="a8_000"  >
<polygon locus_tag="CAC17508.1" description="&lt;b&gt;CAC17508.1&lt;/b&gt;&lt;br&gt;putative lyase&lt;br&gt;Location: 25121 - 23706&lt;br&gt;&lt;br&gt;&lt;b&gt;BlastP hit with SSMG_02545&lt;/b&gt;&lt;br&gt;Percentage identity: 46&lt;br&gt;Percentage coverage: 101&lt;br&gt;BLAST bit score: 327&lt;br&gt;E-value: 2.4e-89" points="270,85 275,80 283,80 283,90 275,90 270,85 " style="stroke-width:1; stroke:black; fill:#a1d815; " id="dummy-8_h8_6_0" class="clusterblast-orf"  />
</g>
<g id="a8_001"  >
<polygon locus_tag="CAC17507.1" description="&lt;b&gt;CAC17507.1&lt;/b&gt;&lt;br&gt;putative ABC transporter ATP-binding protein&lt;br&gt;Location: 23647 - 21884" points="284,85 289,80 301,80 301,90 289,90 284,85 " style="stroke-width:1; stroke:black; fill:white; " id="dummy-8_h8_6_1" class="clusterblast-orf"  />
</g>
<g id="a8_002"  >
<polygon locus_tag="CAC17506.1" description="&lt;b&gt;CAC17506.1&lt;/b&gt;&lt;br&gt;putative ABC transporter ATP-binding protein&lt;br&gt;Location: 21887 - 20061" points="301,85 306,80 318,80 318,90 306,90 301,85 " style="stroke-width:1; stroke:black; fill:white; " id="dummy-8_h8_6_2" class="clusterblast-orf"  />
</g>
<g id="a8_003"  >
<polygon locus_tag="CAC17505.1" description="&lt;b&gt;CAC17505.1&lt;/b&gt;&lt;br&gt;conserved hypothetical protein&lt;br&gt;Location: 20028 - 19300" points="318,85 323,80 325,80 325,90 323,90 318,85 " style="stroke-width:1; stroke:black; fill:white; " id="dummy-8_h8_6_3" class="clusterblast-orf"  />
</g>
<g id="a8_004"  >
<polygon locus_tag="CAC17504.1" description="&lt;b&gt;CAC17504.1&lt;/b&gt;&lt;br&gt;putative thioesterase&lt;br&gt;Location: 19289 - 18456" points="325,85 330,80 333,80 333,90 330,90 325,85 " style="stroke-width:1; stroke:black; fill:white; " id="dummy-8_h8_6_4" class="clusterblast-orf"  />
</g>
<g id="a8_005"  >
<polygon locus_tag="CAC17503.1" description="&lt;b&gt;CAC17503.1&lt;/b&gt;&lt;br&gt;putative cytochrome P450&lt;br&gt;Location: 18459 - 17224" points="333,85 338,80 345,80 345,90 338,90 333,85 " style="stroke-width:1; stroke:black; fill:white; " id="dummy-8_h8_6_5" class="clusterblast-orf"  />
</g>
<g id="a8_006"  >
<polygon locus_tag="CAC17502.1" description="&lt;b&gt;CAC17502.1&lt;/b&gt;&lt;br&gt;conserved hypothetical protein&lt;br&gt;Location: 17215 - 15182" points="345,85 350,80 365,80 365,90 350,90 345,85 " style="stroke-width:1; stroke:black; fill:white; " id="dummy-8_h8_6_6" class="clusterblast-orf"  />
</g>
<g id="a8_007"  >
<polygon locus_tag="CAC17501.1" description="&lt;b&gt;CAC17501.1&lt;/b&gt;&lt;br&gt;conserved hypothetical protein&lt;br&gt;Location: 15185 - 14034" points="365,85 370,80 375,80 375,90 370,90 365,85 " style="stroke-width:1; stroke:black; fill:white; " id="dummy-8_h8_6_7" class="clusterblast-orf"  />
</g>
<g id="a8_008"  >
<polygon locus_tag="CAC17500.1" description="&lt;b&gt;CAC17500.1&lt;/b&gt;&lt;br&gt;putative non-ribosomal peptide synthase&lt;br&gt;Location: 14037 - 8509" points="375,85 380,80 428,80 428,90 380,90 375,85 " style="stroke-width:1; stroke:black; fill:white; " id="dummy-8_h8_6_8" class="clusterblast-orf"  />
</g>
<g id="a8_009"  >
<polygon locus_tag="CAC17499.1" description="&lt;b&gt;CAC17499.1&lt;/b&gt;&lt;br&gt;putative non-ribosomal peptide synthase&lt;br&gt;Location: 8512 - 1823&lt;br&gt;&lt;br&gt;&lt;b&gt;BlastP hit with SSMG_02535&lt;/b&gt;&lt;br&gt;Percentage identity: 53&lt;br&gt;Percentage coverage: 99&lt;br&gt;BLAST bit score: 1063&lt;br&gt;E-value: 2.1e-310" points="428,85 433,80 492,80 492,90 433,90 428,85 " style="stroke-width:1; stroke:black; fill:#d86915; " id="dummy-8_h8_6_9" class="clusterblast-orf"  />
</g>
<g id="a8_0010"  >
<polygon locus_tag="CAC17498.1" description="&lt;b&gt;CAC17498.1&lt;/b&gt;&lt;br&gt;putative AMP-binding ligase&lt;br&gt;Location: 1662 - 1&lt;br&gt;&lt;br&gt;&lt;b&gt;BlastP hit with SSMG_02542&lt;/b&gt;&lt;br&gt;Percentage identity: 48&lt;br&gt;Percentage coverage: 106&lt;br&gt;BLAST bit score: 445&lt;br&gt;E-value: 1.2e-124" points="493,90 504,90 509,85 504,80 493,80 493,90 " style="stroke-width:1; stroke:black; fill:#15d885; " id="dummy-8_h8_6_10" class="clusterblast-orf"  />
</g>
</svg>
