<svg version="1.1" xmlns="http://www.w3.org/2000/svg" height="230" width="800" xmlns:xlink="http://www.w3.org/1999/xlink" preserveAspectRatio="none" x="0" y="0" viewBox="0 0 800 230"  >
<g label="Query sequence" class="clusterblast-cluster"  >
<text class="clusterblast-acc" y="20" x="5"  >
Query sequence</text>
<line x1="10" x2="778.0" y2="35" style="stroke-width:1; stroke:grey; " y1="35"  />
<polygon locus_tag="SSMG_04068" description="&lt;b&gt;SSMG_04068&lt;/b&gt;&lt;br&gt;predicted protein&lt;br&gt;Location: 4430591 - 4431389" points="59,40 65,40 70,35 65,30 59,30 59,40 " style="stroke-width:1; stroke:black; fill:white; " id="dummy-16_q0_0_all" class="clusterblast-orf"  />
<polygon locus_tag="SSMG_04069" description="&lt;b&gt;SSMG_04069&lt;/b&gt;&lt;br&gt;proline/betaine transporter&lt;br&gt;Location: 4431385 - 4432696" points="70,40 84,40 89,35 84,30 70,30 70,40 " style="stroke-width:1; stroke:black; fill:white; " id="dummy-16_q1_0_all" class="clusterblast-orf"  />
<polygon locus_tag="SSMG_04070" description="&lt;b&gt;SSMG_04070&lt;/b&gt;&lt;br&gt;predicted protein&lt;br&gt;Location: 4432692 - 4434222" points="89,40 107,40 112,35 107,30 89,30 89,40 " style="stroke-width:1; stroke:black; fill:white; " id="dummy-16_q2_0_all" class="clusterblast-orf"  />
<polygon locus_tag="SSMG_04071" description="&lt;b&gt;SSMG_04071&lt;/b&gt;&lt;br&gt;predicted protein&lt;br&gt;Location: 4434196 - 4436218" points="111,40 136,40 141,35 136,30 111,30 111,40 " style="stroke-width:1; stroke:black; fill:white; " id="dummy-16_q3_0_all" class="clusterblast-orf"  />
<polygon locus_tag="SSMG_04072" description="&lt;b&gt;SSMG_04072&lt;/b&gt;&lt;br&gt;predicted protein&lt;br&gt;Location: 4436425 - 4437238" points="144,35 149,30 156,30 156,40 149,40 144,35 " style="stroke-width:1; stroke:black; fill:white; " id="dummy-16_q4_0_all" class="clusterblast-orf"  />
<polygon locus_tag="SSMG_04073" description="&lt;b&gt;SSMG_04073&lt;/b&gt;&lt;br&gt;major facilitator superfamily transporter permease&lt;br&gt;Location: 4437234 - 4438521" points="156,35 161,30 174,30 174,40 161,40 156,35 " style="stroke-width:1; stroke:black; fill:white; " id="dummy-16_q5_0_all" class="clusterblast-orf"  />
<polygon locus_tag="SSMG_04074" description="&lt;b&gt;SSMG_04074&lt;/b&gt;&lt;br&gt;conserved hypothetical protein&lt;br&gt;Location: 4438628 - 4441787" points="176,40 217,40 222,35 217,30 176,30 176,40 " style="stroke-width:1; stroke:black; fill:white; " id="dummy-16_q6_0_all" class="clusterblast-orf"  />
<polygon locus_tag="SSMG_04075" description="&lt;b&gt;SSMG_04075&lt;/b&gt;&lt;br&gt;predicted protein&lt;br&gt;Location: 4442155 - 4443325" points="227,35 232,30 244,30 244,40 232,40 227,35 " style="stroke-width:1; stroke:black; fill:white; " id="dummy-16_q7_0_all" class="clusterblast-orf"  />
<polygon locus_tag="SSMG_04076" description="&lt;b&gt;SSMG_04076&lt;/b&gt;&lt;br&gt;acetyl coenzyme A synthetase&lt;br&gt;Location: 4443318 - 4445454" points="244,40 270,40 275,35 270,30 244,30 244,40 " style="stroke-width:1; stroke:black; fill:white; " id="dummy-16_q8_0_all" class="clusterblast-orf"  />
<polygon locus_tag="SSMG_04077" description="&lt;b&gt;SSMG_04077&lt;/b&gt;&lt;br&gt;predicted protein&lt;br&gt;Location: 4445446 - 4446766" points="275,40 290,40 295,35 290,30 275,30 275,40 " style="stroke-width:1; stroke:black; fill:white; " id="dummy-16_q9_0_all" class="clusterblast-orf"  />
<polygon locus_tag="SSMG_04078" description="&lt;b&gt;SSMG_04078&lt;/b&gt;&lt;br&gt;predicted protein&lt;br&gt;Location: 4446822 - 4448145" points="295,40 310,40 315,35 310,30 295,30 295,40 " style="stroke-width:1; stroke:black; fill:white; " id="dummy-16_q10_0_all" class="clusterblast-orf"  />
<polygon locus_tag="SSMG_04079" description="&lt;b&gt;SSMG_04079&lt;/b&gt;&lt;br&gt;predicted protein&lt;br&gt;Location: 4448144 - 4449326" points="315,40 327,40 332,35 327,30 315,30 315,40 " style="stroke-width:1; stroke:black; fill:white; " id="dummy-16_q11_0_all" class="clusterblast-orf"  />
<polygon locus_tag="SSMG_04080" description="&lt;b&gt;SSMG_04080&lt;/b&gt;&lt;br&gt;cytochrome P450&lt;br&gt;Location: 4449339 - 4450548" points="332,35 337,30 350,30 350,40 337,40 332,35 " style="stroke-width:1; stroke:black; fill:#d81515; " id="dummy-16_q12_0_all" class="clusterblast-orf"  />
<polygon locus_tag="SSMG_04081" description="&lt;b&gt;SSMG_04081&lt;/b&gt;&lt;br&gt;predicted protein&lt;br&gt;Location: 4450544 - 4456262" points="350,35 355,30 433,30 433,40 355,40 350,35 " style="stroke-width:1; stroke:black; fill:#15d8d8; " id="dummy-16_q13_0_all" class="clusterblast-orf"  />
<polygon locus_tag="SSMG_04082" description="&lt;b&gt;SSMG_04082&lt;/b&gt;&lt;br&gt;predicted protein&lt;br&gt;Location: 4456548 - 4457130" points="437,40 441,40 446,35 441,30 437,30 437,40 " style="stroke-width:1; stroke:black; fill:white; " id="dummy-16_q14_0_all" class="clusterblast-orf"  />
<polygon locus_tag="SSMG_04083" description="&lt;b&gt;SSMG_04083&lt;/b&gt;&lt;br&gt;translation elongation factor EF-1, subunit alpha&lt;br&gt;Location: 4457199 - 4459032" points="447,35 452,30 473,30 473,40 452,40 447,35 " style="stroke-width:1; stroke:black; fill:white; " id="dummy-16_q15_0_all" class="clusterblast-orf"  />
<polygon locus_tag="SSMG_04084" description="&lt;b&gt;SSMG_04084&lt;/b&gt;&lt;br&gt;sulfate adenylyltransferase subunit 2&lt;br&gt;Location: 4459028 - 4459946" points="473,35 478,30 487,30 487,40 478,40 473,35 " style="stroke-width:1; stroke:black; fill:white; " id="dummy-16_q16_0_all" class="clusterblast-orf"  />
<polygon locus_tag="SSMG_04085" description="&lt;b&gt;SSMG_04085&lt;/b&gt;&lt;br&gt;baiE protein&lt;br&gt;Location: 4460028 - 4460502" points="488,40 490,40 495,35 490,30 488,30 488,40 " style="stroke-width:1; stroke:black; fill:white; " id="dummy-16_q17_0_all" class="clusterblast-orf"  />
<polygon locus_tag="SSMG_04086" description="&lt;b&gt;SSMG_04086&lt;/b&gt;&lt;br&gt;transcriptional regulator&lt;br&gt;Location: 4460511 - 4461399" points="495,35 500,30 508,30 508,40 500,40 495,35 " style="stroke-width:1; stroke:black; fill:white; " id="dummy-16_q18_0_all" class="clusterblast-orf"  />
<polygon locus_tag="SSMG_04087" description="&lt;b&gt;SSMG_04087&lt;/b&gt;&lt;br&gt;conserved hypothetical protein&lt;br&gt;Location: 4461487 - 4462654" points="509,40 521,40 526,35 521,30 509,30 509,40 " style="stroke-width:1; stroke:black; fill:white; " id="dummy-16_q19_0_all" class="clusterblast-orf"  />
<polygon locus_tag="SSMG_04088" description="&lt;b&gt;SSMG_04088&lt;/b&gt;&lt;br&gt;3-oxoacyl-[acyl-carrier-protein] reductase&lt;br&gt;Location: 4462658 - 4463438" points="526,40 532,40 537,35 532,30 526,30 526,40 " style="stroke-width:1; stroke:black; fill:white; " id="dummy-16_q20_0_all" class="clusterblast-orf"  />
<polygon locus_tag="SSMG_04089" description="&lt;b&gt;SSMG_04089&lt;/b&gt;&lt;br&gt;conserved hypothetical protein&lt;br&gt;Location: 4463448 - 4464600" points="538,40 549,40 554,35 549,30 538,30 538,40 " style="stroke-width:1; stroke:black; fill:white; " id="dummy-16_q21_0_all" class="clusterblast-orf"  />
<polygon locus_tag="SSMG_04090" description="&lt;b&gt;SSMG_04090&lt;/b&gt;&lt;br&gt;predicted protein&lt;br&gt;Location: 4464580 - 4465225" points="554,40 558,40 563,35 558,30 554,30 554,40 " style="stroke-width:1; stroke:black; fill:white; " id="dummy-16_q22_0_all" class="clusterblast-orf"  />
<polygon locus_tag="SSMG_04091" description="&lt;b&gt;SSMG_04091&lt;/b&gt;&lt;br&gt;predicted protein&lt;br&gt;Location: 4465316 - 4469924" points="565,35 570,30 632,30 632,40 570,40 565,35 " style="stroke-width:1; stroke:black; fill:white; " id="dummy-16_q23_0_all" class="clusterblast-orf"  />
<polygon locus_tag="SSMG_04092" description="&lt;b&gt;SSMG_04092&lt;/b&gt;&lt;br&gt;conserved hypothetical protein&lt;br&gt;Location: 4470040 - 4470820" points="634,35 639,30 645,30 645,40 639,40 634,35 " style="stroke-width:1; stroke:black; fill:white; " id="dummy-16_q24_0_all" class="clusterblast-orf"  />
<polygon locus_tag="SSMG_04093" description="&lt;b&gt;SSMG_04093&lt;/b&gt;&lt;br&gt;predicted protein&lt;br&gt;Location: 4471112 - 4471874" points="649,40 655,40 660,35 655,30 649,30 649,40 " style="stroke-width:1; stroke:black; fill:white; " id="dummy-16_q25_0_all" class="clusterblast-orf"  />
<polygon locus_tag="SSMG_04094" description="&lt;b&gt;SSMG_04094&lt;/b&gt;&lt;br&gt;NUDIX hydrolase&lt;br&gt;Location: 4471920 - 4472331" points="661,40 662,40 667,35 662,30 661,30 661,40 " style="stroke-width:1; stroke:black; fill:white; " id="dummy-16_q26_0_all" class="clusterblast-orf"  />
<polygon locus_tag="SSMG_04095" description="&lt;b&gt;SSMG_04095&lt;/b&gt;&lt;br&gt;5-oxoprolinase&lt;br&gt;Location: 4472373 - 4473963" points="668,35 673,30 691,30 691,40 673,40 668,35 " style="stroke-width:1; stroke:black; fill:white; " id="dummy-16_q27_0_all" class="clusterblast-orf"  />
<polygon locus_tag="SSMG_04096" description="&lt;b&gt;SSMG_04096&lt;/b&gt;&lt;br&gt;5-oxoprolinase&lt;br&gt;Location: 4473959 - 4475999" points="691,35 696,30 720,30 720,40 696,40 691,35 " style="stroke-width:1; stroke:black; fill:white; " id="dummy-16_q28_0_all" class="clusterblast-orf"  />
</g>
<g label="BGC0001658" description="BGC0001658_c1: macrotermycins (19% of genes show similarity), Polyketide" class="clusterblast-cluster"  >
<text class="clusterblast-acc" y="70" x="5"  >
<a xlink:href="https://mibig.secondarymetabolites.org/go/BGC0001658/1" target="_blank">BGC0001658</a>:                                                                   macrotermycins (19% of genes show similarity), Polyketide</text>
<line x1="10" x2="778.0" y2="85" style="stroke-width:1; stroke:grey; " y1="85"  />
</g>
<g id="a16_000"  >
<polygon locus_tag="A4R44_03199" description="&lt;b&gt;A4R44_03199&lt;/b&gt;&lt;br&gt;Daunorubicin/doxorubicin resistance ABC transporter permease protein DrrB&lt;br&gt;Location: 53529 - 52702" points="0,85 5,80 12,80 12,90 5,90 0,85 " style="stroke-width:1; stroke:black; fill:white; " id="dummy-16_h16_5_0" class="clusterblast-orf"  />
</g>
<g id="a16_001"  >
<polygon locus_tag="A4R44_03198" description="&lt;b&gt;A4R44_03198&lt;/b&gt;&lt;br&gt;Daunorubicin/doxorubicin resistance ATP-binding protein DrrA&lt;br&gt;Location: 52702 - 51779" points="12,85 17,80 25,80 25,90 17,90 12,85 " style="stroke-width:1; stroke:black; fill:white; " id="dummy-16_h16_5_1" class="clusterblast-orf"  />
</g>
<g id="a16_002"  >
<polygon locus_tag="A4R44_03197" description="&lt;b&gt;A4R44_03197&lt;/b&gt;&lt;br&gt;Phenolphthiocerol synthesis polyketide synthase type I Pks15/1&lt;br&gt;Location: 51665 - 41289&lt;br&gt;&lt;br&gt;&lt;b&gt;BlastP hit with SSMG_04081&lt;/b&gt;&lt;br&gt;Percentage identity: 50&lt;br&gt;Percentage coverage: 88&lt;br&gt;BLAST bit score: 1390&lt;br&gt;E-value: 0.0" points="27,85 32,80 178,80 178,90 32,90 27,85 " style="stroke-width:1; stroke:black; fill:#15d8d8; " id="dummy-16_h16_5_2" class="clusterblast-orf"  />
</g>
<g id="a16_003"  >
<polygon locus_tag="A4R44_03196" description="&lt;b&gt;A4R44_03196&lt;/b&gt;&lt;br&gt;Erythronolide synthase, modules 1 and 2&lt;br&gt;Location: 41255 - 36492&lt;br&gt;&lt;br&gt;&lt;b&gt;BlastP hit with SSMG_04081&lt;/b&gt;&lt;br&gt;Percentage identity: 46&lt;br&gt;Percentage coverage: 49&lt;br&gt;BLAST bit score: 694&lt;br&gt;E-value: 5.6e-199" points="178,85 183,80 248,80 248,90 183,90 178,85 " style="stroke-width:1; stroke:black; fill:#15d8d8; " id="dummy-16_h16_5_3" class="clusterblast-orf"  />
</g>
<g id="a16_004"  >
<polygon locus_tag="A4R44_03195" description="&lt;b&gt;A4R44_03195&lt;/b&gt;&lt;br&gt;Phenolphthiocerol synthesis polyketide synthase type I Pks15/1&lt;br&gt;Location: 36495 - 31237&lt;br&gt;&lt;br&gt;&lt;b&gt;BlastP hit with SSMG_04081&lt;/b&gt;&lt;br&gt;Percentage identity: 50&lt;br&gt;Percentage coverage: 88&lt;br&gt;BLAST bit score: 1374&lt;br&gt;E-value: 0.0" points="248,85 253,80 324,80 324,90 253,90 248,85 " style="stroke-width:1; stroke:black; fill:#15d8d8; " id="dummy-16_h16_5_4" class="clusterblast-orf"  />
</g>
<g id="a16_005"  >
<polygon locus_tag="A4R44_03194" description="&lt;b&gt;A4R44_03194&lt;/b&gt;&lt;br&gt;Desosaminyl transferase EryCIII precursor&lt;br&gt;Location: 30978 - 30082" points="328,85 333,80 341,80 341,90 333,90 328,85 " style="stroke-width:1; stroke:black; fill:white; " id="dummy-16_h16_5_5" class="clusterblast-orf"  />
</g>
<g id="a16_006"  >
<polygon locus_tag="A4R44_03193" description="&lt;b&gt;A4R44_03193&lt;/b&gt;&lt;br&gt;hypothetical protein&lt;br&gt;Location: 29861 - 29445" points="344,85 349,80 350,80 350,90 349,90 344,85 " style="stroke-width:1; stroke:black; fill:white; " id="dummy-16_h16_5_6" class="clusterblast-orf"  />
</g>
<g id="a16_007"  >
<polygon locus_tag="A4R44_03192" description="&lt;b&gt;A4R44_03192&lt;/b&gt;&lt;br&gt;UDP-glucose/GDP-mannose dehydrogenase family, NAD binding domain&lt;br&gt;Location: 29095 - 28907" points="356,90 358,85 356,80 356,90 " style="stroke-width:1; stroke:black; fill:white; " id="dummy-16_h16_5_7" class="clusterblast-orf"  />
</g>
<g id="a16_008"  >
<polygon locus_tag="A4R44_03191" description="&lt;b&gt;A4R44_03191&lt;/b&gt;&lt;br&gt;Phenolphthiocerol synthesis polyketide synthase type I Pks15/1&lt;br&gt;Location: 28408 - 19967&lt;br&gt;&lt;br&gt;&lt;b&gt;BlastP hit with SSMG_04081&lt;/b&gt;&lt;br&gt;Percentage identity: 53&lt;br&gt;Percentage coverage: 62&lt;br&gt;BLAST bit score: 1078&lt;br&gt;E-value: 0.0" points="366,85 371,80 489,80 489,90 371,90 366,85 " style="stroke-width:1; stroke:black; fill:#15d8d8; " id="dummy-16_h16_5_8" class="clusterblast-orf"  />
</g>
<g id="a16_009"  >
<polygon locus_tag="A4R44_03190" description="&lt;b&gt;A4R44_03190&lt;/b&gt;&lt;br&gt;Linear gramicidin dehydrogenase LgrE&lt;br&gt;Location: 19679 - 18864" points="493,90 500,90 505,85 500,80 493,80 493,90 " style="stroke-width:1; stroke:black; fill:white; " id="dummy-16_h16_5_9" class="clusterblast-orf"  />
</g>
<g id="a16_0010"  >
<polygon locus_tag="A4R44_03189" description="&lt;b&gt;A4R44_03189&lt;/b&gt;&lt;br&gt;hypothetical protein&lt;br&gt;Location: 18757 - 18494" points="506,90 510,85 506,80 506,90 " style="stroke-width:1; stroke:black; fill:white; " id="dummy-16_h16_5_10" class="clusterblast-orf"  />
</g>
<g id="a16_0011"  >
<polygon locus_tag="A4R44_03188" description="&lt;b&gt;A4R44_03188&lt;/b&gt;&lt;br&gt;Phenolphthiocerol synthesis polyketide synthase type I Pks15/1&lt;br&gt;Location: 18428 - 15150" points="511,85 516,80 559,80 559,90 516,90 511,85 " style="stroke-width:1; stroke:black; fill:white; " id="dummy-16_h16_5_11" class="clusterblast-orf"  />
</g>
<g id="a16_0012"  >
<polygon locus_tag="A4R44_03187" description="&lt;b&gt;A4R44_03187&lt;/b&gt;&lt;br&gt;Phenolphthiocerol synthesis polyketide synthase type I Pks15/1&lt;br&gt;Location: 15141 - 13102" points="559,85 564,80 589,80 589,90 564,90 559,85 " style="stroke-width:1; stroke:black; fill:white; " id="dummy-16_h16_5_12" class="clusterblast-orf"  />
</g>
<g id="a16_0013"  >
<polygon locus_tag="A4R44_03186" description="&lt;b&gt;A4R44_03186&lt;/b&gt;&lt;br&gt;Cytochrome P450 107B1&lt;br&gt;Location: 12948 - 11752&lt;br&gt;&lt;br&gt;&lt;b&gt;BlastP hit with SSMG_04080&lt;/b&gt;&lt;br&gt;Percentage identity: 48&lt;br&gt;Percentage coverage: 100&lt;br&gt;BLAST bit score: 347&lt;br&gt;E-value: 2.7e-95" points="591,85 596,80 608,80 608,90 596,90 591,85 " style="stroke-width:1; stroke:black; fill:#d81515; " id="dummy-16_h16_5_13" class="clusterblast-orf"  />
</g>
<g id="a16_0014"  >
<polygon locus_tag="A4R44_03185" description="&lt;b&gt;A4R44_03185&lt;/b&gt;&lt;br&gt;Methylaspartate mutase E chain (MutE)&lt;br&gt;Location: 11752 - 11210" points="608,85 613,80 616,80 616,90 613,90 608,85 " style="stroke-width:1; stroke:black; fill:white; " id="dummy-16_h16_5_14" class="clusterblast-orf"  />
</g>
<g id="a16_0015"  >
<polygon locus_tag="A4R44_03184" description="&lt;b&gt;A4R44_03184&lt;/b&gt;&lt;br&gt;Methylaspartate mutase E chain&lt;br&gt;Location: 11268 - 10477" points="615,85 620,80 627,80 627,90 620,90 615,85 " style="stroke-width:1; stroke:black; fill:white; " id="dummy-16_h16_5_15" class="clusterblast-orf"  />
</g>
<g id="a16_0016"  >
<polygon locus_tag="A4R44_03183" description="&lt;b&gt;A4R44_03183&lt;/b&gt;&lt;br&gt;Methylaspartate mutase S chain&lt;br&gt;Location: 10480 - 10004" points="627,85 632,80 634,80 634,90 632,90 627,85 " style="stroke-width:1; stroke:black; fill:white; " id="dummy-16_h16_5_16" class="clusterblast-orf"  />
</g>
<g id="a16_0017"  >
<polygon locus_tag="A4R44_03182" description="&lt;b&gt;A4R44_03182&lt;/b&gt;&lt;br&gt;L-glutamyl-[BtrI acyl-carrier protein] decarboxylase&lt;br&gt;Location: 10007 - 8793" points="634,85 639,80 651,80 651,90 639,90 634,85 " style="stroke-width:1; stroke:black; fill:white; " id="dummy-16_h16_5_17" class="clusterblast-orf"  />
</g>
<g id="a16_0018"  >
<polygon locus_tag="A4R44_03181" description="&lt;b&gt;A4R44_03181&lt;/b&gt;&lt;br&gt;Long-chain-fatty-acid--CoA ligase&lt;br&gt;Location: 8796 - 7336" points="651,85 656,80 673,80 673,90 656,90 651,85 " style="stroke-width:1; stroke:black; fill:white; " id="dummy-16_h16_5_18" class="clusterblast-orf"  />
</g>
<g id="a16_0019"  >
<polygon locus_tag="A4R44_03180" description="&lt;b&gt;A4R44_03180&lt;/b&gt;&lt;br&gt;Surfactin synthase subunit 1&lt;br&gt;Location: 7136 - 5637" points="676,85 681,80 697,80 697,90 681,90 676,85 " style="stroke-width:1; stroke:black; fill:white; " id="dummy-16_h16_5_19" class="clusterblast-orf"  />
</g>
<g id="a16_0020"  >
<polygon locus_tag="A4R44_03179" description="&lt;b&gt;A4R44_03179&lt;/b&gt;&lt;br&gt;Acyl carrier protein&lt;br&gt;Location: 5403 - 5158" points="701,90 704,85 701,80 701,90 " style="stroke-width:1; stroke:black; fill:white; " id="dummy-16_h16_5_20" class="clusterblast-orf"  />
</g>
<g id="a16_0021"  >
<polygon locus_tag="A4R44_03178" description="&lt;b&gt;A4R44_03178&lt;/b&gt;&lt;br&gt;Malonyl CoA-acyl carrier protein transacylase&lt;br&gt;Location: 5165 - 4206" points="704,85 709,80 718,80 718,90 709,90 704,85 " style="stroke-width:1; stroke:black; fill:white; " id="dummy-16_h16_5_21" class="clusterblast-orf"  />
</g>
<g id="a16_0022"  >
<polygon locus_tag="A4R44_03177" description="&lt;b&gt;A4R44_03177&lt;/b&gt;&lt;br&gt;L-amino acid amidase&lt;br&gt;Location: 4213 - 3281" points="718,85 723,80 732,80 732,90 723,90 718,85 " style="stroke-width:1; stroke:black; fill:white; " id="dummy-16_h16_5_22" class="clusterblast-orf"  />
</g>
<g id="a16_0023"  >
<polygon locus_tag="A4R44_03176" description="&lt;b&gt;A4R44_03176&lt;/b&gt;&lt;br&gt;Desosaminyl transferase EryCIII precursor&lt;br&gt;Location: 3046 - 1784" points="735,90 749,90 754,85 749,80 735,80 735,90 " style="stroke-width:1; stroke:black; fill:white; " id="dummy-16_h16_5_23" class="clusterblast-orf"  />
</g>
<g id="a16_0024"  >
<polygon locus_tag="A4R44_03175" description="&lt;b&gt;A4R44_03175&lt;/b&gt;&lt;br&gt;Sensor histidine kinase LiaS&lt;br&gt;Location: 1793 - 678" points="753,90 765,90 770,85 765,80 753,80 753,90 " style="stroke-width:1; stroke:black; fill:white; " id="dummy-16_h16_5_24" class="clusterblast-orf"  />
</g>
<g id="a16_0025"  >
<polygon locus_tag="A4R44_03174" description="&lt;b&gt;A4R44_03174&lt;/b&gt;&lt;br&gt;Transcriptional regulatory protein DegU&lt;br&gt;Location: 654 - 1" points="770,90 775,90 780,85 775,80 770,80 770,90 " style="stroke-width:1; stroke:black; fill:white; " id="dummy-16_h16_5_25" class="clusterblast-orf"  />
</g>
</svg>
