<svg version="1.1" xmlns="http://www.w3.org/2000/svg" height="230" width="800" xmlns:xlink="http://www.w3.org/1999/xlink" preserveAspectRatio="none" x="0" y="0" viewBox="0 0 800 230"  >
<g label="Query sequence" class="clusterblast-cluster"  >
<text class="clusterblast-acc" y="20" x="5"  >
Query sequence</text>
<line x1="10" x2="778.0" y2="35" style="stroke-width:1; stroke:grey; " y1="35"  />
<polygon locus_tag="SSMG_03201" description="&lt;b&gt;SSMG_03201&lt;/b&gt;&lt;br&gt;DNA ligase, NAD-dependent&lt;br&gt;Location: 3472881 - 3474873" points="0,40 67,40 72,35 67,30 0,30 0,40 " style="stroke-width:1; stroke:black; fill:white; " id="dummy-12_q0_0_all" class="clusterblast-orf"  />
<polygon locus_tag="SSMG_03202" description="&lt;b&gt;SSMG_03202&lt;/b&gt;&lt;br&gt;predicted protein&lt;br&gt;Location: 3476058 - 3477006" points="114,35 119,30 148,30 148,40 119,40 114,35 " style="stroke-width:1; stroke:black; fill:white; " id="dummy-12_q1_0_all" class="clusterblast-orf"  />
<polygon locus_tag="SSMG_03203" description="&lt;b&gt;SSMG_03203&lt;/b&gt;&lt;br&gt;predicted protein&lt;br&gt;Location: 3477056 - 3477656" points="150,40 167,40 172,35 167,30 150,30 150,40 " style="stroke-width:1; stroke:black; fill:white; " id="dummy-12_q2_0_all" class="clusterblast-orf"  />
<polygon locus_tag="SSMG_03204" description="&lt;b&gt;SSMG_03204&lt;/b&gt;&lt;br&gt;predicted protein&lt;br&gt;Location: 3477878 - 3479594" points="180,35 185,30 241,30 241,40 185,40 180,35 " style="stroke-width:1; stroke:black; fill:#d81515; " id="dummy-12_q3_0_all" class="clusterblast-orf"  />
<polygon locus_tag="SSMG_03205" description="&lt;b&gt;SSMG_03205&lt;/b&gt;&lt;br&gt;predicted protein&lt;br&gt;Location: 3480123 - 3481776" points="260,35 265,30 320,30 320,40 265,40 260,35 " style="stroke-width:1; stroke:black; fill:#15d815; " id="dummy-12_q4_0_all" class="clusterblast-orf"  />
<polygon locus_tag="SSMG_03206" description="&lt;b&gt;SSMG_03206&lt;/b&gt;&lt;br&gt;serine/threonine protein kinase&lt;br&gt;Location: 3482531 - 3485132" points="347,35 352,30 441,30 441,40 352,40 347,35 " style="stroke-width:1; stroke:black; fill:#1515d8; " id="dummy-12_q5_0_all" class="clusterblast-orf"  />
<polygon locus_tag="SSMG_03207" description="&lt;b&gt;SSMG_03207&lt;/b&gt;&lt;br&gt;transcriptional regulator&lt;br&gt;Location: 3485491 - 3486403" points="454,35 459,30 486,30 486,40 459,40 454,35 " style="stroke-width:1; stroke:black; fill:white; " id="dummy-12_q6_0_all" class="clusterblast-orf"  />
<polygon locus_tag="SSMG_03208" description="&lt;b&gt;SSMG_03208&lt;/b&gt;&lt;br&gt;predicted protein&lt;br&gt;Location: 3486431 - 3487364" points="487,40 516,40 521,35 516,30 487,30 487,40 " style="stroke-width:1; stroke:black; fill:white; " id="dummy-12_q7_0_all" class="clusterblast-orf"  />
<polygon locus_tag="SSMG_03209" description="&lt;b&gt;SSMG_03209&lt;/b&gt;&lt;br&gt;predicted protein&lt;br&gt;Location: 3487360 - 3488143" points="521,35 526,30 549,30 549,40 526,40 521,35 " style="stroke-width:1; stroke:black; fill:white; " id="dummy-12_q8_0_all" class="clusterblast-orf"  />
<polygon locus_tag="SSMG_03210" description="&lt;b&gt;SSMG_03210&lt;/b&gt;&lt;br&gt;secreted protein&lt;br&gt;Location: 3488195 - 3489029" points="551,35 556,30 581,30 581,40 556,40 551,35 " style="stroke-width:1; stroke:black; fill:white; " id="dummy-12_q9_0_all" class="clusterblast-orf"  />
<polygon locus_tag="SSMG_03211" description="&lt;b&gt;SSMG_03211&lt;/b&gt;&lt;br&gt;alpha-galactosidase&lt;br&gt;Location: 3489206 - 3490511" points="587,35 592,30 634,30 634,40 592,40 587,35 " style="stroke-width:1; stroke:black; fill:white; " id="dummy-12_q10_0_all" class="clusterblast-orf"  />
<polygon locus_tag="SSMG_03212" description="&lt;b&gt;SSMG_03212&lt;/b&gt;&lt;br&gt;predicted protein&lt;br&gt;Location: 3490507 - 3491473" points="634,35 639,30 669,30 669,40 639,40 634,35 " style="stroke-width:1; stroke:black; fill:white; " id="dummy-12_q11_0_all" class="clusterblast-orf"  />
<polygon locus_tag="SSMG_03213" description="&lt;b&gt;SSMG_03213&lt;/b&gt;&lt;br&gt;sugar transport membrane protein&lt;br&gt;Location: 3491469 - 3492357" points="669,35 674,30 701,30 701,40 674,40 669,35 " style="stroke-width:1; stroke:black; fill:white; " id="dummy-12_q12_0_all" class="clusterblast-orf"  />
<polygon locus_tag="SSMG_03214" description="&lt;b&gt;SSMG_03214&lt;/b&gt;&lt;br&gt;sugar transporter membrane protein&lt;br&gt;Location: 3492353 - 3493268" points="701,35 706,30 734,30 734,40 706,40 701,35 " style="stroke-width:1; stroke:black; fill:white; " id="dummy-12_q13_0_all" class="clusterblast-orf"  />
<polygon locus_tag="SSMG_03215" description="&lt;b&gt;SSMG_03215&lt;/b&gt;&lt;br&gt;sugar transporter sugar binding lipoprotein&lt;br&gt;Location: 3493278 - 3494556" points="734,35 739,30 780,30 780,40 739,40 734,35 " style="stroke-width:1; stroke:black; fill:white; " id="dummy-12_q14_0_all" class="clusterblast-orf"  />
</g>
<g label="BGC0000519" description="BGC0000519_c1: labyrinthopeptin A2 / labyrinthopeptin A1 / labyrinthopeptin A3 (60% of genes show similarity), RiPP:Lanthipeptide" class="clusterblast-cluster"  >
<text class="clusterblast-acc" y="70" x="5"  >
<a xlink:href="https://mibig.secondarymetabolites.org/go/BGC0000519/1" target="_blank">BGC0000519</a>:                  labyrinthopeptin A2 / labyrinthopeptin A1 / labyrinthopeptin A3 (60% of genes show similarity), RiPP:Lanthipeptide</text>
<line x1="10" x2="778.0" y2="85" style="stroke-width:1; stroke:grey; " y1="85"  />
</g>
<g id="a12_000"  >
<polygon locus_tag="CAX48975.1" description="&lt;b&gt;CAX48975.1&lt;/b&gt;&lt;br&gt;ABC-transporter&lt;br&gt;Location: 6400 - 4685&lt;br&gt;&lt;br&gt;&lt;b&gt;BlastP hit with SSMG_03204&lt;/b&gt;&lt;br&gt;Percentage identity: 46&lt;br&gt;Percentage coverage: 98&lt;br&gt;BLAST bit score: 383&lt;br&gt;E-value: 4.9e-106" points="274,85 279,80 336,80 336,90 279,90 274,85 " style="stroke-width:1; stroke:black; fill:#d81515; " id="dummy-12_h12_2_0" class="clusterblast-orf"  />
</g>
<g id="a12_001"  >
<polygon locus_tag="CAX48974.1" description="&lt;b&gt;CAX48974.1&lt;/b&gt;&lt;br&gt;ABC-transporter&lt;br&gt;Location: 4688 - 2988&lt;br&gt;&lt;br&gt;&lt;b&gt;BlastP hit with SSMG_03205&lt;/b&gt;&lt;br&gt;Percentage identity: 46&lt;br&gt;Percentage coverage: 101&lt;br&gt;BLAST bit score: 387&lt;br&gt;E-value: 4.2e-107" points="336,85 341,80 397,80 397,90 341,90 336,85 " style="stroke-width:1; stroke:black; fill:#15d815; " id="dummy-12_h12_2_1" class="clusterblast-orf"  />
</g>
<g id="a12_002"  >
<polygon locus_tag="CAX48973.1" description="&lt;b&gt;CAX48973.1&lt;/b&gt;&lt;br&gt;labyrinthopeptin A2 prepropeptide&lt;br&gt;Location: 2877 - 2761" points="401,85 405,80 405,90 401,85 " style="stroke-width:1; stroke:black; fill:white; " id="dummy-12_h12_2_2" class="clusterblast-orf"  />
</g>
<g id="a12_003"  >
<polygon locus_tag="CAX48972.1" description="&lt;b&gt;CAX48972.1&lt;/b&gt;&lt;br&gt;labyrinthopeptin A1/A3 prepropeptide&lt;br&gt;Location: 2721 - 2599" points="407,85 411,80 411,90 407,85 " style="stroke-width:1; stroke:black; fill:white; " id="dummy-12_h12_2_3" class="clusterblast-orf"  />
</g>
<g id="a12_004"  >
<polygon locus_tag="CAX48971.1" description="&lt;b&gt;CAX48971.1&lt;/b&gt;&lt;br&gt;serine/threonine kinase&lt;br&gt;Location: 2589 - 1&lt;br&gt;&lt;br&gt;&lt;b&gt;BlastP hit with SSMG_03206&lt;/b&gt;&lt;br&gt;Percentage identity: 46&lt;br&gt;Percentage coverage: 101&lt;br&gt;BLAST bit score: 667&lt;br&gt;E-value: 3.3e-191" points="412,85 417,80 505,80 505,90 417,90 412,85 " style="stroke-width:1; stroke:black; fill:#1515d8; " id="dummy-12_h12_2_4" class="clusterblast-orf"  />
</g>
</svg>
