<svg version="1.1" xmlns="http://www.w3.org/2000/svg" height="50" width="800" xmlns:xlink="http://www.w3.org/1999/xlink" preserveAspectRatio="none" x="0" y="0" viewBox="0 0 800 50"  >
<g label="Query sequence" class="clusterblast-cluster"  >
<text class="clusterblast-acc" y="20" x="5"  >
Query sequence</text>
<line x1="10" x2="778.0" y2="35" style="stroke-width:1; stroke:grey; " y1="35"  />
<polygon locus_tag="SSMG_02169" description="&lt;b&gt;SSMG_02169&lt;/b&gt;&lt;br&gt;chlorite dismutase&lt;br&gt;Location: 2322950 - 2323643" points="0,40 60,40 65,35 60,30 0,30 0,40 " style="stroke-width:1; stroke:black; fill:white; " id="knownclusterblast-6_q0_0_all" class="clusterblast-orf"  />
<polygon locus_tag="SSMG_02170" description="&lt;b&gt;SSMG_02170&lt;/b&gt;&lt;br&gt;predicted protein&lt;br&gt;Location: 2323649 - 2325017" points="65,40 187,40 192,35 187,30 65,30 65,40 " style="stroke-width:1; stroke:black; fill:white; " id="knownclusterblast-6_q1_0_all" class="clusterblast-orf"  />
<polygon locus_tag="SSMG_02171" description="&lt;b&gt;SSMG_02171&lt;/b&gt;&lt;br&gt;predicted protein&lt;br&gt;Location: 2325735 - 2326587" points="258,35 263,30 337,30 337,40 263,40 258,35 " style="stroke-width:1; stroke:black; fill:white; " id="knownclusterblast-6_q2_0_all" class="clusterblast-orf"  />
<polygon locus_tag="SSMG_02172" description="&lt;b&gt;SSMG_02172&lt;/b&gt;&lt;br&gt;UPF0276 protein&lt;br&gt;Location: 2326952 - 2327777" points="371,35 376,30 447,30 447,40 376,40 371,35 " style="stroke-width:1; stroke:black; fill:white; " id="knownclusterblast-6_q3_0_all" class="clusterblast-orf"  />
<polygon locus_tag="SSMG_02173" description="&lt;b&gt;SSMG_02173&lt;/b&gt;&lt;br&gt;predicted protein&lt;br&gt;Location: 2327748 - 2328579" points="444,35 449,30 521,30 521,40 449,40 444,35 " style="stroke-width:1; stroke:black; fill:white; " id="knownclusterblast-6_q4_0_all" class="clusterblast-orf"  />
<polygon locus_tag="SSMG_02174" description="&lt;b&gt;SSMG_02174&lt;/b&gt;&lt;br&gt;predicted protein&lt;br&gt;Location: 2328603 - 2330091" points="524,35 529,30 661,30 661,40 529,40 524,35 " style="stroke-width:1; stroke:black; fill:white; " id="knownclusterblast-6_q5_0_all" class="clusterblast-orf"  />
<polygon locus_tag="SSMG_02175" description="&lt;b&gt;SSMG_02175&lt;/b&gt;&lt;br&gt;methionine-R-sulfoxide reductase&lt;br&gt;Location: 2330625 - 2331054" points="711,35 716,30 750,30 750,40 716,40 711,35 " style="stroke-width:1; stroke:black; fill:white; " id="knownclusterblast-6_q6_0_all" class="clusterblast-orf"  />
<polygon locus_tag="SSMG_02176" description="&lt;b&gt;SSMG_02176&lt;/b&gt;&lt;br&gt;predicted protein&lt;br&gt;Location: 2331073 - 2331379" points="752,35 757,30 780,30 780,40 757,40 752,35 " style="stroke-width:1; stroke:black; fill:white; " id="knownclusterblast-6_q7_0_all" class="clusterblast-orf"  />
</g>
</svg>
