<svg version="1.1" xmlns="http://www.w3.org/2000/svg" height="230" width="800" xmlns:xlink="http://www.w3.org/1999/xlink" preserveAspectRatio="none" x="0" y="0" viewBox="0 0 800 230"  >
<g label="Query sequence" class="clusterblast-cluster"  >
<text class="clusterblast-acc" y="20" x="5"  >
Query sequence</text>
<line x1="10" x2="778.0" y2="35" style="stroke-width:1; stroke:grey; " y1="35"  />
<polygon locus_tag="SSMG_07027" description="&lt;b&gt;SSMG_07027&lt;/b&gt;&lt;br&gt;predicted protein&lt;br&gt;Location: 7715160 - 7717953" points="1,35 6,30 347,30 347,40 6,40 1,35 " style="stroke-width:1; stroke:black; fill:white; " id="dummy-25_q0_0_all" class="clusterblast-orf"  />
<polygon locus_tag="SSMG_07028" description="&lt;b&gt;SSMG_07028&lt;/b&gt;&lt;br&gt;ectoine hydroxylase&lt;br&gt;Location: 7718276 - 7719179" points="387,35 392,30 499,30 499,40 392,40 387,35 " style="stroke-width:1; stroke:black; fill:#d81515; " id="dummy-25_q1_0_all" class="clusterblast-orf"  />
<polygon locus_tag="SSMG_07029" description="&lt;b&gt;SSMG_07029&lt;/b&gt;&lt;br&gt;ectoine synthase&lt;br&gt;Location: 7719245 - 7719638" points="507,35 512,30 556,30 556,40 512,40 507,35 " style="stroke-width:1; stroke:black; fill:#77d815; " id="dummy-25_q2_0_all" class="clusterblast-orf"  />
<polygon locus_tag="SSMG_07030" description="&lt;b&gt;SSMG_07030&lt;/b&gt;&lt;br&gt;diaminobutyrate-2-oxoglutarate aminotransferase&lt;br&gt;Location: 7719669 - 7720920" points="559,35 564,30 714,30 714,40 564,40 559,35 " style="stroke-width:1; stroke:black; fill:#15d8d8; " id="dummy-25_q3_0_all" class="clusterblast-orf"  />
<polygon locus_tag="SSMG_07031" description="&lt;b&gt;SSMG_07031&lt;/b&gt;&lt;br&gt;L-2,4-diaminobutyric acid acetyltransferase&lt;br&gt;Location: 7720961 - 7721456" points="719,35 724,30 781,30 781,40 724,40 719,35 " style="stroke-width:1; stroke:black; fill:#7715d8; " id="dummy-25_q4_0_all" class="clusterblast-orf"  />
</g>
<g label="BGC0000860" description="BGC0000860_c1: ectoine (40% of genes show similarity), Other" class="clusterblast-cluster"  >
<text class="clusterblast-acc" y="70" x="5"  >
<a xlink:href="https://mibig.secondarymetabolites.org/go/BGC0000860/1" target="_blank">BGC0000860</a>:                                                                          ectoine (40% of genes show similarity), Other</text>
<line x1="10" x2="778.0" y2="85" style="stroke-width:1; stroke:grey; " y1="85"  />
</g>
<g id="a25_000"  >
<polygon locus_tag="ADA71977.1" description="&lt;b&gt;ADA71977.1&lt;/b&gt;&lt;br&gt;aspartokinase&lt;br&gt;Location: 5134 - 3740" points="115,85 120,80 288,80 288,90 120,90 115,85 " style="stroke-width:1; stroke:black; fill:white; " id="dummy-25_h25_4_0" class="clusterblast-orf"  />
</g>
<g id="a25_001"  >
<polygon locus_tag="ADA71976.1" description="&lt;b&gt;ADA71976.1&lt;/b&gt;&lt;br&gt;L-ectoine synthase&lt;br&gt;Location: 3737 - 3342&lt;br&gt;&lt;br&gt;&lt;b&gt;BlastP hit with SSMG_07029&lt;/b&gt;&lt;br&gt;Percentage identity: 51&lt;br&gt;Percentage coverage: 98&lt;br&gt;BLAST bit score: 146&lt;br&gt;E-value: 3.9e-35" points="289,85 294,80 337,80 337,90 294,90 289,85 " style="stroke-width:1; stroke:black; fill:#77d815; " id="dummy-25_h25_4_1" class="clusterblast-orf"  />
</g>
<g id="a25_002"  >
<polygon locus_tag="ADA71975.1" description="&lt;b&gt;ADA71975.1&lt;/b&gt;&lt;br&gt;L-2,4-diaminobutyrate transaminase&lt;br&gt;Location: 3334 - 2042&lt;br&gt;&lt;br&gt;&lt;b&gt;BlastP hit with SSMG_07030&lt;/b&gt;&lt;br&gt;Percentage identity: 47&lt;br&gt;Percentage coverage: 100&lt;br&gt;BLAST bit score: 407&lt;br&gt;E-value: 2.3e-113" points="338,85 343,80 499,80 499,90 343,90 338,85 " style="stroke-width:1; stroke:black; fill:#15d8d8; " id="dummy-25_h25_4_2" class="clusterblast-orf"  />
</g>
<g id="a25_003"  >
<polygon locus_tag="ADA71974.1" description="&lt;b&gt;ADA71974.1&lt;/b&gt;&lt;br&gt;L-2,4-diaminobutyric acid acetyltransferase&lt;br&gt;Location: 1986 - 1441" points="505,85 510,80 573,80 573,90 510,90 505,85 " style="stroke-width:1; stroke:black; fill:white; " id="dummy-25_h25_4_3" class="clusterblast-orf"  />
</g>
<g id="a25_004"  >
<polygon locus_tag="ADA71973.1" description="&lt;b&gt;ADA71973.1&lt;/b&gt;&lt;br&gt;MarR family transcriptional regulator&lt;br&gt;Location: 1265 - 711" points="595,90 658,90 663,85 658,80 595,80 595,90 " style="stroke-width:1; stroke:black; fill:white; " id="dummy-25_h25_4_4" class="clusterblast-orf"  />
</g>
</svg>
