<svg version="1.1" xmlns="http://www.w3.org/2000/svg" height="230" width="800" xmlns:xlink="http://www.w3.org/1999/xlink" preserveAspectRatio="none" x="0" y="0" viewBox="0 0 800 230"  >
<g label="Query sequence" class="clusterblast-cluster"  >
<text class="clusterblast-acc" y="20" x="5"  >
Query sequence</text>
<line x1="10" x2="778.0" y2="35" style="stroke-width:1; stroke:grey; " y1="35"  />
<polygon locus_tag="SSMG_03117" description="&lt;b&gt;SSMG_03117&lt;/b&gt;&lt;br&gt;sugar oxidoreductase&lt;br&gt;Location: 3341769 - 3343206" points="0,40 3,40 8,35 3,30 0,30 0,40 " style="stroke-width:1; stroke:black; fill:white; " id="dummy-11_q0_0_all" class="clusterblast-orf"  />
<polygon locus_tag="SSMG_03118" description="&lt;b&gt;SSMG_03118&lt;/b&gt;&lt;br&gt;NADPH-dependent FMN reductase&lt;br&gt;Location: 3343069 - 3343669" points="8,40 11,35 8,30 8,40 " style="stroke-width:1; stroke:black; fill:white; " id="dummy-11_q1_0_all" class="clusterblast-orf"  />
<polygon locus_tag="SSMG_03119" description="&lt;b&gt;SSMG_03119&lt;/b&gt;&lt;br&gt;NAD-dependent epimerase/dehydratase&lt;br&gt;Location: 3343707 - 3344757" points="12,35 17,30 18,30 18,40 17,40 12,35 " style="stroke-width:1; stroke:black; fill:white; " id="dummy-11_q2_0_all" class="clusterblast-orf"  />
<polygon locus_tag="SSMG_03120" description="&lt;b&gt;SSMG_03120&lt;/b&gt;&lt;br&gt;predicted protein&lt;br&gt;Location: 3344789 - 3345866" points="18,35 23,30 25,30 25,40 23,40 18,35 " style="stroke-width:1; stroke:black; fill:white; " id="dummy-11_q3_0_all" class="clusterblast-orf"  />
<polygon locus_tag="SSMG_03121" description="&lt;b&gt;SSMG_03121&lt;/b&gt;&lt;br&gt;2-hydroxymuconic semialdehyde dehydrogenase&lt;br&gt;Location: 3345862 - 3347233" points="25,35 30,30 33,30 33,40 30,40 25,35 " style="stroke-width:1; stroke:black; fill:white; " id="dummy-11_q4_0_all" class="clusterblast-orf"  />
<polygon locus_tag="SSMG_03122" description="&lt;b&gt;SSMG_03122&lt;/b&gt;&lt;br&gt;HAD-superfamily hydrolase subfamily IIIA&lt;br&gt;Location: 3347329 - 3348790" points="34,40 38,40 43,35 38,30 34,30 34,40 " style="stroke-width:1; stroke:black; fill:white; " id="dummy-11_q5_0_all" class="clusterblast-orf"  />
<polygon locus_tag="SSMG_03123" description="&lt;b&gt;SSMG_03123&lt;/b&gt;&lt;br&gt;glycosyl transferase&lt;br&gt;Location: 3348786 - 3349788" points="43,40 44,40 49,35 44,30 43,30 43,40 " style="stroke-width:1; stroke:black; fill:white; " id="dummy-11_q6_0_all" class="clusterblast-orf"  />
<polygon locus_tag="SSMG_03124" description="&lt;b&gt;SSMG_03124&lt;/b&gt;&lt;br&gt;3-oxoacyl-[acyl-carrier-protein] reductase&lt;br&gt;Location: 3349808 - 3350633" points="49,40 49,40 54,35 49,30 49,30 49,40 " style="stroke-width:1; stroke:black; fill:white; " id="dummy-11_q7_0_all" class="clusterblast-orf"  />
<polygon locus_tag="SSMG_03125" description="&lt;b&gt;SSMG_03125&lt;/b&gt;&lt;br&gt;predicted protein&lt;br&gt;Location: 3350629 - 3351043" points="54,35 57,30 57,40 54,35 " style="stroke-width:1; stroke:black; fill:white; " id="dummy-11_q8_0_all" class="clusterblast-orf"  />
<polygon locus_tag="SSMG_03126" description="&lt;b&gt;SSMG_03126&lt;/b&gt;&lt;br&gt;predicted protein&lt;br&gt;Location: 3351107 - 3351476" points="57,35 60,30 60,40 57,35 " style="stroke-width:1; stroke:black; fill:white; " id="dummy-11_q9_0_all" class="clusterblast-orf"  />
<polygon locus_tag="SSMG_03127" description="&lt;b&gt;SSMG_03127&lt;/b&gt;&lt;br&gt;predicted protein&lt;br&gt;Location: 3351541 - 3352057" points="60,35 63,30 63,40 60,35 " style="stroke-width:1; stroke:black; fill:white; " id="dummy-11_q10_0_all" class="clusterblast-orf"  />
<polygon locus_tag="SSMG_03128" description="&lt;b&gt;SSMG_03128&lt;/b&gt;&lt;br&gt;predicted protein&lt;br&gt;Location: 3351982 - 3352357" points="63,40 65,35 63,30 63,40 " style="stroke-width:1; stroke:black; fill:white; " id="dummy-11_q11_0_all" class="clusterblast-orf"  />
<polygon locus_tag="SSMG_03129" description="&lt;b&gt;SSMG_03129&lt;/b&gt;&lt;br&gt;transcriptional regulator&lt;br&gt;Location: 3352358 - 3352739" points="65,35 68,30 68,40 65,35 " style="stroke-width:1; stroke:black; fill:white; " id="dummy-11_q12_0_all" class="clusterblast-orf"  />
<polygon locus_tag="SSMG_03130" description="&lt;b&gt;SSMG_03130&lt;/b&gt;&lt;br&gt;cation efflux system protein&lt;br&gt;Location: 3352777 - 3353890" points="68,40 70,40 75,35 70,30 68,30 68,40 " style="stroke-width:1; stroke:black; fill:white; " id="dummy-11_q13_0_all" class="clusterblast-orf"  />
<polygon locus_tag="SSMG_03131" description="&lt;b&gt;SSMG_03131&lt;/b&gt;&lt;br&gt;amidohydrolase domain-containing protein&lt;br&gt;Location: 3354349 - 3356035" points="77,35 82,30 88,30 88,40 82,40 77,35 " style="stroke-width:1; stroke:black; fill:white; " id="dummy-11_q14_0_all" class="clusterblast-orf"  />
<polygon locus_tag="SSMG_03132" description="&lt;b&gt;SSMG_03132&lt;/b&gt;&lt;br&gt;predicted protein&lt;br&gt;Location: 3356272 - 3357178" points="89,40 90,40 95,35 90,30 89,30 89,40 " style="stroke-width:1; stroke:black; fill:white; " id="dummy-11_q15_0_all" class="clusterblast-orf"  />
<polygon locus_tag="SSMG_03133" description="&lt;b&gt;SSMG_03133&lt;/b&gt;&lt;br&gt;vanx d-Ala-d-Ala dipeptidase/metallo peptidase&lt;br&gt;Location: 3357213 - 3358038" points="95,40 95,40 100,35 95,30 95,30 95,40 " style="stroke-width:1; stroke:black; fill:white; " id="dummy-11_q16_0_all" class="clusterblast-orf"  />
<polygon locus_tag="SSMG_03134" description="&lt;b&gt;SSMG_03134&lt;/b&gt;&lt;br&gt;GABA permease&lt;br&gt;Location: 3358041 - 3359559" points="100,35 105,30 110,30 110,40 105,40 100,35 " style="stroke-width:1; stroke:black; fill:white; " id="dummy-11_q17_0_all" class="clusterblast-orf"  />
<polygon locus_tag="SSMG_03135" description="&lt;b&gt;SSMG_03135&lt;/b&gt;&lt;br&gt;hypothetical protein&lt;br&gt;Location: 3359845 - 3360604" points="112,35 116,30 116,40 112,35 " style="stroke-width:1; stroke:black; fill:white; " id="dummy-11_q18_0_all" class="clusterblast-orf"  />
<polygon locus_tag="SSMG_03136" description="&lt;b&gt;SSMG_03136&lt;/b&gt;&lt;br&gt;predicted protein&lt;br&gt;Location: 3360925 - 3361339" points="118,40 121,35 118,30 118,40 " style="stroke-width:1; stroke:black; fill:white; " id="dummy-11_q19_0_all" class="clusterblast-orf"  />
<polygon locus_tag="SSMG_03137" description="&lt;b&gt;SSMG_03137&lt;/b&gt;&lt;br&gt;hypothetical protein&lt;br&gt;Location: 3361371 - 3362250" points="121,35 126,30 126,30 126,40 126,40 121,35 " style="stroke-width:1; stroke:black; fill:white; " id="dummy-11_q20_0_all" class="clusterblast-orf"  />
<polygon locus_tag="SSMG_03138" description="&lt;b&gt;SSMG_03138&lt;/b&gt;&lt;br&gt;predicted protein&lt;br&gt;Location: 3362328 - 3362676" points="127,35 129,30 129,40 127,35 " style="stroke-width:1; stroke:black; fill:white; " id="dummy-11_q21_0_all" class="clusterblast-orf"  />
<polygon locus_tag="SSMG_03139" description="&lt;b&gt;SSMG_03139&lt;/b&gt;&lt;br&gt;predicted protein&lt;br&gt;Location: 3363010 - 3363895" points="131,35 136,30 137,30 137,40 136,40 131,35 " style="stroke-width:1; stroke:black; fill:white; " id="dummy-11_q22_0_all" class="clusterblast-orf"  />
<polygon locus_tag="SSMG_03140" description="&lt;b&gt;SSMG_03140&lt;/b&gt;&lt;br&gt;hypothetical protein&lt;br&gt;Location: 3364001 - 3364997" points="137,40 138,40 143,35 138,30 137,30 137,40 " style="stroke-width:1; stroke:black; fill:white; " id="dummy-11_q23_0_all" class="clusterblast-orf"  />
<polygon locus_tag="SSMG_03141" description="&lt;b&gt;SSMG_03141&lt;/b&gt;&lt;br&gt;predicted protein&lt;br&gt;Location: 3365010 - 3367251" points="144,35 149,30 157,30 157,40 149,40 144,35 " style="stroke-width:1; stroke:black; fill:white; " id="dummy-11_q24_0_all" class="clusterblast-orf"  />
<polygon locus_tag="SSMG_03142" description="&lt;b&gt;SSMG_03142&lt;/b&gt;&lt;br&gt;hypothetical protein&lt;br&gt;Location: 3367369 - 3368347" points="158,35 163,30 164,30 164,40 163,40 158,35 " style="stroke-width:1; stroke:black; fill:white; " id="dummy-11_q25_0_all" class="clusterblast-orf"  />
<polygon locus_tag="SSMG_03143" description="&lt;b&gt;SSMG_03143&lt;/b&gt;&lt;br&gt;monooxygenase&lt;br&gt;Location: 3368818 - 3370237" points="167,35 172,30 176,30 176,40 172,40 167,35 " style="stroke-width:1; stroke:black; fill:white; " id="dummy-11_q26_0_all" class="clusterblast-orf"  />
<polygon locus_tag="SSMG_03144" description="&lt;b&gt;SSMG_03144&lt;/b&gt;&lt;br&gt;hypothetical protein&lt;br&gt;Location: 3370940 - 3372179" points="180,40 183,40 188,35 183,30 180,30 180,40 " style="stroke-width:1; stroke:black; fill:white; " id="dummy-11_q27_0_all" class="clusterblast-orf"  />
<polygon locus_tag="SSMG_03145" description="&lt;b&gt;SSMG_03145&lt;/b&gt;&lt;br&gt;predicted protein&lt;br&gt;Location: 3372265 - 3372745" points="188,40 191,35 188,30 188,40 " style="stroke-width:1; stroke:black; fill:white; " id="dummy-11_q28_0_all" class="clusterblast-orf"  />
<polygon locus_tag="SSMG_03146" description="&lt;b&gt;SSMG_03146&lt;/b&gt;&lt;br&gt;beta-lactamase&lt;br&gt;Location: 3373099 - 3374395" points="194,40 197,40 202,35 197,30 194,30 194,40 " style="stroke-width:1; stroke:black; fill:white; " id="dummy-11_q29_0_all" class="clusterblast-orf"  />
<polygon locus_tag="SSMG_03147" description="&lt;b&gt;SSMG_03147&lt;/b&gt;&lt;br&gt;hypothetical protein&lt;br&gt;Location: 3374471 - 3392024" points="202,40 306,40 311,35 306,30 202,30 202,40 " style="stroke-width:1; stroke:black; fill:#d81515; " id="dummy-11_q30_0_all" class="clusterblast-orf"  />
<polygon locus_tag="SSMG_03148" description="&lt;b&gt;SSMG_03148&lt;/b&gt;&lt;br&gt;peptide synthetase ScpsB&lt;br&gt;Location: 3392033 - 3406832" points="311,40 398,40 403,35 398,30 311,30 311,40 " style="stroke-width:1; stroke:black; fill:#15d815; " id="dummy-11_q31_0_all" class="clusterblast-orf"  />
<polygon locus_tag="SSMG_03149" description="&lt;b&gt;SSMG_03149&lt;/b&gt;&lt;br&gt;predicted protein&lt;br&gt;Location: 3407016 - 3407757" points="404,40 408,35 404,30 404,40 " style="stroke-width:1; stroke:black; fill:white; " id="dummy-11_q32_0_all" class="clusterblast-orf"  />
<polygon locus_tag="SSMG_03150" description="&lt;b&gt;SSMG_03150&lt;/b&gt;&lt;br&gt;predicted protein&lt;br&gt;Location: 3407734 - 3408280" points="408,40 412,35 408,30 408,40 " style="stroke-width:1; stroke:black; fill:white; " id="dummy-11_q33_0_all" class="clusterblast-orf"  />
<polygon locus_tag="SSMG_03151" description="&lt;b&gt;SSMG_03151&lt;/b&gt;&lt;br&gt;MbtH domain-containing protein&lt;br&gt;Location: 3408280 - 3408478" points="412,40 413,35 412,30 412,40 " style="stroke-width:1; stroke:black; fill:#1515d8; " id="dummy-11_q34_0_all" class="clusterblast-orf"  />
<polygon locus_tag="SSMG_03152" description="&lt;b&gt;SSMG_03152&lt;/b&gt;&lt;br&gt;transposase&lt;br&gt;Location: 3409184 - 3409589" points="417,40 420,35 417,30 417,40 " style="stroke-width:1; stroke:black; fill:white; " id="dummy-11_q35_0_all" class="clusterblast-orf"  />
<polygon locus_tag="SSMG_03153" description="&lt;b&gt;SSMG_03153&lt;/b&gt;&lt;br&gt;transposase&lt;br&gt;Location: 3409585 - 3410440" points="420,40 420,40 425,35 420,30 420,30 420,40 " style="stroke-width:1; stroke:black; fill:white; " id="dummy-11_q36_0_all" class="clusterblast-orf"  />
<polygon locus_tag="SSMG_03154" description="&lt;b&gt;SSMG_03154&lt;/b&gt;&lt;br&gt;streptogrisin-D&lt;br&gt;Location: 3410505 - 3411183" points="425,35 430,30 430,30 430,40 430,40 425,35 " style="stroke-width:1; stroke:black; fill:white; " id="dummy-11_q37_0_all" class="clusterblast-orf"  />
<polygon locus_tag="SSMG_03155" description="&lt;b&gt;SSMG_03155&lt;/b&gt;&lt;br&gt;hypothetical protein&lt;br&gt;Location: 3412005 - 3412716" points="435,40 439,35 435,30 435,40 " style="stroke-width:1; stroke:black; fill:white; " id="dummy-11_q38_0_all" class="clusterblast-orf"  />
<polygon locus_tag="SSMG_03156" description="&lt;b&gt;SSMG_03156&lt;/b&gt;&lt;br&gt;extracellular small neutral protease&lt;br&gt;Location: 3412744 - 3413281" points="439,40 443,35 439,30 439,40 " style="stroke-width:1; stroke:black; fill:white; " id="dummy-11_q39_0_all" class="clusterblast-orf"  />
<polygon locus_tag="SSMG_03157" description="&lt;b&gt;SSMG_03157&lt;/b&gt;&lt;br&gt;cyclic nucleotide-binding domain-containing protein&lt;br&gt;Location: 3413382 - 3414780" points="443,35 448,30 452,30 452,40 448,40 443,35 " style="stroke-width:1; stroke:black; fill:#d815d8; " id="dummy-11_q40_0_all" class="clusterblast-orf"  />
<polygon locus_tag="SSMG_03158" description="&lt;b&gt;SSMG_03158&lt;/b&gt;&lt;br&gt;cyclic nucleotide-binding domain-containing protein&lt;br&gt;Location: 3414776 - 3416159" points="452,35 457,30 460,30 460,40 457,40 452,35 " style="stroke-width:1; stroke:black; fill:#d815d8; " id="dummy-11_q41_0_all" class="clusterblast-orf"  />
<polygon locus_tag="SSMG_03159" description="&lt;b&gt;SSMG_03159&lt;/b&gt;&lt;br&gt;predicted protein&lt;br&gt;Location: 3416243 - 3417356" points="461,35 466,30 468,30 468,40 466,40 461,35 " style="stroke-width:1; stroke:black; fill:#d8d815; " id="dummy-11_q42_0_all" class="clusterblast-orf"  />
<polygon locus_tag="SSMG_03160" description="&lt;b&gt;SSMG_03160&lt;/b&gt;&lt;br&gt;methyltransferase&lt;br&gt;Location: 3417366 - 3418221" points="468,35 473,30 473,30 473,40 473,40 468,35 " style="stroke-width:1; stroke:black; fill:#15d8d8; " id="dummy-11_q43_0_all" class="clusterblast-orf"  />
<polygon locus_tag="SSMG_03161" description="&lt;b&gt;SSMG_03161&lt;/b&gt;&lt;br&gt;predicted protein&lt;br&gt;Location: 3418638 - 3418962" points="476,35 478,30 478,40 476,35 " style="stroke-width:1; stroke:black; fill:white; " id="dummy-11_q44_0_all" class="clusterblast-orf"  />
<polygon locus_tag="SSMG_03162" description="&lt;b&gt;SSMG_03162&lt;/b&gt;&lt;br&gt;predicted protein&lt;br&gt;Location: 3418964 - 3419813" points="478,35 483,30 483,30 483,40 483,40 478,35 " style="stroke-width:1; stroke:black; fill:white; " id="dummy-11_q45_0_all" class="clusterblast-orf"  />
<polygon locus_tag="SSMG_03163" description="&lt;b&gt;SSMG_03163&lt;/b&gt;&lt;br&gt;conserved hypothetical protein&lt;br&gt;Location: 3419839 - 3420490" points="483,40 487,35 483,30 483,40 " style="stroke-width:1; stroke:black; fill:white; " id="dummy-11_q46_0_all" class="clusterblast-orf"  />
<polygon locus_tag="SSMG_03164" description="&lt;b&gt;SSMG_03164&lt;/b&gt;&lt;br&gt;predicted protein&lt;br&gt;Location: 3420499 - 3420883" points="487,40 490,35 487,30 487,40 " style="stroke-width:1; stroke:black; fill:white; " id="dummy-11_q47_0_all" class="clusterblast-orf"  />
<polygon locus_tag="SSMG_03165" description="&lt;b&gt;SSMG_03165&lt;/b&gt;&lt;br&gt;predicted protein&lt;br&gt;Location: 3420904 - 3421555" points="490,40 494,35 490,30 490,40 " style="stroke-width:1; stroke:black; fill:white; " id="dummy-11_q48_0_all" class="clusterblast-orf"  />
<polygon locus_tag="SSMG_03166" description="&lt;b&gt;SSMG_03166&lt;/b&gt;&lt;br&gt;D-alanine-poly(phosphoribitol) ligase, subunit 1&lt;br&gt;Location: 3421648 - 3423469" points="494,40 501,40 506,35 501,30 494,30 494,40 " style="stroke-width:1; stroke:black; fill:#d81515; " id="dummy-11_q49_0_all" class="clusterblast-orf"  />
<polygon locus_tag="SSMG_03167" description="&lt;b&gt;SSMG_03167&lt;/b&gt;&lt;br&gt;hypothetical protein&lt;br&gt;Location: 3423540 - 3426645" points="506,35 511,30 525,30 525,40 511,40 506,35 " style="stroke-width:1; stroke:black; fill:white; " id="dummy-11_q50_0_all" class="clusterblast-orf"  />
<polygon locus_tag="SSMG_03168" description="&lt;b&gt;SSMG_03168&lt;/b&gt;&lt;br&gt;predicted protein&lt;br&gt;Location: 3427030 - 3433321" points="528,40 562,40 567,35 562,30 528,30 528,40 " style="stroke-width:1; stroke:black; fill:white; " id="dummy-11_q51_0_all" class="clusterblast-orf"  />
<polygon locus_tag="SSMG_03169" description="&lt;b&gt;SSMG_03169&lt;/b&gt;&lt;br&gt;predicted protein&lt;br&gt;Location: 3433317 - 3433515" points="567,40 568,35 567,30 567,40 " style="stroke-width:1; stroke:black; fill:white; " id="dummy-11_q52_0_all" class="clusterblast-orf"  />
<polygon locus_tag="SSMG_03170" description="&lt;b&gt;SSMG_03170&lt;/b&gt;&lt;br&gt;transposase&lt;br&gt;Location: 3433526 - 3434777" points="568,35 573,30 576,30 576,40 573,40 568,35 " style="stroke-width:1; stroke:black; fill:white; " id="dummy-11_q53_0_all" class="clusterblast-orf"  />
<polygon locus_tag="SSMG_03171" description="&lt;b&gt;SSMG_03171&lt;/b&gt;&lt;br&gt;predicted protein&lt;br&gt;Location: 3435028 - 3435226" points="577,40 579,35 577,30 577,40 " style="stroke-width:1; stroke:black; fill:white; " id="dummy-11_q54_0_all" class="clusterblast-orf"  />
<polygon locus_tag="SSMG_03172" description="&lt;b&gt;SSMG_03172&lt;/b&gt;&lt;br&gt;predicted protein&lt;br&gt;Location: 3435222 - 3438114" points="579,40 591,40 596,35 591,30 579,30 579,40 " style="stroke-width:1; stroke:black; fill:#d81515; " id="dummy-11_q55_0_all" class="clusterblast-orf"  />
<polygon locus_tag="SSMG_03173" description="&lt;b&gt;SSMG_03173&lt;/b&gt;&lt;br&gt;predicted protein&lt;br&gt;Location: 3438136 - 3438352" points="597,40 598,35 597,30 597,40 " style="stroke-width:1; stroke:black; fill:white; " id="dummy-11_q56_0_all" class="clusterblast-orf"  />
<polygon locus_tag="SSMG_03174" description="&lt;b&gt;SSMG_03174&lt;/b&gt;&lt;br&gt;predicted protein&lt;br&gt;Location: 3438621 - 3439209" points="600,35 603,30 603,40 600,35 " style="stroke-width:1; stroke:black; fill:white; " id="dummy-11_q57_0_all" class="clusterblast-orf"  />
<polygon locus_tag="SSMG_03175" description="&lt;b&gt;SSMG_03175&lt;/b&gt;&lt;br&gt;predicted protein&lt;br&gt;Location: 3439205 - 3440543" points="603,35 608,30 611,30 611,40 608,40 603,35 " style="stroke-width:1; stroke:black; fill:white; " id="dummy-11_q58_0_all" class="clusterblast-orf"  />
<polygon locus_tag="SSMG_03176" description="&lt;b&gt;SSMG_03176&lt;/b&gt;&lt;br&gt;predicted protein&lt;br&gt;Location: 3440548 - 3444916" points="612,35 617,30 639,30 639,40 617,40 612,35 " style="stroke-width:1; stroke:black; fill:white; " id="dummy-11_q59_0_all" class="clusterblast-orf"  />
<polygon locus_tag="SSMG_03177" description="&lt;b&gt;SSMG_03177&lt;/b&gt;&lt;br&gt;predicted protein&lt;br&gt;Location: 3444912 - 3448071" points="639,35 644,30 658,30 658,40 644,40 639,35 " style="stroke-width:1; stroke:black; fill:#d81515; " id="dummy-11_q60_0_all" class="clusterblast-orf"  />
<polygon locus_tag="SSMG_03178" description="&lt;b&gt;SSMG_03178&lt;/b&gt;&lt;br&gt;conserved hypothetical protein&lt;br&gt;Location: 3448067 - 3448778" points="658,35 662,30 662,40 658,35 " style="stroke-width:1; stroke:black; fill:white; " id="dummy-11_q61_0_all" class="clusterblast-orf"  />
<polygon locus_tag="SSMG_03179" description="&lt;b&gt;SSMG_03179&lt;/b&gt;&lt;br&gt;kynurenine 3-monooxygenase&lt;br&gt;Location: 3448777 - 3450121" points="662,35 667,30 671,30 671,40 667,40 662,35 " style="stroke-width:1; stroke:black; fill:white; " id="dummy-11_q62_0_all" class="clusterblast-orf"  />
<polygon locus_tag="SSMG_03180" description="&lt;b&gt;SSMG_03180&lt;/b&gt;&lt;br&gt;predicted protein&lt;br&gt;Location: 3450629 - 3453167" points="674,40 685,40 690,35 685,30 674,30 674,40 " style="stroke-width:1; stroke:black; fill:white; " id="dummy-11_q63_0_all" class="clusterblast-orf"  />
<polygon locus_tag="SSMG_03181" description="&lt;b&gt;SSMG_03181&lt;/b&gt;&lt;br&gt;predicted protein&lt;br&gt;Location: 3453240 - 3454047" points="690,40 690,40 695,35 690,30 690,30 690,40 " style="stroke-width:1; stroke:black; fill:white; " id="dummy-11_q64_0_all" class="clusterblast-orf"  />
<polygon locus_tag="SSMG_03182" description="&lt;b&gt;SSMG_03182&lt;/b&gt;&lt;br&gt;predicted protein&lt;br&gt;Location: 3454177 - 3454513" points="696,40 698,35 696,30 696,40 " style="stroke-width:1; stroke:black; fill:white; " id="dummy-11_q65_0_all" class="clusterblast-orf"  />
<polygon locus_tag="SSMG_03183" description="&lt;b&gt;SSMG_03183&lt;/b&gt;&lt;br&gt;predicted protein&lt;br&gt;Location: 3454833 - 3455676" points="700,40 700,40 705,35 700,30 700,30 700,40 " style="stroke-width:1; stroke:black; fill:white; " id="dummy-11_q66_0_all" class="clusterblast-orf"  />
<polygon locus_tag="SSMG_03184" description="&lt;b&gt;SSMG_03184&lt;/b&gt;&lt;br&gt;predicted protein&lt;br&gt;Location: 3457320 - 3458355" points="715,40 717,40 722,35 717,30 715,30 715,40 " style="stroke-width:1; stroke:black; fill:white; " id="dummy-11_q67_0_all" class="clusterblast-orf"  />
<polygon locus_tag="SSMG_03185" description="&lt;b&gt;SSMG_03185&lt;/b&gt;&lt;br&gt;predicted protein&lt;br&gt;Location: 3458404 - 3458671" points="722,40 724,35 722,30 722,40 " style="stroke-width:1; stroke:black; fill:white; " id="dummy-11_q68_0_all" class="clusterblast-orf"  />
<polygon locus_tag="SSMG_03186" description="&lt;b&gt;SSMG_03186&lt;/b&gt;&lt;br&gt;predicted protein&lt;br&gt;Location: 3458741 - 3459344" points="724,40 728,35 724,30 724,40 " style="stroke-width:1; stroke:black; fill:white; " id="dummy-11_q69_0_all" class="clusterblast-orf"  />
<polygon locus_tag="SSMG_03187" description="&lt;b&gt;SSMG_03187&lt;/b&gt;&lt;br&gt;predicted protein&lt;br&gt;Location: 3459340 - 3460204" points="728,40 728,40 733,35 728,30 728,30 728,40 " style="stroke-width:1; stroke:black; fill:white; " id="dummy-11_q70_0_all" class="clusterblast-orf"  />
<polygon locus_tag="SSMG_03188" description="&lt;b&gt;SSMG_03188&lt;/b&gt;&lt;br&gt;predicted protein&lt;br&gt;Location: 3460439 - 3461777" points="735,35 740,30 743,30 743,40 740,40 735,35 " style="stroke-width:1; stroke:black; fill:white; " id="dummy-11_q71_0_all" class="clusterblast-orf"  />
<polygon locus_tag="SSMG_03189" description="&lt;b&gt;SSMG_03189&lt;/b&gt;&lt;br&gt;predicted protein&lt;br&gt;Location: 3461973 - 3462333" points="744,40 746,35 744,30 744,40 " style="stroke-width:1; stroke:black; fill:white; " id="dummy-11_q72_0_all" class="clusterblast-orf"  />
<polygon locus_tag="SSMG_03190" description="&lt;b&gt;SSMG_03190&lt;/b&gt;&lt;br&gt;LuxR family transcriptional regulator&lt;br&gt;Location: 3462411 - 3463065" points="747,40 751,35 747,30 747,40 " style="stroke-width:1; stroke:black; fill:white; " id="dummy-11_q73_0_all" class="clusterblast-orf"  />
<polygon locus_tag="SSMG_03191" description="&lt;b&gt;SSMG_03191&lt;/b&gt;&lt;br&gt;predicted protein&lt;br&gt;Location: 3463061 - 3464042" points="751,35 756,30 757,30 757,40 756,40 751,35 " style="stroke-width:1; stroke:black; fill:white; " id="dummy-11_q74_0_all" class="clusterblast-orf"  />
<polygon locus_tag="SSMG_03192" description="&lt;b&gt;SSMG_03192&lt;/b&gt;&lt;br&gt;predicted protein&lt;br&gt;Location: 3464170 - 3465883" points="758,40 763,40 768,35 763,30 758,30 758,40 " style="stroke-width:1; stroke:black; fill:white; " id="dummy-11_q75_0_all" class="clusterblast-orf"  />
<polygon locus_tag="SSMG_03193" description="&lt;b&gt;SSMG_03193&lt;/b&gt;&lt;br&gt;predicted protein&lt;br&gt;Location: 3466277 - 3467024" points="771,40 771,40 776,35 771,30 771,30 771,40 " style="stroke-width:1; stroke:black; fill:white; " id="dummy-11_q76_0_all" class="clusterblast-orf"  />
<polygon locus_tag="SSMG_03194" description="&lt;b&gt;SSMG_03194&lt;/b&gt;&lt;br&gt;predicted protein&lt;br&gt;Location: 3467275 - 3467674" points="777,40 780,35 777,30 777,40 " style="stroke-width:1; stroke:black; fill:white; " id="dummy-11_q77_0_all" class="clusterblast-orf"  />
</g>
<g label="BGC0001230" description="BGC0001230_c1: salinamide A / salinamide B / salinamide C / salinamide D / sa... (14% of genes show similarity), NRP:Cyclic depsipeptide + Polyketide:Modular type I" class="clusterblast-cluster"  >
<text class="clusterblast-acc" y="70" x="5"  >
<a xlink:href="https://mibig.secondarymetabolites.org/go/BGC0001230/1" target="_blank">BGC0001230</a>: salinamide A / salinamide B / salinamide C / salinamide D / salinamide E / salinamide F / desmethylsalinamide C / desmethylsalinamide E (14% of genes show similarity), NRP:Cyclic depsipeptide + Polyketide:Modular type I</text>
<line x1="10" x2="778.0" y2="85" style="stroke-width:1; stroke:grey; " y1="85"  />
</g>
<g id="a11_000"  >
<polygon locus_tag="DAB41484.1" description="&lt;b&gt;DAB41484.1&lt;/b&gt;&lt;br&gt;nonribosomal peptide synthetase/polyketide synthase type I&lt;br&gt;Location: 44697 - 37027" points="257,90 299,90 304,85 299,80 257,80 257,90 " style="stroke-width:1; stroke:black; fill:white; " id="dummy-11_h11_9_0" class="clusterblast-orf"  />
</g>
<g id="a11_001"  >
<polygon locus_tag="DAB41483.1" description="&lt;b&gt;DAB41483.1&lt;/b&gt;&lt;br&gt;LuxR regulatory protein&lt;br&gt;Location: 36951 - 34234" points="305,90 316,90 321,85 316,80 305,80 305,90 " style="stroke-width:1; stroke:black; fill:white; " id="dummy-11_h11_9_1" class="clusterblast-orf"  />
</g>
<g id="a11_002"  >
<polygon locus_tag="DAB41482.1" description="&lt;b&gt;DAB41482.1&lt;/b&gt;&lt;br&gt;acyl carrier protein&lt;br&gt;Location: 34167 - 33925" points="322,85 323,80 323,90 322,85 " style="stroke-width:1; stroke:black; fill:white; " id="dummy-11_h11_9_2" class="clusterblast-orf"  />
</g>
<g id="a11_003"  >
<polygon locus_tag="DAB41481.1" description="&lt;b&gt;DAB41481.1&lt;/b&gt;&lt;br&gt;beta-ketoacyl-ACP synthase III (KSIII)&lt;br&gt;Location: 33914 - 32973" points="323,85 328,80 329,80 329,90 328,90 323,85 " style="stroke-width:1; stroke:black; fill:white; " id="dummy-11_h11_9_3" class="clusterblast-orf"  />
</g>
<g id="a11_004"  >
<polygon locus_tag="DAB41480.1" description="&lt;b&gt;DAB41480.1&lt;/b&gt;&lt;br&gt;cytochrome P450&lt;br&gt;Location: 32976 - 31768" points="329,85 334,80 337,80 337,90 334,90 329,85 " style="stroke-width:1; stroke:black; fill:white; " id="dummy-11_h11_9_4" class="clusterblast-orf"  />
</g>
<g id="a11_005"  >
<polygon locus_tag="DAB41479.1" description="&lt;b&gt;DAB41479.1&lt;/b&gt;&lt;br&gt;nonribosomal peptide synthetase&lt;br&gt;Location: 31411 - 27455" points="339,90 358,90 363,85 358,80 339,80 339,90 " style="stroke-width:1; stroke:black; fill:white; " id="dummy-11_h11_9_5" class="clusterblast-orf"  />
</g>
<g id="a11_006"  >
<polygon locus_tag="DAB41478.1" description="&lt;b&gt;DAB41478.1&lt;/b&gt;&lt;br&gt;nonribosomal peptide synthetase&lt;br&gt;Location: 27458 - 22794" points="363,90 387,90 392,85 387,80 363,80 363,90 " style="stroke-width:1; stroke:black; fill:white; " id="dummy-11_h11_9_6" class="clusterblast-orf"  />
</g>
<g id="a11_007"  >
<polygon locus_tag="DAB41477.1" description="&lt;b&gt;DAB41477.1&lt;/b&gt;&lt;br&gt;nonribosomal peptide synthetase&lt;br&gt;Location: 22797 - 10615" points="392,90 463,90 468,85 463,80 392,80 392,90 " style="stroke-width:1; stroke:black; fill:white; " id="dummy-11_h11_9_7" class="clusterblast-orf"  />
</g>
<g id="a11_008"  >
<polygon locus_tag="DAB41476.1" description="&lt;b&gt;DAB41476.1&lt;/b&gt;&lt;br&gt;nonribosomal peptide synthetase&lt;br&gt;Location: 10618 - 6623&lt;br&gt;&lt;br&gt;&lt;b&gt;BlastP hit with SSMG_03172&lt;/b&gt;&lt;br&gt;Percentage identity: 49&lt;br&gt;Percentage coverage: 63&lt;br&gt;BLAST bit score: 500&lt;br&gt;E-value: 7.8e-141" points="468,90 487,90 492,85 487,80 468,80 468,90 " style="stroke-width:1; stroke:black; fill:#d81515; " id="dummy-11_h11_9_8" class="clusterblast-orf"  />
</g>
<g id="a11_009"  >
<polygon locus_tag="DAB41475.1" description="&lt;b&gt;DAB41475.1&lt;/b&gt;&lt;br&gt;MbtH-like protein&lt;br&gt;Location: 6582 - 6364&lt;br&gt;&lt;br&gt;&lt;b&gt;BlastP hit with SSMG_03151&lt;/b&gt;&lt;br&gt;Percentage identity: 56&lt;br&gt;Percentage coverage: 80&lt;br&gt;BLAST bit score: 68&lt;br&gt;E-value: 5.1e-12" points="493,90 494,85 493,80 493,90 " style="stroke-width:1; stroke:black; fill:#1515d8; " id="dummy-11_h11_9_9" class="clusterblast-orf"  />
</g>
<g id="a11_0010"  >
<polygon locus_tag="DAB41474.1" description="&lt;b&gt;DAB41474.1&lt;/b&gt;&lt;br&gt;methyltransferase&lt;br&gt;Location: 6367 - 5333" points="494,90 495,90 500,85 495,80 494,80 494,90 " style="stroke-width:1; stroke:black; fill:white; " id="dummy-11_h11_9_10" class="clusterblast-orf"  />
</g>
<g id="a11_0011"  >
<polygon locus_tag="DAB41473.1" description="&lt;b&gt;DAB41473.1&lt;/b&gt;&lt;br&gt;4-hydroxyphenylpyruvate dioxygenase&lt;br&gt;Location: 5297 - 4215" points="501,90 502,90 507,85 502,80 501,80 501,90 " style="stroke-width:1; stroke:black; fill:white; " id="dummy-11_h11_9_11" class="clusterblast-orf"  />
</g>
<g id="a11_0012"  >
<polygon locus_tag="DAB41472.1" description="&lt;b&gt;DAB41472.1&lt;/b&gt;&lt;br&gt;2-hydroxy-acid oxidase&lt;br&gt;Location: 4218 - 3115" points="507,90 509,90 514,85 509,80 507,80 507,90 " style="stroke-width:1; stroke:black; fill:white; " id="dummy-11_h11_9_12" class="clusterblast-orf"  />
</g>
<g id="a11_0013"  >
<polygon locus_tag="DAB41471.1" description="&lt;b&gt;DAB41471.1&lt;/b&gt;&lt;br&gt;hydroxyphenylglycine aminotransferase&lt;br&gt;Location: 3115 - 1796" points="514,90 517,90 522,85 517,80 514,80 514,90 " style="stroke-width:1; stroke:black; fill:white; " id="dummy-11_h11_9_13" class="clusterblast-orf"  />
</g>
</svg>
