<svg version="1.1" xmlns="http://www.w3.org/2000/svg" height="230" width="800" xmlns:xlink="http://www.w3.org/1999/xlink" preserveAspectRatio="none" x="0" y="0" viewBox="0 0 800 230"  >
<g label="Query sequence" class="clusterblast-cluster"  >
<text class="clusterblast-acc" y="20" x="5"  >
Query sequence</text>
<line x1="10" x2="778.0" y2="35" style="stroke-width:1; stroke:grey; " y1="35"  />
<polygon locus_tag="SSMG_03800" description="&lt;b&gt;SSMG_03800&lt;/b&gt;&lt;br&gt;predicted protein&lt;br&gt;Location: 4135625 - 4136882" points="107,35 112,30 120,30 120,40 112,40 107,35 " style="stroke-width:1; stroke:black; fill:white; " id="dummy-15_q0_0_all" class="clusterblast-orf"  />
<polygon locus_tag="SSMG_03801" description="&lt;b&gt;SSMG_03801&lt;/b&gt;&lt;br&gt;predicted protein&lt;br&gt;Location: 4138121 - 4138613" points="132,35 137,30 137,30 137,40 137,40 132,35 " style="stroke-width:1; stroke:black; fill:white; " id="dummy-15_q1_0_all" class="clusterblast-orf"  />
<polygon locus_tag="SSMG_03802" description="&lt;b&gt;SSMG_03802&lt;/b&gt;&lt;br&gt;transposase&lt;br&gt;Location: 4138531 - 4139158" points="136,40 138,40 143,35 138,30 136,30 136,40 " style="stroke-width:1; stroke:black; fill:white; " id="dummy-15_q2_0_all" class="clusterblast-orf"  />
<polygon locus_tag="SSMG_03803" description="&lt;b&gt;SSMG_03803&lt;/b&gt;&lt;br&gt;predicted protein&lt;br&gt;Location: 4139336 - 4139750" points="145,40 149,35 145,30 145,40 " style="stroke-width:1; stroke:black; fill:white; " id="dummy-15_q3_0_all" class="clusterblast-orf"  />
<polygon locus_tag="SSMG_03804" description="&lt;b&gt;SSMG_03804&lt;/b&gt;&lt;br&gt;RNA polymerase sigma factor RpoE&lt;br&gt;Location: 4139929 - 4140688" points="151,40 153,40 158,35 153,30 151,30 151,40 " style="stroke-width:1; stroke:black; fill:#d81515; " id="dummy-15_q4_0_all" class="clusterblast-orf"  />
<polygon locus_tag="SSMG_03805" description="&lt;b&gt;SSMG_03805&lt;/b&gt;&lt;br&gt;predicted protein&lt;br&gt;Location: 4140871 - 4141780" points="160,35 165,30 170,30 170,40 165,40 160,35 " style="stroke-width:1; stroke:black; fill:white; " id="dummy-15_q5_0_all" class="clusterblast-orf"  />
<polygon locus_tag="SSMG_03806" description="&lt;b&gt;SSMG_03806&lt;/b&gt;&lt;br&gt;predicted protein&lt;br&gt;Location: 4141905 - 4144077" points="171,40 188,40 193,35 188,30 171,30 171,40 " style="stroke-width:1; stroke:black; fill:white; " id="dummy-15_q6_0_all" class="clusterblast-orf"  />
<polygon locus_tag="SSMG_03807" description="&lt;b&gt;SSMG_03807&lt;/b&gt;&lt;br&gt;periplasmic solute binding protein&lt;br&gt;Location: 4144082 - 4144871" points="193,35 198,30 201,30 201,40 198,40 193,35 " style="stroke-width:1; stroke:black; fill:white; " id="dummy-15_q7_0_all" class="clusterblast-orf"  />
<polygon locus_tag="SSMG_03808" description="&lt;b&gt;SSMG_03808&lt;/b&gt;&lt;br&gt;predicted protein&lt;br&gt;Location: 4144840 - 4145686" points="201,35 206,30 209,30 209,40 206,40 201,35 " style="stroke-width:1; stroke:black; fill:white; " id="dummy-15_q8_0_all" class="clusterblast-orf"  />
<polygon locus_tag="SSMG_03809" description="&lt;b&gt;SSMG_03809&lt;/b&gt;&lt;br&gt;ABC transporter&lt;br&gt;Location: 4145682 - 4146336" points="209,35 214,30 216,30 216,40 214,40 209,35 " style="stroke-width:1; stroke:black; fill:white; " id="dummy-15_q9_0_all" class="clusterblast-orf"  />
<polygon locus_tag="SSMG_03810" description="&lt;b&gt;SSMG_03810&lt;/b&gt;&lt;br&gt;predicted protein&lt;br&gt;Location: 4146416 - 4147538" points="217,35 222,30 228,30 228,40 222,40 217,35 " style="stroke-width:1; stroke:black; fill:white; " id="dummy-15_q10_0_all" class="clusterblast-orf"  />
<polygon locus_tag="SSMG_03811" description="&lt;b&gt;SSMG_03811&lt;/b&gt;&lt;br&gt;predicted protein&lt;br&gt;Location: 4147626 - 4149222" points="229,40 240,40 245,35 240,30 229,30 229,40 " style="stroke-width:1; stroke:black; fill:white; " id="dummy-15_q11_0_all" class="clusterblast-orf"  />
<polygon locus_tag="SSMG_03812" description="&lt;b&gt;SSMG_03812&lt;/b&gt;&lt;br&gt;cyclohexanecarboxylate-CoA ligase&lt;br&gt;Location: 4149218 - 4150868" points="245,40 257,40 262,35 257,30 245,30 245,40 " style="stroke-width:1; stroke:black; fill:#15d815; " id="dummy-15_q12_0_all" class="clusterblast-orf"  />
<polygon locus_tag="SSMG_03813" description="&lt;b&gt;SSMG_03813&lt;/b&gt;&lt;br&gt;high-affinity nickel-transporter&lt;br&gt;Location: 4150933 - 4152067" points="263,35 268,30 274,30 274,40 268,40 263,35 " style="stroke-width:1; stroke:black; fill:white; " id="dummy-15_q13_0_all" class="clusterblast-orf"  />
<polygon locus_tag="SSMG_03814" description="&lt;b&gt;SSMG_03814&lt;/b&gt;&lt;br&gt;predicted protein&lt;br&gt;Location: 4153135 - 4153549" points="285,35 290,30 290,30 290,40 290,40 285,35 " style="stroke-width:1; stroke:black; fill:white; " id="dummy-15_q14_0_all" class="clusterblast-orf"  />
<polygon locus_tag="SSMG_03815" description="&lt;b&gt;SSMG_03815&lt;/b&gt;&lt;br&gt;5,10-methylenetetrahydromethanopterin reductase&lt;br&gt;Location: 4153709 - 4154882" points="291,40 298,40 303,35 298,30 291,30 291,40 " style="stroke-width:1; stroke:black; fill:white; " id="dummy-15_q15_0_all" class="clusterblast-orf"  />
<polygon locus_tag="SSMG_03816" description="&lt;b&gt;SSMG_03816&lt;/b&gt;&lt;br&gt;predicted protein&lt;br&gt;Location: 4154971 - 4167916" points="304,40 431,40 436,35 431,30 304,30 304,40 " style="stroke-width:1; stroke:black; fill:#1515d8; " id="dummy-15_q16_0_all" class="clusterblast-orf"  />
<polygon locus_tag="SSMG_03817" description="&lt;b&gt;SSMG_03817&lt;/b&gt;&lt;br&gt;predicted protein&lt;br&gt;Location: 4167902 - 4171460" points="436,40 467,40 472,35 467,30 436,30 436,40 " style="stroke-width:1; stroke:black; fill:#1515d8; " id="dummy-15_q17_0_all" class="clusterblast-orf"  />
<polygon locus_tag="SSMG_03818" description="&lt;b&gt;SSMG_03818&lt;/b&gt;&lt;br&gt;conserved hypothetical protein&lt;br&gt;Location: 4173548 - 4174076" points="494,40 494,40 499,35 494,30 494,30 494,40 " style="stroke-width:1; stroke:black; fill:white; " id="dummy-15_q18_0_all" class="clusterblast-orf"  />
<polygon locus_tag="SSMG_03819" description="&lt;b&gt;SSMG_03819&lt;/b&gt;&lt;br&gt;lipolytic enzyme&lt;br&gt;Location: 4174081 - 4174861" points="499,35 504,30 507,30 507,40 504,40 499,35 " style="stroke-width:1; stroke:black; fill:white; " id="dummy-15_q19_0_all" class="clusterblast-orf"  />
<polygon locus_tag="SSMG_03820" description="&lt;b&gt;SSMG_03820&lt;/b&gt;&lt;br&gt;predicted protein&lt;br&gt;Location: 4174949 - 4175519" points="508,35 513,30 514,30 514,40 513,40 508,35 " style="stroke-width:1; stroke:black; fill:white; " id="dummy-15_q20_0_all" class="clusterblast-orf"  />
<polygon locus_tag="SSMG_03821" description="&lt;b&gt;SSMG_03821&lt;/b&gt;&lt;br&gt;major facilitator transporter&lt;br&gt;Location: 4175685 - 4177029" points="515,40 524,40 529,35 524,30 515,30 515,40 " style="stroke-width:1; stroke:black; fill:white; " id="dummy-15_q21_0_all" class="clusterblast-orf"  />
<polygon locus_tag="SSMG_03822" description="&lt;b&gt;SSMG_03822&lt;/b&gt;&lt;br&gt;SPFH domain/band 7 family protein&lt;br&gt;Location: 4177090 - 4178488" points="530,35 535,30 544,30 544,40 535,40 530,35 " style="stroke-width:1; stroke:black; fill:white; " id="dummy-15_q22_0_all" class="clusterblast-orf"  />
<polygon locus_tag="SSMG_03823" description="&lt;b&gt;SSMG_03823&lt;/b&gt;&lt;br&gt;predicted protein&lt;br&gt;Location: 4178553 - 4178988" points="545,35 549,30 549,40 545,35 " style="stroke-width:1; stroke:black; fill:white; " id="dummy-15_q23_0_all" class="clusterblast-orf"  />
<polygon locus_tag="SSMG_03824" description="&lt;b&gt;SSMG_03824&lt;/b&gt;&lt;br&gt;conserved hypothetical protein&lt;br&gt;Location: 4179080 - 4179887" points="550,35 555,30 558,30 558,40 555,40 550,35 " style="stroke-width:1; stroke:black; fill:white; " id="dummy-15_q24_0_all" class="clusterblast-orf"  />
<polygon locus_tag="SSMG_03825" description="&lt;b&gt;SSMG_03825&lt;/b&gt;&lt;br&gt;aldo/keto reductase&lt;br&gt;Location: 4180049 - 4181042" points="560,40 565,40 570,35 565,30 560,30 560,40 " style="stroke-width:1; stroke:black; fill:#d815d8; " id="dummy-15_q25_0_all" class="clusterblast-orf"  />
<polygon locus_tag="SSMG_03826" description="&lt;b&gt;SSMG_03826&lt;/b&gt;&lt;br&gt;predicted protein&lt;br&gt;Location: 4181073 - 4181988" points="570,35 575,30 580,30 580,40 575,40 570,35 " style="stroke-width:1; stroke:black; fill:white; " id="dummy-15_q26_0_all" class="clusterblast-orf"  />
<polygon locus_tag="SSMG_03827" description="&lt;b&gt;SSMG_03827&lt;/b&gt;&lt;br&gt;phosphatidylinositol 3-and 4-kinase&lt;br&gt;Location: 4181972 - 4182782" points="579,35 584,30 588,30 588,40 584,40 579,35 " style="stroke-width:1; stroke:black; fill:white; " id="dummy-15_q27_0_all" class="clusterblast-orf"  />
<polygon locus_tag="SSMG_03828" description="&lt;b&gt;SSMG_03828&lt;/b&gt;&lt;br&gt;conserved hypothetical protein&lt;br&gt;Location: 4182790 - 4183366" points="588,35 593,30 594,30 594,40 593,40 588,35 " style="stroke-width:1; stroke:black; fill:white; " id="dummy-15_q28_0_all" class="clusterblast-orf"  />
<polygon locus_tag="SSMG_03829" description="&lt;b&gt;SSMG_03829&lt;/b&gt;&lt;br&gt;acyl-peptide hydrolase&lt;br&gt;Location: 4183496 - 4185428" points="595,40 610,40 615,35 610,30 595,30 595,40 " style="stroke-width:1; stroke:black; fill:#d8d815; " id="dummy-15_q29_0_all" class="clusterblast-orf"  />
<polygon locus_tag="SSMG_03830" description="&lt;b&gt;SSMG_03830&lt;/b&gt;&lt;br&gt;conserved hypothetical protein&lt;br&gt;Location: 4185424 - 4186324" points="615,40 619,40 624,35 619,30 615,30 615,40 " style="stroke-width:1; stroke:black; fill:#15d8d8; " id="dummy-15_q30_0_all" class="clusterblast-orf"  />
<polygon locus_tag="SSMG_03831" description="&lt;b&gt;SSMG_03831&lt;/b&gt;&lt;br&gt;pyridoxamine 5'-phosphate oxidase&lt;br&gt;Location: 4186330 - 4186744" points="624,40 628,35 624,30 624,40 " style="stroke-width:1; stroke:black; fill:white; " id="dummy-15_q31_0_all" class="clusterblast-orf"  />
<polygon locus_tag="SSMG_03832" description="&lt;b&gt;SSMG_03832&lt;/b&gt;&lt;br&gt;hypothetical protein&lt;br&gt;Location: 4186778 - 4187462" points="629,40 630,40 635,35 630,30 629,30 629,40 " style="stroke-width:1; stroke:black; fill:white; " id="dummy-15_q32_0_all" class="clusterblast-orf"  />
<polygon locus_tag="SSMG_03833" description="&lt;b&gt;SSMG_03833&lt;/b&gt;&lt;br&gt;predicted protein&lt;br&gt;Location: 4187472 - 4188066" points="636,40 637,40 642,35 637,30 636,30 636,40 " style="stroke-width:1; stroke:black; fill:white; " id="dummy-15_q33_0_all" class="clusterblast-orf"  />
<polygon locus_tag="SSMG_03834" description="&lt;b&gt;SSMG_03834&lt;/b&gt;&lt;br&gt;predicted protein&lt;br&gt;Location: 4188384 - 4189485" points="645,40 651,40 656,35 651,30 645,30 645,40 " style="stroke-width:1; stroke:black; fill:white; " id="dummy-15_q34_0_all" class="clusterblast-orf"  />
<polygon locus_tag="SSMG_03835" description="&lt;b&gt;SSMG_03835&lt;/b&gt;&lt;br&gt;predicted protein&lt;br&gt;Location: 4189531 - 4191085" points="657,35 662,30 672,30 672,40 662,40 657,35 " style="stroke-width:1; stroke:black; fill:white; " id="dummy-15_q35_0_all" class="clusterblast-orf"  />
</g>
<g label="BGC0000075" description="BGC0000075_c1: hygrocin A / hygrocin B (16% of genes show similarity), Polyketide" class="clusterblast-cluster"  >
<text class="clusterblast-acc" y="70" x="5"  >
<a xlink:href="https://mibig.secondarymetabolites.org/go/BGC0000075/1" target="_blank">BGC0000075</a>:                                                          hygrocin A / hygrocin B (16% of genes show similarity), Polyketide</text>
<line x1="10" x2="778.0" y2="85" style="stroke-width:1; stroke:grey; " y1="85"  />
</g>
<g id="a15_000"  >
<polygon locus_tag="AFV30240.1" description="&lt;b&gt;AFV30240.1&lt;/b&gt;&lt;br&gt;TetR family transcriptional regulator&lt;br&gt;Location: 1 - 582" points="0,85 5,80 5,80 5,90 5,90 0,85 " style="stroke-width:1; stroke:black; fill:white; " id="dummy-15_h15_5_0" class="clusterblast-orf"  />
</g>
<g id="a15_001"  >
<polygon locus_tag="AFV30241.1" description="&lt;b&gt;AFV30241.1&lt;/b&gt;&lt;br&gt;fumarate reductase/succinate dehydrogenase flavoprotein domain protein&lt;br&gt;Location: 762 - 2588" points="7,90 21,90 26,85 21,80 7,80 7,90 " style="stroke-width:1; stroke:black; fill:white; " id="dummy-15_h15_5_1" class="clusterblast-orf"  />
</g>
<g id="a15_002"  >
<polygon locus_tag="AFV30242.1" description="&lt;b&gt;AFV30242.1&lt;/b&gt;&lt;br&gt;NHL repeat containing protein&lt;br&gt;Location: 2612 - 4306" points="26,90 38,90 43,85 38,80 26,80 26,90 " style="stroke-width:1; stroke:black; fill:white; " id="dummy-15_h15_5_2" class="clusterblast-orf"  />
</g>
<g id="a15_003"  >
<polygon locus_tag="AFV30243.1" description="&lt;b&gt;AFV30243.1&lt;/b&gt;&lt;br&gt;alcohol dehydrogenas&lt;br&gt;Location: 4327 - 5301" points="44,85 49,80 54,80 54,90 49,90 44,85 " style="stroke-width:1; stroke:black; fill:white; " id="dummy-15_h15_5_3" class="clusterblast-orf"  />
</g>
<g id="a15_004"  >
<polygon locus_tag="AFV30244.1" description="&lt;b&gt;AFV30244.1&lt;/b&gt;&lt;br&gt;nitroreductase&lt;br&gt;Location: 5520 - 6149" points="56,90 57,90 62,85 57,80 56,80 56,90 " style="stroke-width:1; stroke:black; fill:white; " id="dummy-15_h15_5_4" class="clusterblast-orf"  />
</g>
<g id="a15_005"  >
<polygon locus_tag="AFV30245.1" description="&lt;b&gt;AFV30245.1&lt;/b&gt;&lt;br&gt;LuxR family transcriptional regulator&lt;br&gt;Location: 6685 - 9609" points="68,90 92,90 97,85 92,80 68,80 68,90 " style="stroke-width:1; stroke:black; fill:white; " id="dummy-15_h15_5_5" class="clusterblast-orf"  />
</g>
<g id="a15_006"  >
<polygon locus_tag="AFV30246.1" description="&lt;b&gt;AFV30246.1&lt;/b&gt;&lt;br&gt;FAD-binding monooxygenase&lt;br&gt;Location: 9642 - 11234" points="98,85 103,80 114,80 114,90 103,90 98,85 " style="stroke-width:1; stroke:black; fill:white; " id="dummy-15_h15_5_6" class="clusterblast-orf"  />
</g>
<g id="a15_007"  >
<polygon locus_tag="AFV30247.1" description="&lt;b&gt;AFV30247.1&lt;/b&gt;&lt;br&gt;polyketide synthase&lt;br&gt;Location: 11393 - 27940&lt;br&gt;&lt;br&gt;&lt;b&gt;BlastP hit with SSMG_03817&lt;/b&gt;&lt;br&gt;Percentage identity: 50&lt;br&gt;Percentage coverage: 55&lt;br&gt;BLAST bit score: 569&lt;br&gt;E-value: 9.9e-162" points="116,90 279,90 284,85 279,80 116,80 116,90 " style="stroke-width:1; stroke:black; fill:#1515d8; " id="dummy-15_h15_5_7" class="clusterblast-orf"  />
</g>
<g id="a15_008"  >
<polygon locus_tag="AFV30248.1" description="&lt;b&gt;AFV30248.1&lt;/b&gt;&lt;br&gt;polyketide synthase&lt;br&gt;Location: 27967 - 34623" points="285,90 348,90 353,85 348,80 285,80 285,90 " style="stroke-width:1; stroke:black; fill:white; " id="dummy-15_h15_5_8" class="clusterblast-orf"  />
</g>
<g id="a15_009"  >
<polygon locus_tag="AFV30249.1" description="&lt;b&gt;AFV30249.1&lt;/b&gt;&lt;br&gt;polyketide synthase&lt;br&gt;Location: 34708 - 40260&lt;br&gt;&lt;br&gt;&lt;b&gt;BlastP hit with SSMG_03817&lt;/b&gt;&lt;br&gt;Percentage identity: 46&lt;br&gt;Percentage coverage: 59&lt;br&gt;BLAST bit score: 536&lt;br&gt;E-value: 1.2e-151" points="353,90 405,90 410,85 405,80 353,80 353,90 " style="stroke-width:1; stroke:black; fill:#1515d8; " id="dummy-15_h15_5_9" class="clusterblast-orf"  />
</g>
<g id="a15_0010"  >
<polygon locus_tag="AFV30250.1" description="&lt;b&gt;AFV30250.1&lt;/b&gt;&lt;br&gt;polyketide synthase&lt;br&gt;Location: 40281 - 46865&lt;br&gt;&lt;br&gt;&lt;b&gt;BlastP hit with SSMG_03817&lt;/b&gt;&lt;br&gt;Percentage identity: 48&lt;br&gt;Percentage coverage: 58&lt;br&gt;BLAST bit score: 587&lt;br&gt;E-value: 4.6e-167" points="410,90 472,90 477,85 472,80 410,80 410,90 " style="stroke-width:1; stroke:black; fill:#1515d8; " id="dummy-15_h15_5_10" class="clusterblast-orf"  />
</g>
<g id="a15_0011"  >
<polygon locus_tag="AFV30251.1" description="&lt;b&gt;AFV30251.1&lt;/b&gt;&lt;br&gt;polyketide synthase&lt;br&gt;Location: 46865 - 55399&lt;br&gt;&lt;br&gt;&lt;b&gt;BlastP hit with SSMG_03817&lt;/b&gt;&lt;br&gt;Percentage identity: 48&lt;br&gt;Percentage coverage: 57&lt;br&gt;BLAST bit score: 565&lt;br&gt;E-value: 2.4e-160" points="477,90 560,90 565,85 560,80 477,80 477,90 " style="stroke-width:1; stroke:black; fill:#1515d8; " id="dummy-15_h15_5_11" class="clusterblast-orf"  />
</g>
<g id="a15_0012"  >
<polygon locus_tag="AFV30252.1" description="&lt;b&gt;AFV30252.1&lt;/b&gt;&lt;br&gt;amide synthase&lt;br&gt;Location: 55396 - 56280" points="565,90 569,90 574,85 569,80 565,80 565,90 " style="stroke-width:1; stroke:black; fill:white; " id="dummy-15_h15_5_12" class="clusterblast-orf"  />
</g>
<g id="a15_0013"  >
<polygon locus_tag="AFV30253.1" description="&lt;b&gt;AFV30253.1&lt;/b&gt;&lt;br&gt;putative FMN-binding monoxygenase&lt;br&gt;Location: 56293 - 57519" points="574,90 581,90 586,85 581,80 574,80 574,90 " style="stroke-width:1; stroke:black; fill:white; " id="dummy-15_h15_5_13" class="clusterblast-orf"  />
</g>
<g id="a15_0014"  >
<polygon locus_tag="AFV30254.1" description="&lt;b&gt;AFV30254.1&lt;/b&gt;&lt;br&gt;cytochrome P450&lt;br&gt;Location: 57570 - 58769" points="587,90 594,90 599,85 594,80 587,80 587,90 " style="stroke-width:1; stroke:black; fill:white; " id="dummy-15_h15_5_14" class="clusterblast-orf"  />
</g>
<g id="a15_0015"  >
<polygon locus_tag="AFV30255.1" description="&lt;b&gt;AFV30255.1&lt;/b&gt;&lt;br&gt;2OG-Fe(II) oxygenase&lt;br&gt;Location: 58770 - 59450" points="599,85 604,80 606,80 606,90 604,90 599,85 " style="stroke-width:1; stroke:black; fill:white; " id="dummy-15_h15_5_15" class="clusterblast-orf"  />
</g>
<g id="a15_0016"  >
<polygon locus_tag="AFV30256.1" description="&lt;b&gt;AFV30256.1&lt;/b&gt;&lt;br&gt;hypothetical protein&lt;br&gt;Location: 59539 - 60267" points="607,85 612,80 614,80 614,90 612,90 607,85 " style="stroke-width:1; stroke:black; fill:white; " id="dummy-15_h15_5_16" class="clusterblast-orf"  />
</g>
<g id="a15_0017"  >
<polygon locus_tag="AFV30257.1" description="&lt;b&gt;AFV30257.1&lt;/b&gt;&lt;br&gt;putative methylated-DNA-protein-cysteine S-methyltransferase&lt;br&gt;Location: 60335 - 60841" points="615,85 620,80 620,80 620,90 620,90 615,85 " style="stroke-width:1; stroke:black; fill:white; " id="dummy-15_h15_5_17" class="clusterblast-orf"  />
</g>
<g id="a15_0018"  >
<polygon locus_tag="AFV30258.1" description="&lt;b&gt;AFV30258.1&lt;/b&gt;&lt;br&gt;hypothetical protein&lt;br&gt;Location: 60954 - 61580" points="621,85 626,80 628,80 628,90 626,90 621,85 " style="stroke-width:1; stroke:black; fill:white; " id="dummy-15_h15_5_18" class="clusterblast-orf"  />
</g>
<g id="a15_0019"  >
<polygon locus_tag="AFV30259.1" description="&lt;b&gt;AFV30259.1&lt;/b&gt;&lt;br&gt;putative integral membrane sensor protein&lt;br&gt;Location: 61710 - 64433" points="629,85 634,80 657,80 657,90 634,90 629,85 " style="stroke-width:1; stroke:black; fill:white; " id="dummy-15_h15_5_19" class="clusterblast-orf"  />
</g>
<g id="a15_0020"  >
<polygon locus_tag="AFV30260.1" description="&lt;b&gt;AFV30260.1&lt;/b&gt;&lt;br&gt;putative protease B precursor&lt;br&gt;Location: 64613 - 65563" points="659,90 663,90 668,85 663,80 659,80 659,90 " style="stroke-width:1; stroke:black; fill:white; " id="dummy-15_h15_5_20" class="clusterblast-orf"  />
</g>
<g id="a15_0021"  >
<polygon locus_tag="AFV30261.1" description="&lt;b&gt;AFV30261.1&lt;/b&gt;&lt;br&gt;FAD-dependent pyridine nucleotide-disulfide oxidoreductase&lt;br&gt;Location: 65868 - 66923" points="671,85 676,80 682,80 682,90 676,90 671,85 " style="stroke-width:1; stroke:black; fill:white; " id="dummy-15_h15_5_21" class="clusterblast-orf"  />
</g>
<g id="a15_0022"  >
<polygon locus_tag="AFV30262.1" description="&lt;b&gt;AFV30262.1&lt;/b&gt;&lt;br&gt;putative integral-membrane protein&lt;br&gt;Location: 67301 - 68119" points="686,90 689,90 694,85 689,80 686,80 686,90 " style="stroke-width:1; stroke:black; fill:white; " id="dummy-15_h15_5_22" class="clusterblast-orf"  />
</g>
<g id="a15_0023"  >
<polygon locus_tag="AFV30263.1" description="&lt;b&gt;AFV30263.1&lt;/b&gt;&lt;br&gt;putative ECF-family sigma factor&lt;br&gt;Location: 68304 - 68936&lt;br&gt;&lt;br&gt;&lt;b&gt;BlastP hit with SSMG_03804&lt;/b&gt;&lt;br&gt;Percentage identity: 56&lt;br&gt;Percentage coverage: 72&lt;br&gt;BLAST bit score: 168&lt;br&gt;E-value: 1.1e-41" points="696,90 698,90 703,85 698,80 696,80 696,90 " style="stroke-width:1; stroke:black; fill:#d81515; " id="dummy-15_h15_5_23" class="clusterblast-orf"  />
</g>
<g id="a15_0024"  >
<polygon locus_tag="AFV30270.1" description="&lt;b&gt;AFV30270.1&lt;/b&gt;&lt;br&gt;phosphatase&lt;br&gt;Location: 69067 - 69762" points="704,85 709,80 711,80 711,90 709,90 704,85 " style="stroke-width:1; stroke:black; fill:white; " id="dummy-15_h15_5_24" class="clusterblast-orf"  />
</g>
<g id="a15_0025"  >
<polygon locus_tag="AFV30264.1" description="&lt;b&gt;AFV30264.1&lt;/b&gt;&lt;br&gt;oxidoreductase&lt;br&gt;Location: 69958 - 71046" points="713,85 718,80 724,80 724,90 718,90 713,85 " style="stroke-width:1; stroke:black; fill:white; " id="dummy-15_h15_5_25" class="clusterblast-orf"  />
</g>
<g id="a15_0026"  >
<polygon locus_tag="AFV30265.1" description="&lt;b&gt;AFV30265.1&lt;/b&gt;&lt;br&gt;AHBA synthase&lt;br&gt;Location: 71088 - 72254" points="725,85 730,80 736,80 736,90 730,90 725,85 " style="stroke-width:1; stroke:black; fill:white; " id="dummy-15_h15_5_26" class="clusterblast-orf"  />
</g>
<g id="a15_0027"  >
<polygon locus_tag="AFV30266.1" description="&lt;b&gt;AFV30266.1&lt;/b&gt;&lt;br&gt;aDHQ dehydratase&lt;br&gt;Location: 72469 - 72915" points="739,90 743,85 739,80 739,90 " style="stroke-width:1; stroke:black; fill:white; " id="dummy-15_h15_5_27" class="clusterblast-orf"  />
</g>
<g id="a15_0028"  >
<polygon locus_tag="AFV30267.1" description="&lt;b&gt;AFV30267.1&lt;/b&gt;&lt;br&gt;kinase&lt;br&gt;Location: 73021 - 73899" points="744,90 748,90 753,85 748,80 744,80 744,90 " style="stroke-width:1; stroke:black; fill:white; " id="dummy-15_h15_5_28" class="clusterblast-orf"  />
</g>
<g id="a15_0029"  >
<polygon locus_tag="AFV30268.1" description="&lt;b&gt;AFV30268.1&lt;/b&gt;&lt;br&gt;MerR family transcriptional regulator&lt;br&gt;Location: 74058 - 74909" points="755,90 759,90 764,85 759,80 755,80 755,90 " style="stroke-width:1; stroke:black; fill:white; " id="dummy-15_h15_5_29" class="clusterblast-orf"  />
</g>
<g id="a15_0030"  >
<polygon locus_tag="AFV30269.1" description="&lt;b&gt;AFV30269.1&lt;/b&gt;&lt;br&gt;hypothetical protein&lt;br&gt;Location: 75063 - 76475" points="765,85 770,80 780,80 780,90 770,90 765,85 " style="stroke-width:1; stroke:black; fill:white; " id="dummy-15_h15_5_30" class="clusterblast-orf"  />
</g>
</svg>
