<svg version="1.1" xmlns="http://www.w3.org/2000/svg" height="230" width="800" xmlns:xlink="http://www.w3.org/1999/xlink" preserveAspectRatio="none" x="0" y="0" viewBox="0 0 800 230"  >
<g label="Query sequence" class="clusterblast-cluster"  >
<text class="clusterblast-acc" y="20" x="5"  >
Query sequence</text>
<line x1="10" x2="778.0" y2="35" style="stroke-width:1; stroke:grey; " y1="35"  />
<polygon locus_tag="SSMG_03679" description="&lt;b&gt;SSMG_03679&lt;/b&gt;&lt;br&gt;conserved hypothetical protein&lt;br&gt;Location: 4007765 - 4008614" points="0,35 5,30 15,30 15,40 5,40 0,35 " style="stroke-width:1; stroke:black; fill:#d81515; " id="dummy-14_q0_0_all" class="clusterblast-orf"  />
<polygon locus_tag="SSMG_03680" description="&lt;b&gt;SSMG_03680&lt;/b&gt;&lt;br&gt;3-oxoacyl-[acyl-carrier-protein] reductase&lt;br&gt;Location: 4008610 - 4009336" points="15,35 20,30 28,30 28,40 20,40 15,35 " style="stroke-width:1; stroke:black; fill:white; " id="dummy-14_q1_0_all" class="clusterblast-orf"  />
<polygon locus_tag="SSMG_03681" description="&lt;b&gt;SSMG_03681&lt;/b&gt;&lt;br&gt;cyclohexanecarboxyl-CoA dehydrogenase&lt;br&gt;Location: 4009343 - 4010492" points="28,35 33,30 48,30 48,40 33,40 28,35 " style="stroke-width:1; stroke:black; fill:#15d863; " id="dummy-14_q2_0_all" class="clusterblast-orf"  />
<polygon locus_tag="SSMG_03682" description="&lt;b&gt;SSMG_03682&lt;/b&gt;&lt;br&gt;predicted protein&lt;br&gt;Location: 4010488 - 4011319" points="48,35 53,30 63,30 63,40 53,40 48,35 " style="stroke-width:1; stroke:black; fill:#1563d8; " id="dummy-14_q3_0_all" class="clusterblast-orf"  />
<polygon locus_tag="SSMG_03683" description="&lt;b&gt;SSMG_03683&lt;/b&gt;&lt;br&gt;cyclohexanecarboxyl-CoA dehydrogenase&lt;br&gt;Location: 4011315 - 4012503" points="63,35 68,30 84,30 84,40 68,40 63,35 " style="stroke-width:1; stroke:black; fill:white; " id="dummy-14_q4_0_all" class="clusterblast-orf"  />
<polygon locus_tag="SSMG_03684" description="&lt;b&gt;SSMG_03684&lt;/b&gt;&lt;br&gt;predicted protein&lt;br&gt;Location: 4012692 - 4013370" points="88,40 95,40 100,35 95,30 88,30 88,40 " style="stroke-width:1; stroke:black; fill:white; " id="dummy-14_q5_0_all" class="clusterblast-orf"  />
<polygon locus_tag="SSMG_03685" description="&lt;b&gt;SSMG_03685&lt;/b&gt;&lt;br&gt;amidase&lt;br&gt;Location: 4013427 - 4014879" points="101,40 122,40 127,35 122,30 101,30 101,40 " style="stroke-width:1; stroke:black; fill:white; " id="dummy-14_q6_0_all" class="clusterblast-orf"  />
<polygon locus_tag="SSMG_03686" description="&lt;b&gt;SSMG_03686&lt;/b&gt;&lt;br&gt;predicted protein&lt;br&gt;Location: 4014997 - 4016458" points="129,40 150,40 155,35 150,30 129,30 129,40 " style="stroke-width:1; stroke:black; fill:white; " id="dummy-14_q7_0_all" class="clusterblast-orf"  />
<polygon locus_tag="SSMG_03687" description="&lt;b&gt;SSMG_03687&lt;/b&gt;&lt;br&gt;predicted protein&lt;br&gt;Location: 4016454 - 4017525" points="155,40 169,40 174,35 169,30 155,30 155,40 " style="stroke-width:1; stroke:black; fill:white; " id="dummy-14_q8_0_all" class="clusterblast-orf"  />
<polygon locus_tag="SSMG_03688" description="&lt;b&gt;SSMG_03688&lt;/b&gt;&lt;br&gt;predicted protein&lt;br&gt;Location: 4017546 - 4018155" points="174,40 180,40 185,35 180,30 174,30 174,40 " style="stroke-width:1; stroke:black; fill:white; " id="dummy-14_q9_0_all" class="clusterblast-orf"  />
<polygon locus_tag="SSMG_03689" description="&lt;b&gt;SSMG_03689&lt;/b&gt;&lt;br&gt;cytochrome P450 CYP105&lt;br&gt;Location: 4018196 - 4019411" points="186,35 191,30 207,30 207,40 191,40 186,35 " style="stroke-width:1; stroke:black; fill:#b115d8; " id="dummy-14_q10_0_all" class="clusterblast-orf"  />
<polygon locus_tag="SSMG_03690" description="&lt;b&gt;SSMG_03690&lt;/b&gt;&lt;br&gt;conserved hypothetical protein&lt;br&gt;Location: 4019493 - 4022595" points="209,35 214,30 264,30 264,40 214,40 209,35 " style="stroke-width:1; stroke:black; fill:white; " id="dummy-14_q11_0_all" class="clusterblast-orf"  />
<polygon locus_tag="SSMG_03691" description="&lt;b&gt;SSMG_03691&lt;/b&gt;&lt;br&gt;predicted protein&lt;br&gt;Location: 4022591 - 4023416" points="264,35 269,30 279,30 279,40 269,40 264,35 " style="stroke-width:1; stroke:black; fill:white; " id="dummy-14_q12_0_all" class="clusterblast-orf"  />
<polygon locus_tag="SSMG_03692" description="&lt;b&gt;SSMG_03692&lt;/b&gt;&lt;br&gt;phospholipase C, phosphocholine-specific&lt;br&gt;Location: 4023536 - 4025570" points="281,35 286,30 317,30 317,40 286,40 281,35 " style="stroke-width:1; stroke:black; fill:white; " id="dummy-14_q13_0_all" class="clusterblast-orf"  />
<polygon locus_tag="SSMG_03693" description="&lt;b&gt;SSMG_03693&lt;/b&gt;&lt;br&gt;phospholipase C&lt;br&gt;Location: 4025622 - 4027221" points="318,35 323,30 347,30 347,40 323,40 318,35 " style="stroke-width:1; stroke:black; fill:white; " id="dummy-14_q14_0_all" class="clusterblast-orf"  />
<polygon locus_tag="SSMG_03694" description="&lt;b&gt;SSMG_03694&lt;/b&gt;&lt;br&gt;predicted protein&lt;br&gt;Location: 4027528 - 4031518" points="352,35 357,30 423,30 423,40 357,40 352,35 " style="stroke-width:1; stroke:black; fill:white; " id="dummy-14_q15_0_all" class="clusterblast-orf"  />
<polygon locus_tag="SSMG_03695" description="&lt;b&gt;SSMG_03695&lt;/b&gt;&lt;br&gt;sodium/calcium exchanger membrane region&lt;br&gt;Location: 4032435 - 4033482" points="440,40 453,40 458,35 453,30 440,30 440,40 " style="stroke-width:1; stroke:black; fill:white; " id="dummy-14_q16_0_all" class="clusterblast-orf"  />
<polygon locus_tag="SSMG_03696" description="&lt;b&gt;SSMG_03696&lt;/b&gt;&lt;br&gt;predicted protein&lt;br&gt;Location: 4033617 - 4034883" points="461,40 478,40 483,35 478,30 461,30 461,40 " style="stroke-width:1; stroke:black; fill:white; " id="dummy-14_q17_0_all" class="clusterblast-orf"  />
<polygon locus_tag="SSMG_03697" description="&lt;b&gt;SSMG_03697&lt;/b&gt;&lt;br&gt;predicted protein&lt;br&gt;Location: 4034913 - 4035825" points="484,35 489,30 500,30 500,40 489,40 484,35 " style="stroke-width:1; stroke:black; fill:white; " id="dummy-14_q18_0_all" class="clusterblast-orf"  />
<polygon locus_tag="SSMG_03698" description="&lt;b&gt;SSMG_03698&lt;/b&gt;&lt;br&gt;UDP-glucose 4-epimerase&lt;br&gt;Location: 4035802 - 4036783" points="500,35 505,30 517,30 517,40 505,40 500,35 " style="stroke-width:1; stroke:black; fill:white; " id="dummy-14_q19_0_all" class="clusterblast-orf"  />
<polygon locus_tag="SSMG_03699" description="&lt;b&gt;SSMG_03699&lt;/b&gt;&lt;br&gt;undecaprenyldiphospho-muramoylpentapeptide beta-N-acetylglucosaminyltransferase&lt;br&gt;Location: 4036779 - 4037943" points="517,35 522,30 538,30 538,40 522,40 517,35 " style="stroke-width:1; stroke:black; fill:white; " id="dummy-14_q20_0_all" class="clusterblast-orf"  />
<polygon locus_tag="SSMG_03700" description="&lt;b&gt;SSMG_03700&lt;/b&gt;&lt;br&gt;phosphate regulon transcriptional regulatory protein PhoB&lt;br&gt;Location: 4038029 - 4038722" points="539,40 547,40 552,35 547,30 539,30 539,40 " style="stroke-width:1; stroke:black; fill:#b1d815; " id="dummy-14_q21_0_all" class="clusterblast-orf"  />
<polygon locus_tag="SSMG_03701" description="&lt;b&gt;SSMG_03701&lt;/b&gt;&lt;br&gt;phosphate regulon sensor kinase PhoR&lt;br&gt;Location: 4038718 - 4040077" points="552,40 571,40 576,35 571,30 552,30 552,40 " style="stroke-width:1; stroke:black; fill:white; " id="dummy-14_q22_0_all" class="clusterblast-orf"  />
<polygon locus_tag="SSMG_03702" description="&lt;b&gt;SSMG_03702&lt;/b&gt;&lt;br&gt;conserved hypothetical protein&lt;br&gt;Location: 4040125 - 4041112" points="577,40 589,40 594,35 589,30 577,30 577,40 " style="stroke-width:1; stroke:black; fill:white; " id="dummy-14_q23_0_all" class="clusterblast-orf"  />
<polygon locus_tag="SSMG_03703" description="&lt;b&gt;SSMG_03703&lt;/b&gt;&lt;br&gt;predicted protein&lt;br&gt;Location: 4041120 - 4041924" points="594,35 599,30 609,30 609,40 599,40 594,35 " style="stroke-width:1; stroke:black; fill:white; " id="dummy-14_q24_0_all" class="clusterblast-orf"  />
<polygon locus_tag="SSMG_03704" description="&lt;b&gt;SSMG_03704&lt;/b&gt;&lt;br&gt;predicted protein&lt;br&gt;Location: 4041920 - 4043375" points="609,35 614,30 635,30 635,40 614,40 609,35 " style="stroke-width:1; stroke:black; fill:white; " id="dummy-14_q25_0_all" class="clusterblast-orf"  />
<polygon locus_tag="SSMG_03705" description="&lt;b&gt;SSMG_03705&lt;/b&gt;&lt;br&gt;histidinol dehydrogenase&lt;br&gt;Location: 4043452 - 4044769" points="636,35 641,30 659,30 659,40 641,40 636,35 " style="stroke-width:1; stroke:black; fill:white; " id="dummy-14_q26_0_all" class="clusterblast-orf"  />
<polygon locus_tag="SSMG_03706" description="&lt;b&gt;SSMG_03706&lt;/b&gt;&lt;br&gt;transcriptional regulator&lt;br&gt;Location: 4044916 - 4045867" points="662,35 667,30 679,30 679,40 667,40 662,35 " style="stroke-width:1; stroke:black; fill:white; " id="dummy-14_q27_0_all" class="clusterblast-orf"  />
<polygon locus_tag="SSMG_03707" description="&lt;b&gt;SSMG_03707&lt;/b&gt;&lt;br&gt;predicted protein&lt;br&gt;Location: 4045902 - 4046895" points="680,35 685,30 697,30 697,40 685,40 680,35 " style="stroke-width:1; stroke:black; fill:white; " id="dummy-14_q28_0_all" class="clusterblast-orf"  />
<polygon locus_tag="SSMG_03708" description="&lt;b&gt;SSMG_03708&lt;/b&gt;&lt;br&gt;predicted protein&lt;br&gt;Location: 4047117 - 4048455" points="701,40 720,40 725,35 720,30 701,30 701,40 " style="stroke-width:1; stroke:black; fill:white; " id="dummy-14_q29_0_all" class="clusterblast-orf"  />
<polygon locus_tag="SSMG_03709" description="&lt;b&gt;SSMG_03709&lt;/b&gt;&lt;br&gt;predicted protein&lt;br&gt;Location: 4048494 - 4049487" points="726,35 731,30 744,30 744,40 731,40 726,35 " style="stroke-width:1; stroke:black; fill:white; " id="dummy-14_q30_0_all" class="clusterblast-orf"  />
<polygon locus_tag="SSMG_03710" description="&lt;b&gt;SSMG_03710&lt;/b&gt;&lt;br&gt;predicted protein&lt;br&gt;Location: 4049668 - 4050796" points="747,40 762,40 767,35 762,30 747,30 747,40 " style="stroke-width:1; stroke:black; fill:white; " id="dummy-14_q31_0_all" class="clusterblast-orf"  />
<polygon locus_tag="SSMG_03711" description="&lt;b&gt;SSMG_03711&lt;/b&gt;&lt;br&gt;predicted protein&lt;br&gt;Location: 4050792 - 4051515" points="767,40 775,40 780,35 775,30 767,30 767,40 " style="stroke-width:1; stroke:black; fill:white; " id="dummy-14_q32_0_all" class="clusterblast-orf"  />
</g>
<g label="BGC0000274" description="BGC0000274_c1: tetarimycin A / tetarimycin B (5% of genes show similarity), Polyketide:Type II" class="clusterblast-cluster"  >
<text class="clusterblast-acc" y="70" x="5"  >
<a xlink:href="https://mibig.secondarymetabolites.org/go/BGC0000274/1" target="_blank">BGC0000274</a>:                                                    tetarimycin A / tetarimycin B (5% of genes show similarity), Polyketide:Type II</text>
<line x1="10" x2="778.0" y2="85" style="stroke-width:1; stroke:grey; " y1="85"  />
</g>
<g id="a14_000"  >
<polygon locus_tag="AFY23013.1" description="&lt;b&gt;AFY23013.1&lt;/b&gt;&lt;br&gt;transcriptional regulator&lt;br&gt;Location: 1 - 567" points="83,85 88,80 93,80 93,90 88,90 83,85 " style="stroke-width:1; stroke:black; fill:white; " id="dummy-14_h14_2_0" class="clusterblast-orf"  />
</g>
<g id="a14_001"  >
<polygon locus_tag="AFY23014.1" description="&lt;b&gt;AFY23014.1&lt;/b&gt;&lt;br&gt;hypothetical protein&lt;br&gt;Location: 603 - 1346" points="93,85 98,80 107,80 107,90 98,90 93,85 " style="stroke-width:1; stroke:black; fill:white; " id="dummy-14_h14_2_1" class="clusterblast-orf"  />
</g>
<g id="a14_002"  >
<polygon locus_tag="AFY23015.1" description="&lt;b&gt;AFY23015.1&lt;/b&gt;&lt;br&gt;hypothetical protein&lt;br&gt;Location: 1300 - 2109&lt;br&gt;&lt;br&gt;&lt;b&gt;BlastP hit with SSMG_03679&lt;/b&gt;&lt;br&gt;Percentage identity: 46&lt;br&gt;Percentage coverage: 87&lt;br&gt;BLAST bit score: 171&lt;br&gt;E-value: 1.4e-42" points="106,85 111,80 120,80 120,90 111,90 106,85 " style="stroke-width:1; stroke:black; fill:#d81515; " id="dummy-14_h14_2_2" class="clusterblast-orf"  />
</g>
<g id="a14_003"  >
<polygon locus_tag="AFY23016.1" description="&lt;b&gt;AFY23016.1&lt;/b&gt;&lt;br&gt;L-carnitine dehydratase&lt;br&gt;Location: 2184 - 3359" points="122,85 127,80 142,80 142,90 127,90 122,85 " style="stroke-width:1; stroke:black; fill:white; " id="dummy-14_h14_2_3" class="clusterblast-orf"  />
</g>
<g id="a14_004"  >
<polygon locus_tag="AFY23017.1" description="&lt;b&gt;AFY23017.1&lt;/b&gt;&lt;br&gt;isovaleryl-CoA dehydrogenase&lt;br&gt;Location: 3356 - 4507&lt;br&gt;&lt;br&gt;&lt;b&gt;BlastP hit with SSMG_03681&lt;/b&gt;&lt;br&gt;Percentage identity: 66&lt;br&gt;Percentage coverage: 99&lt;br&gt;BLAST bit score: 506&lt;br&gt;E-value: 3.3e-143" points="142,85 147,80 163,80 163,90 147,90 142,85 " style="stroke-width:1; stroke:black; fill:#15d863; " id="dummy-14_h14_2_4" class="clusterblast-orf"  />
</g>
<g id="a14_005"  >
<polygon locus_tag="AFY23018.1" description="&lt;b&gt;AFY23018.1&lt;/b&gt;&lt;br&gt;unknown&lt;br&gt;Location: 4780 - 5850" points="168,90 182,90 187,85 182,80 168,80 168,90 " style="stroke-width:1; stroke:black; fill:white; " id="dummy-14_h14_2_5" class="clusterblast-orf"  />
</g>
<g id="a14_006"  >
<polygon locus_tag="AFY23019.1" description="&lt;b&gt;AFY23019.1&lt;/b&gt;&lt;br&gt;cellulose-binding family protein&lt;br&gt;Location: 5862 - 6881" points="187,90 200,90 205,85 200,80 187,80 187,90 " style="stroke-width:1; stroke:black; fill:white; " id="dummy-14_h14_2_6" class="clusterblast-orf"  />
</g>
<g id="a14_007"  >
<polygon locus_tag="AFY23020.1" description="&lt;b&gt;AFY23020.1&lt;/b&gt;&lt;br&gt;betaine aldehyde dehydrogenase&lt;br&gt;Location: 6907 - 8376" points="206,85 211,80 232,80 232,90 211,90 206,85 " style="stroke-width:1; stroke:black; fill:white; " id="dummy-14_h14_2_7" class="clusterblast-orf"  />
</g>
<g id="a14_008"  >
<polygon locus_tag="AFY23021.1" description="&lt;b&gt;AFY23021.1&lt;/b&gt;&lt;br&gt;methyltransferase&lt;br&gt;Location: 8421 - 9137" points="233,85 238,80 245,80 245,90 238,90 233,85 " style="stroke-width:1; stroke:black; fill:white; " id="dummy-14_h14_2_8" class="clusterblast-orf"  />
</g>
<g id="a14_009"  >
<polygon locus_tag="AFY23022.1" description="&lt;b&gt;AFY23022.1&lt;/b&gt;&lt;br&gt;AraC family transcriptional regulator&lt;br&gt;Location: 9305 - 10219" points="248,90 260,90 265,85 260,80 248,80 248,90 " style="stroke-width:1; stroke:black; fill:white; " id="dummy-14_h14_2_9" class="clusterblast-orf"  />
</g>
<g id="a14_0010"  >
<polygon locus_tag="AFY23023.1" description="&lt;b&gt;AFY23023.1&lt;/b&gt;&lt;br&gt;hydrolase&lt;br&gt;Location: 10284 - 11435" points="266,90 281,90 286,85 281,80 266,80 266,90 " style="stroke-width:1; stroke:black; fill:white; " id="dummy-14_h14_2_10" class="clusterblast-orf"  />
</g>
<g id="a14_0011"  >
<polygon locus_tag="AFY23024.1" description="&lt;b&gt;AFY23024.1&lt;/b&gt;&lt;br&gt;short-chain dehydrogenase/reductase SDR&lt;br&gt;Location: 11770 - 12234" points="292,85 297,80 301,80 301,90 297,90 292,85 " style="stroke-width:1; stroke:black; fill:white; " id="dummy-14_h14_2_11" class="clusterblast-orf"  />
</g>
<g id="a14_0012"  >
<polygon locus_tag="AFY23025.1" description="&lt;b&gt;AFY23025.1&lt;/b&gt;&lt;br&gt;putative N-methyltransferase&lt;br&gt;Location: 12568 - 13569" points="307,85 312,80 324,80 324,90 312,90 307,85 " style="stroke-width:1; stroke:black; fill:white; " id="dummy-14_h14_2_12" class="clusterblast-orf"  />
</g>
<g id="a14_0013"  >
<polygon locus_tag="AFY23026.1" description="&lt;b&gt;AFY23026.1&lt;/b&gt;&lt;br&gt;putative phenazine biosynthesis protein EsmA1&lt;br&gt;Location: 13566 - 14051" points="324,85 329,80 333,80 333,90 329,90 324,85 " style="stroke-width:1; stroke:black; fill:white; " id="dummy-14_h14_2_13" class="clusterblast-orf"  />
</g>
<g id="a14_0014"  >
<polygon locus_tag="AFY23027.1" description="&lt;b&gt;AFY23027.1&lt;/b&gt;&lt;br&gt;putative phenazine biosynthesis protein EsmH1&lt;br&gt;Location: 14073 - 14384" points="333,85 338,80 339,80 339,90 338,90 333,85 " style="stroke-width:1; stroke:black; fill:white; " id="dummy-14_h14_2_14" class="clusterblast-orf"  />
</g>
<g id="a14_0015"  >
<polygon locus_tag="AFY23028.1" description="&lt;b&gt;AFY23028.1&lt;/b&gt;&lt;br&gt;phenazine biosynthesis protein PhzD&lt;br&gt;Location: 14406 - 15026" points="339,85 344,80 350,80 350,90 344,90 339,85 " style="stroke-width:1; stroke:black; fill:white; " id="dummy-14_h14_2_15" class="clusterblast-orf"  />
</g>
<g id="a14_0016"  >
<polygon locus_tag="AFY23029.1" description="&lt;b&gt;AFY23029.1&lt;/b&gt;&lt;br&gt;XRE family transcriptional regulator&lt;br&gt;Location: 15231 - 15437" points="354,85 358,80 358,90 354,85 " style="stroke-width:1; stroke:black; fill:white; " id="dummy-14_h14_2_16" class="clusterblast-orf"  />
</g>
<g id="a14_0017"  >
<polygon locus_tag="AFY23030.1" description="&lt;b&gt;AFY23030.1&lt;/b&gt;&lt;br&gt;hypothetical protein&lt;br&gt;Location: 15437 - 15916" points="358,85 363,80 366,80 366,90 363,90 358,85 " style="stroke-width:1; stroke:black; fill:white; " id="dummy-14_h14_2_17" class="clusterblast-orf"  />
</g>
<g id="a14_0018"  >
<polygon locus_tag="AFY23032.1" description="&lt;b&gt;AFY23032.1&lt;/b&gt;&lt;br&gt;TamA&lt;br&gt;Location: 16135 - 17955" points="370,90 398,90 403,85 398,80 370,80 370,90 " style="stroke-width:1; stroke:black; fill:white; " id="dummy-14_h14_2_18" class="clusterblast-orf"  />
</g>
<g id="a14_0019"  >
<polygon locus_tag="AFY23031.1" description="&lt;b&gt;AFY23031.1&lt;/b&gt;&lt;br&gt;30S ribosomal protein S1&lt;br&gt;Location: 17969 - 18181" points="403,85 407,80 407,90 403,85 " style="stroke-width:1; stroke:black; fill:white; " id="dummy-14_h14_2_19" class="clusterblast-orf"  />
</g>
<g id="a14_0020"  >
<polygon locus_tag="AFY23033.1" description="&lt;b&gt;AFY23033.1&lt;/b&gt;&lt;br&gt;TamB&lt;br&gt;Location: 18223 - 19086" points="407,85 412,80 423,80 423,90 412,90 407,85 " style="stroke-width:1; stroke:black; fill:white; " id="dummy-14_h14_2_20" class="clusterblast-orf"  />
</g>
<g id="a14_0021"  >
<polygon locus_tag="AFY23034.1" description="&lt;b&gt;AFY23034.1&lt;/b&gt;&lt;br&gt;TamC&lt;br&gt;Location: 19086 - 20123" points="423,85 428,80 441,80 441,90 428,90 423,85 " style="stroke-width:1; stroke:black; fill:white; " id="dummy-14_h14_2_21" class="clusterblast-orf"  />
</g>
<g id="a14_0022"  >
<polygon locus_tag="AFY23035.1" description="&lt;b&gt;AFY23035.1&lt;/b&gt;&lt;br&gt;TamD&lt;br&gt;Location: 20209 - 20778" points="443,90 448,90 453,85 448,80 443,80 443,90 " style="stroke-width:1; stroke:black; fill:white; " id="dummy-14_h14_2_22" class="clusterblast-orf"  />
</g>
<g id="a14_0023"  >
<polygon locus_tag="AFY23036.1" description="&lt;b&gt;AFY23036.1&lt;/b&gt;&lt;br&gt;TamE&lt;br&gt;Location: 20859 - 21479" points="454,85 459,80 466,80 466,90 459,90 454,85 " style="stroke-width:1; stroke:black; fill:white; " id="dummy-14_h14_2_23" class="clusterblast-orf"  />
</g>
<g id="a14_0024"  >
<polygon locus_tag="AFY23037.1" description="&lt;b&gt;AFY23037.1&lt;/b&gt;&lt;br&gt;TamF&lt;br&gt;Location: 21503 - 22918" points="466,85 471,80 491,80 491,90 471,90 466,85 " style="stroke-width:1; stroke:black; fill:white; " id="dummy-14_h14_2_24" class="clusterblast-orf"  />
</g>
<g id="a14_0025"  >
<polygon locus_tag="AFY23038.1" description="&lt;b&gt;AFY23038.1&lt;/b&gt;&lt;br&gt;TamG&lt;br&gt;Location: 23088 - 23522" points="494,85 499,80 502,80 502,90 499,90 494,85 " style="stroke-width:1; stroke:black; fill:white; " id="dummy-14_h14_2_25" class="clusterblast-orf"  />
</g>
<g id="a14_0026"  >
<polygon locus_tag="AFY23039.1" description="&lt;b&gt;AFY23039.1&lt;/b&gt;&lt;br&gt;TamH&lt;br&gt;Location: 23564 - 24388" points="503,85 508,80 517,80 517,90 508,90 503,85 " style="stroke-width:1; stroke:black; fill:white; " id="dummy-14_h14_2_26" class="clusterblast-orf"  />
</g>
<g id="a14_0027"  >
<polygon locus_tag="AFY23040.1" description="&lt;b&gt;AFY23040.1&lt;/b&gt;&lt;br&gt;TamI&lt;br&gt;Location: 24437 - 26308" points="518,90 547,90 552,85 547,80 518,80 518,90 " style="stroke-width:1; stroke:black; fill:white; " id="dummy-14_h14_2_27" class="clusterblast-orf"  />
</g>
<g id="a14_0028"  >
<polygon locus_tag="AFY23041.1" description="&lt;b&gt;AFY23041.1&lt;/b&gt;&lt;br&gt;TamJ&lt;br&gt;Location: 26357 - 26794" points="552,85 557,80 560,80 560,90 557,90 552,85 " style="stroke-width:1; stroke:black; fill:white; " id="dummy-14_h14_2_28" class="clusterblast-orf"  />
</g>
<g id="a14_0029"  >
<polygon locus_tag="AFY23042.1" description="&lt;b&gt;AFY23042.1&lt;/b&gt;&lt;br&gt;TamK&lt;br&gt;Location: 26791 - 27024" points="560,85 564,80 564,90 560,85 " style="stroke-width:1; stroke:black; fill:white; " id="dummy-14_h14_2_29" class="clusterblast-orf"  />
</g>
<g id="a14_0030"  >
<polygon locus_tag="AFY23043.1" description="&lt;b&gt;AFY23043.1&lt;/b&gt;&lt;br&gt;TamL&lt;br&gt;Location: 27021 - 28247" points="564,85 569,80 586,80 586,90 569,90 564,85 " style="stroke-width:1; stroke:black; fill:white; " id="dummy-14_h14_2_30" class="clusterblast-orf"  />
</g>
<g id="a14_0031"  >
<polygon locus_tag="AFY23044.1" description="&lt;b&gt;AFY23044.1&lt;/b&gt;&lt;br&gt;TamM&lt;br&gt;Location: 28247 - 29503" points="586,85 591,80 609,80 609,90 591,90 586,85 " style="stroke-width:1; stroke:black; fill:white; " id="dummy-14_h14_2_31" class="clusterblast-orf"  />
</g>
<g id="a14_0032"  >
<polygon locus_tag="AFY23045.1" description="&lt;b&gt;AFY23045.1&lt;/b&gt;&lt;br&gt;TamN&lt;br&gt;Location: 29516 - 30274" points="609,85 614,80 622,80 622,90 614,90 609,85 " style="stroke-width:1; stroke:black; fill:white; " id="dummy-14_h14_2_32" class="clusterblast-orf"  />
</g>
<g id="a14_0033"  >
<polygon locus_tag="AFY23046.1" description="&lt;b&gt;AFY23046.1&lt;/b&gt;&lt;br&gt;TamO&lt;br&gt;Location: 30258 - 31313" points="622,85 627,80 641,80 641,90 627,90 622,85 " style="stroke-width:1; stroke:black; fill:white; " id="dummy-14_h14_2_33" class="clusterblast-orf"  />
</g>
<g id="a14_0034"  >
<polygon locus_tag="AFY23047.1" description="&lt;b&gt;AFY23047.1&lt;/b&gt;&lt;br&gt;TamP&lt;br&gt;Location: 31360 - 34431" points="642,85 647,80 696,80 696,90 647,90 642,85 " style="stroke-width:1; stroke:black; fill:white; " id="dummy-14_h14_2_34" class="clusterblast-orf"  />
</g>
</svg>
