<svg version="1.1" xmlns="http://www.w3.org/2000/svg" height="230" width="800" xmlns:xlink="http://www.w3.org/1999/xlink" preserveAspectRatio="none" x="0" y="0" viewBox="0 0 800 230"  >
<g label="Query sequence" class="clusterblast-cluster"  >
<text class="clusterblast-acc" y="20" x="5"  >
Query sequence</text>
<line x1="10" x2="778.0" y2="35" style="stroke-width:1; stroke:grey; " y1="35"  />
<polygon locus_tag="SSMG_05904" description="&lt;b&gt;SSMG_05904&lt;/b&gt;&lt;br&gt;predicted protein&lt;br&gt;Location: 6494403 - 6494646" points="0,35 1,30 1,40 0,35 " style="stroke-width:1; stroke:black; fill:white; " id="dummy-22_q0_0_all" class="clusterblast-orf"  />
<polygon locus_tag="SSMG_05905" description="&lt;b&gt;SSMG_05905&lt;/b&gt;&lt;br&gt;monooxygenase&lt;br&gt;Location: 6494758 - 6495877" points="2,35 7,30 10,30 10,40 7,40 2,35 " style="stroke-width:1; stroke:black; fill:white; " id="dummy-22_q1_0_all" class="clusterblast-orf"  />
<polygon locus_tag="SSMG_05906" description="&lt;b&gt;SSMG_05906&lt;/b&gt;&lt;br&gt;ATPase&lt;br&gt;Location: 6497554 - 6501253" points="23,35 28,30 50,30 50,40 28,40 23,35 " style="stroke-width:1; stroke:black; fill:white; " id="dummy-22_q2_0_all" class="clusterblast-orf"  />
<polygon locus_tag="SSMG_05907" description="&lt;b&gt;SSMG_05907&lt;/b&gt;&lt;br&gt;predicted protein&lt;br&gt;Location: 6501367 - 6502021" points="50,40 50,40 55,35 50,30 50,30 50,40 " style="stroke-width:1; stroke:black; fill:white; " id="dummy-22_q3_0_all" class="clusterblast-orf"  />
<polygon locus_tag="SSMG_05908" description="&lt;b&gt;SSMG_05908&lt;/b&gt;&lt;br&gt;sigma-70 region 2 domain-containing protein&lt;br&gt;Location: 6502030 - 6503281" points="55,35 60,30 64,30 64,40 60,40 55,35 " style="stroke-width:1; stroke:black; fill:white; " id="dummy-22_q4_0_all" class="clusterblast-orf"  />
<polygon locus_tag="SSMG_05909" description="&lt;b&gt;SSMG_05909&lt;/b&gt;&lt;br&gt;dgpfaetke family protein&lt;br&gt;Location: 6503244 - 6503568" points="64,35 66,30 66,40 64,35 " style="stroke-width:1; stroke:black; fill:white; " id="dummy-22_q5_0_all" class="clusterblast-orf"  />
<polygon locus_tag="SSMG_05910" description="&lt;b&gt;SSMG_05910&lt;/b&gt;&lt;br&gt;riboflavin biosynthesis protein RibD domain-containing protein&lt;br&gt;Location: 6503592 - 6504213" points="67,35 71,30 71,40 67,35 " style="stroke-width:1; stroke:black; fill:white; " id="dummy-22_q6_0_all" class="clusterblast-orf"  />
<polygon locus_tag="SSMG_05911" description="&lt;b&gt;SSMG_05911&lt;/b&gt;&lt;br&gt;conserved hypothetical protein&lt;br&gt;Location: 6504333 - 6505188" points="72,35 77,30 78,30 78,40 77,40 72,35 " style="stroke-width:1; stroke:black; fill:white; " id="dummy-22_q7_0_all" class="clusterblast-orf"  />
<polygon locus_tag="SSMG_05912" description="&lt;b&gt;SSMG_05912&lt;/b&gt;&lt;br&gt;ribonuclease Z&lt;br&gt;Location: 6505189 - 6506098" points="78,35 83,30 85,30 85,40 83,40 78,35 " style="stroke-width:1; stroke:black; fill:white; " id="dummy-22_q8_0_all" class="clusterblast-orf"  />
<polygon locus_tag="SSMG_05913" description="&lt;b&gt;SSMG_05913&lt;/b&gt;&lt;br&gt;predicted protein&lt;br&gt;Location: 6506223 - 6507189" points="86,35 91,30 93,30 93,40 91,40 86,35 " style="stroke-width:1; stroke:black; fill:white; " id="dummy-22_q9_0_all" class="clusterblast-orf"  />
<polygon locus_tag="SSMG_05914" description="&lt;b&gt;SSMG_05914&lt;/b&gt;&lt;br&gt;predicted protein&lt;br&gt;Location: 6507197 - 6508166" points="93,35 98,30 100,30 100,40 98,40 93,35 " style="stroke-width:1; stroke:black; fill:white; " id="dummy-22_q10_0_all" class="clusterblast-orf"  />
<polygon locus_tag="SSMG_05915" description="&lt;b&gt;SSMG_05915&lt;/b&gt;&lt;br&gt;butyrolactone receptor&lt;br&gt;Location: 6508346 - 6508979" points="101,40 101,40 106,35 101,30 101,30 101,40 " style="stroke-width:1; stroke:black; fill:white; " id="dummy-22_q11_0_all" class="clusterblast-orf"  />
<polygon locus_tag="SSMG_05916" description="&lt;b&gt;SSMG_05916&lt;/b&gt;&lt;br&gt;predicted protein&lt;br&gt;Location: 6509405 - 6510080" points="109,35 114,30 114,30 114,40 114,40 109,35 " style="stroke-width:1; stroke:black; fill:white; " id="dummy-22_q12_0_all" class="clusterblast-orf"  />
<polygon locus_tag="SSMG_05917" description="&lt;b&gt;SSMG_05917&lt;/b&gt;&lt;br&gt;predicted protein&lt;br&gt;Location: 6510293 - 6511061" points="115,40 116,40 121,35 116,30 115,30 115,40 " style="stroke-width:1; stroke:black; fill:white; " id="dummy-22_q13_0_all" class="clusterblast-orf"  />
<polygon locus_tag="SSMG_05918" description="&lt;b&gt;SSMG_05918&lt;/b&gt;&lt;br&gt;predicted protein&lt;br&gt;Location: 6511551 - 6512124" points="125,35 129,30 129,40 125,35 " style="stroke-width:1; stroke:black; fill:white; " id="dummy-22_q14_0_all" class="clusterblast-orf"  />
<polygon locus_tag="SSMG_05919" description="&lt;b&gt;SSMG_05919&lt;/b&gt;&lt;br&gt;predicted protein&lt;br&gt;Location: 6512270 - 6513098" points="130,35 135,30 136,30 136,40 135,40 130,35 " style="stroke-width:1; stroke:black; fill:#d81515; " id="dummy-22_q15_0_all" class="clusterblast-orf"  />
<polygon locus_tag="SSMG_05920" description="&lt;b&gt;SSMG_05920&lt;/b&gt;&lt;br&gt;nodulation ABC transporter NodI&lt;br&gt;Location: 6513097 - 6514048" points="136,35 141,30 143,30 143,40 141,40 136,35 " style="stroke-width:1; stroke:black; fill:#6ad815; " id="dummy-22_q16_0_all" class="clusterblast-orf"  />
<polygon locus_tag="SSMG_05921" description="&lt;b&gt;SSMG_05921&lt;/b&gt;&lt;br&gt;polyketide synthase type I&lt;br&gt;Location: 6514125 - 6524589" points="143,35 148,30 220,30 220,40 148,40 143,35 " style="stroke-width:1; stroke:black; fill:#15bfd8; " id="dummy-22_q17_0_all" class="clusterblast-orf"  />
<polygon locus_tag="SSMG_05922" description="&lt;b&gt;SSMG_05922&lt;/b&gt;&lt;br&gt;acyl transferase domain-containing protein&lt;br&gt;Location: 6524595 - 6529314" points="220,35 225,30 254,30 254,40 225,40 220,35 " style="stroke-width:1; stroke:black; fill:#15bfd8; " id="dummy-22_q18_0_all" class="clusterblast-orf"  />
<polygon locus_tag="SSMG_05923" description="&lt;b&gt;SSMG_05923&lt;/b&gt;&lt;br&gt;polyketide synthase type I&lt;br&gt;Location: 6529325 - 6534461" points="254,35 259,30 292,30 292,40 259,40 254,35 " style="stroke-width:1; stroke:black; fill:#15bfd8; " id="dummy-22_q19_0_all" class="clusterblast-orf"  />
<polygon locus_tag="SSMG_05924" description="&lt;b&gt;SSMG_05924&lt;/b&gt;&lt;br&gt;predicted protein&lt;br&gt;Location: 6534559 - 6535441" points="292,35 297,30 299,30 299,40 297,40 292,35 " style="stroke-width:1; stroke:black; fill:#9d15d8; " id="dummy-22_q20_0_all" class="clusterblast-orf"  />
<polygon locus_tag="SSMG_05925" description="&lt;b&gt;SSMG_05925&lt;/b&gt;&lt;br&gt;predicted protein&lt;br&gt;Location: 6535532 - 6538088" points="299,35 304,30 318,30 318,40 304,40 299,35 " style="stroke-width:1; stroke:black; fill:white; " id="dummy-22_q21_0_all" class="clusterblast-orf"  />
<polygon locus_tag="SSMG_05926" description="&lt;b&gt;SSMG_05926&lt;/b&gt;&lt;br&gt;lipoprotein releasing system, ATP-binding protein&lt;br&gt;Location: 6538084 - 6538930" points="318,35 323,30 324,30 324,40 323,40 318,35 " style="stroke-width:1; stroke:black; fill:#d84815; " id="dummy-22_q22_0_all" class="clusterblast-orf"  />
<polygon locus_tag="SSMG_05927" description="&lt;b&gt;SSMG_05927&lt;/b&gt;&lt;br&gt;hypothetical protein&lt;br&gt;Location: 6539188 - 6539740" points="326,35 330,30 330,40 326,35 " style="stroke-width:1; stroke:black; fill:#37d815; " id="dummy-22_q23_0_all" class="clusterblast-orf"  />
<polygon locus_tag="SSMG_05928" description="&lt;b&gt;SSMG_05928&lt;/b&gt;&lt;br&gt;hypothetical protein&lt;br&gt;Location: 6539678 - 6540389" points="330,40 330,40 335,35 330,30 330,30 330,40 " style="stroke-width:1; stroke:black; fill:white; " id="dummy-22_q24_0_all" class="clusterblast-orf"  />
<polygon locus_tag="SSMG_05929" description="&lt;b&gt;SSMG_05929&lt;/b&gt;&lt;br&gt;predicted protein&lt;br&gt;Location: 6540909 - 6550362" points="339,35 344,30 408,30 408,40 344,40 339,35 " style="stroke-width:1; stroke:black; fill:#15bfd8; " id="dummy-22_q25_0_all" class="clusterblast-orf"  />
<polygon locus_tag="SSMG_05930" description="&lt;b&gt;SSMG_05930&lt;/b&gt;&lt;br&gt;predicted protein&lt;br&gt;Location: 6550532 - 6551294" points="409,40 409,40 414,35 409,30 409,30 409,40 " style="stroke-width:1; stroke:black; fill:#158cd8; " id="dummy-22_q26_0_all" class="clusterblast-orf"  />
<polygon locus_tag="SSMG_05931" description="&lt;b&gt;SSMG_05931&lt;/b&gt;&lt;br&gt;UDP-glucose/GDP-mannose dehydrogenase&lt;br&gt;Location: 6551358 - 6552651" points="415,40 419,40 424,35 419,30 415,30 415,40 " style="stroke-width:1; stroke:black; fill:#d015d8; " id="dummy-22_q27_0_all" class="clusterblast-orf"  />
<polygon locus_tag="SSMG_05932" description="&lt;b&gt;SSMG_05932&lt;/b&gt;&lt;br&gt;NAD-dependent epimerase/dehydratase&lt;br&gt;Location: 6552702 - 6553677" points="425,40 427,40 432,35 427,30 425,30 425,40 " style="stroke-width:1; stroke:black; fill:#d87b15; " id="dummy-22_q28_0_all" class="clusterblast-orf"  />
<polygon locus_tag="SSMG_05933" description="&lt;b&gt;SSMG_05933&lt;/b&gt;&lt;br&gt;hypothetical protein&lt;br&gt;Location: 6553888 - 6556477" points="433,35 438,30 452,30 452,40 438,40 433,35 " style="stroke-width:1; stroke:black; fill:white; " id="dummy-22_q29_0_all" class="clusterblast-orf"  />
<polygon locus_tag="SSMG_05934" description="&lt;b&gt;SSMG_05934&lt;/b&gt;&lt;br&gt;predicted protein&lt;br&gt;Location: 6556689 - 6558081" points="454,40 459,40 464,35 459,30 454,30 454,40 " style="stroke-width:1; stroke:black; fill:white; " id="dummy-22_q30_0_all" class="clusterblast-orf"  />
<polygon locus_tag="SSMG_05935" description="&lt;b&gt;SSMG_05935&lt;/b&gt;&lt;br&gt;thioesterase&lt;br&gt;Location: 6558131 - 6558914" points="464,40 465,40 470,35 465,30 464,30 464,40 " style="stroke-width:1; stroke:black; fill:#15d826; " id="dummy-22_q31_0_all" class="clusterblast-orf"  />
<polygon locus_tag="SSMG_05936" description="&lt;b&gt;SSMG_05936&lt;/b&gt;&lt;br&gt;predicted protein&lt;br&gt;Location: 6558953 - 6559295" points="470,40 473,35 470,30 470,40 " style="stroke-width:1; stroke:black; fill:#1559d8; " id="dummy-22_q32_0_all" class="clusterblast-orf"  />
<polygon locus_tag="SSMG_05937" description="&lt;b&gt;SSMG_05937&lt;/b&gt;&lt;br&gt;predicted protein&lt;br&gt;Location: 6559696 - 6560167" points="476,35 479,30 479,40 476,35 " style="stroke-width:1; stroke:black; fill:white; " id="dummy-22_q33_0_all" class="clusterblast-orf"  />
<polygon locus_tag="SSMG_05938" description="&lt;b&gt;SSMG_05938&lt;/b&gt;&lt;br&gt;PKS module 4&lt;br&gt;Location: 6560592 - 6565977" points="482,35 487,30 521,30 521,40 487,40 482,35 " style="stroke-width:1; stroke:black; fill:#15bfd8; " id="dummy-22_q34_0_all" class="clusterblast-orf"  />
<polygon locus_tag="SSMG_05939" description="&lt;b&gt;SSMG_05939&lt;/b&gt;&lt;br&gt;modular polyketide synthase&lt;br&gt;Location: 6565973 - 6581756" points="521,35 526,30 636,30 636,40 526,40 521,35 " style="stroke-width:1; stroke:black; fill:#15bfd8; " id="dummy-22_q35_0_all" class="clusterblast-orf"  />
<polygon locus_tag="SSMG_05940" description="&lt;b&gt;SSMG_05940&lt;/b&gt;&lt;br&gt;cytochrome P450&lt;br&gt;Location: 6581852 - 6583049" points="637,35 642,30 646,30 646,40 642,40 637,35 " style="stroke-width:1; stroke:black; fill:#d815ae; " id="dummy-22_q36_0_all" class="clusterblast-orf"  />
<polygon locus_tag="SSMG_05941" description="&lt;b&gt;SSMG_05941&lt;/b&gt;&lt;br&gt;glutamate mutase subunit B&lt;br&gt;Location: 6583045 - 6584314" points="646,35 651,30 655,30 655,40 651,40 646,35 " style="stroke-width:1; stroke:black; fill:#d8ae15; " id="dummy-22_q37_0_all" class="clusterblast-orf"  />
<polygon locus_tag="SSMG_05942" description="&lt;b&gt;SSMG_05942&lt;/b&gt;&lt;br&gt;glutamate mutase S-chain&lt;br&gt;Location: 6584310 - 6584787" points="655,35 658,30 658,40 655,35 " style="stroke-width:1; stroke:black; fill:#15d859; " id="dummy-22_q38_0_all" class="clusterblast-orf"  />
<polygon locus_tag="SSMG_05943" description="&lt;b&gt;SSMG_05943&lt;/b&gt;&lt;br&gt;diaminopimelate decarboxylase&lt;br&gt;Location: 6584783 - 6585998" points="658,35 663,30 667,30 667,40 663,40 658,35 " style="stroke-width:1; stroke:black; fill:#1526d8; " id="dummy-22_q39_0_all" class="clusterblast-orf"  />
<polygon locus_tag="SSMG_05944" description="&lt;b&gt;SSMG_05944&lt;/b&gt;&lt;br&gt;O-succinylbenzoate-CoA ligase&lt;br&gt;Location: 6585994 - 6587455" points="667,35 672,30 678,30 678,40 672,40 667,35 " style="stroke-width:1; stroke:black; fill:#d8157b; " id="dummy-22_q40_0_all" class="clusterblast-orf"  />
<polygon locus_tag="SSMG_05945" description="&lt;b&gt;SSMG_05945&lt;/b&gt;&lt;br&gt;AMP-dependent synthetase and ligase&lt;br&gt;Location: 6587651 - 6589199" points="679,35 684,30 691,30 691,40 684,40 679,35 " style="stroke-width:1; stroke:black; fill:#d0d815; " id="dummy-22_q41_0_all" class="clusterblast-orf"  />
<polygon locus_tag="SSMG_05946" description="&lt;b&gt;SSMG_05946&lt;/b&gt;&lt;br&gt;predicted protein&lt;br&gt;Location: 6589274 - 6589628" points="691,40 694,35 691,30 691,40 " style="stroke-width:1; stroke:black; fill:#15d88c; " id="dummy-22_q42_0_all" class="clusterblast-orf"  />
<polygon locus_tag="SSMG_05947" description="&lt;b&gt;SSMG_05947&lt;/b&gt;&lt;br&gt;malonyl-CoA-[acyl-carrier-protein] transacylase&lt;br&gt;Location: 6589620 - 6590580" points="694,35 699,30 701,30 701,40 699,40 694,35 " style="stroke-width:1; stroke:black; fill:#3715d8; " id="dummy-22_q43_0_all" class="clusterblast-orf"  />
<polygon locus_tag="SSMG_05948" description="&lt;b&gt;SSMG_05948&lt;/b&gt;&lt;br&gt;proline-specific peptidase&lt;br&gt;Location: 6590572 - 6591505" points="701,35 706,30 707,30 707,40 706,40 701,35 " style="stroke-width:1; stroke:black; fill:#d81548; " id="dummy-22_q44_0_all" class="clusterblast-orf"  />
<polygon locus_tag="SSMG_05949" description="&lt;b&gt;SSMG_05949&lt;/b&gt;&lt;br&gt;predicted protein&lt;br&gt;Location: 6591738 - 6593001" points="709,40 713,40 718,35 713,30 709,30 709,40 " style="stroke-width:1; stroke:black; fill:#9dd815; " id="dummy-22_q45_0_all" class="clusterblast-orf"  />
<polygon locus_tag="SSMG_05950" description="&lt;b&gt;SSMG_05950&lt;/b&gt;&lt;br&gt;predicted protein&lt;br&gt;Location: 6592910 - 6594107" points="718,40 721,40 726,35 721,30 718,30 718,40 " style="stroke-width:1; stroke:black; fill:#15d8bf; " id="dummy-22_q46_0_all" class="clusterblast-orf"  />
<polygon locus_tag="SSMG_05951" description="&lt;b&gt;SSMG_05951&lt;/b&gt;&lt;br&gt;two component transcriptional regulator&lt;br&gt;Location: 6594130 - 6594784" points="727,40 731,35 727,30 727,40 " style="stroke-width:1; stroke:black; fill:#6a15d8; " id="dummy-22_q47_0_all" class="clusterblast-orf"  />
<polygon locus_tag="SSMG_05952" description="&lt;b&gt;SSMG_05952&lt;/b&gt;&lt;br&gt;predicted protein&lt;br&gt;Location: 6595236 - 6595497" points="735,35 737,30 737,40 735,35 " style="stroke-width:1; stroke:black; fill:white; " id="dummy-22_q48_0_all" class="clusterblast-orf"  />
<polygon locus_tag="SSMG_05953" description="&lt;b&gt;SSMG_05953&lt;/b&gt;&lt;br&gt;acetyl-CoA carboxylase complex&lt;br&gt;Location: 6596157 - 6597732" points="741,35 746,30 753,30 753,40 746,40 741,35 " style="stroke-width:1; stroke:black; fill:white; " id="dummy-22_q49_0_all" class="clusterblast-orf"  />
<polygon locus_tag="SSMG_05954" description="&lt;b&gt;SSMG_05954&lt;/b&gt;&lt;br&gt;thioesterase&lt;br&gt;Location: 6597718 - 6598489" points="753,35 758,30 758,30 758,40 758,40 753,35 " style="stroke-width:1; stroke:black; fill:#15d826; " id="dummy-22_q50_0_all" class="clusterblast-orf"  />
<polygon locus_tag="SSMG_05955" description="&lt;b&gt;SSMG_05955&lt;/b&gt;&lt;br&gt;predicted protein&lt;br&gt;Location: 6598699 - 6598879" points="760,40 761,35 760,30 760,40 " style="stroke-width:1; stroke:black; fill:white; " id="dummy-22_q51_0_all" class="clusterblast-orf"  />
<polygon locus_tag="SSMG_05956" description="&lt;b&gt;SSMG_05956&lt;/b&gt;&lt;br&gt;acetyltransferase&lt;br&gt;Location: 6598857 - 6599643" points="761,35 766,30 767,30 767,40 766,40 761,35 " style="stroke-width:1; stroke:black; fill:white; " id="dummy-22_q52_0_all" class="clusterblast-orf"  />
<polygon locus_tag="SSMG_05957" description="&lt;b&gt;SSMG_05957&lt;/b&gt;&lt;br&gt;conserved hypothetical protein&lt;br&gt;Location: 6599693 - 6600416" points="767,40 767,40 772,35 767,30 767,30 767,40 " style="stroke-width:1; stroke:black; fill:white; " id="dummy-22_q53_0_all" class="clusterblast-orf"  />
<polygon locus_tag="SSMG_05958" description="&lt;b&gt;SSMG_05958&lt;/b&gt;&lt;br&gt;predicted protein&lt;br&gt;Location: 6600437 - 6600926" points="773,40 776,35 773,30 773,40 " style="stroke-width:1; stroke:black; fill:white; " id="dummy-22_q54_0_all" class="clusterblast-orf"  />
<polygon locus_tag="SSMG_05959" description="&lt;b&gt;SSMG_05959&lt;/b&gt;&lt;br&gt;transcriptional regulator&lt;br&gt;Location: 6600933 - 6601395" points="776,35 780,30 780,40 776,35 " style="stroke-width:1; stroke:black; fill:white; " id="dummy-22_q55_0_all" class="clusterblast-orf"  />
</g>
<g label="BGC0001046" description="BGC0001046_c1: streptolydigin (13% of genes show similarity), NRP + Polyketide:Modular type I + Saccharide:Hybrid/tailoring" class="clusterblast-cluster"  >
<text class="clusterblast-acc" y="70" x="5"  >
<a xlink:href="https://mibig.secondarymetabolites.org/go/BGC0001046/1" target="_blank">BGC0001046</a>:                                                                   streptolydigin (13% of genes show similarity), NRP + Polyketide:Modular type I + Saccharide:Hybrid/tailoring</text>
<line x1="10" x2="778.0" y2="85" style="stroke-width:1; stroke:grey; " y1="85"  />
</g>
<g id="a22_000"  >
<polygon locus_tag="CBA11554.1" description="&lt;b&gt;CBA11554.1&lt;/b&gt;&lt;br&gt;putative glycerophosphoryl diester phosphodiesterase&lt;br&gt;Location: 1 - 438" points="95,90 98,85 95,80 95,90 " style="stroke-width:1; stroke:black; fill:white; " id="dummy-22_h22_8_0" class="clusterblast-orf"  />
</g>
<g id="a22_001"  >
<polygon locus_tag="CBA11555.1" description="&lt;b&gt;CBA11555.1&lt;/b&gt;&lt;br&gt;hypothetical protein&lt;br&gt;Location: 808 - 1194" points="101,90 103,85 101,80 101,90 " style="stroke-width:1; stroke:black; fill:white; " id="dummy-22_h22_8_1" class="clusterblast-orf"  />
</g>
<g id="a22_002"  >
<polygon locus_tag="CBA11556.1" description="&lt;b&gt;CBA11556.1&lt;/b&gt;&lt;br&gt;LuxR-family transcriptional regulator&lt;br&gt;Location: 1429 - 4260" points="105,90 121,90 126,85 121,80 105,80 105,90 " style="stroke-width:1; stroke:black; fill:white; " id="dummy-22_h22_8_2" class="clusterblast-orf"  />
</g>
<g id="a22_003"  >
<polygon locus_tag="CBA11557.1" description="&lt;b&gt;CBA11557.1&lt;/b&gt;&lt;br&gt;non-ribosomal peptide synthetase&lt;br&gt;Location: 4318 - 6441" points="126,85 131,80 142,80 142,90 131,90 126,85 " style="stroke-width:1; stroke:black; fill:white; " id="dummy-22_h22_8_3" class="clusterblast-orf"  />
</g>
<g id="a22_004"  >
<polygon locus_tag="CBA11558.1" description="&lt;b&gt;CBA11558.1&lt;/b&gt;&lt;br&gt;hypothetical protein&lt;br&gt;Location: 6495 - 7337" points="142,85 147,80 148,80 148,90 147,90 142,85 " style="stroke-width:1; stroke:black; fill:white; " id="dummy-22_h22_8_4" class="clusterblast-orf"  />
</g>
<g id="a22_005"  >
<polygon locus_tag="CBA11559.1" description="&lt;b&gt;CBA11559.1&lt;/b&gt;&lt;br&gt;methyltransferase&lt;br&gt;Location: 7392 - 8672" points="149,85 154,80 158,80 158,90 154,90 149,85 " style="stroke-width:1; stroke:black; fill:white; " id="dummy-22_h22_8_5" class="clusterblast-orf"  />
</g>
<g id="a22_006"  >
<polygon locus_tag="CBA11560.1" description="&lt;b&gt;CBA11560.1&lt;/b&gt;&lt;br&gt;NDP-hexose-3,5-epimerase&lt;br&gt;Location: 8767 - 9423" points="159,85 163,80 163,90 159,85 " style="stroke-width:1; stroke:black; fill:white; " id="dummy-22_h22_8_6" class="clusterblast-orf"  />
</g>
<g id="a22_007"  >
<polygon locus_tag="CBA11561.1" description="&lt;b&gt;CBA11561.1&lt;/b&gt;&lt;br&gt;NDP-hexose-3,4-dehydratase&lt;br&gt;Location: 9405 - 10709" points="163,85 168,80 173,80 173,90 168,90 163,85 " style="stroke-width:1; stroke:black; fill:white; " id="dummy-22_h22_8_7" class="clusterblast-orf"  />
</g>
<g id="a22_008"  >
<polygon locus_tag="CBA11562.1" description="&lt;b&gt;CBA11562.1&lt;/b&gt;&lt;br&gt;NDP-4-keto-6-deoxyhexose reductase&lt;br&gt;Location: 10720 - 11742" points="173,85 178,80 180,80 180,90 178,90 173,85 " style="stroke-width:1; stroke:black; fill:white; " id="dummy-22_h22_8_8" class="clusterblast-orf"  />
</g>
<g id="a22_009"  >
<polygon locus_tag="CBA11563.1" description="&lt;b&gt;CBA11563.1&lt;/b&gt;&lt;br&gt;NDP-hexose-3-ketoreductase&lt;br&gt;Location: 11739 - 12755" points="180,85 185,80 188,80 188,90 185,90 180,85 " style="stroke-width:1; stroke:black; fill:white; " id="dummy-22_h22_8_9" class="clusterblast-orf"  />
</g>
<g id="a22_0010"  >
<polygon locus_tag="CBA11564.1" description="&lt;b&gt;CBA11564.1&lt;/b&gt;&lt;br&gt;NDP-hexose-2,3-dehydratase&lt;br&gt;Location: 12752 - 14104" points="188,85 193,80 197,80 197,90 193,90 188,85 " style="stroke-width:1; stroke:black; fill:white; " id="dummy-22_h22_8_10" class="clusterblast-orf"  />
</g>
<g id="a22_0011"  >
<polygon locus_tag="CBA11565.1" description="&lt;b&gt;CBA11565.1&lt;/b&gt;&lt;br&gt;cytochrome P450&lt;br&gt;Location: 14101 - 15342" points="197,85 202,80 206,80 206,90 202,90 197,85 " style="stroke-width:1; stroke:black; fill:white; " id="dummy-22_h22_8_11" class="clusterblast-orf"  />
</g>
<g id="a22_0012"  >
<polygon locus_tag="CBA11566.1" description="&lt;b&gt;CBA11566.1&lt;/b&gt;&lt;br&gt;putative secreted hydrolase&lt;br&gt;Location: 15339 - 16193" points="206,85 211,80 213,80 213,90 211,90 206,85 " style="stroke-width:1; stroke:black; fill:white; " id="dummy-22_h22_8_12" class="clusterblast-orf"  />
</g>
<g id="a22_0013"  >
<polygon locus_tag="CBA11567.1" description="&lt;b&gt;CBA11567.1&lt;/b&gt;&lt;br&gt;glycosyltransferase&lt;br&gt;Location: 16402 - 17577" points="214,90 218,90 223,85 218,80 214,80 214,90 " style="stroke-width:1; stroke:black; fill:white; " id="dummy-22_h22_8_13" class="clusterblast-orf"  />
</g>
<g id="a22_0014"  >
<polygon locus_tag="CBA11568.1" description="&lt;b&gt;CBA11568.1&lt;/b&gt;&lt;br&gt;asparaginyl-tRNA synthetase-like&lt;br&gt;Location: 18302 - 19282" points="228,90 230,90 235,85 230,80 228,80 228,90 " style="stroke-width:1; stroke:black; fill:white; " id="dummy-22_h22_8_14" class="clusterblast-orf"  />
</g>
<g id="a22_0015"  >
<polygon locus_tag="CBA11569.1" description="&lt;b&gt;CBA11569.1&lt;/b&gt;&lt;br&gt;ferredoxin-dependent glutamate synthase&lt;br&gt;Location: 19279 - 20601" points="235,90 240,90 245,85 240,80 235,80 235,90 " style="stroke-width:1; stroke:black; fill:white; " id="dummy-22_h22_8_15" class="clusterblast-orf"  />
</g>
<g id="a22_0016"  >
<polygon locus_tag="CBA11570.1" description="&lt;b&gt;CBA11570.1&lt;/b&gt;&lt;br&gt;non-ribosomal peptide synthetase&lt;br&gt;Location: 20598 - 22301" points="245,90 252,90 257,85 252,80 245,80 245,90 " style="stroke-width:1; stroke:black; fill:white; " id="dummy-22_h22_8_16" class="clusterblast-orf"  />
</g>
<g id="a22_0017"  >
<polygon locus_tag="CBA11571.1" description="&lt;b&gt;CBA11571.1&lt;/b&gt;&lt;br&gt;NDP-glucose-4,6-dehydratase&lt;br&gt;Location: 22449 - 23435" points="258,85 263,80 265,80 265,90 263,90 258,85 " style="stroke-width:1; stroke:black; fill:white; " id="dummy-22_h22_8_17" class="clusterblast-orf"  />
</g>
<g id="a22_0018"  >
<polygon locus_tag="CBA11572.1" description="&lt;b&gt;CBA11572.1&lt;/b&gt;&lt;br&gt;NDP-glucose synthase&lt;br&gt;Location: 23432 - 24499" points="265,85 270,80 273,80 273,90 270,90 265,85 " style="stroke-width:1; stroke:black; fill:white; " id="dummy-22_h22_8_18" class="clusterblast-orf"  />
</g>
<g id="a22_0019"  >
<polygon locus_tag="CBA11573.1" description="&lt;b&gt;CBA11573.1&lt;/b&gt;&lt;br&gt;glutamate mutase-E chain&lt;br&gt;Location: 24496 - 25845&lt;br&gt;&lt;br&gt;&lt;b&gt;BlastP hit with SSMG_05941&lt;/b&gt;&lt;br&gt;Percentage identity: 66&lt;br&gt;Percentage coverage: 97&lt;br&gt;BLAST bit score: 530&lt;br&gt;E-value: 2.4e-150" points="273,85 278,80 283,80 283,90 278,90 273,85 " style="stroke-width:1; stroke:black; fill:#d8ae15; " id="dummy-22_h22_8_19" class="clusterblast-orf"  />
</g>
<g id="a22_0020"  >
<polygon locus_tag="CBA11574.1" description="&lt;b&gt;CBA11574.1&lt;/b&gt;&lt;br&gt;glutamate mutase subunit&lt;br&gt;Location: 25842 - 26303&lt;br&gt;&lt;br&gt;&lt;b&gt;BlastP hit with SSMG_05942&lt;/b&gt;&lt;br&gt;Percentage identity: 65&lt;br&gt;Percentage coverage: 73&lt;br&gt;BLAST bit score: 152&lt;br&gt;E-value: 5e-37" points="283,85 286,80 286,90 283,85 " style="stroke-width:1; stroke:black; fill:#15d859; " id="dummy-22_h22_8_20" class="clusterblast-orf"  />
</g>
<g id="a22_0021"  >
<polygon locus_tag="CBA11575.1" description="&lt;b&gt;CBA11575.1&lt;/b&gt;&lt;br&gt;putative ATP/GTP binding-protein&lt;br&gt;Location: 26650 - 28749" points="289,90 299,90 304,85 299,80 289,80 289,90 " style="stroke-width:1; stroke:black; fill:white; " id="dummy-22_h22_8_21" class="clusterblast-orf"  />
</g>
<g id="a22_0022"  >
<polygon locus_tag="CBA11576.1" description="&lt;b&gt;CBA11576.1&lt;/b&gt;&lt;br&gt;TetR-family transcriptional regulator&lt;br&gt;Location: 28862 - 29524" points="305,85 310,80 310,80 310,90 310,90 305,85 " style="stroke-width:1; stroke:black; fill:white; " id="dummy-22_h22_8_22" class="clusterblast-orf"  />
</g>
<g id="a22_0023"  >
<polygon locus_tag="CBA11577.1" description="&lt;b&gt;CBA11577.1&lt;/b&gt;&lt;br&gt;putative transport integral membrain protein&lt;br&gt;Location: 29625 - 31172" points="311,90 317,90 322,85 317,80 311,80 311,90 " style="stroke-width:1; stroke:black; fill:white; " id="dummy-22_h22_8_23" class="clusterblast-orf"  />
</g>
<g id="a22_0024"  >
<polygon locus_tag="CBA11578.1" description="&lt;b&gt;CBA11578.1&lt;/b&gt;&lt;br&gt;cytochrome P450&lt;br&gt;Location: 31294 - 32538" points="323,90 327,90 332,85 327,80 323,80 323,90 " style="stroke-width:1; stroke:black; fill:white; " id="dummy-22_h22_8_24" class="clusterblast-orf"  />
</g>
<g id="a22_0025"  >
<polygon locus_tag="CBA11579.1" description="&lt;b&gt;CBA11579.1&lt;/b&gt;&lt;br&gt;putative ent-copalyl diphosphate synthase&lt;br&gt;Location: 32589 - 34136" points="332,85 337,80 343,80 343,90 337,90 332,85 " style="stroke-width:1; stroke:black; fill:white; " id="dummy-22_h22_8_25" class="clusterblast-orf"  />
</g>
<g id="a22_0026"  >
<polygon locus_tag="CBA11580.1" description="&lt;b&gt;CBA11580.1&lt;/b&gt;&lt;br&gt;putative secreted hydrolase&lt;br&gt;Location: 34133 - 35035" points="343,85 348,80 350,80 350,90 348,90 343,85 " style="stroke-width:1; stroke:black; fill:white; " id="dummy-22_h22_8_26" class="clusterblast-orf"  />
</g>
<g id="a22_0027"  >
<polygon locus_tag="CBA11581.1" description="&lt;b&gt;CBA11581.1&lt;/b&gt;&lt;br&gt;thioesterase type II&lt;br&gt;Location: 35032 - 35814&lt;br&gt;&lt;br&gt;&lt;b&gt;BlastP hit with SSMG_05935&lt;/b&gt;&lt;br&gt;Percentage identity: 50&lt;br&gt;Percentage coverage: 93&lt;br&gt;BLAST bit score: 238&lt;br&gt;E-value: 1.1e-62&lt;br&gt;&lt;br&gt;&lt;b&gt;BlastP hit with SSMG_05954&lt;/b&gt;&lt;br&gt;Percentage identity: 49&lt;br&gt;Percentage coverage: 97&lt;br&gt;BLAST bit score: 235&lt;br&gt;E-value: 1.3e-61" points="350,85 355,80 356,80 356,90 355,90 350,85 " style="stroke-width:1; stroke:black; fill:#15d826; " id="dummy-22_h22_8_27" class="clusterblast-orf"  />
</g>
<g id="a22_0028"  >
<polygon locus_tag="CBA11582.1" description="&lt;b&gt;CBA11582.1&lt;/b&gt;&lt;br&gt;polyketide synthase type I&lt;br&gt;Location: 35811 - 46154&lt;br&gt;&lt;br&gt;&lt;b&gt;BlastP hit with SSMG_05921&lt;/b&gt;&lt;br&gt;Percentage identity: 46&lt;br&gt;Percentage coverage: 105&lt;br&gt;BLAST bit score: 2589&lt;br&gt;E-value: 0.0&lt;br&gt;&lt;br&gt;&lt;b&gt;BlastP hit with SSMG_05929&lt;/b&gt;&lt;br&gt;Percentage identity: 50&lt;br&gt;Percentage coverage: 88&lt;br&gt;BLAST bit score: 2248&lt;br&gt;E-value: 0.0&lt;br&gt;&lt;br&gt;&lt;b&gt;BlastP hit with SSMG_05938&lt;/b&gt;&lt;br&gt;Percentage identity: 49&lt;br&gt;Percentage coverage: 105&lt;br&gt;BLAST bit score: 1485&lt;br&gt;E-value: 0.0&lt;br&gt;&lt;br&gt;&lt;b&gt;BlastP hit with SSMG_05939&lt;/b&gt;&lt;br&gt;Percentage identity: 47&lt;br&gt;Percentage coverage: 68&lt;br&gt;BLAST bit score: 2549&lt;br&gt;E-value: 0.0" points="356,85 361,80 431,80 431,90 361,90 356,85 " style="stroke-width:1; stroke:black; fill:#15bfd8; " id="dummy-22_h22_8_28" class="clusterblast-orf"  />
</g>
<g id="a22_0029"  >
<polygon locus_tag="CBA11583.1" description="&lt;b&gt;CBA11583.1&lt;/b&gt;&lt;br&gt;polyketide synthase type I&lt;br&gt;Location: 46319 - 56758&lt;br&gt;&lt;br&gt;&lt;b&gt;BlastP hit with SSMG_05922&lt;/b&gt;&lt;br&gt;Percentage identity: 50&lt;br&gt;Percentage coverage: 103&lt;br&gt;BLAST bit score: 1357&lt;br&gt;E-value: 0.0&lt;br&gt;&lt;br&gt;&lt;b&gt;BlastP hit with SSMG_05923&lt;/b&gt;&lt;br&gt;Percentage identity: 46&lt;br&gt;Percentage coverage: 105&lt;br&gt;BLAST bit score: 1305&lt;br&gt;E-value: 0.0&lt;br&gt;&lt;br&gt;&lt;b&gt;BlastP hit with SSMG_05938&lt;/b&gt;&lt;br&gt;Percentage identity: 48&lt;br&gt;Percentage coverage: 103&lt;br&gt;BLAST bit score: 1407&lt;br&gt;E-value: 0.0" points="432,85 437,80 508,80 508,90 437,90 432,85 " style="stroke-width:1; stroke:black; fill:#15bfd8; " id="dummy-22_h22_8_29" class="clusterblast-orf"  />
</g>
<g id="a22_0030"  >
<polygon locus_tag="CBA11584.1" description="&lt;b&gt;CBA11584.1&lt;/b&gt;&lt;br&gt;polyketide synthase type I&lt;br&gt;Location: 56865 - 75380" points="509,85 514,80 644,80 644,90 514,90 509,85 " style="stroke-width:1; stroke:black; fill:white; " id="dummy-22_h22_8_30" class="clusterblast-orf"  />
</g>
<g id="a22_0031"  >
<polygon locus_tag="CBA11585.1" description="&lt;b&gt;CBA11585.1&lt;/b&gt;&lt;br&gt;putative integral membrane protein&lt;br&gt;Location: 75897 - 76637" points="648,90 648,90 653,85 648,80 648,80 648,90 " style="stroke-width:1; stroke:black; fill:white; " id="dummy-22_h22_8_31" class="clusterblast-orf"  />
</g>
<g id="a22_0032"  >
<polygon locus_tag="CBA11586.1" description="&lt;b&gt;CBA11586.1&lt;/b&gt;&lt;br&gt;putative integral membrane protein&lt;br&gt;Location: 76841 - 77776" points="655,90 657,90 662,85 657,80 655,80 655,90 " style="stroke-width:1; stroke:black; fill:white; " id="dummy-22_h22_8_32" class="clusterblast-orf"  />
</g>
<g id="a22_0033"  >
<polygon locus_tag="CBA11587.1" description="&lt;b&gt;CBA11587.1&lt;/b&gt;&lt;br&gt;putative integral membrane protein&lt;br&gt;Location: 77818 - 78480" points="662,90 662,90 667,85 662,80 662,80 662,90 " style="stroke-width:1; stroke:black; fill:white; " id="dummy-22_h22_8_33" class="clusterblast-orf"  />
</g>
<g id="a22_0034"  >
<polygon locus_tag="CBA11588.1" description="&lt;b&gt;CBA11588.1&lt;/b&gt;&lt;br&gt;putative hydrolase&lt;br&gt;Location: 78477 - 79205" points="667,90 667,90 672,85 667,80 667,80 667,90 " style="stroke-width:1; stroke:black; fill:white; " id="dummy-22_h22_8_34" class="clusterblast-orf"  />
</g>
<g id="a22_0035"  >
<polygon locus_tag="CBA11589.1" description="&lt;b&gt;CBA11589.1&lt;/b&gt;&lt;br&gt;hypothetical protein&lt;br&gt;Location: 79234 - 79632" points="672,85 675,80 675,90 672,85 " style="stroke-width:1; stroke:black; fill:white; " id="dummy-22_h22_8_35" class="clusterblast-orf"  />
</g>
<g id="a22_0036"  >
<polygon locus_tag="CBA11590.1" description="&lt;b&gt;CBA11590.1&lt;/b&gt;&lt;br&gt;putative TetR-family transcriptional regulator&lt;br&gt;Location: 79840 - 80457" points="677,90 681,85 677,80 677,90 " style="stroke-width:1; stroke:black; fill:white; " id="dummy-22_h22_8_36" class="clusterblast-orf"  />
</g>
<g id="a22_0037"  >
<polygon locus_tag="CBA11591.1" description="&lt;b&gt;CBA11591.1&lt;/b&gt;&lt;br&gt;hypothetical protein&lt;br&gt;Location: 80468 - 80893" points="681,90 684,85 681,80 681,90 " style="stroke-width:1; stroke:black; fill:white; " id="dummy-22_h22_8_37" class="clusterblast-orf"  />
</g>
</svg>
