<svg version="1.1" xmlns="http://www.w3.org/2000/svg" height="230" width="800" xmlns:xlink="http://www.w3.org/1999/xlink" preserveAspectRatio="none" x="0" y="0" viewBox="0 0 800 230"  >
<g label="Query sequence" class="clusterblast-cluster"  >
<text class="clusterblast-acc" y="20" x="5"  >
Query sequence</text>
<line x1="10" x2="778.0" y2="35" style="stroke-width:1; stroke:grey; " y1="35"  />
<polygon locus_tag="SSMG_07210" description="&lt;b&gt;SSMG_07210&lt;/b&gt;&lt;br&gt;HAD-superfamily subfamily IB&lt;br&gt;Location: 7911286 - 7912108" points="26,40 31,40 36,35 31,30 26,30 26,40 " style="stroke-width:1; stroke:black; fill:white; " id="dummy-26_q0_0_all" class="clusterblast-orf"  />
<polygon locus_tag="SSMG_07211" description="&lt;b&gt;SSMG_07211&lt;/b&gt;&lt;br&gt;beta-N-Acetylglucosaminidase&lt;br&gt;Location: 7912745 - 7914542" points="44,40 61,40 66,35 61,30 44,30 44,40 " style="stroke-width:1; stroke:black; fill:white; " id="dummy-26_q1_0_all" class="clusterblast-orf"  />
<polygon locus_tag="SSMG_07212" description="&lt;b&gt;SSMG_07212&lt;/b&gt;&lt;br&gt;conserved hypothetical protein&lt;br&gt;Location: 7914592 - 7915819" points="67,40 77,40 82,35 77,30 67,30 67,40 " style="stroke-width:1; stroke:black; fill:white; " id="dummy-26_q2_0_all" class="clusterblast-orf"  />
<polygon locus_tag="SSMG_07213" description="&lt;b&gt;SSMG_07213&lt;/b&gt;&lt;br&gt;beta-lactamase&lt;br&gt;Location: 7915869 - 7917585" points="82,40 98,40 103,35 98,30 82,30 82,40 " style="stroke-width:1; stroke:black; fill:white; " id="dummy-26_q3_0_all" class="clusterblast-orf"  />
<polygon locus_tag="SSMG_07214" description="&lt;b&gt;SSMG_07214&lt;/b&gt;&lt;br&gt;transcriptional regulator&lt;br&gt;Location: 7917796 - 7918798" points="106,40 113,40 118,35 113,30 106,30 106,40 " style="stroke-width:1; stroke:black; fill:white; " id="dummy-26_q4_0_all" class="clusterblast-orf"  />
<polygon locus_tag="SSMG_07215" description="&lt;b&gt;SSMG_07215&lt;/b&gt;&lt;br&gt;N-acetylmuramic acid 6-phosphate etherase&lt;br&gt;Location: 7918817 - 7919744" points="118,40 124,40 129,35 124,30 118,30 118,40 " style="stroke-width:1; stroke:black; fill:white; " id="dummy-26_q5_0_all" class="clusterblast-orf"  />
<polygon locus_tag="SSMG_07216" description="&lt;b&gt;SSMG_07216&lt;/b&gt;&lt;br&gt;high-affinity nickel-transporter&lt;br&gt;Location: 7919817 - 7920912" points="130,40 139,40 144,35 139,30 130,30 130,40 " style="stroke-width:1; stroke:black; fill:white; " id="dummy-26_q6_0_all" class="clusterblast-orf"  />
<polygon locus_tag="SSMG_07217" description="&lt;b&gt;SSMG_07217&lt;/b&gt;&lt;br&gt;alkylhydroperoxidase AhpD&lt;br&gt;Location: 7921132 - 7921585" points="146,35 151,30 152,30 152,40 151,40 146,35 " style="stroke-width:1; stroke:black; fill:white; " id="dummy-26_q7_0_all" class="clusterblast-orf"  />
<polygon locus_tag="SSMG_07218" description="&lt;b&gt;SSMG_07218&lt;/b&gt;&lt;br&gt;sigma factor&lt;br&gt;Location: 7921656 - 7922535" points="153,40 159,40 164,35 159,30 153,30 153,40 " style="stroke-width:1; stroke:black; fill:white; " id="dummy-26_q8_0_all" class="clusterblast-orf"  />
<polygon locus_tag="SSMG_07219" description="&lt;b&gt;SSMG_07219&lt;/b&gt;&lt;br&gt;oxidoreductase&lt;br&gt;Location: 7922537 - 7923437" points="164,35 169,30 175,30 175,40 169,40 164,35 " style="stroke-width:1; stroke:black; fill:white; " id="dummy-26_q9_0_all" class="clusterblast-orf"  />
<polygon locus_tag="SSMG_07220" description="&lt;b&gt;SSMG_07220&lt;/b&gt;&lt;br&gt;TetR family protein transcriptional regulator&lt;br&gt;Location: 7923501 - 7924071" points="175,40 177,40 182,35 177,30 175,30 175,40 " style="stroke-width:1; stroke:black; fill:white; " id="dummy-26_q10_0_all" class="clusterblast-orf"  />
<polygon locus_tag="SSMG_07221" description="&lt;b&gt;SSMG_07221&lt;/b&gt;&lt;br&gt;GAF domain-containing protein&lt;br&gt;Location: 7924055 - 7925972" points="182,35 187,30 206,30 206,40 187,40 182,35 " style="stroke-width:1; stroke:black; fill:white; " id="dummy-26_q11_0_all" class="clusterblast-orf"  />
<polygon locus_tag="SSMG_07222" description="&lt;b&gt;SSMG_07222&lt;/b&gt;&lt;br&gt;integral membrane transporter&lt;br&gt;Location: 7925872 - 7927255" points="204,35 209,30 221,30 221,40 209,40 204,35 " style="stroke-width:1; stroke:black; fill:white; " id="dummy-26_q12_0_all" class="clusterblast-orf"  />
<polygon locus_tag="SSMG_07223" description="&lt;b&gt;SSMG_07223&lt;/b&gt;&lt;br&gt;2-hydroxycyclohexanecarboxyl-CoA dehydrogenase&lt;br&gt;Location: 7927214 - 7927964" points="221,35 226,30 230,30 230,40 226,40 221,35 " style="stroke-width:1; stroke:black; fill:white; " id="dummy-26_q13_0_all" class="clusterblast-orf"  />
<polygon locus_tag="SSMG_07224" description="&lt;b&gt;SSMG_07224&lt;/b&gt;&lt;br&gt;predicted protein&lt;br&gt;Location: 7928053 - 7928776" points="231,35 236,30 240,30 240,40 236,40 231,35 " style="stroke-width:1; stroke:black; fill:white; " id="dummy-26_q14_0_all" class="clusterblast-orf"  />
<polygon locus_tag="SSMG_07225" description="&lt;b&gt;SSMG_07225&lt;/b&gt;&lt;br&gt;purine phosphoribosyltransferase&lt;br&gt;Location: 7928858 - 7929356" points="241,35 246,30 247,30 247,40 246,40 241,35 " style="stroke-width:1; stroke:black; fill:white; " id="dummy-26_q15_0_all" class="clusterblast-orf"  />
<polygon locus_tag="SSMG_07226" description="&lt;b&gt;SSMG_07226&lt;/b&gt;&lt;br&gt;acetyltransferase&lt;br&gt;Location: 7929469 - 7930048" points="248,40 250,40 255,35 250,30 248,30 248,40 " style="stroke-width:1; stroke:black; fill:white; " id="dummy-26_q16_0_all" class="clusterblast-orf"  />
<polygon locus_tag="SSMG_07227" description="&lt;b&gt;SSMG_07227&lt;/b&gt;&lt;br&gt;acetate-CoA ligase&lt;br&gt;Location: 7930166 - 7932146" points="257,40 276,40 281,35 276,30 257,30 257,40 " style="stroke-width:1; stroke:black; fill:#d81515; " id="dummy-26_q17_0_all" class="clusterblast-orf"  />
<polygon locus_tag="SSMG_07228" description="&lt;b&gt;SSMG_07228&lt;/b&gt;&lt;br&gt;predicted protein&lt;br&gt;Location: 7932283 - 7932799" points="283,40 284,40 289,35 284,30 283,30 283,40 " style="stroke-width:1; stroke:black; fill:white; " id="dummy-26_q18_0_all" class="clusterblast-orf"  />
<polygon locus_tag="SSMG_07229" description="&lt;b&gt;SSMG_07229&lt;/b&gt;&lt;br&gt;predicted protein&lt;br&gt;Location: 7932861 - 7933200" points="290,35 294,30 294,40 290,35 " style="stroke-width:1; stroke:black; fill:white; " id="dummy-26_q19_0_all" class="clusterblast-orf"  />
<polygon locus_tag="SSMG_07230" description="&lt;b&gt;SSMG_07230&lt;/b&gt;&lt;br&gt;integral membrane protein&lt;br&gt;Location: 7933320 - 7934043" points="295,40 299,40 304,35 299,30 295,30 295,40 " style="stroke-width:1; stroke:black; fill:white; " id="dummy-26_q20_0_all" class="clusterblast-orf"  />
<polygon locus_tag="SSMG_07231" description="&lt;b&gt;SSMG_07231&lt;/b&gt;&lt;br&gt;predicted protein&lt;br&gt;Location: 7934044 - 7935256" points="304,35 309,30 319,30 319,40 309,40 304,35 " style="stroke-width:1; stroke:black; fill:white; " id="dummy-26_q21_0_all" class="clusterblast-orf"  />
<polygon locus_tag="SSMG_07232" description="&lt;b&gt;SSMG_07232&lt;/b&gt;&lt;br&gt;predicted protein&lt;br&gt;Location: 7935293 - 7936613" points="319,35 324,30 335,30 335,40 324,40 319,35 " style="stroke-width:1; stroke:black; fill:#15d815; " id="dummy-26_q22_0_all" class="clusterblast-orf"  />
<polygon locus_tag="SSMG_07233" description="&lt;b&gt;SSMG_07233&lt;/b&gt;&lt;br&gt;3-deoxy-7-phosphoheptulonate synthase&lt;br&gt;Location: 7936657 - 7937824" points="336,35 341,30 350,30 350,40 341,40 336,35 " style="stroke-width:1; stroke:black; fill:#1597d8; " id="dummy-26_q23_0_all" class="clusterblast-orf"  />
<polygon locus_tag="SSMG_07234" description="&lt;b&gt;SSMG_07234&lt;/b&gt;&lt;br&gt;phenazine biosynthesis protein PhzE&lt;br&gt;Location: 7937875 - 7939819" points="351,35 356,30 375,30 375,40 356,40 351,35 " style="stroke-width:1; stroke:black; fill:#9715d8; " id="dummy-26_q24_0_all" class="clusterblast-orf"  />
<polygon locus_tag="SSMG_07235" description="&lt;b&gt;SSMG_07235&lt;/b&gt;&lt;br&gt;predicted protein&lt;br&gt;Location: 7939815 - 7940535" points="375,35 380,30 383,30 383,40 380,40 375,35 " style="stroke-width:1; stroke:black; fill:white; " id="dummy-26_q25_0_all" class="clusterblast-orf"  />
<polygon locus_tag="SSMG_07236" description="&lt;b&gt;SSMG_07236&lt;/b&gt;&lt;br&gt;predicted protein&lt;br&gt;Location: 7940531 - 7943624" points="383,35 388,30 421,30 421,40 388,40 383,35 " style="stroke-width:1; stroke:black; fill:#d89715; " id="dummy-26_q26_0_all" class="clusterblast-orf"  />
<polygon locus_tag="SSMG_07237" description="&lt;b&gt;SSMG_07237&lt;/b&gt;&lt;br&gt;modular polyketide synthase&lt;br&gt;Location: 7943657 - 7945214" points="421,35 426,30 440,30 440,40 426,40 421,35 " style="stroke-width:1; stroke:black; fill:white; " id="dummy-26_q27_0_all" class="clusterblast-orf"  />
<polygon locus_tag="SSMG_07238" description="&lt;b&gt;SSMG_07238&lt;/b&gt;&lt;br&gt;peptidyl carrier protein&lt;br&gt;Location: 7945279 - 7945537" points="441,35 444,30 444,40 441,35 " style="stroke-width:1; stroke:black; fill:white; " id="dummy-26_q28_0_all" class="clusterblast-orf"  />
<polygon locus_tag="SSMG_07239" description="&lt;b&gt;SSMG_07239&lt;/b&gt;&lt;br&gt;predicted protein&lt;br&gt;Location: 7945805 - 7947257" points="448,40 460,40 465,35 460,30 448,30 448,40 " style="stroke-width:1; stroke:black; fill:white; " id="dummy-26_q29_0_all" class="clusterblast-orf"  />
<polygon locus_tag="SSMG_07240" description="&lt;b&gt;SSMG_07240&lt;/b&gt;&lt;br&gt;predicted protein&lt;br&gt;Location: 7947409 - 7948612" points="467,40 477,40 482,35 477,30 467,30 467,40 " style="stroke-width:1; stroke:black; fill:white; " id="dummy-26_q30_0_all" class="clusterblast-orf"  />
<polygon locus_tag="SSMG_07241" description="&lt;b&gt;SSMG_07241&lt;/b&gt;&lt;br&gt;isochorismatase&lt;br&gt;Location: 7948589 - 7949279" points="482,35 487,30 490,30 490,40 487,40 482,35 " style="stroke-width:1; stroke:black; fill:#15d897; " id="dummy-26_q31_0_all" class="clusterblast-orf"  />
<polygon locus_tag="SSMG_07242" description="&lt;b&gt;SSMG_07242&lt;/b&gt;&lt;br&gt;predicted protein&lt;br&gt;Location: 7949360 - 7950515" points="491,40 500,40 505,35 500,30 491,30 491,40 " style="stroke-width:1; stroke:black; fill:white; " id="dummy-26_q32_0_all" class="clusterblast-orf"  />
<polygon locus_tag="SSMG_07243" description="&lt;b&gt;SSMG_07243&lt;/b&gt;&lt;br&gt;predicted protein&lt;br&gt;Location: 7950511 - 7951132" points="505,40 508,40 513,35 508,30 505,30 505,40 " style="stroke-width:1; stroke:black; fill:white; " id="dummy-26_q33_0_all" class="clusterblast-orf"  />
<polygon locus_tag="SSMG_07244" description="&lt;b&gt;SSMG_07244&lt;/b&gt;&lt;br&gt;di/tripeptide permease&lt;br&gt;Location: 7951135 - 7952638" points="513,35 518,30 531,30 531,40 518,40 513,35 " style="stroke-width:1; stroke:black; fill:white; " id="dummy-26_q34_0_all" class="clusterblast-orf"  />
<polygon locus_tag="SSMG_07245" description="&lt;b&gt;SSMG_07245&lt;/b&gt;&lt;br&gt;Na+/H+ antiporter NhaA&lt;br&gt;Location: 7952813 - 7954064" points="533,40 544,40 549,35 544,30 533,30 533,40 " style="stroke-width:1; stroke:black; fill:#1515d8; " id="dummy-26_q35_0_all" class="clusterblast-orf"  />
<polygon locus_tag="SSMG_07246" description="&lt;b&gt;SSMG_07246&lt;/b&gt;&lt;br&gt;predicted protein&lt;br&gt;Location: 7954102 - 7954621" points="549,40 550,40 555,35 550,30 549,30 549,40 " style="stroke-width:1; stroke:black; fill:white; " id="dummy-26_q36_0_all" class="clusterblast-orf"  />
<polygon locus_tag="SSMG_07247" description="&lt;b&gt;SSMG_07247&lt;/b&gt;&lt;br&gt;alpha/beta hydrolase fold containing protein&lt;br&gt;Location: 7954637 - 7955558" points="556,40 562,40 567,35 562,30 556,30 556,40 " style="stroke-width:1; stroke:black; fill:white; " id="dummy-26_q37_0_all" class="clusterblast-orf"  />
<polygon locus_tag="SSMG_07248" description="&lt;b&gt;SSMG_07248&lt;/b&gt;&lt;br&gt;protease&lt;br&gt;Location: 7955788 - 7956973" points="570,35 575,30 584,30 584,40 575,40 570,35 " style="stroke-width:1; stroke:black; fill:white; " id="dummy-26_q38_0_all" class="clusterblast-orf"  />
<polygon locus_tag="SSMG_07249" description="&lt;b&gt;SSMG_07249&lt;/b&gt;&lt;br&gt;predicted protein&lt;br&gt;Location: 7956980 - 7957697" points="584,35 589,30 593,30 593,40 589,40 584,35 " style="stroke-width:1; stroke:black; fill:#d81597; " id="dummy-26_q39_0_all" class="clusterblast-orf"  />
<polygon locus_tag="SSMG_07250" description="&lt;b&gt;SSMG_07250&lt;/b&gt;&lt;br&gt;redoxin&lt;br&gt;Location: 7957693 - 7958296" points="593,35 598,30 600,30 600,40 598,40 593,35 " style="stroke-width:1; stroke:black; fill:white; " id="dummy-26_q40_0_all" class="clusterblast-orf"  />
<polygon locus_tag="SSMG_07251" description="&lt;b&gt;SSMG_07251&lt;/b&gt;&lt;br&gt;endonuclease III&lt;br&gt;Location: 7958292 - 7959054" points="600,35 605,30 609,30 609,40 605,40 600,35 " style="stroke-width:1; stroke:black; fill:#97d815; " id="dummy-26_q41_0_all" class="clusterblast-orf"  />
<polygon locus_tag="SSMG_07252" description="&lt;b&gt;SSMG_07252&lt;/b&gt;&lt;br&gt;predicted protein&lt;br&gt;Location: 7959183 - 7959465" points="611,40 614,35 611,30 611,40 " style="stroke-width:1; stroke:black; fill:white; " id="dummy-26_q42_0_all" class="clusterblast-orf"  />
<polygon locus_tag="SSMG_07253" description="&lt;b&gt;SSMG_07253&lt;/b&gt;&lt;br&gt;transcriptional regulator&lt;br&gt;Location: 7959624 - 7960299" points="616,40 620,40 625,35 620,30 616,30 616,40 " style="stroke-width:1; stroke:black; fill:white; " id="dummy-26_q43_0_all" class="clusterblast-orf"  />
<polygon locus_tag="SSMG_07254" description="&lt;b&gt;SSMG_07254&lt;/b&gt;&lt;br&gt;predicted protein&lt;br&gt;Location: 7960711 - 7961908" points="630,35 635,30 644,30 644,40 635,40 630,35 " style="stroke-width:1; stroke:black; fill:white; " id="dummy-26_q44_0_all" class="clusterblast-orf"  />
<polygon locus_tag="SSMG_07255" description="&lt;b&gt;SSMG_07255&lt;/b&gt;&lt;br&gt;predicted protein&lt;br&gt;Location: 7962045 - 7963215" points="646,40 655,40 660,35 655,30 646,30 646,40 " style="stroke-width:1; stroke:black; fill:white; " id="dummy-26_q45_0_all" class="clusterblast-orf"  />
<polygon locus_tag="SSMG_07256" description="&lt;b&gt;SSMG_07256&lt;/b&gt;&lt;br&gt;DNA polymerase III, beta subunit&lt;br&gt;Location: 7963479 - 7964577" points="663,40 672,40 677,35 672,30 663,30 663,40 " style="stroke-width:1; stroke:black; fill:white; " id="dummy-26_q46_0_all" class="clusterblast-orf"  />
<polygon locus_tag="SSMG_07257" description="&lt;b&gt;SSMG_07257&lt;/b&gt;&lt;br&gt;conserved hypothetical protein&lt;br&gt;Location: 7964848 - 7965172" points="680,35 684,30 684,40 680,35 " style="stroke-width:1; stroke:black; fill:white; " id="dummy-26_q47_0_all" class="clusterblast-orf"  />
<polygon locus_tag="SSMG_07258" description="&lt;b&gt;SSMG_07258&lt;/b&gt;&lt;br&gt;beta-lactamase domain-containing protein&lt;br&gt;Location: 7965099 - 7965876" points="683,35 688,30 693,30 693,40 688,40 683,35 " style="stroke-width:1; stroke:black; fill:white; " id="dummy-26_q48_0_all" class="clusterblast-orf"  />
<polygon locus_tag="SSMG_07259" description="&lt;b&gt;SSMG_07259&lt;/b&gt;&lt;br&gt;NUDIX hydrolase&lt;br&gt;Location: 7965876 - 7966701" points="693,35 698,30 703,30 703,40 698,40 693,35 " style="stroke-width:1; stroke:black; fill:white; " id="dummy-26_q49_0_all" class="clusterblast-orf"  />
<polygon locus_tag="SSMG_07260" description="&lt;b&gt;SSMG_07260&lt;/b&gt;&lt;br&gt;predicted protein&lt;br&gt;Location: 7966916 - 7968101" points="705,35 710,30 720,30 720,40 710,40 705,35 " style="stroke-width:1; stroke:black; fill:white; " id="dummy-26_q50_0_all" class="clusterblast-orf"  />
<polygon locus_tag="SSMG_07261" description="&lt;b&gt;SSMG_07261&lt;/b&gt;&lt;br&gt;conserved hypothetical protein&lt;br&gt;Location: 7968139 - 7968712" points="720,35 725,30 727,30 727,40 725,40 720,35 " style="stroke-width:1; stroke:black; fill:white; " id="dummy-26_q51_0_all" class="clusterblast-orf"  />
<polygon locus_tag="SSMG_07262" description="&lt;b&gt;SSMG_07262&lt;/b&gt;&lt;br&gt;endoribonuclease L-PSP&lt;br&gt;Location: 7968768 - 7969224" points="728,35 733,30 734,30 734,40 733,40 728,35 " style="stroke-width:1; stroke:black; fill:white; " id="dummy-26_q52_0_all" class="clusterblast-orf"  />
<polygon locus_tag="SSMG_07263" description="&lt;b&gt;SSMG_07263&lt;/b&gt;&lt;br&gt;endoribonuclease L-PSP&lt;br&gt;Location: 7969234 - 7969423" points="734,35 736,30 736,40 734,35 " style="stroke-width:1; stroke:black; fill:white; " id="dummy-26_q53_0_all" class="clusterblast-orf"  />
<polygon locus_tag="SSMG_07264" description="&lt;b&gt;SSMG_07264&lt;/b&gt;&lt;br&gt;predicted protein&lt;br&gt;Location: 7969537 - 7969786" points="737,40 741,35 737,30 737,40 " style="stroke-width:1; stroke:black; fill:white; " id="dummy-26_q54_0_all" class="clusterblast-orf"  />
<polygon locus_tag="SSMG_07265" description="&lt;b&gt;SSMG_07265&lt;/b&gt;&lt;br&gt;anion transporter ATPase&lt;br&gt;Location: 7969808 - 7970813" points="741,40 748,40 753,35 748,30 741,30 741,40 " style="stroke-width:1; stroke:black; fill:white; " id="dummy-26_q55_0_all" class="clusterblast-orf"  />
</g>
<g label="BGC0001783" description="BGC0001783_c1: streptonigrin (5% of genes show similarity), Other" class="clusterblast-cluster"  >
<text class="clusterblast-acc" y="70" x="5"  >
<a xlink:href="https://mibig.secondarymetabolites.org/go/BGC0001783/1" target="_blank">BGC0001783</a>:                                                                    streptonigrin (5% of genes show similarity), Other</text>
<line x1="10" x2="778.0" y2="85" style="stroke-width:1; stroke:grey; " y1="85"  />
</g>
<g id="a26_000"  >
<polygon locus_tag="AFW04547.1" description="&lt;b&gt;AFW04547.1&lt;/b&gt;&lt;br&gt;DNA binding protein&lt;br&gt;Location: 56 - 1792" points="0,85 5,80 21,80 21,90 5,90 0,85 " style="stroke-width:1; stroke:black; fill:white; " id="dummy-26_h26_4_0" class="clusterblast-orf"  />
</g>
<g id="a26_001"  >
<polygon locus_tag="AFW04548.1" description="&lt;b&gt;AFW04548.1&lt;/b&gt;&lt;br&gt;prolyl-tRNA synthetase&lt;br&gt;Location: 1985 - 3400" points="23,90 35,90 40,85 35,80 23,80 23,90 " style="stroke-width:1; stroke:black; fill:white; " id="dummy-26_h26_4_1" class="clusterblast-orf"  />
</g>
<g id="a26_002"  >
<polygon locus_tag="AFW04549.1" description="&lt;b&gt;AFW04549.1&lt;/b&gt;&lt;br&gt;hydrolase&lt;br&gt;Location: 3981 - 5108" points="47,90 56,90 61,85 56,80 47,80 47,90 " style="stroke-width:1; stroke:black; fill:white; " id="dummy-26_h26_4_2" class="clusterblast-orf"  />
</g>
<g id="a26_003"  >
<polygon locus_tag="AFW04550.1" description="&lt;b&gt;AFW04550.1&lt;/b&gt;&lt;br&gt;ferredoxin&lt;br&gt;Location: 5302 - 5580" points="64,85 67,80 67,90 64,85 " style="stroke-width:1; stroke:black; fill:white; " id="dummy-26_h26_4_3" class="clusterblast-orf"  />
</g>
<g id="a26_004"  >
<polygon locus_tag="AFW04551.1" description="&lt;b&gt;AFW04551.1&lt;/b&gt;&lt;br&gt;aromatic ring dioxygenase b subunit&lt;br&gt;Location: 5580 - 6104" points="67,85 72,80 73,80 73,90 72,90 67,85 " style="stroke-width:1; stroke:black; fill:white; " id="dummy-26_h26_4_4" class="clusterblast-orf"  />
</g>
<g id="a26_005"  >
<polygon locus_tag="AFW04552.1" description="&lt;b&gt;AFW04552.1&lt;/b&gt;&lt;br&gt;aromatic ring dioxygenase a subunit&lt;br&gt;Location: 6101 - 7582" points="73,85 78,80 91,80 91,90 78,90 73,85 " style="stroke-width:1; stroke:black; fill:white; " id="dummy-26_h26_4_5" class="clusterblast-orf"  />
</g>
<g id="a26_006"  >
<polygon locus_tag="AFW04553.1" description="&lt;b&gt;AFW04553.1&lt;/b&gt;&lt;br&gt;NAD(P)H dehydrogenase (quinone)&lt;br&gt;Location: 7663 - 8355" points="92,90 96,90 101,85 96,80 92,80 92,90 " style="stroke-width:1; stroke:black; fill:white; " id="dummy-26_h26_4_6" class="clusterblast-orf"  />
</g>
<g id="a26_007"  >
<polygon locus_tag="AFW04554.1" description="&lt;b&gt;AFW04554.1&lt;/b&gt;&lt;br&gt;4-hydroxyphenylacetate-3-hydroxylase&lt;br&gt;Location: 8393 - 9955" points="101,90 115,90 120,85 115,80 101,80 101,90 " style="stroke-width:1; stroke:black; fill:white; " id="dummy-26_h26_4_7" class="clusterblast-orf"  />
</g>
<g id="a26_008"  >
<polygon locus_tag="AFW04555.1" description="&lt;b&gt;AFW04555.1&lt;/b&gt;&lt;br&gt;DoxX family protein&lt;br&gt;Location: 9963 - 10652" points="120,90 124,90 129,85 124,80 120,80 120,90 " style="stroke-width:1; stroke:black; fill:white; " id="dummy-26_h26_4_8" class="clusterblast-orf"  />
</g>
<g id="a26_009"  >
<polygon locus_tag="AFW04556.1" description="&lt;b&gt;AFW04556.1&lt;/b&gt;&lt;br&gt;Leucine carboxyl methyltransferase&lt;br&gt;Location: 10833 - 11663" points="131,90 136,90 141,85 136,80 131,80 131,90 " style="stroke-width:1; stroke:black; fill:white; " id="dummy-26_h26_4_9" class="clusterblast-orf"  />
</g>
<g id="a26_0010"  >
<polygon locus_tag="AFW04557.1" description="&lt;b&gt;AFW04557.1&lt;/b&gt;&lt;br&gt;drug resistance transporter&lt;br&gt;Location: 11649 - 13259" points="141,85 146,80 161,80 161,90 146,90 141,85 " style="stroke-width:1; stroke:black; fill:white; " id="dummy-26_h26_4_10" class="clusterblast-orf"  />
</g>
<g id="a26_0011"  >
<polygon locus_tag="AFW04558.1" description="&lt;b&gt;AFW04558.1&lt;/b&gt;&lt;br&gt;oxidoreductase&lt;br&gt;Location: 13270 - 14292" points="161,85 166,80 173,80 173,90 166,90 161,85 " style="stroke-width:1; stroke:black; fill:white; " id="dummy-26_h26_4_11" class="clusterblast-orf"  />
</g>
<g id="a26_0012"  >
<polygon locus_tag="AFW04559.1" description="&lt;b&gt;AFW04559.1&lt;/b&gt;&lt;br&gt;cyclase/dehydrase&lt;br&gt;Location: 14410 - 14952" points="175,90 176,90 181,85 176,80 175,80 175,90 " style="stroke-width:1; stroke:black; fill:white; " id="dummy-26_h26_4_12" class="clusterblast-orf"  />
</g>
<g id="a26_0013"  >
<polygon locus_tag="AFW04560.1" description="&lt;b&gt;AFW04560.1&lt;/b&gt;&lt;br&gt;fatty-acid-CoA ligase FadD&lt;br&gt;Location: 14969 - 16537" points="182,90 196,90 201,85 196,80 182,80 182,90 " style="stroke-width:1; stroke:black; fill:white; " id="dummy-26_h26_4_13" class="clusterblast-orf"  />
</g>
<g id="a26_0014"  >
<polygon locus_tag="AFW04561.1" description="&lt;b&gt;AFW04561.1&lt;/b&gt;&lt;br&gt;oxidoreductase&lt;br&gt;Location: 16540 - 17751" points="201,90 211,90 216,85 211,80 201,80 201,90 " style="stroke-width:1; stroke:black; fill:white; " id="dummy-26_h26_4_14" class="clusterblast-orf"  />
</g>
<g id="a26_0015"  >
<polygon locus_tag="AFW04562.1" description="&lt;b&gt;AFW04562.1&lt;/b&gt;&lt;br&gt;hypothetical protein&lt;br&gt;Location: 17748 - 19727" points="216,90 235,90 240,85 235,80 216,80 216,90 " style="stroke-width:1; stroke:black; fill:white; " id="dummy-26_h26_4_15" class="clusterblast-orf"  />
</g>
<g id="a26_0016"  >
<polygon locus_tag="AFW04563.1" description="&lt;b&gt;AFW04563.1&lt;/b&gt;&lt;br&gt;3-carboxymuconate cycloisomerase PcaB&lt;br&gt;Location: 19724 - 21142" points="240,90 252,90 257,85 252,80 240,80 240,90 " style="stroke-width:1; stroke:black; fill:white; " id="dummy-26_h26_4_16" class="clusterblast-orf"  />
</g>
<g id="a26_0017"  >
<polygon locus_tag="AFW04564.1" description="&lt;b&gt;AFW04564.1&lt;/b&gt;&lt;br&gt;Anthranilate synthase,PhzE&lt;br&gt;Location: 21283 - 23172&lt;br&gt;&lt;br&gt;&lt;b&gt;BlastP hit with SSMG_07234&lt;/b&gt;&lt;br&gt;Percentage identity: 54&lt;br&gt;Percentage coverage: 95&lt;br&gt;BLAST bit score: 624&lt;br&gt;E-value: 2.4e-178" points="259,85 264,80 282,80 282,90 264,90 259,85 " style="stroke-width:1; stroke:black; fill:#9715d8; " id="dummy-26_h26_4_17" class="clusterblast-orf"  />
</g>
<g id="a26_0018"  >
<polygon locus_tag="AFW04565.1" description="&lt;b&gt;AFW04565.1&lt;/b&gt;&lt;br&gt;Isochorismatase,PhzD&lt;br&gt;Location: 23169 - 23807&lt;br&gt;&lt;br&gt;&lt;b&gt;BlastP hit with SSMG_07241&lt;/b&gt;&lt;br&gt;Percentage identity: 65&lt;br&gt;Percentage coverage: 90&lt;br&gt;BLAST bit score: 278&lt;br&gt;E-value: 8.8e-75" points="282,85 287,80 290,80 290,90 287,90 282,85 " style="stroke-width:1; stroke:black; fill:#15d897; " id="dummy-26_h26_4_18" class="clusterblast-orf"  />
</g>
<g id="a26_0019"  >
<polygon locus_tag="AFW04566.1" description="&lt;b&gt;AFW04566.1&lt;/b&gt;&lt;br&gt;2,3-dihydroxybenzoate-2,3-dehydrogenase&lt;br&gt;Location: 23820 - 24677" points="290,85 295,80 300,80 300,90 295,90 290,85 " style="stroke-width:1; stroke:black; fill:white; " id="dummy-26_h26_4_19" class="clusterblast-orf"  />
</g>
<g id="a26_0020"  >
<polygon locus_tag="AFW04567.1" description="&lt;b&gt;AFW04567.1&lt;/b&gt;&lt;br&gt;PhzC, DAHP synthase&lt;br&gt;Location: 24665 - 26107&lt;br&gt;&lt;br&gt;&lt;b&gt;BlastP hit with SSMG_07233&lt;/b&gt;&lt;br&gt;Percentage identity: 56&lt;br&gt;Percentage coverage: 98&lt;br&gt;BLAST bit score: 399&lt;br&gt;E-value: 7.6e-111" points="300,85 305,80 318,80 318,90 305,90 300,85 " style="stroke-width:1; stroke:black; fill:#1597d8; " id="dummy-26_h26_4_20" class="clusterblast-orf"  />
</g>
<g id="a26_0021"  >
<polygon locus_tag="AFW04568.1" description="&lt;b&gt;AFW04568.1&lt;/b&gt;&lt;br&gt;ISXo8 transposase&lt;br&gt;Location: 26749 - 28725" points="325,90 345,90 350,85 345,80 325,80 325,90 " style="stroke-width:1; stroke:black; fill:white; " id="dummy-26_h26_4_21" class="clusterblast-orf"  />
</g>
<g id="a26_0022"  >
<polygon locus_tag="AFW04569.1" description="&lt;b&gt;AFW04569.1&lt;/b&gt;&lt;br&gt;FAD-dependent oxidoreductase&lt;br&gt;Location: 28738 - 29838" points="350,90 358,90 363,85 358,80 350,80 350,90 " style="stroke-width:1; stroke:black; fill:white; " id="dummy-26_h26_4_22" class="clusterblast-orf"  />
</g>
<g id="a26_0023"  >
<polygon locus_tag="AFW04570.1" description="&lt;b&gt;AFW04570.1&lt;/b&gt;&lt;br&gt;drug resistance transporter&lt;br&gt;Location: 29835 - 31526" points="363,90 379,90 384,85 379,80 363,80 363,90 " style="stroke-width:1; stroke:black; fill:white; " id="dummy-26_h26_4_23" class="clusterblast-orf"  />
</g>
<g id="a26_0024"  >
<polygon locus_tag="AFW04571.1" description="&lt;b&gt;AFW04571.1&lt;/b&gt;&lt;br&gt;hypothetical protein&lt;br&gt;Location: 31717 - 32676" points="386,90 393,90 398,85 393,80 386,80 386,90 " style="stroke-width:1; stroke:black; fill:white; " id="dummy-26_h26_4_24" class="clusterblast-orf"  />
</g>
<g id="a26_0025"  >
<polygon locus_tag="AFW04572.1" description="&lt;b&gt;AFW04572.1&lt;/b&gt;&lt;br&gt;FAD-dependent oxidoreductase&lt;br&gt;Location: 32669 - 33787" points="398,90 406,90 411,85 406,80 398,80 398,90 " style="stroke-width:1; stroke:black; fill:white; " id="dummy-26_h26_4_25" class="clusterblast-orf"  />
</g>
<g id="a26_0026"  >
<polygon locus_tag="AFW04573.1" description="&lt;b&gt;AFW04573.1&lt;/b&gt;&lt;br&gt;methyltransferase MppJ&lt;br&gt;Location: 33720 - 34970" points="411,90 421,90 426,85 421,80 411,80 411,90 " style="stroke-width:1; stroke:black; fill:white; " id="dummy-26_h26_4_26" class="clusterblast-orf"  />
</g>
<g id="a26_0027"  >
<polygon locus_tag="AFW04574.1" description="&lt;b&gt;AFW04574.1&lt;/b&gt;&lt;br&gt;hypothetical protein&lt;br&gt;Location: 34967 - 35362" points="426,90 426,90 431,85 426,80 426,80 426,90 " style="stroke-width:1; stroke:black; fill:white; " id="dummy-26_h26_4_27" class="clusterblast-orf"  />
</g>
<g id="a26_0028"  >
<polygon locus_tag="AFW04575.1" description="&lt;b&gt;AFW04575.1&lt;/b&gt;&lt;br&gt;histidinol-phosphate aminotransferase&lt;br&gt;Location: 35307 - 36512" points="430,90 440,90 445,85 440,80 430,80 430,90 " style="stroke-width:1; stroke:black; fill:white; " id="dummy-26_h26_4_28" class="clusterblast-orf"  />
</g>
<g id="a26_0029"  >
<polygon locus_tag="AFW04576.1" description="&lt;b&gt;AFW04576.1&lt;/b&gt;&lt;br&gt;Glyoxalase/bleomycin resistance protein&lt;br&gt;Location: 36550 - 37014" points="445,90 446,90 451,85 446,80 445,80 445,90 " style="stroke-width:1; stroke:black; fill:white; " id="dummy-26_h26_4_29" class="clusterblast-orf"  />
</g>
<g id="a26_0030"  >
<polygon locus_tag="AFW04577.1" description="&lt;b&gt;AFW04577.1&lt;/b&gt;&lt;br&gt;Leucine carboxyl methyltransferase&lt;br&gt;Location: 37203 - 38048" points="453,85 458,80 463,80 463,90 458,90 453,85 " style="stroke-width:1; stroke:black; fill:white; " id="dummy-26_h26_4_30" class="clusterblast-orf"  />
</g>
<g id="a26_0031"  >
<polygon locus_tag="AFW04578.1" description="&lt;b&gt;AFW04578.1&lt;/b&gt;&lt;br&gt;catechol-O-methyltransferase&lt;br&gt;Location: 38115 - 38885" points="464,85 469,80 474,80 474,90 469,90 464,85 " style="stroke-width:1; stroke:black; fill:white; " id="dummy-26_h26_4_31" class="clusterblast-orf"  />
</g>
<g id="a26_0032"  >
<polygon locus_tag="AFW04579.1" description="&lt;b&gt;AFW04579.1&lt;/b&gt;&lt;br&gt;flavodoxin reductase Hmp&lt;br&gt;Location: 39007 - 39993" points="475,85 480,80 487,80 487,90 480,90 475,85 " style="stroke-width:1; stroke:black; fill:white; " id="dummy-26_h26_4_32" class="clusterblast-orf"  />
</g>
<g id="a26_0033"  >
<polygon locus_tag="AFW04580.1" description="&lt;b&gt;AFW04580.1&lt;/b&gt;&lt;br&gt;transcriptional regulator&lt;br&gt;Location: 40222 - 40845" points="490,85 495,80 498,80 498,90 495,90 490,85 " style="stroke-width:1; stroke:black; fill:white; " id="dummy-26_h26_4_33" class="clusterblast-orf"  />
</g>
<g id="a26_0034"  >
<polygon locus_tag="AFW04581.1" description="&lt;b&gt;AFW04581.1&lt;/b&gt;&lt;br&gt;drug resistance transporter&lt;br&gt;Location: 40939 - 42450" points="499,85 504,80 517,80 517,90 504,90 499,85 " style="stroke-width:1; stroke:black; fill:white; " id="dummy-26_h26_4_34" class="clusterblast-orf"  />
</g>
<g id="a26_0035"  >
<polygon locus_tag="AFW04582.1" description="&lt;b&gt;AFW04582.1&lt;/b&gt;&lt;br&gt;hypothetical protein&lt;br&gt;Location: 42777 - 43202" points="521,85 526,80 526,80 526,90 526,90 521,85 " style="stroke-width:1; stroke:black; fill:white; " id="dummy-26_h26_4_35" class="clusterblast-orf"  />
</g>
<g id="a26_0036"  >
<polygon locus_tag="AFW04583.1" description="&lt;b&gt;AFW04583.1&lt;/b&gt;&lt;br&gt;methyltransferase&lt;br&gt;Location: 43633 - 44679" points="532,90 539,90 544,85 539,80 532,80 532,90 " style="stroke-width:1; stroke:black; fill:white; " id="dummy-26_h26_4_36" class="clusterblast-orf"  />
</g>
<g id="a26_0037"  >
<polygon locus_tag="AFW04584.1" description="&lt;b&gt;AFW04584.1&lt;/b&gt;&lt;br&gt;cytochrome P450&lt;br&gt;Location: 44764 - 45996" points="545,85 550,80 560,80 560,90 550,90 545,85 " style="stroke-width:1; stroke:black; fill:white; " id="dummy-26_h26_4_37" class="clusterblast-orf"  />
</g>
<g id="a26_0038"  >
<polygon locus_tag="AFW04585.1" description="&lt;b&gt;AFW04585.1&lt;/b&gt;&lt;br&gt;Leucine carboxyl methyltransferase&lt;br&gt;Location: 46098 - 47162" points="562,90 570,90 575,85 570,80 562,80 562,90 " style="stroke-width:1; stroke:black; fill:white; " id="dummy-26_h26_4_38" class="clusterblast-orf"  />
</g>
<g id="a26_0039"  >
<polygon locus_tag="AFW04586.1" description="&lt;b&gt;AFW04586.1&lt;/b&gt;&lt;br&gt;Leucine carboxyl methyltransferase&lt;br&gt;Location: 47246 - 48121" points="576,85 581,80 586,80 586,90 581,90 576,85 " style="stroke-width:1; stroke:black; fill:white; " id="dummy-26_h26_4_39" class="clusterblast-orf"  />
</g>
<g id="a26_0040"  >
<polygon locus_tag="AFW04587.1" description="&lt;b&gt;AFW04587.1&lt;/b&gt;&lt;br&gt;4-oxalocrotonate tautomerase&lt;br&gt;Location: 48330 - 48515" points="589,85 591,80 591,90 589,85 " style="stroke-width:1; stroke:black; fill:white; " id="dummy-26_h26_4_40" class="clusterblast-orf"  />
</g>
<g id="a26_0041"  >
<polygon locus_tag="AFW04588.1" description="&lt;b&gt;AFW04588.1&lt;/b&gt;&lt;br&gt;transcriptional regulator&lt;br&gt;Location: 48637 - 49659" points="593,85 598,80 605,80 605,90 598,90 593,85 " style="stroke-width:1; stroke:black; fill:white; " id="dummy-26_h26_4_41" class="clusterblast-orf"  />
</g>
<g id="a26_0042"  >
<polygon locus_tag="AFW04589.1" description="&lt;b&gt;AFW04589.1&lt;/b&gt;&lt;br&gt;asparagine synthase&lt;br&gt;Location: 50080 - 51888" points="610,90 627,90 632,85 627,80 610,80 610,90 " style="stroke-width:1; stroke:black; fill:white; " id="dummy-26_h26_4_42" class="clusterblast-orf"  />
</g>
<g id="a26_0043"  >
<polygon locus_tag="AFW04590.1" description="&lt;b&gt;AFW04590.1&lt;/b&gt;&lt;br&gt;hypothetical protein&lt;br&gt;Location: 51795 - 52931" points="631,90 640,90 645,85 640,80 631,80 631,90 " style="stroke-width:1; stroke:black; fill:white; " id="dummy-26_h26_4_43" class="clusterblast-orf"  />
</g>
<g id="a26_0044"  >
<polygon locus_tag="AFW04591.1" description="&lt;b&gt;AFW04591.1&lt;/b&gt;&lt;br&gt;acyl-CoA dehydrogenase&lt;br&gt;Location: 52910 - 54040" points="645,90 654,90 659,85 654,80 645,80 645,90 " style="stroke-width:1; stroke:black; fill:white; " id="dummy-26_h26_4_44" class="clusterblast-orf"  />
</g>
<g id="a26_0045"  >
<polygon locus_tag="AFW04592.1" description="&lt;b&gt;AFW04592.1&lt;/b&gt;&lt;br&gt;dihydroorotase&lt;br&gt;Location: 54004 - 55419" points="658,90 671,90 676,85 671,80 658,80 658,90 " style="stroke-width:1; stroke:black; fill:white; " id="dummy-26_h26_4_45" class="clusterblast-orf"  />
</g>
<g id="a26_0046"  >
<polygon locus_tag="AFW04593.1" description="&lt;b&gt;AFW04593.1&lt;/b&gt;&lt;br&gt;FAD-dependent oxidoreductase&lt;br&gt;Location: 55355 - 56566" points="675,90 685,90 690,85 685,80 675,80 675,90 " style="stroke-width:1; stroke:black; fill:white; " id="dummy-26_h26_4_46" class="clusterblast-orf"  />
</g>
<g id="a26_0047"  >
<polygon locus_tag="AFW04594.1" description="&lt;b&gt;AFW04594.1&lt;/b&gt;&lt;br&gt;methyltransferase&lt;br&gt;Location: 56625 - 57359" points="690,90 694,90 699,85 694,80 690,80 690,90 " style="stroke-width:1; stroke:black; fill:white; " id="dummy-26_h26_4_47" class="clusterblast-orf"  />
</g>
<g id="a26_0048"  >
<polygon locus_tag="AFW04595.1" description="&lt;b&gt;AFW04595.1&lt;/b&gt;&lt;br&gt;LuxR family transcriptional regulator&lt;br&gt;Location: 57420 - 58187" points="700,85 705,80 709,80 709,90 705,90 700,85 " style="stroke-width:1; stroke:black; fill:white; " id="dummy-26_h26_4_48" class="clusterblast-orf"  />
</g>
<g id="a26_0049"  >
<polygon locus_tag="AFW04596.1" description="&lt;b&gt;AFW04596.1&lt;/b&gt;&lt;br&gt;cyanate MFS transporter&lt;br&gt;Location: 58817 - 60097" points="717,90 728,90 733,85 728,80 717,80 717,90 " style="stroke-width:1; stroke:black; fill:white; " id="dummy-26_h26_4_49" class="clusterblast-orf"  />
</g>
<g id="a26_0050"  >
<polygon locus_tag="AFW04597.1" description="&lt;b&gt;AFW04597.1&lt;/b&gt;&lt;br&gt;ArsR family transcriptional regulator&lt;br&gt;Location: 60099 - 60776" points="733,90 736,90 741,85 736,80 733,80 733,90 " style="stroke-width:1; stroke:black; fill:white; " id="dummy-26_h26_4_50" class="clusterblast-orf"  />
</g>
<g id="a26_0051"  >
<polygon locus_tag="AFW04598.1" description="&lt;b&gt;AFW04598.1&lt;/b&gt;&lt;br&gt;monooxygenase&lt;br&gt;Location: 60787 - 62016" points="741,90 751,90 756,85 751,80 741,80 741,90 " style="stroke-width:1; stroke:black; fill:white; " id="dummy-26_h26_4_51" class="clusterblast-orf"  />
</g>
<g id="a26_0052"  >
<polygon locus_tag="AFW04599.1" description="&lt;b&gt;AFW04599.1&lt;/b&gt;&lt;br&gt;methyltransferase&lt;br&gt;Location: 62085 - 62726" points="757,90 760,90 765,85 760,80 757,80 757,90 " style="stroke-width:1; stroke:black; fill:white; " id="dummy-26_h26_4_52" class="clusterblast-orf"  />
</g>
<g id="a26_0053"  >
<polygon locus_tag="AFW04600.1" description="&lt;b&gt;AFW04600.1&lt;/b&gt;&lt;br&gt;hypothetical protein&lt;br&gt;Location: 62739 - 63098" points="765,85 769,80 769,90 765,85 " style="stroke-width:1; stroke:black; fill:white; " id="dummy-26_h26_4_53" class="clusterblast-orf"  />
</g>
<g id="a26_0054"  >
<polygon locus_tag="AFW04601.1" description="&lt;b&gt;AFW04601.1&lt;/b&gt;&lt;br&gt;short chain dehydrogenase&lt;br&gt;Location: 63095 - 63934" points="769,85 774,80 780,80 780,90 774,90 769,85 " style="stroke-width:1; stroke:black; fill:white; " id="dummy-26_h26_4_54" class="clusterblast-orf"  />
</g>
</svg>
