<svg version="1.1" xmlns="http://www.w3.org/2000/svg" height="230" width="800" xmlns:xlink="http://www.w3.org/1999/xlink" preserveAspectRatio="none" x="0" y="0" viewBox="0 0 800 230"  >
<g label="Query sequence" class="clusterblast-cluster"  >
<text class="clusterblast-acc" y="20" x="5"  >
Query sequence</text>
<line x1="10" x2="778.0" y2="35" style="stroke-width:1; stroke:grey; " y1="35"  />
<polygon locus_tag="SSMG_01128" description="&lt;b&gt;SSMG_01128&lt;/b&gt;&lt;br&gt;predicted protein&lt;br&gt;Location: 1181167 - 1181626" points="0,35 5,30 6,30 6,40 5,40 0,35 " style="stroke-width:1; stroke:black; fill:white; " id="dummy-4_q0_0_all" class="clusterblast-orf"  />
<polygon locus_tag="SSMG_01129" description="&lt;b&gt;SSMG_01129&lt;/b&gt;&lt;br&gt;predicted protein&lt;br&gt;Location: 1181683 - 1181992" points="7,40 11,35 7,30 7,40 " style="stroke-width:1; stroke:black; fill:white; " id="dummy-4_q1_0_all" class="clusterblast-orf"  />
<polygon locus_tag="SSMG_01130" description="&lt;b&gt;SSMG_01130&lt;/b&gt;&lt;br&gt;predicted protein&lt;br&gt;Location: 1182516 - 1183398" points="18,40 25,40 30,35 25,30 18,30 18,40 " style="stroke-width:1; stroke:black; fill:white; " id="dummy-4_q2_0_all" class="clusterblast-orf"  />
<polygon locus_tag="SSMG_01131" description="&lt;b&gt;SSMG_01131&lt;/b&gt;&lt;br&gt;predicted protein&lt;br&gt;Location: 1183322 - 1185011" points="29,40 47,40 52,35 47,30 29,30 29,40 " style="stroke-width:1; stroke:black; fill:white; " id="dummy-4_q3_0_all" class="clusterblast-orf"  />
<polygon locus_tag="SSMG_01132" description="&lt;b&gt;SSMG_01132&lt;/b&gt;&lt;br&gt;predicted protein&lt;br&gt;Location: 1185053 - 1186277" points="53,35 58,30 70,30 70,40 58,40 53,35 " style="stroke-width:1; stroke:black; fill:white; " id="dummy-4_q4_0_all" class="clusterblast-orf"  />
<polygon locus_tag="SSMG_01133" description="&lt;b&gt;SSMG_01133&lt;/b&gt;&lt;br&gt;3-oxoacyl-[acyl-carrier-protein] reductase&lt;br&gt;Location: 1186306 - 1187047" points="70,35 75,30 80,30 80,40 75,40 70,35 " style="stroke-width:1; stroke:black; fill:white; " id="dummy-4_q5_0_all" class="clusterblast-orf"  />
<polygon locus_tag="SSMG_01134" description="&lt;b&gt;SSMG_01134&lt;/b&gt;&lt;br&gt;predicted protein&lt;br&gt;Location: 1187390 - 1188587" points="85,40 96,40 101,35 96,30 85,30 85,40 " style="stroke-width:1; stroke:black; fill:white; " id="dummy-4_q6_0_all" class="clusterblast-orf"  />
<polygon locus_tag="SSMG_01135" description="&lt;b&gt;SSMG_01135&lt;/b&gt;&lt;br&gt;predicted protein&lt;br&gt;Location: 1188621 - 1189476" points="102,40 109,40 114,35 109,30 102,30 102,40 " style="stroke-width:1; stroke:black; fill:#d81515; " id="dummy-4_q7_0_all" class="clusterblast-orf"  />
<polygon locus_tag="SSMG_01136" description="&lt;b&gt;SSMG_01136&lt;/b&gt;&lt;br&gt;hypothetical protein&lt;br&gt;Location: 1189508 - 1190717" points="114,40 126,40 131,35 126,30 114,30 114,40 " style="stroke-width:1; stroke:black; fill:white; " id="dummy-4_q8_0_all" class="clusterblast-orf"  />
<polygon locus_tag="SSMG_01137" description="&lt;b&gt;SSMG_01137&lt;/b&gt;&lt;br&gt;predicted protein&lt;br&gt;Location: 1190703 - 1192098" points="130,40 145,40 150,35 145,30 130,30 130,40 " style="stroke-width:1; stroke:black; fill:white; " id="dummy-4_q9_0_all" class="clusterblast-orf"  />
<polygon locus_tag="SSMG_01138" description="&lt;b&gt;SSMG_01138&lt;/b&gt;&lt;br&gt;predicted protein&lt;br&gt;Location: 1192102 - 1192804" points="150,35 155,30 159,30 159,40 155,40 150,35 " style="stroke-width:1; stroke:black; fill:white; " id="dummy-4_q10_0_all" class="clusterblast-orf"  />
<polygon locus_tag="SSMG_01139" description="&lt;b&gt;SSMG_01139&lt;/b&gt;&lt;br&gt;predicted protein&lt;br&gt;Location: 1192803 - 1194534" points="159,35 164,30 183,30 183,40 164,40 159,35 " style="stroke-width:1; stroke:black; fill:white; " id="dummy-4_q11_0_all" class="clusterblast-orf"  />
<polygon locus_tag="SSMG_01140" description="&lt;b&gt;SSMG_01140&lt;/b&gt;&lt;br&gt;predicted protein&lt;br&gt;Location: 1194538 - 1196152" points="183,35 188,30 205,30 205,40 188,40 183,35 " style="stroke-width:1; stroke:black; fill:white; " id="dummy-4_q12_0_all" class="clusterblast-orf"  />
<polygon locus_tag="SSMG_01141" description="&lt;b&gt;SSMG_01141&lt;/b&gt;&lt;br&gt;predicted protein&lt;br&gt;Location: 1196148 - 1196550" points="205,35 210,30 211,30 211,40 210,40 205,35 " style="stroke-width:1; stroke:black; fill:white; " id="dummy-4_q13_0_all" class="clusterblast-orf"  />
<polygon locus_tag="SSMG_01142" description="&lt;b&gt;SSMG_01142&lt;/b&gt;&lt;br&gt;predicted protein&lt;br&gt;Location: 1196546 - 1196816" points="211,35 214,30 214,40 211,35 " style="stroke-width:1; stroke:black; fill:white; " id="dummy-4_q14_0_all" class="clusterblast-orf"  />
<polygon locus_tag="SSMG_01143" description="&lt;b&gt;SSMG_01143&lt;/b&gt;&lt;br&gt;hypothetical protein&lt;br&gt;Location: 1196812 - 1198531" points="214,35 219,30 238,30 238,40 219,40 214,35 " style="stroke-width:1; stroke:black; fill:white; " id="dummy-4_q15_0_all" class="clusterblast-orf"  />
<polygon locus_tag="SSMG_01144" description="&lt;b&gt;SSMG_01144&lt;/b&gt;&lt;br&gt;hypothetical protein&lt;br&gt;Location: 1198527 - 1199619" points="238,35 243,30 253,30 253,40 243,40 238,35 " style="stroke-width:1; stroke:black; fill:white; " id="dummy-4_q16_0_all" class="clusterblast-orf"  />
<polygon locus_tag="SSMG_01145" description="&lt;b&gt;SSMG_01145&lt;/b&gt;&lt;br&gt;phosphonopyruvate decarboxylase&lt;br&gt;Location: 1199615 - 1200734" points="253,35 258,30 268,30 268,40 258,40 253,35 " style="stroke-width:1; stroke:black; fill:#15d815; " id="dummy-4_q17_0_all" class="clusterblast-orf"  />
<polygon locus_tag="SSMG_01146" description="&lt;b&gt;SSMG_01146&lt;/b&gt;&lt;br&gt;phosphoenolpyruvate phosphomutase&lt;br&gt;Location: 1200730 - 1201795" points="268,35 273,30 283,30 283,40 273,40 268,35 " style="stroke-width:1; stroke:black; fill:#1515d8; " id="dummy-4_q18_0_all" class="clusterblast-orf"  />
<polygon locus_tag="SSMG_01147" description="&lt;b&gt;SSMG_01147&lt;/b&gt;&lt;br&gt;1-acyl-sn-glycerol-3-phosphate acyltransferase&lt;br&gt;Location: 1201793 - 1202558" points="283,40 288,40 293,35 288,30 283,30 283,40 " style="stroke-width:1; stroke:black; fill:white; " id="dummy-4_q19_0_all" class="clusterblast-orf"  />
<polygon locus_tag="SSMG_01148" description="&lt;b&gt;SSMG_01148&lt;/b&gt;&lt;br&gt;modular polyketide synthase&lt;br&gt;Location: 1202667 - 1218009" points="294,40 500,40 505,35 500,30 294,30 294,40 " style="stroke-width:1; stroke:black; fill:white; " id="dummy-4_q20_0_all" class="clusterblast-orf"  />
<polygon locus_tag="SSMG_01149" description="&lt;b&gt;SSMG_01149&lt;/b&gt;&lt;br&gt;predicted protein&lt;br&gt;Location: 1218030 - 1219026" points="505,40 514,40 519,35 514,30 505,30 505,40 " style="stroke-width:1; stroke:black; fill:white; " id="dummy-4_q21_0_all" class="clusterblast-orf"  />
<polygon locus_tag="SSMG_01150" description="&lt;b&gt;SSMG_01150&lt;/b&gt;&lt;br&gt;predicted protein&lt;br&gt;Location: 1219221 - 1219599" points="522,40 522,40 527,35 522,30 522,30 522,40 " style="stroke-width:1; stroke:black; fill:white; " id="dummy-4_q22_0_all" class="clusterblast-orf"  />
<polygon locus_tag="SSMG_01151" description="&lt;b&gt;SSMG_01151&lt;/b&gt;&lt;br&gt;hypothetical protein&lt;br&gt;Location: 1220258 - 1221827" points="536,35 541,30 557,30 557,40 541,40 536,35 " style="stroke-width:1; stroke:black; fill:white; " id="dummy-4_q23_0_all" class="clusterblast-orf"  />
<polygon locus_tag="SSMG_01152" description="&lt;b&gt;SSMG_01152&lt;/b&gt;&lt;br&gt;secreted protein&lt;br&gt;Location: 1223516 - 1225721" points="580,40 606,40 611,35 606,30 580,30 580,40 " style="stroke-width:1; stroke:black; fill:white; " id="dummy-4_q24_0_all" class="clusterblast-orf"  />
<polygon locus_tag="SSMG_01153" description="&lt;b&gt;SSMG_01153&lt;/b&gt;&lt;br&gt;thioredoxin reductase&lt;br&gt;Location: 1225751 - 1227482" points="611,40 630,40 635,35 630,30 611,30 611,40 " style="stroke-width:1; stroke:black; fill:white; " id="dummy-4_q25_0_all" class="clusterblast-orf"  />
<polygon locus_tag="SSMG_01154" description="&lt;b&gt;SSMG_01154&lt;/b&gt;&lt;br&gt;two-component sensor histidine kinase&lt;br&gt;Location: 1227478 - 1228906" points="635,40 649,40 654,35 649,30 635,30 635,40 " style="stroke-width:1; stroke:black; fill:white; " id="dummy-4_q26_0_all" class="clusterblast-orf"  />
<polygon locus_tag="SSMG_01155" description="&lt;b&gt;SSMG_01155&lt;/b&gt;&lt;br&gt;predicted protein&lt;br&gt;Location: 1229198 - 1229696" points="658,35 663,30 665,30 665,40 663,40 658,35 " style="stroke-width:1; stroke:black; fill:white; " id="dummy-4_q27_0_all" class="clusterblast-orf"  />
<polygon locus_tag="SSMG_01156" description="&lt;b&gt;SSMG_01156&lt;/b&gt;&lt;br&gt;predicted protein&lt;br&gt;Location: 1229698 - 1230031" points="665,35 670,30 670,30 670,40 670,40 665,35 " style="stroke-width:1; stroke:black; fill:white; " id="dummy-4_q28_0_all" class="clusterblast-orf"  />
<polygon locus_tag="SSMG_01157" description="&lt;b&gt;SSMG_01157&lt;/b&gt;&lt;br&gt;transposase&lt;br&gt;Location: 1230579 - 1231830" points="677,35 682,30 694,30 694,40 682,40 677,35 " style="stroke-width:1; stroke:black; fill:white; " id="dummy-4_q29_0_all" class="clusterblast-orf"  />
<polygon locus_tag="SSMG_01158" description="&lt;b&gt;SSMG_01158&lt;/b&gt;&lt;br&gt;pentapeptide repeat-containing protein&lt;br&gt;Location: 1232257 - 1232881" points="700,40 704,40 709,35 704,30 700,30 700,40 " style="stroke-width:1; stroke:black; fill:white; " id="dummy-4_q30_0_all" class="clusterblast-orf"  />
<polygon locus_tag="SSMG_01159" description="&lt;b&gt;SSMG_01159&lt;/b&gt;&lt;br&gt;oxidoreductase molybdopterin binding protein&lt;br&gt;Location: 1232929 - 1233529" points="710,40 713,40 718,35 713,30 710,30 710,40 " style="stroke-width:1; stroke:black; fill:white; " id="dummy-4_q31_0_all" class="clusterblast-orf"  />
<polygon locus_tag="SSMG_01160" description="&lt;b&gt;SSMG_01160&lt;/b&gt;&lt;br&gt;oxidoreductase FAD-binding region&lt;br&gt;Location: 1233462 - 1234242" points="717,40 723,40 728,35 723,30 717,30 717,40 " style="stroke-width:1; stroke:black; fill:white; " id="dummy-4_q32_0_all" class="clusterblast-orf"  />
<polygon locus_tag="SSMG_01161" description="&lt;b&gt;SSMG_01161&lt;/b&gt;&lt;br&gt;predicted protein&lt;br&gt;Location: 1234255 - 1236640" points="728,35 733,30 760,30 760,40 733,40 728,35 " style="stroke-width:1; stroke:black; fill:white; " id="dummy-4_q33_0_all" class="clusterblast-orf"  />
<polygon locus_tag="SSMG_01162" description="&lt;b&gt;SSMG_01162&lt;/b&gt;&lt;br&gt;predicted protein&lt;br&gt;Location: 1236876 - 1238043" points="764,35 769,30 780,30 780,40 769,40 764,35 " style="stroke-width:1; stroke:black; fill:white; " id="dummy-4_q34_0_all" class="clusterblast-orf"  />
</g>
<g label="BGC0001898" description="BGC0001898_c1: thioplatensimycin / thioplatencin (4% of genes show similarity), Terpene" class="clusterblast-cluster"  >
<text class="clusterblast-acc" y="70" x="5"  >
<a xlink:href="https://mibig.secondarymetabolites.org/go/BGC0001898/1" target="_blank">BGC0001898</a>:                                                thioplatensimycin / thioplatencin (4% of genes show similarity), Terpene</text>
<line x1="10" x2="778.0" y2="85" style="stroke-width:1; stroke:grey; " y1="85"  />
</g>
<g id="a4_000"  >
<polygon locus_tag="ACS13713.1" description="&lt;b&gt;ACS13713.1&lt;/b&gt;&lt;br&gt;unknown&lt;br&gt;Location: 46907 - 45738" points="73,90 84,90 89,85 84,80 73,80 73,90 " style="stroke-width:1; stroke:black; fill:white; " id="dummy-4_h4_2_0" class="clusterblast-orf"  />
</g>
<g id="a4_001"  >
<polygon locus_tag="ACS13712.1" description="&lt;b&gt;ACS13712.1&lt;/b&gt;&lt;br&gt;PtmO9&lt;br&gt;Location: 45606 - 45271" points="91,85 95,80 95,90 91,85 " style="stroke-width:1; stroke:black; fill:white; " id="dummy-4_h4_2_1" class="clusterblast-orf"  />
</g>
<g id="a4_002"  >
<polygon locus_tag="ACS13711.1" description="&lt;b&gt;ACS13711.1&lt;/b&gt;&lt;br&gt;PtmP4&lt;br&gt;Location: 45247 - 43625" points="96,85 101,80 118,80 118,90 101,90 96,85 " style="stroke-width:1; stroke:black; fill:white; " id="dummy-4_h4_2_2" class="clusterblast-orf"  />
</g>
<g id="a4_003"  >
<polygon locus_tag="ACS13710.1" description="&lt;b&gt;ACS13710.1&lt;/b&gt;&lt;br&gt;PtmP3&lt;br&gt;Location: 43507 - 42293" points="120,85 125,80 136,80 136,90 125,90 120,85 " style="stroke-width:1; stroke:black; fill:white; " id="dummy-4_h4_2_3" class="clusterblast-orf"  />
</g>
<g id="a4_004"  >
<polygon locus_tag="ACO31297.1" description="&lt;b&gt;ACO31297.1&lt;/b&gt;&lt;br&gt;PtmA3&lt;br&gt;Location: 42125 - 40542" points="139,85 144,80 160,80 160,90 144,90 139,85 " style="stroke-width:1; stroke:black; fill:white; " id="dummy-4_h4_2_4" class="clusterblast-orf"  />
</g>
<g id="a4_005"  >
<polygon locus_tag="ACO31296.1" description="&lt;b&gt;ACO31296.1&lt;/b&gt;&lt;br&gt;PtmU4&lt;br&gt;Location: 40503 - 38713" points="161,85 166,80 185,80 185,90 166,90 161,85 " style="stroke-width:1; stroke:black; fill:white; " id="dummy-4_h4_2_5" class="clusterblast-orf"  />
</g>
<g id="a4_006"  >
<polygon locus_tag="ACO31295.1" description="&lt;b&gt;ACO31295.1&lt;/b&gt;&lt;br&gt;PtmO8&lt;br&gt;Location: 38716 - 37880" points="185,85 190,80 197,80 197,90 190,90 185,85 " style="stroke-width:1; stroke:black; fill:white; " id="dummy-4_h4_2_6" class="clusterblast-orf"  />
</g>
<g id="a4_007"  >
<polygon locus_tag="ACO31294.1" description="&lt;b&gt;ACO31294.1&lt;/b&gt;&lt;br&gt;PtmR1&lt;br&gt;Location: 37588 - 36872" points="201,90 206,90 211,85 206,80 201,80 201,90 " style="stroke-width:1; stroke:black; fill:white; " id="dummy-4_h4_2_7" class="clusterblast-orf"  />
</g>
<g id="a4_008"  >
<polygon locus_tag="ACO31293.1" description="&lt;b&gt;ACO31293.1&lt;/b&gt;&lt;br&gt;PtmO7&lt;br&gt;Location: 36839 - 35934" points="211,85 216,80 224,80 224,90 216,90 211,85 " style="stroke-width:1; stroke:black; fill:white; " id="dummy-4_h4_2_8" class="clusterblast-orf"  />
</g>
<g id="a4_009"  >
<polygon locus_tag="ACO31292.1" description="&lt;b&gt;ACO31292.1&lt;/b&gt;&lt;br&gt;PtmP2&lt;br&gt;Location: 35919 - 34675" points="224,85 229,80 241,80 241,90 229,90 224,85 " style="stroke-width:1; stroke:black; fill:white; " id="dummy-4_h4_2_9" class="clusterblast-orf"  />
</g>
<g id="a4_0010"  >
<polygon locus_tag="ACO31291.1" description="&lt;b&gt;ACO31291.1&lt;/b&gt;&lt;br&gt;PtmP1&lt;br&gt;Location: 34603 - 33179" points="242,90 256,90 261,85 256,80 242,80 242,90 " style="stroke-width:1; stroke:black; fill:white; " id="dummy-4_h4_2_10" class="clusterblast-orf"  />
</g>
<g id="a4_0011"  >
<polygon locus_tag="ACO31290.1" description="&lt;b&gt;ACO31290.1&lt;/b&gt;&lt;br&gt;PtmC&lt;br&gt;Location: 33093 - 32218" points="263,85 268,80 275,80 275,90 268,90 263,85 " style="stroke-width:1; stroke:black; fill:white; " id="dummy-4_h4_2_11" class="clusterblast-orf"  />
</g>
<g id="a4_0012"  >
<polygon locus_tag="ACO31289.1" description="&lt;b&gt;ACO31289.1&lt;/b&gt;&lt;br&gt;PtmB3&lt;br&gt;Location: 32159 - 30969" points="275,85 280,80 292,80 292,90 280,90 275,85 " style="stroke-width:1; stroke:black; fill:white; " id="dummy-4_h4_2_12" class="clusterblast-orf"  />
</g>
<g id="a4_0013"  >
<polygon locus_tag="ACO31288.1" description="&lt;b&gt;ACO31288.1&lt;/b&gt;&lt;br&gt;PtmB2&lt;br&gt;Location: 30963 - 29857" points="292,85 297,80 307,80 307,90 297,90 292,85 " style="stroke-width:1; stroke:black; fill:white; " id="dummy-4_h4_2_13" class="clusterblast-orf"  />
</g>
<g id="a4_0014"  >
<polygon locus_tag="ACO31287.1" description="&lt;b&gt;ACO31287.1&lt;/b&gt;&lt;br&gt;PtmB1&lt;br&gt;Location: 29805 - 28972" points="308,85 313,80 319,80 319,90 313,90 308,85 " style="stroke-width:1; stroke:black; fill:white; " id="dummy-4_h4_2_14" class="clusterblast-orf"  />
</g>
<g id="a4_0015"  >
<polygon locus_tag="ACO31286.1" description="&lt;b&gt;ACO31286.1&lt;/b&gt;&lt;br&gt;PtmM3&lt;br&gt;Location: 28894 - 27131" points="320,85 325,80 344,80 344,90 325,90 320,85 " style="stroke-width:1; stroke:black; fill:white; " id="dummy-4_h4_2_15" class="clusterblast-orf"  />
</g>
<g id="a4_0016"  >
<polygon locus_tag="ACO31285.1" description="&lt;b&gt;ACO31285.1&lt;/b&gt;&lt;br&gt;PtmM2&lt;br&gt;Location: 27144 - 26044" points="344,85 349,80 359,80 359,90 349,90 344,85 " style="stroke-width:1; stroke:black; fill:white; " id="dummy-4_h4_2_16" class="clusterblast-orf"  />
</g>
<g id="a4_0017"  >
<polygon locus_tag="ACO31284.1" description="&lt;b&gt;ACO31284.1&lt;/b&gt;&lt;br&gt;PtmM1&lt;br&gt;Location: 26036 - 24690" points="359,85 364,80 378,80 378,90 364,90 359,85 " style="stroke-width:1; stroke:black; fill:white; " id="dummy-4_h4_2_17" class="clusterblast-orf"  />
</g>
<g id="a4_0018"  >
<polygon locus_tag="ACO31283.1" description="&lt;b&gt;ACO31283.1&lt;/b&gt;&lt;br&gt;PtmT4&lt;br&gt;Location: 24690 - 23644" points="378,85 383,80 392,80 392,90 383,90 378,85 " style="stroke-width:1; stroke:black; fill:white; " id="dummy-4_h4_2_18" class="clusterblast-orf"  />
</g>
<g id="a4_0019"  >
<polygon locus_tag="ACO31282.1" description="&lt;b&gt;ACO31282.1&lt;/b&gt;&lt;br&gt;PtmO6&lt;br&gt;Location: 23587 - 22745" points="393,85 398,80 404,80 404,90 398,90 393,85 " style="stroke-width:1; stroke:black; fill:white; " id="dummy-4_h4_2_19" class="clusterblast-orf"  />
</g>
<g id="a4_0020"  >
<polygon locus_tag="ACO31281.1" description="&lt;b&gt;ACO31281.1&lt;/b&gt;&lt;br&gt;PtmR3&lt;br&gt;Location: 22657 - 21590" points="406,85 411,80 420,80 420,90 411,90 406,85 " style="stroke-width:1; stroke:black; fill:white; " id="dummy-4_h4_2_20" class="clusterblast-orf"  />
</g>
<g id="a4_0021"  >
<polygon locus_tag="ACO31280.1" description="&lt;b&gt;ACO31280.1&lt;/b&gt;&lt;br&gt;PtmO5&lt;br&gt;Location: 21593 - 20301" points="420,85 425,80 438,80 438,90 425,90 420,85 " style="stroke-width:1; stroke:black; fill:white; " id="dummy-4_h4_2_21" class="clusterblast-orf"  />
</g>
<g id="a4_0022"  >
<polygon locus_tag="ACO31279.1" description="&lt;b&gt;ACO31279.1&lt;/b&gt;&lt;br&gt;PtmT3&lt;br&gt;Location: 20260 - 19331" points="439,85 444,80 451,80 451,90 444,90 439,85 " style="stroke-width:1; stroke:black; fill:white; " id="dummy-4_h4_2_22" class="clusterblast-orf"  />
</g>
<g id="a4_0023"  >
<polygon locus_tag="ACO31278.1" description="&lt;b&gt;ACO31278.1&lt;/b&gt;&lt;br&gt;PtmO4&lt;br&gt;Location: 19334 - 18168" points="451,85 456,80 467,80 467,90 456,90 451,85 " style="stroke-width:1; stroke:black; fill:white; " id="dummy-4_h4_2_23" class="clusterblast-orf"  />
</g>
<g id="a4_0024"  >
<polygon locus_tag="ACO31277.1" description="&lt;b&gt;ACO31277.1&lt;/b&gt;&lt;br&gt;PtmO3&lt;br&gt;Location: 18168 - 17311" points="467,85 472,80 479,80 479,90 472,90 467,85 " style="stroke-width:1; stroke:black; fill:white; " id="dummy-4_h4_2_24" class="clusterblast-orf"  />
</g>
<g id="a4_0025"  >
<polygon locus_tag="ACO31276.1" description="&lt;b&gt;ACO31276.1&lt;/b&gt;&lt;br&gt;PtmT2&lt;br&gt;Location: 17173 - 15572" points="481,90 498,90 503,85 498,80 481,80 481,90 " style="stroke-width:1; stroke:black; fill:white; " id="dummy-4_h4_2_25" class="clusterblast-orf"  />
</g>
<g id="a4_0026"  >
<polygon locus_tag="ACO31275.1" description="&lt;b&gt;ACO31275.1&lt;/b&gt;&lt;br&gt;PtmO2&lt;br&gt;Location: 15572 - 14250" points="503,90 516,90 521,85 516,80 503,80 503,90 " style="stroke-width:1; stroke:black; fill:white; " id="dummy-4_h4_2_26" class="clusterblast-orf"  />
</g>
<g id="a4_0027"  >
<polygon locus_tag="ACO31274.1" description="&lt;b&gt;ACO31274.1&lt;/b&gt;&lt;br&gt;PtmT1&lt;br&gt;Location: 14253 - 13327" points="521,90 529,90 534,85 529,80 521,80 521,90 " style="stroke-width:1; stroke:black; fill:white; " id="dummy-4_h4_2_27" class="clusterblast-orf"  />
</g>
<g id="a4_0028"  >
<polygon locus_tag="ACO31273.1" description="&lt;b&gt;ACO31273.1&lt;/b&gt;&lt;br&gt;PtmH&lt;br&gt;Location: 13262 - 12408" points="534,90 541,90 546,85 541,80 534,80 534,90 " style="stroke-width:1; stroke:black; fill:white; " id="dummy-4_h4_2_28" class="clusterblast-orf"  />
</g>
<g id="a4_0029"  >
<polygon locus_tag="ACO31272.1" description="&lt;b&gt;ACO31272.1&lt;/b&gt;&lt;br&gt;PtmU3&lt;br&gt;Location: 12326 - 11244" points="547,90 557,90 562,85 557,80 547,80 547,90 " style="stroke-width:1; stroke:black; fill:white; " id="dummy-4_h4_2_29" class="clusterblast-orf"  />
</g>
<g id="a4_0030"  >
<polygon locus_tag="ACO31271.1" description="&lt;b&gt;ACO31271.1&lt;/b&gt;&lt;br&gt;PtmA2&lt;br&gt;Location: 11215 - 9647" points="563,90 579,90 584,85 579,80 563,80 563,90 " style="stroke-width:1; stroke:black; fill:white; " id="dummy-4_h4_2_30" class="clusterblast-orf"  />
</g>
<g id="a4_0031"  >
<polygon locus_tag="ACO31270.1" description="&lt;b&gt;ACO31270.1&lt;/b&gt;&lt;br&gt;PtmD&lt;br&gt;Location: 9645 - 8488" points="584,90 595,90 600,85 595,80 584,80 584,90 " style="stroke-width:1; stroke:black; fill:white; " id="dummy-4_h4_2_31" class="clusterblast-orf"  />
</g>
<g id="a4_0032"  >
<polygon locus_tag="ACO31269.1" description="&lt;b&gt;ACO31269.1&lt;/b&gt;&lt;br&gt;PtmR2&lt;br&gt;Location: 8488 - 8087" points="600,90 600,90 605,85 600,80 600,80 600,90 " style="stroke-width:1; stroke:black; fill:white; " id="dummy-4_h4_2_32" class="clusterblast-orf"  />
</g>
<g id="a4_0033"  >
<polygon locus_tag="ACO31268.1" description="&lt;b&gt;ACO31268.1&lt;/b&gt;&lt;br&gt;PtmU2&lt;br&gt;Location: 8041 - 7331" points="606,85 611,80 616,80 616,90 611,90 606,85 " style="stroke-width:1; stroke:black; fill:white; " id="dummy-4_h4_2_33" class="clusterblast-orf"  />
</g>
<g id="a4_0034"  >
<polygon locus_tag="ACO31267.1" description="&lt;b&gt;ACO31267.1&lt;/b&gt;&lt;br&gt;PtmA1&lt;br&gt;Location: 7334 - 6030" points="616,85 621,80 634,80 634,90 621,90 616,85 " style="stroke-width:1; stroke:black; fill:white; " id="dummy-4_h4_2_34" class="clusterblast-orf"  />
</g>
<g id="a4_0035"  >
<polygon locus_tag="ACO31266.1" description="&lt;b&gt;ACO31266.1&lt;/b&gt;&lt;br&gt;PtmU1&lt;br&gt;Location: 5943 - 5389" points="635,90 637,90 642,85 637,80 635,80 635,90 " style="stroke-width:1; stroke:black; fill:white; " id="dummy-4_h4_2_35" class="clusterblast-orf"  />
</g>
<g id="a4_0036"  >
<polygon locus_tag="ACO31265.1" description="&lt;b&gt;ACO31265.1&lt;/b&gt;&lt;br&gt;Ptm01&lt;br&gt;Location: 5392 - 4628" points="642,90 648,90 653,85 648,80 642,80 642,90 " style="stroke-width:1; stroke:black; fill:white; " id="dummy-4_h4_2_36" class="clusterblast-orf"  />
</g>
<g id="a4_0037"  >
<polygon locus_tag="ACO31264.1" description="&lt;b&gt;ACO31264.1&lt;/b&gt;&lt;br&gt;unknown&lt;br&gt;Location: 4531 - 3848" points="654,90 659,90 664,85 659,80 654,80 654,90 " style="stroke-width:1; stroke:black; fill:white; " id="dummy-4_h4_2_37" class="clusterblast-orf"  />
</g>
<g id="a4_0038"  >
<polygon locus_tag="ACO31263.1" description="&lt;b&gt;ACO31263.1&lt;/b&gt;&lt;br&gt;unknown&lt;br&gt;Location: 3829 - 2927&lt;br&gt;&lt;br&gt;&lt;b&gt;BlastP hit with SSMG_01135&lt;/b&gt;&lt;br&gt;Percentage identity: 52&lt;br&gt;Percentage coverage: 97&lt;br&gt;BLAST bit score: 309&lt;br&gt;E-value: 7.6e-84" points="664,90 671,90 676,85 671,80 664,80 664,90 " style="stroke-width:1; stroke:black; fill:#d81515; " id="dummy-4_h4_2_38" class="clusterblast-orf"  />
</g>
<g id="a4_0039"  >
<polygon locus_tag="ACO31262.1" description="&lt;b&gt;ACO31262.1&lt;/b&gt;&lt;br&gt;unknown&lt;br&gt;Location: 2911 - 1892&lt;br&gt;&lt;br&gt;&lt;b&gt;BlastP hit with SSMG_01146&lt;/b&gt;&lt;br&gt;Percentage identity: 47&lt;br&gt;Percentage coverage: 79&lt;br&gt;BLAST bit score: 247&lt;br&gt;E-value: 3.4e-65" points="676,90 685,90 690,85 685,80 676,80 676,90 " style="stroke-width:1; stroke:black; fill:#1515d8; " id="dummy-4_h4_2_39" class="clusterblast-orf"  />
</g>
<g id="a4_0040"  >
<polygon locus_tag="ACO31261.1" description="&lt;b&gt;ACO31261.1&lt;/b&gt;&lt;br&gt;unknown&lt;br&gt;Location: 1895 - 759" points="690,90 701,90 706,85 701,80 690,80 690,90 " style="stroke-width:1; stroke:black; fill:white; " id="dummy-4_h4_2_40" class="clusterblast-orf"  />
</g>
</svg>
