<svg version="1.1" xmlns="http://www.w3.org/2000/svg" height="230" width="800" xmlns:xlink="http://www.w3.org/1999/xlink" preserveAspectRatio="none" x="0" y="0" viewBox="0 0 800 230"  >
<g label="Query sequence" class="clusterblast-cluster"  >
<text class="clusterblast-acc" y="20" x="5"  >
Query sequence</text>
<line x1="10" x2="778.0" y2="35" style="stroke-width:1; stroke:grey; " y1="35"  />
<polygon locus_tag="SSMG_04068" description="&lt;b&gt;SSMG_04068&lt;/b&gt;&lt;br&gt;predicted protein&lt;br&gt;Location: 4430591 - 4431389" points="261,40 265,35 261,30 261,40 " style="stroke-width:1; stroke:black; fill:white; " id="dummy-16_q0_0_all" class="clusterblast-orf"  />
<polygon locus_tag="SSMG_04069" description="&lt;b&gt;SSMG_04069&lt;/b&gt;&lt;br&gt;proline/betaine transporter&lt;br&gt;Location: 4431385 - 4432696" points="265,40 268,40 273,35 268,30 265,30 265,40 " style="stroke-width:1; stroke:black; fill:white; " id="dummy-16_q1_0_all" class="clusterblast-orf"  />
<polygon locus_tag="SSMG_04070" description="&lt;b&gt;SSMG_04070&lt;/b&gt;&lt;br&gt;predicted protein&lt;br&gt;Location: 4432692 - 4434222" points="273,40 277,40 282,35 277,30 273,30 273,40 " style="stroke-width:1; stroke:black; fill:white; " id="dummy-16_q2_0_all" class="clusterblast-orf"  />
<polygon locus_tag="SSMG_04071" description="&lt;b&gt;SSMG_04071&lt;/b&gt;&lt;br&gt;predicted protein&lt;br&gt;Location: 4434196 - 4436218" points="281,40 288,40 293,35 288,30 281,30 281,40 " style="stroke-width:1; stroke:black; fill:white; " id="dummy-16_q3_0_all" class="clusterblast-orf"  />
<polygon locus_tag="SSMG_04072" description="&lt;b&gt;SSMG_04072&lt;/b&gt;&lt;br&gt;predicted protein&lt;br&gt;Location: 4436425 - 4437238" points="294,35 299,30 299,30 299,40 299,40 294,35 " style="stroke-width:1; stroke:black; fill:white; " id="dummy-16_q4_0_all" class="clusterblast-orf"  />
<polygon locus_tag="SSMG_04073" description="&lt;b&gt;SSMG_04073&lt;/b&gt;&lt;br&gt;major facilitator superfamily transporter permease&lt;br&gt;Location: 4437234 - 4438521" points="299,35 304,30 306,30 306,40 304,40 299,35 " style="stroke-width:1; stroke:black; fill:white; " id="dummy-16_q5_0_all" class="clusterblast-orf"  />
<polygon locus_tag="SSMG_04074" description="&lt;b&gt;SSMG_04074&lt;/b&gt;&lt;br&gt;conserved hypothetical protein&lt;br&gt;Location: 4438628 - 4441787" points="306,40 319,40 324,35 319,30 306,30 306,40 " style="stroke-width:1; stroke:black; fill:white; " id="dummy-16_q6_0_all" class="clusterblast-orf"  />
<polygon locus_tag="SSMG_04075" description="&lt;b&gt;SSMG_04075&lt;/b&gt;&lt;br&gt;predicted protein&lt;br&gt;Location: 4442155 - 4443325" points="326,35 331,30 333,30 333,40 331,40 326,35 " style="stroke-width:1; stroke:black; fill:white; " id="dummy-16_q7_0_all" class="clusterblast-orf"  />
<polygon locus_tag="SSMG_04076" description="&lt;b&gt;SSMG_04076&lt;/b&gt;&lt;br&gt;acetyl coenzyme A synthetase&lt;br&gt;Location: 4443318 - 4445454" points="333,40 340,40 345,35 340,30 333,30 333,40 " style="stroke-width:1; stroke:black; fill:white; " id="dummy-16_q8_0_all" class="clusterblast-orf"  />
<polygon locus_tag="SSMG_04077" description="&lt;b&gt;SSMG_04077&lt;/b&gt;&lt;br&gt;predicted protein&lt;br&gt;Location: 4445446 - 4446766" points="345,40 348,40 353,35 348,30 345,30 345,40 " style="stroke-width:1; stroke:black; fill:white; " id="dummy-16_q9_0_all" class="clusterblast-orf"  />
<polygon locus_tag="SSMG_04078" description="&lt;b&gt;SSMG_04078&lt;/b&gt;&lt;br&gt;predicted protein&lt;br&gt;Location: 4446822 - 4448145" points="353,40 355,40 360,35 355,30 353,30 353,40 " style="stroke-width:1; stroke:black; fill:white; " id="dummy-16_q10_0_all" class="clusterblast-orf"  />
<polygon locus_tag="SSMG_04079" description="&lt;b&gt;SSMG_04079&lt;/b&gt;&lt;br&gt;predicted protein&lt;br&gt;Location: 4448144 - 4449326" points="360,40 362,40 367,35 362,30 360,30 360,40 " style="stroke-width:1; stroke:black; fill:white; " id="dummy-16_q11_0_all" class="clusterblast-orf"  />
<polygon locus_tag="SSMG_04080" description="&lt;b&gt;SSMG_04080&lt;/b&gt;&lt;br&gt;cytochrome P450&lt;br&gt;Location: 4449339 - 4450548" points="367,35 372,30 374,30 374,40 372,40 367,35 " style="stroke-width:1; stroke:black; fill:#d81515; " id="dummy-16_q12_0_all" class="clusterblast-orf"  />
<polygon locus_tag="SSMG_04081" description="&lt;b&gt;SSMG_04081&lt;/b&gt;&lt;br&gt;predicted protein&lt;br&gt;Location: 4450544 - 4456262" points="374,35 379,30 406,30 406,40 379,40 374,35 " style="stroke-width:1; stroke:black; fill:#15d8d8; " id="dummy-16_q13_0_all" class="clusterblast-orf"  />
<polygon locus_tag="SSMG_04082" description="&lt;b&gt;SSMG_04082&lt;/b&gt;&lt;br&gt;predicted protein&lt;br&gt;Location: 4456548 - 4457130" points="408,40 411,35 408,30 408,40 " style="stroke-width:1; stroke:black; fill:white; " id="dummy-16_q14_0_all" class="clusterblast-orf"  />
<polygon locus_tag="SSMG_04083" description="&lt;b&gt;SSMG_04083&lt;/b&gt;&lt;br&gt;translation elongation factor EF-1, subunit alpha&lt;br&gt;Location: 4457199 - 4459032" points="412,35 417,30 422,30 422,40 417,40 412,35 " style="stroke-width:1; stroke:black; fill:white; " id="dummy-16_q15_0_all" class="clusterblast-orf"  />
<polygon locus_tag="SSMG_04084" description="&lt;b&gt;SSMG_04084&lt;/b&gt;&lt;br&gt;sulfate adenylyltransferase subunit 2&lt;br&gt;Location: 4459028 - 4459946" points="422,35 427,30 427,30 427,40 427,40 422,35 " style="stroke-width:1; stroke:black; fill:white; " id="dummy-16_q16_0_all" class="clusterblast-orf"  />
<polygon locus_tag="SSMG_04085" description="&lt;b&gt;SSMG_04085&lt;/b&gt;&lt;br&gt;baiE protein&lt;br&gt;Location: 4460028 - 4460502" points="428,40 430,35 428,30 428,40 " style="stroke-width:1; stroke:black; fill:white; " id="dummy-16_q17_0_all" class="clusterblast-orf"  />
<polygon locus_tag="SSMG_04086" description="&lt;b&gt;SSMG_04086&lt;/b&gt;&lt;br&gt;transcriptional regulator&lt;br&gt;Location: 4460511 - 4461399" points="430,35 435,30 435,30 435,40 435,40 430,35 " style="stroke-width:1; stroke:black; fill:white; " id="dummy-16_q18_0_all" class="clusterblast-orf"  />
<polygon locus_tag="SSMG_04087" description="&lt;b&gt;SSMG_04087&lt;/b&gt;&lt;br&gt;conserved hypothetical protein&lt;br&gt;Location: 4461487 - 4462654" points="436,40 438,40 443,35 438,30 436,30 436,40 " style="stroke-width:1; stroke:black; fill:white; " id="dummy-16_q19_0_all" class="clusterblast-orf"  />
<polygon locus_tag="SSMG_04088" description="&lt;b&gt;SSMG_04088&lt;/b&gt;&lt;br&gt;3-oxoacyl-[acyl-carrier-protein] reductase&lt;br&gt;Location: 4462658 - 4463438" points="443,40 447,35 443,30 443,40 " style="stroke-width:1; stroke:black; fill:white; " id="dummy-16_q20_0_all" class="clusterblast-orf"  />
<polygon locus_tag="SSMG_04089" description="&lt;b&gt;SSMG_04089&lt;/b&gt;&lt;br&gt;conserved hypothetical protein&lt;br&gt;Location: 4463448 - 4464600" points="447,40 449,40 454,35 449,30 447,30 447,40 " style="stroke-width:1; stroke:black; fill:white; " id="dummy-16_q21_0_all" class="clusterblast-orf"  />
<polygon locus_tag="SSMG_04090" description="&lt;b&gt;SSMG_04090&lt;/b&gt;&lt;br&gt;predicted protein&lt;br&gt;Location: 4464580 - 4465225" points="453,40 457,35 453,30 453,40 " style="stroke-width:1; stroke:black; fill:white; " id="dummy-16_q22_0_all" class="clusterblast-orf"  />
<polygon locus_tag="SSMG_04091" description="&lt;b&gt;SSMG_04091&lt;/b&gt;&lt;br&gt;predicted protein&lt;br&gt;Location: 4465316 - 4469924" points="458,35 463,30 484,30 484,40 463,40 458,35 " style="stroke-width:1; stroke:black; fill:white; " id="dummy-16_q23_0_all" class="clusterblast-orf"  />
<polygon locus_tag="SSMG_04092" description="&lt;b&gt;SSMG_04092&lt;/b&gt;&lt;br&gt;conserved hypothetical protein&lt;br&gt;Location: 4470040 - 4470820" points="484,35 489,30 489,30 489,40 489,40 484,35 " style="stroke-width:1; stroke:black; fill:white; " id="dummy-16_q24_0_all" class="clusterblast-orf"  />
<polygon locus_tag="SSMG_04093" description="&lt;b&gt;SSMG_04093&lt;/b&gt;&lt;br&gt;predicted protein&lt;br&gt;Location: 4471112 - 4471874" points="490,40 490,40 495,35 490,30 490,30 490,40 " style="stroke-width:1; stroke:black; fill:white; " id="dummy-16_q25_0_all" class="clusterblast-orf"  />
<polygon locus_tag="SSMG_04094" description="&lt;b&gt;SSMG_04094&lt;/b&gt;&lt;br&gt;NUDIX hydrolase&lt;br&gt;Location: 4471920 - 4472331" points="495,40 497,35 495,30 495,40 " style="stroke-width:1; stroke:black; fill:white; " id="dummy-16_q26_0_all" class="clusterblast-orf"  />
<polygon locus_tag="SSMG_04095" description="&lt;b&gt;SSMG_04095&lt;/b&gt;&lt;br&gt;5-oxoprolinase&lt;br&gt;Location: 4472373 - 4473963" points="498,35 503,30 507,30 507,40 503,40 498,35 " style="stroke-width:1; stroke:black; fill:white; " id="dummy-16_q27_0_all" class="clusterblast-orf"  />
<polygon locus_tag="SSMG_04096" description="&lt;b&gt;SSMG_04096&lt;/b&gt;&lt;br&gt;5-oxoprolinase&lt;br&gt;Location: 4473959 - 4475999" points="507,35 512,30 518,30 518,40 512,40 507,35 " style="stroke-width:1; stroke:black; fill:white; " id="dummy-16_q28_0_all" class="clusterblast-orf"  />
</g>
<g label="BGC0000078" description="BGC0000078_c1: incednine (5% of genes show similarity), Polyketide" class="clusterblast-cluster"  >
<text class="clusterblast-acc" y="70" x="5"  >
<a xlink:href="https://mibig.secondarymetabolites.org/go/BGC0000078/1" target="_blank">BGC0000078</a>:                                                                        incednine (5% of genes show similarity), Polyketide</text>
<line x1="10" x2="778.0" y2="85" style="stroke-width:1; stroke:grey; " y1="85"  />
</g>
<g id="a16_000"  >
<polygon locus_tag="BAP34699.1" description="&lt;b&gt;BAP34699.1&lt;/b&gt;&lt;br&gt;superfamily I DNA and RNA helicase-like protein&lt;br&gt;Location: 1 - 2069" points="0,90 6,90 11,85 6,80 0,80 0,90 " style="stroke-width:1; stroke:black; fill:white; " id="dummy-16_h16_6_0" class="clusterblast-orf"  />
</g>
<g id="a16_001"  >
<polygon locus_tag="BAP34700.1" description="&lt;b&gt;BAP34700.1&lt;/b&gt;&lt;br&gt;hypothetical protein&lt;br&gt;Location: 2126 - 2521" points="12,85 14,80 14,90 12,85 " style="stroke-width:1; stroke:black; fill:white; " id="dummy-16_h16_6_1" class="clusterblast-orf"  />
</g>
<g id="a16_002"  >
<polygon locus_tag="BAP34701.1" description="&lt;b&gt;BAP34701.1&lt;/b&gt;&lt;br&gt;hypothetical protein&lt;br&gt;Location: 2644 - 3135" points="14,85 17,80 17,90 14,85 " style="stroke-width:1; stroke:black; fill:white; " id="dummy-16_h16_6_2" class="clusterblast-orf"  />
</g>
<g id="a16_003"  >
<polygon locus_tag="BAP34702.1" description="&lt;b&gt;BAP34702.1&lt;/b&gt;&lt;br&gt;MbtH-like protein&lt;br&gt;Location: 3362 - 3583" points="19,85 20,80 20,90 19,85 " style="stroke-width:1; stroke:black; fill:white; " id="dummy-16_h16_6_3" class="clusterblast-orf"  />
</g>
<g id="a16_004"  >
<polygon locus_tag="BAP34703.1" description="&lt;b&gt;BAP34703.1&lt;/b&gt;&lt;br&gt;LmbE family protein&lt;br&gt;Location: 4554 - 5216" points="25,90 29,85 25,80 25,90 " style="stroke-width:1; stroke:black; fill:white; " id="dummy-16_h16_6_4" class="clusterblast-orf"  />
</g>
<g id="a16_005"  >
<polygon locus_tag="BAP34704.1" description="&lt;b&gt;BAP34704.1&lt;/b&gt;&lt;br&gt;UDP-glucose/GDP-mannose dehydrogenase&lt;br&gt;Location: 5408 - 6820" points="30,90 33,90 38,85 33,80 30,80 30,90 " style="stroke-width:1; stroke:black; fill:white; " id="dummy-16_h16_6_5" class="clusterblast-orf"  />
</g>
<g id="a16_006"  >
<polygon locus_tag="BAP34705.1" description="&lt;b&gt;BAP34705.1&lt;/b&gt;&lt;br&gt;NAD-dependent epimerase/dehydratase&lt;br&gt;Location: 6885 - 7841" points="38,90 39,90 44,85 39,80 38,80 38,90 " style="stroke-width:1; stroke:black; fill:white; " id="dummy-16_h16_6_6" class="clusterblast-orf"  />
</g>
<g id="a16_007"  >
<polygon locus_tag="BAP34706.1" description="&lt;b&gt;BAP34706.1&lt;/b&gt;&lt;br&gt;LuxR-family transcriptional regulator&lt;br&gt;Location: 8085 - 10994" points="45,90 57,90 62,85 57,80 45,80 45,90 " style="stroke-width:1; stroke:black; fill:white; " id="dummy-16_h16_6_7" class="clusterblast-orf"  />
</g>
<g id="a16_008"  >
<polygon locus_tag="BAP34707.1" description="&lt;b&gt;BAP34707.1&lt;/b&gt;&lt;br&gt;AMP-dependent synthetase and ligase&lt;br&gt;Location: 11307 - 12905" points="64,90 68,90 73,85 68,80 64,80 64,90 " style="stroke-width:1; stroke:black; fill:white; " id="dummy-16_h16_6_8" class="clusterblast-orf"  />
</g>
<g id="a16_009"  >
<polygon locus_tag="BAP34708.1" description="&lt;b&gt;BAP34708.1&lt;/b&gt;&lt;br&gt;malonyl-CoA-ACP transacylase&lt;br&gt;Location: 13073 - 14182" points="74,85 79,80 80,80 80,90 79,90 74,85 " style="stroke-width:1; stroke:black; fill:white; " id="dummy-16_h16_6_9" class="clusterblast-orf"  />
</g>
<g id="a16_0010"  >
<polygon locus_tag="BAP34709.1" description="&lt;b&gt;BAP34709.1&lt;/b&gt;&lt;br&gt;(PLP)-dependent aspartate aminotransferase superfamily&lt;br&gt;Location: 14197 - 15483" points="80,85 85,80 87,80 87,90 85,90 80,85 " style="stroke-width:1; stroke:black; fill:white; " id="dummy-16_h16_6_10" class="clusterblast-orf"  />
</g>
<g id="a16_0011"  >
<polygon locus_tag="BAP34710.1" description="&lt;b&gt;BAP34710.1&lt;/b&gt;&lt;br&gt;radical-SAM L-lysine 2,3-aminomutase&lt;br&gt;Location: 15517 - 16878" points="87,85 92,80 95,80 95,90 92,90 87,85 " style="stroke-width:1; stroke:black; fill:white; " id="dummy-16_h16_6_11" class="clusterblast-orf"  />
</g>
<g id="a16_0012"  >
<polygon locus_tag="BAP34711.1" description="&lt;b&gt;BAP34711.1&lt;/b&gt;&lt;br&gt;proline iminopeptidase&lt;br&gt;Location: 17000 - 17929" points="96,85 101,80 101,80 101,90 101,90 96,85 " style="stroke-width:1; stroke:black; fill:white; " id="dummy-16_h16_6_12" class="clusterblast-orf"  />
</g>
<g id="a16_0013"  >
<polygon locus_tag="BAP34712.1" description="&lt;b&gt;BAP34712.1&lt;/b&gt;&lt;br&gt;glycosyltransferase&lt;br&gt;Location: 18316 - 19644" points="103,90 106,90 111,85 106,80 103,80 103,90 " style="stroke-width:1; stroke:black; fill:white; " id="dummy-16_h16_6_13" class="clusterblast-orf"  />
</g>
<g id="a16_0014"  >
<polygon locus_tag="BAP34713.1" description="&lt;b&gt;BAP34713.1&lt;/b&gt;&lt;br&gt;methyltransferase&lt;br&gt;Location: 19828 - 21036" points="112,85 117,80 119,80 119,90 117,90 112,85 " style="stroke-width:1; stroke:black; fill:white; " id="dummy-16_h16_6_14" class="clusterblast-orf"  />
</g>
<g id="a16_0015"  >
<polygon locus_tag="BAP34714.1" description="&lt;b&gt;BAP34714.1&lt;/b&gt;&lt;br&gt;dTDP-glucose 4,6-dehydratase&lt;br&gt;Location: 21287 - 22261" points="120,85 125,80 126,80 126,90 125,90 120,85 " style="stroke-width:1; stroke:black; fill:white; " id="dummy-16_h16_6_15" class="clusterblast-orf"  />
</g>
<g id="a16_0016"  >
<polygon locus_tag="BAP34715.1" description="&lt;b&gt;BAP34715.1&lt;/b&gt;&lt;br&gt;glucose-1-phosphate thymidylyltransferase&lt;br&gt;Location: 22258 - 23325" points="126,85 131,80 132,80 132,90 131,90 126,85 " style="stroke-width:1; stroke:black; fill:white; " id="dummy-16_h16_6_16" class="clusterblast-orf"  />
</g>
<g id="a16_0017"  >
<polygon locus_tag="BAP34716.1" description="&lt;b&gt;BAP34716.1&lt;/b&gt;&lt;br&gt;N-methyltransferase&lt;br&gt;Location: 23395 - 24132" points="132,85 136,80 136,90 132,85 " style="stroke-width:1; stroke:black; fill:white; " id="dummy-16_h16_6_17" class="clusterblast-orf"  />
</g>
<g id="a16_0018"  >
<polygon locus_tag="BAP34717.1" description="&lt;b&gt;BAP34717.1&lt;/b&gt;&lt;br&gt;acyl carrier protein&lt;br&gt;Location: 24577 - 24816" points="139,85 140,80 140,90 139,85 " style="stroke-width:1; stroke:black; fill:white; " id="dummy-16_h16_6_18" class="clusterblast-orf"  />
</g>
<g id="a16_0019"  >
<polygon locus_tag="BAP34718.1" description="&lt;b&gt;BAP34718.1&lt;/b&gt;&lt;br&gt;AMP-dependent synthetase and ligase&lt;br&gt;Location: 24954 - 26522" points="141,90 145,90 150,85 145,80 141,80 141,90 " style="stroke-width:1; stroke:black; fill:white; " id="dummy-16_h16_6_19" class="clusterblast-orf"  />
</g>
<g id="a16_0020"  >
<polygon locus_tag="BAP34719.1" description="&lt;b&gt;BAP34719.1&lt;/b&gt;&lt;br&gt;cytochrome P450&lt;br&gt;Location: 26677 - 27882&lt;br&gt;&lt;br&gt;&lt;b&gt;BlastP hit with SSMG_04080&lt;/b&gt;&lt;br&gt;Percentage identity: 47&lt;br&gt;Percentage coverage: 98&lt;br&gt;BLAST bit score: 347&lt;br&gt;E-value: 3.5e-95" points="151,90 152,90 157,85 152,80 151,80 151,90 " style="stroke-width:1; stroke:black; fill:#d81515; " id="dummy-16_h16_6_20" class="clusterblast-orf"  />
</g>
<g id="a16_0021"  >
<polygon locus_tag="BAP34720.1" description="&lt;b&gt;BAP34720.1&lt;/b&gt;&lt;br&gt;transcriptional regulator&lt;br&gt;Location: 28673 - 29308" points="162,90 166,85 162,80 162,90 " style="stroke-width:1; stroke:black; fill:white; " id="dummy-16_h16_6_21" class="clusterblast-orf"  />
</g>
<g id="a16_0022"  >
<polygon locus_tag="BAP34721.1" description="&lt;b&gt;BAP34721.1&lt;/b&gt;&lt;br&gt;hypothetical protein&lt;br&gt;Location: 29779 - 30123" points="168,90 170,85 168,80 168,90 " style="stroke-width:1; stroke:black; fill:white; " id="dummy-16_h16_6_22" class="clusterblast-orf"  />
</g>
<g id="a16_0023"  >
<polygon locus_tag="BAP34722.1" description="&lt;b&gt;BAP34722.1&lt;/b&gt;&lt;br&gt;hypothetical protein&lt;br&gt;Location: 30120 - 31583" points="170,90 173,90 178,85 173,80 170,80 170,90 " style="stroke-width:1; stroke:black; fill:white; " id="dummy-16_h16_6_23" class="clusterblast-orf"  />
</g>
<g id="a16_0024"  >
<polygon locus_tag="BAP34723.1" description="&lt;b&gt;BAP34723.1&lt;/b&gt;&lt;br&gt;hypothetical protein&lt;br&gt;Location: 31628 - 32032" points="179,90 181,85 179,80 179,90 " style="stroke-width:1; stroke:black; fill:white; " id="dummy-16_h16_6_24" class="clusterblast-orf"  />
</g>
<g id="a16_0025"  >
<polygon locus_tag="BAP34724.1" description="&lt;b&gt;BAP34724.1&lt;/b&gt;&lt;br&gt;Putative hydrolase&lt;br&gt;Location: 32138 - 32599" points="182,90 184,85 182,80 182,90 " style="stroke-width:1; stroke:black; fill:white; " id="dummy-16_h16_6_25" class="clusterblast-orf"  />
</g>
<g id="a16_0026"  >
<polygon locus_tag="BAP34725.1" description="&lt;b&gt;BAP34725.1&lt;/b&gt;&lt;br&gt;hypothetical protein&lt;br&gt;Location: 32596 - 32952" points="184,90 186,85 184,80 184,90 " style="stroke-width:1; stroke:black; fill:white; " id="dummy-16_h16_6_26" class="clusterblast-orf"  />
</g>
<g id="a16_0027"  >
<polygon locus_tag="BAP34726.1" description="&lt;b&gt;BAP34726.1&lt;/b&gt;&lt;br&gt;thymidylate synthase&lt;br&gt;Location: 32960 - 33982" points="186,90 187,90 192,85 187,80 186,80 186,90 " style="stroke-width:1; stroke:black; fill:white; " id="dummy-16_h16_6_27" class="clusterblast-orf"  />
</g>
<g id="a16_0028"  >
<polygon locus_tag="BAP34727.1" description="&lt;b&gt;BAP34727.1&lt;/b&gt;&lt;br&gt;nucleoside diphosphate kinase&lt;br&gt;Location: 33979 - 35007" points="192,90 193,90 198,85 193,80 192,80 192,90 " style="stroke-width:1; stroke:black; fill:white; " id="dummy-16_h16_6_28" class="clusterblast-orf"  />
</g>
<g id="a16_0029"  >
<polygon locus_tag="BAP34728.1" description="&lt;b&gt;BAP34728.1&lt;/b&gt;&lt;br&gt;hypothetical protein&lt;br&gt;Location: 34997 - 36175" points="198,90 199,90 204,85 199,80 198,80 198,90 " style="stroke-width:1; stroke:black; fill:white; " id="dummy-16_h16_6_29" class="clusterblast-orf"  />
</g>
<g id="a16_0030"  >
<polygon locus_tag="BAP34729.1" description="&lt;b&gt;BAP34729.1&lt;/b&gt;&lt;br&gt;DNA polymerase III&lt;br&gt;Location: 36172 - 36774" points="204,90 208,85 204,80 204,90 " style="stroke-width:1; stroke:black; fill:white; " id="dummy-16_h16_6_30" class="clusterblast-orf"  />
</g>
<g id="a16_0031"  >
<polygon locus_tag="BAP34730.1" description="&lt;b&gt;BAP34730.1&lt;/b&gt;&lt;br&gt;hypothetical protein&lt;br&gt;Location: 36768 - 37376" points="208,90 211,85 208,80 208,90 " style="stroke-width:1; stroke:black; fill:white; " id="dummy-16_h16_6_31" class="clusterblast-orf"  />
</g>
<g id="a16_0032"  >
<polygon locus_tag="BAP34731.1" description="&lt;b&gt;BAP34731.1&lt;/b&gt;&lt;br&gt;oxidoreductase&lt;br&gt;Location: 37373 - 38023" points="211,90 215,85 211,80 211,90 " style="stroke-width:1; stroke:black; fill:white; " id="dummy-16_h16_6_32" class="clusterblast-orf"  />
</g>
<g id="a16_0033"  >
<polygon locus_tag="BAP34732.1" description="&lt;b&gt;BAP34732.1&lt;/b&gt;&lt;br&gt;hypothetical protein&lt;br&gt;Location: 38154 - 38669" points="216,90 219,85 216,80 216,90 " style="stroke-width:1; stroke:black; fill:white; " id="dummy-16_h16_6_33" class="clusterblast-orf"  />
</g>
<g id="a16_0034"  >
<polygon locus_tag="BAP34733.1" description="&lt;b&gt;BAP34733.1&lt;/b&gt;&lt;br&gt;type I polyketide synthase&lt;br&gt;Location: 39077 - 50023&lt;br&gt;&lt;br&gt;&lt;b&gt;BlastP hit with SSMG_04081&lt;/b&gt;&lt;br&gt;Percentage identity: 47&lt;br&gt;Percentage coverage: 91&lt;br&gt;BLAST bit score: 1260&lt;br&gt;E-value: 0.0" points="221,85 226,80 283,80 283,90 226,90 221,85 " style="stroke-width:1; stroke:black; fill:#15d8d8; " id="dummy-16_h16_6_34" class="clusterblast-orf"  />
</g>
<g id="a16_0035"  >
<polygon locus_tag="BAP34734.1" description="&lt;b&gt;BAP34734.1&lt;/b&gt;&lt;br&gt;type I polyketide synthase&lt;br&gt;Location: 50108 - 66139&lt;br&gt;&lt;br&gt;&lt;b&gt;BlastP hit with SSMG_04081&lt;/b&gt;&lt;br&gt;Percentage identity: 46&lt;br&gt;Percentage coverage: 93&lt;br&gt;BLAST bit score: 1228&lt;br&gt;E-value: 0.0" points="283,85 288,80 374,80 374,90 288,90 283,85 " style="stroke-width:1; stroke:black; fill:#15d8d8; " id="dummy-16_h16_6_35" class="clusterblast-orf"  />
</g>
<g id="a16_0036"  >
<polygon locus_tag="BAP34735.1" description="&lt;b&gt;BAP34735.1&lt;/b&gt;&lt;br&gt;thioesterase involved in non-ribosomal peptide biosynthesis&lt;br&gt;Location: 66380 - 67210" points="375,90 375,90 380,85 375,80 375,80 375,90 " style="stroke-width:1; stroke:black; fill:white; " id="dummy-16_h16_6_36" class="clusterblast-orf"  />
</g>
<g id="a16_0037"  >
<polygon locus_tag="BAP34736.1" description="&lt;b&gt;BAP34736.1&lt;/b&gt;&lt;br&gt;ABC-type multidrug transport system&lt;br&gt;Location: 67450 - 68247" points="382,85 386,80 386,90 382,85 " style="stroke-width:1; stroke:black; fill:white; " id="dummy-16_h16_6_37" class="clusterblast-orf"  />
</g>
<g id="a16_0038"  >
<polygon locus_tag="BAP34737.1" description="&lt;b&gt;BAP34737.1&lt;/b&gt;&lt;br&gt;ABC-type multidrug transport system&lt;br&gt;Location: 68244 - 69200" points="386,85 391,80 391,80 391,90 391,90 386,85 " style="stroke-width:1; stroke:black; fill:white; " id="dummy-16_h16_6_38" class="clusterblast-orf"  />
</g>
<g id="a16_0039"  >
<polygon locus_tag="BAP34738.1" description="&lt;b&gt;BAP34738.1&lt;/b&gt;&lt;br&gt;regulatory protein TetR&lt;br&gt;Location: 69310 - 70158" points="392,90 392,90 397,85 392,80 392,80 392,90 " style="stroke-width:1; stroke:black; fill:white; " id="dummy-16_h16_6_39" class="clusterblast-orf"  />
</g>
<g id="a16_0040"  >
<polygon locus_tag="BAP34739.1" description="&lt;b&gt;BAP34739.1&lt;/b&gt;&lt;br&gt;type I polyketide synthase&lt;br&gt;Location: 70616 - 82201" points="399,85 404,80 465,80 465,90 404,90 399,85 " style="stroke-width:1; stroke:black; fill:white; " id="dummy-16_h16_6_40" class="clusterblast-orf"  />
</g>
<g id="a16_0041"  >
<polygon locus_tag="BAP34740.1" description="&lt;b&gt;BAP34740.1&lt;/b&gt;&lt;br&gt;type I polyketide synthase&lt;br&gt;Location: 82241 - 87412" points="465,85 470,80 495,80 495,90 470,90 465,85 " style="stroke-width:1; stroke:black; fill:white; " id="dummy-16_h16_6_41" class="clusterblast-orf"  />
</g>
<g id="a16_0042"  >
<polygon locus_tag="BAP34741.1" description="&lt;b&gt;BAP34741.1&lt;/b&gt;&lt;br&gt;glycosyltransferase&lt;br&gt;Location: 88093 - 89280" points="498,85 503,80 505,80 505,90 503,90 498,85 " style="stroke-width:1; stroke:black; fill:white; " id="dummy-16_h16_6_42" class="clusterblast-orf"  />
</g>
<g id="a16_0043"  >
<polygon locus_tag="BAP34742.1" description="&lt;b&gt;BAP34742.1&lt;/b&gt;&lt;br&gt;NDP-hexose 2,3-dehydratase&lt;br&gt;Location: 89781 - 91136" points="508,90 511,90 516,85 511,80 508,80 508,90 " style="stroke-width:1; stroke:black; fill:white; " id="dummy-16_h16_6_43" class="clusterblast-orf"  />
</g>
<g id="a16_0044"  >
<polygon locus_tag="BAP34743.1" description="&lt;b&gt;BAP34743.1&lt;/b&gt;&lt;br&gt;NDP-hexose-3-ketoreductase&lt;br&gt;Location: 91214 - 92230" points="516,90 517,90 522,85 517,80 516,80 516,90 " style="stroke-width:1; stroke:black; fill:white; " id="dummy-16_h16_6_44" class="clusterblast-orf"  />
</g>
<g id="a16_0045"  >
<polygon locus_tag="BAP34744.1" description="&lt;b&gt;BAP34744.1&lt;/b&gt;&lt;br&gt;NDP-hexose-3,4-dehydratase&lt;br&gt;Location: 92233 - 93567" points="522,90 524,90 529,85 524,80 522,80 522,90 " style="stroke-width:1; stroke:black; fill:white; " id="dummy-16_h16_6_45" class="clusterblast-orf"  />
</g>
<g id="a16_0046"  >
<polygon locus_tag="BAP34745.1" description="&lt;b&gt;BAP34745.1&lt;/b&gt;&lt;br&gt;aminotransferase&lt;br&gt;Location: 93557 - 94852" points="529,90 532,90 537,85 532,80 529,80 529,90 " style="stroke-width:1; stroke:black; fill:white; " id="dummy-16_h16_6_46" class="clusterblast-orf"  />
</g>
<g id="a16_0047"  >
<polygon locus_tag="BAP34746.1" description="&lt;b&gt;BAP34746.1&lt;/b&gt;&lt;br&gt;glycosyltransferase&lt;br&gt;Location: 94907 - 96184" points="537,85 542,80 544,80 544,90 542,90 537,85 " style="stroke-width:1; stroke:black; fill:white; " id="dummy-16_h16_6_47" class="clusterblast-orf"  />
</g>
<g id="a16_0048"  >
<polygon locus_tag="BAP34747.1" description="&lt;b&gt;BAP34747.1&lt;/b&gt;&lt;br&gt;cytochrome P450&lt;br&gt;Location: 96199 - 97470" points="544,85 549,80 552,80 552,90 549,90 544,85 " style="stroke-width:1; stroke:black; fill:white; " id="dummy-16_h16_6_48" class="clusterblast-orf"  />
</g>
<g id="a16_0049"  >
<polygon locus_tag="BAP34748.1" description="&lt;b&gt;BAP34748.1&lt;/b&gt;&lt;br&gt;glycosyltransferase&lt;br&gt;Location: 97467 - 98396" points="552,85 557,80 557,80 557,90 557,90 552,85 " style="stroke-width:1; stroke:black; fill:white; " id="dummy-16_h16_6_49" class="clusterblast-orf"  />
</g>
<g id="a16_0050"  >
<polygon locus_tag="BAP34749.1" description="&lt;b&gt;BAP34749.1&lt;/b&gt;&lt;br&gt;glutamate-1-semialdehyde aminotransferase&lt;br&gt;Location: 100768 - 102102" points="570,85 575,80 578,80 578,90 575,90 570,85 " style="stroke-width:1; stroke:black; fill:white; " id="dummy-16_h16_6_50" class="clusterblast-orf"  />
</g>
<g id="a16_0051"  >
<polygon locus_tag="BAP34750.1" description="&lt;b&gt;BAP34750.1&lt;/b&gt;&lt;br&gt;dehydrogenase&lt;br&gt;Location: 102204 - 102950" points="578,90 578,90 583,85 578,80 578,80 578,90 " style="stroke-width:1; stroke:black; fill:white; " id="dummy-16_h16_6_51" class="clusterblast-orf"  />
</g>
<g id="a16_0052"  >
<polygon locus_tag="BAP34751.1" description="&lt;b&gt;BAP34751.1&lt;/b&gt;&lt;br&gt;hypothetical protein&lt;br&gt;Location: 102813 - 103463" points="582,85 586,80 586,90 582,85 " style="stroke-width:1; stroke:black; fill:white; " id="dummy-16_h16_6_52" class="clusterblast-orf"  />
</g>
<g id="a16_0053"  >
<polygon locus_tag="BAP34752.1" description="&lt;b&gt;BAP34752.1&lt;/b&gt;&lt;br&gt;phytanoyl-CoA dioxygenase&lt;br&gt;Location: 103460 - 104269" points="586,85 590,80 590,90 586,85 " style="stroke-width:1; stroke:black; fill:white; " id="dummy-16_h16_6_53" class="clusterblast-orf"  />
</g>
<g id="a16_0054"  >
<polygon locus_tag="BAP34753.1" description="&lt;b&gt;BAP34753.1&lt;/b&gt;&lt;br&gt;hypothetical protein&lt;br&gt;Location: 106414 - 107517" points="602,85 607,80 609,80 609,90 607,90 602,85 " style="stroke-width:1; stroke:black; fill:white; " id="dummy-16_h16_6_54" class="clusterblast-orf"  />
</g>
<g id="a16_0055"  >
<polygon locus_tag="BAP34754.1" description="&lt;b&gt;BAP34754.1&lt;/b&gt;&lt;br&gt;hypothetical protein&lt;br&gt;Location: 107471 - 108973" points="608,85 613,80 617,80 617,90 613,90 608,85 " style="stroke-width:1; stroke:black; fill:white; " id="dummy-16_h16_6_55" class="clusterblast-orf"  />
</g>
<g id="a16_0056"  >
<polygon locus_tag="BAP34755.1" description="&lt;b&gt;BAP34755.1&lt;/b&gt;&lt;br&gt;hypothetical protein&lt;br&gt;Location: 109004 - 109738" points="617,90 621,85 617,80 617,90 " style="stroke-width:1; stroke:black; fill:white; " id="dummy-16_h16_6_56" class="clusterblast-orf"  />
</g>
<g id="a16_0057"  >
<polygon locus_tag="BAP34756.1" description="&lt;b&gt;BAP34756.1&lt;/b&gt;&lt;br&gt;hypothetical protein&lt;br&gt;Location: 109890 - 110147" points="622,85 623,80 623,90 622,85 " style="stroke-width:1; stroke:black; fill:white; " id="dummy-16_h16_6_57" class="clusterblast-orf"  />
</g>
<g id="a16_0058"  >
<polygon locus_tag="BAP34757.1" description="&lt;b&gt;BAP34757.1&lt;/b&gt;&lt;br&gt;hypothetical protein&lt;br&gt;Location: 112262 - 112504" points="635,85 637,80 637,90 635,85 " style="stroke-width:1; stroke:black; fill:white; " id="dummy-16_h16_6_58" class="clusterblast-orf"  />
</g>
<g id="a16_0059"  >
<polygon locus_tag="BAP34758.1" description="&lt;b&gt;BAP34758.1&lt;/b&gt;&lt;br&gt;hypothetical protein&lt;br&gt;Location: 112454 - 112819" points="636,90 639,85 636,80 636,90 " style="stroke-width:1; stroke:black; fill:white; " id="dummy-16_h16_6_59" class="clusterblast-orf"  />
</g>
<g id="a16_0060"  >
<polygon locus_tag="BAP34759.1" description="&lt;b&gt;BAP34759.1&lt;/b&gt;&lt;br&gt;hypothetical protein&lt;br&gt;Location: 113029 - 113415" points="640,90 642,85 640,80 640,90 " style="stroke-width:1; stroke:black; fill:white; " id="dummy-16_h16_6_60" class="clusterblast-orf"  />
</g>
<g id="a16_0061"  >
<polygon locus_tag="BAP34760.1" description="&lt;b&gt;BAP34760.1&lt;/b&gt;&lt;br&gt;hypothetical protein&lt;br&gt;Location: 113419 - 114375" points="642,90 642,90 647,85 642,80 642,80 642,90 " style="stroke-width:1; stroke:black; fill:white; " id="dummy-16_h16_6_61" class="clusterblast-orf"  />
</g>
<g id="a16_0062"  >
<polygon locus_tag="BAP34761.1" description="&lt;b&gt;BAP34761.1&lt;/b&gt;&lt;br&gt;O-methyltransferase&lt;br&gt;Location: 114372 - 115568" points="647,90 649,90 654,85 649,80 647,80 647,90 " style="stroke-width:1; stroke:black; fill:white; " id="dummy-16_h16_6_62" class="clusterblast-orf"  />
</g>
<g id="a16_0063"  >
<polygon locus_tag="BAP34762.1" description="&lt;b&gt;BAP34762.1&lt;/b&gt;&lt;br&gt;secreted protein&lt;br&gt;Location: 116103 - 116555" points="657,85 660,80 660,90 657,85 " style="stroke-width:1; stroke:black; fill:white; " id="dummy-16_h16_6_63" class="clusterblast-orf"  />
</g>
<g id="a16_0064"  >
<polygon locus_tag="BAP34763.1" description="&lt;b&gt;BAP34763.1&lt;/b&gt;&lt;br&gt;type I polyketide synthase&lt;br&gt;Location: 116795 - 128485&lt;br&gt;&lt;br&gt;&lt;b&gt;BlastP hit with SSMG_04081&lt;/b&gt;&lt;br&gt;Percentage identity: 51&lt;br&gt;Percentage coverage: 96&lt;br&gt;BLAST bit score: 1522&lt;br&gt;E-value: 0.0" points="661,85 666,80 727,80 727,90 666,90 661,85 " style="stroke-width:1; stroke:black; fill:#15d8d8; " id="dummy-16_h16_6_64" class="clusterblast-orf"  />
</g>
<g id="a16_0065"  >
<polygon locus_tag="BAP34764.1" description="&lt;b&gt;BAP34764.1&lt;/b&gt;&lt;br&gt;glyceryl-ACP oxidoreductase&lt;br&gt;Location: 129343 - 130209" points="732,90 732,90 737,85 732,80 732,80 732,90 " style="stroke-width:1; stroke:black; fill:white; " id="dummy-16_h16_6_65" class="clusterblast-orf"  />
</g>
<g id="a16_0066"  >
<polygon locus_tag="BAP34765.1" description="&lt;b&gt;BAP34765.1&lt;/b&gt;&lt;br&gt;acyl carrier protein&lt;br&gt;Location: 130206 - 130502" points="737,90 739,85 737,80 737,90 " style="stroke-width:1; stroke:black; fill:white; " id="dummy-16_h16_6_66" class="clusterblast-orf"  />
</g>
<g id="a16_0067"  >
<polygon locus_tag="BAP34766.1" description="&lt;b&gt;BAP34766.1&lt;/b&gt;&lt;br&gt;acyl-CoA dehydrogenase&lt;br&gt;Location: 130495 - 131727" points="739,90 741,90 746,85 741,80 739,80 739,90 " style="stroke-width:1; stroke:black; fill:white; " id="dummy-16_h16_6_67" class="clusterblast-orf"  />
</g>
<g id="a16_0068"  >
<polygon locus_tag="BAP34767.1" description="&lt;b&gt;BAP34767.1&lt;/b&gt;&lt;br&gt;FkbH-like protein&lt;br&gt;Location: 131744 - 132865" points="746,90 747,90 752,85 747,80 746,80 746,90 " style="stroke-width:1; stroke:black; fill:white; " id="dummy-16_h16_6_68" class="clusterblast-orf"  />
</g>
<g id="a16_0069"  >
<polygon locus_tag="BAP34768.1" description="&lt;b&gt;BAP34768.1&lt;/b&gt;&lt;br&gt;O-methyltransferase&lt;br&gt;Location: 133147 - 133809" points="754,85 757,80 757,90 754,85 " style="stroke-width:1; stroke:black; fill:white; " id="dummy-16_h16_6_69" class="clusterblast-orf"  />
</g>
<g id="a16_0070"  >
<polygon locus_tag="BAP34769.1" description="&lt;b&gt;BAP34769.1&lt;/b&gt;&lt;br&gt;hypothetical protein&lt;br&gt;Location: 134104 - 134511" points="759,90 761,85 759,80 759,90 " style="stroke-width:1; stroke:black; fill:white; " id="dummy-16_h16_6_70" class="clusterblast-orf"  />
</g>
<g id="a16_0071"  >
<polygon locus_tag="BAP34770.1" description="&lt;b&gt;BAP34770.1&lt;/b&gt;&lt;br&gt;spermidine synthase&lt;br&gt;Location: 134598 - 136205" points="762,85 767,80 771,80 771,90 767,90 762,85 " style="stroke-width:1; stroke:black; fill:white; " id="dummy-16_h16_6_71" class="clusterblast-orf"  />
</g>
<g id="a16_0072"  >
<polygon locus_tag="BAP34771.1" description="&lt;b&gt;BAP34771.1&lt;/b&gt;&lt;br&gt;hypothetical protein&lt;br&gt;Location: 136213 - 136650" points="771,85 774,80 774,90 771,85 " style="stroke-width:1; stroke:black; fill:white; " id="dummy-16_h16_6_72" class="clusterblast-orf"  />
</g>
<g id="a16_0073"  >
<polygon locus_tag="BAP34772.1" description="&lt;b&gt;BAP34772.1&lt;/b&gt;&lt;br&gt;hypothetical protein&lt;br&gt;Location: 136709 - 137125" points="774,85 776,80 776,90 774,85 " style="stroke-width:1; stroke:black; fill:white; " id="dummy-16_h16_6_73" class="clusterblast-orf"  />
</g>
<g id="a16_0074"  >
<polygon locus_tag="BAP34773.1" description="&lt;b&gt;BAP34773.1&lt;/b&gt;&lt;br&gt;hypothetical protein&lt;br&gt;Location: 137122 - 137706" points="776,85 780,80 780,90 776,85 " style="stroke-width:1; stroke:black; fill:white; " id="dummy-16_h16_6_74" class="clusterblast-orf"  />
</g>
</svg>
