<svg version="1.1" xmlns="http://www.w3.org/2000/svg" height="230" width="800" xmlns:xlink="http://www.w3.org/1999/xlink" preserveAspectRatio="none" x="0" y="0" viewBox="0 0 800 230"  >
<g label="Query sequence" class="clusterblast-cluster"  >
<text class="clusterblast-acc" y="20" x="5"  >
Query sequence</text>
<line x1="10" x2="778.0" y2="35" style="stroke-width:1; stroke:grey; " y1="35"  />
<polygon locus_tag="SSMG_04259" description="&lt;b&gt;SSMG_04259&lt;/b&gt;&lt;br&gt;conserved hypothetical protein&lt;br&gt;Location: 4646055 - 4646568" points="0,35 5,30 8,30 8,40 5,40 0,35 " style="stroke-width:1; stroke:black; fill:white; " id="dummy-17_q0_0_all" class="clusterblast-orf"  />
<polygon locus_tag="SSMG_04260" description="&lt;b&gt;SSMG_04260&lt;/b&gt;&lt;br&gt;predicted protein&lt;br&gt;Location: 4646583 - 4647069" points="8,35 13,30 15,30 15,40 13,40 8,35 " style="stroke-width:1; stroke:black; fill:white; " id="dummy-17_q1_0_all" class="clusterblast-orf"  />
<polygon locus_tag="SSMG_04261" description="&lt;b&gt;SSMG_04261&lt;/b&gt;&lt;br&gt;phosphatidylinositol alpha-mannosyltransferase&lt;br&gt;Location: 4647065 - 4648208" points="15,35 20,30 33,30 33,40 20,40 15,35 " style="stroke-width:1; stroke:black; fill:white; " id="dummy-17_q2_0_all" class="clusterblast-orf"  />
<polygon locus_tag="SSMG_04262" description="&lt;b&gt;SSMG_04262&lt;/b&gt;&lt;br&gt;predicted protein&lt;br&gt;Location: 4648225 - 4649128" points="33,35 38,30 47,30 47,40 38,40 33,35 " style="stroke-width:1; stroke:black; fill:white; " id="dummy-17_q3_0_all" class="clusterblast-orf"  />
<polygon locus_tag="SSMG_04263" description="&lt;b&gt;SSMG_04263&lt;/b&gt;&lt;br&gt;phosphatidylinositol synthase&lt;br&gt;Location: 4649124 - 4649772" points="47,35 52,30 57,30 57,40 52,40 47,35 " style="stroke-width:1; stroke:black; fill:white; " id="dummy-17_q4_0_all" class="clusterblast-orf"  />
<polygon locus_tag="SSMG_04264" description="&lt;b&gt;SSMG_04264&lt;/b&gt;&lt;br&gt;MarR-family transcriptional repressor&lt;br&gt;Location: 4649872 - 4650403" points="59,35 64,30 67,30 67,40 64,40 59,35 " style="stroke-width:1; stroke:black; fill:white; " id="dummy-17_q5_0_all" class="clusterblast-orf"  />
<polygon locus_tag="SSMG_04265" description="&lt;b&gt;SSMG_04265&lt;/b&gt;&lt;br&gt;HIT family protein&lt;br&gt;Location: 4650453 - 4650996" points="68,35 73,30 76,30 76,40 73,40 68,35 " style="stroke-width:1; stroke:black; fill:white; " id="dummy-17_q6_0_all" class="clusterblast-orf"  />
<polygon locus_tag="SSMG_04266" description="&lt;b&gt;SSMG_04266&lt;/b&gt;&lt;br&gt;threonyl-tRNA synthetase&lt;br&gt;Location: 4650992 - 4653029" points="76,35 81,30 107,30 107,40 81,40 76,35 " style="stroke-width:1; stroke:black; fill:white; " id="dummy-17_q7_0_all" class="clusterblast-orf"  />
<polygon locus_tag="SSMG_04267" description="&lt;b&gt;SSMG_04267&lt;/b&gt;&lt;br&gt;nitroreductase&lt;br&gt;Location: 4653174 - 4653786" points="109,35 114,30 119,30 119,40 114,40 109,35 " style="stroke-width:1; stroke:black; fill:white; " id="dummy-17_q8_0_all" class="clusterblast-orf"  />
<polygon locus_tag="SSMG_04268" description="&lt;b&gt;SSMG_04268&lt;/b&gt;&lt;br&gt;undecaprenyl-phosphate glucose phosphotransferase&lt;br&gt;Location: 4653943 - 4655410" points="121,35 126,30 144,30 144,40 126,40 121,35 " style="stroke-width:1; stroke:black; fill:white; " id="dummy-17_q9_0_all" class="clusterblast-orf"  />
<polygon locus_tag="SSMG_04269" description="&lt;b&gt;SSMG_04269&lt;/b&gt;&lt;br&gt;predicted protein&lt;br&gt;Location: 4656012 - 4656249" points="153,35 157,30 157,40 153,35 " style="stroke-width:1; stroke:black; fill:white; " id="dummy-17_q10_0_all" class="clusterblast-orf"  />
<polygon locus_tag="SSMG_04270" description="&lt;b&gt;SSMG_04270&lt;/b&gt;&lt;br&gt;predicted protein&lt;br&gt;Location: 4656683 - 4657121" points="164,35 169,30 170,30 170,40 169,40 164,35 " style="stroke-width:1; stroke:black; fill:white; " id="dummy-17_q11_0_all" class="clusterblast-orf"  />
<polygon locus_tag="SSMG_04271" description="&lt;b&gt;SSMG_04271&lt;/b&gt;&lt;br&gt;predicted protein&lt;br&gt;Location: 4658192 - 4659011" points="187,40 195,40 200,35 195,30 187,30 187,40 " style="stroke-width:1; stroke:black; fill:white; " id="dummy-17_q12_0_all" class="clusterblast-orf"  />
<polygon locus_tag="SSMG_04272" description="&lt;b&gt;SSMG_04272&lt;/b&gt;&lt;br&gt;3-oxoacyl-(acyl carrier protein) synthase III&lt;br&gt;Location: 4659025 - 4659964" points="200,35 205,30 214,30 214,40 205,40 200,35 " style="stroke-width:1; stroke:black; fill:white; " id="dummy-17_q13_0_all" class="clusterblast-orf"  />
<polygon locus_tag="SSMG_04273" description="&lt;b&gt;SSMG_04273&lt;/b&gt;&lt;br&gt;predicted protein&lt;br&gt;Location: 4659985 - 4662595" points="215,35 220,30 255,30 255,40 220,40 215,35 " style="stroke-width:1; stroke:black; fill:white; " id="dummy-17_q14_0_all" class="clusterblast-orf"  />
<polygon locus_tag="SSMG_04274" description="&lt;b&gt;SSMG_04274&lt;/b&gt;&lt;br&gt;conserved hypothetical protein&lt;br&gt;Location: 4662699 - 4663347" points="256,35 261,30 266,30 266,40 261,40 256,35 " style="stroke-width:1; stroke:black; fill:white; " id="dummy-17_q15_0_all" class="clusterblast-orf"  />
<polygon locus_tag="SSMG_04275" description="&lt;b&gt;SSMG_04275&lt;/b&gt;&lt;br&gt;3-oxoacyl-[acyl-carrier-protein] reductase&lt;br&gt;Location: 4663491 - 4664232" points="269,35 274,30 280,30 280,40 274,40 269,35 " style="stroke-width:1; stroke:black; fill:#d81515; " id="dummy-17_q16_0_all" class="clusterblast-orf"  />
<polygon locus_tag="SSMG_04276" description="&lt;b&gt;SSMG_04276&lt;/b&gt;&lt;br&gt;predicted protein&lt;br&gt;Location: 4664228 - 4664642" points="280,35 285,30 286,30 286,40 285,40 280,35 " style="stroke-width:1; stroke:black; fill:white; " id="dummy-17_q17_0_all" class="clusterblast-orf"  />
<polygon locus_tag="SSMG_04277" description="&lt;b&gt;SSMG_04277&lt;/b&gt;&lt;br&gt;predicted protein&lt;br&gt;Location: 4664638 - 4664989" points="286,35 291,30 292,30 292,40 291,40 286,35 " style="stroke-width:1; stroke:black; fill:white; " id="dummy-17_q18_0_all" class="clusterblast-orf"  />
<polygon locus_tag="SSMG_04278" description="&lt;b&gt;SSMG_04278&lt;/b&gt;&lt;br&gt;predicted protein&lt;br&gt;Location: 4664964 - 4665975" points="291,35 296,30 307,30 307,40 296,40 291,35 " style="stroke-width:1; stroke:black; fill:white; " id="dummy-17_q19_0_all" class="clusterblast-orf"  />
<polygon locus_tag="SSMG_04279" description="&lt;b&gt;SSMG_04279&lt;/b&gt;&lt;br&gt;3-oxoacyl-[acyl-carrier-protein] synthase 2&lt;br&gt;Location: 4665971 - 4667213" points="307,35 312,30 326,30 326,40 312,40 307,35 " style="stroke-width:1; stroke:black; fill:#15d815; " id="dummy-17_q20_0_all" class="clusterblast-orf"  />
<polygon locus_tag="SSMG_04280" description="&lt;b&gt;SSMG_04280&lt;/b&gt;&lt;br&gt;acyl carrier protein&lt;br&gt;Location: 4667214 - 4667502" points="326,35 331,30 331,30 331,40 331,40 326,35 " style="stroke-width:1; stroke:black; fill:white; " id="dummy-17_q21_0_all" class="clusterblast-orf"  />
<polygon locus_tag="SSMG_04281" description="&lt;b&gt;SSMG_04281&lt;/b&gt;&lt;br&gt;predicted protein&lt;br&gt;Location: 4667530 - 4668379" points="331,35 336,30 344,30 344,40 336,40 331,35 " style="stroke-width:1; stroke:black; fill:white; " id="dummy-17_q22_0_all" class="clusterblast-orf"  />
<polygon locus_tag="SSMG_04282" description="&lt;b&gt;SSMG_04282&lt;/b&gt;&lt;br&gt;dicarboxylate-CoA ligase PimA&lt;br&gt;Location: 4668401 - 4669997" points="344,35 349,30 369,30 369,40 349,40 344,35 " style="stroke-width:1; stroke:black; fill:#1597d8; " id="dummy-17_q23_0_all" class="clusterblast-orf"  />
<polygon locus_tag="SSMG_04283" description="&lt;b&gt;SSMG_04283&lt;/b&gt;&lt;br&gt;predicted protein&lt;br&gt;Location: 4669993 - 4671523" points="369,35 374,30 393,30 393,40 374,40 369,35 " style="stroke-width:1; stroke:black; fill:#9715d8; " id="dummy-17_q24_0_all" class="clusterblast-orf"  />
<polygon locus_tag="SSMG_04284" description="&lt;b&gt;SSMG_04284&lt;/b&gt;&lt;br&gt;modular polyketide synthase&lt;br&gt;Location: 4671446 - 4677095" points="391,35 396,30 479,30 479,40 396,40 391,35 " style="stroke-width:1; stroke:black; fill:#d89715; " id="dummy-17_q25_0_all" class="clusterblast-orf"  />
<polygon locus_tag="SSMG_04285" description="&lt;b&gt;SSMG_04285&lt;/b&gt;&lt;br&gt;predicted protein&lt;br&gt;Location: 4677855 - 4678209" points="490,35 495,30 496,30 496,40 495,40 490,35 " style="stroke-width:1; stroke:black; fill:#15d897; " id="dummy-17_q26_0_all" class="clusterblast-orf"  />
<polygon locus_tag="SSMG_04286" description="&lt;b&gt;SSMG_04286&lt;/b&gt;&lt;br&gt;conserved hypothetical protein&lt;br&gt;Location: 4678234 - 4678792" points="496,35 501,30 505,30 505,40 501,40 496,35 " style="stroke-width:1; stroke:black; fill:#1515d8; " id="dummy-17_q27_0_all" class="clusterblast-orf"  />
<polygon locus_tag="SSMG_04287" description="&lt;b&gt;SSMG_04287&lt;/b&gt;&lt;br&gt;predicted protein&lt;br&gt;Location: 4678788 - 4679991" points="505,35 510,30 523,30 523,40 510,40 505,35 " style="stroke-width:1; stroke:black; fill:#d81597; " id="dummy-17_q28_0_all" class="clusterblast-orf"  />
<polygon locus_tag="SSMG_04288" description="&lt;b&gt;SSMG_04288&lt;/b&gt;&lt;br&gt;predicted protein&lt;br&gt;Location: 4680008 - 4681220" points="523,35 528,30 542,30 542,40 528,40 523,35 " style="stroke-width:1; stroke:black; fill:#d81597; " id="dummy-17_q29_0_all" class="clusterblast-orf"  />
<polygon locus_tag="SSMG_04289" description="&lt;b&gt;SSMG_04289&lt;/b&gt;&lt;br&gt;taurine catabolism dioxygenase&lt;br&gt;Location: 4681253 - 4682135" points="543,35 548,30 556,30 556,40 548,40 543,35 " style="stroke-width:1; stroke:black; fill:#97d815; " id="dummy-17_q30_0_all" class="clusterblast-orf"  />
<polygon locus_tag="SSMG_04290" description="&lt;b&gt;SSMG_04290&lt;/b&gt;&lt;br&gt;regulator&lt;br&gt;Location: 4683071 - 4683497" points="571,40 572,40 577,35 572,30 571,30 571,40 " style="stroke-width:1; stroke:black; fill:white; " id="dummy-17_q31_0_all" class="clusterblast-orf"  />
<polygon locus_tag="SSMG_04291" description="&lt;b&gt;SSMG_04291&lt;/b&gt;&lt;br&gt;glucose-6-phosphate dehydrogenase, F420-dependent&lt;br&gt;Location: 4684438 - 4685443" points="592,35 597,30 607,30 607,40 597,40 592,35 " style="stroke-width:1; stroke:black; fill:white; " id="dummy-17_q32_0_all" class="clusterblast-orf"  />
<polygon locus_tag="SSMG_04292" description="&lt;b&gt;SSMG_04292&lt;/b&gt;&lt;br&gt;predicted protein&lt;br&gt;Location: 4685755 - 4686505" points="612,35 617,30 624,30 624,40 617,40 612,35 " style="stroke-width:1; stroke:black; fill:white; " id="dummy-17_q33_0_all" class="clusterblast-orf"  />
<polygon locus_tag="SSMG_04293" description="&lt;b&gt;SSMG_04293&lt;/b&gt;&lt;br&gt;siderophore interacting protein&lt;br&gt;Location: 4687111 - 4687906" points="633,40 640,40 645,35 640,30 633,30 633,40 " style="stroke-width:1; stroke:black; fill:white; " id="dummy-17_q34_0_all" class="clusterblast-orf"  />
<polygon locus_tag="SSMG_04294" description="&lt;b&gt;SSMG_04294&lt;/b&gt;&lt;br&gt;methylated-DNA-protein-cysteine methyltransferase&lt;br&gt;Location: 4687911 - 4688481" points="645,35 650,30 654,30 654,40 650,40 645,35 " style="stroke-width:1; stroke:black; fill:white; " id="dummy-17_q35_0_all" class="clusterblast-orf"  />
<polygon locus_tag="SSMG_04295" description="&lt;b&gt;SSMG_04295&lt;/b&gt;&lt;br&gt;4-carboxy-4-hydroxy-2-oxoadipate aldolase/oxaloacetate decarboxylase&lt;br&gt;Location: 4688461 - 4689097" points="654,40 659,40 664,35 659,30 654,30 654,40 " style="stroke-width:1; stroke:black; fill:white; " id="dummy-17_q36_0_all" class="clusterblast-orf"  />
<polygon locus_tag="SSMG_04296" description="&lt;b&gt;SSMG_04296&lt;/b&gt;&lt;br&gt;predicted protein&lt;br&gt;Location: 4689033 - 4689261" points="663,40 666,35 663,30 663,40 " style="stroke-width:1; stroke:black; fill:white; " id="dummy-17_q37_0_all" class="clusterblast-orf"  />
<polygon locus_tag="SSMG_04297" description="&lt;b&gt;SSMG_04297&lt;/b&gt;&lt;br&gt;predicted protein&lt;br&gt;Location: 4689680 - 4689869" points="673,35 676,30 676,40 673,35 " style="stroke-width:1; stroke:black; fill:white; " id="dummy-17_q38_0_all" class="clusterblast-orf"  />
<polygon locus_tag="SSMG_04298" description="&lt;b&gt;SSMG_04298&lt;/b&gt;&lt;br&gt;predicted protein&lt;br&gt;Location: 4689991 - 4690285" points="677,40 677,40 682,35 677,30 677,30 677,40 " style="stroke-width:1; stroke:black; fill:white; " id="dummy-17_q39_0_all" class="clusterblast-orf"  />
<polygon locus_tag="SSMG_04299" description="&lt;b&gt;SSMG_04299&lt;/b&gt;&lt;br&gt;proline iminopeptidase&lt;br&gt;Location: 4690952 - 4692182" points="692,40 706,40 711,35 706,30 692,30 692,40 " style="stroke-width:1; stroke:black; fill:white; " id="dummy-17_q40_0_all" class="clusterblast-orf"  />
<polygon locus_tag="SSMG_04300" description="&lt;b&gt;SSMG_04300&lt;/b&gt;&lt;br&gt;2-hydroxycyclohexanecarboxyl-CoA dehydrogenase&lt;br&gt;Location: 4692227 - 4693079" points="712,35 717,30 725,30 725,40 717,40 712,35 " style="stroke-width:1; stroke:black; fill:white; " id="dummy-17_q41_0_all" class="clusterblast-orf"  />
<polygon locus_tag="SSMG_04301" description="&lt;b&gt;SSMG_04301&lt;/b&gt;&lt;br&gt;predicted protein&lt;br&gt;Location: 4693154 - 4694012" points="726,35 731,30 740,30 740,40 731,40 726,35 " style="stroke-width:1; stroke:black; fill:white; " id="dummy-17_q42_0_all" class="clusterblast-orf"  />
<polygon locus_tag="SSMG_04302" description="&lt;b&gt;SSMG_04302&lt;/b&gt;&lt;br&gt;conserved hypothetical protein&lt;br&gt;Location: 4694070 - 4695588" points="740,35 745,30 764,30 764,40 745,40 740,35 " style="stroke-width:1; stroke:black; fill:white; " id="dummy-17_q43_0_all" class="clusterblast-orf"  />
<polygon locus_tag="SSMG_04303" description="&lt;b&gt;SSMG_04303&lt;/b&gt;&lt;br&gt;conserved hypothetical protein&lt;br&gt;Location: 4695563 - 4696613" points="763,35 768,30 780,30 780,40 768,40 763,35 " style="stroke-width:1; stroke:black; fill:white; " id="dummy-17_q44_0_all" class="clusterblast-orf"  />
</g>
<g label="BGC0001623" description="BGC0001623_c1: ishigamide (11% of genes show similarity), NRP + Polyketide" class="clusterblast-cluster"  >
<text class="clusterblast-acc" y="70" x="5"  >
<a xlink:href="https://mibig.secondarymetabolites.org/go/BGC0001623/1" target="_blank">BGC0001623</a>:                                                                       ishigamide (11% of genes show similarity), NRP + Polyketide</text>
<line x1="10" x2="778.0" y2="85" style="stroke-width:1; stroke:grey; " y1="85"  />
</g>
<g id="a17_000"  >
<polygon locus_tag="BAX64259.1" description="&lt;b&gt;BAX64259.1&lt;/b&gt;&lt;br&gt;LuxR family regulator&lt;br&gt;Location: 37222 - 36578" points="106,85 111,80 116,80 116,90 111,90 106,85 " style="stroke-width:1; stroke:black; fill:white; " id="dummy-17_h17_8_0" class="clusterblast-orf"  />
</g>
<g id="a17_001"  >
<polygon locus_tag="BAX64258.1" description="&lt;b&gt;BAX64258.1&lt;/b&gt;&lt;br&gt;histidine kinse&lt;br&gt;Location: 36614 - 35295" points="115,85 120,80 136,80 136,90 120,90 115,85 " style="stroke-width:1; stroke:black; fill:white; " id="dummy-17_h17_8_1" class="clusterblast-orf"  />
</g>
<g id="a17_002"  >
<polygon locus_tag="BAX64257.1" description="&lt;b&gt;BAX64257.1&lt;/b&gt;&lt;br&gt;MaoC dehydratase&lt;br&gt;Location: 35163 - 34687" points="138,85 143,80 145,80 145,90 143,90 138,85 " style="stroke-width:1; stroke:black; fill:white; " id="dummy-17_h17_8_2" class="clusterblast-orf"  />
</g>
<g id="a17_003"  >
<polygon locus_tag="BAX64256.1" description="&lt;b&gt;BAX64256.1&lt;/b&gt;&lt;br&gt;alanine dehydrogenase&lt;br&gt;Location: 34575 - 33544" points="147,85 152,80 163,80 163,90 152,90 147,85 " style="stroke-width:1; stroke:black; fill:white; " id="dummy-17_h17_8_3" class="clusterblast-orf"  />
</g>
<g id="a17_004"  >
<polygon locus_tag="BAX64255.1" description="&lt;b&gt;BAX64255.1&lt;/b&gt;&lt;br&gt;flavin-dependent oxidoreductase&lt;br&gt;Location: 33488 - 31761" points="164,85 169,80 190,80 190,90 169,90 164,85 " style="stroke-width:1; stroke:black; fill:white; " id="dummy-17_h17_8_4" class="clusterblast-orf"  />
</g>
<g id="a17_005"  >
<polygon locus_tag="BAX64254.1" description="&lt;b&gt;BAX64254.1&lt;/b&gt;&lt;br&gt;ketoreductase&lt;br&gt;Location: 31761 - 31033&lt;br&gt;&lt;br&gt;&lt;b&gt;BlastP hit with SSMG_04275&lt;/b&gt;&lt;br&gt;Percentage identity: 62&lt;br&gt;Percentage coverage: 97&lt;br&gt;BLAST bit score: 279&lt;br&gt;E-value: 5.6e-75" points="190,85 195,80 201,80 201,90 195,90 190,85 " style="stroke-width:1; stroke:black; fill:#d81515; " id="dummy-17_h17_8_5" class="clusterblast-orf"  />
</g>
<g id="a17_006"  >
<polygon locus_tag="BAX64253.1" description="&lt;b&gt;BAX64253.1&lt;/b&gt;&lt;br&gt;ketosynthase&lt;br&gt;Location: 31036 - 29900" points="201,85 206,80 219,80 219,90 206,90 201,85 " style="stroke-width:1; stroke:black; fill:white; " id="dummy-17_h17_8_6" class="clusterblast-orf"  />
</g>
<g id="a17_007"  >
<polygon locus_tag="BAX64252.1" description="&lt;b&gt;BAX64252.1&lt;/b&gt;&lt;br&gt;ketosynthase&lt;br&gt;Location: 29899 - 28670&lt;br&gt;&lt;br&gt;&lt;b&gt;BlastP hit with SSMG_04279&lt;/b&gt;&lt;br&gt;Percentage identity: 58&lt;br&gt;Percentage coverage: 98&lt;br&gt;BLAST bit score: 467&lt;br&gt;E-value: 3.2e-131" points="219,85 224,80 238,80 238,90 224,90 219,85 " style="stroke-width:1; stroke:black; fill:#15d815; " id="dummy-17_h17_8_7" class="clusterblast-orf"  />
</g>
<g id="a17_008"  >
<polygon locus_tag="BAX64251.1" description="&lt;b&gt;BAX64251.1&lt;/b&gt;&lt;br&gt;ACP&lt;br&gt;Location: 28640 - 28389" points="238,85 242,80 242,90 238,85 " style="stroke-width:1; stroke:black; fill:white; " id="dummy-17_h17_8_8" class="clusterblast-orf"  />
</g>
<g id="a17_009"  >
<polygon locus_tag="BAX64250.1" description="&lt;b&gt;BAX64250.1&lt;/b&gt;&lt;br&gt;ABC transporter&lt;br&gt;Location: 28286 - 27444" points="244,85 249,80 257,80 257,90 249,90 244,85 " style="stroke-width:1; stroke:black; fill:white; " id="dummy-17_h17_8_9" class="clusterblast-orf"  />
</g>
<g id="a17_0010"  >
<polygon locus_tag="BAX64249.1" description="&lt;b&gt;BAX64249.1&lt;/b&gt;&lt;br&gt;ABC transporter&lt;br&gt;Location: 27447 - 26482" points="257,85 262,80 272,80 272,90 262,90 257,85 " style="stroke-width:1; stroke:black; fill:white; " id="dummy-17_h17_8_10" class="clusterblast-orf"  />
</g>
<g id="a17_0011"  >
<polygon locus_tag="BAX64248.1" description="&lt;b&gt;BAX64248.1&lt;/b&gt;&lt;br&gt;MbtH-like protein&lt;br&gt;Location: 26479 - 26237" points="272,85 275,80 275,90 272,85 " style="stroke-width:1; stroke:black; fill:white; " id="dummy-17_h17_8_11" class="clusterblast-orf"  />
</g>
<g id="a17_0012"  >
<polygon locus_tag="BAX64247.1" description="&lt;b&gt;BAX64247.1&lt;/b&gt;&lt;br&gt;NRPS&lt;br&gt;Location: 26222 - 18879" points="276,85 281,80 389,80 389,90 281,90 276,85 " style="stroke-width:1; stroke:black; fill:white; " id="dummy-17_h17_8_12" class="clusterblast-orf"  />
</g>
<g id="a17_0013"  >
<polygon locus_tag="BAX64246.1" description="&lt;b&gt;BAX64246.1&lt;/b&gt;&lt;br&gt;NRPS&lt;br&gt;Location: 18882 - 10753" points="389,85 394,80 514,80 514,90 394,90 389,85 " style="stroke-width:1; stroke:black; fill:white; " id="dummy-17_h17_8_13" class="clusterblast-orf"  />
</g>
<g id="a17_0014"  >
<polygon locus_tag="BAX64245.1" description="&lt;b&gt;BAX64245.1&lt;/b&gt;&lt;br&gt;cysteine synthase&lt;br&gt;Location: 10734 - 9697" points="515,85 520,80 531,80 531,90 520,90 515,85 " style="stroke-width:1; stroke:black; fill:white; " id="dummy-17_h17_8_14" class="clusterblast-orf"  />
</g>
<g id="a17_0015"  >
<polygon locus_tag="BAX64244.1" description="&lt;b&gt;BAX64244.1&lt;/b&gt;&lt;br&gt;NRPS&lt;br&gt;Location: 9360 - 1735" points="536,90 648,90 653,85 648,80 536,80 536,90 " style="stroke-width:1; stroke:black; fill:white; " id="dummy-17_h17_8_15" class="clusterblast-orf"  />
</g>
<g id="a17_0016"  >
<polygon locus_tag="BAX64243.1" description="&lt;b&gt;BAX64243.1&lt;/b&gt;&lt;br&gt;SARP family transcriptional regulator&lt;br&gt;Location: 1649 - 891" points="655,85 660,80 666,80 666,90 660,90 655,85 " style="stroke-width:1; stroke:black; fill:white; " id="dummy-17_h17_8_16" class="clusterblast-orf"  />
</g>
<g id="a17_0017"  >
<polygon locus_tag="BAX64242.1" description="&lt;b&gt;BAX64242.1&lt;/b&gt;&lt;br&gt;LuxR family regulator&lt;br&gt;Location: 758 - 462" points="668,85 673,80 673,80 673,90 673,90 668,85 " style="stroke-width:1; stroke:black; fill:white; " id="dummy-17_h17_8_17" class="clusterblast-orf"  />
</g>
</svg>
