<svg version="1.1" xmlns="http://www.w3.org/2000/svg" height="230" width="800" xmlns:xlink="http://www.w3.org/1999/xlink" preserveAspectRatio="none" x="0" y="0" viewBox="0 0 800 230"  >
<g label="Query sequence" class="clusterblast-cluster"  >
<text class="clusterblast-acc" y="20" x="5"  >
Query sequence</text>
<line x1="10" x2="778.0" y2="35" style="stroke-width:1; stroke:grey; " y1="35"  />
<polygon locus_tag="SSMG_04259" description="&lt;b&gt;SSMG_04259&lt;/b&gt;&lt;br&gt;conserved hypothetical protein&lt;br&gt;Location: 4646055 - 4646568" points="0,35 5,30 8,30 8,40 5,40 0,35 " style="stroke-width:1; stroke:black; fill:white; " id="dummy-17_q0_0_all" class="clusterblast-orf"  />
<polygon locus_tag="SSMG_04260" description="&lt;b&gt;SSMG_04260&lt;/b&gt;&lt;br&gt;predicted protein&lt;br&gt;Location: 4646583 - 4647069" points="8,35 13,30 15,30 15,40 13,40 8,35 " style="stroke-width:1; stroke:black; fill:white; " id="dummy-17_q1_0_all" class="clusterblast-orf"  />
<polygon locus_tag="SSMG_04261" description="&lt;b&gt;SSMG_04261&lt;/b&gt;&lt;br&gt;phosphatidylinositol alpha-mannosyltransferase&lt;br&gt;Location: 4647065 - 4648208" points="15,35 20,30 33,30 33,40 20,40 15,35 " style="stroke-width:1; stroke:black; fill:white; " id="dummy-17_q2_0_all" class="clusterblast-orf"  />
<polygon locus_tag="SSMG_04262" description="&lt;b&gt;SSMG_04262&lt;/b&gt;&lt;br&gt;predicted protein&lt;br&gt;Location: 4648225 - 4649128" points="33,35 38,30 47,30 47,40 38,40 33,35 " style="stroke-width:1; stroke:black; fill:white; " id="dummy-17_q3_0_all" class="clusterblast-orf"  />
<polygon locus_tag="SSMG_04263" description="&lt;b&gt;SSMG_04263&lt;/b&gt;&lt;br&gt;phosphatidylinositol synthase&lt;br&gt;Location: 4649124 - 4649772" points="47,35 52,30 57,30 57,40 52,40 47,35 " style="stroke-width:1; stroke:black; fill:white; " id="dummy-17_q4_0_all" class="clusterblast-orf"  />
<polygon locus_tag="SSMG_04264" description="&lt;b&gt;SSMG_04264&lt;/b&gt;&lt;br&gt;MarR-family transcriptional repressor&lt;br&gt;Location: 4649872 - 4650403" points="59,35 64,30 67,30 67,40 64,40 59,35 " style="stroke-width:1; stroke:black; fill:white; " id="dummy-17_q5_0_all" class="clusterblast-orf"  />
<polygon locus_tag="SSMG_04265" description="&lt;b&gt;SSMG_04265&lt;/b&gt;&lt;br&gt;HIT family protein&lt;br&gt;Location: 4650453 - 4650996" points="68,35 73,30 76,30 76,40 73,40 68,35 " style="stroke-width:1; stroke:black; fill:white; " id="dummy-17_q6_0_all" class="clusterblast-orf"  />
<polygon locus_tag="SSMG_04266" description="&lt;b&gt;SSMG_04266&lt;/b&gt;&lt;br&gt;threonyl-tRNA synthetase&lt;br&gt;Location: 4650992 - 4653029" points="76,35 81,30 107,30 107,40 81,40 76,35 " style="stroke-width:1; stroke:black; fill:white; " id="dummy-17_q7_0_all" class="clusterblast-orf"  />
<polygon locus_tag="SSMG_04267" description="&lt;b&gt;SSMG_04267&lt;/b&gt;&lt;br&gt;nitroreductase&lt;br&gt;Location: 4653174 - 4653786" points="109,35 114,30 119,30 119,40 114,40 109,35 " style="stroke-width:1; stroke:black; fill:white; " id="dummy-17_q8_0_all" class="clusterblast-orf"  />
<polygon locus_tag="SSMG_04268" description="&lt;b&gt;SSMG_04268&lt;/b&gt;&lt;br&gt;undecaprenyl-phosphate glucose phosphotransferase&lt;br&gt;Location: 4653943 - 4655410" points="121,35 126,30 144,30 144,40 126,40 121,35 " style="stroke-width:1; stroke:black; fill:white; " id="dummy-17_q9_0_all" class="clusterblast-orf"  />
<polygon locus_tag="SSMG_04269" description="&lt;b&gt;SSMG_04269&lt;/b&gt;&lt;br&gt;predicted protein&lt;br&gt;Location: 4656012 - 4656249" points="153,35 157,30 157,40 153,35 " style="stroke-width:1; stroke:black; fill:white; " id="dummy-17_q10_0_all" class="clusterblast-orf"  />
<polygon locus_tag="SSMG_04270" description="&lt;b&gt;SSMG_04270&lt;/b&gt;&lt;br&gt;predicted protein&lt;br&gt;Location: 4656683 - 4657121" points="164,35 169,30 170,30 170,40 169,40 164,35 " style="stroke-width:1; stroke:black; fill:white; " id="dummy-17_q11_0_all" class="clusterblast-orf"  />
<polygon locus_tag="SSMG_04271" description="&lt;b&gt;SSMG_04271&lt;/b&gt;&lt;br&gt;predicted protein&lt;br&gt;Location: 4658192 - 4659011" points="187,40 195,40 200,35 195,30 187,30 187,40 " style="stroke-width:1; stroke:black; fill:white; " id="dummy-17_q12_0_all" class="clusterblast-orf"  />
<polygon locus_tag="SSMG_04272" description="&lt;b&gt;SSMG_04272&lt;/b&gt;&lt;br&gt;3-oxoacyl-(acyl carrier protein) synthase III&lt;br&gt;Location: 4659025 - 4659964" points="200,35 205,30 214,30 214,40 205,40 200,35 " style="stroke-width:1; stroke:black; fill:white; " id="dummy-17_q13_0_all" class="clusterblast-orf"  />
<polygon locus_tag="SSMG_04273" description="&lt;b&gt;SSMG_04273&lt;/b&gt;&lt;br&gt;predicted protein&lt;br&gt;Location: 4659985 - 4662595" points="215,35 220,30 255,30 255,40 220,40 215,35 " style="stroke-width:1; stroke:black; fill:white; " id="dummy-17_q14_0_all" class="clusterblast-orf"  />
<polygon locus_tag="SSMG_04274" description="&lt;b&gt;SSMG_04274&lt;/b&gt;&lt;br&gt;conserved hypothetical protein&lt;br&gt;Location: 4662699 - 4663347" points="256,35 261,30 266,30 266,40 261,40 256,35 " style="stroke-width:1; stroke:black; fill:white; " id="dummy-17_q15_0_all" class="clusterblast-orf"  />
<polygon locus_tag="SSMG_04275" description="&lt;b&gt;SSMG_04275&lt;/b&gt;&lt;br&gt;3-oxoacyl-[acyl-carrier-protein] reductase&lt;br&gt;Location: 4663491 - 4664232" points="269,35 274,30 280,30 280,40 274,40 269,35 " style="stroke-width:1; stroke:black; fill:#d81515; " id="dummy-17_q16_0_all" class="clusterblast-orf"  />
<polygon locus_tag="SSMG_04276" description="&lt;b&gt;SSMG_04276&lt;/b&gt;&lt;br&gt;predicted protein&lt;br&gt;Location: 4664228 - 4664642" points="280,35 285,30 286,30 286,40 285,40 280,35 " style="stroke-width:1; stroke:black; fill:white; " id="dummy-17_q17_0_all" class="clusterblast-orf"  />
<polygon locus_tag="SSMG_04277" description="&lt;b&gt;SSMG_04277&lt;/b&gt;&lt;br&gt;predicted protein&lt;br&gt;Location: 4664638 - 4664989" points="286,35 291,30 292,30 292,40 291,40 286,35 " style="stroke-width:1; stroke:black; fill:white; " id="dummy-17_q18_0_all" class="clusterblast-orf"  />
<polygon locus_tag="SSMG_04278" description="&lt;b&gt;SSMG_04278&lt;/b&gt;&lt;br&gt;predicted protein&lt;br&gt;Location: 4664964 - 4665975" points="291,35 296,30 307,30 307,40 296,40 291,35 " style="stroke-width:1; stroke:black; fill:white; " id="dummy-17_q19_0_all" class="clusterblast-orf"  />
<polygon locus_tag="SSMG_04279" description="&lt;b&gt;SSMG_04279&lt;/b&gt;&lt;br&gt;3-oxoacyl-[acyl-carrier-protein] synthase 2&lt;br&gt;Location: 4665971 - 4667213" points="307,35 312,30 326,30 326,40 312,40 307,35 " style="stroke-width:1; stroke:black; fill:#15d815; " id="dummy-17_q20_0_all" class="clusterblast-orf"  />
<polygon locus_tag="SSMG_04280" description="&lt;b&gt;SSMG_04280&lt;/b&gt;&lt;br&gt;acyl carrier protein&lt;br&gt;Location: 4667214 - 4667502" points="326,35 331,30 331,30 331,40 331,40 326,35 " style="stroke-width:1; stroke:black; fill:white; " id="dummy-17_q21_0_all" class="clusterblast-orf"  />
<polygon locus_tag="SSMG_04281" description="&lt;b&gt;SSMG_04281&lt;/b&gt;&lt;br&gt;predicted protein&lt;br&gt;Location: 4667530 - 4668379" points="331,35 336,30 344,30 344,40 336,40 331,35 " style="stroke-width:1; stroke:black; fill:white; " id="dummy-17_q22_0_all" class="clusterblast-orf"  />
<polygon locus_tag="SSMG_04282" description="&lt;b&gt;SSMG_04282&lt;/b&gt;&lt;br&gt;dicarboxylate-CoA ligase PimA&lt;br&gt;Location: 4668401 - 4669997" points="344,35 349,30 369,30 369,40 349,40 344,35 " style="stroke-width:1; stroke:black; fill:#1597d8; " id="dummy-17_q23_0_all" class="clusterblast-orf"  />
<polygon locus_tag="SSMG_04283" description="&lt;b&gt;SSMG_04283&lt;/b&gt;&lt;br&gt;predicted protein&lt;br&gt;Location: 4669993 - 4671523" points="369,35 374,30 393,30 393,40 374,40 369,35 " style="stroke-width:1; stroke:black; fill:#9715d8; " id="dummy-17_q24_0_all" class="clusterblast-orf"  />
<polygon locus_tag="SSMG_04284" description="&lt;b&gt;SSMG_04284&lt;/b&gt;&lt;br&gt;modular polyketide synthase&lt;br&gt;Location: 4671446 - 4677095" points="391,35 396,30 479,30 479,40 396,40 391,35 " style="stroke-width:1; stroke:black; fill:#d89715; " id="dummy-17_q25_0_all" class="clusterblast-orf"  />
<polygon locus_tag="SSMG_04285" description="&lt;b&gt;SSMG_04285&lt;/b&gt;&lt;br&gt;predicted protein&lt;br&gt;Location: 4677855 - 4678209" points="490,35 495,30 496,30 496,40 495,40 490,35 " style="stroke-width:1; stroke:black; fill:#15d897; " id="dummy-17_q26_0_all" class="clusterblast-orf"  />
<polygon locus_tag="SSMG_04286" description="&lt;b&gt;SSMG_04286&lt;/b&gt;&lt;br&gt;conserved hypothetical protein&lt;br&gt;Location: 4678234 - 4678792" points="496,35 501,30 505,30 505,40 501,40 496,35 " style="stroke-width:1; stroke:black; fill:#1515d8; " id="dummy-17_q27_0_all" class="clusterblast-orf"  />
<polygon locus_tag="SSMG_04287" description="&lt;b&gt;SSMG_04287&lt;/b&gt;&lt;br&gt;predicted protein&lt;br&gt;Location: 4678788 - 4679991" points="505,35 510,30 523,30 523,40 510,40 505,35 " style="stroke-width:1; stroke:black; fill:#d81597; " id="dummy-17_q28_0_all" class="clusterblast-orf"  />
<polygon locus_tag="SSMG_04288" description="&lt;b&gt;SSMG_04288&lt;/b&gt;&lt;br&gt;predicted protein&lt;br&gt;Location: 4680008 - 4681220" points="523,35 528,30 542,30 542,40 528,40 523,35 " style="stroke-width:1; stroke:black; fill:#d81597; " id="dummy-17_q29_0_all" class="clusterblast-orf"  />
<polygon locus_tag="SSMG_04289" description="&lt;b&gt;SSMG_04289&lt;/b&gt;&lt;br&gt;taurine catabolism dioxygenase&lt;br&gt;Location: 4681253 - 4682135" points="543,35 548,30 556,30 556,40 548,40 543,35 " style="stroke-width:1; stroke:black; fill:#97d815; " id="dummy-17_q30_0_all" class="clusterblast-orf"  />
<polygon locus_tag="SSMG_04290" description="&lt;b&gt;SSMG_04290&lt;/b&gt;&lt;br&gt;regulator&lt;br&gt;Location: 4683071 - 4683497" points="571,40 572,40 577,35 572,30 571,30 571,40 " style="stroke-width:1; stroke:black; fill:white; " id="dummy-17_q31_0_all" class="clusterblast-orf"  />
<polygon locus_tag="SSMG_04291" description="&lt;b&gt;SSMG_04291&lt;/b&gt;&lt;br&gt;glucose-6-phosphate dehydrogenase, F420-dependent&lt;br&gt;Location: 4684438 - 4685443" points="592,35 597,30 607,30 607,40 597,40 592,35 " style="stroke-width:1; stroke:black; fill:white; " id="dummy-17_q32_0_all" class="clusterblast-orf"  />
<polygon locus_tag="SSMG_04292" description="&lt;b&gt;SSMG_04292&lt;/b&gt;&lt;br&gt;predicted protein&lt;br&gt;Location: 4685755 - 4686505" points="612,35 617,30 624,30 624,40 617,40 612,35 " style="stroke-width:1; stroke:black; fill:white; " id="dummy-17_q33_0_all" class="clusterblast-orf"  />
<polygon locus_tag="SSMG_04293" description="&lt;b&gt;SSMG_04293&lt;/b&gt;&lt;br&gt;siderophore interacting protein&lt;br&gt;Location: 4687111 - 4687906" points="633,40 640,40 645,35 640,30 633,30 633,40 " style="stroke-width:1; stroke:black; fill:white; " id="dummy-17_q34_0_all" class="clusterblast-orf"  />
<polygon locus_tag="SSMG_04294" description="&lt;b&gt;SSMG_04294&lt;/b&gt;&lt;br&gt;methylated-DNA-protein-cysteine methyltransferase&lt;br&gt;Location: 4687911 - 4688481" points="645,35 650,30 654,30 654,40 650,40 645,35 " style="stroke-width:1; stroke:black; fill:white; " id="dummy-17_q35_0_all" class="clusterblast-orf"  />
<polygon locus_tag="SSMG_04295" description="&lt;b&gt;SSMG_04295&lt;/b&gt;&lt;br&gt;4-carboxy-4-hydroxy-2-oxoadipate aldolase/oxaloacetate decarboxylase&lt;br&gt;Location: 4688461 - 4689097" points="654,40 659,40 664,35 659,30 654,30 654,40 " style="stroke-width:1; stroke:black; fill:white; " id="dummy-17_q36_0_all" class="clusterblast-orf"  />
<polygon locus_tag="SSMG_04296" description="&lt;b&gt;SSMG_04296&lt;/b&gt;&lt;br&gt;predicted protein&lt;br&gt;Location: 4689033 - 4689261" points="663,40 666,35 663,30 663,40 " style="stroke-width:1; stroke:black; fill:white; " id="dummy-17_q37_0_all" class="clusterblast-orf"  />
<polygon locus_tag="SSMG_04297" description="&lt;b&gt;SSMG_04297&lt;/b&gt;&lt;br&gt;predicted protein&lt;br&gt;Location: 4689680 - 4689869" points="673,35 676,30 676,40 673,35 " style="stroke-width:1; stroke:black; fill:white; " id="dummy-17_q38_0_all" class="clusterblast-orf"  />
<polygon locus_tag="SSMG_04298" description="&lt;b&gt;SSMG_04298&lt;/b&gt;&lt;br&gt;predicted protein&lt;br&gt;Location: 4689991 - 4690285" points="677,40 677,40 682,35 677,30 677,30 677,40 " style="stroke-width:1; stroke:black; fill:white; " id="dummy-17_q39_0_all" class="clusterblast-orf"  />
<polygon locus_tag="SSMG_04299" description="&lt;b&gt;SSMG_04299&lt;/b&gt;&lt;br&gt;proline iminopeptidase&lt;br&gt;Location: 4690952 - 4692182" points="692,40 706,40 711,35 706,30 692,30 692,40 " style="stroke-width:1; stroke:black; fill:white; " id="dummy-17_q40_0_all" class="clusterblast-orf"  />
<polygon locus_tag="SSMG_04300" description="&lt;b&gt;SSMG_04300&lt;/b&gt;&lt;br&gt;2-hydroxycyclohexanecarboxyl-CoA dehydrogenase&lt;br&gt;Location: 4692227 - 4693079" points="712,35 717,30 725,30 725,40 717,40 712,35 " style="stroke-width:1; stroke:black; fill:white; " id="dummy-17_q41_0_all" class="clusterblast-orf"  />
<polygon locus_tag="SSMG_04301" description="&lt;b&gt;SSMG_04301&lt;/b&gt;&lt;br&gt;predicted protein&lt;br&gt;Location: 4693154 - 4694012" points="726,35 731,30 740,30 740,40 731,40 726,35 " style="stroke-width:1; stroke:black; fill:white; " id="dummy-17_q42_0_all" class="clusterblast-orf"  />
<polygon locus_tag="SSMG_04302" description="&lt;b&gt;SSMG_04302&lt;/b&gt;&lt;br&gt;conserved hypothetical protein&lt;br&gt;Location: 4694070 - 4695588" points="740,35 745,30 764,30 764,40 745,40 740,35 " style="stroke-width:1; stroke:black; fill:white; " id="dummy-17_q43_0_all" class="clusterblast-orf"  />
<polygon locus_tag="SSMG_04303" description="&lt;b&gt;SSMG_04303&lt;/b&gt;&lt;br&gt;conserved hypothetical protein&lt;br&gt;Location: 4695563 - 4696613" points="763,35 768,30 780,30 780,40 768,40 763,35 " style="stroke-width:1; stroke:black; fill:white; " id="dummy-17_q44_0_all" class="clusterblast-orf"  />
</g>
<g label="BGC0000213" description="BGC0000213_c1: colabomycin E (4% of genes show similarity), Polyketide:Type II" class="clusterblast-cluster"  >
<text class="clusterblast-acc" y="70" x="5"  >
<a xlink:href="https://mibig.secondarymetabolites.org/go/BGC0000213/1" target="_blank">BGC0000213</a>:                                                                    colabomycin E (4% of genes show similarity), Polyketide:Type II</text>
<line x1="10" x2="778.0" y2="85" style="stroke-width:1; stroke:grey; " y1="85"  />
</g>
<g id="a17_000"  >
<polygon locus_tag="AIL50152.1" description="&lt;b&gt;AIL50152.1&lt;/b&gt;&lt;br&gt;hypothetical protein&lt;br&gt;Location: 205 - 858" points="32,90 37,90 42,85 37,80 32,80 32,90 " style="stroke-width:1; stroke:black; fill:white; " id="dummy-17_h17_10_0" class="clusterblast-orf"  />
</g>
<g id="a17_001"  >
<polygon locus_tag="AIL50153.1" description="&lt;b&gt;AIL50153.1&lt;/b&gt;&lt;br&gt;hypothetical protein&lt;br&gt;Location: 855 - 2408" points="42,90 61,90 66,85 61,80 42,80 42,90 " style="stroke-width:1; stroke:black; fill:white; " id="dummy-17_h17_10_1" class="clusterblast-orf"  />
</g>
<g id="a17_002"  >
<polygon locus_tag="AIL50154.1" description="&lt;b&gt;AIL50154.1&lt;/b&gt;&lt;br&gt;hypothetical protein&lt;br&gt;Location: 2405 - 4351" points="66,90 91,90 96,85 91,80 66,80 66,90 " style="stroke-width:1; stroke:black; fill:white; " id="dummy-17_h17_10_2" class="clusterblast-orf"  />
</g>
<g id="a17_003"  >
<polygon locus_tag="AIL50156.1" description="&lt;b&gt;AIL50156.1&lt;/b&gt;&lt;br&gt;putative dioxygenase&lt;br&gt;Location: 4424 - 5776" points="97,90 113,90 118,85 113,80 97,80 97,90 " style="stroke-width:1; stroke:black; fill:white; " id="dummy-17_h17_10_3" class="clusterblast-orf"  />
</g>
<g id="a17_004"  >
<polygon locus_tag="AIL50155.1" description="&lt;b&gt;AIL50155.1&lt;/b&gt;&lt;br&gt;putative glutamine synthetase&lt;br&gt;Location: 5782 - 7218" points="118,90 135,90 140,85 135,80 118,80 118,90 " style="stroke-width:1; stroke:black; fill:white; " id="dummy-17_h17_10_4" class="clusterblast-orf"  />
</g>
<g id="a17_005"  >
<polygon locus_tag="AIL50157.1" description="&lt;b&gt;AIL50157.1&lt;/b&gt;&lt;br&gt;putative oxidoreductase&lt;br&gt;Location: 7235 - 8377" points="141,90 153,90 158,85 153,80 141,80 141,90 " style="stroke-width:1; stroke:black; fill:white; " id="dummy-17_h17_10_5" class="clusterblast-orf"  />
</g>
<g id="a17_006"  >
<polygon locus_tag="AIL50158.1" description="&lt;b&gt;AIL50158.1&lt;/b&gt;&lt;br&gt;putative feruolyl esterase&lt;br&gt;Location: 8251 - 9963" points="156,85 161,80 183,80 183,90 161,90 156,85 " style="stroke-width:1; stroke:black; fill:white; " id="dummy-17_h17_10_6" class="clusterblast-orf"  />
</g>
<g id="a17_007"  >
<polygon locus_tag="AIL50159.1" description="&lt;b&gt;AIL50159.1&lt;/b&gt;&lt;br&gt;putative nitrate ABC transport substrate-binding protein&lt;br&gt;Location: 10258 - 11232" points="187,90 197,90 202,85 197,80 187,80 187,90 " style="stroke-width:1; stroke:black; fill:white; " id="dummy-17_h17_10_7" class="clusterblast-orf"  />
</g>
<g id="a17_008"  >
<polygon locus_tag="AIL50160.1" description="&lt;b&gt;AIL50160.1&lt;/b&gt;&lt;br&gt;putative cytochrome P450&lt;br&gt;Location: 11246 - 12421" points="202,85 207,80 221,80 221,90 207,90 202,85 " style="stroke-width:1; stroke:black; fill:white; " id="dummy-17_h17_10_8" class="clusterblast-orf"  />
</g>
<g id="a17_009"  >
<polygon locus_tag="AIL50161.1" description="&lt;b&gt;AIL50161.1&lt;/b&gt;&lt;br&gt;hypothetical protein&lt;br&gt;Location: 12596 - 14581" points="223,90 249,90 254,85 249,80 223,80 223,90 " style="stroke-width:1; stroke:black; fill:white; " id="dummy-17_h17_10_9" class="clusterblast-orf"  />
</g>
<g id="a17_0010"  >
<polygon locus_tag="AIL50162.1" description="&lt;b&gt;AIL50162.1&lt;/b&gt;&lt;br&gt;hypothetical protein&lt;br&gt;Location: 14631 - 15533" points="255,85 260,80 269,80 269,90 260,90 255,85 " style="stroke-width:1; stroke:black; fill:white; " id="dummy-17_h17_10_10" class="clusterblast-orf"  />
</g>
<g id="a17_0011"  >
<polygon locus_tag="AIL50163.1" description="&lt;b&gt;AIL50163.1&lt;/b&gt;&lt;br&gt;regulatory protein&lt;br&gt;Location: 15655 - 16407" points="270,85 275,80 282,80 282,90 275,90 270,85 " style="stroke-width:1; stroke:black; fill:white; " id="dummy-17_h17_10_11" class="clusterblast-orf"  />
</g>
<g id="a17_0012"  >
<polygon locus_tag="AIL50164.1" description="&lt;b&gt;AIL50164.1&lt;/b&gt;&lt;br&gt;DSBA oxido/reductase&lt;br&gt;Location: 16644 - 17378" points="286,85 291,80 297,80 297,90 291,90 286,85 " style="stroke-width:1; stroke:black; fill:white; " id="dummy-17_h17_10_12" class="clusterblast-orf"  />
</g>
<g id="a17_0013"  >
<polygon locus_tag="AIL50165.1" description="&lt;b&gt;AIL50165.1&lt;/b&gt;&lt;br&gt;hypothetical protein&lt;br&gt;Location: 17366 - 18505" points="297,85 302,80 314,80 314,90 302,90 297,85 " style="stroke-width:1; stroke:black; fill:white; " id="dummy-17_h17_10_13" class="clusterblast-orf"  />
</g>
<g id="a17_0014"  >
<polygon locus_tag="AIL50166.1" description="&lt;b&gt;AIL50166.1&lt;/b&gt;&lt;br&gt;putative beta-ketoacyl synthase&lt;br&gt;Location: 18502 - 19710&lt;br&gt;&lt;br&gt;&lt;b&gt;BlastP hit with SSMG_04279&lt;/b&gt;&lt;br&gt;Percentage identity: 54&lt;br&gt;Percentage coverage: 96&lt;br&gt;BLAST bit score: 404&lt;br&gt;E-value: 1.5e-112" points="314,85 319,80 333,80 333,90 319,90 314,85 " style="stroke-width:1; stroke:black; fill:#15d815; " id="dummy-17_h17_10_14" class="clusterblast-orf"  />
</g>
<g id="a17_0015"  >
<polygon locus_tag="AIL50167.1" description="&lt;b&gt;AIL50167.1&lt;/b&gt;&lt;br&gt;putative ACP&lt;br&gt;Location: 19712 - 19966" points="333,85 337,80 337,90 333,85 " style="stroke-width:1; stroke:black; fill:white; " id="dummy-17_h17_10_15" class="clusterblast-orf"  />
</g>
<g id="a17_0016"  >
<polygon locus_tag="AIL50168.1" description="&lt;b&gt;AIL50168.1&lt;/b&gt;&lt;br&gt;putative ketoreductase&lt;br&gt;Location: 20026 - 20766&lt;br&gt;&lt;br&gt;&lt;b&gt;BlastP hit with SSMG_04275&lt;/b&gt;&lt;br&gt;Percentage identity: 50&lt;br&gt;Percentage coverage: 99&lt;br&gt;BLAST bit score: 235&lt;br&gt;E-value: 1.2e-61" points="338,85 343,80 349,80 349,90 343,90 338,85 " style="stroke-width:1; stroke:black; fill:#d81515; " id="dummy-17_h17_10_16" class="clusterblast-orf"  />
</g>
<g id="a17_0017"  >
<polygon locus_tag="AIL50169.1" description="&lt;b&gt;AIL50169.1&lt;/b&gt;&lt;br&gt;putative arylamine N-acetyltransferase&lt;br&gt;Location: 20766 - 21623" points="349,85 354,80 363,80 363,90 354,90 349,85 " style="stroke-width:1; stroke:black; fill:white; " id="dummy-17_h17_10_17" class="clusterblast-orf"  />
</g>
<g id="a17_0018"  >
<polygon locus_tag="AIL50170.1" description="&lt;b&gt;AIL50170.1&lt;/b&gt;&lt;br&gt;putative transport protein&lt;br&gt;Location: 21914 - 23440" points="367,85 372,80 391,80 391,90 372,90 367,85 " style="stroke-width:1; stroke:black; fill:white; " id="dummy-17_h17_10_18" class="clusterblast-orf"  />
</g>
<g id="a17_0019"  >
<polygon locus_tag="AIL50171.1" description="&lt;b&gt;AIL50171.1&lt;/b&gt;&lt;br&gt;putative type II thioesterase&lt;br&gt;Location: 23534 - 24313" points="392,85 397,80 404,80 404,90 397,90 392,85 " style="stroke-width:1; stroke:black; fill:white; " id="dummy-17_h17_10_19" class="clusterblast-orf"  />
</g>
<g id="a17_0020"  >
<polygon locus_tag="AIL50172.1" description="&lt;b&gt;AIL50172.1&lt;/b&gt;&lt;br&gt;putative acyl dehydratase&lt;br&gt;Location: 24310 - 25113" points="404,85 409,80 416,80 416,90 409,90 404,85 " style="stroke-width:1; stroke:black; fill:white; " id="dummy-17_h17_10_20" class="clusterblast-orf"  />
</g>
<g id="a17_0021"  >
<polygon locus_tag="AIL50173.1" description="&lt;b&gt;AIL50173.1&lt;/b&gt;&lt;br&gt;putative acyl dehydratase&lt;br&gt;Location: 25113 - 25547" points="416,85 421,80 423,80 423,90 421,90 416,85 " style="stroke-width:1; stroke:black; fill:white; " id="dummy-17_h17_10_21" class="clusterblast-orf"  />
</g>
<g id="a17_0022"  >
<polygon locus_tag="AIL50174.1" description="&lt;b&gt;AIL50174.1&lt;/b&gt;&lt;br&gt;putative 3,4-AHBA carboxyl group adenylase&lt;br&gt;Location: 25544 - 26953" points="423,85 428,80 445,80 445,90 428,90 423,85 " style="stroke-width:1; stroke:black; fill:white; " id="dummy-17_h17_10_22" class="clusterblast-orf"  />
</g>
<g id="a17_0023"  >
<polygon locus_tag="AIL50175.1" description="&lt;b&gt;AIL50175.1&lt;/b&gt;&lt;br&gt;putative 3,4-AHBA synthase&lt;br&gt;Location: 26971 - 28098" points="445,85 450,80 462,80 462,90 450,90 445,85 " style="stroke-width:1; stroke:black; fill:white; " id="dummy-17_h17_10_23" class="clusterblast-orf"  />
</g>
<g id="a17_0024"  >
<polygon locus_tag="AIL50176.1" description="&lt;b&gt;AIL50176.1&lt;/b&gt;&lt;br&gt;putative 2-amino-4,5-dihydroxy-6-one-heptanoic acid-7-phosphate synthase&lt;br&gt;Location: 28393 - 29208" points="467,90 475,90 480,85 475,80 467,80 467,90 " style="stroke-width:1; stroke:black; fill:white; " id="dummy-17_h17_10_24" class="clusterblast-orf"  />
</g>
<g id="a17_0025"  >
<polygon locus_tag="AIL50177.1" description="&lt;b&gt;AIL50177.1&lt;/b&gt;&lt;br&gt;putative ACP&lt;br&gt;Location: 29304 - 29582" points="481,90 485,85 481,80 481,90 " style="stroke-width:1; stroke:black; fill:white; " id="dummy-17_h17_10_25" class="clusterblast-orf"  />
</g>
<g id="a17_0026"  >
<polygon locus_tag="AIL50178.1" description="&lt;b&gt;AIL50178.1&lt;/b&gt;&lt;br&gt;putative 3,4-AHBA ACP&lt;br&gt;Location: 29579 - 29860" points="485,90 485,90 490,85 485,80 485,80 485,90 " style="stroke-width:1; stroke:black; fill:white; " id="dummy-17_h17_10_26" class="clusterblast-orf"  />
</g>
<g id="a17_0027"  >
<polygon locus_tag="AIL50179.1" description="&lt;b&gt;AIL50179.1&lt;/b&gt;&lt;br&gt;putative type II PKS ketosynthase alpha subunit&lt;br&gt;Location: 29850 - 31043" points="489,90 503,90 508,85 503,80 489,80 489,90 " style="stroke-width:1; stroke:black; fill:white; " id="dummy-17_h17_10_27" class="clusterblast-orf"  />
</g>
<g id="a17_0028"  >
<polygon locus_tag="AIL50180.1" description="&lt;b&gt;AIL50180.1&lt;/b&gt;&lt;br&gt;putative beta-ketoacyl synthase beta subunit (CLF)&lt;br&gt;Location: 31098 - 31835" points="509,90 515,90 520,85 515,80 509,80 509,90 " style="stroke-width:1; stroke:black; fill:white; " id="dummy-17_h17_10_28" class="clusterblast-orf"  />
</g>
<g id="a17_0029"  >
<polygon locus_tag="AIL50181.1" description="&lt;b&gt;AIL50181.1&lt;/b&gt;&lt;br&gt;putative 4-hydroxyprotocolabomycin epoxidase&lt;br&gt;Location: 31846 - 32970" points="520,90 533,90 538,85 533,80 520,80 520,90 " style="stroke-width:1; stroke:black; fill:white; " id="dummy-17_h17_10_29" class="clusterblast-orf"  />
</g>
<g id="a17_0030"  >
<polygon locus_tag="AIL50182.1" description="&lt;b&gt;AIL50182.1&lt;/b&gt;&lt;br&gt;putative ketoreductase&lt;br&gt;Location: 33051 - 33755" points="539,85 544,80 550,80 550,90 544,90 539,85 " style="stroke-width:1; stroke:black; fill:white; " id="dummy-17_h17_10_30" class="clusterblast-orf"  />
</g>
<g id="a17_0031"  >
<polygon locus_tag="AIL50183.1" description="&lt;b&gt;AIL50183.1&lt;/b&gt;&lt;br&gt;putative flavin reductase&lt;br&gt;Location: 33854 - 34387" points="551,85 556,80 559,80 559,90 556,90 551,85 " style="stroke-width:1; stroke:black; fill:white; " id="dummy-17_h17_10_31" class="clusterblast-orf"  />
</g>
<g id="a17_0032"  >
<polygon locus_tag="AIL50184.1" description="&lt;b&gt;AIL50184.1&lt;/b&gt;&lt;br&gt;putative thioesterase&lt;br&gt;Location: 34403 - 34858" points="560,85 565,80 567,80 567,90 565,90 560,85 " style="stroke-width:1; stroke:black; fill:white; " id="dummy-17_h17_10_32" class="clusterblast-orf"  />
</g>
<g id="a17_0033"  >
<polygon locus_tag="AIL50187.1" description="&lt;b&gt;AIL50187.1&lt;/b&gt;&lt;br&gt;putative TetR family transcriptional regulator&lt;br&gt;Location: 35095 - 35673" points="570,85 575,80 579,80 579,90 575,90 570,85 " style="stroke-width:1; stroke:black; fill:white; " id="dummy-17_h17_10_33" class="clusterblast-orf"  />
</g>
<g id="a17_0034"  >
<polygon locus_tag="AIL50186.1" description="&lt;b&gt;AIL50186.1&lt;/b&gt;&lt;br&gt;putative transcriptional regulator&lt;br&gt;Location: 35716 - 36357" points="580,85 585,80 590,80 590,90 585,90 580,85 " style="stroke-width:1; stroke:black; fill:white; " id="dummy-17_h17_10_34" class="clusterblast-orf"  />
</g>
<g id="a17_0035"  >
<polygon locus_tag="AIL50185.1" description="&lt;b&gt;AIL50185.1&lt;/b&gt;&lt;br&gt;putative phosphopantetheinyl transferase&lt;br&gt;Location: 36419 - 37126" points="591,85 596,80 602,80 602,90 596,90 591,85 " style="stroke-width:1; stroke:black; fill:white; " id="dummy-17_h17_10_35" class="clusterblast-orf"  />
</g>
<g id="a17_0036"  >
<polygon locus_tag="AIL50188.1" description="&lt;b&gt;AIL50188.1&lt;/b&gt;&lt;br&gt;putative protocolabomycin 4-hydroxylase&lt;br&gt;Location: 37513 - 38730" points="608,90 621,90 626,85 621,80 608,80 608,90 " style="stroke-width:1; stroke:black; fill:white; " id="dummy-17_h17_10_36" class="clusterblast-orf"  />
</g>
<g id="a17_0037"  >
<polygon locus_tag="AIL50189.1" description="&lt;b&gt;AIL50189.1&lt;/b&gt;&lt;br&gt;putative 5-aminolevulinate CoA-ligase&lt;br&gt;Location: 38800 - 40341" points="628,85 633,80 651,80 651,90 633,90 628,85 " style="stroke-width:1; stroke:black; fill:white; " id="dummy-17_h17_10_37" class="clusterblast-orf"  />
</g>
<g id="a17_0038"  >
<polygon locus_tag="AIL50190.1" description="&lt;b&gt;AIL50190.1&lt;/b&gt;&lt;br&gt;putative 5-aminolevulinate synthase&lt;br&gt;Location: 40417 - 41646" points="652,85 657,80 671,80 671,90 657,90 652,85 " style="stroke-width:1; stroke:black; fill:white; " id="dummy-17_h17_10_38" class="clusterblast-orf"  />
</g>
<g id="a17_0039"  >
<polygon locus_tag="AIL50191.1" description="&lt;b&gt;AIL50191.1&lt;/b&gt;&lt;br&gt;putative amide synthetase&lt;br&gt;Location: 41726 - 43279" points="673,85 678,80 697,80 697,90 678,90 673,85 " style="stroke-width:1; stroke:black; fill:white; " id="dummy-17_h17_10_39" class="clusterblast-orf"  />
</g>
<g id="a17_0040"  >
<polygon locus_tag="AIL50192.1" description="&lt;b&gt;AIL50192.1&lt;/b&gt;&lt;br&gt;putative TetR family transcriptional regulator&lt;br&gt;Location: 43561 - 44136" points="701,85 706,80 710,80 710,90 706,90 701,85 " style="stroke-width:1; stroke:black; fill:white; " id="dummy-17_h17_10_40" class="clusterblast-orf"  />
</g>
<g id="a17_0041"  >
<polygon locus_tag="AIL50193.1" description="&lt;b&gt;AIL50193.1&lt;/b&gt;&lt;br&gt;hypothetical protein&lt;br&gt;Location: 44298 - 44936" points="712,90 717,90 722,85 717,80 712,80 712,90 " style="stroke-width:1; stroke:black; fill:white; " id="dummy-17_h17_10_41" class="clusterblast-orf"  />
</g>
<g id="a17_0042"  >
<polygon locus_tag="AIL50194.1" description="&lt;b&gt;AIL50194.1&lt;/b&gt;&lt;br&gt;hypothetical protein&lt;br&gt;Location: 44985 - 45716" points="723,85 728,80 734,80 734,90 728,90 723,85 " style="stroke-width:1; stroke:black; fill:white; " id="dummy-17_h17_10_42" class="clusterblast-orf"  />
</g>
<g id="a17_0043"  >
<polygon locus_tag="AIL50195.1" description="&lt;b&gt;AIL50195.1&lt;/b&gt;&lt;br&gt;hypothetical protein&lt;br&gt;Location: 46301 - 46538" points="743,90 747,85 743,80 743,90 " style="stroke-width:1; stroke:black; fill:white; " id="dummy-17_h17_10_43" class="clusterblast-orf"  />
</g>
</svg>
