<svg version="1.1" xmlns="http://www.w3.org/2000/svg" height="230" width="800" xmlns:xlink="http://www.w3.org/1999/xlink" preserveAspectRatio="none" x="0" y="0" viewBox="0 0 800 230"  >
<g label="Query sequence" class="clusterblast-cluster"  >
<text class="clusterblast-acc" y="20" x="5"  >
Query sequence</text>
<line x1="10" x2="778.0" y2="35" style="stroke-width:1; stroke:grey; " y1="35"  />
<polygon locus_tag="SSMG_00016" description="&lt;b&gt;SSMG_00016&lt;/b&gt;&lt;br&gt;regulatory protein&lt;br&gt;Location: 18425 - 18938" points="0,35 5,30 20,30 20,40 5,40 0,35 " style="stroke-width:1; stroke:black; fill:white; " id="dummy-1_q0_0_all" class="clusterblast-orf"  />
<polygon locus_tag="SSMG_00017" description="&lt;b&gt;SSMG_00017&lt;/b&gt;&lt;br&gt;esterase/lipase&lt;br&gt;Location: 19064 - 20027" points="25,40 57,40 62,35 57,30 25,30 25,40 " style="stroke-width:1; stroke:black; fill:white; " id="dummy-1_q1_0_all" class="clusterblast-orf"  />
<polygon locus_tag="SSMG_00018" description="&lt;b&gt;SSMG_00018&lt;/b&gt;&lt;br&gt;predicted protein&lt;br&gt;Location: 20186 - 21581" points="68,40 117,40 122,35 117,30 68,30 68,40 " style="stroke-width:1; stroke:black; fill:white; " id="dummy-1_q2_0_all" class="clusterblast-orf"  />
<polygon locus_tag="SSMG_00019" description="&lt;b&gt;SSMG_00019&lt;/b&gt;&lt;br&gt;predicted protein&lt;br&gt;Location: 21584 - 22448" points="122,35 127,30 156,30 156,40 127,40 122,35 " style="stroke-width:1; stroke:black; fill:white; " id="dummy-1_q3_0_all" class="clusterblast-orf"  />
<polygon locus_tag="SSMG_00020" description="&lt;b&gt;SSMG_00020&lt;/b&gt;&lt;br&gt;TetR-family transcriptional regulator&lt;br&gt;Location: 22567 - 23146" points="160,35 165,30 183,30 183,40 165,40 160,35 " style="stroke-width:1; stroke:black; fill:#d81515; " id="dummy-1_q4_0_all" class="clusterblast-orf"  />
<polygon locus_tag="SSMG_00021" description="&lt;b&gt;SSMG_00021&lt;/b&gt;&lt;br&gt;membrane protein&lt;br&gt;Location: 23236 - 23683" points="186,40 198,40 203,35 198,30 186,30 186,40 " style="stroke-width:1; stroke:black; fill:#4dd815; " id="dummy-1_q5_0_all" class="clusterblast-orf"  />
<polygon locus_tag="SSMG_00022" description="&lt;b&gt;SSMG_00022&lt;/b&gt;&lt;br&gt;predicted protein&lt;br&gt;Location: 23843 - 24374" points="209,40 225,40 230,35 225,30 209,30 209,40 " style="stroke-width:1; stroke:black; fill:white; " id="dummy-1_q6_0_all" class="clusterblast-orf"  />
<polygon locus_tag="SSMG_00023" description="&lt;b&gt;SSMG_00023&lt;/b&gt;&lt;br&gt;adenylosuccinate lyase&lt;br&gt;Location: 24440 - 25841" points="233,35 238,30 287,30 287,40 238,40 233,35 " style="stroke-width:1; stroke:black; fill:white; " id="dummy-1_q7_0_all" class="clusterblast-orf"  />
<polygon locus_tag="SSMG_00024" description="&lt;b&gt;SSMG_00024&lt;/b&gt;&lt;br&gt;conserved hypothetical protein&lt;br&gt;Location: 26639 - 27155" points="318,35 323,30 338,30 338,40 323,40 318,35 " style="stroke-width:1; stroke:black; fill:white; " id="dummy-1_q8_0_all" class="clusterblast-orf"  />
<polygon locus_tag="SSMG_00025" description="&lt;b&gt;SSMG_00025&lt;/b&gt;&lt;br&gt;predicted protein&lt;br&gt;Location: 27543 - 28605" points="353,40 389,40 394,35 389,30 353,30 353,40 " style="stroke-width:1; stroke:black; fill:#1585d8; " id="dummy-1_q9_0_all" class="clusterblast-orf"  />
<polygon locus_tag="SSMG_00026" description="&lt;b&gt;SSMG_00026&lt;/b&gt;&lt;br&gt;tryptophanase&lt;br&gt;Location: 28647 - 30024" points="395,40 444,40 449,35 444,30 395,30 395,40 " style="stroke-width:1; stroke:black; fill:#d815bc; " id="dummy-1_q10_0_all" class="clusterblast-orf"  />
<polygon locus_tag="SSMG_00027" description="&lt;b&gt;SSMG_00027&lt;/b&gt;&lt;br&gt;ATP/GTP-binding protein&lt;br&gt;Location: 30097 - 30685" points="451,35 456,30 474,30 474,40 456,40 451,35 " style="stroke-width:1; stroke:black; fill:#d8bc15; " id="dummy-1_q11_0_all" class="clusterblast-orf"  />
<polygon locus_tag="SSMG_00028" description="&lt;b&gt;SSMG_00028&lt;/b&gt;&lt;br&gt;conserved hypothetical protein&lt;br&gt;Location: 30665 - 31031" points="473,35 478,30 488,30 488,40 478,40 473,35 " style="stroke-width:1; stroke:black; fill:#15d885; " id="dummy-1_q12_0_all" class="clusterblast-orf"  />
<polygon locus_tag="SSMG_00029" description="&lt;b&gt;SSMG_00029&lt;/b&gt;&lt;br&gt;conserved hypothetical protein&lt;br&gt;Location: 31027 - 31453" points="487,35 492,30 504,30 504,40 492,40 487,35 " style="stroke-width:1; stroke:black; fill:#4d15d8; " id="dummy-1_q13_0_all" class="clusterblast-orf"  />
<polygon locus_tag="SSMG_00030" description="&lt;b&gt;SSMG_00030&lt;/b&gt;&lt;br&gt;hypothetical protein&lt;br&gt;Location: 31495 - 33862" points="505,35 510,30 597,30 597,40 510,40 505,35 " style="stroke-width:1; stroke:black; fill:white; " id="dummy-1_q14_0_all" class="clusterblast-orf"  />
<polygon locus_tag="SSMG_00031" description="&lt;b&gt;SSMG_00031&lt;/b&gt;&lt;br&gt;predicted protein&lt;br&gt;Location: 34268 - 36653" points="613,35 618,30 705,30 705,40 618,40 613,35 " style="stroke-width:1; stroke:black; fill:white; " id="dummy-1_q15_0_all" class="clusterblast-orf"  />
<polygon locus_tag="SSMG_00032" description="&lt;b&gt;SSMG_00032&lt;/b&gt;&lt;br&gt;predicted protein&lt;br&gt;Location: 36857 - 37337" points="713,40 726,40 731,35 726,30 713,30 713,40 " style="stroke-width:1; stroke:black; fill:white; " id="dummy-1_q16_0_all" class="clusterblast-orf"  />
<polygon locus_tag="SSMG_00033" description="&lt;b&gt;SSMG_00033&lt;/b&gt;&lt;br&gt;integral membrane protein&lt;br&gt;Location: 37320 - 37722" points="731,40 741,40 746,35 741,30 731,30 731,40 " style="stroke-width:1; stroke:black; fill:white; " id="dummy-1_q17_0_all" class="clusterblast-orf"  />
<polygon locus_tag="SSMG_00034" description="&lt;b&gt;SSMG_00034&lt;/b&gt;&lt;br&gt;poly(L-lactic acid) depolymerase&lt;br&gt;Location: 37874 - 38588" points="752,40 775,40 780,35 775,30 752,30 752,40 " style="stroke-width:1; stroke:black; fill:white; " id="dummy-1_q18_0_all" class="clusterblast-orf"  />
</g>
<g label="BGC0001197" description="BGC0001197_c1: frankiamicin (21% of genes show similarity), Polyketide" class="clusterblast-cluster"  >
<text class="clusterblast-acc" y="70" x="5"  >
<a xlink:href="https://mibig.secondarymetabolites.org/go/BGC0001197/1" target="_blank">BGC0001197</a>:                                                                     frankiamicin (21% of genes show similarity), Polyketide</text>
<line x1="10" x2="778.0" y2="85" style="stroke-width:1; stroke:grey; " y1="85"  />
</g>
<g id="a1_000"  >
<polygon locus_tag="Franean1_2397" description="&lt;b&gt;Franean1_2397&lt;/b&gt;&lt;br&gt;Antibiotic biosynthesis monooxygenase&lt;br&gt;Location: 12679 - 12230" points="144,85 149,80 162,80 162,90 149,90 144,85 " style="stroke-width:1; stroke:black; fill:white; " id="dummy-1_h1_2_0" class="clusterblast-orf"  />
</g>
<g id="a1_001"  >
<polygon locus_tag="Franean1_2396" description="&lt;b&gt;Franean1_2396&lt;/b&gt;&lt;br&gt;Antibiotic biosynthesis monooxygenase&lt;br&gt;Location: 12113 - 11790" points="166,85 171,80 179,80 179,90 171,90 166,85 " style="stroke-width:1; stroke:black; fill:white; " id="dummy-1_h1_2_1" class="clusterblast-orf"  />
</g>
<g id="a1_002"  >
<polygon locus_tag="Franean1_2395" description="&lt;b&gt;Franean1_2395&lt;/b&gt;&lt;br&gt;short-chain dehydrogenase/reductase SDR&lt;br&gt;Location: 11790 - 11053" points="179,85 184,80 207,80 207,90 184,90 179,85 " style="stroke-width:1; stroke:black; fill:white; " id="dummy-1_h1_2_2" class="clusterblast-orf"  />
</g>
<g id="a1_003"  >
<polygon locus_tag="Franean1_2394" description="&lt;b&gt;Franean1_2394&lt;/b&gt;&lt;br&gt;Beta-ketoacyl synthase&lt;br&gt;Location: 10950 - 9664" points="211,85 216,80 261,80 261,90 216,90 211,85 " style="stroke-width:1; stroke:black; fill:white; " id="dummy-1_h1_2_3" class="clusterblast-orf"  />
</g>
<g id="a1_004"  >
<polygon locus_tag="Franean1_2393" description="&lt;b&gt;Franean1_2393&lt;/b&gt;&lt;br&gt;Beta-ketoacyl synthase&lt;br&gt;Location: 9667 - 8315" points="261,85 266,80 313,80 313,90 266,90 261,85 " style="stroke-width:1; stroke:black; fill:white; " id="dummy-1_h1_2_4" class="clusterblast-orf"  />
</g>
<g id="a1_005"  >
<polygon locus_tag="Franean1_2392" description="&lt;b&gt;Franean1_2392&lt;/b&gt;&lt;br&gt;Cupin 2 conserved barrel domain protein&lt;br&gt;Location: 8318 - 7896" points="313,85 318,80 329,80 329,90 318,90 313,85 " style="stroke-width:1; stroke:black; fill:white; " id="dummy-1_h1_2_5" class="clusterblast-orf"  />
</g>
<g id="a1_006"  >
<polygon locus_tag="Franean1_2391" description="&lt;b&gt;Franean1_2391&lt;/b&gt;&lt;br&gt;cyclase/dehydrase&lt;br&gt;Location: 7885 - 7391" points="330,85 335,80 349,80 349,90 335,90 330,85 " style="stroke-width:1; stroke:black; fill:white; " id="dummy-1_h1_2_6" class="clusterblast-orf"  />
</g>
<g id="a1_007"  >
<polygon locus_tag="Franean1_2390" description="&lt;b&gt;Franean1_2390&lt;/b&gt;&lt;br&gt;putative actinorhodin polyketide synthase acyl carrier protein (ACP) (ActI ORF3)&lt;br&gt;Location: 7340 - 7083" points="351,85 356,80 361,80 361,90 356,90 351,85 " style="stroke-width:1; stroke:black; fill:white; " id="dummy-1_h1_2_7" class="clusterblast-orf"  />
</g>
<g id="a1_008"  >
<polygon locus_tag="Franean1_2389" description="&lt;b&gt;Franean1_2389&lt;/b&gt;&lt;br&gt;Polyketide synthesis cyclase&lt;br&gt;Location: 6682 - 6305" points="376,85 381,80 391,80 391,90 381,90 376,85 " style="stroke-width:1; stroke:black; fill:white; " id="dummy-1_h1_2_8" class="clusterblast-orf"  />
</g>
<g id="a1_009"  >
<polygon locus_tag="Franean1_2388" description="&lt;b&gt;Franean1_2388&lt;/b&gt;&lt;br&gt;transcriptional regulator, LuxR family&lt;br&gt;Location: 5972 - 4974" points="404,85 409,80 442,80 442,90 409,90 404,85 " style="stroke-width:1; stroke:black; fill:white; " id="dummy-1_h1_2_9" class="clusterblast-orf"  />
</g>
<g id="a1_0010"  >
<polygon locus_tag="Franean1_2387" description="&lt;b&gt;Franean1_2387&lt;/b&gt;&lt;br&gt;protein of unknown function ATP binding&lt;br&gt;Location: 4911 - 4288&lt;br&gt;&lt;br&gt;&lt;b&gt;BlastP hit with SSMG_00027&lt;/b&gt;&lt;br&gt;Percentage identity: 61&lt;br&gt;Percentage coverage: 96&lt;br&gt;BLAST bit score: 231&lt;br&gt;E-value: 1.4e-60" points="445,85 450,80 469,80 469,90 450,90 445,85 " style="stroke-width:1; stroke:black; fill:#d8bc15; " id="dummy-1_h1_2_10" class="clusterblast-orf"  />
</g>
<g id="a1_0011"  >
<polygon locus_tag="Franean1_2386" description="&lt;b&gt;Franean1_2386&lt;/b&gt;&lt;br&gt;protein of unknown function DUF742&lt;br&gt;Location: 4307 - 3936&lt;br&gt;&lt;br&gt;&lt;b&gt;BlastP hit with SSMG_00028&lt;/b&gt;&lt;br&gt;Percentage identity: 47&lt;br&gt;Percentage coverage: 98&lt;br&gt;BLAST bit score: 97&lt;br&gt;E-value: 1.9e-20" points="468,85 473,80 482,80 482,90 473,90 468,85 " style="stroke-width:1; stroke:black; fill:#15d885; " id="dummy-1_h1_2_11" class="clusterblast-orf"  />
</g>
<g id="a1_0012"  >
<polygon locus_tag="Franean1_2385" description="&lt;b&gt;Franean1_2385&lt;/b&gt;&lt;br&gt;Roadblock/LC7 family protein&lt;br&gt;Location: 3818 - 3399&lt;br&gt;&lt;br&gt;&lt;b&gt;BlastP hit with SSMG_00029&lt;/b&gt;&lt;br&gt;Percentage identity: 50&lt;br&gt;Percentage coverage: 83&lt;br&gt;BLAST bit score: 117&lt;br&gt;E-value: 1.6e-26" points="487,85 492,80 503,80 503,90 492,90 487,85 " style="stroke-width:1; stroke:black; fill:#4d15d8; " id="dummy-1_h1_2_12" class="clusterblast-orf"  />
</g>
<g id="a1_0013"  >
<polygon locus_tag="Franean1_2384" description="&lt;b&gt;Franean1_2384&lt;/b&gt;&lt;br&gt;integral membrane sensor signal transduction histidine kinase&lt;br&gt;Location: 3399 - 1" points="503,85 508,80 635,80 635,90 508,90 503,85 " style="stroke-width:1; stroke:black; fill:white; " id="dummy-1_h1_2_13" class="clusterblast-orf"  />
</g>
</svg>
