<svg version="1.1" xmlns="http://www.w3.org/2000/svg" height="230" width="800" xmlns:xlink="http://www.w3.org/1999/xlink" preserveAspectRatio="none" x="0" y="0" viewBox="0 0 800 230"  >
<g label="Query sequence" class="clusterblast-cluster"  >
<text class="clusterblast-acc" y="20" x="5"  >
Query sequence</text>
<line x1="10" x2="778.0" y2="35" style="stroke-width:1; stroke:grey; " y1="35"  />
<polygon locus_tag="SSMG_03800" description="&lt;b&gt;SSMG_03800&lt;/b&gt;&lt;br&gt;predicted protein&lt;br&gt;Location: 4135625 - 4136882" points="82,35 87,30 96,30 96,40 87,40 82,35 " style="stroke-width:1; stroke:black; fill:white; " id="dummy-15_q0_0_all" class="clusterblast-orf"  />
<polygon locus_tag="SSMG_03801" description="&lt;b&gt;SSMG_03801&lt;/b&gt;&lt;br&gt;predicted protein&lt;br&gt;Location: 4138121 - 4138613" points="110,35 115,30 115,30 115,40 115,40 110,35 " style="stroke-width:1; stroke:black; fill:white; " id="dummy-15_q1_0_all" class="clusterblast-orf"  />
<polygon locus_tag="SSMG_03802" description="&lt;b&gt;SSMG_03802&lt;/b&gt;&lt;br&gt;transposase&lt;br&gt;Location: 4138531 - 4139158" points="114,40 116,40 121,35 116,30 114,30 114,40 " style="stroke-width:1; stroke:black; fill:white; " id="dummy-15_q2_0_all" class="clusterblast-orf"  />
<polygon locus_tag="SSMG_03803" description="&lt;b&gt;SSMG_03803&lt;/b&gt;&lt;br&gt;predicted protein&lt;br&gt;Location: 4139336 - 4139750" points="123,40 123,40 128,35 123,30 123,30 123,40 " style="stroke-width:1; stroke:black; fill:white; " id="dummy-15_q3_0_all" class="clusterblast-orf"  />
<polygon locus_tag="SSMG_03804" description="&lt;b&gt;SSMG_03804&lt;/b&gt;&lt;br&gt;RNA polymerase sigma factor RpoE&lt;br&gt;Location: 4139929 - 4140688" points="130,40 133,40 138,35 133,30 130,30 130,40 " style="stroke-width:1; stroke:black; fill:#d81515; " id="dummy-15_q4_0_all" class="clusterblast-orf"  />
<polygon locus_tag="SSMG_03805" description="&lt;b&gt;SSMG_03805&lt;/b&gt;&lt;br&gt;predicted protein&lt;br&gt;Location: 4140871 - 4141780" points="140,35 145,30 150,30 150,40 145,40 140,35 " style="stroke-width:1; stroke:black; fill:white; " id="dummy-15_q5_0_all" class="clusterblast-orf"  />
<polygon locus_tag="SSMG_03806" description="&lt;b&gt;SSMG_03806&lt;/b&gt;&lt;br&gt;predicted protein&lt;br&gt;Location: 4141905 - 4144077" points="152,40 171,40 176,35 171,30 152,30 152,40 " style="stroke-width:1; stroke:black; fill:white; " id="dummy-15_q6_0_all" class="clusterblast-orf"  />
<polygon locus_tag="SSMG_03807" description="&lt;b&gt;SSMG_03807&lt;/b&gt;&lt;br&gt;periplasmic solute binding protein&lt;br&gt;Location: 4144082 - 4144871" points="176,35 181,30 185,30 185,40 181,40 176,35 " style="stroke-width:1; stroke:black; fill:white; " id="dummy-15_q7_0_all" class="clusterblast-orf"  />
<polygon locus_tag="SSMG_03808" description="&lt;b&gt;SSMG_03808&lt;/b&gt;&lt;br&gt;predicted protein&lt;br&gt;Location: 4144840 - 4145686" points="184,35 189,30 194,30 194,40 189,40 184,35 " style="stroke-width:1; stroke:black; fill:white; " id="dummy-15_q8_0_all" class="clusterblast-orf"  />
<polygon locus_tag="SSMG_03809" description="&lt;b&gt;SSMG_03809&lt;/b&gt;&lt;br&gt;ABC transporter&lt;br&gt;Location: 4145682 - 4146336" points="194,35 199,30 201,30 201,40 199,40 194,35 " style="stroke-width:1; stroke:black; fill:white; " id="dummy-15_q9_0_all" class="clusterblast-orf"  />
<polygon locus_tag="SSMG_03810" description="&lt;b&gt;SSMG_03810&lt;/b&gt;&lt;br&gt;predicted protein&lt;br&gt;Location: 4146416 - 4147538" points="202,35 207,30 214,30 214,40 207,40 202,35 " style="stroke-width:1; stroke:black; fill:white; " id="dummy-15_q10_0_all" class="clusterblast-orf"  />
<polygon locus_tag="SSMG_03811" description="&lt;b&gt;SSMG_03811&lt;/b&gt;&lt;br&gt;predicted protein&lt;br&gt;Location: 4147626 - 4149222" points="215,40 228,40 233,35 228,30 215,30 215,40 " style="stroke-width:1; stroke:black; fill:white; " id="dummy-15_q11_0_all" class="clusterblast-orf"  />
<polygon locus_tag="SSMG_03812" description="&lt;b&gt;SSMG_03812&lt;/b&gt;&lt;br&gt;cyclohexanecarboxylate-CoA ligase&lt;br&gt;Location: 4149218 - 4150868" points="233,40 246,40 251,35 246,30 233,30 233,40 " style="stroke-width:1; stroke:black; fill:#15d815; " id="dummy-15_q12_0_all" class="clusterblast-orf"  />
<polygon locus_tag="SSMG_03813" description="&lt;b&gt;SSMG_03813&lt;/b&gt;&lt;br&gt;high-affinity nickel-transporter&lt;br&gt;Location: 4150933 - 4152067" points="252,35 257,30 264,30 264,40 257,40 252,35 " style="stroke-width:1; stroke:black; fill:white; " id="dummy-15_q13_0_all" class="clusterblast-orf"  />
<polygon locus_tag="SSMG_03814" description="&lt;b&gt;SSMG_03814&lt;/b&gt;&lt;br&gt;predicted protein&lt;br&gt;Location: 4153135 - 4153549" points="276,35 281,30 281,30 281,40 281,40 276,35 " style="stroke-width:1; stroke:black; fill:white; " id="dummy-15_q14_0_all" class="clusterblast-orf"  />
<polygon locus_tag="SSMG_03815" description="&lt;b&gt;SSMG_03815&lt;/b&gt;&lt;br&gt;5,10-methylenetetrahydromethanopterin reductase&lt;br&gt;Location: 4153709 - 4154882" points="283,40 291,40 296,35 291,30 283,30 283,40 " style="stroke-width:1; stroke:black; fill:white; " id="dummy-15_q15_0_all" class="clusterblast-orf"  />
<polygon locus_tag="SSMG_03816" description="&lt;b&gt;SSMG_03816&lt;/b&gt;&lt;br&gt;predicted protein&lt;br&gt;Location: 4154971 - 4167916" points="297,40 435,40 440,35 435,30 297,30 297,40 " style="stroke-width:1; stroke:black; fill:#1515d8; " id="dummy-15_q16_0_all" class="clusterblast-orf"  />
<polygon locus_tag="SSMG_03817" description="&lt;b&gt;SSMG_03817&lt;/b&gt;&lt;br&gt;predicted protein&lt;br&gt;Location: 4167902 - 4171460" points="440,40 475,40 480,35 475,30 440,30 440,40 " style="stroke-width:1; stroke:black; fill:#1515d8; " id="dummy-15_q17_0_all" class="clusterblast-orf"  />
<polygon locus_tag="SSMG_03818" description="&lt;b&gt;SSMG_03818&lt;/b&gt;&lt;br&gt;conserved hypothetical protein&lt;br&gt;Location: 4173548 - 4174076" points="503,40 504,40 509,35 504,30 503,30 503,40 " style="stroke-width:1; stroke:black; fill:white; " id="dummy-15_q18_0_all" class="clusterblast-orf"  />
<polygon locus_tag="SSMG_03819" description="&lt;b&gt;SSMG_03819&lt;/b&gt;&lt;br&gt;lipolytic enzyme&lt;br&gt;Location: 4174081 - 4174861" points="509,35 514,30 517,30 517,40 514,40 509,35 " style="stroke-width:1; stroke:black; fill:white; " id="dummy-15_q19_0_all" class="clusterblast-orf"  />
<polygon locus_tag="SSMG_03820" description="&lt;b&gt;SSMG_03820&lt;/b&gt;&lt;br&gt;predicted protein&lt;br&gt;Location: 4174949 - 4175519" points="518,35 523,30 525,30 525,40 523,40 518,35 " style="stroke-width:1; stroke:black; fill:white; " id="dummy-15_q20_0_all" class="clusterblast-orf"  />
<polygon locus_tag="SSMG_03821" description="&lt;b&gt;SSMG_03821&lt;/b&gt;&lt;br&gt;major facilitator transporter&lt;br&gt;Location: 4175685 - 4177029" points="526,40 536,40 541,35 536,30 526,30 526,40 " style="stroke-width:1; stroke:black; fill:white; " id="dummy-15_q21_0_all" class="clusterblast-orf"  />
<polygon locus_tag="SSMG_03822" description="&lt;b&gt;SSMG_03822&lt;/b&gt;&lt;br&gt;SPFH domain/band 7 family protein&lt;br&gt;Location: 4177090 - 4178488" points="542,35 547,30 557,30 557,40 547,40 542,35 " style="stroke-width:1; stroke:black; fill:white; " id="dummy-15_q22_0_all" class="clusterblast-orf"  />
<polygon locus_tag="SSMG_03823" description="&lt;b&gt;SSMG_03823&lt;/b&gt;&lt;br&gt;predicted protein&lt;br&gt;Location: 4178553 - 4178988" points="558,35 563,30 563,30 563,40 563,40 558,35 " style="stroke-width:1; stroke:black; fill:white; " id="dummy-15_q23_0_all" class="clusterblast-orf"  />
<polygon locus_tag="SSMG_03824" description="&lt;b&gt;SSMG_03824&lt;/b&gt;&lt;br&gt;conserved hypothetical protein&lt;br&gt;Location: 4179080 - 4179887" points="564,35 569,30 573,30 573,40 569,40 564,35 " style="stroke-width:1; stroke:black; fill:white; " id="dummy-15_q24_0_all" class="clusterblast-orf"  />
<polygon locus_tag="SSMG_03825" description="&lt;b&gt;SSMG_03825&lt;/b&gt;&lt;br&gt;aldo/keto reductase&lt;br&gt;Location: 4180049 - 4181042" points="575,40 581,40 586,35 581,30 575,30 575,40 " style="stroke-width:1; stroke:black; fill:#d815d8; " id="dummy-15_q25_0_all" class="clusterblast-orf"  />
<polygon locus_tag="SSMG_03826" description="&lt;b&gt;SSMG_03826&lt;/b&gt;&lt;br&gt;predicted protein&lt;br&gt;Location: 4181073 - 4181988" points="586,35 591,30 596,30 596,40 591,40 586,35 " style="stroke-width:1; stroke:black; fill:white; " id="dummy-15_q26_0_all" class="clusterblast-orf"  />
<polygon locus_tag="SSMG_03827" description="&lt;b&gt;SSMG_03827&lt;/b&gt;&lt;br&gt;phosphatidylinositol 3-and 4-kinase&lt;br&gt;Location: 4181972 - 4182782" points="596,35 601,30 605,30 605,40 601,40 596,35 " style="stroke-width:1; stroke:black; fill:white; " id="dummy-15_q27_0_all" class="clusterblast-orf"  />
<polygon locus_tag="SSMG_03828" description="&lt;b&gt;SSMG_03828&lt;/b&gt;&lt;br&gt;conserved hypothetical protein&lt;br&gt;Location: 4182790 - 4183366" points="605,35 610,30 612,30 612,40 610,40 605,35 " style="stroke-width:1; stroke:black; fill:white; " id="dummy-15_q28_0_all" class="clusterblast-orf"  />
<polygon locus_tag="SSMG_03829" description="&lt;b&gt;SSMG_03829&lt;/b&gt;&lt;br&gt;acyl-peptide hydrolase&lt;br&gt;Location: 4183496 - 4185428" points="613,40 629,40 634,35 629,30 613,30 613,40 " style="stroke-width:1; stroke:black; fill:#d8d815; " id="dummy-15_q29_0_all" class="clusterblast-orf"  />
<polygon locus_tag="SSMG_03830" description="&lt;b&gt;SSMG_03830&lt;/b&gt;&lt;br&gt;conserved hypothetical protein&lt;br&gt;Location: 4185424 - 4186324" points="634,40 639,40 644,35 639,30 634,30 634,40 " style="stroke-width:1; stroke:black; fill:#15d8d8; " id="dummy-15_q30_0_all" class="clusterblast-orf"  />
<polygon locus_tag="SSMG_03831" description="&lt;b&gt;SSMG_03831&lt;/b&gt;&lt;br&gt;pyridoxamine 5'-phosphate oxidase&lt;br&gt;Location: 4186330 - 4186744" points="644,40 644,40 649,35 644,30 644,30 644,40 " style="stroke-width:1; stroke:black; fill:white; " id="dummy-15_q31_0_all" class="clusterblast-orf"  />
<polygon locus_tag="SSMG_03832" description="&lt;b&gt;SSMG_03832&lt;/b&gt;&lt;br&gt;hypothetical protein&lt;br&gt;Location: 4186778 - 4187462" points="649,40 652,40 657,35 652,30 649,30 649,40 " style="stroke-width:1; stroke:black; fill:white; " id="dummy-15_q32_0_all" class="clusterblast-orf"  />
<polygon locus_tag="SSMG_03833" description="&lt;b&gt;SSMG_03833&lt;/b&gt;&lt;br&gt;predicted protein&lt;br&gt;Location: 4187472 - 4188066" points="657,40 659,40 664,35 659,30 657,30 657,40 " style="stroke-width:1; stroke:black; fill:white; " id="dummy-15_q33_0_all" class="clusterblast-orf"  />
<polygon locus_tag="SSMG_03834" description="&lt;b&gt;SSMG_03834&lt;/b&gt;&lt;br&gt;predicted protein&lt;br&gt;Location: 4188384 - 4189485" points="667,40 674,40 679,35 674,30 667,30 667,40 " style="stroke-width:1; stroke:black; fill:white; " id="dummy-15_q34_0_all" class="clusterblast-orf"  />
<polygon locus_tag="SSMG_03835" description="&lt;b&gt;SSMG_03835&lt;/b&gt;&lt;br&gt;predicted protein&lt;br&gt;Location: 4189531 - 4191085" points="680,35 685,30 697,30 697,40 685,40 680,35 " style="stroke-width:1; stroke:black; fill:white; " id="dummy-15_q35_0_all" class="clusterblast-orf"  />
</g>
<g label="BGC0001492" description="BGC0001492_c1: abyssomicin M / abyssomicin N / abyssomicin O / abyssomicin P ... (9% of genes show similarity), Polyketide" class="clusterblast-cluster"  >
<text class="clusterblast-acc" y="70" x="5"  >
<a xlink:href="https://mibig.secondarymetabolites.org/go/BGC0001492/1" target="_blank">BGC0001492</a>: abyssomicin M / abyssomicin N / abyssomicin O / abyssomicin P / abyssomicin Q / abyssomicin R / abyssomicin S / abyssomicin T / abyssomicin U / abyssomicin V / abyssomicin W / abyssomicin X (9% of genes show similarity), Polyketide</text>
<line x1="10" x2="778.0" y2="85" style="stroke-width:1; stroke:grey; " y1="85"  />
</g>
<g id="a15_000"  >
<polygon locus_tag="ARE67866.1" description="&lt;b&gt;ARE67866.1&lt;/b&gt;&lt;br&gt;type IV secretion protein Rhs&lt;br&gt;Location: 1 - 4107" points="0,85 5,80 45,80 45,90 5,90 0,85 " style="stroke-width:1; stroke:black; fill:white; " id="dummy-15_h15_8_0" class="clusterblast-orf"  />
</g>
<g id="a15_001"  >
<polygon locus_tag="ARE67864.1" description="&lt;b&gt;ARE67864.1&lt;/b&gt;&lt;br&gt;AbsM&lt;br&gt;Location: 5235 - 5798" points="58,85 63,80 64,80 64,90 63,90 58,85 " style="stroke-width:1; stroke:black; fill:white; " id="dummy-15_h15_8_1" class="clusterblast-orf"  />
</g>
<g id="a15_002"  >
<polygon locus_tag="ARE67863.1" description="&lt;b&gt;ARE67863.1&lt;/b&gt;&lt;br&gt;AbsP&lt;br&gt;Location: 6121 - 7026" points="67,85 72,80 77,80 77,90 72,90 67,85 " style="stroke-width:1; stroke:black; fill:white; " id="dummy-15_h15_8_2" class="clusterblast-orf"  />
</g>
<g id="a15_003"  >
<polygon locus_tag="ARE67862.1" description="&lt;b&gt;ARE67862.1&lt;/b&gt;&lt;br&gt;AbsK&lt;br&gt;Location: 7401 - 8030" points="82,85 87,80 89,80 89,90 87,90 82,85 " style="stroke-width:1; stroke:black; fill:white; " id="dummy-15_h15_8_3" class="clusterblast-orf"  />
</g>
<g id="a15_004"  >
<polygon locus_tag="ARE67861.1" description="&lt;b&gt;ARE67861.1&lt;/b&gt;&lt;br&gt;AbC1&lt;br&gt;Location: 8294 - 9007" points="92,85 97,80 99,80 99,90 97,90 92,85 " style="stroke-width:1; stroke:black; fill:white; " id="dummy-15_h15_8_4" class="clusterblast-orf"  />
</g>
<g id="a15_005"  >
<polygon locus_tag="ARE67860.1" description="&lt;b&gt;ARE67860.1&lt;/b&gt;&lt;br&gt;AbsH3&lt;br&gt;Location: 9077 - 10240" points="100,90 108,90 113,85 108,80 100,80 100,90 " style="stroke-width:1; stroke:black; fill:white; " id="dummy-15_h15_8_5" class="clusterblast-orf"  />
</g>
<g id="a15_006"  >
<polygon locus_tag="ARE67859.1" description="&lt;b&gt;ARE67859.1&lt;/b&gt;&lt;br&gt;AbsH2&lt;br&gt;Location: 10452 - 10805" points="115,90 119,85 115,80 115,90 " style="stroke-width:1; stroke:black; fill:white; " id="dummy-15_h15_8_6" class="clusterblast-orf"  />
</g>
<g id="a15_007"  >
<polygon locus_tag="ARE67858.1" description="&lt;b&gt;ARE67858.1&lt;/b&gt;&lt;br&gt;AbsH1&lt;br&gt;Location: 10908 - 11465" points="121,85 126,80 127,80 127,90 126,90 121,85 " style="stroke-width:1; stroke:black; fill:white; " id="dummy-15_h15_8_7" class="clusterblast-orf"  />
</g>
<g id="a15_008"  >
<polygon locus_tag="ARE67857.1" description="&lt;b&gt;ARE67857.1&lt;/b&gt;&lt;br&gt;AbsA1&lt;br&gt;Location: 11642 - 12697" points="129,90 135,90 140,85 135,80 129,80 129,90 " style="stroke-width:1; stroke:black; fill:white; " id="dummy-15_h15_8_8" class="clusterblast-orf"  />
</g>
<g id="a15_009"  >
<polygon locus_tag="ARE67856.1" description="&lt;b&gt;ARE67856.1&lt;/b&gt;&lt;br&gt;AbsA3&lt;br&gt;Location: 12699 - 12932" points="140,90 143,85 140,80 140,90 " style="stroke-width:1; stroke:black; fill:white; " id="dummy-15_h15_8_9" class="clusterblast-orf"  />
</g>
<g id="a15_0010"  >
<polygon locus_tag="ARE67855.1" description="&lt;b&gt;ARE67855.1&lt;/b&gt;&lt;br&gt;AbsA4&lt;br&gt;Location: 12929 - 13684" points="143,90 146,90 151,85 146,80 143,80 143,90 " style="stroke-width:1; stroke:black; fill:white; " id="dummy-15_h15_8_10" class="clusterblast-orf"  />
</g>
<g id="a15_0011"  >
<polygon locus_tag="ARE67854.1" description="&lt;b&gt;ARE67854.1&lt;/b&gt;&lt;br&gt;AbsA5&lt;br&gt;Location: 13681 - 14826" points="151,90 159,90 164,85 159,80 151,80 151,90 " style="stroke-width:1; stroke:black; fill:white; " id="dummy-15_h15_8_11" class="clusterblast-orf"  />
</g>
<g id="a15_0012"  >
<polygon locus_tag="ARE67865.1" description="&lt;b&gt;ARE67865.1&lt;/b&gt;&lt;br&gt;AbsN&lt;br&gt;Location: 14823 - 15650" points="164,90 168,90 173,85 168,80 164,80 164,90 " style="stroke-width:1; stroke:black; fill:white; " id="dummy-15_h15_8_12" class="clusterblast-orf"  />
</g>
<g id="a15_0013"  >
<polygon locus_tag="ARE67853.1" description="&lt;b&gt;ARE67853.1&lt;/b&gt;&lt;br&gt;AbsB1&lt;br&gt;Location: 15898 - 35172&lt;br&gt;&lt;br&gt;&lt;b&gt;BlastP hit with SSMG_03817&lt;/b&gt;&lt;br&gt;Percentage identity: 46&lt;br&gt;Percentage coverage: 56&lt;br&gt;BLAST bit score: 503&lt;br&gt;E-value: 6.7e-142" points="176,90 385,90 390,85 385,80 176,80 176,90 " style="stroke-width:1; stroke:black; fill:#1515d8; " id="dummy-15_h15_8_13" class="clusterblast-orf"  />
</g>
<g id="a15_0014"  >
<polygon locus_tag="ARE67852.1" description="&lt;b&gt;ARE67852.1&lt;/b&gt;&lt;br&gt;AbsB2&lt;br&gt;Location: 35355 - 46289&lt;br&gt;&lt;br&gt;&lt;b&gt;BlastP hit with SSMG_03817&lt;/b&gt;&lt;br&gt;Percentage identity: 49&lt;br&gt;Percentage coverage: 56&lt;br&gt;BLAST bit score: 546&lt;br&gt;E-value: 1.2e-154" points="392,90 508,90 513,85 508,80 392,80 392,90 " style="stroke-width:1; stroke:black; fill:#1515d8; " id="dummy-15_h15_8_14" class="clusterblast-orf"  />
</g>
<g id="a15_0015"  >
<polygon locus_tag="ARE67851.1" description="&lt;b&gt;ARE67851.1&lt;/b&gt;&lt;br&gt;AbsB3&lt;br&gt;Location: 46315 - 49464" points="513,90 543,90 548,85 543,80 513,80 513,90 " style="stroke-width:1; stroke:black; fill:white; " id="dummy-15_h15_8_15" class="clusterblast-orf"  />
</g>
<g id="a15_0016"  >
<polygon locus_tag="ARE67850.1" description="&lt;b&gt;ARE67850.1&lt;/b&gt;&lt;br&gt;AbsA2&lt;br&gt;Location: 49461 - 51410" points="548,90 565,90 570,85 565,80 548,80 548,90 " style="stroke-width:1; stroke:black; fill:white; " id="dummy-15_h15_8_16" class="clusterblast-orf"  />
</g>
<g id="a15_0017"  >
<polygon locus_tag="ARE67849.1" description="&lt;b&gt;ARE67849.1&lt;/b&gt;&lt;br&gt;AbsE&lt;br&gt;Location: 51509 - 52495" points="571,90 577,90 582,85 577,80 571,80 571,90 " style="stroke-width:1; stroke:black; fill:white; " id="dummy-15_h15_8_17" class="clusterblast-orf"  />
</g>
<g id="a15_0018"  >
<polygon locus_tag="ARE67848.1" description="&lt;b&gt;ARE67848.1&lt;/b&gt;&lt;br&gt;AbsF1&lt;br&gt;Location: 52796 - 54460" points="585,90 599,90 604,85 599,80 585,80 585,90 " style="stroke-width:1; stroke:black; fill:white; " id="dummy-15_h15_8_18" class="clusterblast-orf"  />
</g>
<g id="a15_0019"  >
<polygon locus_tag="ARE67847.1" description="&lt;b&gt;ARE67847.1&lt;/b&gt;&lt;br&gt;AbsF2&lt;br&gt;Location: 54445 - 55446" points="604,90 610,90 615,85 610,80 604,80 604,90 " style="stroke-width:1; stroke:black; fill:white; " id="dummy-15_h15_8_19" class="clusterblast-orf"  />
</g>
<g id="a15_0020"  >
<polygon locus_tag="ARE67846.1" description="&lt;b&gt;ARE67846.1&lt;/b&gt;&lt;br&gt;AbsF3&lt;br&gt;Location: 55443 - 56252" points="615,90 619,90 624,85 619,80 615,80 615,90 " style="stroke-width:1; stroke:black; fill:white; " id="dummy-15_h15_8_20" class="clusterblast-orf"  />
</g>
<g id="a15_0021"  >
<polygon locus_tag="ARE67845.1" description="&lt;b&gt;ARE67845.1&lt;/b&gt;&lt;br&gt;AbsF4&lt;br&gt;Location: 56249 - 57916" points="624,90 637,90 642,85 637,80 624,80 624,90 " style="stroke-width:1; stroke:black; fill:white; " id="dummy-15_h15_8_21" class="clusterblast-orf"  />
</g>
<g id="a15_0022"  >
<polygon locus_tag="ARE67844.1" description="&lt;b&gt;ARE67844.1&lt;/b&gt;&lt;br&gt;AbsV&lt;br&gt;Location: 58988 - 60181" points="654,90 662,90 667,85 662,80 654,80 654,90 " style="stroke-width:1; stroke:black; fill:white; " id="dummy-15_h15_8_22" class="clusterblast-orf"  />
</g>
<g id="a15_0023"  >
<polygon locus_tag="ARE67843.1" description="&lt;b&gt;ARE67843.1&lt;/b&gt;&lt;br&gt;AbsG1&lt;br&gt;Location: 60187 - 60393" points="667,90 670,85 667,80 667,90 " style="stroke-width:1; stroke:black; fill:white; " id="dummy-15_h15_8_23" class="clusterblast-orf"  />
</g>
<g id="a15_0024"  >
<polygon locus_tag="ARE67842.1" description="&lt;b&gt;ARE67842.1&lt;/b&gt;&lt;br&gt;AbsI&lt;br&gt;Location: 60425 - 61588" points="670,90 678,90 683,85 678,80 670,80 670,90 " style="stroke-width:1; stroke:black; fill:white; " id="dummy-15_h15_8_24" class="clusterblast-orf"  />
</g>
<g id="a15_0025"  >
<polygon locus_tag="ARE67841.1" description="&lt;b&gt;ARE67841.1&lt;/b&gt;&lt;br&gt;AbsX&lt;br&gt;Location: 61650 - 62861" points="683,90 692,90 697,85 692,80 683,80 683,90 " style="stroke-width:1; stroke:black; fill:white; " id="dummy-15_h15_8_25" class="clusterblast-orf"  />
</g>
<g id="a15_0026"  >
<polygon locus_tag="ARE67840.1" description="&lt;b&gt;ARE67840.1&lt;/b&gt;&lt;br&gt;AbsG2&lt;br&gt;Location: 62876 - 63070" points="697,90 699,85 697,80 697,90 " style="stroke-width:1; stroke:black; fill:white; " id="dummy-15_h15_8_26" class="clusterblast-orf"  />
</g>
<g id="a15_0027"  >
<polygon locus_tag="ARE67839.1" description="&lt;b&gt;ARE67839.1&lt;/b&gt;&lt;br&gt;AbsJ&lt;br&gt;Location: 63170 - 64204&lt;br&gt;&lt;br&gt;&lt;b&gt;BlastP hit with SSMG_03825&lt;/b&gt;&lt;br&gt;Percentage identity: 49&lt;br&gt;Percentage coverage: 95&lt;br&gt;BLAST bit score: 253&lt;br&gt;E-value: 5.7e-67" points="700,85 705,80 712,80 712,90 705,90 700,85 " style="stroke-width:1; stroke:black; fill:#d815d8; " id="dummy-15_h15_8_27" class="clusterblast-orf"  />
</g>
<g id="a15_0028"  >
<polygon locus_tag="ARE67838.1" description="&lt;b&gt;ARE67838.1&lt;/b&gt;&lt;br&gt;AbsU&lt;br&gt;Location: 64213 - 64728" points="712,85 717,80 718,80 718,90 717,90 712,85 " style="stroke-width:1; stroke:black; fill:white; " id="dummy-15_h15_8_28" class="clusterblast-orf"  />
</g>
<g id="a15_0029"  >
<polygon locus_tag="ARE67837.1" description="&lt;b&gt;ARE67837.1&lt;/b&gt;&lt;br&gt;AbsC2&lt;br&gt;Location: 64965 - 65555" points="720,85 725,80 727,80 727,90 725,90 720,85 " style="stroke-width:1; stroke:black; fill:white; " id="dummy-15_h15_8_29" class="clusterblast-orf"  />
</g>
<g id="a15_0030"  >
<polygon locus_tag="ARE67836.1" description="&lt;b&gt;ARE67836.1&lt;/b&gt;&lt;br&gt;AbsD&lt;br&gt;Location: 65766 - 67196" points="729,90 740,90 745,85 740,80 729,80 729,90 " style="stroke-width:1; stroke:black; fill:white; " id="dummy-15_h15_8_30" class="clusterblast-orf"  />
</g>
<g id="a15_0031"  >
<polygon locus_tag="ARE67835.1" description="&lt;b&gt;ARE67835.1&lt;/b&gt;&lt;br&gt;transcription regulator&lt;br&gt;Location: 67471 - 70308" points="748,90 775,90 780,85 775,80 748,80 748,90 " style="stroke-width:1; stroke:black; fill:white; " id="dummy-15_h15_8_31" class="clusterblast-orf"  />
</g>
</svg>
