<svg version="1.1" xmlns="http://www.w3.org/2000/svg" height="230" width="800" xmlns:xlink="http://www.w3.org/1999/xlink" preserveAspectRatio="none" x="0" y="0" viewBox="0 0 800 230"  >
<g label="Query sequence" class="clusterblast-cluster"  >
<text class="clusterblast-acc" y="20" x="5"  >
Query sequence</text>
<line x1="10" x2="778.0" y2="35" style="stroke-width:1; stroke:grey; " y1="35"  />
<polygon locus_tag="SSMG_01128" description="&lt;b&gt;SSMG_01128&lt;/b&gt;&lt;br&gt;predicted protein&lt;br&gt;Location: 1181167 - 1181626" points="0,35 5,30 6,30 6,40 5,40 0,35 " style="stroke-width:1; stroke:black; fill:white; " id="dummy-4_q0_0_all" class="clusterblast-orf"  />
<polygon locus_tag="SSMG_01129" description="&lt;b&gt;SSMG_01129&lt;/b&gt;&lt;br&gt;predicted protein&lt;br&gt;Location: 1181683 - 1181992" points="7,40 11,35 7,30 7,40 " style="stroke-width:1; stroke:black; fill:white; " id="dummy-4_q1_0_all" class="clusterblast-orf"  />
<polygon locus_tag="SSMG_01130" description="&lt;b&gt;SSMG_01130&lt;/b&gt;&lt;br&gt;predicted protein&lt;br&gt;Location: 1182516 - 1183398" points="18,40 25,40 30,35 25,30 18,30 18,40 " style="stroke-width:1; stroke:black; fill:white; " id="dummy-4_q2_0_all" class="clusterblast-orf"  />
<polygon locus_tag="SSMG_01131" description="&lt;b&gt;SSMG_01131&lt;/b&gt;&lt;br&gt;predicted protein&lt;br&gt;Location: 1183322 - 1185011" points="29,40 47,40 52,35 47,30 29,30 29,40 " style="stroke-width:1; stroke:black; fill:white; " id="dummy-4_q3_0_all" class="clusterblast-orf"  />
<polygon locus_tag="SSMG_01132" description="&lt;b&gt;SSMG_01132&lt;/b&gt;&lt;br&gt;predicted protein&lt;br&gt;Location: 1185053 - 1186277" points="53,35 58,30 70,30 70,40 58,40 53,35 " style="stroke-width:1; stroke:black; fill:white; " id="dummy-4_q4_0_all" class="clusterblast-orf"  />
<polygon locus_tag="SSMG_01133" description="&lt;b&gt;SSMG_01133&lt;/b&gt;&lt;br&gt;3-oxoacyl-[acyl-carrier-protein] reductase&lt;br&gt;Location: 1186306 - 1187047" points="70,35 75,30 80,30 80,40 75,40 70,35 " style="stroke-width:1; stroke:black; fill:white; " id="dummy-4_q5_0_all" class="clusterblast-orf"  />
<polygon locus_tag="SSMG_01134" description="&lt;b&gt;SSMG_01134&lt;/b&gt;&lt;br&gt;predicted protein&lt;br&gt;Location: 1187390 - 1188587" points="85,40 96,40 101,35 96,30 85,30 85,40 " style="stroke-width:1; stroke:black; fill:white; " id="dummy-4_q6_0_all" class="clusterblast-orf"  />
<polygon locus_tag="SSMG_01135" description="&lt;b&gt;SSMG_01135&lt;/b&gt;&lt;br&gt;predicted protein&lt;br&gt;Location: 1188621 - 1189476" points="102,40 109,40 114,35 109,30 102,30 102,40 " style="stroke-width:1; stroke:black; fill:#d81515; " id="dummy-4_q7_0_all" class="clusterblast-orf"  />
<polygon locus_tag="SSMG_01136" description="&lt;b&gt;SSMG_01136&lt;/b&gt;&lt;br&gt;hypothetical protein&lt;br&gt;Location: 1189508 - 1190717" points="114,40 126,40 131,35 126,30 114,30 114,40 " style="stroke-width:1; stroke:black; fill:white; " id="dummy-4_q8_0_all" class="clusterblast-orf"  />
<polygon locus_tag="SSMG_01137" description="&lt;b&gt;SSMG_01137&lt;/b&gt;&lt;br&gt;predicted protein&lt;br&gt;Location: 1190703 - 1192098" points="130,40 145,40 150,35 145,30 130,30 130,40 " style="stroke-width:1; stroke:black; fill:white; " id="dummy-4_q9_0_all" class="clusterblast-orf"  />
<polygon locus_tag="SSMG_01138" description="&lt;b&gt;SSMG_01138&lt;/b&gt;&lt;br&gt;predicted protein&lt;br&gt;Location: 1192102 - 1192804" points="150,35 155,30 159,30 159,40 155,40 150,35 " style="stroke-width:1; stroke:black; fill:white; " id="dummy-4_q10_0_all" class="clusterblast-orf"  />
<polygon locus_tag="SSMG_01139" description="&lt;b&gt;SSMG_01139&lt;/b&gt;&lt;br&gt;predicted protein&lt;br&gt;Location: 1192803 - 1194534" points="159,35 164,30 183,30 183,40 164,40 159,35 " style="stroke-width:1; stroke:black; fill:white; " id="dummy-4_q11_0_all" class="clusterblast-orf"  />
<polygon locus_tag="SSMG_01140" description="&lt;b&gt;SSMG_01140&lt;/b&gt;&lt;br&gt;predicted protein&lt;br&gt;Location: 1194538 - 1196152" points="183,35 188,30 205,30 205,40 188,40 183,35 " style="stroke-width:1; stroke:black; fill:white; " id="dummy-4_q12_0_all" class="clusterblast-orf"  />
<polygon locus_tag="SSMG_01141" description="&lt;b&gt;SSMG_01141&lt;/b&gt;&lt;br&gt;predicted protein&lt;br&gt;Location: 1196148 - 1196550" points="205,35 210,30 211,30 211,40 210,40 205,35 " style="stroke-width:1; stroke:black; fill:white; " id="dummy-4_q13_0_all" class="clusterblast-orf"  />
<polygon locus_tag="SSMG_01142" description="&lt;b&gt;SSMG_01142&lt;/b&gt;&lt;br&gt;predicted protein&lt;br&gt;Location: 1196546 - 1196816" points="211,35 214,30 214,40 211,35 " style="stroke-width:1; stroke:black; fill:white; " id="dummy-4_q14_0_all" class="clusterblast-orf"  />
<polygon locus_tag="SSMG_01143" description="&lt;b&gt;SSMG_01143&lt;/b&gt;&lt;br&gt;hypothetical protein&lt;br&gt;Location: 1196812 - 1198531" points="214,35 219,30 238,30 238,40 219,40 214,35 " style="stroke-width:1; stroke:black; fill:white; " id="dummy-4_q15_0_all" class="clusterblast-orf"  />
<polygon locus_tag="SSMG_01144" description="&lt;b&gt;SSMG_01144&lt;/b&gt;&lt;br&gt;hypothetical protein&lt;br&gt;Location: 1198527 - 1199619" points="238,35 243,30 253,30 253,40 243,40 238,35 " style="stroke-width:1; stroke:black; fill:white; " id="dummy-4_q16_0_all" class="clusterblast-orf"  />
<polygon locus_tag="SSMG_01145" description="&lt;b&gt;SSMG_01145&lt;/b&gt;&lt;br&gt;phosphonopyruvate decarboxylase&lt;br&gt;Location: 1199615 - 1200734" points="253,35 258,30 268,30 268,40 258,40 253,35 " style="stroke-width:1; stroke:black; fill:#15d815; " id="dummy-4_q17_0_all" class="clusterblast-orf"  />
<polygon locus_tag="SSMG_01146" description="&lt;b&gt;SSMG_01146&lt;/b&gt;&lt;br&gt;phosphoenolpyruvate phosphomutase&lt;br&gt;Location: 1200730 - 1201795" points="268,35 273,30 283,30 283,40 273,40 268,35 " style="stroke-width:1; stroke:black; fill:#1515d8; " id="dummy-4_q18_0_all" class="clusterblast-orf"  />
<polygon locus_tag="SSMG_01147" description="&lt;b&gt;SSMG_01147&lt;/b&gt;&lt;br&gt;1-acyl-sn-glycerol-3-phosphate acyltransferase&lt;br&gt;Location: 1201793 - 1202558" points="283,40 288,40 293,35 288,30 283,30 283,40 " style="stroke-width:1; stroke:black; fill:white; " id="dummy-4_q19_0_all" class="clusterblast-orf"  />
<polygon locus_tag="SSMG_01148" description="&lt;b&gt;SSMG_01148&lt;/b&gt;&lt;br&gt;modular polyketide synthase&lt;br&gt;Location: 1202667 - 1218009" points="294,40 500,40 505,35 500,30 294,30 294,40 " style="stroke-width:1; stroke:black; fill:white; " id="dummy-4_q20_0_all" class="clusterblast-orf"  />
<polygon locus_tag="SSMG_01149" description="&lt;b&gt;SSMG_01149&lt;/b&gt;&lt;br&gt;predicted protein&lt;br&gt;Location: 1218030 - 1219026" points="505,40 514,40 519,35 514,30 505,30 505,40 " style="stroke-width:1; stroke:black; fill:white; " id="dummy-4_q21_0_all" class="clusterblast-orf"  />
<polygon locus_tag="SSMG_01150" description="&lt;b&gt;SSMG_01150&lt;/b&gt;&lt;br&gt;predicted protein&lt;br&gt;Location: 1219221 - 1219599" points="522,40 522,40 527,35 522,30 522,30 522,40 " style="stroke-width:1; stroke:black; fill:white; " id="dummy-4_q22_0_all" class="clusterblast-orf"  />
<polygon locus_tag="SSMG_01151" description="&lt;b&gt;SSMG_01151&lt;/b&gt;&lt;br&gt;hypothetical protein&lt;br&gt;Location: 1220258 - 1221827" points="536,35 541,30 557,30 557,40 541,40 536,35 " style="stroke-width:1; stroke:black; fill:white; " id="dummy-4_q23_0_all" class="clusterblast-orf"  />
<polygon locus_tag="SSMG_01152" description="&lt;b&gt;SSMG_01152&lt;/b&gt;&lt;br&gt;secreted protein&lt;br&gt;Location: 1223516 - 1225721" points="580,40 606,40 611,35 606,30 580,30 580,40 " style="stroke-width:1; stroke:black; fill:white; " id="dummy-4_q24_0_all" class="clusterblast-orf"  />
<polygon locus_tag="SSMG_01153" description="&lt;b&gt;SSMG_01153&lt;/b&gt;&lt;br&gt;thioredoxin reductase&lt;br&gt;Location: 1225751 - 1227482" points="611,40 630,40 635,35 630,30 611,30 611,40 " style="stroke-width:1; stroke:black; fill:white; " id="dummy-4_q25_0_all" class="clusterblast-orf"  />
<polygon locus_tag="SSMG_01154" description="&lt;b&gt;SSMG_01154&lt;/b&gt;&lt;br&gt;two-component sensor histidine kinase&lt;br&gt;Location: 1227478 - 1228906" points="635,40 649,40 654,35 649,30 635,30 635,40 " style="stroke-width:1; stroke:black; fill:white; " id="dummy-4_q26_0_all" class="clusterblast-orf"  />
<polygon locus_tag="SSMG_01155" description="&lt;b&gt;SSMG_01155&lt;/b&gt;&lt;br&gt;predicted protein&lt;br&gt;Location: 1229198 - 1229696" points="658,35 663,30 665,30 665,40 663,40 658,35 " style="stroke-width:1; stroke:black; fill:white; " id="dummy-4_q27_0_all" class="clusterblast-orf"  />
<polygon locus_tag="SSMG_01156" description="&lt;b&gt;SSMG_01156&lt;/b&gt;&lt;br&gt;predicted protein&lt;br&gt;Location: 1229698 - 1230031" points="665,35 670,30 670,30 670,40 670,40 665,35 " style="stroke-width:1; stroke:black; fill:white; " id="dummy-4_q28_0_all" class="clusterblast-orf"  />
<polygon locus_tag="SSMG_01157" description="&lt;b&gt;SSMG_01157&lt;/b&gt;&lt;br&gt;transposase&lt;br&gt;Location: 1230579 - 1231830" points="677,35 682,30 694,30 694,40 682,40 677,35 " style="stroke-width:1; stroke:black; fill:white; " id="dummy-4_q29_0_all" class="clusterblast-orf"  />
<polygon locus_tag="SSMG_01158" description="&lt;b&gt;SSMG_01158&lt;/b&gt;&lt;br&gt;pentapeptide repeat-containing protein&lt;br&gt;Location: 1232257 - 1232881" points="700,40 704,40 709,35 704,30 700,30 700,40 " style="stroke-width:1; stroke:black; fill:white; " id="dummy-4_q30_0_all" class="clusterblast-orf"  />
<polygon locus_tag="SSMG_01159" description="&lt;b&gt;SSMG_01159&lt;/b&gt;&lt;br&gt;oxidoreductase molybdopterin binding protein&lt;br&gt;Location: 1232929 - 1233529" points="710,40 713,40 718,35 713,30 710,30 710,40 " style="stroke-width:1; stroke:black; fill:white; " id="dummy-4_q31_0_all" class="clusterblast-orf"  />
<polygon locus_tag="SSMG_01160" description="&lt;b&gt;SSMG_01160&lt;/b&gt;&lt;br&gt;oxidoreductase FAD-binding region&lt;br&gt;Location: 1233462 - 1234242" points="717,40 723,40 728,35 723,30 717,30 717,40 " style="stroke-width:1; stroke:black; fill:white; " id="dummy-4_q32_0_all" class="clusterblast-orf"  />
<polygon locus_tag="SSMG_01161" description="&lt;b&gt;SSMG_01161&lt;/b&gt;&lt;br&gt;predicted protein&lt;br&gt;Location: 1234255 - 1236640" points="728,35 733,30 760,30 760,40 733,40 728,35 " style="stroke-width:1; stroke:black; fill:white; " id="dummy-4_q33_0_all" class="clusterblast-orf"  />
<polygon locus_tag="SSMG_01162" description="&lt;b&gt;SSMG_01162&lt;/b&gt;&lt;br&gt;predicted protein&lt;br&gt;Location: 1236876 - 1238043" points="764,35 769,30 780,30 780,40 769,40 764,35 " style="stroke-width:1; stroke:black; fill:white; " id="dummy-4_q34_0_all" class="clusterblast-orf"  />
</g>
<g label="BGC0002036" description="BGC0002036_c1: dehydrofosmidomycin (15% of genes show similarity), Other" class="clusterblast-cluster"  >
<text class="clusterblast-acc" y="70" x="5"  >
<a xlink:href="https://mibig.secondarymetabolites.org/go/BGC0002036/1" target="_blank">BGC0002036</a>:                                                              dehydrofosmidomycin (15% of genes show similarity), Other</text>
<line x1="10" x2="778.0" y2="85" style="stroke-width:1; stroke:grey; " y1="85"  />
</g>
<g id="a4_000"  >
<polygon locus_tag="ctg2_13" description="&lt;b&gt;ctg2_13&lt;/b&gt;&lt;br&gt;&lt;br&gt;Location: 15983 - 14868" points="280,85 285,80 295,80 295,90 285,90 280,85 " style="stroke-width:1; stroke:black; fill:white; " id="dummy-4_h4_1_0" class="clusterblast-orf"  />
</g>
<g id="a4_001"  >
<polygon locus_tag="ctg2_12" description="&lt;b&gt;ctg2_12&lt;/b&gt;&lt;br&gt;&lt;br&gt;Location: 14871 - 13753&lt;br&gt;&lt;br&gt;&lt;b&gt;BlastP hit with SSMG_01145&lt;/b&gt;&lt;br&gt;Percentage identity: 47&lt;br&gt;Percentage coverage: 94&lt;br&gt;BLAST bit score: 257&lt;br&gt;E-value: 2.6e-68" points="295,85 300,80 310,80 310,90 300,90 295,85 " style="stroke-width:1; stroke:black; fill:#15d815; " id="dummy-4_h4_1_1" class="clusterblast-orf"  />
</g>
<g id="a4_002"  >
<polygon locus_tag="ctg2_11" description="&lt;b&gt;ctg2_11&lt;/b&gt;&lt;br&gt;&lt;br&gt;Location: 13756 - 12152&lt;br&gt;&lt;br&gt;&lt;b&gt;BlastP hit with SSMG_01146&lt;/b&gt;&lt;br&gt;Percentage identity: 47&lt;br&gt;Percentage coverage: 77&lt;br&gt;BLAST bit score: 243&lt;br&gt;E-value: 6.4e-64" points="310,85 315,80 332,80 332,90 315,90 310,85 " style="stroke-width:1; stroke:black; fill:#1515d8; " id="dummy-4_h4_1_2" class="clusterblast-orf"  />
</g>
<g id="a4_003"  >
<polygon locus_tag="ctg2_10" description="&lt;b&gt;ctg2_10&lt;/b&gt;&lt;br&gt;&lt;br&gt;Location: 11880 - 10921" points="336,85 341,80 349,80 349,90 341,90 336,85 " style="stroke-width:1; stroke:black; fill:white; " id="dummy-4_h4_1_3" class="clusterblast-orf"  />
</g>
<g id="a4_004"  >
<polygon locus_tag="ctg2_9" description="&lt;b&gt;ctg2_9&lt;/b&gt;&lt;br&gt;&lt;br&gt;Location: 10928 - 10011" points="349,85 354,80 362,80 362,90 354,90 349,85 " style="stroke-width:1; stroke:black; fill:white; " id="dummy-4_h4_1_4" class="clusterblast-orf"  />
</g>
<g id="a4_005"  >
<polygon locus_tag="ctg2_8" description="&lt;b&gt;ctg2_8&lt;/b&gt;&lt;br&gt;&lt;br&gt;Location: 9832 - 7967" points="364,85 369,80 390,80 390,90 369,90 364,85 " style="stroke-width:1; stroke:black; fill:white; " id="dummy-4_h4_1_5" class="clusterblast-orf"  />
</g>
<g id="a4_006"  >
<polygon locus_tag="ctg2_7" description="&lt;b&gt;ctg2_7&lt;/b&gt;&lt;br&gt;&lt;br&gt;Location: 7970 - 6753" points="390,85 395,80 406,80 406,90 395,90 390,85 " style="stroke-width:1; stroke:black; fill:white; " id="dummy-4_h4_1_6" class="clusterblast-orf"  />
</g>
<g id="a4_007"  >
<polygon locus_tag="ctg2_6" description="&lt;b&gt;ctg2_6&lt;/b&gt;&lt;br&gt;&lt;br&gt;Location: 6617 - 5835" points="408,85 413,80 419,80 419,90 413,90 408,85 " style="stroke-width:1; stroke:black; fill:white; " id="dummy-4_h4_1_7" class="clusterblast-orf"  />
</g>
<g id="a4_008"  >
<polygon locus_tag="ctg2_5" description="&lt;b&gt;ctg2_5&lt;/b&gt;&lt;br&gt;&lt;br&gt;Location: 5838 - 4675" points="419,85 424,80 435,80 435,90 424,90 419,85 " style="stroke-width:1; stroke:black; fill:white; " id="dummy-4_h4_1_8" class="clusterblast-orf"  />
</g>
<g id="a4_009"  >
<polygon locus_tag="ctg2_4" description="&lt;b&gt;ctg2_4&lt;/b&gt;&lt;br&gt;&lt;br&gt;Location: 4547 - 3414" points="437,85 442,80 452,80 452,90 442,90 437,85 " style="stroke-width:1; stroke:black; fill:white; " id="dummy-4_h4_1_9" class="clusterblast-orf"  />
</g>
<g id="a4_0010"  >
<polygon locus_tag="ctg2_3" description="&lt;b&gt;ctg2_3&lt;/b&gt;&lt;br&gt;&lt;br&gt;Location: 3403 - 2591" points="452,85 457,80 464,80 464,90 457,90 452,85 " style="stroke-width:1; stroke:black; fill:white; " id="dummy-4_h4_1_10" class="clusterblast-orf"  />
</g>
<g id="a4_0011"  >
<polygon locus_tag="ctg2_2" description="&lt;b&gt;ctg2_2&lt;/b&gt;&lt;br&gt;&lt;br&gt;Location: 2482 - 1661" points="465,85 470,80 476,80 476,90 470,90 465,85 " style="stroke-width:1; stroke:black; fill:white; " id="dummy-4_h4_1_11" class="clusterblast-orf"  />
</g>
<g id="a4_0012"  >
<polygon locus_tag="ctg2_1" description="&lt;b&gt;ctg2_1&lt;/b&gt;&lt;br&gt;&lt;br&gt;Location: 375 - 1" points="494,90 494,90 499,85 494,80 494,80 494,90 " style="stroke-width:1; stroke:black; fill:white; " id="dummy-4_h4_1_12" class="clusterblast-orf"  />
</g>
</svg>
