<svg version="1.1" xmlns="http://www.w3.org/2000/svg" height="300" width="800" xmlns:xlink="http://www.w3.org/1999/xlink" preserveAspectRatio="none" x="0" y="0" viewBox="0 0 800 300"  >
<g label="Query sequence" class="clusterblast-cluster"  >
<text class="clusterblast-acc" y="20" x="5"  >
Query sequence</text>
<line x1="10" x2="778.0" y2="35" style="stroke-width:1; stroke:grey; " y1="35"  />
<polygon locus_tag="SSMG_07027" description="&lt;b&gt;SSMG_07027&lt;/b&gt;&lt;br&gt;predicted protein&lt;br&gt;Location: 7715160 - 7717953" points="1,35 6,30 347,30 347,40 6,40 1,35 " style="stroke-width:1; stroke:black; fill:white; " id="knownclusterblast-25_q0_0_all" class="clusterblast-orf"  />
<polygon locus_tag="SSMG_07028" description="&lt;b&gt;SSMG_07028&lt;/b&gt;&lt;br&gt;ectoine hydroxylase&lt;br&gt;Location: 7718276 - 7719179" points="387,35 392,30 499,30 499,40 392,40 387,35 " style="stroke-width:1; stroke:black; fill:#d81515; " id="knownclusterblast-25_q1_0_all" class="clusterblast-orf"  />
<polygon locus_tag="SSMG_07029" description="&lt;b&gt;SSMG_07029&lt;/b&gt;&lt;br&gt;ectoine synthase&lt;br&gt;Location: 7719245 - 7719638" points="507,35 512,30 556,30 556,40 512,40 507,35 " style="stroke-width:1; stroke:black; fill:#77d815; " id="knownclusterblast-25_q2_0_all" class="clusterblast-orf"  />
<polygon locus_tag="SSMG_07030" description="&lt;b&gt;SSMG_07030&lt;/b&gt;&lt;br&gt;diaminobutyrate-2-oxoglutarate aminotransferase&lt;br&gt;Location: 7719669 - 7720920" points="559,35 564,30 714,30 714,40 564,40 559,35 " style="stroke-width:1; stroke:black; fill:#15d8d8; " id="knownclusterblast-25_q3_0_all" class="clusterblast-orf"  />
<polygon locus_tag="SSMG_07031" description="&lt;b&gt;SSMG_07031&lt;/b&gt;&lt;br&gt;L-2,4-diaminobutyric acid acetyltransferase&lt;br&gt;Location: 7720961 - 7721456" points="719,35 724,30 781,30 781,40 724,40 719,35 " style="stroke-width:1; stroke:black; fill:#7715d8; " id="knownclusterblast-25_q4_0_all" class="clusterblast-orf"  />
</g>
<g label="BGC0000853" description="BGC0000853_c1: ectoine (100% of genes show similarity), Other" class="clusterblast-cluster"  >
<text class="clusterblast-acc" y="70" x="5"  >
<a xlink:href="https://mibig.secondarymetabolites.org/go/BGC0000853/1" target="_blank">BGC0000853</a>:                                                                          ectoine (100% of genes show similarity), Other</text>
<line x1="10" x2="778.0" y2="85" style="stroke-width:1; stroke:grey; " y1="85"  />
</g>
<g id="a25_000"  >
<polygon locus_tag="AAS02097.1" description="&lt;b&gt;AAS02097.1&lt;/b&gt;&lt;br&gt;ThpD&lt;br&gt;Location: 3345 - 2452&lt;br&gt;&lt;br&gt;&lt;b&gt;BlastP hit with SSMG_07028&lt;/b&gt;&lt;br&gt;Percentage identity: 57&lt;br&gt;Percentage coverage: 99&lt;br&gt;BLAST bit score: 337&lt;br&gt;E-value: 2.1e-92" points="183,85 188,80 293,80 293,90 188,90 183,85 " style="stroke-width:1; stroke:black; fill:#d81515; " id="knownclusterblast-25_all_25_1_0" class="clusterblast-orf"  />
</g>
<g id="a25_001"  >
<polygon locus_tag="AAS02096.1" description="&lt;b&gt;AAS02096.1&lt;/b&gt;&lt;br&gt;ThpC&lt;br&gt;Location: 2445 - 2047&lt;br&gt;&lt;br&gt;&lt;b&gt;BlastP hit with SSMG_07029&lt;/b&gt;&lt;br&gt;Percentage identity: 61&lt;br&gt;Percentage coverage: 102&lt;br&gt;BLAST bit score: 182&lt;br&gt;E-value: 3.7e-46" points="294,85 299,80 344,80 344,90 299,90 294,85 " style="stroke-width:1; stroke:black; fill:#77d815; " id="knownclusterblast-25_all_25_1_1" class="clusterblast-orf"  />
</g>
<g id="a25_002"  >
<polygon locus_tag="AAS02095.1" description="&lt;b&gt;AAS02095.1&lt;/b&gt;&lt;br&gt;ThpB&lt;br&gt;Location: 1960 - 698&lt;br&gt;&lt;br&gt;&lt;b&gt;BlastP hit with SSMG_07030&lt;/b&gt;&lt;br&gt;Percentage identity: 68&lt;br&gt;Percentage coverage: 99&lt;br&gt;BLAST bit score: 588&lt;br&gt;E-value: 7.2e-168" points="354,85 359,80 511,80 511,90 359,90 354,85 " style="stroke-width:1; stroke:black; fill:#15d8d8; " id="knownclusterblast-25_all_25_1_2" class="clusterblast-orf"  />
</g>
<g id="a25_003"  >
<polygon locus_tag="AAS02094.1" description="&lt;b&gt;AAS02094.1&lt;/b&gt;&lt;br&gt;ThpA&lt;br&gt;Location: 539 - 9&lt;br&gt;&lt;br&gt;&lt;b&gt;BlastP hit with SSMG_07031&lt;/b&gt;&lt;br&gt;Percentage identity: 59&lt;br&gt;Percentage coverage: 96&lt;br&gt;BLAST bit score: 177&lt;br&gt;E-value: 2e-44" points="530,85 535,80 596,80 596,90 535,90 530,85 " style="stroke-width:1; stroke:black; fill:#7715d8; " id="knownclusterblast-25_all_25_1_3" class="clusterblast-orf"  />
</g>
<g label="BGC0000855" description="BGC0000855_c1: ectoine (50% of genes show similarity), Other" class="clusterblast-cluster"  >
<text class="clusterblast-acc" y="120" x="5"  >
<a xlink:href="https://mibig.secondarymetabolites.org/go/BGC0000855/1" target="_blank">BGC0000855</a>:                                                                          ectoine (50% of genes show similarity), Other</text>
<line x1="10" x2="778.0" y2="135" style="stroke-width:1; stroke:grey; " y1="135"  />
</g>
<g id="a25_000"  >
<polygon locus_tag="ABB30173.1" description="&lt;b&gt;ABB30173.1&lt;/b&gt;&lt;br&gt;hypothetical protein&lt;br&gt;Location: 3455 - 3000" points="191,135 196,130 247,130 247,140 196,140 191,135 " style="stroke-width:1; stroke:black; fill:white; " id="knownclusterblast-25_all_25_2_0" class="clusterblast-orf"  />
</g>
<g id="a25_001"  >
<polygon locus_tag="ABB30172.1" description="&lt;b&gt;ABB30172.1&lt;/b&gt;&lt;br&gt;ectoine synthase&lt;br&gt;Location: 2673 - 2269&lt;br&gt;&lt;br&gt;&lt;b&gt;BlastP hit with SSMG_07029&lt;/b&gt;&lt;br&gt;Percentage identity: 48&lt;br&gt;Percentage coverage: 100&lt;br&gt;BLAST bit score: 133&lt;br&gt;E-value: 2e-31" points="288,135 293,130 338,130 338,140 293,140 288,135 " style="stroke-width:1; stroke:black; fill:#77d815; " id="knownclusterblast-25_all_25_2_1" class="clusterblast-orf"  />
</g>
<g id="a25_002"  >
<polygon locus_tag="ABB30171.1" description="&lt;b&gt;ABB30171.1&lt;/b&gt;&lt;br&gt;L-2,4-diaminobutyric acid acetyl transferase&lt;br&gt;Location: 2098 - 788&lt;br&gt;&lt;br&gt;&lt;b&gt;BlastP hit with SSMG_07030&lt;/b&gt;&lt;br&gt;Percentage identity: 57&lt;br&gt;Percentage coverage: 100&lt;br&gt;BLAST bit score: 497&lt;br&gt;E-value: 2.2e-140" points="359,135 364,130 521,130 521,140 364,140 359,135 " style="stroke-width:1; stroke:black; fill:#15d8d8; " id="knownclusterblast-25_all_25_2_2" class="clusterblast-orf"  />
</g>
<g id="a25_003"  >
<polygon locus_tag="ABB30170.1" description="&lt;b&gt;ABB30170.1&lt;/b&gt;&lt;br&gt;L-2,4-diaminobutyric acid acetyl transferase&lt;br&gt;Location: 740 - 246" points="527,135 532,130 588,130 588,140 532,140 527,135 " style="stroke-width:1; stroke:black; fill:white; " id="knownclusterblast-25_all_25_2_3" class="clusterblast-orf"  />
</g>
<g label="BGC0000859" description="BGC0000859_c1: ectoine (50% of genes show similarity), Other" class="clusterblast-cluster"  >
<text class="clusterblast-acc" y="170" x="5"  >
<a xlink:href="https://mibig.secondarymetabolites.org/go/BGC0000859/1" target="_blank">BGC0000859</a>:                                                                          ectoine (50% of genes show similarity), Other</text>
<line x1="10" x2="778.0" y2="185" style="stroke-width:1; stroke:grey; " y1="185"  />
</g>
<g id="a25_000"  >
<polygon locus_tag="ACB30333.1" description="&lt;b&gt;ACB30333.1&lt;/b&gt;&lt;br&gt;aspartokinase&lt;br&gt;Location: 3305 - 2667" points="201,185 206,180 280,180 280,190 206,190 201,185 " style="stroke-width:1; stroke:black; fill:white; " id="knownclusterblast-25_all_25_3_0" class="clusterblast-orf"  />
</g>
<g id="a25_001"  >
<polygon locus_tag="ACB30332.1" description="&lt;b&gt;ACB30332.1&lt;/b&gt;&lt;br&gt;ectoine synthase&lt;br&gt;Location: 2607 - 2203&lt;br&gt;&lt;br&gt;&lt;b&gt;BlastP hit with SSMG_07029&lt;/b&gt;&lt;br&gt;Percentage identity: 46&lt;br&gt;Percentage coverage: 100&lt;br&gt;BLAST bit score: 132&lt;br&gt;E-value: 5.8e-31" points="287,185 292,180 337,180 337,190 292,190 287,185 " style="stroke-width:1; stroke:black; fill:#77d815; " id="knownclusterblast-25_all_25_3_1" class="clusterblast-orf"  />
</g>
<g id="a25_002"  >
<polygon locus_tag="ACB30331.1" description="&lt;b&gt;ACB30331.1&lt;/b&gt;&lt;br&gt;L-2,4-diaminobutyric acid aminotransferase&lt;br&gt;Location: 2151 - 820&lt;br&gt;&lt;br&gt;&lt;b&gt;BlastP hit with SSMG_07030&lt;/b&gt;&lt;br&gt;Percentage identity: 56&lt;br&gt;Percentage coverage: 100&lt;br&gt;BLAST bit score: 480&lt;br&gt;E-value: 2.8e-135" points="344,185 349,180 509,180 509,190 349,190 344,185 " style="stroke-width:1; stroke:black; fill:#15d8d8; " id="knownclusterblast-25_all_25_3_2" class="clusterblast-orf"  />
</g>
<g id="a25_003"  >
<polygon locus_tag="ACB30330.1" description="&lt;b&gt;ACB30330.1&lt;/b&gt;&lt;br&gt;L-2,4-diaminobutyric acid acetyltransferase&lt;br&gt;Location: 777 - 259" points="514,185 519,180 578,180 578,190 519,190 514,185 " style="stroke-width:1; stroke:black; fill:white; " id="knownclusterblast-25_all_25_3_3" class="clusterblast-orf"  />
</g>
<g label="BGC0000860" description="BGC0000860_c1: ectoine (40% of genes show similarity), Other" class="clusterblast-cluster"  >
<text class="clusterblast-acc" y="220" x="5"  >
<a xlink:href="https://mibig.secondarymetabolites.org/go/BGC0000860/1" target="_blank">BGC0000860</a>:                                                                          ectoine (40% of genes show similarity), Other</text>
<line x1="10" x2="778.0" y2="235" style="stroke-width:1; stroke:grey; " y1="235"  />
</g>
<g id="a25_000"  >
<polygon locus_tag="ADA71977.1" description="&lt;b&gt;ADA71977.1&lt;/b&gt;&lt;br&gt;aspartokinase&lt;br&gt;Location: 5134 - 3740" points="115,235 120,230 288,230 288,240 120,240 115,235 " style="stroke-width:1; stroke:black; fill:white; " id="knownclusterblast-25_all_25_4_0" class="clusterblast-orf"  />
</g>
<g id="a25_001"  >
<polygon locus_tag="ADA71976.1" description="&lt;b&gt;ADA71976.1&lt;/b&gt;&lt;br&gt;L-ectoine synthase&lt;br&gt;Location: 3737 - 3342&lt;br&gt;&lt;br&gt;&lt;b&gt;BlastP hit with SSMG_07029&lt;/b&gt;&lt;br&gt;Percentage identity: 51&lt;br&gt;Percentage coverage: 98&lt;br&gt;BLAST bit score: 146&lt;br&gt;E-value: 3.9e-35" points="289,235 294,230 337,230 337,240 294,240 289,235 " style="stroke-width:1; stroke:black; fill:#77d815; " id="knownclusterblast-25_all_25_4_1" class="clusterblast-orf"  />
</g>
<g id="a25_002"  >
<polygon locus_tag="ADA71975.1" description="&lt;b&gt;ADA71975.1&lt;/b&gt;&lt;br&gt;L-2,4-diaminobutyrate transaminase&lt;br&gt;Location: 3334 - 2042&lt;br&gt;&lt;br&gt;&lt;b&gt;BlastP hit with SSMG_07030&lt;/b&gt;&lt;br&gt;Percentage identity: 47&lt;br&gt;Percentage coverage: 100&lt;br&gt;BLAST bit score: 407&lt;br&gt;E-value: 2.3e-113" points="338,235 343,230 499,230 499,240 343,240 338,235 " style="stroke-width:1; stroke:black; fill:#15d8d8; " id="knownclusterblast-25_all_25_4_2" class="clusterblast-orf"  />
</g>
<g id="a25_003"  >
<polygon locus_tag="ADA71974.1" description="&lt;b&gt;ADA71974.1&lt;/b&gt;&lt;br&gt;L-2,4-diaminobutyric acid acetyltransferase&lt;br&gt;Location: 1986 - 1441" points="505,235 510,230 573,230 573,240 510,240 505,235 " style="stroke-width:1; stroke:black; fill:white; " id="knownclusterblast-25_all_25_4_3" class="clusterblast-orf"  />
</g>
<g id="a25_004"  >
<polygon locus_tag="ADA71973.1" description="&lt;b&gt;ADA71973.1&lt;/b&gt;&lt;br&gt;MarR family transcriptional regulator&lt;br&gt;Location: 1265 - 711" points="595,240 658,240 663,235 658,230 595,230 595,240 " style="stroke-width:1; stroke:black; fill:white; " id="knownclusterblast-25_all_25_4_4" class="clusterblast-orf"  />
</g>
<g label="BGC0000854" description="BGC0000854_c1: ectoine (33% of genes show similarity), Other" class="clusterblast-cluster"  >
<text class="clusterblast-acc" y="270" x="5"  >
<a xlink:href="https://mibig.secondarymetabolites.org/go/BGC0000854/1" target="_blank">BGC0000854</a>:                                                                          ectoine (33% of genes show similarity), Other</text>
<line x1="10" x2="778.0" y2="285" style="stroke-width:1; stroke:grey; " y1="285"  />
</g>
<g id="a25_000"  >
<polygon locus_tag="AAY96769.2" description="&lt;b&gt;AAY96769.2&lt;/b&gt;&lt;br&gt;putative ectoine hydroxylase&lt;br&gt;Location: 6879 - 5920&lt;br&gt;&lt;br&gt;&lt;b&gt;BlastP hit with SSMG_07028&lt;/b&gt;&lt;br&gt;Percentage identity: 47&lt;br&gt;Percentage coverage: 96&lt;br&gt;BLAST bit score: 282&lt;br&gt;E-value: 1e-75" points="15,285 20,280 134,280 134,290 20,290 15,285 " style="stroke-width:1; stroke:black; fill:#d81515; " id="knownclusterblast-25_all_25_5_0" class="clusterblast-orf"  />
</g>
<g id="a25_001"  >
<polygon locus_tag="AAY96773.1" description="&lt;b&gt;AAY96773.1&lt;/b&gt;&lt;br&gt;aspartokinase&lt;br&gt;Location: 5559 - 4117" points="179,285 184,280 358,280 358,290 184,290 179,285 " style="stroke-width:1; stroke:black; fill:white; " id="knownclusterblast-25_all_25_5_1" class="clusterblast-orf"  />
</g>
<g id="a25_002"  >
<polygon locus_tag="AAY96772.1" description="&lt;b&gt;AAY96772.1&lt;/b&gt;&lt;br&gt;ectoine synthase&lt;br&gt;Location: 4056 - 3652" points="365,285 370,280 415,280 415,290 370,290 365,285 " style="stroke-width:1; stroke:black; fill:white; " id="knownclusterblast-25_all_25_5_2" class="clusterblast-orf"  />
</g>
<g id="a25_003"  >
<polygon locus_tag="AAY96771.1" description="&lt;b&gt;AAY96771.1&lt;/b&gt;&lt;br&gt;L-2,4-diaminobutyrat transaminase&lt;br&gt;Location: 3601 - 2270&lt;br&gt;&lt;br&gt;&lt;b&gt;BlastP hit with SSMG_07030&lt;/b&gt;&lt;br&gt;Percentage identity: 55&lt;br&gt;Percentage coverage: 100&lt;br&gt;BLAST bit score: 477&lt;br&gt;E-value: 1.8e-134" points="421,285 426,280 586,280 586,290 426,290 421,285 " style="stroke-width:1; stroke:black; fill:#15d8d8; " id="knownclusterblast-25_all_25_5_3" class="clusterblast-orf"  />
</g>
<g id="a25_004"  >
<polygon locus_tag="AAY96770.1" description="&lt;b&gt;AAY96770.1&lt;/b&gt;&lt;br&gt;L-2,4-diaminobutyrat acetyltransferase&lt;br&gt;Location: 2227 - 1709" points="592,285 597,280 656,280 656,290 597,290 592,285 " style="stroke-width:1; stroke:black; fill:white; " id="knownclusterblast-25_all_25_5_4" class="clusterblast-orf"  />
</g>
<g id="a25_005"  >
<polygon locus_tag="ACP19701.1" description="&lt;b&gt;ACP19701.1&lt;/b&gt;&lt;br&gt;transcriptional regulator MarR family&lt;br&gt;Location: 1381 - 839" points="696,290 759,290 764,285 759,280 696,280 696,290 " style="stroke-width:1; stroke:black; fill:white; " id="knownclusterblast-25_all_25_5_5" class="clusterblast-orf"  />
</g>
</svg>
