<svg version="1.1" xmlns="http://www.w3.org/2000/svg" height="230" width="800" xmlns:xlink="http://www.w3.org/1999/xlink" preserveAspectRatio="none" x="0" y="0" viewBox="0 0 800 230"  >
<g label="Query sequence" class="clusterblast-cluster"  >
<text class="clusterblast-acc" y="20" x="5"  >
Query sequence</text>
<line x1="10" x2="778.0" y2="35" style="stroke-width:1; stroke:grey; " y1="35"  />
<polygon locus_tag="SSMG_03679" description="&lt;b&gt;SSMG_03679&lt;/b&gt;&lt;br&gt;conserved hypothetical protein&lt;br&gt;Location: 4007765 - 4008614" points="275,35 279,30 279,40 275,35 " style="stroke-width:1; stroke:black; fill:#d81515; " id="dummy-14_q0_0_all" class="clusterblast-orf"  />
<polygon locus_tag="SSMG_03680" description="&lt;b&gt;SSMG_03680&lt;/b&gt;&lt;br&gt;3-oxoacyl-[acyl-carrier-protein] reductase&lt;br&gt;Location: 4008610 - 4009336" points="279,35 283,30 283,40 279,35 " style="stroke-width:1; stroke:black; fill:white; " id="dummy-14_q1_0_all" class="clusterblast-orf"  />
<polygon locus_tag="SSMG_03681" description="&lt;b&gt;SSMG_03681&lt;/b&gt;&lt;br&gt;cyclohexanecarboxyl-CoA dehydrogenase&lt;br&gt;Location: 4009343 - 4010492" points="283,35 288,30 289,30 289,40 288,40 283,35 " style="stroke-width:1; stroke:black; fill:#15d863; " id="dummy-14_q2_0_all" class="clusterblast-orf"  />
<polygon locus_tag="SSMG_03682" description="&lt;b&gt;SSMG_03682&lt;/b&gt;&lt;br&gt;predicted protein&lt;br&gt;Location: 4010488 - 4011319" points="289,35 293,30 293,40 289,35 " style="stroke-width:1; stroke:black; fill:#1563d8; " id="dummy-14_q3_0_all" class="clusterblast-orf"  />
<polygon locus_tag="SSMG_03683" description="&lt;b&gt;SSMG_03683&lt;/b&gt;&lt;br&gt;cyclohexanecarboxyl-CoA dehydrogenase&lt;br&gt;Location: 4011315 - 4012503" points="293,35 298,30 300,30 300,40 298,40 293,35 " style="stroke-width:1; stroke:black; fill:white; " id="dummy-14_q4_0_all" class="clusterblast-orf"  />
<polygon locus_tag="SSMG_03684" description="&lt;b&gt;SSMG_03684&lt;/b&gt;&lt;br&gt;predicted protein&lt;br&gt;Location: 4012692 - 4013370" points="301,40 304,35 301,30 301,40 " style="stroke-width:1; stroke:black; fill:white; " id="dummy-14_q5_0_all" class="clusterblast-orf"  />
<polygon locus_tag="SSMG_03685" description="&lt;b&gt;SSMG_03685&lt;/b&gt;&lt;br&gt;amidase&lt;br&gt;Location: 4013427 - 4014879" points="304,40 307,40 312,35 307,30 304,30 304,40 " style="stroke-width:1; stroke:black; fill:white; " id="dummy-14_q6_0_all" class="clusterblast-orf"  />
<polygon locus_tag="SSMG_03686" description="&lt;b&gt;SSMG_03686&lt;/b&gt;&lt;br&gt;predicted protein&lt;br&gt;Location: 4014997 - 4016458" points="313,40 315,40 320,35 315,30 313,30 313,40 " style="stroke-width:1; stroke:black; fill:white; " id="dummy-14_q7_0_all" class="clusterblast-orf"  />
<polygon locus_tag="SSMG_03687" description="&lt;b&gt;SSMG_03687&lt;/b&gt;&lt;br&gt;predicted protein&lt;br&gt;Location: 4016454 - 4017525" points="320,40 321,40 326,35 321,30 320,30 320,40 " style="stroke-width:1; stroke:black; fill:white; " id="dummy-14_q8_0_all" class="clusterblast-orf"  />
<polygon locus_tag="SSMG_03688" description="&lt;b&gt;SSMG_03688&lt;/b&gt;&lt;br&gt;predicted protein&lt;br&gt;Location: 4017546 - 4018155" points="326,40 329,35 326,30 326,40 " style="stroke-width:1; stroke:black; fill:white; " id="dummy-14_q9_0_all" class="clusterblast-orf"  />
<polygon locus_tag="SSMG_03689" description="&lt;b&gt;SSMG_03689&lt;/b&gt;&lt;br&gt;cytochrome P450 CYP105&lt;br&gt;Location: 4018196 - 4019411" points="329,35 334,30 336,30 336,40 334,40 329,35 " style="stroke-width:1; stroke:black; fill:#b115d8; " id="dummy-14_q10_0_all" class="clusterblast-orf"  />
<polygon locus_tag="SSMG_03690" description="&lt;b&gt;SSMG_03690&lt;/b&gt;&lt;br&gt;conserved hypothetical protein&lt;br&gt;Location: 4019493 - 4022595" points="336,35 341,30 353,30 353,40 341,40 336,35 " style="stroke-width:1; stroke:black; fill:white; " id="dummy-14_q11_0_all" class="clusterblast-orf"  />
<polygon locus_tag="SSMG_03691" description="&lt;b&gt;SSMG_03691&lt;/b&gt;&lt;br&gt;predicted protein&lt;br&gt;Location: 4022591 - 4023416" points="353,35 357,30 357,40 353,35 " style="stroke-width:1; stroke:black; fill:white; " id="dummy-14_q12_0_all" class="clusterblast-orf"  />
<polygon locus_tag="SSMG_03692" description="&lt;b&gt;SSMG_03692&lt;/b&gt;&lt;br&gt;phospholipase C, phosphocholine-specific&lt;br&gt;Location: 4023536 - 4025570" points="358,35 363,30 368,30 368,40 363,40 358,35 " style="stroke-width:1; stroke:black; fill:white; " id="dummy-14_q13_0_all" class="clusterblast-orf"  />
<polygon locus_tag="SSMG_03693" description="&lt;b&gt;SSMG_03693&lt;/b&gt;&lt;br&gt;phospholipase C&lt;br&gt;Location: 4025622 - 4027221" points="368,35 373,30 377,30 377,40 373,40 368,35 " style="stroke-width:1; stroke:black; fill:white; " id="dummy-14_q14_0_all" class="clusterblast-orf"  />
<polygon locus_tag="SSMG_03694" description="&lt;b&gt;SSMG_03694&lt;/b&gt;&lt;br&gt;predicted protein&lt;br&gt;Location: 4027528 - 4031518" points="378,35 383,30 399,30 399,40 383,40 378,35 " style="stroke-width:1; stroke:black; fill:white; " id="dummy-14_q15_0_all" class="clusterblast-orf"  />
<polygon locus_tag="SSMG_03695" description="&lt;b&gt;SSMG_03695&lt;/b&gt;&lt;br&gt;sodium/calcium exchanger membrane region&lt;br&gt;Location: 4032435 - 4033482" points="404,40 405,40 410,35 405,30 404,30 404,40 " style="stroke-width:1; stroke:black; fill:white; " id="dummy-14_q16_0_all" class="clusterblast-orf"  />
<polygon locus_tag="SSMG_03696" description="&lt;b&gt;SSMG_03696&lt;/b&gt;&lt;br&gt;predicted protein&lt;br&gt;Location: 4033617 - 4034883" points="410,40 412,40 417,35 412,30 410,30 410,40 " style="stroke-width:1; stroke:black; fill:white; " id="dummy-14_q17_0_all" class="clusterblast-orf"  />
<polygon locus_tag="SSMG_03697" description="&lt;b&gt;SSMG_03697&lt;/b&gt;&lt;br&gt;predicted protein&lt;br&gt;Location: 4034913 - 4035825" points="417,35 422,30 422,30 422,40 422,40 417,35 " style="stroke-width:1; stroke:black; fill:white; " id="dummy-14_q18_0_all" class="clusterblast-orf"  />
<polygon locus_tag="SSMG_03698" description="&lt;b&gt;SSMG_03698&lt;/b&gt;&lt;br&gt;UDP-glucose 4-epimerase&lt;br&gt;Location: 4035802 - 4036783" points="422,35 427,30 427,30 427,40 427,40 422,35 " style="stroke-width:1; stroke:black; fill:white; " id="dummy-14_q19_0_all" class="clusterblast-orf"  />
<polygon locus_tag="SSMG_03699" description="&lt;b&gt;SSMG_03699&lt;/b&gt;&lt;br&gt;undecaprenyldiphospho-muramoylpentapeptide beta-N-acetylglucosaminyltransferase&lt;br&gt;Location: 4036779 - 4037943" points="427,35 432,30 433,30 433,40 432,40 427,35 " style="stroke-width:1; stroke:black; fill:white; " id="dummy-14_q20_0_all" class="clusterblast-orf"  />
<polygon locus_tag="SSMG_03700" description="&lt;b&gt;SSMG_03700&lt;/b&gt;&lt;br&gt;phosphate regulon transcriptional regulatory protein PhoB&lt;br&gt;Location: 4038029 - 4038722" points="434,40 437,35 434,30 434,40 " style="stroke-width:1; stroke:black; fill:#b1d815; " id="dummy-14_q21_0_all" class="clusterblast-orf"  />
<polygon locus_tag="SSMG_03701" description="&lt;b&gt;SSMG_03701&lt;/b&gt;&lt;br&gt;phosphate regulon sensor kinase PhoR&lt;br&gt;Location: 4038718 - 4040077" points="437,40 439,40 444,35 439,30 437,30 437,40 " style="stroke-width:1; stroke:black; fill:white; " id="dummy-14_q22_0_all" class="clusterblast-orf"  />
<polygon locus_tag="SSMG_03702" description="&lt;b&gt;SSMG_03702&lt;/b&gt;&lt;br&gt;conserved hypothetical protein&lt;br&gt;Location: 4040125 - 4041112" points="445,40 445,40 450,35 445,30 445,30 445,40 " style="stroke-width:1; stroke:black; fill:white; " id="dummy-14_q23_0_all" class="clusterblast-orf"  />
<polygon locus_tag="SSMG_03703" description="&lt;b&gt;SSMG_03703&lt;/b&gt;&lt;br&gt;predicted protein&lt;br&gt;Location: 4041120 - 4041924" points="450,35 454,30 454,40 450,35 " style="stroke-width:1; stroke:black; fill:white; " id="dummy-14_q24_0_all" class="clusterblast-orf"  />
<polygon locus_tag="SSMG_03704" description="&lt;b&gt;SSMG_03704&lt;/b&gt;&lt;br&gt;predicted protein&lt;br&gt;Location: 4041920 - 4043375" points="454,35 459,30 462,30 462,40 459,40 454,35 " style="stroke-width:1; stroke:black; fill:white; " id="dummy-14_q25_0_all" class="clusterblast-orf"  />
<polygon locus_tag="SSMG_03705" description="&lt;b&gt;SSMG_03705&lt;/b&gt;&lt;br&gt;histidinol dehydrogenase&lt;br&gt;Location: 4043452 - 4044769" points="462,35 467,30 469,30 469,40 467,40 462,35 " style="stroke-width:1; stroke:black; fill:white; " id="dummy-14_q26_0_all" class="clusterblast-orf"  />
<polygon locus_tag="SSMG_03706" description="&lt;b&gt;SSMG_03706&lt;/b&gt;&lt;br&gt;transcriptional regulator&lt;br&gt;Location: 4044916 - 4045867" points="470,35 475,30 475,30 475,40 475,40 470,35 " style="stroke-width:1; stroke:black; fill:white; " id="dummy-14_q27_0_all" class="clusterblast-orf"  />
<polygon locus_tag="SSMG_03707" description="&lt;b&gt;SSMG_03707&lt;/b&gt;&lt;br&gt;predicted protein&lt;br&gt;Location: 4045902 - 4046895" points="475,35 480,30 480,30 480,40 480,40 475,35 " style="stroke-width:1; stroke:black; fill:white; " id="dummy-14_q28_0_all" class="clusterblast-orf"  />
<polygon locus_tag="SSMG_03708" description="&lt;b&gt;SSMG_03708&lt;/b&gt;&lt;br&gt;predicted protein&lt;br&gt;Location: 4047117 - 4048455" points="481,40 483,40 488,35 483,30 481,30 481,40 " style="stroke-width:1; stroke:black; fill:white; " id="dummy-14_q29_0_all" class="clusterblast-orf"  />
<polygon locus_tag="SSMG_03709" description="&lt;b&gt;SSMG_03709&lt;/b&gt;&lt;br&gt;predicted protein&lt;br&gt;Location: 4048494 - 4049487" points="489,35 494,30 494,30 494,40 494,40 489,35 " style="stroke-width:1; stroke:black; fill:white; " id="dummy-14_q30_0_all" class="clusterblast-orf"  />
<polygon locus_tag="SSMG_03710" description="&lt;b&gt;SSMG_03710&lt;/b&gt;&lt;br&gt;predicted protein&lt;br&gt;Location: 4049668 - 4050796" points="495,40 496,40 501,35 496,30 495,30 495,40 " style="stroke-width:1; stroke:black; fill:white; " id="dummy-14_q31_0_all" class="clusterblast-orf"  />
<polygon locus_tag="SSMG_03711" description="&lt;b&gt;SSMG_03711&lt;/b&gt;&lt;br&gt;predicted protein&lt;br&gt;Location: 4050792 - 4051515" points="501,40 504,35 501,30 501,40 " style="stroke-width:1; stroke:black; fill:white; " id="dummy-14_q32_0_all" class="clusterblast-orf"  />
</g>
<g label="BGC0001288" description="BGC0001288_c1: maklamicin (4% of genes show similarity), Polyketide" class="clusterblast-cluster"  >
<text class="clusterblast-acc" y="70" x="5"  >
<a xlink:href="https://mibig.secondarymetabolites.org/go/BGC0001288/1" target="_blank">BGC0001288</a>:                                                                       maklamicin (4% of genes show similarity), Polyketide</text>
<line x1="10" x2="778.0" y2="85" style="stroke-width:1; stroke:grey; " y1="85"  />
</g>
<g id="a14_000"  >
<polygon locus_tag="BAQ25520.1" description="&lt;b&gt;BAQ25520.1&lt;/b&gt;&lt;br&gt;propionyl-CoA carboxylase&lt;br&gt;Location: 148791 - 147367" points="0,85 5,80 7,80 7,90 5,90 0,85 " style="stroke-width:1; stroke:black; fill:white; " id="dummy-14_h14_3_0" class="clusterblast-orf"  />
</g>
<g id="a14_001"  >
<polygon locus_tag="BAQ25519.1" description="&lt;b&gt;BAQ25519.1&lt;/b&gt;&lt;br&gt;hypothetical protein&lt;br&gt;Location: 146973 - 146689" points="9,90 11,85 9,80 9,90 " style="stroke-width:1; stroke:black; fill:white; " id="dummy-14_h14_3_1" class="clusterblast-orf"  />
</g>
<g id="a14_002"  >
<polygon locus_tag="BAQ25518.1" description="&lt;b&gt;BAQ25518.1&lt;/b&gt;&lt;br&gt;acyl-CoA synthetase&lt;br&gt;Location: 146631 - 145240" points="11,90 13,90 18,85 13,80 11,80 11,90 " style="stroke-width:1; stroke:black; fill:white; " id="dummy-14_h14_3_2" class="clusterblast-orf"  />
</g>
<g id="a14_003"  >
<polygon locus_tag="BAQ25517.1" description="&lt;b&gt;BAQ25517.1&lt;/b&gt;&lt;br&gt;metallophosphoesterase&lt;br&gt;Location: 145162 - 144311" points="19,90 23,85 19,80 19,90 " style="stroke-width:1; stroke:black; fill:white; " id="dummy-14_h14_3_3" class="clusterblast-orf"  />
</g>
<g id="a14_004"  >
<polygon locus_tag="BAQ25516.1" description="&lt;b&gt;BAQ25516.1&lt;/b&gt;&lt;br&gt;4'-phosphopantetheinyl transferase&lt;br&gt;Location: 144314 - 143595" points="23,90 27,85 23,80 23,90 " style="stroke-width:1; stroke:black; fill:white; " id="dummy-14_h14_3_4" class="clusterblast-orf"  />
</g>
<g id="a14_005"  >
<polygon locus_tag="BAQ25515.1" description="&lt;b&gt;BAQ25515.1&lt;/b&gt;&lt;br&gt;hypothetical protein&lt;br&gt;Location: 143483 - 143184" points="27,90 29,85 27,80 27,90 " style="stroke-width:1; stroke:black; fill:white; " id="dummy-14_h14_3_5" class="clusterblast-orf"  />
</g>
<g id="a14_006"  >
<polygon locus_tag="BAQ25514.1" description="&lt;b&gt;BAQ25514.1&lt;/b&gt;&lt;br&gt;TetR family transcriptional regulator&lt;br&gt;Location: 142477 - 141845" points="33,85 36,80 36,90 33,85 " style="stroke-width:1; stroke:black; fill:white; " id="dummy-14_h14_3_6" class="clusterblast-orf"  />
</g>
<g id="a14_007"  >
<polygon locus_tag="BAQ25513.1" description="&lt;b&gt;BAQ25513.1&lt;/b&gt;&lt;br&gt;type I polyketide synthase&lt;br&gt;Location: 141753 - 130030" points="36,85 41,80 98,80 98,90 41,90 36,85 " style="stroke-width:1; stroke:black; fill:white; " id="dummy-14_h14_3_7" class="clusterblast-orf"  />
</g>
<g id="a14_008"  >
<polygon locus_tag="BAQ25512.1" description="&lt;b&gt;BAQ25512.1&lt;/b&gt;&lt;br&gt;type I polyketide synthase&lt;br&gt;Location: 130003 - 107708" points="98,85 103,80 215,80 215,90 103,90 98,85 " style="stroke-width:1; stroke:black; fill:white; " id="dummy-14_h14_3_8" class="clusterblast-orf"  />
</g>
<g id="a14_009"  >
<polygon locus_tag="BAQ25511.1" description="&lt;b&gt;BAQ25511.1&lt;/b&gt;&lt;br&gt;type I polyketide synthase&lt;br&gt;Location: 107695 - 77855" points="215,85 220,80 372,80 372,90 220,90 215,85 " style="stroke-width:1; stroke:black; fill:white; " id="dummy-14_h14_3_9" class="clusterblast-orf"  />
</g>
<g id="a14_0010"  >
<polygon locus_tag="BAQ25510.1" description="&lt;b&gt;BAQ25510.1&lt;/b&gt;&lt;br&gt;cytochrome P450&lt;br&gt;Location: 77666 - 76485" points="373,90 374,90 379,85 374,80 373,80 373,90 " style="stroke-width:1; stroke:black; fill:white; " id="dummy-14_h14_3_10" class="clusterblast-orf"  />
</g>
<g id="a14_0011"  >
<polygon locus_tag="BAQ25509.1" description="&lt;b&gt;BAQ25509.1&lt;/b&gt;&lt;br&gt;FADH2-dependent halogenase&lt;br&gt;Location: 76425 - 75085" points="379,85 384,80 386,80 386,90 384,90 379,85 " style="stroke-width:1; stroke:black; fill:white; " id="dummy-14_h14_3_11" class="clusterblast-orf"  />
</g>
<g id="a14_0012"  >
<polygon locus_tag="BAQ25508.1" description="&lt;b&gt;BAQ25508.1&lt;/b&gt;&lt;br&gt;acyl carrier protein&lt;br&gt;Location: 75073 - 74813" points="386,85 388,80 388,90 386,85 " style="stroke-width:1; stroke:black; fill:white; " id="dummy-14_h14_3_12" class="clusterblast-orf"  />
</g>
<g id="a14_0013"  >
<polygon locus_tag="BAQ25507.1" description="&lt;b&gt;BAQ25507.1&lt;/b&gt;&lt;br&gt;type I polyketide synthase&lt;br&gt;Location: 74747 - 69342" points="388,85 393,80 417,80 417,90 393,90 388,85 " style="stroke-width:1; stroke:black; fill:white; " id="dummy-14_h14_3_13" class="clusterblast-orf"  />
</g>
<g id="a14_0014"  >
<polygon locus_tag="BAQ25506.1" description="&lt;b&gt;BAQ25506.1&lt;/b&gt;&lt;br&gt;3-oxoacyl-ACP synthase&lt;br&gt;Location: 69300 - 68260" points="417,85 422,80 422,80 422,90 422,90 417,85 " style="stroke-width:1; stroke:black; fill:white; " id="dummy-14_h14_3_14" class="clusterblast-orf"  />
</g>
<g id="a14_0015"  >
<polygon locus_tag="BAQ25505.1" description="&lt;b&gt;BAQ25505.1&lt;/b&gt;&lt;br&gt;dehydratase&lt;br&gt;Location: 68189 - 67101" points="423,85 428,80 428,80 428,90 428,90 423,85 " style="stroke-width:1; stroke:black; fill:white; " id="dummy-14_h14_3_15" class="clusterblast-orf"  />
</g>
<g id="a14_0016"  >
<polygon locus_tag="BAQ25504.1" description="&lt;b&gt;BAQ25504.1&lt;/b&gt;&lt;br&gt;acyltransferase&lt;br&gt;Location: 67104 - 66280" points="428,85 433,80 433,80 433,90 433,90 428,85 " style="stroke-width:1; stroke:black; fill:white; " id="dummy-14_h14_3_16" class="clusterblast-orf"  />
</g>
<g id="a14_0017"  >
<polygon locus_tag="BAQ25503.1" description="&lt;b&gt;BAQ25503.1&lt;/b&gt;&lt;br&gt;acyl carrier protein&lt;br&gt;Location: 66283 - 66056" points="433,85 434,80 434,90 433,85 " style="stroke-width:1; stroke:black; fill:white; " id="dummy-14_h14_3_17" class="clusterblast-orf"  />
</g>
<g id="a14_0018"  >
<polygon locus_tag="BAQ25502.1" description="&lt;b&gt;BAQ25502.1&lt;/b&gt;&lt;br&gt;glyceryl-S-ACP synthase&lt;br&gt;Location: 66059 - 64176" points="434,85 439,80 444,80 444,90 439,90 434,85 " style="stroke-width:1; stroke:black; fill:white; " id="dummy-14_h14_3_18" class="clusterblast-orf"  />
</g>
<g id="a14_0019"  >
<polygon locus_tag="BAQ25501.1" description="&lt;b&gt;BAQ25501.1&lt;/b&gt;&lt;br&gt;ketoacyl-ACP synthase&lt;br&gt;Location: 64175 - 63147" points="444,85 449,80 449,80 449,90 449,90 444,85 " style="stroke-width:1; stroke:black; fill:white; " id="dummy-14_h14_3_19" class="clusterblast-orf"  />
</g>
<g id="a14_0020"  >
<polygon locus_tag="BAQ25500.1" description="&lt;b&gt;BAQ25500.1&lt;/b&gt;&lt;br&gt;SARP family transcriptional regulator&lt;br&gt;Location: 62767 - 61937" points="451,90 455,85 451,80 451,90 " style="stroke-width:1; stroke:black; fill:white; " id="dummy-14_h14_3_20" class="clusterblast-orf"  />
</g>
<g id="a14_0021"  >
<polygon locus_tag="BAQ25499.1" description="&lt;b&gt;BAQ25499.1&lt;/b&gt;&lt;br&gt;cytochrome P450&lt;br&gt;Location: 61899 - 60709&lt;br&gt;&lt;br&gt;&lt;b&gt;BlastP hit with SSMG_03689&lt;/b&gt;&lt;br&gt;Percentage identity: 48&lt;br&gt;Percentage coverage: 100&lt;br&gt;BLAST bit score: 351&lt;br&gt;E-value: 2.5e-96" points="456,90 457,90 462,85 457,80 456,80 456,90 " style="stroke-width:1; stroke:black; fill:#b115d8; " id="dummy-14_h14_3_21" class="clusterblast-orf"  />
</g>
<g id="a14_0022"  >
<polygon locus_tag="BAQ25498.1" description="&lt;b&gt;BAQ25498.1&lt;/b&gt;&lt;br&gt;type II thioesterase&lt;br&gt;Location: 60688 - 59882" points="462,85 466,80 466,90 462,85 " style="stroke-width:1; stroke:black; fill:white; " id="dummy-14_h14_3_22" class="clusterblast-orf"  />
</g>
<g id="a14_0023"  >
<polygon locus_tag="BAQ25497.1" description="&lt;b&gt;BAQ25497.1&lt;/b&gt;&lt;br&gt;hypothetical protein&lt;br&gt;Location: 59885 - 59328" points="466,85 469,80 469,90 466,85 " style="stroke-width:1; stroke:black; fill:white; " id="dummy-14_h14_3_23" class="clusterblast-orf"  />
</g>
<g id="a14_0024"  >
<polygon locus_tag="BAQ25496.1" description="&lt;b&gt;BAQ25496.1&lt;/b&gt;&lt;br&gt;glycosyltransferase&lt;br&gt;Location: 59052 - 57844" points="471,90 472,90 477,85 472,80 471,80 471,90 " style="stroke-width:1; stroke:black; fill:white; " id="dummy-14_h14_3_24" class="clusterblast-orf"  />
</g>
<g id="a14_0025"  >
<polygon locus_tag="BAQ25495.1" description="&lt;b&gt;BAQ25495.1&lt;/b&gt;&lt;br&gt;hypothetical protein&lt;br&gt;Location: 57753 - 57517" points="477,90 479,85 477,80 477,90 " style="stroke-width:1; stroke:black; fill:white; " id="dummy-14_h14_3_25" class="clusterblast-orf"  />
</g>
<g id="a14_0026"  >
<polygon locus_tag="BAQ25494.1" description="&lt;b&gt;BAQ25494.1&lt;/b&gt;&lt;br&gt;ATPase AAA&lt;br&gt;Location: 57316 - 56228" points="480,90 480,90 485,85 480,80 480,80 480,90 " style="stroke-width:1; stroke:black; fill:white; " id="dummy-14_h14_3_26" class="clusterblast-orf"  />
</g>
<g id="a14_0027"  >
<polygon locus_tag="BAQ25493.1" description="&lt;b&gt;BAQ25493.1&lt;/b&gt;&lt;br&gt;hypothetical protein&lt;br&gt;Location: 56231 - 54924" points="485,90 487,90 492,85 487,80 485,80 485,90 " style="stroke-width:1; stroke:black; fill:white; " id="dummy-14_h14_3_27" class="clusterblast-orf"  />
</g>
<g id="a14_0028"  >
<polygon locus_tag="BAQ25492.1" description="&lt;b&gt;BAQ25492.1&lt;/b&gt;&lt;br&gt;hypothetical protein&lt;br&gt;Location: 54927 - 54172" points="492,90 496,85 492,80 492,90 " style="stroke-width:1; stroke:black; fill:white; " id="dummy-14_h14_3_28" class="clusterblast-orf"  />
</g>
<g id="a14_0029"  >
<polygon locus_tag="BAQ25491.1" description="&lt;b&gt;BAQ25491.1&lt;/b&gt;&lt;br&gt;multidrug MFS (major facilitator superfamily) transporter&lt;br&gt;Location: 54131 - 52644" points="496,90 499,90 504,85 499,80 496,80 496,90 " style="stroke-width:1; stroke:black; fill:white; " id="dummy-14_h14_3_29" class="clusterblast-orf"  />
</g>
<g id="a14_0030"  >
<polygon locus_tag="BAQ25490.1" description="&lt;b&gt;BAQ25490.1&lt;/b&gt;&lt;br&gt;3-oxoacyl-ACP synthase&lt;br&gt;Location: 52506 - 51469" points="505,90 505,90 510,85 505,80 505,80 505,90 " style="stroke-width:1; stroke:black; fill:white; " id="dummy-14_h14_3_30" class="clusterblast-orf"  />
</g>
<g id="a14_0031"  >
<polygon locus_tag="BAQ25489.1" description="&lt;b&gt;BAQ25489.1&lt;/b&gt;&lt;br&gt;sodium:proton exchanger&lt;br&gt;Location: 51472 - 50087" points="510,90 513,90 518,85 513,80 510,80 510,90 " style="stroke-width:1; stroke:black; fill:white; " id="dummy-14_h14_3_31" class="clusterblast-orf"  />
</g>
<g id="a14_0032"  >
<polygon locus_tag="BAQ25488.1" description="&lt;b&gt;BAQ25488.1&lt;/b&gt;&lt;br&gt;multidrug ABC transporter ATP-binding protein&lt;br&gt;Location: 50015 - 49095" points="518,90 518,90 523,85 518,80 518,80 518,90 " style="stroke-width:1; stroke:black; fill:white; " id="dummy-14_h14_3_32" class="clusterblast-orf"  />
</g>
<g id="a14_0033"  >
<polygon locus_tag="BAQ25487.1" description="&lt;b&gt;BAQ25487.1&lt;/b&gt;&lt;br&gt;ABC transporter permease&lt;br&gt;Location: 49095 - 48268" points="523,90 527,85 523,80 523,90 " style="stroke-width:1; stroke:black; fill:white; " id="dummy-14_h14_3_33" class="clusterblast-orf"  />
</g>
<g id="a14_0034"  >
<polygon locus_tag="BAQ25486.1" description="&lt;b&gt;BAQ25486.1&lt;/b&gt;&lt;br&gt;two-component system response regulator&lt;br&gt;Location: 48215 - 47487&lt;br&gt;&lt;br&gt;&lt;b&gt;BlastP hit with SSMG_03700&lt;/b&gt;&lt;br&gt;Percentage identity: 48&lt;br&gt;Percentage coverage: 97&lt;br&gt;BLAST bit score: 193&lt;br&gt;E-value: 3.8e-49" points="527,90 531,85 527,80 527,90 " style="stroke-width:1; stroke:black; fill:#b1d815; " id="dummy-14_h14_3_34" class="clusterblast-orf"  />
</g>
<g id="a14_0035"  >
<polygon locus_tag="BAQ25485.1" description="&lt;b&gt;BAQ25485.1&lt;/b&gt;&lt;br&gt;two-component system sensor kinase&lt;br&gt;Location: 47490 - 45940" points="531,90 534,90 539,85 534,80 531,80 531,90 " style="stroke-width:1; stroke:black; fill:white; " id="dummy-14_h14_3_35" class="clusterblast-orf"  />
</g>
<g id="a14_0036"  >
<polygon locus_tag="BAQ25484.1" description="&lt;b&gt;BAQ25484.1&lt;/b&gt;&lt;br&gt;FAD-dependent oxidoreductase&lt;br&gt;Location: 45651 - 44143" points="541,85 546,80 549,80 549,90 546,90 541,85 " style="stroke-width:1; stroke:black; fill:white; " id="dummy-14_h14_3_36" class="clusterblast-orf"  />
</g>
<g id="a14_0037"  >
<polygon locus_tag="BAQ25483.1" description="&lt;b&gt;BAQ25483.1&lt;/b&gt;&lt;br&gt;type I polyketide synthase&lt;br&gt;Location: 44146 - 40808" points="549,85 554,80 566,80 566,90 554,90 549,85 " style="stroke-width:1; stroke:black; fill:white; " id="dummy-14_h14_3_37" class="clusterblast-orf"  />
</g>
<g id="a14_0038"  >
<polygon locus_tag="BAQ25482.1" description="&lt;b&gt;BAQ25482.1&lt;/b&gt;&lt;br&gt;type I polyketide synthase&lt;br&gt;Location: 40777 - 28904" points="566,85 571,80 629,80 629,90 571,90 566,85 " style="stroke-width:1; stroke:black; fill:white; " id="dummy-14_h14_3_38" class="clusterblast-orf"  />
</g>
<g id="a14_0039"  >
<polygon locus_tag="BAQ25481.1" description="&lt;b&gt;BAQ25481.1&lt;/b&gt;&lt;br&gt;type I polyketide synthase&lt;br&gt;Location: 28907 - 7272" points="629,85 634,80 742,80 742,90 634,90 629,85 " style="stroke-width:1; stroke:black; fill:white; " id="dummy-14_h14_3_39" class="clusterblast-orf"  />
</g>
<g id="a14_0040"  >
<polygon locus_tag="BAQ25480.1" description="&lt;b&gt;BAQ25480.1&lt;/b&gt;&lt;br&gt;glucose-1-phosphate thymidylyltransferase&lt;br&gt;Location: 7006 - 6131" points="744,85 748,80 748,90 744,85 " style="stroke-width:1; stroke:black; fill:white; " id="dummy-14_h14_3_40" class="clusterblast-orf"  />
</g>
<g id="a14_0041"  >
<polygon locus_tag="BAQ25479.1" description="&lt;b&gt;BAQ25479.1&lt;/b&gt;&lt;br&gt;dTDP-glucose 4,6-dehydratase&lt;br&gt;Location: 5875 - 4886" points="750,90 750,90 755,85 750,80 750,80 750,90 " style="stroke-width:1; stroke:black; fill:white; " id="dummy-14_h14_3_41" class="clusterblast-orf"  />
</g>
<g id="a14_0042"  >
<polygon locus_tag="BAQ25478.1" description="&lt;b&gt;BAQ25478.1&lt;/b&gt;&lt;br&gt;monooxygenase&lt;br&gt;Location: 4740 - 2461" points="756,90 763,90 768,85 763,80 756,80 756,90 " style="stroke-width:1; stroke:black; fill:white; " id="dummy-14_h14_3_42" class="clusterblast-orf"  />
</g>
<g id="a14_0043"  >
<polygon locus_tag="BAQ25477.1" description="&lt;b&gt;BAQ25477.1&lt;/b&gt;&lt;br&gt;antibiotic biosynthesis monooxygenase&lt;br&gt;Location: 2464 - 2144" points="768,90 769,85 768,80 768,90 " style="stroke-width:1; stroke:black; fill:white; " id="dummy-14_h14_3_43" class="clusterblast-orf"  />
</g>
<g id="a14_0044"  >
<polygon locus_tag="BAQ25476.1" description="&lt;b&gt;BAQ25476.1&lt;/b&gt;&lt;br&gt;cytochrome P450&lt;br&gt;Location: 2147 - 924" points="769,90 771,90 776,85 771,80 769,80 769,90 " style="stroke-width:1; stroke:black; fill:white; " id="dummy-14_h14_3_44" class="clusterblast-orf"  />
</g>
<g id="a14_0045"  >
<polygon locus_tag="BAQ25475.1" description="&lt;b&gt;BAQ25475.1&lt;/b&gt;&lt;br&gt;polyketide synthesis cyclase&lt;br&gt;Location: 867 - 199" points="776,90 780,85 776,80 776,90 " style="stroke-width:1; stroke:black; fill:white; " id="dummy-14_h14_3_45" class="clusterblast-orf"  />
</g>
</svg>
