<svg version="1.1" xmlns="http://www.w3.org/2000/svg" height="230" width="800" xmlns:xlink="http://www.w3.org/1999/xlink" preserveAspectRatio="none" x="0" y="0" viewBox="0 0 800 230"  >
<g label="Query sequence" class="clusterblast-cluster"  >
<text class="clusterblast-acc" y="20" x="5"  >
Query sequence</text>
<line x1="10" x2="778.0" y2="35" style="stroke-width:1; stroke:grey; " y1="35"  />
<polygon locus_tag="SSMG_04259" description="&lt;b&gt;SSMG_04259&lt;/b&gt;&lt;br&gt;conserved hypothetical protein&lt;br&gt;Location: 4646055 - 4646568" points="105,35 110,30 111,30 111,40 110,40 105,35 " style="stroke-width:1; stroke:black; fill:white; " id="dummy-17_q0_0_all" class="clusterblast-orf"  />
<polygon locus_tag="SSMG_04260" description="&lt;b&gt;SSMG_04260&lt;/b&gt;&lt;br&gt;predicted protein&lt;br&gt;Location: 4646583 - 4647069" points="111,35 116,30 116,30 116,40 116,40 111,35 " style="stroke-width:1; stroke:black; fill:white; " id="dummy-17_q1_0_all" class="clusterblast-orf"  />
<polygon locus_tag="SSMG_04261" description="&lt;b&gt;SSMG_04261&lt;/b&gt;&lt;br&gt;phosphatidylinositol alpha-mannosyltransferase&lt;br&gt;Location: 4647065 - 4648208" points="116,35 121,30 129,30 129,40 121,40 116,35 " style="stroke-width:1; stroke:black; fill:white; " id="dummy-17_q2_0_all" class="clusterblast-orf"  />
<polygon locus_tag="SSMG_04262" description="&lt;b&gt;SSMG_04262&lt;/b&gt;&lt;br&gt;predicted protein&lt;br&gt;Location: 4648225 - 4649128" points="129,35 134,30 140,30 140,40 134,40 129,35 " style="stroke-width:1; stroke:black; fill:white; " id="dummy-17_q3_0_all" class="clusterblast-orf"  />
<polygon locus_tag="SSMG_04263" description="&lt;b&gt;SSMG_04263&lt;/b&gt;&lt;br&gt;phosphatidylinositol synthase&lt;br&gt;Location: 4649124 - 4649772" points="140,35 145,30 147,30 147,40 145,40 140,35 " style="stroke-width:1; stroke:black; fill:white; " id="dummy-17_q4_0_all" class="clusterblast-orf"  />
<polygon locus_tag="SSMG_04264" description="&lt;b&gt;SSMG_04264&lt;/b&gt;&lt;br&gt;MarR-family transcriptional repressor&lt;br&gt;Location: 4649872 - 4650403" points="148,35 153,30 154,30 154,40 153,40 148,35 " style="stroke-width:1; stroke:black; fill:white; " id="dummy-17_q5_0_all" class="clusterblast-orf"  />
<polygon locus_tag="SSMG_04265" description="&lt;b&gt;SSMG_04265&lt;/b&gt;&lt;br&gt;HIT family protein&lt;br&gt;Location: 4650453 - 4650996" points="155,35 160,30 161,30 161,40 160,40 155,35 " style="stroke-width:1; stroke:black; fill:white; " id="dummy-17_q6_0_all" class="clusterblast-orf"  />
<polygon locus_tag="SSMG_04266" description="&lt;b&gt;SSMG_04266&lt;/b&gt;&lt;br&gt;threonyl-tRNA synthetase&lt;br&gt;Location: 4650992 - 4653029" points="161,35 166,30 184,30 184,40 166,40 161,35 " style="stroke-width:1; stroke:black; fill:white; " id="dummy-17_q7_0_all" class="clusterblast-orf"  />
<polygon locus_tag="SSMG_04267" description="&lt;b&gt;SSMG_04267&lt;/b&gt;&lt;br&gt;nitroreductase&lt;br&gt;Location: 4653174 - 4653786" points="185,35 190,30 192,30 192,40 190,40 185,35 " style="stroke-width:1; stroke:black; fill:white; " id="dummy-17_q8_0_all" class="clusterblast-orf"  />
<polygon locus_tag="SSMG_04268" description="&lt;b&gt;SSMG_04268&lt;/b&gt;&lt;br&gt;undecaprenyl-phosphate glucose phosphotransferase&lt;br&gt;Location: 4653943 - 4655410" points="194,35 199,30 210,30 210,40 199,40 194,35 " style="stroke-width:1; stroke:black; fill:white; " id="dummy-17_q9_0_all" class="clusterblast-orf"  />
<polygon locus_tag="SSMG_04269" description="&lt;b&gt;SSMG_04269&lt;/b&gt;&lt;br&gt;predicted protein&lt;br&gt;Location: 4656012 - 4656249" points="217,35 220,30 220,40 217,35 " style="stroke-width:1; stroke:black; fill:white; " id="dummy-17_q10_0_all" class="clusterblast-orf"  />
<polygon locus_tag="SSMG_04270" description="&lt;b&gt;SSMG_04270&lt;/b&gt;&lt;br&gt;predicted protein&lt;br&gt;Location: 4656683 - 4657121" points="225,35 230,30 230,30 230,40 230,40 225,35 " style="stroke-width:1; stroke:black; fill:white; " id="dummy-17_q11_0_all" class="clusterblast-orf"  />
<polygon locus_tag="SSMG_04271" description="&lt;b&gt;SSMG_04271&lt;/b&gt;&lt;br&gt;predicted protein&lt;br&gt;Location: 4658192 - 4659011" points="242,40 246,40 251,35 246,30 242,30 242,40 " style="stroke-width:1; stroke:black; fill:white; " id="dummy-17_q12_0_all" class="clusterblast-orf"  />
<polygon locus_tag="SSMG_04272" description="&lt;b&gt;SSMG_04272&lt;/b&gt;&lt;br&gt;3-oxoacyl-(acyl carrier protein) synthase III&lt;br&gt;Location: 4659025 - 4659964" points="251,35 256,30 262,30 262,40 256,40 251,35 " style="stroke-width:1; stroke:black; fill:white; " id="dummy-17_q13_0_all" class="clusterblast-orf"  />
<polygon locus_tag="SSMG_04273" description="&lt;b&gt;SSMG_04273&lt;/b&gt;&lt;br&gt;predicted protein&lt;br&gt;Location: 4659985 - 4662595" points="262,35 267,30 291,30 291,40 267,40 262,35 " style="stroke-width:1; stroke:black; fill:white; " id="dummy-17_q14_0_all" class="clusterblast-orf"  />
<polygon locus_tag="SSMG_04274" description="&lt;b&gt;SSMG_04274&lt;/b&gt;&lt;br&gt;conserved hypothetical protein&lt;br&gt;Location: 4662699 - 4663347" points="292,35 297,30 300,30 300,40 297,40 292,35 " style="stroke-width:1; stroke:black; fill:white; " id="dummy-17_q15_0_all" class="clusterblast-orf"  />
<polygon locus_tag="SSMG_04275" description="&lt;b&gt;SSMG_04275&lt;/b&gt;&lt;br&gt;3-oxoacyl-[acyl-carrier-protein] reductase&lt;br&gt;Location: 4663491 - 4664232" points="301,35 306,30 310,30 310,40 306,40 301,35 " style="stroke-width:1; stroke:black; fill:#d81515; " id="dummy-17_q16_0_all" class="clusterblast-orf"  />
<polygon locus_tag="SSMG_04276" description="&lt;b&gt;SSMG_04276&lt;/b&gt;&lt;br&gt;predicted protein&lt;br&gt;Location: 4664228 - 4664642" points="310,35 314,30 314,40 310,35 " style="stroke-width:1; stroke:black; fill:white; " id="dummy-17_q17_0_all" class="clusterblast-orf"  />
<polygon locus_tag="SSMG_04277" description="&lt;b&gt;SSMG_04277&lt;/b&gt;&lt;br&gt;predicted protein&lt;br&gt;Location: 4664638 - 4664989" points="314,35 318,30 318,40 314,35 " style="stroke-width:1; stroke:black; fill:white; " id="dummy-17_q18_0_all" class="clusterblast-orf"  />
<polygon locus_tag="SSMG_04278" description="&lt;b&gt;SSMG_04278&lt;/b&gt;&lt;br&gt;predicted protein&lt;br&gt;Location: 4664964 - 4665975" points="318,35 323,30 329,30 329,40 323,40 318,35 " style="stroke-width:1; stroke:black; fill:white; " id="dummy-17_q19_0_all" class="clusterblast-orf"  />
<polygon locus_tag="SSMG_04279" description="&lt;b&gt;SSMG_04279&lt;/b&gt;&lt;br&gt;3-oxoacyl-[acyl-carrier-protein] synthase 2&lt;br&gt;Location: 4665971 - 4667213" points="329,35 334,30 343,30 343,40 334,40 329,35 " style="stroke-width:1; stroke:black; fill:#15d815; " id="dummy-17_q20_0_all" class="clusterblast-orf"  />
<polygon locus_tag="SSMG_04280" description="&lt;b&gt;SSMG_04280&lt;/b&gt;&lt;br&gt;acyl carrier protein&lt;br&gt;Location: 4667214 - 4667502" points="343,35 346,30 346,40 343,35 " style="stroke-width:1; stroke:black; fill:white; " id="dummy-17_q21_0_all" class="clusterblast-orf"  />
<polygon locus_tag="SSMG_04281" description="&lt;b&gt;SSMG_04281&lt;/b&gt;&lt;br&gt;predicted protein&lt;br&gt;Location: 4667530 - 4668379" points="347,35 352,30 356,30 356,40 352,40 347,35 " style="stroke-width:1; stroke:black; fill:white; " id="dummy-17_q22_0_all" class="clusterblast-orf"  />
<polygon locus_tag="SSMG_04282" description="&lt;b&gt;SSMG_04282&lt;/b&gt;&lt;br&gt;dicarboxylate-CoA ligase PimA&lt;br&gt;Location: 4668401 - 4669997" points="357,35 362,30 375,30 375,40 362,40 357,35 " style="stroke-width:1; stroke:black; fill:#1597d8; " id="dummy-17_q23_0_all" class="clusterblast-orf"  />
<polygon locus_tag="SSMG_04283" description="&lt;b&gt;SSMG_04283&lt;/b&gt;&lt;br&gt;predicted protein&lt;br&gt;Location: 4669993 - 4671523" points="375,35 380,30 392,30 392,40 380,40 375,35 " style="stroke-width:1; stroke:black; fill:#9715d8; " id="dummy-17_q24_0_all" class="clusterblast-orf"  />
<polygon locus_tag="SSMG_04284" description="&lt;b&gt;SSMG_04284&lt;/b&gt;&lt;br&gt;modular polyketide synthase&lt;br&gt;Location: 4671446 - 4677095" points="391,35 396,30 454,30 454,40 396,40 391,35 " style="stroke-width:1; stroke:black; fill:#d89715; " id="dummy-17_q25_0_all" class="clusterblast-orf"  />
<polygon locus_tag="SSMG_04285" description="&lt;b&gt;SSMG_04285&lt;/b&gt;&lt;br&gt;predicted protein&lt;br&gt;Location: 4677855 - 4678209" points="463,35 467,30 467,40 463,35 " style="stroke-width:1; stroke:black; fill:#15d897; " id="dummy-17_q26_0_all" class="clusterblast-orf"  />
<polygon locus_tag="SSMG_04286" description="&lt;b&gt;SSMG_04286&lt;/b&gt;&lt;br&gt;conserved hypothetical protein&lt;br&gt;Location: 4678234 - 4678792" points="467,35 472,30 474,30 474,40 472,40 467,35 " style="stroke-width:1; stroke:black; fill:#1515d8; " id="dummy-17_q27_0_all" class="clusterblast-orf"  />
<polygon locus_tag="SSMG_04287" description="&lt;b&gt;SSMG_04287&lt;/b&gt;&lt;br&gt;predicted protein&lt;br&gt;Location: 4678788 - 4679991" points="474,35 479,30 487,30 487,40 479,40 474,35 " style="stroke-width:1; stroke:black; fill:#d81597; " id="dummy-17_q28_0_all" class="clusterblast-orf"  />
<polygon locus_tag="SSMG_04288" description="&lt;b&gt;SSMG_04288&lt;/b&gt;&lt;br&gt;predicted protein&lt;br&gt;Location: 4680008 - 4681220" points="487,35 492,30 501,30 501,40 492,40 487,35 " style="stroke-width:1; stroke:black; fill:#d81597; " id="dummy-17_q29_0_all" class="clusterblast-orf"  />
<polygon locus_tag="SSMG_04289" description="&lt;b&gt;SSMG_04289&lt;/b&gt;&lt;br&gt;taurine catabolism dioxygenase&lt;br&gt;Location: 4681253 - 4682135" points="501,35 506,30 511,30 511,40 506,40 501,35 " style="stroke-width:1; stroke:black; fill:#97d815; " id="dummy-17_q30_0_all" class="clusterblast-orf"  />
<polygon locus_tag="SSMG_04290" description="&lt;b&gt;SSMG_04290&lt;/b&gt;&lt;br&gt;regulator&lt;br&gt;Location: 4683071 - 4683497" points="522,40 522,40 527,35 522,30 522,30 522,40 " style="stroke-width:1; stroke:black; fill:white; " id="dummy-17_q31_0_all" class="clusterblast-orf"  />
<polygon locus_tag="SSMG_04291" description="&lt;b&gt;SSMG_04291&lt;/b&gt;&lt;br&gt;glucose-6-phosphate dehydrogenase, F420-dependent&lt;br&gt;Location: 4684438 - 4685443" points="537,35 542,30 548,30 548,40 542,40 537,35 " style="stroke-width:1; stroke:black; fill:white; " id="dummy-17_q32_0_all" class="clusterblast-orf"  />
<polygon locus_tag="SSMG_04292" description="&lt;b&gt;SSMG_04292&lt;/b&gt;&lt;br&gt;predicted protein&lt;br&gt;Location: 4685755 - 4686505" points="552,35 557,30 560,30 560,40 557,40 552,35 " style="stroke-width:1; stroke:black; fill:white; " id="dummy-17_q33_0_all" class="clusterblast-orf"  />
<polygon locus_tag="SSMG_04293" description="&lt;b&gt;SSMG_04293&lt;/b&gt;&lt;br&gt;siderophore interacting protein&lt;br&gt;Location: 4687111 - 4687906" points="567,40 571,40 576,35 571,30 567,30 567,40 " style="stroke-width:1; stroke:black; fill:white; " id="dummy-17_q34_0_all" class="clusterblast-orf"  />
<polygon locus_tag="SSMG_04294" description="&lt;b&gt;SSMG_04294&lt;/b&gt;&lt;br&gt;methylated-DNA-protein-cysteine methyltransferase&lt;br&gt;Location: 4687911 - 4688481" points="576,35 581,30 583,30 583,40 581,40 576,35 " style="stroke-width:1; stroke:black; fill:white; " id="dummy-17_q35_0_all" class="clusterblast-orf"  />
<polygon locus_tag="SSMG_04295" description="&lt;b&gt;SSMG_04295&lt;/b&gt;&lt;br&gt;4-carboxy-4-hydroxy-2-oxoadipate aldolase/oxaloacetate decarboxylase&lt;br&gt;Location: 4688461 - 4689097" points="582,40 585,40 590,35 585,30 582,30 582,40 " style="stroke-width:1; stroke:black; fill:white; " id="dummy-17_q36_0_all" class="clusterblast-orf"  />
<polygon locus_tag="SSMG_04296" description="&lt;b&gt;SSMG_04296&lt;/b&gt;&lt;br&gt;predicted protein&lt;br&gt;Location: 4689033 - 4689261" points="589,40 591,35 589,30 589,40 " style="stroke-width:1; stroke:black; fill:white; " id="dummy-17_q37_0_all" class="clusterblast-orf"  />
<polygon locus_tag="SSMG_04297" description="&lt;b&gt;SSMG_04297&lt;/b&gt;&lt;br&gt;predicted protein&lt;br&gt;Location: 4689680 - 4689869" points="596,35 598,30 598,40 596,35 " style="stroke-width:1; stroke:black; fill:white; " id="dummy-17_q38_0_all" class="clusterblast-orf"  />
<polygon locus_tag="SSMG_04298" description="&lt;b&gt;SSMG_04298&lt;/b&gt;&lt;br&gt;predicted protein&lt;br&gt;Location: 4689991 - 4690285" points="600,40 603,35 600,30 600,40 " style="stroke-width:1; stroke:black; fill:white; " id="dummy-17_q39_0_all" class="clusterblast-orf"  />
<polygon locus_tag="SSMG_04299" description="&lt;b&gt;SSMG_04299&lt;/b&gt;&lt;br&gt;proline iminopeptidase&lt;br&gt;Location: 4690952 - 4692182" points="610,40 619,40 624,35 619,30 610,30 610,40 " style="stroke-width:1; stroke:black; fill:white; " id="dummy-17_q40_0_all" class="clusterblast-orf"  />
<polygon locus_tag="SSMG_04300" description="&lt;b&gt;SSMG_04300&lt;/b&gt;&lt;br&gt;2-hydroxycyclohexanecarboxyl-CoA dehydrogenase&lt;br&gt;Location: 4692227 - 4693079" points="625,35 630,30 634,30 634,40 630,40 625,35 " style="stroke-width:1; stroke:black; fill:white; " id="dummy-17_q41_0_all" class="clusterblast-orf"  />
<polygon locus_tag="SSMG_04301" description="&lt;b&gt;SSMG_04301&lt;/b&gt;&lt;br&gt;predicted protein&lt;br&gt;Location: 4693154 - 4694012" points="635,35 640,30 645,30 645,40 640,40 635,35 " style="stroke-width:1; stroke:black; fill:white; " id="dummy-17_q42_0_all" class="clusterblast-orf"  />
<polygon locus_tag="SSMG_04302" description="&lt;b&gt;SSMG_04302&lt;/b&gt;&lt;br&gt;conserved hypothetical protein&lt;br&gt;Location: 4694070 - 4695588" points="646,35 651,30 663,30 663,40 651,40 646,35 " style="stroke-width:1; stroke:black; fill:white; " id="dummy-17_q43_0_all" class="clusterblast-orf"  />
<polygon locus_tag="SSMG_04303" description="&lt;b&gt;SSMG_04303&lt;/b&gt;&lt;br&gt;conserved hypothetical protein&lt;br&gt;Location: 4695563 - 4696613" points="662,35 667,30 674,30 674,40 667,40 662,35 " style="stroke-width:1; stroke:black; fill:white; " id="dummy-17_q44_0_all" class="clusterblast-orf"  />
</g>
<g label="BGC0001975" description="BGC0001975_c1: atratumycin (5% of genes show similarity), NRP" class="clusterblast-cluster"  >
<text class="clusterblast-acc" y="70" x="5"  >
<a xlink:href="https://mibig.secondarymetabolites.org/go/BGC0001975/1" target="_blank">BGC0001975</a>:                                                                      atratumycin (5% of genes show similarity), NRP</text>
<line x1="10" x2="778.0" y2="85" style="stroke-width:1; stroke:grey; " y1="85"  />
</g>
<g id="a17_000"  >
<polygon locus_tag="QBG38797.1" description="&lt;b&gt;QBG38797.1&lt;/b&gt;&lt;br&gt;ErfK/YbiS/YcfS/YnhG family protein&lt;br&gt;Location: 69292 - 68048" points="0,85 5,80 14,80 14,90 5,90 0,85 " style="stroke-width:1; stroke:black; fill:white; " id="dummy-17_h17_4_0" class="clusterblast-orf"  />
</g>
<g id="a17_001"  >
<polygon locus_tag="QBG38796.1" description="&lt;b&gt;QBG38796.1&lt;/b&gt;&lt;br&gt;hypothetical protein&lt;br&gt;Location: 67795 - 67427" points="16,85 20,80 20,90 16,85 " style="stroke-width:1; stroke:black; fill:white; " id="dummy-17_h17_4_1" class="clusterblast-orf"  />
</g>
<g id="a17_002"  >
<polygon locus_tag="QBG38795.1" description="&lt;b&gt;QBG38795.1&lt;/b&gt;&lt;br&gt;hypothetical protein&lt;br&gt;Location: 67273 - 66986" points="22,90 25,85 22,80 22,90 " style="stroke-width:1; stroke:black; fill:white; " id="dummy-17_h17_4_2" class="clusterblast-orf"  />
</g>
<g id="a17_003"  >
<polygon locus_tag="QBG38794.1" description="&lt;b&gt;QBG38794.1&lt;/b&gt;&lt;br&gt;Atr32&lt;br&gt;Location: 66755 - 66372" points="28,90 32,85 28,80 28,90 " style="stroke-width:1; stroke:black; fill:white; " id="dummy-17_h17_4_3" class="clusterblast-orf"  />
</g>
<g id="a17_004"  >
<polygon locus_tag="QBG38793.1" description="&lt;b&gt;QBG38793.1&lt;/b&gt;&lt;br&gt;Atr32&lt;br&gt;Location: 66474 - 64471" points="31,85 36,80 54,80 54,90 36,90 31,85 " style="stroke-width:1; stroke:black; fill:white; " id="dummy-17_h17_4_4" class="clusterblast-orf"  />
</g>
<g id="a17_005"  >
<polygon locus_tag="QBG38792.1" description="&lt;b&gt;QBG38792.1&lt;/b&gt;&lt;br&gt;Atr31&lt;br&gt;Location: 64312 - 63287" points="56,85 61,80 67,80 67,90 61,90 56,85 " style="stroke-width:1; stroke:black; fill:white; " id="dummy-17_h17_4_5" class="clusterblast-orf"  />
</g>
<g id="a17_006"  >
<polygon locus_tag="QBG38791.1" description="&lt;b&gt;QBG38791.1&lt;/b&gt;&lt;br&gt;Atr30&lt;br&gt;Location: 62992 - 62204" points="70,85 75,80 79,80 79,90 75,90 70,85 " style="stroke-width:1; stroke:black; fill:white; " id="dummy-17_h17_4_6" class="clusterblast-orf"  />
</g>
<g id="a17_007"  >
<polygon locus_tag="QBG38790.1" description="&lt;b&gt;QBG38790.1&lt;/b&gt;&lt;br&gt;Atr29&lt;br&gt;Location: 62207 - 61251" points="79,85 84,80 90,80 90,90 84,90 79,85 " style="stroke-width:1; stroke:black; fill:white; " id="dummy-17_h17_4_7" class="clusterblast-orf"  />
</g>
<g id="a17_008"  >
<polygon locus_tag="QBG38789.1" description="&lt;b&gt;QBG38789.1&lt;/b&gt;&lt;br&gt;Atr28&lt;br&gt;Location: 61254 - 60790" points="90,85 95,80 95,80 95,90 95,90 90,85 " style="stroke-width:1; stroke:black; fill:white; " id="dummy-17_h17_4_8" class="clusterblast-orf"  />
</g>
<g id="a17_009"  >
<polygon locus_tag="QBG38788.1" description="&lt;b&gt;QBG38788.1&lt;/b&gt;&lt;br&gt;Atr27&lt;br&gt;Location: 60761 - 59490" points="96,85 101,80 110,80 110,90 101,90 96,85 " style="stroke-width:1; stroke:black; fill:white; " id="dummy-17_h17_4_9" class="clusterblast-orf"  />
</g>
<g id="a17_0010"  >
<polygon locus_tag="QBG38787.1" description="&lt;b&gt;QBG38787.1&lt;/b&gt;&lt;br&gt;Atr26&lt;br&gt;Location: 59432 - 59106" points="110,85 114,80 114,90 110,85 " style="stroke-width:1; stroke:black; fill:white; " id="dummy-17_h17_4_10" class="clusterblast-orf"  />
</g>
<g id="a17_0011"  >
<polygon locus_tag="QBG38786.1" description="&lt;b&gt;QBG38786.1&lt;/b&gt;&lt;br&gt;Atr25&lt;br&gt;Location: 59106 - 58135" points="114,85 119,80 125,80 125,90 119,90 114,85 " style="stroke-width:1; stroke:black; fill:white; " id="dummy-17_h17_4_11" class="clusterblast-orf"  />
</g>
<g id="a17_0012"  >
<polygon locus_tag="QBG38785.1" description="&lt;b&gt;QBG38785.1&lt;/b&gt;&lt;br&gt;Atr24&lt;br&gt;Location: 58138 - 57899" points="125,85 128,80 128,90 125,85 " style="stroke-width:1; stroke:black; fill:white; " id="dummy-17_h17_4_12" class="clusterblast-orf"  />
</g>
<g id="a17_0013"  >
<polygon locus_tag="QBG38784.1" description="&lt;b&gt;QBG38784.1&lt;/b&gt;&lt;br&gt;Atr23&lt;br&gt;Location: 57465 - 42898" points="133,90 292,90 297,85 292,80 133,80 133,90 " style="stroke-width:1; stroke:black; fill:white; " id="dummy-17_h17_4_13" class="clusterblast-orf"  />
</g>
<g id="a17_0014"  >
<polygon locus_tag="QBG38783.1" description="&lt;b&gt;QBG38783.1&lt;/b&gt;&lt;br&gt;Atr22&lt;br&gt;Location: 42898 - 31820" points="297,90 416,90 421,85 416,80 297,80 297,90 " style="stroke-width:1; stroke:black; fill:white; " id="dummy-17_h17_4_14" class="clusterblast-orf"  />
</g>
<g id="a17_0015"  >
<polygon locus_tag="QBG38782.1" description="&lt;b&gt;QBG38782.1&lt;/b&gt;&lt;br&gt;Atr21&lt;br&gt;Location: 31823 - 20025" points="421,90 549,90 554,85 549,80 421,80 421,90 " style="stroke-width:1; stroke:black; fill:white; " id="dummy-17_h17_4_15" class="clusterblast-orf"  />
</g>
<g id="a17_0016"  >
<polygon locus_tag="QBG38781.1" description="&lt;b&gt;QBG38781.1&lt;/b&gt;&lt;br&gt;Atr20&lt;br&gt;Location: 20028 - 19837" points="554,90 556,85 554,80 554,90 " style="stroke-width:1; stroke:black; fill:white; " id="dummy-17_h17_4_16" class="clusterblast-orf"  />
</g>
<g id="a17_0017"  >
<polygon locus_tag="QBG38780.1" description="&lt;b&gt;QBG38780.1&lt;/b&gt;&lt;br&gt;Atr19&lt;br&gt;Location: 19663 - 19100" points="558,90 560,90 565,85 560,80 558,80 558,90 " style="stroke-width:1; stroke:black; fill:white; " id="dummy-17_h17_4_17" class="clusterblast-orf"  />
</g>
<g id="a17_0018"  >
<polygon locus_tag="QBG38779.1" description="&lt;b&gt;QBG38779.1&lt;/b&gt;&lt;br&gt;Atr18&lt;br&gt;Location: 18776 - 18288" points="568,85 573,80 574,80 574,90 573,90 568,85 " style="stroke-width:1; stroke:black; fill:white; " id="dummy-17_h17_4_18" class="clusterblast-orf"  />
</g>
<g id="a17_0019"  >
<polygon locus_tag="QBG38778.1" description="&lt;b&gt;QBG38778.1&lt;/b&gt;&lt;br&gt;Atr17&lt;br&gt;Location: 18023 - 17811" points="577,85 579,80 579,90 577,85 " style="stroke-width:1; stroke:black; fill:white; " id="dummy-17_h17_4_19" class="clusterblast-orf"  />
</g>
<g id="a17_0020"  >
<polygon locus_tag="QBG38777.1" description="&lt;b&gt;QBG38777.1&lt;/b&gt;&lt;br&gt;Atr16&lt;br&gt;Location: 17760 - 17140" points="580,85 585,80 587,80 587,90 585,90 580,85 " style="stroke-width:1; stroke:black; fill:white; " id="dummy-17_h17_4_20" class="clusterblast-orf"  />
</g>
<g id="a17_0021"  >
<polygon locus_tag="QBG38776.1" description="&lt;b&gt;QBG38776.1&lt;/b&gt;&lt;br&gt;Atr15&lt;br&gt;Location: 17054 - 16308&lt;br&gt;&lt;br&gt;&lt;b&gt;BlastP hit with SSMG_04275&lt;/b&gt;&lt;br&gt;Percentage identity: 57&lt;br&gt;Percentage coverage: 98&lt;br&gt;BLAST bit score: 265&lt;br&gt;E-value: 6.4e-71" points="588,85 593,80 596,80 596,90 593,90 588,85 " style="stroke-width:1; stroke:black; fill:#d81515; " id="dummy-17_h17_4_21" class="clusterblast-orf"  />
</g>
<g id="a17_0022"  >
<polygon locus_tag="QBG38775.1" description="&lt;b&gt;QBG38775.1&lt;/b&gt;&lt;br&gt;Atr14&lt;br&gt;Location: 16298 - 15819" points="596,85 601,80 601,80 601,90 601,90 596,85 " style="stroke-width:1; stroke:black; fill:white; " id="dummy-17_h17_4_22" class="clusterblast-orf"  />
</g>
<g id="a17_0023"  >
<polygon locus_tag="QBG38774.1" description="&lt;b&gt;QBG38774.1&lt;/b&gt;&lt;br&gt;Atr13&lt;br&gt;Location: 15822 - 15364" points="601,85 606,80 607,80 607,90 606,90 601,85 " style="stroke-width:1; stroke:black; fill:white; " id="dummy-17_h17_4_23" class="clusterblast-orf"  />
</g>
<g id="a17_0024"  >
<polygon locus_tag="QBG38773.1" description="&lt;b&gt;QBG38773.1&lt;/b&gt;&lt;br&gt;Atr12&lt;br&gt;Location: 15364 - 15125" points="607,85 609,80 609,90 607,85 " style="stroke-width:1; stroke:black; fill:white; " id="dummy-17_h17_4_24" class="clusterblast-orf"  />
</g>
<g id="a17_0025"  >
<polygon locus_tag="QBG38772.1" description="&lt;b&gt;QBG38772.1&lt;/b&gt;&lt;br&gt;Atr11&lt;br&gt;Location: 15062 - 13962" points="610,85 615,80 622,80 622,90 615,90 610,85 " style="stroke-width:1; stroke:black; fill:white; " id="dummy-17_h17_4_25" class="clusterblast-orf"  />
</g>
<g id="a17_0026"  >
<polygon locus_tag="QBG38771.1" description="&lt;b&gt;QBG38771.1&lt;/b&gt;&lt;br&gt;Atr10&lt;br&gt;Location: 13717 - 12746" points="625,85 630,80 636,80 636,90 630,90 625,85 " style="stroke-width:1; stroke:black; fill:white; " id="dummy-17_h17_4_26" class="clusterblast-orf"  />
</g>
<g id="a17_0027"  >
<polygon locus_tag="QBG38770.1" description="&lt;b&gt;QBG38770.1&lt;/b&gt;&lt;br&gt;Atr9&lt;br&gt;Location: 12749 - 11898" points="636,85 641,80 646,80 646,90 641,90 636,85 " style="stroke-width:1; stroke:black; fill:white; " id="dummy-17_h17_4_27" class="clusterblast-orf"  />
</g>
<g id="a17_0028"  >
<polygon locus_tag="QBG38769.1" description="&lt;b&gt;QBG38769.1&lt;/b&gt;&lt;br&gt;Atr8&lt;br&gt;Location: 11898 - 10945" points="646,85 651,80 656,80 656,90 651,90 646,85 " style="stroke-width:1; stroke:black; fill:white; " id="dummy-17_h17_4_28" class="clusterblast-orf"  />
</g>
<g id="a17_0029"  >
<polygon locus_tag="QBG38768.1" description="&lt;b&gt;QBG38768.1&lt;/b&gt;&lt;br&gt;Atr7&lt;br&gt;Location: 10948 - 9803" points="656,85 661,80 669,80 669,90 661,90 656,85 " style="stroke-width:1; stroke:black; fill:white; " id="dummy-17_h17_4_29" class="clusterblast-orf"  />
</g>
<g id="a17_0030"  >
<polygon locus_tag="QBG38767.1" description="&lt;b&gt;QBG38767.1&lt;/b&gt;&lt;br&gt;Atr6&lt;br&gt;Location: 9809 - 8547&lt;br&gt;&lt;br&gt;&lt;b&gt;BlastP hit with SSMG_04279&lt;/b&gt;&lt;br&gt;Percentage identity: 65&lt;br&gt;Percentage coverage: 98&lt;br&gt;BLAST bit score: 514&lt;br&gt;E-value: 2.3e-145" points="669,85 674,80 683,80 683,90 674,90 669,85 " style="stroke-width:1; stroke:black; fill:#15d815; " id="dummy-17_h17_4_30" class="clusterblast-orf"  />
</g>
<g id="a17_0031"  >
<polygon locus_tag="QBG38766.1" description="&lt;b&gt;QBG38766.1&lt;/b&gt;&lt;br&gt;Atr5&lt;br&gt;Location: 8486 - 8232" points="684,85 687,80 687,90 684,85 " style="stroke-width:1; stroke:black; fill:white; " id="dummy-17_h17_4_31" class="clusterblast-orf"  />
</g>
<g id="a17_0032"  >
<polygon locus_tag="QBG38765.1" description="&lt;b&gt;QBG38765.1&lt;/b&gt;&lt;br&gt;Atr4&lt;br&gt;Location: 7934 - 7167" points="690,85 695,80 699,80 699,90 695,90 690,85 " style="stroke-width:1; stroke:black; fill:white; " id="dummy-17_h17_4_32" class="clusterblast-orf"  />
</g>
<g id="a17_0033"  >
<polygon locus_tag="QBG38764.1" description="&lt;b&gt;QBG38764.1&lt;/b&gt;&lt;br&gt;Atr3&lt;br&gt;Location: 7164 - 6274" points="699,85 704,80 709,80 709,90 704,90 699,85 " style="stroke-width:1; stroke:black; fill:white; " id="dummy-17_h17_4_33" class="clusterblast-orf"  />
</g>
<g id="a17_0034"  >
<polygon locus_tag="QBG38763.1" description="&lt;b&gt;QBG38763.1&lt;/b&gt;&lt;br&gt;Atr2&lt;br&gt;Location: 5946 - 4969" points="713,85 718,80 724,80 724,90 718,90 713,85 " style="stroke-width:1; stroke:black; fill:white; " id="dummy-17_h17_4_34" class="clusterblast-orf"  />
</g>
<g id="a17_0035"  >
<polygon locus_tag="QBG38762.1" description="&lt;b&gt;QBG38762.1&lt;/b&gt;&lt;br&gt;Atr1&lt;br&gt;Location: 4972 - 4058" points="724,85 729,80 734,80 734,90 729,90 724,85 " style="stroke-width:1; stroke:black; fill:white; " id="dummy-17_h17_4_35" class="clusterblast-orf"  />
</g>
<g id="a17_0036"  >
<polygon locus_tag="QBG38761.1" description="&lt;b&gt;QBG38761.1&lt;/b&gt;&lt;br&gt;IS481 family transposase&lt;br&gt;Location: 2377 - 1973" points="753,85 757,80 757,90 753,85 " style="stroke-width:1; stroke:black; fill:white; " id="dummy-17_h17_4_36" class="clusterblast-orf"  />
</g>
<g id="a17_0037"  >
<polygon locus_tag="QBG38760.1" description="&lt;b&gt;QBG38760.1&lt;/b&gt;&lt;br&gt;histidine ammonia-lyase&lt;br&gt;Location: 1551 - 1" points="762,85 767,80 780,80 780,90 767,90 762,85 " style="stroke-width:1; stroke:black; fill:white; " id="dummy-17_h17_4_37" class="clusterblast-orf"  />
</g>
</svg>
