<svg version="1.1" xmlns="http://www.w3.org/2000/svg" height="230" width="800" xmlns:xlink="http://www.w3.org/1999/xlink" preserveAspectRatio="none" x="0" y="0" viewBox="0 0 800 230"  >
<g label="Query sequence" class="clusterblast-cluster"  >
<text class="clusterblast-acc" y="20" x="5"  >
Query sequence</text>
<line x1="10" x2="778.0" y2="35" style="stroke-width:1; stroke:grey; " y1="35"  />
<polygon locus_tag="SSMG_00940" description="&lt;b&gt;SSMG_00940&lt;/b&gt;&lt;br&gt;cell division ATP-binding protein FtsE&lt;br&gt;Location: 992900 - 993590" points="167,40 177,40 182,35 177,30 167,30 167,40 " style="stroke-width:1; stroke:black; fill:white; " id="dummy-2_q0_0_all" class="clusterblast-orf"  />
<polygon locus_tag="SSMG_00941" description="&lt;b&gt;SSMG_00941&lt;/b&gt;&lt;br&gt;conserved hypothetical protein&lt;br&gt;Location: 993641 - 994535" points="183,40 198,40 203,35 198,30 183,30 183,40 " style="stroke-width:1; stroke:black; fill:white; " id="dummy-2_q1_0_all" class="clusterblast-orf"  />
<polygon locus_tag="SSMG_00942" description="&lt;b&gt;SSMG_00942&lt;/b&gt;&lt;br&gt;SsrA-binding protein&lt;br&gt;Location: 994586 - 995069" points="204,40 210,40 215,35 210,30 204,30 204,40 " style="stroke-width:1; stroke:black; fill:white; " id="dummy-2_q2_0_all" class="clusterblast-orf"  />
<polygon locus_tag="SSMG_00943" description="&lt;b&gt;SSMG_00943&lt;/b&gt;&lt;br&gt;amidohydrolase 2&lt;br&gt;Location: 995065 - 995962" points="214,40 229,40 234,35 229,30 214,30 214,40 " style="stroke-width:1; stroke:black; fill:white; " id="dummy-2_q3_0_all" class="clusterblast-orf"  />
<polygon locus_tag="SSMG_00944" description="&lt;b&gt;SSMG_00944&lt;/b&gt;&lt;br&gt;predicted protein&lt;br&gt;Location: 995951 - 997283" points="234,35 239,30 264,30 264,40 239,40 234,35 " style="stroke-width:1; stroke:black; fill:white; " id="dummy-2_q4_0_all" class="clusterblast-orf"  />
<polygon locus_tag="SSMG_00945" description="&lt;b&gt;SSMG_00945&lt;/b&gt;&lt;br&gt;conserved hypothetical protein&lt;br&gt;Location: 997392 - 997611" points="266,35 271,30 271,30 271,40 271,40 266,35 " style="stroke-width:1; stroke:black; fill:white; " id="dummy-2_q5_0_all" class="clusterblast-orf"  />
<polygon locus_tag="SSMG_00946" description="&lt;b&gt;SSMG_00946&lt;/b&gt;&lt;br&gt;two component transcriptional regulator&lt;br&gt;Location: 997699 - 998341" points="273,35 278,30 287,30 287,40 278,40 273,35 " style="stroke-width:1; stroke:black; fill:#d81515; " id="dummy-2_q6_0_all" class="clusterblast-orf"  />
<polygon locus_tag="SSMG_00947" description="&lt;b&gt;SSMG_00947&lt;/b&gt;&lt;br&gt;predicted protein&lt;br&gt;Location: 998398 - 999532" points="288,35 293,30 313,30 313,40 293,40 288,35 " style="stroke-width:1; stroke:black; fill:#15d863; " id="dummy-2_q7_0_all" class="clusterblast-orf"  />
<polygon locus_tag="SSMG_00948" description="&lt;b&gt;SSMG_00948&lt;/b&gt;&lt;br&gt;predicted protein&lt;br&gt;Location: 999528 - 1000221" points="313,35 318,30 329,30 329,40 318,40 313,35 " style="stroke-width:1; stroke:black; fill:white; " id="dummy-2_q8_0_all" class="clusterblast-orf"  />
<polygon locus_tag="SSMG_00949" description="&lt;b&gt;SSMG_00949&lt;/b&gt;&lt;br&gt;predicted protein&lt;br&gt;Location: 1001154 - 1001457" points="349,35 354,30 356,30 356,40 354,40 349,35 " style="stroke-width:1; stroke:black; fill:white; " id="dummy-2_q9_0_all" class="clusterblast-orf"  />
<polygon locus_tag="SSMG_00950" description="&lt;b&gt;SSMG_00950&lt;/b&gt;&lt;br&gt;predicted protein&lt;br&gt;Location: 1001760 - 1002501" points="363,35 368,30 379,30 379,40 368,40 363,35 " style="stroke-width:1; stroke:black; fill:white; " id="dummy-2_q10_0_all" class="clusterblast-orf"  />
<polygon locus_tag="SSMG_00951" description="&lt;b&gt;SSMG_00951&lt;/b&gt;&lt;br&gt;predicted protein&lt;br&gt;Location: 1002516 - 1003194" points="379,35 384,30 394,30 394,40 384,40 379,35 " style="stroke-width:1; stroke:black; fill:white; " id="dummy-2_q11_0_all" class="clusterblast-orf"  />
<polygon locus_tag="SSMG_00952" description="&lt;b&gt;SSMG_00952&lt;/b&gt;&lt;br&gt;predicted protein&lt;br&gt;Location: 1003190 - 1004774" points="394,35 399,30 429,30 429,40 399,40 394,35 " style="stroke-width:1; stroke:black; fill:white; " id="dummy-2_q12_0_all" class="clusterblast-orf"  />
<polygon locus_tag="SSMG_00953" description="&lt;b&gt;SSMG_00953&lt;/b&gt;&lt;br&gt;IclR-type transcriptional regulator&lt;br&gt;Location: 1005293 - 1006079" points="441,35 446,30 458,30 458,40 446,40 441,35 " style="stroke-width:1; stroke:black; fill:#1563d8; " id="dummy-2_q13_0_all" class="clusterblast-orf"  />
<polygon locus_tag="SSMG_00954" description="&lt;b&gt;SSMG_00954&lt;/b&gt;&lt;br&gt;histidine ammonia-lyase&lt;br&gt;Location: 1006259 - 1007786" points="462,40 491,40 496,35 491,30 462,30 462,40 " style="stroke-width:1; stroke:black; fill:#b115d8; " id="dummy-2_q14_0_all" class="clusterblast-orf"  />
<polygon locus_tag="SSMG_00955" description="&lt;b&gt;SSMG_00955&lt;/b&gt;&lt;br&gt;urocanate hydratase&lt;br&gt;Location: 1007789 - 1009451" points="496,40 528,40 533,35 528,30 496,30 496,40 " style="stroke-width:1; stroke:black; fill:#b1d815; " id="dummy-2_q15_0_all" class="clusterblast-orf"  />
<polygon locus_tag="SSMG_00956" description="&lt;b&gt;SSMG_00956&lt;/b&gt;&lt;br&gt;allantoate amidohydrolase&lt;br&gt;Location: 1009447 - 1010644" points="533,40 554,40 559,35 554,30 533,30 533,40 " style="stroke-width:1; stroke:black; fill:white; " id="dummy-2_q16_0_all" class="clusterblast-orf"  />
<polygon locus_tag="SSMG_00957" description="&lt;b&gt;SSMG_00957&lt;/b&gt;&lt;br&gt;formiminoglutamate deiminase&lt;br&gt;Location: 1010640 - 1011945" points="559,40 583,40 588,35 583,30 559,30 559,40 " style="stroke-width:1; stroke:black; fill:white; " id="dummy-2_q17_0_all" class="clusterblast-orf"  />
<polygon locus_tag="SSMG_00958" description="&lt;b&gt;SSMG_00958&lt;/b&gt;&lt;br&gt;imidazolonepropionase&lt;br&gt;Location: 1011932 - 1013078" points="588,40 608,40 613,35 608,30 588,30 588,40 " style="stroke-width:1; stroke:black; fill:white; " id="dummy-2_q18_0_all" class="clusterblast-orf"  />
</g>
<g label="BGC0000997" description="BGC0000997_c1: glidobactin (10% of genes show similarity), NRP + Polyketide" class="clusterblast-cluster"  >
<text class="clusterblast-acc" y="70" x="5"  >
<a xlink:href="https://mibig.secondarymetabolites.org/go/BGC0000997/1" target="_blank">BGC0000997</a>:                                                                      glidobactin (10% of genes show similarity), NRP + Polyketide</text>
<line x1="10" x2="778.0" y2="85" style="stroke-width:1; stroke:grey; " y1="85"  />
</g>
<g id="a2_000"  >
<polygon locus_tag="CAL80814.1" description="&lt;b&gt;CAL80814.1&lt;/b&gt;&lt;br&gt;urocanase&lt;br&gt;Location: 237 - 1925&lt;br&gt;&lt;br&gt;&lt;b&gt;BlastP hit with SSMG_00955&lt;/b&gt;&lt;br&gt;Percentage identity: 60&lt;br&gt;Percentage coverage: 101&lt;br&gt;BLAST bit score: 648&lt;br&gt;E-value: 7.8e-186" points="0,90 32,90 37,85 32,80 0,80 0,90 " style="stroke-width:1; stroke:black; fill:#b1d815; " id="dummy-2_h2_1_0" class="clusterblast-orf"  />
</g>
<g id="a2_001"  >
<polygon locus_tag="CAL80815.1" description="&lt;b&gt;CAL80815.1&lt;/b&gt;&lt;br&gt;histidine ammonia-lyase&lt;br&gt;Location: 1922 - 3469&lt;br&gt;&lt;br&gt;&lt;b&gt;BlastP hit with SSMG_00954&lt;/b&gt;&lt;br&gt;Percentage identity: 46&lt;br&gt;Percentage coverage: 91&lt;br&gt;BLAST bit score: 364&lt;br&gt;E-value: 3.5e-100" points="37,90 66,90 71,85 66,80 37,80 37,90 " style="stroke-width:1; stroke:black; fill:#b115d8; " id="dummy-2_h2_1_1" class="clusterblast-orf"  />
</g>
<g id="a2_002"  >
<polygon locus_tag="CAL80816.1" description="&lt;b&gt;CAL80816.1&lt;/b&gt;&lt;br&gt;formiminoglutamase&lt;br&gt;Location: 3466 - 4422" points="71,90 87,90 92,85 87,80 71,80 71,90 " style="stroke-width:1; stroke:black; fill:white; " id="dummy-2_h2_1_2" class="clusterblast-orf"  />
</g>
<g id="a2_003"  >
<polygon locus_tag="CAL80817.1" description="&lt;b&gt;CAL80817.1&lt;/b&gt;&lt;br&gt;imidazolonepropionase&lt;br&gt;Location: 4419 - 5645" points="92,90 114,90 119,85 114,80 92,80 92,90 " style="stroke-width:1; stroke:black; fill:white; " id="dummy-2_h2_1_3" class="clusterblast-orf"  />
</g>
<g id="a2_004"  >
<polygon locus_tag="CAL80818.1" description="&lt;b&gt;CAL80818.1&lt;/b&gt;&lt;br&gt;two-component hybrid sensor/regulator&lt;br&gt;Location: 5753 - 7873" points="121,90 163,90 168,85 163,80 121,80 121,90 " style="stroke-width:1; stroke:black; fill:white; " id="dummy-2_h2_1_4" class="clusterblast-orf"  />
</g>
<g id="a2_005"  >
<polygon locus_tag="CAL80819.1" description="&lt;b&gt;CAL80819.1&lt;/b&gt;&lt;br&gt;LysR-type regulator&lt;br&gt;Location: 8226 - 9239" points="176,90 194,90 199,85 194,80 176,80 176,90 " style="stroke-width:1; stroke:black; fill:white; " id="dummy-2_h2_1_5" class="clusterblast-orf"  />
</g>
<g id="a2_006"  >
<polygon locus_tag="CAL80820.1" description="&lt;b&gt;CAL80820.1&lt;/b&gt;&lt;br&gt;conserved protein&lt;br&gt;Location: 9628 - 10488" points="207,90 221,90 226,85 221,80 207,80 207,90 " style="stroke-width:1; stroke:black; fill:white; " id="dummy-2_h2_1_6" class="clusterblast-orf"  />
</g>
<g id="a2_007"  >
<polygon locus_tag="CAL80821.1" description="&lt;b&gt;CAL80821.1&lt;/b&gt;&lt;br&gt;sylD-like NRPS/PKS&lt;br&gt;Location: 10523 - 23068" points="227,90 499,90 504,85 499,80 227,80 227,90 " style="stroke-width:1; stroke:black; fill:white; " id="dummy-2_h2_1_7" class="clusterblast-orf"  />
</g>
<g id="a2_008"  >
<polygon locus_tag="CAL80822.1" description="&lt;b&gt;CAL80822.1&lt;/b&gt;&lt;br&gt;major facilitator superfamily transporter&lt;br&gt;Location: 23065 - 24375" points="504,90 528,90 533,85 528,80 504,80 504,90 " style="stroke-width:1; stroke:black; fill:white; " id="dummy-2_h2_1_8" class="clusterblast-orf"  />
</g>
<g id="a2_009"  >
<polygon locus_tag="CAL80823.1" description="&lt;b&gt;CAL80823.1&lt;/b&gt;&lt;br&gt;MbtH-like protein&lt;br&gt;Location: 24359 - 24580" points="533,90 533,90 538,85 533,80 533,80 533,90 " style="stroke-width:1; stroke:black; fill:white; " id="dummy-2_h2_1_9" class="clusterblast-orf"  />
</g>
<g id="a2_0010"  >
<polygon locus_tag="CAL80824.1" description="&lt;b&gt;CAL80824.1&lt;/b&gt;&lt;br&gt;NRPS module protein&lt;br&gt;Location: 24585 - 27836" points="538,90 605,90 610,85 605,80 538,80 538,90 " style="stroke-width:1; stroke:black; fill:white; " id="dummy-2_h2_1_10" class="clusterblast-orf"  />
</g>
<g id="a2_0011"  >
<polygon locus_tag="CAL80825.1" description="&lt;b&gt;CAL80825.1&lt;/b&gt;&lt;br&gt;ketosteroid isomerase-related protein&lt;br&gt;Location: 27874 - 28239" points="611,90 614,90 619,85 614,80 611,80 611,90 " style="stroke-width:1; stroke:black; fill:white; " id="dummy-2_h2_1_11" class="clusterblast-orf"  />
</g>
<g id="a2_0012"  >
<polygon locus_tag="CAL80826.1" description="&lt;b&gt;CAL80826.1&lt;/b&gt;&lt;br&gt;2-nitrodioxygenase-like&lt;br&gt;Location: 28303 - 29721" points="620,90 647,90 652,85 647,80 620,80 620,90 " style="stroke-width:1; stroke:black; fill:white; " id="dummy-2_h2_1_12" class="clusterblast-orf"  />
</g>
<g id="a2_0013"  >
<polygon locus_tag="CAL80827.1" description="&lt;b&gt;CAL80827.1&lt;/b&gt;&lt;br&gt;LysR:LysR substrate binding domain&lt;br&gt;Location: 29822 - 30856" points="654,90 672,90 677,85 672,80 654,80 654,90 " style="stroke-width:1; stroke:black; fill:white; " id="dummy-2_h2_1_13" class="clusterblast-orf"  />
</g>
<g id="a2_0014"  >
<polygon locus_tag="CAL80828.1" description="&lt;b&gt;CAL80828.1&lt;/b&gt;&lt;br&gt;conserved hypothetical protein&lt;br&gt;Location: 31719 - 32009" points="696,90 697,90 702,85 697,80 696,80 696,90 " style="stroke-width:1; stroke:black; fill:white; " id="dummy-2_h2_1_14" class="clusterblast-orf"  />
</g>
<g id="a2_0015"  >
<polygon locus_tag="CAL80829.1" description="&lt;b&gt;CAL80829.1&lt;/b&gt;&lt;br&gt;hypothetical protein&lt;br&gt;Location: 32040 - 32759" points="703,85 708,80 719,80 719,90 708,90 703,85 " style="stroke-width:1; stroke:black; fill:white; " id="dummy-2_h2_1_15" class="clusterblast-orf"  />
</g>
<g id="a2_0016"  >
<polygon locus_tag="CAL80830.1" description="&lt;b&gt;CAL80830.1&lt;/b&gt;&lt;br&gt;dehydrogenase-related protein&lt;br&gt;Location: 32975 - 33811" points="724,90 737,90 742,85 737,80 724,80 724,90 " style="stroke-width:1; stroke:black; fill:white; " id="dummy-2_h2_1_16" class="clusterblast-orf"  />
</g>
<g id="a2_0017"  >
<polygon locus_tag="CAL80831.1" description="&lt;b&gt;CAL80831.1&lt;/b&gt;&lt;br&gt;carboxymuconolactone decarboxylase&lt;br&gt;Location: 34037 - 34549" points="747,90 753,90 758,85 753,80 747,80 747,90 " style="stroke-width:1; stroke:black; fill:white; " id="dummy-2_h2_1_17" class="clusterblast-orf"  />
</g>
<g id="a2_0018"  >
<polygon locus_tag="CAL80832.1" description="&lt;b&gt;CAL80832.1&lt;/b&gt;&lt;br&gt;HTH AraC-type regulator&lt;br&gt;Location: 34537 - 35505" points="758,85 763,80 780,80 780,90 763,90 758,85 " style="stroke-width:1; stroke:black; fill:white; " id="dummy-2_h2_1_18" class="clusterblast-orf"  />
</g>
</svg>
