<svg version="1.1" xmlns="http://www.w3.org/2000/svg" height="230" width="800" xmlns:xlink="http://www.w3.org/1999/xlink" preserveAspectRatio="none" x="0" y="0" viewBox="0 0 800 230"  >
<g label="Query sequence" class="clusterblast-cluster"  >
<text class="clusterblast-acc" y="20" x="5"  >
Query sequence</text>
<line x1="10" x2="778.0" y2="35" style="stroke-width:1; stroke:grey; " y1="35"  />
<polygon locus_tag="SSMG_00995" description="&lt;b&gt;SSMG_00995&lt;/b&gt;&lt;br&gt;predicted protein&lt;br&gt;Location: 1052056 - 1052755" points="190,40 198,40 203,35 198,30 190,30 190,40 " style="stroke-width:1; stroke:black; fill:white; " id="dummy-3_q0_0_all" class="clusterblast-orf"  />
<polygon locus_tag="SSMG_00996" description="&lt;b&gt;SSMG_00996&lt;/b&gt;&lt;br&gt;cytochrome P450 hydroxylase&lt;br&gt;Location: 1052894 - 1054115" points="206,40 225,40 230,35 225,30 206,30 206,40 " style="stroke-width:1; stroke:black; fill:#d81515; " id="dummy-3_q1_0_all" class="clusterblast-orf"  />
<polygon locus_tag="SSMG_00997" description="&lt;b&gt;SSMG_00997&lt;/b&gt;&lt;br&gt;transposase IS116/IS110/IS902 family protein&lt;br&gt;Location: 1054138 - 1055371" points="230,35 235,30 254,30 254,40 235,40 230,35 " style="stroke-width:1; stroke:black; fill:white; " id="dummy-3_q2_0_all" class="clusterblast-orf"  />
<polygon locus_tag="SSMG_00998" description="&lt;b&gt;SSMG_00998&lt;/b&gt;&lt;br&gt;predicted protein&lt;br&gt;Location: 1055392 - 1055722" points="254,40 256,40 261,35 256,30 254,30 254,40 " style="stroke-width:1; stroke:black; fill:white; " id="dummy-3_q3_0_all" class="clusterblast-orf"  />
<polygon locus_tag="SSMG_00999" description="&lt;b&gt;SSMG_00999&lt;/b&gt;&lt;br&gt;predicted protein&lt;br&gt;Location: 1055732 - 1055927" points="261,40 265,35 261,30 261,40 " style="stroke-width:1; stroke:black; fill:#15d863; " id="dummy-3_q4_0_all" class="clusterblast-orf"  />
<polygon locus_tag="SSMG_01000" description="&lt;b&gt;SSMG_01000&lt;/b&gt;&lt;br&gt;transcriptional regulator&lt;br&gt;Location: 1055976 - 1056777" points="265,40 276,40 281,35 276,30 265,30 265,40 " style="stroke-width:1; stroke:black; fill:white; " id="dummy-3_q5_0_all" class="clusterblast-orf"  />
<polygon locus_tag="SSMG_01001" description="&lt;b&gt;SSMG_01001&lt;/b&gt;&lt;br&gt;methyltransferase type 11&lt;br&gt;Location: 1056742 - 1057531" points="280,35 285,30 295,30 295,40 285,40 280,35 " style="stroke-width:1; stroke:black; fill:white; " id="dummy-3_q6_0_all" class="clusterblast-orf"  />
<polygon locus_tag="SSMG_01002" description="&lt;b&gt;SSMG_01002&lt;/b&gt;&lt;br&gt;predicted protein&lt;br&gt;Location: 1057505 - 1057736" points="295,35 299,30 299,40 295,35 " style="stroke-width:1; stroke:black; fill:white; " id="dummy-3_q7_0_all" class="clusterblast-orf"  />
<polygon locus_tag="SSMG_01003" description="&lt;b&gt;SSMG_01003&lt;/b&gt;&lt;br&gt;glutaredoxin&lt;br&gt;Location: 1057732 - 1057972" points="299,35 304,30 304,30 304,40 304,40 299,35 " style="stroke-width:1; stroke:black; fill:white; " id="dummy-3_q8_0_all" class="clusterblast-orf"  />
<polygon locus_tag="SSMG_01004" description="&lt;b&gt;SSMG_01004&lt;/b&gt;&lt;br&gt;predicted protein&lt;br&gt;Location: 1057968 - 1060089" points="304,35 309,30 345,30 345,40 309,40 304,35 " style="stroke-width:1; stroke:black; fill:#1563d8; " id="dummy-3_q9_0_all" class="clusterblast-orf"  />
<polygon locus_tag="SSMG_01005" description="&lt;b&gt;SSMG_01005&lt;/b&gt;&lt;br&gt;predicted protein&lt;br&gt;Location: 1060085 - 1060751" points="345,35 350,30 357,30 357,40 350,40 345,35 " style="stroke-width:1; stroke:black; fill:white; " id="dummy-3_q10_0_all" class="clusterblast-orf"  />
<polygon locus_tag="SSMG_01006" description="&lt;b&gt;SSMG_01006&lt;/b&gt;&lt;br&gt;predicted protein&lt;br&gt;Location: 1060669 - 1061392" points="356,35 361,30 370,30 370,40 361,40 356,35 " style="stroke-width:1; stroke:black; fill:#b115d8; " id="dummy-3_q11_0_all" class="clusterblast-orf"  />
<polygon locus_tag="SSMG_01007" description="&lt;b&gt;SSMG_01007&lt;/b&gt;&lt;br&gt;terpene synthase&lt;br&gt;Location: 1061718 - 1063962" points="376,35 381,30 419,30 419,40 381,40 376,35 " style="stroke-width:1; stroke:black; fill:#b1d815; " id="dummy-3_q12_0_all" class="clusterblast-orf"  />
<polygon locus_tag="SSMG_01008" description="&lt;b&gt;SSMG_01008&lt;/b&gt;&lt;br&gt;conserved hypothetical protein&lt;br&gt;Location: 1064394 - 1065990" points="428,40 453,40 458,35 453,30 428,30 428,40 " style="stroke-width:1; stroke:black; fill:white; " id="dummy-3_q13_0_all" class="clusterblast-orf"  />
<polygon locus_tag="SSMG_01009" description="&lt;b&gt;SSMG_01009&lt;/b&gt;&lt;br&gt;hydrolase&lt;br&gt;Location: 1066040 - 1068095" points="459,35 464,30 499,30 499,40 464,40 459,35 " style="stroke-width:1; stroke:black; fill:white; " id="dummy-3_q14_0_all" class="clusterblast-orf"  />
<polygon locus_tag="SSMG_01010" description="&lt;b&gt;SSMG_01010&lt;/b&gt;&lt;br&gt;sugar transport integral membrane protein&lt;br&gt;Location: 1068101 - 1068971" points="499,35 504,30 516,30 516,40 504,40 499,35 " style="stroke-width:1; stroke:black; fill:white; " id="dummy-3_q15_0_all" class="clusterblast-orf"  />
<polygon locus_tag="SSMG_01011" description="&lt;b&gt;SSMG_01011&lt;/b&gt;&lt;br&gt;sugar transport integral membrane protein&lt;br&gt;Location: 1068972 - 1069923" points="516,35 521,30 534,30 534,40 521,40 516,35 " style="stroke-width:1; stroke:black; fill:white; " id="dummy-3_q16_0_all" class="clusterblast-orf"  />
<polygon locus_tag="SSMG_01012" description="&lt;b&gt;SSMG_01012&lt;/b&gt;&lt;br&gt;sugar transport sugar binding protein&lt;br&gt;Location: 1069919 - 1071305" points="534,35 539,30 561,30 561,40 539,40 534,35 " style="stroke-width:1; stroke:black; fill:white; " id="dummy-3_q17_0_all" class="clusterblast-orf"  />
<polygon locus_tag="SSMG_01013" description="&lt;b&gt;SSMG_01013&lt;/b&gt;&lt;br&gt;catabolite control protein A&lt;br&gt;Location: 1071441 - 1072476" points="563,40 578,40 583,35 578,30 563,30 563,40 " style="stroke-width:1; stroke:black; fill:white; " id="dummy-3_q18_0_all" class="clusterblast-orf"  />
<polygon locus_tag="SSMG_01014" description="&lt;b&gt;SSMG_01014&lt;/b&gt;&lt;br&gt;predicted protein&lt;br&gt;Location: 1072468 - 1072789" points="583,40 584,40 589,35 584,30 583,30 583,40 " style="stroke-width:1; stroke:black; fill:white; " id="dummy-3_q19_0_all" class="clusterblast-orf"  />
</g>
<g label="BGC0001193" description="BGC0001193_c1: thiolutin (8% of genes show similarity), NRP" class="clusterblast-cluster"  >
<text class="clusterblast-acc" y="70" x="5"  >
<a xlink:href="https://mibig.secondarymetabolites.org/go/BGC0001193/1" target="_blank">BGC0001193</a>:                                                                        thiolutin (8% of genes show similarity), NRP</text>
<line x1="10" x2="778.0" y2="85" style="stroke-width:1; stroke:grey; " y1="85"  />
</g>
<g id="a3_000"  >
<polygon locus_tag="AJI44190.1" description="&lt;b&gt;AJI44190.1&lt;/b&gt;&lt;br&gt;hypothetical protein&lt;br&gt;Location: 40556 - 36576" points="0,90 71,90 76,85 71,80 0,80 0,90 " style="stroke-width:1; stroke:black; fill:white; " id="dummy-3_h3_3_0" class="clusterblast-orf"  />
</g>
<g id="a3_001"  >
<polygon locus_tag="AJI44189.1" description="&lt;b&gt;AJI44189.1&lt;/b&gt;&lt;br&gt;hypothetical protein&lt;br&gt;Location: 36606 - 35017" points="76,85 81,80 106,80 106,90 81,90 76,85 " style="stroke-width:1; stroke:black; fill:white; " id="dummy-3_h3_3_1" class="clusterblast-orf"  />
</g>
<g id="a3_002"  >
<polygon locus_tag="AJI44188.1" description="&lt;b&gt;AJI44188.1&lt;/b&gt;&lt;br&gt;hypothetical protein&lt;br&gt;Location: 34984 - 34160" points="107,85 112,80 123,80 123,90 112,90 107,85 " style="stroke-width:1; stroke:black; fill:white; " id="dummy-3_h3_3_2" class="clusterblast-orf"  />
</g>
<g id="a3_003"  >
<polygon locus_tag="AJI44187.1" description="&lt;b&gt;AJI44187.1&lt;/b&gt;&lt;br&gt;hypothetical protein&lt;br&gt;Location: 34125 - 32665" points="123,85 128,80 152,80 152,90 128,90 123,85 " style="stroke-width:1; stroke:black; fill:white; " id="dummy-3_h3_3_3" class="clusterblast-orf"  />
</g>
<g id="a3_004"  >
<polygon locus_tag="AJI44186.1" description="&lt;b&gt;AJI44186.1&lt;/b&gt;&lt;br&gt;hypothetical protein&lt;br&gt;Location: 31991 - 29514" points="165,85 170,80 212,80 212,90 170,90 165,85 " style="stroke-width:1; stroke:black; fill:white; " id="dummy-3_h3_3_4" class="clusterblast-orf"  />
</g>
<g id="a3_005"  >
<polygon locus_tag="AJI44185.1" description="&lt;b&gt;AJI44185.1&lt;/b&gt;&lt;br&gt;hypothetical protein&lt;br&gt;Location: 29517 - 28756" points="212,85 217,80 227,80 227,90 217,90 212,85 " style="stroke-width:1; stroke:black; fill:white; " id="dummy-3_h3_3_5" class="clusterblast-orf"  />
</g>
<g id="a3_006"  >
<polygon locus_tag="AJI44184.1" description="&lt;b&gt;AJI44184.1&lt;/b&gt;&lt;br&gt;drug resistance transporter EmrB/QacA&lt;br&gt;Location: 28592 - 26997" points="230,90 256,90 261,85 256,80 230,80 230,90 " style="stroke-width:1; stroke:black; fill:white; " id="dummy-3_h3_3_6" class="clusterblast-orf"  />
</g>
<g id="a3_007"  >
<polygon locus_tag="AJI44183.1" description="&lt;b&gt;AJI44183.1&lt;/b&gt;&lt;br&gt;thioredoxin reductase&lt;br&gt;Location: 26871 - 25921" points="263,85 268,80 281,80 281,90 268,90 263,85 " style="stroke-width:1; stroke:black; fill:white; " id="dummy-3_h3_3_7" class="clusterblast-orf"  />
</g>
<g id="a3_008"  >
<polygon locus_tag="AJI44182.1" description="&lt;b&gt;AJI44182.1&lt;/b&gt;&lt;br&gt;putative regulatory protein&lt;br&gt;Location: 25832 - 25245" points="283,90 289,90 294,85 289,80 283,80 283,90 " style="stroke-width:1; stroke:black; fill:white; " id="dummy-3_h3_3_8" class="clusterblast-orf"  />
</g>
<g id="a3_009"  >
<polygon locus_tag="AJI44181.1" description="&lt;b&gt;AJI44181.1&lt;/b&gt;&lt;br&gt;hypothetical protein&lt;br&gt;Location: 25058 - 23643" points="298,90 320,90 325,85 320,80 298,80 298,90 " style="stroke-width:1; stroke:black; fill:white; " id="dummy-3_h3_3_9" class="clusterblast-orf"  />
</g>
<g id="a3_0010"  >
<polygon locus_tag="AJI44180.1" description="&lt;b&gt;AJI44180.1&lt;/b&gt;&lt;br&gt;globin&lt;br&gt;Location: 23315 - 22872" points="332,85 337,80 340,80 340,90 337,90 332,85 " style="stroke-width:1; stroke:black; fill:white; " id="dummy-3_h3_3_10" class="clusterblast-orf"  />
</g>
<g id="a3_0011"  >
<polygon locus_tag="AJI44179.1" description="&lt;b&gt;AJI44179.1&lt;/b&gt;&lt;br&gt;hypothetical protein&lt;br&gt;Location: 22827 - 21685" points="341,85 346,80 363,80 363,90 346,90 341,85 " style="stroke-width:1; stroke:black; fill:white; " id="dummy-3_h3_3_11" class="clusterblast-orf"  />
</g>
<g id="a3_0012"  >
<polygon locus_tag="AJI44178.1" description="&lt;b&gt;AJI44178.1&lt;/b&gt;&lt;br&gt;hypothetical protein&lt;br&gt;Location: 21683 - 20937" points="363,85 368,80 377,80 377,90 368,90 363,85 " style="stroke-width:1; stroke:black; fill:white; " id="dummy-3_h3_3_12" class="clusterblast-orf"  />
</g>
<g id="a3_0013"  >
<polygon locus_tag="AJI44177.1" description="&lt;b&gt;AJI44177.1&lt;/b&gt;&lt;br&gt;glucose-methanol-choline oxidoreductase&lt;br&gt;Location: 20931 - 19381" points="378,85 383,80 407,80 407,90 383,90 378,85 " style="stroke-width:1; stroke:black; fill:white; " id="dummy-3_h3_3_13" class="clusterblast-orf"  />
</g>
<g id="a3_0014"  >
<polygon locus_tag="AJI44176.1" description="&lt;b&gt;AJI44176.1&lt;/b&gt;&lt;br&gt;nonribosomal peptide synthetase&lt;br&gt;Location: 19384 - 16250" points="407,85 412,80 468,80 468,90 412,90 407,85 " style="stroke-width:1; stroke:black; fill:white; " id="dummy-3_h3_3_14" class="clusterblast-orf"  />
</g>
<g id="a3_0015"  >
<polygon locus_tag="AJI44175.1" description="&lt;b&gt;AJI44175.1&lt;/b&gt;&lt;br&gt;phosphopantothenoylcysteine decarboxylase&lt;br&gt;Location: 15913 - 15332" points="474,90 480,90 485,85 480,80 474,80 474,90 " style="stroke-width:1; stroke:black; fill:white; " id="dummy-3_h3_3_15" class="clusterblast-orf"  />
</g>
<g id="a3_0016"  >
<polygon locus_tag="AJI44174.1" description="&lt;b&gt;AJI44174.1&lt;/b&gt;&lt;br&gt;streptomycin biosynthesis operon regulator&lt;br&gt;Location: 15279 - 14314" points="487,85 492,80 505,80 505,90 492,90 487,85 " style="stroke-width:1; stroke:black; fill:white; " id="dummy-3_h3_3_16" class="clusterblast-orf"  />
</g>
<g id="a3_0017"  >
<polygon locus_tag="AJI44191.1" description="&lt;b&gt;AJI44191.1&lt;/b&gt;&lt;br&gt;hypothetical protein&lt;br&gt;Location: 13524 - 12859" points="520,90 528,90 533,85 528,80 520,80 520,90 " style="stroke-width:1; stroke:black; fill:white; " id="dummy-3_h3_3_17" class="clusterblast-orf"  />
</g>
<g id="a3_0018"  >
<polygon locus_tag="AJI44173.1" description="&lt;b&gt;AJI44173.1&lt;/b&gt;&lt;br&gt;ferredoxin&lt;br&gt;Location: 12107 - 11901&lt;br&gt;&lt;br&gt;&lt;b&gt;BlastP hit with SSMG_00999&lt;/b&gt;&lt;br&gt;Percentage identity: 55&lt;br&gt;Percentage coverage: 94&lt;br&gt;BLAST bit score: 75&lt;br&gt;E-value: 3.2e-14" points="548,90 552,85 548,80 548,90 " style="stroke-width:1; stroke:black; fill:#15d863; " id="dummy-3_h3_3_18" class="clusterblast-orf"  />
</g>
<g id="a3_0019"  >
<polygon locus_tag="AJI44172.1" description="&lt;b&gt;AJI44172.1&lt;/b&gt;&lt;br&gt;ferredoxin reductase&lt;br&gt;Location: 11886 - 10714" points="552,90 569,90 574,85 569,80 552,80 552,90 " style="stroke-width:1; stroke:black; fill:white; " id="dummy-3_h3_3_19" class="clusterblast-orf"  />
</g>
<g id="a3_0020"  >
<polygon locus_tag="AJI44171.1" description="&lt;b&gt;AJI44171.1&lt;/b&gt;&lt;br&gt;cytochrome P450 hydroxylase&lt;br&gt;Location: 10681 - 9461&lt;br&gt;&lt;br&gt;&lt;b&gt;BlastP hit with SSMG_00996&lt;/b&gt;&lt;br&gt;Percentage identity: 60&lt;br&gt;Percentage coverage: 98&lt;br&gt;BLAST bit score: 463&lt;br&gt;E-value: 4.5e-130" points="575,90 594,90 599,85 594,80 575,80 575,90 " style="stroke-width:1; stroke:black; fill:#d81515; " id="dummy-3_h3_3_20" class="clusterblast-orf"  />
</g>
<g id="a3_0021"  >
<polygon locus_tag="AJI44170.1" description="&lt;b&gt;AJI44170.1&lt;/b&gt;&lt;br&gt;hypothetical protein&lt;br&gt;Location: 9277 - 7727" points="602,85 607,80 632,80 632,90 607,90 602,85 " style="stroke-width:1; stroke:black; fill:white; " id="dummy-3_h3_3_21" class="clusterblast-orf"  />
</g>
<g id="a3_0022"  >
<polygon locus_tag="AJI44169.1" description="&lt;b&gt;AJI44169.1&lt;/b&gt;&lt;br&gt;2-keto-3-deoxy-D-arabino-heptulosonate-7&lt;br&gt;Location: 7544 - 6516" points="636,85 641,80 655,80 655,90 641,90 636,85 " style="stroke-width:1; stroke:black; fill:white; " id="dummy-3_h3_3_22" class="clusterblast-orf"  />
</g>
<g id="a3_0023"  >
<polygon locus_tag="AJI44168.1" description="&lt;b&gt;AJI44168.1&lt;/b&gt;&lt;br&gt;hypothetical protein&lt;br&gt;Location: 6523 - 5138" points="655,85 660,80 682,80 682,90 660,90 655,85 " style="stroke-width:1; stroke:black; fill:white; " id="dummy-3_h3_3_23" class="clusterblast-orf"  />
</g>
<g id="a3_0024"  >
<polygon locus_tag="AJI44167.1" description="&lt;b&gt;AJI44167.1&lt;/b&gt;&lt;br&gt;long-chain-fatty-acid-CoA ligase&lt;br&gt;Location: 5129 - 72" points="682,85 687,80 780,80 780,90 687,90 682,85 " style="stroke-width:1; stroke:black; fill:white; " id="dummy-3_h3_3_24" class="clusterblast-orf"  />
</g>
</svg>
