<svg version="1.1" xmlns="http://www.w3.org/2000/svg" height="230" width="800" xmlns:xlink="http://www.w3.org/1999/xlink" preserveAspectRatio="none" x="0" y="0" viewBox="0 0 800 230"  >
<g label="Query sequence" class="clusterblast-cluster"  >
<text class="clusterblast-acc" y="20" x="5"  >
Query sequence</text>
<line x1="10" x2="778.0" y2="35" style="stroke-width:1; stroke:grey; " y1="35"  />
<polygon locus_tag="SSMG_00995" description="&lt;b&gt;SSMG_00995&lt;/b&gt;&lt;br&gt;predicted protein&lt;br&gt;Location: 1052056 - 1052755" points="280,40 283,40 288,35 283,30 280,30 280,40 " style="stroke-width:1; stroke:black; fill:white; " id="dummy-3_q0_0_all" class="clusterblast-orf"  />
<polygon locus_tag="SSMG_00996" description="&lt;b&gt;SSMG_00996&lt;/b&gt;&lt;br&gt;cytochrome P450 hydroxylase&lt;br&gt;Location: 1052894 - 1054115" points="289,40 297,40 302,35 297,30 289,30 289,40 " style="stroke-width:1; stroke:black; fill:#d81515; " id="dummy-3_q1_0_all" class="clusterblast-orf"  />
<polygon locus_tag="SSMG_00997" description="&lt;b&gt;SSMG_00997&lt;/b&gt;&lt;br&gt;transposase IS116/IS110/IS902 family protein&lt;br&gt;Location: 1054138 - 1055371" points="302,35 307,30 315,30 315,40 307,40 302,35 " style="stroke-width:1; stroke:black; fill:white; " id="dummy-3_q2_0_all" class="clusterblast-orf"  />
<polygon locus_tag="SSMG_00998" description="&lt;b&gt;SSMG_00998&lt;/b&gt;&lt;br&gt;predicted protein&lt;br&gt;Location: 1055392 - 1055722" points="315,40 319,35 315,30 315,40 " style="stroke-width:1; stroke:black; fill:white; " id="dummy-3_q3_0_all" class="clusterblast-orf"  />
<polygon locus_tag="SSMG_00999" description="&lt;b&gt;SSMG_00999&lt;/b&gt;&lt;br&gt;predicted protein&lt;br&gt;Location: 1055732 - 1055927" points="319,40 321,35 319,30 319,40 " style="stroke-width:1; stroke:black; fill:#15d863; " id="dummy-3_q4_0_all" class="clusterblast-orf"  />
<polygon locus_tag="SSMG_01000" description="&lt;b&gt;SSMG_01000&lt;/b&gt;&lt;br&gt;transcriptional regulator&lt;br&gt;Location: 1055976 - 1056777" points="322,40 325,40 330,35 325,30 322,30 322,40 " style="stroke-width:1; stroke:black; fill:white; " id="dummy-3_q5_0_all" class="clusterblast-orf"  />
<polygon locus_tag="SSMG_01001" description="&lt;b&gt;SSMG_01001&lt;/b&gt;&lt;br&gt;methyltransferase type 11&lt;br&gt;Location: 1056742 - 1057531" points="330,35 335,30 338,30 338,40 335,40 330,35 " style="stroke-width:1; stroke:black; fill:white; " id="dummy-3_q6_0_all" class="clusterblast-orf"  />
<polygon locus_tag="SSMG_01002" description="&lt;b&gt;SSMG_01002&lt;/b&gt;&lt;br&gt;predicted protein&lt;br&gt;Location: 1057505 - 1057736" points="338,35 340,30 340,40 338,35 " style="stroke-width:1; stroke:black; fill:white; " id="dummy-3_q7_0_all" class="clusterblast-orf"  />
<polygon locus_tag="SSMG_01003" description="&lt;b&gt;SSMG_01003&lt;/b&gt;&lt;br&gt;glutaredoxin&lt;br&gt;Location: 1057732 - 1057972" points="340,35 343,30 343,40 340,35 " style="stroke-width:1; stroke:black; fill:white; " id="dummy-3_q8_0_all" class="clusterblast-orf"  />
<polygon locus_tag="SSMG_01004" description="&lt;b&gt;SSMG_01004&lt;/b&gt;&lt;br&gt;predicted protein&lt;br&gt;Location: 1057968 - 1060089" points="343,35 348,30 365,30 365,40 348,40 343,35 " style="stroke-width:1; stroke:black; fill:#1563d8; " id="dummy-3_q9_0_all" class="clusterblast-orf"  />
<polygon locus_tag="SSMG_01005" description="&lt;b&gt;SSMG_01005&lt;/b&gt;&lt;br&gt;predicted protein&lt;br&gt;Location: 1060085 - 1060751" points="365,35 370,30 372,30 372,40 370,40 365,35 " style="stroke-width:1; stroke:black; fill:white; " id="dummy-3_q10_0_all" class="clusterblast-orf"  />
<polygon locus_tag="SSMG_01006" description="&lt;b&gt;SSMG_01006&lt;/b&gt;&lt;br&gt;predicted protein&lt;br&gt;Location: 1060669 - 1061392" points="371,35 376,30 379,30 379,40 376,40 371,35 " style="stroke-width:1; stroke:black; fill:#b115d8; " id="dummy-3_q11_0_all" class="clusterblast-orf"  />
<polygon locus_tag="SSMG_01007" description="&lt;b&gt;SSMG_01007&lt;/b&gt;&lt;br&gt;terpene synthase&lt;br&gt;Location: 1061718 - 1063962" points="382,35 387,30 406,30 406,40 387,40 382,35 " style="stroke-width:1; stroke:black; fill:#b1d815; " id="dummy-3_q12_0_all" class="clusterblast-orf"  />
<polygon locus_tag="SSMG_01008" description="&lt;b&gt;SSMG_01008&lt;/b&gt;&lt;br&gt;conserved hypothetical protein&lt;br&gt;Location: 1064394 - 1065990" points="410,40 422,40 427,35 422,30 410,30 410,40 " style="stroke-width:1; stroke:black; fill:white; " id="dummy-3_q13_0_all" class="clusterblast-orf"  />
<polygon locus_tag="SSMG_01009" description="&lt;b&gt;SSMG_01009&lt;/b&gt;&lt;br&gt;hydrolase&lt;br&gt;Location: 1066040 - 1068095" points="428,35 433,30 450,30 450,40 433,40 428,35 " style="stroke-width:1; stroke:black; fill:white; " id="dummy-3_q14_0_all" class="clusterblast-orf"  />
<polygon locus_tag="SSMG_01010" description="&lt;b&gt;SSMG_01010&lt;/b&gt;&lt;br&gt;sugar transport integral membrane protein&lt;br&gt;Location: 1068101 - 1068971" points="450,35 455,30 459,30 459,40 455,40 450,35 " style="stroke-width:1; stroke:black; fill:white; " id="dummy-3_q15_0_all" class="clusterblast-orf"  />
<polygon locus_tag="SSMG_01011" description="&lt;b&gt;SSMG_01011&lt;/b&gt;&lt;br&gt;sugar transport integral membrane protein&lt;br&gt;Location: 1068972 - 1069923" points="459,35 464,30 469,30 469,40 464,40 459,35 " style="stroke-width:1; stroke:black; fill:white; " id="dummy-3_q16_0_all" class="clusterblast-orf"  />
<polygon locus_tag="SSMG_01012" description="&lt;b&gt;SSMG_01012&lt;/b&gt;&lt;br&gt;sugar transport sugar binding protein&lt;br&gt;Location: 1069919 - 1071305" points="469,35 474,30 483,30 483,40 474,40 469,35 " style="stroke-width:1; stroke:black; fill:white; " id="dummy-3_q17_0_all" class="clusterblast-orf"  />
<polygon locus_tag="SSMG_01013" description="&lt;b&gt;SSMG_01013&lt;/b&gt;&lt;br&gt;catabolite control protein A&lt;br&gt;Location: 1071441 - 1072476" points="485,40 491,40 496,35 491,30 485,30 485,40 " style="stroke-width:1; stroke:black; fill:white; " id="dummy-3_q18_0_all" class="clusterblast-orf"  />
<polygon locus_tag="SSMG_01014" description="&lt;b&gt;SSMG_01014&lt;/b&gt;&lt;br&gt;predicted protein&lt;br&gt;Location: 1072468 - 1072789" points="496,40 499,35 496,30 496,40 " style="stroke-width:1; stroke:black; fill:white; " id="dummy-3_q19_0_all" class="clusterblast-orf"  />
</g>
<g label="BGC0001694" description="BGC0001694_c1: meoabyssomicin / abyssomicin (6% of genes show similarity), Polyketide" class="clusterblast-cluster"  >
<text class="clusterblast-acc" y="70" x="5"  >
<a xlink:href="https://mibig.secondarymetabolites.org/go/BGC0001694/1" target="_blank">BGC0001694</a>:                                                     meoabyssomicin / abyssomicin (6% of genes show similarity), Polyketide</text>
<line x1="10" x2="778.0" y2="85" style="stroke-width:1; stroke:grey; " y1="85"  />
</g>
<g id="a3_000"  >
<polygon locus_tag="AVI57439.1" description="&lt;b&gt;AVI57439.1&lt;/b&gt;&lt;br&gt;alcohol dehydrogenase-like protein&lt;br&gt;Location: 73870 - 72875" points="0,90 5,90 10,85 5,80 0,80 0,90 " style="stroke-width:1; stroke:black; fill:white; " id="dummy-3_h3_10_0" class="clusterblast-orf"  />
</g>
<g id="a3_001"  >
<polygon locus_tag="AVI57438.1" description="&lt;b&gt;AVI57438.1&lt;/b&gt;&lt;br&gt;hypothetical protein&lt;br&gt;Location: 72614 - 66795" points="13,90 69,90 74,85 69,80 13,80 13,90 " style="stroke-width:1; stroke:black; fill:white; " id="dummy-3_h3_10_1" class="clusterblast-orf"  />
</g>
<g id="a3_002"  >
<polygon locus_tag="AVI57437.1" description="&lt;b&gt;AVI57437.1&lt;/b&gt;&lt;br&gt;hypothetical protein&lt;br&gt;Location: 66798 - 65206" points="74,90 86,90 91,85 86,80 74,80 74,90 " style="stroke-width:1; stroke:black; fill:white; " id="dummy-3_h3_10_2" class="clusterblast-orf"  />
</g>
<g id="a3_003"  >
<polygon locus_tag="AVI57436.1" description="&lt;b&gt;AVI57436.1&lt;/b&gt;&lt;br&gt;AbmH&lt;br&gt;Location: 65095 - 62267" points="92,85 97,80 122,80 122,90 97,90 92,85 " style="stroke-width:1; stroke:black; fill:white; " id="dummy-3_h3_10_3" class="clusterblast-orf"  />
</g>
<g id="a3_004"  >
<polygon locus_tag="AVI57435.1" description="&lt;b&gt;AVI57435.1&lt;/b&gt;&lt;br&gt;AbmB3&lt;br&gt;Location: 62063 - 58941" points="124,85 129,80 157,80 157,90 129,90 124,85 " style="stroke-width:1; stroke:black; fill:white; " id="dummy-3_h3_10_4" class="clusterblast-orf"  />
</g>
<g id="a3_005"  >
<polygon locus_tag="AVI57434.1" description="&lt;b&gt;AVI57434.1&lt;/b&gt;&lt;br&gt;AbmB2&lt;br&gt;Location: 58910 - 46746" points="157,85 162,80 286,80 286,90 162,90 157,85 " style="stroke-width:1; stroke:black; fill:white; " id="dummy-3_h3_10_5" class="clusterblast-orf"  />
</g>
<g id="a3_006"  >
<polygon locus_tag="AVI57433.1" description="&lt;b&gt;AVI57433.1&lt;/b&gt;&lt;br&gt;AbmB1&lt;br&gt;Location: 46663 - 27314" points="287,85 292,80 491,80 491,90 292,90 287,85 " style="stroke-width:1; stroke:black; fill:white; " id="dummy-3_h3_10_6" class="clusterblast-orf"  />
</g>
<g id="a3_007"  >
<polygon locus_tag="AVI57432.1" description="&lt;b&gt;AVI57432.1&lt;/b&gt;&lt;br&gt;AbmZ&lt;br&gt;Location: 27324 - 26788" points="491,85 496,80 497,80 497,90 496,90 491,85 " style="stroke-width:1; stroke:black; fill:white; " id="dummy-3_h3_10_7" class="clusterblast-orf"  />
</g>
<g id="a3_008"  >
<polygon locus_tag="AVI57431.1" description="&lt;b&gt;AVI57431.1&lt;/b&gt;&lt;br&gt;AbmT&lt;br&gt;Location: 26708 - 25884" points="497,85 502,80 506,80 506,90 502,90 497,85 " style="stroke-width:1; stroke:black; fill:white; " id="dummy-3_h3_10_8" class="clusterblast-orf"  />
</g>
<g id="a3_009"  >
<polygon locus_tag="AVI57430.1" description="&lt;b&gt;AVI57430.1&lt;/b&gt;&lt;br&gt;AbmA5&lt;br&gt;Location: 25887 - 24766" points="506,85 511,80 518,80 518,90 511,90 506,85 " style="stroke-width:1; stroke:black; fill:white; " id="dummy-3_h3_10_9" class="clusterblast-orf"  />
</g>
<g id="a3_0010"  >
<polygon locus_tag="AVI57429.1" description="&lt;b&gt;AVI57429.1&lt;/b&gt;&lt;br&gt;AbmA4&lt;br&gt;Location: 24769 - 23927" points="518,85 523,80 527,80 527,90 523,90 518,85 " style="stroke-width:1; stroke:black; fill:white; " id="dummy-3_h3_10_10" class="clusterblast-orf"  />
</g>
<g id="a3_0011"  >
<polygon locus_tag="AVI57428.1" description="&lt;b&gt;AVI57428.1&lt;/b&gt;&lt;br&gt;AbmA3&lt;br&gt;Location: 23930 - 23703" points="527,85 529,80 529,90 527,85 " style="stroke-width:1; stroke:black; fill:white; " id="dummy-3_h3_10_11" class="clusterblast-orf"  />
</g>
<g id="a3_0012"  >
<polygon locus_tag="AVI57427.1" description="&lt;b&gt;AVI57427.1&lt;/b&gt;&lt;br&gt;AbmA2&lt;br&gt;Location: 23706 - 21820" points="529,85 534,80 549,80 549,90 534,90 529,85 " style="stroke-width:1; stroke:black; fill:white; " id="dummy-3_h3_10_12" class="clusterblast-orf"  />
</g>
<g id="a3_0013"  >
<polygon locus_tag="AVI57426.1" description="&lt;b&gt;AVI57426.1&lt;/b&gt;&lt;br&gt;AbmA1&lt;br&gt;Location: 21814 - 20783" points="549,85 554,80 560,80 560,90 554,90 549,85 " style="stroke-width:1; stroke:black; fill:white; " id="dummy-3_h3_10_13" class="clusterblast-orf"  />
</g>
<g id="a3_0014"  >
<polygon locus_tag="AVI57425.1" description="&lt;b&gt;AVI57425.1&lt;/b&gt;&lt;br&gt;AbmD&lt;br&gt;Location: 20557 - 19094" points="562,85 567,80 578,80 578,90 567,90 562,85 " style="stroke-width:1; stroke:black; fill:white; " id="dummy-3_h3_10_14" class="clusterblast-orf"  />
</g>
<g id="a3_0015"  >
<polygon locus_tag="AVI57424.1" description="&lt;b&gt;AVI57424.1&lt;/b&gt;&lt;br&gt;AbmE1&lt;br&gt;Location: 19013 - 17952" points="579,85 584,80 590,80 590,90 584,90 579,85 " style="stroke-width:1; stroke:black; fill:white; " id="dummy-3_h3_10_15" class="clusterblast-orf"  />
</g>
<g id="a3_0016"  >
<polygon locus_tag="AVI57423.1" description="&lt;b&gt;AVI57423.1&lt;/b&gt;&lt;br&gt;AbmC&lt;br&gt;Location: 17843 - 17070" points="591,90 594,90 599,85 594,80 591,80 591,90 " style="stroke-width:1; stroke:black; fill:white; " id="dummy-3_h3_10_16" class="clusterblast-orf"  />
</g>
<g id="a3_0017"  >
<polygon locus_tag="AVI57422.1" description="&lt;b&gt;AVI57422.1&lt;/b&gt;&lt;br&gt;AbmV&lt;br&gt;Location: 16972 - 15755&lt;br&gt;&lt;br&gt;&lt;b&gt;BlastP hit with SSMG_00996&lt;/b&gt;&lt;br&gt;Percentage identity: 46&lt;br&gt;Percentage coverage: 101&lt;br&gt;BLAST bit score: 337&lt;br&gt;E-value: 2.2e-92" points="600,90 608,90 613,85 608,80 600,80 600,90 " style="stroke-width:1; stroke:black; fill:#d81515; " id="dummy-3_h3_10_17" class="clusterblast-orf"  />
</g>
<g id="a3_0018"  >
<polygon locus_tag="AVI57421.1" description="&lt;b&gt;AVI57421.1&lt;/b&gt;&lt;br&gt;AbmG&lt;br&gt;Location: 15758 - 15525&lt;br&gt;&lt;br&gt;&lt;b&gt;BlastP hit with SSMG_00999&lt;/b&gt;&lt;br&gt;Percentage identity: 53&lt;br&gt;Percentage coverage: 97&lt;br&gt;BLAST bit score: 64&lt;br&gt;E-value: 7.3e-11" points="613,90 616,85 613,80 613,90 " style="stroke-width:1; stroke:black; fill:#15d863; " id="dummy-3_h3_10_18" class="clusterblast-orf"  />
</g>
<g id="a3_0019"  >
<polygon locus_tag="AVI57420.1" description="&lt;b&gt;AVI57420.1&lt;/b&gt;&lt;br&gt;AbmJ&lt;br&gt;Location: 15437 - 14442" points="617,90 622,90 627,85 622,80 617,80 617,90 " style="stroke-width:1; stroke:black; fill:white; " id="dummy-3_h3_10_19" class="clusterblast-orf"  />
</g>
<g id="a3_0020"  >
<polygon locus_tag="AVI57419.1" description="&lt;b&gt;AVI57419.1&lt;/b&gt;&lt;br&gt;AbmF1&lt;br&gt;Location: 14445 - 12805" points="627,90 639,90 644,85 639,80 627,80 627,90 " style="stroke-width:1; stroke:black; fill:white; " id="dummy-3_h3_10_20" class="clusterblast-orf"  />
</g>
<g id="a3_0021"  >
<polygon locus_tag="AVI57418.1" description="&lt;b&gt;AVI57418.1&lt;/b&gt;&lt;br&gt;AbnF2&lt;br&gt;Location: 12808 - 11867" points="644,90 649,90 654,85 649,80 644,80 644,90 " style="stroke-width:1; stroke:black; fill:white; " id="dummy-3_h3_10_21" class="clusterblast-orf"  />
</g>
<g id="a3_0022"  >
<polygon locus_tag="AVI57417.1" description="&lt;b&gt;AVI57417.1&lt;/b&gt;&lt;br&gt;AbmM&lt;br&gt;Location: 11870 - 10629" points="654,90 662,90 667,85 662,80 654,80 654,90 " style="stroke-width:1; stroke:black; fill:white; " id="dummy-3_h3_10_22" class="clusterblast-orf"  />
</g>
<g id="a3_0023"  >
<polygon locus_tag="AVI57416.1" description="&lt;b&gt;AVI57416.1&lt;/b&gt;&lt;br&gt;AbmF3&lt;br&gt;Location: 10632 - 9736" points="667,90 672,90 677,85 672,80 667,80 667,90 " style="stroke-width:1; stroke:black; fill:white; " id="dummy-3_h3_10_23" class="clusterblast-orf"  />
</g>
<g id="a3_0024"  >
<polygon locus_tag="AVI57415.1" description="&lt;b&gt;AVI57415.1&lt;/b&gt;&lt;br&gt;AbmF4&lt;br&gt;Location: 9749 - 8067" points="677,90 689,90 694,85 689,80 677,80 677,90 " style="stroke-width:1; stroke:black; fill:white; " id="dummy-3_h3_10_24" class="clusterblast-orf"  />
</g>
<g id="a3_0025"  >
<polygon locus_tag="AVI57414.1" description="&lt;b&gt;AVI57414.1&lt;/b&gt;&lt;br&gt;AbmL&lt;br&gt;Location: 8070 - 7225" points="694,90 698,90 703,85 698,80 694,80 694,90 " style="stroke-width:1; stroke:black; fill:white; " id="dummy-3_h3_10_25" class="clusterblast-orf"  />
</g>
<g id="a3_0026"  >
<polygon locus_tag="AVI57413.1" description="&lt;b&gt;AVI57413.1&lt;/b&gt;&lt;br&gt;AbmK&lt;br&gt;Location: 7228 - 6458" points="703,90 706,90 711,85 706,80 703,80 703,90 " style="stroke-width:1; stroke:black; fill:white; " id="dummy-3_h3_10_26" class="clusterblast-orf"  />
</g>
<g id="a3_0027"  >
<polygon locus_tag="AVI57412.1" description="&lt;b&gt;AVI57412.1&lt;/b&gt;&lt;br&gt;AbmU&lt;br&gt;Location: 6422 - 5766" points="712,90 714,90 719,85 714,80 712,80 712,90 " style="stroke-width:1; stroke:black; fill:white; " id="dummy-3_h3_10_27" class="clusterblast-orf"  />
</g>
<g id="a3_0028"  >
<polygon locus_tag="AVI57411.1" description="&lt;b&gt;AVI57411.1&lt;/b&gt;&lt;br&gt;AbmE2&lt;br&gt;Location: 5655 - 4585" points="720,85 725,80 731,80 731,90 725,90 720,85 " style="stroke-width:1; stroke:black; fill:white; " id="dummy-3_h3_10_28" class="clusterblast-orf"  />
</g>
<g id="a3_0029"  >
<polygon locus_tag="AVI57410.1" description="&lt;b&gt;AVI57410.1&lt;/b&gt;&lt;br&gt;AbmI&lt;br&gt;Location: 4340 - 3534" points="734,90 737,90 742,85 737,80 734,80 734,90 " style="stroke-width:1; stroke:black; fill:white; " id="dummy-3_h3_10_29" class="clusterblast-orf"  />
</g>
<g id="a3_0030"  >
<polygon locus_tag="AVI57409.1" description="&lt;b&gt;AVI57409.1&lt;/b&gt;&lt;br&gt;AbmN&lt;br&gt;Location: 3503 - 2166" points="743,85 748,80 757,80 757,90 748,90 743,85 " style="stroke-width:1; stroke:black; fill:white; " id="dummy-3_h3_10_30" class="clusterblast-orf"  />
</g>
<g id="a3_0031"  >
<polygon locus_tag="AVI57408.1" description="&lt;b&gt;AVI57408.1&lt;/b&gt;&lt;br&gt;amino acid permease&lt;br&gt;Location: 2064 - 1" points="758,85 763,80 780,80 780,90 763,90 758,85 " style="stroke-width:1; stroke:black; fill:white; " id="dummy-3_h3_10_31" class="clusterblast-orf"  />
</g>
</svg>
