<svg version="1.1" xmlns="http://www.w3.org/2000/svg" height="230" width="800" xmlns:xlink="http://www.w3.org/1999/xlink" preserveAspectRatio="none" x="0" y="0" viewBox="0 0 800 230"  >
<g label="Query sequence" class="clusterblast-cluster"  >
<text class="clusterblast-acc" y="20" x="5"  >
Query sequence</text>
<line x1="10" x2="778.0" y2="35" style="stroke-width:1; stroke:grey; " y1="35"  />
<polygon locus_tag="SSMG_05904" description="&lt;b&gt;SSMG_05904&lt;/b&gt;&lt;br&gt;predicted protein&lt;br&gt;Location: 6494403 - 6494646" points="87,35 88,30 88,40 87,35 " style="stroke-width:1; stroke:black; fill:white; " id="dummy-22_q0_0_all" class="clusterblast-orf"  />
<polygon locus_tag="SSMG_05905" description="&lt;b&gt;SSMG_05905&lt;/b&gt;&lt;br&gt;monooxygenase&lt;br&gt;Location: 6494758 - 6495877" points="89,35 94,30 95,30 95,40 94,40 89,35 " style="stroke-width:1; stroke:black; fill:white; " id="dummy-22_q1_0_all" class="clusterblast-orf"  />
<polygon locus_tag="SSMG_05906" description="&lt;b&gt;SSMG_05906&lt;/b&gt;&lt;br&gt;ATPase&lt;br&gt;Location: 6497554 - 6501253" points="104,35 109,30 125,30 125,40 109,40 104,35 " style="stroke-width:1; stroke:black; fill:white; " id="dummy-22_q2_0_all" class="clusterblast-orf"  />
<polygon locus_tag="SSMG_05907" description="&lt;b&gt;SSMG_05907&lt;/b&gt;&lt;br&gt;predicted protein&lt;br&gt;Location: 6501367 - 6502021" points="126,40 130,35 126,30 126,40 " style="stroke-width:1; stroke:black; fill:white; " id="dummy-22_q3_0_all" class="clusterblast-orf"  />
<polygon locus_tag="SSMG_05908" description="&lt;b&gt;SSMG_05908&lt;/b&gt;&lt;br&gt;sigma-70 region 2 domain-containing protein&lt;br&gt;Location: 6502030 - 6503281" points="130,35 135,30 137,30 137,40 135,40 130,35 " style="stroke-width:1; stroke:black; fill:white; " id="dummy-22_q4_0_all" class="clusterblast-orf"  />
<polygon locus_tag="SSMG_05909" description="&lt;b&gt;SSMG_05909&lt;/b&gt;&lt;br&gt;dgpfaetke family protein&lt;br&gt;Location: 6503244 - 6503568" points="137,35 138,30 138,40 137,35 " style="stroke-width:1; stroke:black; fill:white; " id="dummy-22_q5_0_all" class="clusterblast-orf"  />
<polygon locus_tag="SSMG_05910" description="&lt;b&gt;SSMG_05910&lt;/b&gt;&lt;br&gt;riboflavin biosynthesis protein RibD domain-containing protein&lt;br&gt;Location: 6503592 - 6504213" points="139,35 142,30 142,40 139,35 " style="stroke-width:1; stroke:black; fill:white; " id="dummy-22_q6_0_all" class="clusterblast-orf"  />
<polygon locus_tag="SSMG_05911" description="&lt;b&gt;SSMG_05911&lt;/b&gt;&lt;br&gt;conserved hypothetical protein&lt;br&gt;Location: 6504333 - 6505188" points="143,35 148,30 148,30 148,40 148,40 143,35 " style="stroke-width:1; stroke:black; fill:white; " id="dummy-22_q7_0_all" class="clusterblast-orf"  />
<polygon locus_tag="SSMG_05912" description="&lt;b&gt;SSMG_05912&lt;/b&gt;&lt;br&gt;ribonuclease Z&lt;br&gt;Location: 6505189 - 6506098" points="148,35 153,30 153,30 153,40 153,40 148,35 " style="stroke-width:1; stroke:black; fill:white; " id="dummy-22_q8_0_all" class="clusterblast-orf"  />
<polygon locus_tag="SSMG_05913" description="&lt;b&gt;SSMG_05913&lt;/b&gt;&lt;br&gt;predicted protein&lt;br&gt;Location: 6506223 - 6507189" points="153,35 158,30 159,30 159,40 158,40 153,35 " style="stroke-width:1; stroke:black; fill:white; " id="dummy-22_q9_0_all" class="clusterblast-orf"  />
<polygon locus_tag="SSMG_05914" description="&lt;b&gt;SSMG_05914&lt;/b&gt;&lt;br&gt;predicted protein&lt;br&gt;Location: 6507197 - 6508166" points="159,35 164,30 164,30 164,40 164,40 159,35 " style="stroke-width:1; stroke:black; fill:white; " id="dummy-22_q10_0_all" class="clusterblast-orf"  />
<polygon locus_tag="SSMG_05915" description="&lt;b&gt;SSMG_05915&lt;/b&gt;&lt;br&gt;butyrolactone receptor&lt;br&gt;Location: 6508346 - 6508979" points="166,40 169,35 166,30 166,40 " style="stroke-width:1; stroke:black; fill:white; " id="dummy-22_q11_0_all" class="clusterblast-orf"  />
<polygon locus_tag="SSMG_05916" description="&lt;b&gt;SSMG_05916&lt;/b&gt;&lt;br&gt;predicted protein&lt;br&gt;Location: 6509405 - 6510080" points="172,35 175,30 175,40 172,35 " style="stroke-width:1; stroke:black; fill:white; " id="dummy-22_q12_0_all" class="clusterblast-orf"  />
<polygon locus_tag="SSMG_05917" description="&lt;b&gt;SSMG_05917&lt;/b&gt;&lt;br&gt;predicted protein&lt;br&gt;Location: 6510293 - 6511061" points="177,40 181,35 177,30 177,40 " style="stroke-width:1; stroke:black; fill:white; " id="dummy-22_q13_0_all" class="clusterblast-orf"  />
<polygon locus_tag="SSMG_05918" description="&lt;b&gt;SSMG_05918&lt;/b&gt;&lt;br&gt;predicted protein&lt;br&gt;Location: 6511551 - 6512124" points="184,35 187,30 187,40 184,35 " style="stroke-width:1; stroke:black; fill:white; " id="dummy-22_q14_0_all" class="clusterblast-orf"  />
<polygon locus_tag="SSMG_05919" description="&lt;b&gt;SSMG_05919&lt;/b&gt;&lt;br&gt;predicted protein&lt;br&gt;Location: 6512270 - 6513098" points="188,35 192,30 192,40 188,35 " style="stroke-width:1; stroke:black; fill:#d81515; " id="dummy-22_q15_0_all" class="clusterblast-orf"  />
<polygon locus_tag="SSMG_05920" description="&lt;b&gt;SSMG_05920&lt;/b&gt;&lt;br&gt;nodulation ABC transporter NodI&lt;br&gt;Location: 6513097 - 6514048" points="192,35 197,30 198,30 198,40 197,40 192,35 " style="stroke-width:1; stroke:black; fill:#6ad815; " id="dummy-22_q16_0_all" class="clusterblast-orf"  />
<polygon locus_tag="SSMG_05921" description="&lt;b&gt;SSMG_05921&lt;/b&gt;&lt;br&gt;polyketide synthase type I&lt;br&gt;Location: 6514125 - 6524589" points="198,35 203,30 258,30 258,40 203,40 198,35 " style="stroke-width:1; stroke:black; fill:#15bfd8; " id="dummy-22_q17_0_all" class="clusterblast-orf"  />
<polygon locus_tag="SSMG_05922" description="&lt;b&gt;SSMG_05922&lt;/b&gt;&lt;br&gt;acyl transferase domain-containing protein&lt;br&gt;Location: 6524595 - 6529314" points="258,35 263,30 284,30 284,40 263,40 258,35 " style="stroke-width:1; stroke:black; fill:#15bfd8; " id="dummy-22_q18_0_all" class="clusterblast-orf"  />
<polygon locus_tag="SSMG_05923" description="&lt;b&gt;SSMG_05923&lt;/b&gt;&lt;br&gt;polyketide synthase type I&lt;br&gt;Location: 6529325 - 6534461" points="284,35 289,30 313,30 313,40 289,40 284,35 " style="stroke-width:1; stroke:black; fill:#15bfd8; " id="dummy-22_q19_0_all" class="clusterblast-orf"  />
<polygon locus_tag="SSMG_05924" description="&lt;b&gt;SSMG_05924&lt;/b&gt;&lt;br&gt;predicted protein&lt;br&gt;Location: 6534559 - 6535441" points="314,35 319,30 319,30 319,40 319,40 314,35 " style="stroke-width:1; stroke:black; fill:#9d15d8; " id="dummy-22_q20_0_all" class="clusterblast-orf"  />
<polygon locus_tag="SSMG_05925" description="&lt;b&gt;SSMG_05925&lt;/b&gt;&lt;br&gt;predicted protein&lt;br&gt;Location: 6535532 - 6538088" points="320,35 325,30 334,30 334,40 325,40 320,35 " style="stroke-width:1; stroke:black; fill:white; " id="dummy-22_q21_0_all" class="clusterblast-orf"  />
<polygon locus_tag="SSMG_05926" description="&lt;b&gt;SSMG_05926&lt;/b&gt;&lt;br&gt;lipoprotein releasing system, ATP-binding protein&lt;br&gt;Location: 6538084 - 6538930" points="334,35 339,30 339,30 339,40 339,40 334,35 " style="stroke-width:1; stroke:black; fill:#d84815; " id="dummy-22_q22_0_all" class="clusterblast-orf"  />
<polygon locus_tag="SSMG_05927" description="&lt;b&gt;SSMG_05927&lt;/b&gt;&lt;br&gt;hypothetical protein&lt;br&gt;Location: 6539188 - 6539740" points="340,35 343,30 343,40 340,35 " style="stroke-width:1; stroke:black; fill:#37d815; " id="dummy-22_q23_0_all" class="clusterblast-orf"  />
<polygon locus_tag="SSMG_05928" description="&lt;b&gt;SSMG_05928&lt;/b&gt;&lt;br&gt;hypothetical protein&lt;br&gt;Location: 6539678 - 6540389" points="343,40 347,35 343,30 343,40 " style="stroke-width:1; stroke:black; fill:white; " id="dummy-22_q24_0_all" class="clusterblast-orf"  />
<polygon locus_tag="SSMG_05929" description="&lt;b&gt;SSMG_05929&lt;/b&gt;&lt;br&gt;predicted protein&lt;br&gt;Location: 6540909 - 6550362" points="350,35 355,30 404,30 404,40 355,40 350,35 " style="stroke-width:1; stroke:black; fill:#15bfd8; " id="dummy-22_q25_0_all" class="clusterblast-orf"  />
<polygon locus_tag="SSMG_05930" description="&lt;b&gt;SSMG_05930&lt;/b&gt;&lt;br&gt;predicted protein&lt;br&gt;Location: 6550532 - 6551294" points="404,40 404,40 409,35 404,30 404,30 404,40 " style="stroke-width:1; stroke:black; fill:#158cd8; " id="dummy-22_q26_0_all" class="clusterblast-orf"  />
<polygon locus_tag="SSMG_05931" description="&lt;b&gt;SSMG_05931&lt;/b&gt;&lt;br&gt;UDP-glucose/GDP-mannose dehydrogenase&lt;br&gt;Location: 6551358 - 6552651" points="409,40 411,40 416,35 411,30 409,30 409,40 " style="stroke-width:1; stroke:black; fill:#d015d8; " id="dummy-22_q27_0_all" class="clusterblast-orf"  />
<polygon locus_tag="SSMG_05932" description="&lt;b&gt;SSMG_05932&lt;/b&gt;&lt;br&gt;NAD-dependent epimerase/dehydratase&lt;br&gt;Location: 6552702 - 6553677" points="417,40 417,40 422,35 417,30 417,30 417,40 " style="stroke-width:1; stroke:black; fill:#d87b15; " id="dummy-22_q28_0_all" class="clusterblast-orf"  />
<polygon locus_tag="SSMG_05933" description="&lt;b&gt;SSMG_05933&lt;/b&gt;&lt;br&gt;hypothetical protein&lt;br&gt;Location: 6553888 - 6556477" points="423,35 428,30 438,30 438,40 428,40 423,35 " style="stroke-width:1; stroke:black; fill:white; " id="dummy-22_q29_0_all" class="clusterblast-orf"  />
<polygon locus_tag="SSMG_05934" description="&lt;b&gt;SSMG_05934&lt;/b&gt;&lt;br&gt;predicted protein&lt;br&gt;Location: 6556689 - 6558081" points="439,40 442,40 447,35 442,30 439,30 439,40 " style="stroke-width:1; stroke:black; fill:white; " id="dummy-22_q30_0_all" class="clusterblast-orf"  />
<polygon locus_tag="SSMG_05935" description="&lt;b&gt;SSMG_05935&lt;/b&gt;&lt;br&gt;thioesterase&lt;br&gt;Location: 6558131 - 6558914" points="448,40 452,35 448,30 448,40 " style="stroke-width:1; stroke:black; fill:#15d826; " id="dummy-22_q31_0_all" class="clusterblast-orf"  />
<polygon locus_tag="SSMG_05936" description="&lt;b&gt;SSMG_05936&lt;/b&gt;&lt;br&gt;predicted protein&lt;br&gt;Location: 6558953 - 6559295" points="452,40 454,35 452,30 452,40 " style="stroke-width:1; stroke:black; fill:#1559d8; " id="dummy-22_q32_0_all" class="clusterblast-orf"  />
<polygon locus_tag="SSMG_05937" description="&lt;b&gt;SSMG_05937&lt;/b&gt;&lt;br&gt;predicted protein&lt;br&gt;Location: 6559696 - 6560167" points="456,35 459,30 459,40 456,35 " style="stroke-width:1; stroke:black; fill:white; " id="dummy-22_q33_0_all" class="clusterblast-orf"  />
<polygon locus_tag="SSMG_05938" description="&lt;b&gt;SSMG_05938&lt;/b&gt;&lt;br&gt;PKS module 4&lt;br&gt;Location: 6560592 - 6565977" points="461,35 466,30 492,30 492,40 466,40 461,35 " style="stroke-width:1; stroke:black; fill:#15bfd8; " id="dummy-22_q34_0_all" class="clusterblast-orf"  />
<polygon locus_tag="SSMG_05939" description="&lt;b&gt;SSMG_05939&lt;/b&gt;&lt;br&gt;modular polyketide synthase&lt;br&gt;Location: 6565973 - 6581756" points="492,35 497,30 581,30 581,40 497,40 492,35 " style="stroke-width:1; stroke:black; fill:#15bfd8; " id="dummy-22_q35_0_all" class="clusterblast-orf"  />
<polygon locus_tag="SSMG_05940" description="&lt;b&gt;SSMG_05940&lt;/b&gt;&lt;br&gt;cytochrome P450&lt;br&gt;Location: 6581852 - 6583049" points="582,35 587,30 589,30 589,40 587,40 582,35 " style="stroke-width:1; stroke:black; fill:#d815ae; " id="dummy-22_q36_0_all" class="clusterblast-orf"  />
<polygon locus_tag="SSMG_05941" description="&lt;b&gt;SSMG_05941&lt;/b&gt;&lt;br&gt;glutamate mutase subunit B&lt;br&gt;Location: 6583045 - 6584314" points="589,35 594,30 596,30 596,40 594,40 589,35 " style="stroke-width:1; stroke:black; fill:#d8ae15; " id="dummy-22_q37_0_all" class="clusterblast-orf"  />
<polygon locus_tag="SSMG_05942" description="&lt;b&gt;SSMG_05942&lt;/b&gt;&lt;br&gt;glutamate mutase S-chain&lt;br&gt;Location: 6584310 - 6584787" points="596,35 598,30 598,40 596,35 " style="stroke-width:1; stroke:black; fill:#15d859; " id="dummy-22_q38_0_all" class="clusterblast-orf"  />
<polygon locus_tag="SSMG_05943" description="&lt;b&gt;SSMG_05943&lt;/b&gt;&lt;br&gt;diaminopimelate decarboxylase&lt;br&gt;Location: 6584783 - 6585998" points="598,35 603,30 605,30 605,40 603,40 598,35 " style="stroke-width:1; stroke:black; fill:#1526d8; " id="dummy-22_q39_0_all" class="clusterblast-orf"  />
<polygon locus_tag="SSMG_05944" description="&lt;b&gt;SSMG_05944&lt;/b&gt;&lt;br&gt;O-succinylbenzoate-CoA ligase&lt;br&gt;Location: 6585994 - 6587455" points="605,35 610,30 614,30 614,40 610,40 605,35 " style="stroke-width:1; stroke:black; fill:#d8157b; " id="dummy-22_q40_0_all" class="clusterblast-orf"  />
<polygon locus_tag="SSMG_05945" description="&lt;b&gt;SSMG_05945&lt;/b&gt;&lt;br&gt;AMP-dependent synthetase and ligase&lt;br&gt;Location: 6587651 - 6589199" points="615,35 620,30 623,30 623,40 620,40 615,35 " style="stroke-width:1; stroke:black; fill:#d0d815; " id="dummy-22_q41_0_all" class="clusterblast-orf"  />
<polygon locus_tag="SSMG_05946" description="&lt;b&gt;SSMG_05946&lt;/b&gt;&lt;br&gt;predicted protein&lt;br&gt;Location: 6589274 - 6589628" points="624,40 626,35 624,30 624,40 " style="stroke-width:1; stroke:black; fill:#15d88c; " id="dummy-22_q42_0_all" class="clusterblast-orf"  />
<polygon locus_tag="SSMG_05947" description="&lt;b&gt;SSMG_05947&lt;/b&gt;&lt;br&gt;malonyl-CoA-[acyl-carrier-protein] transacylase&lt;br&gt;Location: 6589620 - 6590580" points="626,35 631,30 631,30 631,40 631,40 626,35 " style="stroke-width:1; stroke:black; fill:#3715d8; " id="dummy-22_q43_0_all" class="clusterblast-orf"  />
<polygon locus_tag="SSMG_05948" description="&lt;b&gt;SSMG_05948&lt;/b&gt;&lt;br&gt;proline-specific peptidase&lt;br&gt;Location: 6590572 - 6591505" points="631,35 636,30 637,30 637,40 636,40 631,35 " style="stroke-width:1; stroke:black; fill:#d81548; " id="dummy-22_q44_0_all" class="clusterblast-orf"  />
<polygon locus_tag="SSMG_05949" description="&lt;b&gt;SSMG_05949&lt;/b&gt;&lt;br&gt;predicted protein&lt;br&gt;Location: 6591738 - 6593001" points="638,40 640,40 645,35 640,30 638,30 638,40 " style="stroke-width:1; stroke:black; fill:#9dd815; " id="dummy-22_q45_0_all" class="clusterblast-orf"  />
<polygon locus_tag="SSMG_05950" description="&lt;b&gt;SSMG_05950&lt;/b&gt;&lt;br&gt;predicted protein&lt;br&gt;Location: 6592910 - 6594107" points="645,40 646,40 651,35 646,30 645,30 645,40 " style="stroke-width:1; stroke:black; fill:#15d8bf; " id="dummy-22_q46_0_all" class="clusterblast-orf"  />
<polygon locus_tag="SSMG_05951" description="&lt;b&gt;SSMG_05951&lt;/b&gt;&lt;br&gt;two component transcriptional regulator&lt;br&gt;Location: 6594130 - 6594784" points="651,40 655,35 651,30 651,40 " style="stroke-width:1; stroke:black; fill:#6a15d8; " id="dummy-22_q47_0_all" class="clusterblast-orf"  />
<polygon locus_tag="SSMG_05952" description="&lt;b&gt;SSMG_05952&lt;/b&gt;&lt;br&gt;predicted protein&lt;br&gt;Location: 6595236 - 6595497" points="658,35 659,30 659,40 658,35 " style="stroke-width:1; stroke:black; fill:white; " id="dummy-22_q48_0_all" class="clusterblast-orf"  />
<polygon locus_tag="SSMG_05953" description="&lt;b&gt;SSMG_05953&lt;/b&gt;&lt;br&gt;acetyl-CoA carboxylase complex&lt;br&gt;Location: 6596157 - 6597732" points="663,35 668,30 672,30 672,40 668,40 663,35 " style="stroke-width:1; stroke:black; fill:white; " id="dummy-22_q49_0_all" class="clusterblast-orf"  />
<polygon locus_tag="SSMG_05954" description="&lt;b&gt;SSMG_05954&lt;/b&gt;&lt;br&gt;thioesterase&lt;br&gt;Location: 6597718 - 6598489" points="672,35 676,30 676,40 672,35 " style="stroke-width:1; stroke:black; fill:#15d826; " id="dummy-22_q50_0_all" class="clusterblast-orf"  />
<polygon locus_tag="SSMG_05955" description="&lt;b&gt;SSMG_05955&lt;/b&gt;&lt;br&gt;predicted protein&lt;br&gt;Location: 6598699 - 6598879" points="677,40 678,35 677,30 677,40 " style="stroke-width:1; stroke:black; fill:white; " id="dummy-22_q51_0_all" class="clusterblast-orf"  />
<polygon locus_tag="SSMG_05956" description="&lt;b&gt;SSMG_05956&lt;/b&gt;&lt;br&gt;acetyltransferase&lt;br&gt;Location: 6598857 - 6599643" points="678,35 683,30 683,30 683,40 683,40 678,35 " style="stroke-width:1; stroke:black; fill:white; " id="dummy-22_q52_0_all" class="clusterblast-orf"  />
<polygon locus_tag="SSMG_05957" description="&lt;b&gt;SSMG_05957&lt;/b&gt;&lt;br&gt;conserved hypothetical protein&lt;br&gt;Location: 6599693 - 6600416" points="683,40 687,35 683,30 683,40 " style="stroke-width:1; stroke:black; fill:white; " id="dummy-22_q53_0_all" class="clusterblast-orf"  />
<polygon locus_tag="SSMG_05958" description="&lt;b&gt;SSMG_05958&lt;/b&gt;&lt;br&gt;predicted protein&lt;br&gt;Location: 6600437 - 6600926" points="687,40 690,35 687,30 687,40 " style="stroke-width:1; stroke:black; fill:white; " id="dummy-22_q54_0_all" class="clusterblast-orf"  />
<polygon locus_tag="SSMG_05959" description="&lt;b&gt;SSMG_05959&lt;/b&gt;&lt;br&gt;transcriptional regulator&lt;br&gt;Location: 6600933 - 6601395" points="690,35 693,30 693,40 690,35 " style="stroke-width:1; stroke:black; fill:white; " id="dummy-22_q55_0_all" class="clusterblast-orf"  />
</g>
<g label="BGC0000078" description="BGC0000078_c1: incednine (21% of genes show similarity), Polyketide" class="clusterblast-cluster"  >
<text class="clusterblast-acc" y="70" x="5"  >
<a xlink:href="https://mibig.secondarymetabolites.org/go/BGC0000078/1" target="_blank">BGC0000078</a>:                                                                        incednine (21% of genes show similarity), Polyketide</text>
<line x1="10" x2="778.0" y2="85" style="stroke-width:1; stroke:grey; " y1="85"  />
</g>
<g id="a22_000"  >
<polygon locus_tag="BAP34699.1" description="&lt;b&gt;BAP34699.1&lt;/b&gt;&lt;br&gt;superfamily I DNA and RNA helicase-like protein&lt;br&gt;Location: 1 - 2069" points="0,90 6,90 11,85 6,80 0,80 0,90 " style="stroke-width:1; stroke:black; fill:white; " id="dummy-22_h22_5_0" class="clusterblast-orf"  />
</g>
<g id="a22_001"  >
<polygon locus_tag="BAP34700.1" description="&lt;b&gt;BAP34700.1&lt;/b&gt;&lt;br&gt;hypothetical protein&lt;br&gt;Location: 2126 - 2521" points="12,85 14,80 14,90 12,85 " style="stroke-width:1; stroke:black; fill:white; " id="dummy-22_h22_5_1" class="clusterblast-orf"  />
</g>
<g id="a22_002"  >
<polygon locus_tag="BAP34701.1" description="&lt;b&gt;BAP34701.1&lt;/b&gt;&lt;br&gt;hypothetical protein&lt;br&gt;Location: 2644 - 3135" points="14,85 17,80 17,90 14,85 " style="stroke-width:1; stroke:black; fill:white; " id="dummy-22_h22_5_2" class="clusterblast-orf"  />
</g>
<g id="a22_003"  >
<polygon locus_tag="BAP34702.1" description="&lt;b&gt;BAP34702.1&lt;/b&gt;&lt;br&gt;MbtH-like protein&lt;br&gt;Location: 3362 - 3583" points="19,85 20,80 20,90 19,85 " style="stroke-width:1; stroke:black; fill:white; " id="dummy-22_h22_5_3" class="clusterblast-orf"  />
</g>
<g id="a22_004"  >
<polygon locus_tag="BAP34703.1" description="&lt;b&gt;BAP34703.1&lt;/b&gt;&lt;br&gt;LmbE family protein&lt;br&gt;Location: 4554 - 5216&lt;br&gt;&lt;br&gt;&lt;b&gt;BlastP hit with SSMG_05930&lt;/b&gt;&lt;br&gt;Percentage identity: 71&lt;br&gt;Percentage coverage: 87&lt;br&gt;BLAST bit score: 306&lt;br&gt;E-value: 4.4e-83" points="25,90 29,85 25,80 25,90 " style="stroke-width:1; stroke:black; fill:#158cd8; " id="dummy-22_h22_5_4" class="clusterblast-orf"  />
</g>
<g id="a22_005"  >
<polygon locus_tag="BAP34704.1" description="&lt;b&gt;BAP34704.1&lt;/b&gt;&lt;br&gt;UDP-glucose/GDP-mannose dehydrogenase&lt;br&gt;Location: 5408 - 6820&lt;br&gt;&lt;br&gt;&lt;b&gt;BlastP hit with SSMG_05931&lt;/b&gt;&lt;br&gt;Percentage identity: 68&lt;br&gt;Percentage coverage: 99&lt;br&gt;BLAST bit score: 573&lt;br&gt;E-value: 3.3e-163" points="30,90 33,90 38,85 33,80 30,80 30,90 " style="stroke-width:1; stroke:black; fill:#d015d8; " id="dummy-22_h22_5_5" class="clusterblast-orf"  />
</g>
<g id="a22_006"  >
<polygon locus_tag="BAP34705.1" description="&lt;b&gt;BAP34705.1&lt;/b&gt;&lt;br&gt;NAD-dependent epimerase/dehydratase&lt;br&gt;Location: 6885 - 7841&lt;br&gt;&lt;br&gt;&lt;b&gt;BlastP hit with SSMG_05932&lt;/b&gt;&lt;br&gt;Percentage identity: 72&lt;br&gt;Percentage coverage: 98&lt;br&gt;BLAST bit score: 466&lt;br&gt;E-value: 3.2e-131" points="38,90 39,90 44,85 39,80 38,80 38,90 " style="stroke-width:1; stroke:black; fill:#d87b15; " id="dummy-22_h22_5_6" class="clusterblast-orf"  />
</g>
<g id="a22_007"  >
<polygon locus_tag="BAP34706.1" description="&lt;b&gt;BAP34706.1&lt;/b&gt;&lt;br&gt;LuxR-family transcriptional regulator&lt;br&gt;Location: 8085 - 10994" points="45,90 57,90 62,85 57,80 45,80 45,90 " style="stroke-width:1; stroke:black; fill:white; " id="dummy-22_h22_5_7" class="clusterblast-orf"  />
</g>
<g id="a22_008"  >
<polygon locus_tag="BAP34707.1" description="&lt;b&gt;BAP34707.1&lt;/b&gt;&lt;br&gt;AMP-dependent synthetase and ligase&lt;br&gt;Location: 11307 - 12905" points="64,90 68,90 73,85 68,80 64,80 64,90 " style="stroke-width:1; stroke:black; fill:white; " id="dummy-22_h22_5_8" class="clusterblast-orf"  />
</g>
<g id="a22_009"  >
<polygon locus_tag="BAP34708.1" description="&lt;b&gt;BAP34708.1&lt;/b&gt;&lt;br&gt;malonyl-CoA-ACP transacylase&lt;br&gt;Location: 13073 - 14182" points="74,85 79,80 80,80 80,90 79,90 74,85 " style="stroke-width:1; stroke:black; fill:white; " id="dummy-22_h22_5_9" class="clusterblast-orf"  />
</g>
<g id="a22_0010"  >
<polygon locus_tag="BAP34709.1" description="&lt;b&gt;BAP34709.1&lt;/b&gt;&lt;br&gt;(PLP)-dependent aspartate aminotransferase superfamily&lt;br&gt;Location: 14197 - 15483" points="80,85 85,80 87,80 87,90 85,90 80,85 " style="stroke-width:1; stroke:black; fill:white; " id="dummy-22_h22_5_10" class="clusterblast-orf"  />
</g>
<g id="a22_0011"  >
<polygon locus_tag="BAP34710.1" description="&lt;b&gt;BAP34710.1&lt;/b&gt;&lt;br&gt;radical-SAM L-lysine 2,3-aminomutase&lt;br&gt;Location: 15517 - 16878" points="87,85 92,80 95,80 95,90 92,90 87,85 " style="stroke-width:1; stroke:black; fill:white; " id="dummy-22_h22_5_11" class="clusterblast-orf"  />
</g>
<g id="a22_0012"  >
<polygon locus_tag="BAP34711.1" description="&lt;b&gt;BAP34711.1&lt;/b&gt;&lt;br&gt;proline iminopeptidase&lt;br&gt;Location: 17000 - 17929&lt;br&gt;&lt;br&gt;&lt;b&gt;BlastP hit with SSMG_05948&lt;/b&gt;&lt;br&gt;Percentage identity: 65&lt;br&gt;Percentage coverage: 97&lt;br&gt;BLAST bit score: 409&lt;br&gt;E-value: 5.9e-114" points="96,85 101,80 101,80 101,90 101,90 96,85 " style="stroke-width:1; stroke:black; fill:#d81548; " id="dummy-22_h22_5_12" class="clusterblast-orf"  />
</g>
<g id="a22_0013"  >
<polygon locus_tag="BAP34712.1" description="&lt;b&gt;BAP34712.1&lt;/b&gt;&lt;br&gt;glycosyltransferase&lt;br&gt;Location: 18316 - 19644&lt;br&gt;&lt;br&gt;&lt;b&gt;BlastP hit with SSMG_05949&lt;/b&gt;&lt;br&gt;Percentage identity: 58&lt;br&gt;Percentage coverage: 100&lt;br&gt;BLAST bit score: 481&lt;br&gt;E-value: 1.3e-135" points="103,90 106,90 111,85 106,80 103,80 103,90 " style="stroke-width:1; stroke:black; fill:#9dd815; " id="dummy-22_h22_5_13" class="clusterblast-orf"  />
</g>
<g id="a22_0014"  >
<polygon locus_tag="BAP34713.1" description="&lt;b&gt;BAP34713.1&lt;/b&gt;&lt;br&gt;methyltransferase&lt;br&gt;Location: 19828 - 21036" points="112,85 117,80 119,80 119,90 117,90 112,85 " style="stroke-width:1; stroke:black; fill:white; " id="dummy-22_h22_5_14" class="clusterblast-orf"  />
</g>
<g id="a22_0015"  >
<polygon locus_tag="BAP34714.1" description="&lt;b&gt;BAP34714.1&lt;/b&gt;&lt;br&gt;dTDP-glucose 4,6-dehydratase&lt;br&gt;Location: 21287 - 22261" points="120,85 125,80 126,80 126,90 125,90 120,85 " style="stroke-width:1; stroke:black; fill:white; " id="dummy-22_h22_5_15" class="clusterblast-orf"  />
</g>
<g id="a22_0016"  >
<polygon locus_tag="BAP34715.1" description="&lt;b&gt;BAP34715.1&lt;/b&gt;&lt;br&gt;glucose-1-phosphate thymidylyltransferase&lt;br&gt;Location: 22258 - 23325" points="126,85 131,80 132,80 132,90 131,90 126,85 " style="stroke-width:1; stroke:black; fill:white; " id="dummy-22_h22_5_16" class="clusterblast-orf"  />
</g>
<g id="a22_0017"  >
<polygon locus_tag="BAP34716.1" description="&lt;b&gt;BAP34716.1&lt;/b&gt;&lt;br&gt;N-methyltransferase&lt;br&gt;Location: 23395 - 24132" points="132,85 136,80 136,90 132,85 " style="stroke-width:1; stroke:black; fill:white; " id="dummy-22_h22_5_17" class="clusterblast-orf"  />
</g>
<g id="a22_0018"  >
<polygon locus_tag="BAP34717.1" description="&lt;b&gt;BAP34717.1&lt;/b&gt;&lt;br&gt;acyl carrier protein&lt;br&gt;Location: 24577 - 24816&lt;br&gt;&lt;br&gt;&lt;b&gt;BlastP hit with SSMG_05946&lt;/b&gt;&lt;br&gt;Percentage identity: 49&lt;br&gt;Percentage coverage: 64&lt;br&gt;BLAST bit score: 82&lt;br&gt;E-value: 4.7e-16" points="139,85 140,80 140,90 139,85 " style="stroke-width:1; stroke:black; fill:#15d88c; " id="dummy-22_h22_5_18" class="clusterblast-orf"  />
</g>
<g id="a22_0019"  >
<polygon locus_tag="BAP34718.1" description="&lt;b&gt;BAP34718.1&lt;/b&gt;&lt;br&gt;AMP-dependent synthetase and ligase&lt;br&gt;Location: 24954 - 26522&lt;br&gt;&lt;br&gt;&lt;b&gt;BlastP hit with SSMG_05945&lt;/b&gt;&lt;br&gt;Percentage identity: 59&lt;br&gt;Percentage coverage: 100&lt;br&gt;BLAST bit score: 583&lt;br&gt;E-value: 2.9e-166" points="141,90 145,90 150,85 145,80 141,80 141,90 " style="stroke-width:1; stroke:black; fill:#d0d815; " id="dummy-22_h22_5_19" class="clusterblast-orf"  />
</g>
<g id="a22_0020"  >
<polygon locus_tag="BAP34719.1" description="&lt;b&gt;BAP34719.1&lt;/b&gt;&lt;br&gt;cytochrome P450&lt;br&gt;Location: 26677 - 27882&lt;br&gt;&lt;br&gt;&lt;b&gt;BlastP hit with SSMG_05940&lt;/b&gt;&lt;br&gt;Percentage identity: 68&lt;br&gt;Percentage coverage: 101&lt;br&gt;BLAST bit score: 554&lt;br&gt;E-value: 1.9e-157" points="151,90 152,90 157,85 152,80 151,80 151,90 " style="stroke-width:1; stroke:black; fill:#d815ae; " id="dummy-22_h22_5_20" class="clusterblast-orf"  />
</g>
<g id="a22_0021"  >
<polygon locus_tag="BAP34720.1" description="&lt;b&gt;BAP34720.1&lt;/b&gt;&lt;br&gt;transcriptional regulator&lt;br&gt;Location: 28673 - 29308" points="162,90 166,85 162,80 162,90 " style="stroke-width:1; stroke:black; fill:white; " id="dummy-22_h22_5_21" class="clusterblast-orf"  />
</g>
<g id="a22_0022"  >
<polygon locus_tag="BAP34721.1" description="&lt;b&gt;BAP34721.1&lt;/b&gt;&lt;br&gt;hypothetical protein&lt;br&gt;Location: 29779 - 30123" points="168,90 170,85 168,80 168,90 " style="stroke-width:1; stroke:black; fill:white; " id="dummy-22_h22_5_22" class="clusterblast-orf"  />
</g>
<g id="a22_0023"  >
<polygon locus_tag="BAP34722.1" description="&lt;b&gt;BAP34722.1&lt;/b&gt;&lt;br&gt;hypothetical protein&lt;br&gt;Location: 30120 - 31583" points="170,90 173,90 178,85 173,80 170,80 170,90 " style="stroke-width:1; stroke:black; fill:white; " id="dummy-22_h22_5_23" class="clusterblast-orf"  />
</g>
<g id="a22_0024"  >
<polygon locus_tag="BAP34723.1" description="&lt;b&gt;BAP34723.1&lt;/b&gt;&lt;br&gt;hypothetical protein&lt;br&gt;Location: 31628 - 32032" points="179,90 181,85 179,80 179,90 " style="stroke-width:1; stroke:black; fill:white; " id="dummy-22_h22_5_24" class="clusterblast-orf"  />
</g>
<g id="a22_0025"  >
<polygon locus_tag="BAP34724.1" description="&lt;b&gt;BAP34724.1&lt;/b&gt;&lt;br&gt;Putative hydrolase&lt;br&gt;Location: 32138 - 32599" points="182,90 184,85 182,80 182,90 " style="stroke-width:1; stroke:black; fill:white; " id="dummy-22_h22_5_25" class="clusterblast-orf"  />
</g>
<g id="a22_0026"  >
<polygon locus_tag="BAP34725.1" description="&lt;b&gt;BAP34725.1&lt;/b&gt;&lt;br&gt;hypothetical protein&lt;br&gt;Location: 32596 - 32952" points="184,90 186,85 184,80 184,90 " style="stroke-width:1; stroke:black; fill:white; " id="dummy-22_h22_5_26" class="clusterblast-orf"  />
</g>
<g id="a22_0027"  >
<polygon locus_tag="BAP34726.1" description="&lt;b&gt;BAP34726.1&lt;/b&gt;&lt;br&gt;thymidylate synthase&lt;br&gt;Location: 32960 - 33982" points="186,90 187,90 192,85 187,80 186,80 186,90 " style="stroke-width:1; stroke:black; fill:white; " id="dummy-22_h22_5_27" class="clusterblast-orf"  />
</g>
<g id="a22_0028"  >
<polygon locus_tag="BAP34727.1" description="&lt;b&gt;BAP34727.1&lt;/b&gt;&lt;br&gt;nucleoside diphosphate kinase&lt;br&gt;Location: 33979 - 35007" points="192,90 193,90 198,85 193,80 192,80 192,90 " style="stroke-width:1; stroke:black; fill:white; " id="dummy-22_h22_5_28" class="clusterblast-orf"  />
</g>
<g id="a22_0029"  >
<polygon locus_tag="BAP34728.1" description="&lt;b&gt;BAP34728.1&lt;/b&gt;&lt;br&gt;hypothetical protein&lt;br&gt;Location: 34997 - 36175" points="198,90 199,90 204,85 199,80 198,80 198,90 " style="stroke-width:1; stroke:black; fill:white; " id="dummy-22_h22_5_29" class="clusterblast-orf"  />
</g>
<g id="a22_0030"  >
<polygon locus_tag="BAP34729.1" description="&lt;b&gt;BAP34729.1&lt;/b&gt;&lt;br&gt;DNA polymerase III&lt;br&gt;Location: 36172 - 36774" points="204,90 208,85 204,80 204,90 " style="stroke-width:1; stroke:black; fill:white; " id="dummy-22_h22_5_30" class="clusterblast-orf"  />
</g>
<g id="a22_0031"  >
<polygon locus_tag="BAP34730.1" description="&lt;b&gt;BAP34730.1&lt;/b&gt;&lt;br&gt;hypothetical protein&lt;br&gt;Location: 36768 - 37376" points="208,90 211,85 208,80 208,90 " style="stroke-width:1; stroke:black; fill:white; " id="dummy-22_h22_5_31" class="clusterblast-orf"  />
</g>
<g id="a22_0032"  >
<polygon locus_tag="BAP34731.1" description="&lt;b&gt;BAP34731.1&lt;/b&gt;&lt;br&gt;oxidoreductase&lt;br&gt;Location: 37373 - 38023" points="211,90 215,85 211,80 211,90 " style="stroke-width:1; stroke:black; fill:white; " id="dummy-22_h22_5_32" class="clusterblast-orf"  />
</g>
<g id="a22_0033"  >
<polygon locus_tag="BAP34732.1" description="&lt;b&gt;BAP34732.1&lt;/b&gt;&lt;br&gt;hypothetical protein&lt;br&gt;Location: 38154 - 38669" points="216,90 219,85 216,80 216,90 " style="stroke-width:1; stroke:black; fill:white; " id="dummy-22_h22_5_33" class="clusterblast-orf"  />
</g>
<g id="a22_0034"  >
<polygon locus_tag="BAP34733.1" description="&lt;b&gt;BAP34733.1&lt;/b&gt;&lt;br&gt;type I polyketide synthase&lt;br&gt;Location: 39077 - 50023&lt;br&gt;&lt;br&gt;&lt;b&gt;BlastP hit with SSMG_05921&lt;/b&gt;&lt;br&gt;Percentage identity: 47&lt;br&gt;Percentage coverage: 101&lt;br&gt;BLAST bit score: 2705&lt;br&gt;E-value: 0.0&lt;br&gt;&lt;br&gt;&lt;b&gt;BlastP hit with SSMG_05922&lt;/b&gt;&lt;br&gt;Percentage identity: 46&lt;br&gt;Percentage coverage: 65&lt;br&gt;BLAST bit score: 728&lt;br&gt;E-value: 2.9e-209&lt;br&gt;&lt;br&gt;&lt;b&gt;BlastP hit with SSMG_05923&lt;/b&gt;&lt;br&gt;Percentage identity: 49&lt;br&gt;Percentage coverage: 102&lt;br&gt;BLAST bit score: 1446&lt;br&gt;E-value: 0.0&lt;br&gt;&lt;br&gt;&lt;b&gt;BlastP hit with SSMG_05929&lt;/b&gt;&lt;br&gt;Percentage identity: 46&lt;br&gt;Percentage coverage: 94&lt;br&gt;BLAST bit score: 2121&lt;br&gt;E-value: 0.0&lt;br&gt;&lt;br&gt;&lt;b&gt;BlastP hit with SSMG_05938&lt;/b&gt;&lt;br&gt;Percentage identity: 50&lt;br&gt;Percentage coverage: 100&lt;br&gt;BLAST bit score: 1516&lt;br&gt;E-value: 0.0&lt;br&gt;&lt;br&gt;&lt;b&gt;BlastP hit with SSMG_05939&lt;/b&gt;&lt;br&gt;Percentage identity: 49&lt;br&gt;Percentage coverage: 70&lt;br&gt;BLAST bit score: 2918&lt;br&gt;E-value: 0.0" points="221,85 226,80 283,80 283,90 226,90 221,85 " style="stroke-width:1; stroke:black; fill:#15bfd8; " id="dummy-22_h22_5_34" class="clusterblast-orf"  />
</g>
<g id="a22_0035"  >
<polygon locus_tag="BAP34734.1" description="&lt;b&gt;BAP34734.1&lt;/b&gt;&lt;br&gt;type I polyketide synthase&lt;br&gt;Location: 50108 - 66139&lt;br&gt;&lt;br&gt;&lt;b&gt;BlastP hit with SSMG_05921&lt;/b&gt;&lt;br&gt;Percentage identity: 49&lt;br&gt;Percentage coverage: 104&lt;br&gt;BLAST bit score: 2877&lt;br&gt;E-value: 0.0&lt;br&gt;&lt;br&gt;&lt;b&gt;BlastP hit with SSMG_05923&lt;/b&gt;&lt;br&gt;Percentage identity: 52&lt;br&gt;Percentage coverage: 99&lt;br&gt;BLAST bit score: 1450&lt;br&gt;E-value: 0.0&lt;br&gt;&lt;br&gt;&lt;b&gt;BlastP hit with SSMG_05929&lt;/b&gt;&lt;br&gt;Percentage identity: 48&lt;br&gt;Percentage coverage: 93&lt;br&gt;BLAST bit score: 2274&lt;br&gt;E-value: 0.0&lt;br&gt;&lt;br&gt;&lt;b&gt;BlastP hit with SSMG_05938&lt;/b&gt;&lt;br&gt;Percentage identity: 48&lt;br&gt;Percentage coverage: 105&lt;br&gt;BLAST bit score: 1488&lt;br&gt;E-value: 0.0&lt;br&gt;&lt;br&gt;&lt;b&gt;BlastP hit with SSMG_05939&lt;/b&gt;&lt;br&gt;Percentage identity: 50&lt;br&gt;Percentage coverage: 102&lt;br&gt;BLAST bit score: 4308&lt;br&gt;E-value: 0.0" points="283,85 288,80 374,80 374,90 288,90 283,85 " style="stroke-width:1; stroke:black; fill:#15bfd8; " id="dummy-22_h22_5_35" class="clusterblast-orf"  />
</g>
<g id="a22_0036"  >
<polygon locus_tag="BAP34735.1" description="&lt;b&gt;BAP34735.1&lt;/b&gt;&lt;br&gt;thioesterase involved in non-ribosomal peptide biosynthesis&lt;br&gt;Location: 66380 - 67210&lt;br&gt;&lt;br&gt;&lt;b&gt;BlastP hit with SSMG_05935&lt;/b&gt;&lt;br&gt;Percentage identity: 55&lt;br&gt;Percentage coverage: 94&lt;br&gt;BLAST bit score: 278&lt;br&gt;E-value: 1.3e-74&lt;br&gt;&lt;br&gt;&lt;b&gt;BlastP hit with SSMG_05954&lt;/b&gt;&lt;br&gt;Percentage identity: 55&lt;br&gt;Percentage coverage: 87&lt;br&gt;BLAST bit score: 250&lt;br&gt;E-value: 2.2e-66" points="375,90 375,90 380,85 375,80 375,80 375,90 " style="stroke-width:1; stroke:black; fill:#15d826; " id="dummy-22_h22_5_36" class="clusterblast-orf"  />
</g>
<g id="a22_0037"  >
<polygon locus_tag="BAP34736.1" description="&lt;b&gt;BAP34736.1&lt;/b&gt;&lt;br&gt;ABC-type multidrug transport system&lt;br&gt;Location: 67450 - 68247&lt;br&gt;&lt;br&gt;&lt;b&gt;BlastP hit with SSMG_05919&lt;/b&gt;&lt;br&gt;Percentage identity: 49&lt;br&gt;Percentage coverage: 94&lt;br&gt;BLAST bit score: 260&lt;br&gt;E-value: 3e-69" points="382,85 386,80 386,90 382,85 " style="stroke-width:1; stroke:black; fill:#d81515; " id="dummy-22_h22_5_37" class="clusterblast-orf"  />
</g>
<g id="a22_0038"  >
<polygon locus_tag="BAP34737.1" description="&lt;b&gt;BAP34737.1&lt;/b&gt;&lt;br&gt;ABC-type multidrug transport system&lt;br&gt;Location: 68244 - 69200&lt;br&gt;&lt;br&gt;&lt;b&gt;BlastP hit with SSMG_05920&lt;/b&gt;&lt;br&gt;Percentage identity: 65&lt;br&gt;Percentage coverage: 96&lt;br&gt;BLAST bit score: 373&lt;br&gt;E-value: 2.8e-103" points="386,85 391,80 391,80 391,90 391,90 386,85 " style="stroke-width:1; stroke:black; fill:#6ad815; " id="dummy-22_h22_5_38" class="clusterblast-orf"  />
</g>
<g id="a22_0039"  >
<polygon locus_tag="BAP34738.1" description="&lt;b&gt;BAP34738.1&lt;/b&gt;&lt;br&gt;regulatory protein TetR&lt;br&gt;Location: 69310 - 70158" points="392,90 392,90 397,85 392,80 392,80 392,90 " style="stroke-width:1; stroke:black; fill:white; " id="dummy-22_h22_5_39" class="clusterblast-orf"  />
</g>
<g id="a22_0040"  >
<polygon locus_tag="BAP34739.1" description="&lt;b&gt;BAP34739.1&lt;/b&gt;&lt;br&gt;type I polyketide synthase&lt;br&gt;Location: 70616 - 82201&lt;br&gt;&lt;br&gt;&lt;b&gt;BlastP hit with SSMG_05921&lt;/b&gt;&lt;br&gt;Percentage identity: 54&lt;br&gt;Percentage coverage: 111&lt;br&gt;BLAST bit score: 3584&lt;br&gt;E-value: 0.0&lt;br&gt;&lt;br&gt;&lt;b&gt;BlastP hit with SSMG_05923&lt;/b&gt;&lt;br&gt;Percentage identity: 49&lt;br&gt;Percentage coverage: 100&lt;br&gt;BLAST bit score: 1374&lt;br&gt;E-value: 0.0&lt;br&gt;&lt;br&gt;&lt;b&gt;BlastP hit with SSMG_05939&lt;/b&gt;&lt;br&gt;Percentage identity: 47&lt;br&gt;Percentage coverage: 72&lt;br&gt;BLAST bit score: 2845&lt;br&gt;E-value: 0.0" points="399,85 404,80 465,80 465,90 404,90 399,85 " style="stroke-width:1; stroke:black; fill:#15bfd8; " id="dummy-22_h22_5_40" class="clusterblast-orf"  />
</g>
<g id="a22_0041"  >
<polygon locus_tag="BAP34740.1" description="&lt;b&gt;BAP34740.1&lt;/b&gt;&lt;br&gt;type I polyketide synthase&lt;br&gt;Location: 82241 - 87412&lt;br&gt;&lt;br&gt;&lt;b&gt;BlastP hit with SSMG_05922&lt;/b&gt;&lt;br&gt;Percentage identity: 57&lt;br&gt;Percentage coverage: 109&lt;br&gt;BLAST bit score: 1705&lt;br&gt;E-value: 0.0&lt;br&gt;&lt;br&gt;&lt;b&gt;BlastP hit with SSMG_05938&lt;/b&gt;&lt;br&gt;Percentage identity: 47&lt;br&gt;Percentage coverage: 56&lt;br&gt;BLAST bit score: 754&lt;br&gt;E-value: 4.3e-217" points="465,85 470,80 495,80 495,90 470,90 465,85 " style="stroke-width:1; stroke:black; fill:#15bfd8; " id="dummy-22_h22_5_41" class="clusterblast-orf"  />
</g>
<g id="a22_0042"  >
<polygon locus_tag="BAP34741.1" description="&lt;b&gt;BAP34741.1&lt;/b&gt;&lt;br&gt;glycosyltransferase&lt;br&gt;Location: 88093 - 89280" points="498,85 503,80 505,80 505,90 503,90 498,85 " style="stroke-width:1; stroke:black; fill:white; " id="dummy-22_h22_5_42" class="clusterblast-orf"  />
</g>
<g id="a22_0043"  >
<polygon locus_tag="BAP34742.1" description="&lt;b&gt;BAP34742.1&lt;/b&gt;&lt;br&gt;NDP-hexose 2,3-dehydratase&lt;br&gt;Location: 89781 - 91136" points="508,90 511,90 516,85 511,80 508,80 508,90 " style="stroke-width:1; stroke:black; fill:white; " id="dummy-22_h22_5_43" class="clusterblast-orf"  />
</g>
<g id="a22_0044"  >
<polygon locus_tag="BAP34743.1" description="&lt;b&gt;BAP34743.1&lt;/b&gt;&lt;br&gt;NDP-hexose-3-ketoreductase&lt;br&gt;Location: 91214 - 92230" points="516,90 517,90 522,85 517,80 516,80 516,90 " style="stroke-width:1; stroke:black; fill:white; " id="dummy-22_h22_5_44" class="clusterblast-orf"  />
</g>
<g id="a22_0045"  >
<polygon locus_tag="BAP34744.1" description="&lt;b&gt;BAP34744.1&lt;/b&gt;&lt;br&gt;NDP-hexose-3,4-dehydratase&lt;br&gt;Location: 92233 - 93567" points="522,90 524,90 529,85 524,80 522,80 522,90 " style="stroke-width:1; stroke:black; fill:white; " id="dummy-22_h22_5_45" class="clusterblast-orf"  />
</g>
<g id="a22_0046"  >
<polygon locus_tag="BAP34745.1" description="&lt;b&gt;BAP34745.1&lt;/b&gt;&lt;br&gt;aminotransferase&lt;br&gt;Location: 93557 - 94852" points="529,90 532,90 537,85 532,80 529,80 529,90 " style="stroke-width:1; stroke:black; fill:white; " id="dummy-22_h22_5_46" class="clusterblast-orf"  />
</g>
<g id="a22_0047"  >
<polygon locus_tag="BAP34746.1" description="&lt;b&gt;BAP34746.1&lt;/b&gt;&lt;br&gt;glycosyltransferase&lt;br&gt;Location: 94907 - 96184" points="537,85 542,80 544,80 544,90 542,90 537,85 " style="stroke-width:1; stroke:black; fill:white; " id="dummy-22_h22_5_47" class="clusterblast-orf"  />
</g>
<g id="a22_0048"  >
<polygon locus_tag="BAP34747.1" description="&lt;b&gt;BAP34747.1&lt;/b&gt;&lt;br&gt;cytochrome P450&lt;br&gt;Location: 96199 - 97470" points="544,85 549,80 552,80 552,90 549,90 544,85 " style="stroke-width:1; stroke:black; fill:white; " id="dummy-22_h22_5_48" class="clusterblast-orf"  />
</g>
<g id="a22_0049"  >
<polygon locus_tag="BAP34748.1" description="&lt;b&gt;BAP34748.1&lt;/b&gt;&lt;br&gt;glycosyltransferase&lt;br&gt;Location: 97467 - 98396" points="552,85 557,80 557,80 557,90 557,90 552,85 " style="stroke-width:1; stroke:black; fill:white; " id="dummy-22_h22_5_49" class="clusterblast-orf"  />
</g>
<g id="a22_0050"  >
<polygon locus_tag="BAP34749.1" description="&lt;b&gt;BAP34749.1&lt;/b&gt;&lt;br&gt;glutamate-1-semialdehyde aminotransferase&lt;br&gt;Location: 100768 - 102102" points="570,85 575,80 578,80 578,90 575,90 570,85 " style="stroke-width:1; stroke:black; fill:white; " id="dummy-22_h22_5_50" class="clusterblast-orf"  />
</g>
<g id="a22_0051"  >
<polygon locus_tag="BAP34750.1" description="&lt;b&gt;BAP34750.1&lt;/b&gt;&lt;br&gt;dehydrogenase&lt;br&gt;Location: 102204 - 102950" points="578,90 578,90 583,85 578,80 578,80 578,90 " style="stroke-width:1; stroke:black; fill:white; " id="dummy-22_h22_5_51" class="clusterblast-orf"  />
</g>
<g id="a22_0052"  >
<polygon locus_tag="BAP34751.1" description="&lt;b&gt;BAP34751.1&lt;/b&gt;&lt;br&gt;hypothetical protein&lt;br&gt;Location: 102813 - 103463" points="582,85 586,80 586,90 582,85 " style="stroke-width:1; stroke:black; fill:white; " id="dummy-22_h22_5_52" class="clusterblast-orf"  />
</g>
<g id="a22_0053"  >
<polygon locus_tag="BAP34752.1" description="&lt;b&gt;BAP34752.1&lt;/b&gt;&lt;br&gt;phytanoyl-CoA dioxygenase&lt;br&gt;Location: 103460 - 104269" points="586,85 590,80 590,90 586,85 " style="stroke-width:1; stroke:black; fill:white; " id="dummy-22_h22_5_53" class="clusterblast-orf"  />
</g>
<g id="a22_0054"  >
<polygon locus_tag="BAP34753.1" description="&lt;b&gt;BAP34753.1&lt;/b&gt;&lt;br&gt;hypothetical protein&lt;br&gt;Location: 106414 - 107517" points="602,85 607,80 609,80 609,90 607,90 602,85 " style="stroke-width:1; stroke:black; fill:white; " id="dummy-22_h22_5_54" class="clusterblast-orf"  />
</g>
<g id="a22_0055"  >
<polygon locus_tag="BAP34754.1" description="&lt;b&gt;BAP34754.1&lt;/b&gt;&lt;br&gt;hypothetical protein&lt;br&gt;Location: 107471 - 108973" points="608,85 613,80 617,80 617,90 613,90 608,85 " style="stroke-width:1; stroke:black; fill:white; " id="dummy-22_h22_5_55" class="clusterblast-orf"  />
</g>
<g id="a22_0056"  >
<polygon locus_tag="BAP34755.1" description="&lt;b&gt;BAP34755.1&lt;/b&gt;&lt;br&gt;hypothetical protein&lt;br&gt;Location: 109004 - 109738" points="617,90 621,85 617,80 617,90 " style="stroke-width:1; stroke:black; fill:white; " id="dummy-22_h22_5_56" class="clusterblast-orf"  />
</g>
<g id="a22_0057"  >
<polygon locus_tag="BAP34756.1" description="&lt;b&gt;BAP34756.1&lt;/b&gt;&lt;br&gt;hypothetical protein&lt;br&gt;Location: 109890 - 110147" points="622,85 623,80 623,90 622,85 " style="stroke-width:1; stroke:black; fill:white; " id="dummy-22_h22_5_57" class="clusterblast-orf"  />
</g>
<g id="a22_0058"  >
<polygon locus_tag="BAP34757.1" description="&lt;b&gt;BAP34757.1&lt;/b&gt;&lt;br&gt;hypothetical protein&lt;br&gt;Location: 112262 - 112504" points="635,85 637,80 637,90 635,85 " style="stroke-width:1; stroke:black; fill:white; " id="dummy-22_h22_5_58" class="clusterblast-orf"  />
</g>
<g id="a22_0059"  >
<polygon locus_tag="BAP34758.1" description="&lt;b&gt;BAP34758.1&lt;/b&gt;&lt;br&gt;hypothetical protein&lt;br&gt;Location: 112454 - 112819" points="636,90 639,85 636,80 636,90 " style="stroke-width:1; stroke:black; fill:white; " id="dummy-22_h22_5_59" class="clusterblast-orf"  />
</g>
<g id="a22_0060"  >
<polygon locus_tag="BAP34759.1" description="&lt;b&gt;BAP34759.1&lt;/b&gt;&lt;br&gt;hypothetical protein&lt;br&gt;Location: 113029 - 113415" points="640,90 642,85 640,80 640,90 " style="stroke-width:1; stroke:black; fill:white; " id="dummy-22_h22_5_60" class="clusterblast-orf"  />
</g>
<g id="a22_0061"  >
<polygon locus_tag="BAP34760.1" description="&lt;b&gt;BAP34760.1&lt;/b&gt;&lt;br&gt;hypothetical protein&lt;br&gt;Location: 113419 - 114375" points="642,90 642,90 647,85 642,80 642,80 642,90 " style="stroke-width:1; stroke:black; fill:white; " id="dummy-22_h22_5_61" class="clusterblast-orf"  />
</g>
<g id="a22_0062"  >
<polygon locus_tag="BAP34761.1" description="&lt;b&gt;BAP34761.1&lt;/b&gt;&lt;br&gt;O-methyltransferase&lt;br&gt;Location: 114372 - 115568" points="647,90 649,90 654,85 649,80 647,80 647,90 " style="stroke-width:1; stroke:black; fill:white; " id="dummy-22_h22_5_62" class="clusterblast-orf"  />
</g>
<g id="a22_0063"  >
<polygon locus_tag="BAP34762.1" description="&lt;b&gt;BAP34762.1&lt;/b&gt;&lt;br&gt;secreted protein&lt;br&gt;Location: 116103 - 116555" points="657,85 660,80 660,90 657,85 " style="stroke-width:1; stroke:black; fill:white; " id="dummy-22_h22_5_63" class="clusterblast-orf"  />
</g>
<g id="a22_0064"  >
<polygon locus_tag="BAP34763.1" description="&lt;b&gt;BAP34763.1&lt;/b&gt;&lt;br&gt;type I polyketide synthase&lt;br&gt;Location: 116795 - 128485&lt;br&gt;&lt;br&gt;&lt;b&gt;BlastP hit with SSMG_05921&lt;/b&gt;&lt;br&gt;Percentage identity: 47&lt;br&gt;Percentage coverage: 107&lt;br&gt;BLAST bit score: 2841&lt;br&gt;E-value: 0.0&lt;br&gt;&lt;br&gt;&lt;b&gt;BlastP hit with SSMG_05922&lt;/b&gt;&lt;br&gt;Percentage identity: 46&lt;br&gt;Percentage coverage: 60&lt;br&gt;BLAST bit score: 734&lt;br&gt;E-value: 4e-211&lt;br&gt;&lt;br&gt;&lt;b&gt;BlastP hit with SSMG_05923&lt;/b&gt;&lt;br&gt;Percentage identity: 48&lt;br&gt;Percentage coverage: 105&lt;br&gt;BLAST bit score: 1417&lt;br&gt;E-value: 0.0&lt;br&gt;&lt;br&gt;&lt;b&gt;BlastP hit with SSMG_05929&lt;/b&gt;&lt;br&gt;Percentage identity: 47&lt;br&gt;Percentage coverage: 124&lt;br&gt;BLAST bit score: 3003&lt;br&gt;E-value: 0.0&lt;br&gt;&lt;br&gt;&lt;b&gt;BlastP hit with SSMG_05938&lt;/b&gt;&lt;br&gt;Percentage identity: 49&lt;br&gt;Percentage coverage: 104&lt;br&gt;BLAST bit score: 1559&lt;br&gt;E-value: 0.0&lt;br&gt;&lt;br&gt;&lt;b&gt;BlastP hit with SSMG_05939&lt;/b&gt;&lt;br&gt;Percentage identity: 48&lt;br&gt;Percentage coverage: 70&lt;br&gt;BLAST bit score: 2813&lt;br&gt;E-value: 0.0" points="661,85 666,80 727,80 727,90 666,90 661,85 " style="stroke-width:1; stroke:black; fill:#15bfd8; " id="dummy-22_h22_5_64" class="clusterblast-orf"  />
</g>
<g id="a22_0065"  >
<polygon locus_tag="BAP34764.1" description="&lt;b&gt;BAP34764.1&lt;/b&gt;&lt;br&gt;glyceryl-ACP oxidoreductase&lt;br&gt;Location: 129343 - 130209" points="732,90 732,90 737,85 732,80 732,80 732,90 " style="stroke-width:1; stroke:black; fill:white; " id="dummy-22_h22_5_65" class="clusterblast-orf"  />
</g>
<g id="a22_0066"  >
<polygon locus_tag="BAP34765.1" description="&lt;b&gt;BAP34765.1&lt;/b&gt;&lt;br&gt;acyl carrier protein&lt;br&gt;Location: 130206 - 130502" points="737,90 739,85 737,80 737,90 " style="stroke-width:1; stroke:black; fill:white; " id="dummy-22_h22_5_66" class="clusterblast-orf"  />
</g>
<g id="a22_0067"  >
<polygon locus_tag="BAP34766.1" description="&lt;b&gt;BAP34766.1&lt;/b&gt;&lt;br&gt;acyl-CoA dehydrogenase&lt;br&gt;Location: 130495 - 131727" points="739,90 741,90 746,85 741,80 739,80 739,90 " style="stroke-width:1; stroke:black; fill:white; " id="dummy-22_h22_5_67" class="clusterblast-orf"  />
</g>
<g id="a22_0068"  >
<polygon locus_tag="BAP34767.1" description="&lt;b&gt;BAP34767.1&lt;/b&gt;&lt;br&gt;FkbH-like protein&lt;br&gt;Location: 131744 - 132865" points="746,90 747,90 752,85 747,80 746,80 746,90 " style="stroke-width:1; stroke:black; fill:white; " id="dummy-22_h22_5_68" class="clusterblast-orf"  />
</g>
<g id="a22_0069"  >
<polygon locus_tag="BAP34768.1" description="&lt;b&gt;BAP34768.1&lt;/b&gt;&lt;br&gt;O-methyltransferase&lt;br&gt;Location: 133147 - 133809" points="754,85 757,80 757,90 754,85 " style="stroke-width:1; stroke:black; fill:white; " id="dummy-22_h22_5_69" class="clusterblast-orf"  />
</g>
<g id="a22_0070"  >
<polygon locus_tag="BAP34769.1" description="&lt;b&gt;BAP34769.1&lt;/b&gt;&lt;br&gt;hypothetical protein&lt;br&gt;Location: 134104 - 134511" points="759,90 761,85 759,80 759,90 " style="stroke-width:1; stroke:black; fill:white; " id="dummy-22_h22_5_70" class="clusterblast-orf"  />
</g>
<g id="a22_0071"  >
<polygon locus_tag="BAP34770.1" description="&lt;b&gt;BAP34770.1&lt;/b&gt;&lt;br&gt;spermidine synthase&lt;br&gt;Location: 134598 - 136205" points="762,85 767,80 771,80 771,90 767,90 762,85 " style="stroke-width:1; stroke:black; fill:white; " id="dummy-22_h22_5_71" class="clusterblast-orf"  />
</g>
<g id="a22_0072"  >
<polygon locus_tag="BAP34771.1" description="&lt;b&gt;BAP34771.1&lt;/b&gt;&lt;br&gt;hypothetical protein&lt;br&gt;Location: 136213 - 136650" points="771,85 774,80 774,90 771,85 " style="stroke-width:1; stroke:black; fill:white; " id="dummy-22_h22_5_72" class="clusterblast-orf"  />
</g>
<g id="a22_0073"  >
<polygon locus_tag="BAP34772.1" description="&lt;b&gt;BAP34772.1&lt;/b&gt;&lt;br&gt;hypothetical protein&lt;br&gt;Location: 136709 - 137125" points="774,85 776,80 776,90 774,85 " style="stroke-width:1; stroke:black; fill:white; " id="dummy-22_h22_5_73" class="clusterblast-orf"  />
</g>
<g id="a22_0074"  >
<polygon locus_tag="BAP34773.1" description="&lt;b&gt;BAP34773.1&lt;/b&gt;&lt;br&gt;hypothetical protein&lt;br&gt;Location: 137122 - 137706" points="776,85 780,80 780,90 776,85 " style="stroke-width:1; stroke:black; fill:white; " id="dummy-22_h22_5_74" class="clusterblast-orf"  />
</g>
</svg>
