<svg version="1.1" xmlns="http://www.w3.org/2000/svg" height="250" width="800" xmlns:xlink="http://www.w3.org/1999/xlink" preserveAspectRatio="none" x="0" y="0" viewBox="0 0 800 250"  >
<g label="Query sequence" class="clusterblast-cluster"  >
<text class="clusterblast-acc" y="20" x="5"  >
Query sequence</text>
<line x1="10" x2="778.0" y2="35" style="stroke-width:1; stroke:grey; " y1="35"  />
<polygon locus_tag="SSMG_02720" description="&lt;b&gt;SSMG_02720&lt;/b&gt;&lt;br&gt;beta-1,3-glucanase&lt;br&gt;Location: 2943276 - 2944449" points="64,35 69,30 95,30 95,40 69,40 64,35 " style="stroke-width:1; stroke:black; fill:white; " id="knownclusterblast-9_q0_0_all" class="clusterblast-orf"  />
<polygon locus_tag="SSMG_02721" description="&lt;b&gt;SSMG_02721&lt;/b&gt;&lt;br&gt;chitin-binding domain-containing protein&lt;br&gt;Location: 2944638 - 2945157" points="100,35 105,30 114,30 114,40 105,40 100,35 " style="stroke-width:1; stroke:black; fill:white; " id="knownclusterblast-9_q1_0_all" class="clusterblast-orf"  />
<polygon locus_tag="SSMG_02722" description="&lt;b&gt;SSMG_02722&lt;/b&gt;&lt;br&gt;LysR-family transcriptional regulator&lt;br&gt;Location: 2945951 - 2946902" points="134,35 139,30 159,30 159,40 139,40 134,35 " style="stroke-width:1; stroke:black; fill:white; " id="knownclusterblast-9_q2_0_all" class="clusterblast-orf"  />
<polygon locus_tag="SSMG_02723" description="&lt;b&gt;SSMG_02723&lt;/b&gt;&lt;br&gt;hypothetical protein&lt;br&gt;Location: 2946986 - 2948312" points="161,40 191,40 196,35 191,30 161,30 161,40 " style="stroke-width:1; stroke:black; fill:white; " id="knownclusterblast-9_q3_0_all" class="clusterblast-orf"  />
<polygon locus_tag="SSMG_02724" description="&lt;b&gt;SSMG_02724&lt;/b&gt;&lt;br&gt;IS901 protein&lt;br&gt;Location: 2948210 - 2949422" points="193,35 198,30 225,30 225,40 198,40 193,35 " style="stroke-width:1; stroke:black; fill:white; " id="knownclusterblast-9_q4_0_all" class="clusterblast-orf"  />
<polygon locus_tag="SSMG_02725" description="&lt;b&gt;SSMG_02725&lt;/b&gt;&lt;br&gt;conserved hypothetical protein&lt;br&gt;Location: 2949650 - 2950073" points="231,40 237,40 242,35 237,30 231,30 231,40 " style="stroke-width:1; stroke:black; fill:white; " id="knownclusterblast-9_q5_0_all" class="clusterblast-orf"  />
<polygon locus_tag="SSMG_02726" description="&lt;b&gt;SSMG_02726&lt;/b&gt;&lt;br&gt;radical SAM domain-containing protein&lt;br&gt;Location: 2950637 - 2951639" points="257,35 262,30 283,30 283,40 262,40 257,35 " style="stroke-width:1; stroke:black; fill:#d81515; " id="knownclusterblast-9_q6_0_all" class="clusterblast-orf"  />
<polygon locus_tag="SSMG_02727" description="&lt;b&gt;SSMG_02727&lt;/b&gt;&lt;br&gt;LytB protein&lt;br&gt;Location: 2951642 - 2953106" points="283,35 288,30 322,30 322,40 288,40 283,35 " style="stroke-width:1; stroke:black; fill:#15d815; " id="knownclusterblast-9_q7_0_all" class="clusterblast-orf"  />
<polygon locus_tag="SSMG_02728" description="&lt;b&gt;SSMG_02728&lt;/b&gt;&lt;br&gt;squalene-hopene cyclase&lt;br&gt;Location: 2953102 - 2955016" points="321,35 326,30 372,30 372,40 326,40 321,35 " style="stroke-width:1; stroke:black; fill:#1515d8; " id="knownclusterblast-9_q8_0_all" class="clusterblast-orf"  />
<polygon locus_tag="SSMG_02729" description="&lt;b&gt;SSMG_02729&lt;/b&gt;&lt;br&gt;polyprenyl diphosphate synthase&lt;br&gt;Location: 2955012 - 2956044" points="371,35 376,30 398,30 398,40 376,40 371,35 " style="stroke-width:1; stroke:black; fill:#d815d8; " id="knownclusterblast-9_q9_0_all" class="clusterblast-orf"  />
<polygon locus_tag="SSMG_02730" description="&lt;b&gt;SSMG_02730&lt;/b&gt;&lt;br&gt;phytoene desaturase&lt;br&gt;Location: 2956040 - 2957378" points="398,35 403,30 433,30 433,40 403,40 398,35 " style="stroke-width:1; stroke:black; fill:#d8d815; " id="knownclusterblast-9_q10_0_all" class="clusterblast-orf"  />
<polygon locus_tag="SSMG_02731" description="&lt;b&gt;SSMG_02731&lt;/b&gt;&lt;br&gt;squalene synthase HpnD&lt;br&gt;Location: 2957374 - 2958286" points="433,35 438,30 457,30 457,40 438,40 433,35 " style="stroke-width:1; stroke:black; fill:#15d8d8; " id="knownclusterblast-9_q11_0_all" class="clusterblast-orf"  />
<polygon locus_tag="SSMG_02732" description="&lt;b&gt;SSMG_02732&lt;/b&gt;&lt;br&gt;squalene synthase HpnC&lt;br&gt;Location: 2958240 - 2959029" points="456,35 461,30 477,30 477,40 461,40 456,35 " style="stroke-width:1; stroke:black; fill:white; " id="knownclusterblast-9_q12_0_all" class="clusterblast-orf"  />
<polygon locus_tag="SSMG_02733" description="&lt;b&gt;SSMG_02733&lt;/b&gt;&lt;br&gt;predicted protein&lt;br&gt;Location: 2959080 - 2960454" points="478,40 509,40 514,35 509,30 478,30 478,40 " style="stroke-width:1; stroke:black; fill:white; " id="knownclusterblast-9_q13_0_all" class="clusterblast-orf"  />
<polygon locus_tag="SSMG_02734" description="&lt;b&gt;SSMG_02734&lt;/b&gt;&lt;br&gt;2-hydroxycyclohexanecarboxyl-CoA dehydrogenase&lt;br&gt;Location: 2960567 - 2961398" points="517,35 522,30 539,30 539,40 522,40 517,35 " style="stroke-width:1; stroke:black; fill:white; " id="knownclusterblast-9_q14_0_all" class="clusterblast-orf"  />
<polygon locus_tag="SSMG_02735" description="&lt;b&gt;SSMG_02735&lt;/b&gt;&lt;br&gt;predicted protein&lt;br&gt;Location: 2961316 - 2961982" points="536,35 541,30 554,30 554,40 541,40 536,35 " style="stroke-width:1; stroke:black; fill:white; " id="knownclusterblast-9_q15_0_all" class="clusterblast-orf"  />
<polygon locus_tag="SSMG_02736" description="&lt;b&gt;SSMG_02736&lt;/b&gt;&lt;br&gt;predicted protein&lt;br&gt;Location: 2962143 - 2963064" points="558,40 577,40 582,35 577,30 558,30 558,40 " style="stroke-width:1; stroke:black; fill:white; " id="knownclusterblast-9_q16_0_all" class="clusterblast-orf"  />
<polygon locus_tag="SSMG_02737" description="&lt;b&gt;SSMG_02737&lt;/b&gt;&lt;br&gt;predicted protein&lt;br&gt;Location: 2963089 - 2965924" points="583,40 652,40 657,35 652,30 583,30 583,40 " style="stroke-width:1; stroke:black; fill:white; " id="knownclusterblast-9_q17_0_all" class="clusterblast-orf"  />
<polygon locus_tag="SSMG_02738" description="&lt;b&gt;SSMG_02738&lt;/b&gt;&lt;br&gt;conserved hypothetical protein&lt;br&gt;Location: 2965924 - 2966659" points="657,35 662,30 676,30 676,40 662,40 657,35 " style="stroke-width:1; stroke:black; fill:white; " id="knownclusterblast-9_q18_0_all" class="clusterblast-orf"  />
<polygon locus_tag="SSMG_02739" description="&lt;b&gt;SSMG_02739&lt;/b&gt;&lt;br&gt;peptide-methionine (S)-S-oxide reductase&lt;br&gt;Location: 2966662 - 2967160" points="676,35 681,30 689,30 689,40 681,40 676,35 " style="stroke-width:1; stroke:black; fill:white; " id="knownclusterblast-9_q19_0_all" class="clusterblast-orf"  />
<polygon locus_tag="SSMG_02740" description="&lt;b&gt;SSMG_02740&lt;/b&gt;&lt;br&gt;predicted protein&lt;br&gt;Location: 2967240 - 2968146" points="691,35 696,30 715,30 715,40 696,40 691,35 " style="stroke-width:1; stroke:black; fill:white; " id="knownclusterblast-9_q20_0_all" class="clusterblast-orf"  />
</g>
<g label="BGC0000663" description="BGC0000663_c1: hopene (38% of genes show similarity), Terpene" class="clusterblast-cluster"  >
<text class="clusterblast-acc" y="70" x="5"  >
<a xlink:href="https://mibig.secondarymetabolites.org/go/BGC0000663/1" target="_blank">BGC0000663</a>:                                                                           hopene (38% of genes show similarity), Terpene</text>
<line x1="10" x2="778.0" y2="85" style="stroke-width:1; stroke:grey; " y1="85"  />
</g>
<g id="a9_000"  >
<polygon locus_tag="CAB39704.1" description="&lt;b&gt;CAB39704.1&lt;/b&gt;&lt;br&gt;putative small hydrophobic secreted protein&lt;br&gt;Location: 13757 - 13638" points="210,85 213,80 213,90 210,85 " style="stroke-width:1; stroke:black; fill:white; " id="knownclusterblast-9_all_9_1_0" class="clusterblast-orf"  />
</g>
<g id="a9_001"  >
<polygon locus_tag="CAB39703.1" description="&lt;b&gt;CAB39703.1&lt;/b&gt;&lt;br&gt;putative DNA-binding protein&lt;br&gt;Location: 13641 - 13027" points="213,85 218,80 229,80 229,90 218,90 213,85 " style="stroke-width:1; stroke:black; fill:white; " id="knownclusterblast-9_all_9_1_1" class="clusterblast-orf"  />
</g>
<g id="a9_002"  >
<polygon locus_tag="CAB39702.1" description="&lt;b&gt;CAB39702.1&lt;/b&gt;&lt;br&gt;probable aminotransferase&lt;br&gt;Location: 12953 - 11568" points="231,85 236,80 267,80 267,90 236,90 231,85 " style="stroke-width:1; stroke:black; fill:white; " id="knownclusterblast-9_all_9_1_2" class="clusterblast-orf"  />
</g>
<g id="a9_003"  >
<polygon locus_tag="CAB39701.1" description="&lt;b&gt;CAB39701.1&lt;/b&gt;&lt;br&gt;probable transketolase&lt;br&gt;Location: 11567 - 9597" points="267,85 272,80 318,80 318,90 272,90 267,85 " style="stroke-width:1; stroke:black; fill:white; " id="knownclusterblast-9_all_9_1_3" class="clusterblast-orf"  />
</g>
<g id="a9_004"  >
<polygon locus_tag="CAB39700.1" description="&lt;b&gt;CAB39700.1&lt;/b&gt;&lt;br&gt;GcpE protein homolog, conserved hypothetical protein&lt;br&gt;Location: 9571 - 8417" points="319,85 324,80 349,80 349,90 324,90 319,85 " style="stroke-width:1; stroke:black; fill:white; " id="knownclusterblast-9_all_9_1_4" class="clusterblast-orf"  />
</g>
<g id="a9_005"  >
<polygon locus_tag="CAB39699.1" description="&lt;b&gt;CAB39699.1&lt;/b&gt;&lt;br&gt;conserved hypothetical protein&lt;br&gt;Location: 8412 - 7390&lt;br&gt;&lt;br&gt;&lt;b&gt;BlastP hit with SSMG_02726&lt;/b&gt;&lt;br&gt;Percentage identity: 72&lt;br&gt;Percentage coverage: 99&lt;br&gt;BLAST bit score: 514&lt;br&gt;E-value: 1.4e-145" points="349,85 354,80 376,80 376,90 354,90 349,85 " style="stroke-width:1; stroke:black; fill:#d81515; " id="knownclusterblast-9_all_9_1_5" class="clusterblast-orf"  />
</g>
<g id="a9_006"  >
<polygon locus_tag="CAB39698.1" description="&lt;b&gt;CAB39698.1&lt;/b&gt;&lt;br&gt;putative lipoprotein&lt;br&gt;Location: 7383 - 6742" points="376,85 381,80 393,80 393,90 381,90 376,85 " style="stroke-width:1; stroke:black; fill:white; " id="knownclusterblast-9_all_9_1_6" class="clusterblast-orf"  />
</g>
<g id="a9_007"  >
<polygon locus_tag="CAB39697.1" description="&lt;b&gt;CAB39697.1&lt;/b&gt;&lt;br&gt;putative squalene-hopene cyclase&lt;br&gt;Location: 6742 - 4700&lt;br&gt;&lt;br&gt;&lt;b&gt;BlastP hit with SSMG_02728&lt;/b&gt;&lt;br&gt;Percentage identity: 61&lt;br&gt;Percentage coverage: 100&lt;br&gt;BLAST bit score: 736&lt;br&gt;E-value: 4.3e-212" points="393,85 398,80 447,80 447,90 398,90 393,85 " style="stroke-width:1; stroke:black; fill:#1515d8; " id="knownclusterblast-9_all_9_1_7" class="clusterblast-orf"  />
</g>
<g id="a9_008"  >
<polygon locus_tag="CAB39696.1" description="&lt;b&gt;CAB39696.1&lt;/b&gt;&lt;br&gt;putative polyprenyl synthatase&lt;br&gt;Location: 4583 - 3447&lt;br&gt;&lt;br&gt;&lt;b&gt;BlastP hit with SSMG_02729&lt;/b&gt;&lt;br&gt;Percentage identity: 51&lt;br&gt;Percentage coverage: 100&lt;br&gt;BLAST bit score: 310&lt;br&gt;E-value: 3.1e-84" points="450,85 455,80 479,80 479,90 455,90 450,85 " style="stroke-width:1; stroke:black; fill:#d815d8; " id="knownclusterblast-9_all_9_1_8" class="clusterblast-orf"  />
</g>
<g id="a9_009"  >
<polygon locus_tag="CAB39695.1" description="&lt;b&gt;CAB39695.1&lt;/b&gt;&lt;br&gt;putative phytoene dehydrogenase&lt;br&gt;Location: 3450 - 2014&lt;br&gt;&lt;br&gt;&lt;b&gt;BlastP hit with SSMG_02730&lt;/b&gt;&lt;br&gt;Percentage identity: 57&lt;br&gt;Percentage coverage: 91&lt;br&gt;BLAST bit score: 408&lt;br&gt;E-value: 1.9e-113" points="479,85 484,80 517,80 517,90 484,90 479,85 " style="stroke-width:1; stroke:black; fill:#d8d815; " id="knownclusterblast-9_all_9_1_9" class="clusterblast-orf"  />
</g>
<g id="a9_0010"  >
<polygon locus_tag="CAB39694.1" description="&lt;b&gt;CAB39694.1&lt;/b&gt;&lt;br&gt;small hypothetical protein&lt;br&gt;Location: 2017 - 1859" points="517,85 521,80 521,90 517,85 " style="stroke-width:1; stroke:black; fill:white; " id="knownclusterblast-9_all_9_1_10" class="clusterblast-orf"  />
</g>
<g id="a9_0011"  >
<polygon locus_tag="CAB39693.1" description="&lt;b&gt;CAB39693.1&lt;/b&gt;&lt;br&gt;putative phytoene synthase&lt;br&gt;Location: 1859 - 921&lt;br&gt;&lt;br&gt;&lt;b&gt;BlastP hit with SSMG_02731&lt;/b&gt;&lt;br&gt;Percentage identity: 52&lt;br&gt;Percentage coverage: 95&lt;br&gt;BLAST bit score: 277&lt;br&gt;E-value: 2e-74" points="521,85 526,80 545,80 545,90 526,90 521,85 " style="stroke-width:1; stroke:black; fill:#15d8d8; " id="knownclusterblast-9_all_9_1_11" class="clusterblast-orf"  />
</g>
<g id="a9_0012"  >
<polygon locus_tag="CAB39692.1" description="&lt;b&gt;CAB39692.1&lt;/b&gt;&lt;br&gt;putative phytoene synthase&lt;br&gt;Location: 912 - 1" points="546,85 551,80 569,80 569,90 551,90 546,85 " style="stroke-width:1; stroke:black; fill:white; " id="knownclusterblast-9_all_9_1_12" class="clusterblast-orf"  />
</g>
<g label="BGC0000386" description="BGC0000386_c1: malleobactin A / malleobactin B / malleobactin C / malleobactin D (7% of genes show similarity), NRP:NRP siderophore" class="clusterblast-cluster"  >
<text class="clusterblast-acc" y="120" x="5"  >
<a xlink:href="https://mibig.secondarymetabolites.org/go/BGC0000386/1" target="_blank">BGC0000386</a>:                malleobactin A / malleobactin B / malleobactin C / malleobactin D (7% of genes show similarity), NRP:NRP siderophore</text>
<line x1="10" x2="778.0" y2="135" style="stroke-width:1; stroke:grey; " y1="135"  />
</g>
<g id="a9_000"  >
<polygon locus_tag="BTH_II2264" description="&lt;b&gt;BTH_II2264&lt;/b&gt;&lt;br&gt;Flp/Fap pilin component superfamily&lt;br&gt;Location: 30061 - 29843" points="0,135 5,130 5,130 5,140 5,140 0,135 " style="stroke-width:1; stroke:black; fill:white; " id="knownclusterblast-9_all_9_2_0" class="clusterblast-orf"  />
</g>
<g id="a9_001"  >
<polygon locus_tag="BTH_II2263" description="&lt;b&gt;BTH_II2263&lt;/b&gt;&lt;br&gt;PilA-related protein&lt;br&gt;Location: 29735 - 29565" points="8,135 12,130 12,140 8,135 " style="stroke-width:1; stroke:black; fill:white; " id="knownclusterblast-9_all_9_2_1" class="clusterblast-orf"  />
</g>
<g id="a9_002"  >
<polygon locus_tag="BTH_II2262" description="&lt;b&gt;BTH_II2262&lt;/b&gt;&lt;br&gt;membrane protein, putative&lt;br&gt;Location: 28461 - 27217" points="41,140 69,140 74,135 69,130 41,130 41,140 " style="stroke-width:1; stroke:black; fill:white; " id="knownclusterblast-9_all_9_2_2" class="clusterblast-orf"  />
</g>
<g id="a9_003"  >
<polygon locus_tag="BTH_II2261" description="&lt;b&gt;BTH_II2261&lt;/b&gt;&lt;br&gt;membrane protein, putative&lt;br&gt;Location: 27220 - 25796" points="74,140 106,140 111,135 106,130 74,130 74,140 " style="stroke-width:1; stroke:black; fill:white; " id="knownclusterblast-9_all_9_2_3" class="clusterblast-orf"  />
</g>
<g id="a9_004"  >
<polygon locus_tag="BTH_II2260" description="&lt;b&gt;BTH_II2260&lt;/b&gt;&lt;br&gt;Bactoprenol glucosyl transferase&lt;br&gt;Location: 25811 - 24750" points="111,140 133,140 138,135 133,130 111,130 111,140 " style="stroke-width:1; stroke:black; fill:white; " id="knownclusterblast-9_all_9_2_4" class="clusterblast-orf"  />
</g>
<g id="a9_005"  >
<polygon locus_tag="BTH_II2259" description="&lt;b&gt;BTH_II2259&lt;/b&gt;&lt;br&gt;Generic methyltransferase&lt;br&gt;Location: 24722 - 23976" points="139,140 154,140 159,135 154,130 139,130 139,140 " style="stroke-width:1; stroke:black; fill:white; " id="knownclusterblast-9_all_9_2_5" class="clusterblast-orf"  />
</g>
<g id="a9_006"  >
<polygon locus_tag="BTH_II2258" description="&lt;b&gt;BTH_II2258&lt;/b&gt;&lt;br&gt;GtrA-like protein family&lt;br&gt;Location: 23979 - 23593" points="159,140 164,140 169,135 164,130 159,130 159,140 " style="stroke-width:1; stroke:black; fill:white; " id="knownclusterblast-9_all_9_2_6" class="clusterblast-orf"  />
</g>
<g id="a9_007"  >
<polygon locus_tag="BTH_II2257" description="&lt;b&gt;BTH_II2257&lt;/b&gt;&lt;br&gt;glyoxalase family protein superfamily&lt;br&gt;Location: 23461 - 23267" points="172,140 172,140 177,135 172,130 172,130 172,140 " style="stroke-width:1; stroke:black; fill:white; " id="knownclusterblast-9_all_9_2_7" class="clusterblast-orf"  />
</g>
<g id="a9_008"  >
<polygon locus_tag="BTH_II2256" description="&lt;b&gt;BTH_II2256&lt;/b&gt;&lt;br&gt;transcriptional regulator, LysR family, putative&lt;br&gt;Location: 23291 - 22290" points="177,135 182,130 203,130 203,140 182,140 177,135 " style="stroke-width:1; stroke:black; fill:white; " id="knownclusterblast-9_all_9_2_8" class="clusterblast-orf"  />
</g>
<g id="a9_009"  >
<polygon locus_tag="BTH_II2255" description="&lt;b&gt;BTH_II2255&lt;/b&gt;&lt;br&gt;MlrC C-terminus family&lt;br&gt;Location: 22199 - 20622" points="205,140 241,140 246,135 241,130 205,130 205,140 " style="stroke-width:1; stroke:black; fill:white; " id="knownclusterblast-9_all_9_2_9" class="clusterblast-orf"  />
</g>
<g id="a9_0010"  >
<polygon locus_tag="BTH_II2254" description="&lt;b&gt;BTH_II2254&lt;/b&gt;&lt;br&gt;epoxide hydrolase&lt;br&gt;Location: 20443 - 19400" points="251,140 273,140 278,135 273,130 251,130 251,140 " style="stroke-width:1; stroke:black; fill:white; " id="knownclusterblast-9_all_9_2_10" class="clusterblast-orf"  />
</g>
<g id="a9_0011"  >
<polygon locus_tag="BTH_II2253" description="&lt;b&gt;BTH_II2253&lt;/b&gt;&lt;br&gt;cytochrome p460&lt;br&gt;Location: 19382 - 18870" points="279,140 287,140 292,135 287,130 279,130 279,140 " style="stroke-width:1; stroke:black; fill:white; " id="knownclusterblast-9_all_9_2_11" class="clusterblast-orf"  />
</g>
<g id="a9_0012"  >
<polygon locus_tag="BTH_II2252" description="&lt;b&gt;BTH_II2252&lt;/b&gt;&lt;br&gt;carbon starvation protein A&lt;br&gt;Location: 18611 - 16533" points="299,140 348,140 353,135 348,130 299,130 299,140 " style="stroke-width:1; stroke:black; fill:white; " id="knownclusterblast-9_all_9_2_12" class="clusterblast-orf"  />
</g>
<g id="a9_0013"  >
<polygon locus_tag="BTH_II2251" description="&lt;b&gt;BTH_II2251&lt;/b&gt;&lt;br&gt;Uncharacterized small protein&lt;br&gt;Location: 16520 - 16314" points="354,140 354,140 359,135 354,130 354,130 354,140 " style="stroke-width:1; stroke:black; fill:white; " id="knownclusterblast-9_all_9_2_13" class="clusterblast-orf"  />
</g>
<g id="a9_0014"  >
<polygon locus_tag="BTH_II2250" description="&lt;b&gt;BTH_II2250&lt;/b&gt;&lt;br&gt;conserved hypothetical protein&lt;br&gt;Location: 16144 - 15698" points="364,135 369,130 375,130 375,140 369,140 364,135 " style="stroke-width:1; stroke:black; fill:white; " id="knownclusterblast-9_all_9_2_14" class="clusterblast-orf"  />
</g>
<g id="a9_0015"  >
<polygon locus_tag="BTH_II2249" description="&lt;b&gt;BTH_II2249&lt;/b&gt;&lt;br&gt;glutamate-1-semialdehyde aminotransferase&lt;br&gt;Location: 15388 - 13715" points="383,135 388,130 427,130 427,140 388,140 383,135 " style="stroke-width:1; stroke:black; fill:white; " id="knownclusterblast-9_all_9_2_15" class="clusterblast-orf"  />
</g>
<g id="a9_0016"  >
<polygon locus_tag="BTH_II2248" description="&lt;b&gt;BTH_II2248&lt;/b&gt;&lt;br&gt;conserved hypothetical protein&lt;br&gt;Location: 13755 - 13036" points="426,135 431,130 445,130 445,140 431,140 426,135 " style="stroke-width:1; stroke:black; fill:white; " id="knownclusterblast-9_all_9_2_16" class="clusterblast-orf"  />
</g>
<g id="a9_0017"  >
<polygon locus_tag="BTH_II2247" description="&lt;b&gt;BTH_II2247&lt;/b&gt;&lt;br&gt;transcriptional regulator, LysR family&lt;br&gt;Location: 12740 - 11817" points="453,135 458,130 477,130 477,140 458,140 453,135 " style="stroke-width:1; stroke:black; fill:white; " id="knownclusterblast-9_all_9_2_17" class="clusterblast-orf"  />
</g>
<g id="a9_0018"  >
<polygon locus_tag="BTH_II2246" description="&lt;b&gt;BTH_II2246&lt;/b&gt;&lt;br&gt;ISBm1, transposase orfB, degenerate&lt;br&gt;Location: 11302 - 10691" points="490,135 495,130 506,130 506,140 495,140 490,135 " style="stroke-width:1; stroke:black; fill:white; " id="knownclusterblast-9_all_9_2_18" class="clusterblast-orf"  />
</g>
<g id="a9_0019"  >
<polygon locus_tag="BTH_II2245" description="&lt;b&gt;BTH_II2245&lt;/b&gt;&lt;br&gt;conserved hypothetical protein&lt;br&gt;Location: 10481 - 10128" points="512,135 517,130 521,130 521,140 517,140 512,135 " style="stroke-width:1; stroke:black; fill:white; " id="knownclusterblast-9_all_9_2_19" class="clusterblast-orf"  />
</g>
<g id="a9_0020"  >
<polygon locus_tag="BTH_II2244" description="&lt;b&gt;BTH_II2244&lt;/b&gt;&lt;br&gt;radical SAM domain protein&lt;br&gt;Location: 9579 - 8464&lt;br&gt;&lt;br&gt;&lt;b&gt;BlastP hit with SSMG_02726&lt;/b&gt;&lt;br&gt;Percentage identity: 47&lt;br&gt;Percentage coverage: 95&lt;br&gt;BLAST bit score: 341&lt;br&gt;E-value: 2.1e-93" points="535,135 540,130 565,130 565,140 540,140 535,135 " style="stroke-width:1; stroke:black; fill:#d81515; " id="knownclusterblast-9_all_9_2_20" class="clusterblast-orf"  />
</g>
<g id="a9_0021"  >
<polygon locus_tag="BTH_II2243" description="&lt;b&gt;BTH_II2243&lt;/b&gt;&lt;br&gt;4-hydroxy-3-methylbut-2-enyl diphosphate reductase&lt;br&gt;Location: 8406 - 7465&lt;br&gt;&lt;br&gt;&lt;b&gt;BlastP hit with SSMG_02727&lt;/b&gt;&lt;br&gt;Percentage identity: 51&lt;br&gt;Percentage coverage: 62&lt;br&gt;BLAST bit score: 296&lt;br&gt;E-value: 6.7e-80" points="566,135 571,130 591,130 591,140 571,140 566,135 " style="stroke-width:1; stroke:black; fill:#15d815; " id="knownclusterblast-9_all_9_2_21" class="clusterblast-orf"  />
</g>
<g id="a9_0022"  >
<polygon locus_tag="BTH_II2242" description="&lt;b&gt;BTH_II2242&lt;/b&gt;&lt;br&gt;glycosyl transferase, group 2 family protein&lt;br&gt;Location: 7080 - 5887" points="601,140 627,140 632,135 627,130 601,130 601,140 " style="stroke-width:1; stroke:black; fill:white; " id="knownclusterblast-9_all_9_2_22" class="clusterblast-orf"  />
</g>
<g id="a9_0023"  >
<polygon locus_tag="BTH_II2241" description="&lt;b&gt;BTH_II2241&lt;/b&gt;&lt;br&gt;dihydroflavonol-4-reductase family protein&lt;br&gt;Location: 4172 - 3156" points="677,135 682,130 703,130 703,140 682,140 677,135 " style="stroke-width:1; stroke:black; fill:white; " id="knownclusterblast-9_all_9_2_23" class="clusterblast-orf"  />
</g>
<g id="a9_0024"  >
<polygon locus_tag="BTH_II2240" description="&lt;b&gt;BTH_II2240&lt;/b&gt;&lt;br&gt;acylphosphatase&lt;br&gt;Location: 3175 - 2708" points="703,140 710,140 715,135 710,130 703,130 703,140 " style="stroke-width:1; stroke:black; fill:white; " id="knownclusterblast-9_all_9_2_24" class="clusterblast-orf"  />
</g>
<g id="a9_0025"  >
<polygon locus_tag="BTH_II2239" description="&lt;b&gt;BTH_II2239&lt;/b&gt;&lt;br&gt;rarD protein&lt;br&gt;Location: 2711 - 1818" points="715,140 733,140 738,135 733,130 715,130 715,140 " style="stroke-width:1; stroke:black; fill:white; " id="knownclusterblast-9_all_9_2_25" class="clusterblast-orf"  />
</g>
<g id="a9_0026"  >
<polygon locus_tag="BTH_II2238" description="&lt;b&gt;BTH_II2238&lt;/b&gt;&lt;br&gt;OpgC protein, putative&lt;br&gt;Location: 1350 - 250" points="751,140 775,140 780,135 775,130 751,130 751,140 " style="stroke-width:1; stroke:black; fill:white; " id="knownclusterblast-9_all_9_2_26" class="clusterblast-orf"  />
</g>
<g label="BGC0000666" description="BGC0000666_c1: xiamycin A (9% of genes show similarity), Terpene" class="clusterblast-cluster"  >
<text class="clusterblast-acc" y="170" x="5"  >
<a xlink:href="https://mibig.secondarymetabolites.org/go/BGC0000666/1" target="_blank">BGC0000666</a>:                                                                       xiamycin A (9% of genes show similarity), Terpene</text>
<line x1="10" x2="778.0" y2="185" style="stroke-width:1; stroke:grey; " y1="185"  />
</g>
<g id="a9_000"  >
<polygon locus_tag="AFK78086.1" description="&lt;b&gt;AFK78086.1&lt;/b&gt;&lt;br&gt;putative sodium-coupled permease&lt;br&gt;Location: 29371 - 27845" points="5,185 10,180 45,180 45,190 10,190 5,185 " style="stroke-width:1; stroke:black; fill:white; " id="knownclusterblast-9_all_9_3_0" class="clusterblast-orf"  />
</g>
<g id="a9_001"  >
<polygon locus_tag="AFK78085.1" description="&lt;b&gt;AFK78085.1&lt;/b&gt;&lt;br&gt;putative bacillolysin&lt;br&gt;Location: 27486 - 27049" points="55,185 60,180 66,180 66,190 60,190 55,185 " style="stroke-width:1; stroke:black; fill:white; " id="knownclusterblast-9_all_9_3_1" class="clusterblast-orf"  />
</g>
<g id="a9_002"  >
<polygon locus_tag="AFK78084.1" description="&lt;b&gt;AFK78084.1&lt;/b&gt;&lt;br&gt;XiaR&lt;br&gt;Location: 26792 - 24018" points="73,185 78,180 145,180 145,190 78,190 73,185 " style="stroke-width:1; stroke:black; fill:white; " id="knownclusterblast-9_all_9_3_2" class="clusterblast-orf"  />
</g>
<g id="a9_003"  >
<polygon locus_tag="AFK78083.1" description="&lt;b&gt;AFK78083.1&lt;/b&gt;&lt;br&gt;XiaQ&lt;br&gt;Location: 23875 - 20897" points="149,190 222,190 227,185 222,180 149,180 149,190 " style="stroke-width:1; stroke:black; fill:white; " id="knownclusterblast-9_all_9_3_3" class="clusterblast-orf"  />
</g>
<g id="a9_004"  >
<polygon locus_tag="AFK78082.1" description="&lt;b&gt;AFK78082.1&lt;/b&gt;&lt;br&gt;XiaP&lt;br&gt;Location: 20802 - 19795" points="229,190 251,190 256,185 251,180 229,180 229,190 " style="stroke-width:1; stroke:black; fill:white; " id="knownclusterblast-9_all_9_3_4" class="clusterblast-orf"  />
</g>
<g id="a9_005"  >
<polygon locus_tag="AFK78081.1" description="&lt;b&gt;AFK78081.1&lt;/b&gt;&lt;br&gt;epoxidase&lt;br&gt;Location: 19766 - 17610" points="257,190 308,190 313,185 308,180 257,180 257,190 " style="stroke-width:1; stroke:black; fill:white; " id="knownclusterblast-9_all_9_3_5" class="clusterblast-orf"  />
</g>
<g id="a9_006"  >
<polygon locus_tag="AFK78080.1" description="&lt;b&gt;AFK78080.1&lt;/b&gt;&lt;br&gt;XiaN&lt;br&gt;Location: 17482 - 16457&lt;br&gt;&lt;br&gt;&lt;b&gt;BlastP hit with SSMG_02729&lt;/b&gt;&lt;br&gt;Percentage identity: 50&lt;br&gt;Percentage coverage: 96&lt;br&gt;BLAST bit score: 276&lt;br&gt;E-value: 6.6e-74" points="316,190 338,190 343,185 338,180 316,180 316,190 " style="stroke-width:1; stroke:black; fill:#d815d8; " id="knownclusterblast-9_all_9_3_6" class="clusterblast-orf"  />
</g>
<g id="a9_007"  >
<polygon locus_tag="AFK78079.1" description="&lt;b&gt;AFK78079.1&lt;/b&gt;&lt;br&gt;carboxylase&lt;br&gt;Location: 16318 - 15149" points="347,190 372,190 377,185 372,180 347,180 347,190 " style="stroke-width:1; stroke:black; fill:white; " id="knownclusterblast-9_all_9_3_7" class="clusterblast-orf"  />
</g>
<g id="a9_008"  >
<polygon locus_tag="AFK78078.1" description="&lt;b&gt;AFK78078.1&lt;/b&gt;&lt;br&gt;XiaL&lt;br&gt;Location: 15123 - 14890" points="378,190 379,190 384,185 379,180 378,180 378,190 " style="stroke-width:1; stroke:black; fill:white; " id="knownclusterblast-9_all_9_3_8" class="clusterblast-orf"  />
</g>
<g id="a9_009"  >
<polygon locus_tag="AFK78077.1" description="&lt;b&gt;AFK78077.1&lt;/b&gt;&lt;br&gt;C,N- and N,N dimerization&lt;br&gt;Location: 14890 - 13100" points="384,190 426,190 431,185 426,180 384,180 384,190 " style="stroke-width:1; stroke:black; fill:white; " id="knownclusterblast-9_all_9_3_9" class="clusterblast-orf"  />
</g>
<g id="a9_0010"  >
<polygon locus_tag="AFK78076.1" description="&lt;b&gt;AFK78076.1&lt;/b&gt;&lt;br&gt;XiaJ&lt;br&gt;Location: 13097 - 12708" points="431,190 436,190 441,185 436,180 431,180 431,190 " style="stroke-width:1; stroke:black; fill:white; " id="knownclusterblast-9_all_9_3_10" class="clusterblast-orf"  />
</g>
<g id="a9_0011"  >
<polygon locus_tag="AFK78075.1" description="&lt;b&gt;AFK78075.1&lt;/b&gt;&lt;br&gt;oxidative terpene cyclase&lt;br&gt;Location: 12705 - 11512" points="441,190 468,190 473,185 468,180 441,180 441,190 " style="stroke-width:1; stroke:black; fill:white; " id="knownclusterblast-9_all_9_3_11" class="clusterblast-orf"  />
</g>
<g id="a9_0012"  >
<polygon locus_tag="AFK78074.1" description="&lt;b&gt;AFK78074.1&lt;/b&gt;&lt;br&gt;terpene cyclase&lt;br&gt;Location: 11445 - 10645" points="474,190 490,190 495,185 490,180 474,180 474,190 " style="stroke-width:1; stroke:black; fill:white; " id="knownclusterblast-9_all_9_3_12" class="clusterblast-orf"  />
</g>
<g id="a9_0013"  >
<polygon locus_tag="AFK78073.1" description="&lt;b&gt;AFK78073.1&lt;/b&gt;&lt;br&gt;XiaG&lt;br&gt;Location: 10652 - 9930" points="495,185 500,180 514,180 514,190 500,190 495,185 " style="stroke-width:1; stroke:black; fill:white; " id="knownclusterblast-9_all_9_3_13" class="clusterblast-orf"  />
</g>
<g id="a9_0014"  >
<polygon locus_tag="AFK78072.1" description="&lt;b&gt;AFK78072.1&lt;/b&gt;&lt;br&gt;XiaF&lt;br&gt;Location: 9482 - 8331" points="526,185 531,180 556,180 556,190 531,190 526,185 " style="stroke-width:1; stroke:black; fill:white; " id="knownclusterblast-9_all_9_3_14" class="clusterblast-orf"  />
</g>
<g id="a9_0015"  >
<polygon locus_tag="AFK78071.1" description="&lt;b&gt;AFK78071.1&lt;/b&gt;&lt;br&gt;XiaE&lt;br&gt;Location: 8334 - 6517" points="556,185 561,180 603,180 603,190 561,190 556,185 " style="stroke-width:1; stroke:black; fill:white; " id="knownclusterblast-9_all_9_3_15" class="clusterblast-orf"  />
</g>
<g id="a9_0016"  >
<polygon locus_tag="AFK78070.1" description="&lt;b&gt;AFK78070.1&lt;/b&gt;&lt;br&gt;XiaD&lt;br&gt;Location: 6504 - 5512&lt;br&gt;&lt;br&gt;&lt;b&gt;BlastP hit with SSMG_02727&lt;/b&gt;&lt;br&gt;Percentage identity: 63&lt;br&gt;Percentage coverage: 63&lt;br&gt;BLAST bit score: 354&lt;br&gt;E-value: 2.1e-97" points="604,185 609,180 630,180 630,190 609,190 604,185 " style="stroke-width:1; stroke:black; fill:#15d815; " id="knownclusterblast-9_all_9_3_16" class="clusterblast-orf"  />
</g>
<g id="a9_0017"  >
<polygon locus_tag="AFK78069.1" description="&lt;b&gt;AFK78069.1&lt;/b&gt;&lt;br&gt;XiaC&lt;br&gt;Location: 5278 - 4502" points="636,190 651,190 656,185 651,180 636,180 636,190 " style="stroke-width:1; stroke:black; fill:white; " id="knownclusterblast-9_all_9_3_17" class="clusterblast-orf"  />
</g>
<g id="a9_0018"  >
<polygon locus_tag="AFK78068.1" description="&lt;b&gt;AFK78068.1&lt;/b&gt;&lt;br&gt;XiaB&lt;br&gt;Location: 4337 - 3843" points="660,190 668,190 673,185 668,180 660,180 660,190 " style="stroke-width:1; stroke:black; fill:white; " id="knownclusterblast-9_all_9_3_18" class="clusterblast-orf"  />
</g>
<g id="a9_0019"  >
<polygon locus_tag="AFK78067.1" description="&lt;b&gt;AFK78067.1&lt;/b&gt;&lt;br&gt;XiaA&lt;br&gt;Location: 3784 - 2693" points="675,185 680,180 703,180 703,190 680,190 675,185 " style="stroke-width:1; stroke:black; fill:white; " id="knownclusterblast-9_all_9_3_19" class="clusterblast-orf"  />
</g>
<g id="a9_0020"  >
<polygon locus_tag="AFK78066.1" description="&lt;b&gt;AFK78066.1&lt;/b&gt;&lt;br&gt;putative alcohol dehydrogenase zinc-binding domain protein&lt;br&gt;Location: 2696 - 1641" points="703,185 708,180 731,180 731,190 708,190 703,185 " style="stroke-width:1; stroke:black; fill:white; " id="knownclusterblast-9_all_9_3_20" class="clusterblast-orf"  />
</g>
<g id="a9_0021"  >
<polygon locus_tag="AFK78065.1" description="&lt;b&gt;AFK78065.1&lt;/b&gt;&lt;br&gt;putative Ox3&lt;br&gt;Location: 1644 - 1" points="731,185 736,180 774,180 774,190 736,190 731,185 " style="stroke-width:1; stroke:black; fill:white; " id="knownclusterblast-9_all_9_3_21" class="clusterblast-orf"  />
</g>
<g label="BGC0000665" description="BGC0000665_c1: xiamycin (13% of genes show similarity), Terpene + Alkaloid" class="clusterblast-cluster"  >
<text class="clusterblast-acc" y="220" x="5"  >
<a xlink:href="https://mibig.secondarymetabolites.org/go/BGC0000665/1" target="_blank">BGC0000665</a>:                                                                         xiamycin (13% of genes show similarity), Terpene + Alkaloid</text>
<line x1="10" x2="778.0" y2="235" style="stroke-width:1; stroke:grey; " y1="235"  />
</g>
<g id="a9_000"  >
<polygon locus_tag="CCH63741.1" description="&lt;b&gt;CCH63741.1&lt;/b&gt;&lt;br&gt;XiaO protein&lt;br&gt;Location: 21259 - 18482" points="111,235 116,230 184,230 184,240 116,240 111,235 " style="stroke-width:1; stroke:black; fill:white; " id="knownclusterblast-9_all_9_4_0" class="clusterblast-orf"  />
</g>
<g id="a9_001"  >
<polygon locus_tag="CCH63740.1" description="&lt;b&gt;CCH63740.1&lt;/b&gt;&lt;br&gt;XiaN protein&lt;br&gt;Location: 18309 - 15358" points="189,240 261,240 266,235 261,230 189,230 189,240 " style="stroke-width:1; stroke:black; fill:white; " id="knownclusterblast-9_all_9_4_1" class="clusterblast-orf"  />
</g>
<g id="a9_002"  >
<polygon locus_tag="CCH63739.1" description="&lt;b&gt;CCH63739.1&lt;/b&gt;&lt;br&gt;Cytochrome P450&lt;br&gt;Location: 15263 - 14256" points="268,240 290,240 295,235 290,230 268,230 268,240 " style="stroke-width:1; stroke:black; fill:white; " id="knownclusterblast-9_all_9_4_2" class="clusterblast-orf"  />
</g>
<g id="a9_003"  >
<polygon locus_tag="CCH63738.1" description="&lt;b&gt;CCH63738.1&lt;/b&gt;&lt;br&gt;XiaL protein&lt;br&gt;Location: 14227 - 12059" points="295,240 347,240 352,235 347,230 295,230 295,240 " style="stroke-width:1; stroke:black; fill:white; " id="knownclusterblast-9_all_9_4_3" class="clusterblast-orf"  />
</g>
<g id="a9_004"  >
<polygon locus_tag="CCH63737.1" description="&lt;b&gt;CCH63737.1&lt;/b&gt;&lt;br&gt;XiaK protein&lt;br&gt;Location: 12036 - 10906&lt;br&gt;&lt;br&gt;&lt;b&gt;BlastP hit with SSMG_02729&lt;/b&gt;&lt;br&gt;Percentage identity: 50&lt;br&gt;Percentage coverage: 96&lt;br&gt;BLAST bit score: 275&lt;br&gt;E-value: 1.5e-73" points="353,240 377,240 382,235 377,230 353,230 353,240 " style="stroke-width:1; stroke:black; fill:#d815d8; " id="knownclusterblast-9_all_9_4_4" class="clusterblast-orf"  />
</g>
<g id="a9_005"  >
<polygon locus_tag="CCH63736.1" description="&lt;b&gt;CCH63736.1&lt;/b&gt;&lt;br&gt;XiaJ protein&lt;br&gt;Location: 10752 - 9583" points="386,240 412,240 417,235 412,230 386,230 386,240 " style="stroke-width:1; stroke:black; fill:white; " id="knownclusterblast-9_all_9_4_5" class="clusterblast-orf"  />
</g>
<g id="a9_006"  >
<polygon locus_tag="CCH63735.1" description="&lt;b&gt;CCH63735.1&lt;/b&gt;&lt;br&gt;Indole oxygenase &lt;br&gt;Location: 9557 - 9324" points="418,240 419,240 424,235 419,230 418,230 418,240 " style="stroke-width:1; stroke:black; fill:white; " id="knownclusterblast-9_all_9_4_6" class="clusterblast-orf"  />
</g>
<g id="a9_007"  >
<polygon locus_tag="CCH63734.1" description="&lt;b&gt;CCH63734.1&lt;/b&gt;&lt;br&gt;XiaH protein&lt;br&gt;Location: 9327 - 7534" points="424,240 465,240 470,235 465,230 424,230 424,240 " style="stroke-width:1; stroke:black; fill:white; " id="knownclusterblast-9_all_9_4_7" class="clusterblast-orf"  />
</g>
<g id="a9_008"  >
<polygon locus_tag="CCH63733.1" description="&lt;b&gt;CCH63733.1&lt;/b&gt;&lt;br&gt;XiaG protein&lt;br&gt;Location: 7531 - 7142" points="471,240 476,240 481,235 476,230 471,230 471,240 " style="stroke-width:1; stroke:black; fill:white; " id="knownclusterblast-9_all_9_4_8" class="clusterblast-orf"  />
</g>
<g id="a9_009"  >
<polygon locus_tag="CCH63732.1" description="&lt;b&gt;CCH63732.1&lt;/b&gt;&lt;br&gt;XiaF protein&lt;br&gt;Location: 7145 - 5946" points="481,240 507,240 512,235 507,230 481,230 481,240 " style="stroke-width:1; stroke:black; fill:white; " id="knownclusterblast-9_all_9_4_9" class="clusterblast-orf"  />
</g>
<g id="a9_0010"  >
<polygon locus_tag="CCH63731.1" description="&lt;b&gt;CCH63731.1&lt;/b&gt;&lt;br&gt;XiaE protein&lt;br&gt;Location: 5879 - 5127" points="514,240 528,240 533,235 528,230 514,230 514,240 " style="stroke-width:1; stroke:black; fill:white; " id="knownclusterblast-9_all_9_4_10" class="clusterblast-orf"  />
</g>
<g id="a9_0011"  >
<polygon locus_tag="CCH63730.1" description="&lt;b&gt;CCH63730.1&lt;/b&gt;&lt;br&gt;XiaD protein&lt;br&gt;Location: 5134 - 4412" points="533,235 538,230 552,230 552,240 538,240 533,235 " style="stroke-width:1; stroke:black; fill:white; " id="knownclusterblast-9_all_9_4_11" class="clusterblast-orf"  />
</g>
<g id="a9_0012"  >
<polygon locus_tag="CCH63729.1" description="&lt;b&gt;CCH63729.1&lt;/b&gt;&lt;br&gt;XiaC protein&lt;br&gt;Location: 3980 - 2829" points="563,235 568,230 594,230 594,240 568,240 563,235 " style="stroke-width:1; stroke:black; fill:white; " id="knownclusterblast-9_all_9_4_12" class="clusterblast-orf"  />
</g>
<g id="a9_0013"  >
<polygon locus_tag="CCH63728.1" description="&lt;b&gt;CCH63728.1&lt;/b&gt;&lt;br&gt;XiaB protein&lt;br&gt;Location: 2832 - 1015" points="594,235 599,230 641,230 641,240 599,240 594,235 " style="stroke-width:1; stroke:black; fill:white; " id="knownclusterblast-9_all_9_4_13" class="clusterblast-orf"  />
</g>
<g id="a9_0014"  >
<polygon locus_tag="CCH63727.1" description="&lt;b&gt;CCH63727.1&lt;/b&gt;&lt;br&gt;XiaA protein&lt;br&gt;Location: 1002 - 1&lt;br&gt;&lt;br&gt;&lt;b&gt;BlastP hit with SSMG_02727&lt;/b&gt;&lt;br&gt;Percentage identity: 63&lt;br&gt;Percentage coverage: 63&lt;br&gt;BLAST bit score: 354&lt;br&gt;E-value: 2.1e-97" points="641,235 646,230 668,230 668,240 646,240 641,235 " style="stroke-width:1; stroke:black; fill:#15d815; " id="knownclusterblast-9_all_9_4_14" class="clusterblast-orf"  />
</g>
</svg>
