<svg version="1.1" xmlns="http://www.w3.org/2000/svg" height="230" width="800" xmlns:xlink="http://www.w3.org/1999/xlink" preserveAspectRatio="none" x="0" y="0" viewBox="0 0 800 230"  >
<g label="Query sequence" class="clusterblast-cluster"  >
<text class="clusterblast-acc" y="20" x="5"  >
Query sequence</text>
<line x1="10" x2="778.0" y2="35" style="stroke-width:1; stroke:grey; " y1="35"  />
<polygon locus_tag="SSMG_03800" description="&lt;b&gt;SSMG_03800&lt;/b&gt;&lt;br&gt;predicted protein&lt;br&gt;Location: 4135625 - 4136882" points="273,35 278,30 278,30 278,40 278,40 273,35 " style="stroke-width:1; stroke:black; fill:white; " id="dummy-15_q0_0_all" class="clusterblast-orf"  />
<polygon locus_tag="SSMG_03801" description="&lt;b&gt;SSMG_03801&lt;/b&gt;&lt;br&gt;predicted protein&lt;br&gt;Location: 4138121 - 4138613" points="283,35 285,30 285,40 283,35 " style="stroke-width:1; stroke:black; fill:white; " id="dummy-15_q1_0_all" class="clusterblast-orf"  />
<polygon locus_tag="SSMG_03802" description="&lt;b&gt;SSMG_03802&lt;/b&gt;&lt;br&gt;transposase&lt;br&gt;Location: 4138531 - 4139158" points="285,40 287,35 285,30 285,40 " style="stroke-width:1; stroke:black; fill:white; " id="dummy-15_q2_0_all" class="clusterblast-orf"  />
<polygon locus_tag="SSMG_03803" description="&lt;b&gt;SSMG_03803&lt;/b&gt;&lt;br&gt;predicted protein&lt;br&gt;Location: 4139336 - 4139750" points="288,40 290,35 288,30 288,40 " style="stroke-width:1; stroke:black; fill:white; " id="dummy-15_q3_0_all" class="clusterblast-orf"  />
<polygon locus_tag="SSMG_03804" description="&lt;b&gt;SSMG_03804&lt;/b&gt;&lt;br&gt;RNA polymerase sigma factor RpoE&lt;br&gt;Location: 4139929 - 4140688" points="291,40 294,35 291,30 291,40 " style="stroke-width:1; stroke:black; fill:#d81515; " id="dummy-15_q4_0_all" class="clusterblast-orf"  />
<polygon locus_tag="SSMG_03805" description="&lt;b&gt;SSMG_03805&lt;/b&gt;&lt;br&gt;predicted protein&lt;br&gt;Location: 4140871 - 4141780" points="295,35 298,30 298,40 295,35 " style="stroke-width:1; stroke:black; fill:white; " id="dummy-15_q5_0_all" class="clusterblast-orf"  />
<polygon locus_tag="SSMG_03806" description="&lt;b&gt;SSMG_03806&lt;/b&gt;&lt;br&gt;predicted protein&lt;br&gt;Location: 4141905 - 4144077" points="299,40 303,40 308,35 303,30 299,30 299,40 " style="stroke-width:1; stroke:black; fill:white; " id="dummy-15_q6_0_all" class="clusterblast-orf"  />
<polygon locus_tag="SSMG_03807" description="&lt;b&gt;SSMG_03807&lt;/b&gt;&lt;br&gt;periplasmic solute binding protein&lt;br&gt;Location: 4144082 - 4144871" points="308,35 312,30 312,40 308,35 " style="stroke-width:1; stroke:black; fill:white; " id="dummy-15_q7_0_all" class="clusterblast-orf"  />
<polygon locus_tag="SSMG_03808" description="&lt;b&gt;SSMG_03808&lt;/b&gt;&lt;br&gt;predicted protein&lt;br&gt;Location: 4144840 - 4145686" points="311,35 315,30 315,40 311,35 " style="stroke-width:1; stroke:black; fill:white; " id="dummy-15_q8_0_all" class="clusterblast-orf"  />
<polygon locus_tag="SSMG_03809" description="&lt;b&gt;SSMG_03809&lt;/b&gt;&lt;br&gt;ABC transporter&lt;br&gt;Location: 4145682 - 4146336" points="315,35 318,30 318,40 315,35 " style="stroke-width:1; stroke:black; fill:white; " id="dummy-15_q9_0_all" class="clusterblast-orf"  />
<polygon locus_tag="SSMG_03810" description="&lt;b&gt;SSMG_03810&lt;/b&gt;&lt;br&gt;predicted protein&lt;br&gt;Location: 4146416 - 4147538" points="318,35 323,30 323,30 323,40 323,40 318,35 " style="stroke-width:1; stroke:black; fill:white; " id="dummy-15_q10_0_all" class="clusterblast-orf"  />
<polygon locus_tag="SSMG_03811" description="&lt;b&gt;SSMG_03811&lt;/b&gt;&lt;br&gt;predicted protein&lt;br&gt;Location: 4147626 - 4149222" points="323,40 325,40 330,35 325,30 323,30 323,40 " style="stroke-width:1; stroke:black; fill:white; " id="dummy-15_q11_0_all" class="clusterblast-orf"  />
<polygon locus_tag="SSMG_03812" description="&lt;b&gt;SSMG_03812&lt;/b&gt;&lt;br&gt;cyclohexanecarboxylate-CoA ligase&lt;br&gt;Location: 4149218 - 4150868" points="330,40 332,40 337,35 332,30 330,30 330,40 " style="stroke-width:1; stroke:black; fill:#15d815; " id="dummy-15_q12_0_all" class="clusterblast-orf"  />
<polygon locus_tag="SSMG_03813" description="&lt;b&gt;SSMG_03813&lt;/b&gt;&lt;br&gt;high-affinity nickel-transporter&lt;br&gt;Location: 4150933 - 4152067" points="337,35 342,30 342,30 342,40 342,40 337,35 " style="stroke-width:1; stroke:black; fill:white; " id="dummy-15_q13_0_all" class="clusterblast-orf"  />
<polygon locus_tag="SSMG_03814" description="&lt;b&gt;SSMG_03814&lt;/b&gt;&lt;br&gt;predicted protein&lt;br&gt;Location: 4153135 - 4153549" points="346,35 348,30 348,40 346,35 " style="stroke-width:1; stroke:black; fill:white; " id="dummy-15_q14_0_all" class="clusterblast-orf"  />
<polygon locus_tag="SSMG_03815" description="&lt;b&gt;SSMG_03815&lt;/b&gt;&lt;br&gt;5,10-methylenetetrahydromethanopterin reductase&lt;br&gt;Location: 4153709 - 4154882" points="349,40 349,40 354,35 349,30 349,30 349,40 " style="stroke-width:1; stroke:black; fill:white; " id="dummy-15_q15_0_all" class="clusterblast-orf"  />
<polygon locus_tag="SSMG_03816" description="&lt;b&gt;SSMG_03816&lt;/b&gt;&lt;br&gt;predicted protein&lt;br&gt;Location: 4154971 - 4167916" points="354,40 404,40 409,35 404,30 354,30 354,40 " style="stroke-width:1; stroke:black; fill:#1515d8; " id="dummy-15_q16_0_all" class="clusterblast-orf"  />
<polygon locus_tag="SSMG_03817" description="&lt;b&gt;SSMG_03817&lt;/b&gt;&lt;br&gt;predicted protein&lt;br&gt;Location: 4167902 - 4171460" points="409,40 419,40 424,35 419,30 409,30 409,40 " style="stroke-width:1; stroke:black; fill:#1515d8; " id="dummy-15_q17_0_all" class="clusterblast-orf"  />
<polygon locus_tag="SSMG_03818" description="&lt;b&gt;SSMG_03818&lt;/b&gt;&lt;br&gt;conserved hypothetical protein&lt;br&gt;Location: 4173548 - 4174076" points="433,40 435,35 433,30 433,40 " style="stroke-width:1; stroke:black; fill:white; " id="dummy-15_q18_0_all" class="clusterblast-orf"  />
<polygon locus_tag="SSMG_03819" description="&lt;b&gt;SSMG_03819&lt;/b&gt;&lt;br&gt;lipolytic enzyme&lt;br&gt;Location: 4174081 - 4174861" points="435,35 438,30 438,40 435,35 " style="stroke-width:1; stroke:black; fill:white; " id="dummy-15_q19_0_all" class="clusterblast-orf"  />
<polygon locus_tag="SSMG_03820" description="&lt;b&gt;SSMG_03820&lt;/b&gt;&lt;br&gt;predicted protein&lt;br&gt;Location: 4174949 - 4175519" points="438,35 441,30 441,40 438,35 " style="stroke-width:1; stroke:black; fill:white; " id="dummy-15_q20_0_all" class="clusterblast-orf"  />
<polygon locus_tag="SSMG_03821" description="&lt;b&gt;SSMG_03821&lt;/b&gt;&lt;br&gt;major facilitator transporter&lt;br&gt;Location: 4175685 - 4177029" points="442,40 442,40 447,35 442,30 442,30 442,40 " style="stroke-width:1; stroke:black; fill:white; " id="dummy-15_q21_0_all" class="clusterblast-orf"  />
<polygon locus_tag="SSMG_03822" description="&lt;b&gt;SSMG_03822&lt;/b&gt;&lt;br&gt;SPFH domain/band 7 family protein&lt;br&gt;Location: 4177090 - 4178488" points="448,35 453,30 453,30 453,40 453,40 448,35 " style="stroke-width:1; stroke:black; fill:white; " id="dummy-15_q22_0_all" class="clusterblast-orf"  />
<polygon locus_tag="SSMG_03823" description="&lt;b&gt;SSMG_03823&lt;/b&gt;&lt;br&gt;predicted protein&lt;br&gt;Location: 4178553 - 4178988" points="454,35 456,30 456,40 454,35 " style="stroke-width:1; stroke:black; fill:white; " id="dummy-15_q23_0_all" class="clusterblast-orf"  />
<polygon locus_tag="SSMG_03824" description="&lt;b&gt;SSMG_03824&lt;/b&gt;&lt;br&gt;conserved hypothetical protein&lt;br&gt;Location: 4179080 - 4179887" points="456,35 459,30 459,40 456,35 " style="stroke-width:1; stroke:black; fill:white; " id="dummy-15_q24_0_all" class="clusterblast-orf"  />
<polygon locus_tag="SSMG_03825" description="&lt;b&gt;SSMG_03825&lt;/b&gt;&lt;br&gt;aldo/keto reductase&lt;br&gt;Location: 4180049 - 4181042" points="460,40 464,35 460,30 460,40 " style="stroke-width:1; stroke:black; fill:#d815d8; " id="dummy-15_q25_0_all" class="clusterblast-orf"  />
<polygon locus_tag="SSMG_03826" description="&lt;b&gt;SSMG_03826&lt;/b&gt;&lt;br&gt;predicted protein&lt;br&gt;Location: 4181073 - 4181988" points="464,35 468,30 468,40 464,35 " style="stroke-width:1; stroke:black; fill:white; " id="dummy-15_q26_0_all" class="clusterblast-orf"  />
<polygon locus_tag="SSMG_03827" description="&lt;b&gt;SSMG_03827&lt;/b&gt;&lt;br&gt;phosphatidylinositol 3-and 4-kinase&lt;br&gt;Location: 4181972 - 4182782" points="468,35 472,30 472,40 468,35 " style="stroke-width:1; stroke:black; fill:white; " id="dummy-15_q27_0_all" class="clusterblast-orf"  />
<polygon locus_tag="SSMG_03828" description="&lt;b&gt;SSMG_03828&lt;/b&gt;&lt;br&gt;conserved hypothetical protein&lt;br&gt;Location: 4182790 - 4183366" points="472,35 474,30 474,40 472,35 " style="stroke-width:1; stroke:black; fill:white; " id="dummy-15_q28_0_all" class="clusterblast-orf"  />
<polygon locus_tag="SSMG_03829" description="&lt;b&gt;SSMG_03829&lt;/b&gt;&lt;br&gt;acyl-peptide hydrolase&lt;br&gt;Location: 4183496 - 4185428" points="475,40 478,40 483,35 478,30 475,30 475,40 " style="stroke-width:1; stroke:black; fill:#d8d815; " id="dummy-15_q29_0_all" class="clusterblast-orf"  />
<polygon locus_tag="SSMG_03830" description="&lt;b&gt;SSMG_03830&lt;/b&gt;&lt;br&gt;conserved hypothetical protein&lt;br&gt;Location: 4185424 - 4186324" points="483,40 486,35 483,30 483,40 " style="stroke-width:1; stroke:black; fill:#15d8d8; " id="dummy-15_q30_0_all" class="clusterblast-orf"  />
<polygon locus_tag="SSMG_03831" description="&lt;b&gt;SSMG_03831&lt;/b&gt;&lt;br&gt;pyridoxamine 5'-phosphate oxidase&lt;br&gt;Location: 4186330 - 4186744" points="487,40 488,35 487,30 487,40 " style="stroke-width:1; stroke:black; fill:white; " id="dummy-15_q31_0_all" class="clusterblast-orf"  />
<polygon locus_tag="SSMG_03832" description="&lt;b&gt;SSMG_03832&lt;/b&gt;&lt;br&gt;hypothetical protein&lt;br&gt;Location: 4186778 - 4187462" points="488,40 491,35 488,30 488,40 " style="stroke-width:1; stroke:black; fill:white; " id="dummy-15_q32_0_all" class="clusterblast-orf"  />
<polygon locus_tag="SSMG_03833" description="&lt;b&gt;SSMG_03833&lt;/b&gt;&lt;br&gt;predicted protein&lt;br&gt;Location: 4187472 - 4188066" points="491,40 494,35 491,30 491,40 " style="stroke-width:1; stroke:black; fill:white; " id="dummy-15_q33_0_all" class="clusterblast-orf"  />
<polygon locus_tag="SSMG_03834" description="&lt;b&gt;SSMG_03834&lt;/b&gt;&lt;br&gt;predicted protein&lt;br&gt;Location: 4188384 - 4189485" points="495,40 495,40 500,35 495,30 495,30 495,40 " style="stroke-width:1; stroke:black; fill:white; " id="dummy-15_q34_0_all" class="clusterblast-orf"  />
<polygon locus_tag="SSMG_03835" description="&lt;b&gt;SSMG_03835&lt;/b&gt;&lt;br&gt;predicted protein&lt;br&gt;Location: 4189531 - 4191085" points="500,35 505,30 507,30 507,40 505,40 500,35 " style="stroke-width:1; stroke:black; fill:white; " id="dummy-15_q35_0_all" class="clusterblast-orf"  />
</g>
<g label="BGC0000093" description="BGC0000093_c1: meilingmycin (5% of genes show similarity), Polyketide" class="clusterblast-cluster"  >
<text class="clusterblast-acc" y="70" x="5"  >
<a xlink:href="https://mibig.secondarymetabolites.org/go/BGC0000093/1" target="_blank">BGC0000093</a>:                                                                     meilingmycin (5% of genes show similarity), Polyketide</text>
<line x1="10" x2="778.0" y2="85" style="stroke-width:1; stroke:grey; " y1="85"  />
</g>
<g id="a15_000"  >
<polygon locus_tag="ADC45599.1" description="&lt;b&gt;ADC45599.1&lt;/b&gt;&lt;br&gt;hypothetical protein&lt;br&gt;Location: 184824 - 183922" points="0,85 3,80 3,90 0,85 " style="stroke-width:1; stroke:black; fill:white; " id="dummy-15_h15_4_0" class="clusterblast-orf"  />
</g>
<g id="a15_001"  >
<polygon locus_tag="ADC45598.1" description="&lt;b&gt;ADC45598.1&lt;/b&gt;&lt;br&gt;carbohydrate kinase&lt;br&gt;Location: 183905 - 182934" points="3,85 7,80 7,90 3,85 " style="stroke-width:1; stroke:black; fill:white; " id="dummy-15_h15_4_1" class="clusterblast-orf"  />
</g>
<g id="a15_002"  >
<polygon locus_tag="ADC45597.1" description="&lt;b&gt;ADC45597.1&lt;/b&gt;&lt;br&gt;LacI-family transcriptional regulator&lt;br&gt;Location: 182726 - 181698" points="8,90 8,90 13,85 8,80 8,80 8,90 " style="stroke-width:1; stroke:black; fill:white; " id="dummy-15_h15_4_2" class="clusterblast-orf"  />
</g>
<g id="a15_003"  >
<polygon locus_tag="ADC45596.1" description="&lt;b&gt;ADC45596.1&lt;/b&gt;&lt;br&gt;TetR-family transcriptional regulator&lt;br&gt;Location: 181693 - 181085" points="13,85 15,80 15,90 13,85 " style="stroke-width:1; stroke:black; fill:white; " id="dummy-15_h15_4_3" class="clusterblast-orf"  />
</g>
<g id="a15_004"  >
<polygon locus_tag="ADC45595.1" description="&lt;b&gt;ADC45595.1&lt;/b&gt;&lt;br&gt;extracellular solute-binding protein&lt;br&gt;Location: 180837 - 179275" points="16,90 18,90 23,85 18,80 16,80 16,90 " style="stroke-width:1; stroke:black; fill:white; " id="dummy-15_h15_4_4" class="clusterblast-orf"  />
</g>
<g id="a15_005"  >
<polygon locus_tag="ADC45594.1" description="&lt;b&gt;ADC45594.1&lt;/b&gt;&lt;br&gt;transporter&lt;br&gt;Location: 179278 - 178322" points="23,90 27,85 23,80 23,90 " style="stroke-width:1; stroke:black; fill:white; " id="dummy-15_h15_4_5" class="clusterblast-orf"  />
</g>
<g id="a15_006"  >
<polygon locus_tag="ADC45593.1" description="&lt;b&gt;ADC45593.1&lt;/b&gt;&lt;br&gt;ABC transporter&lt;br&gt;Location: 178325 - 176490" points="27,90 30,90 35,85 30,80 27,80 27,90 " style="stroke-width:1; stroke:black; fill:white; " id="dummy-15_h15_4_6" class="clusterblast-orf"  />
</g>
<g id="a15_007"  >
<polygon locus_tag="ADC45592.1" description="&lt;b&gt;ADC45592.1&lt;/b&gt;&lt;br&gt;ABC transporter&lt;br&gt;Location: 176493 - 175618" points="35,90 38,85 35,80 35,90 " style="stroke-width:1; stroke:black; fill:white; " id="dummy-15_h15_4_7" class="clusterblast-orf"  />
</g>
<g id="a15_008"  >
<polygon locus_tag="ADC45591.1" description="&lt;b&gt;ADC45591.1&lt;/b&gt;&lt;br&gt;beta-glucosidase&lt;br&gt;Location: 175621 - 174404" points="38,90 38,90 43,85 38,80 38,80 38,90 " style="stroke-width:1; stroke:black; fill:white; " id="dummy-15_h15_4_8" class="clusterblast-orf"  />
</g>
<g id="a15_009"  >
<polygon locus_tag="ADC45590.1" description="&lt;b&gt;ADC45590.1&lt;/b&gt;&lt;br&gt;beta-glucuronidase precursor&lt;br&gt;Location: 174362 - 172569" points="44,90 46,90 51,85 46,80 44,80 44,90 " style="stroke-width:1; stroke:black; fill:white; " id="dummy-15_h15_4_9" class="clusterblast-orf"  />
</g>
<g id="a15_0010"  >
<polygon locus_tag="ADC45589.1" description="&lt;b&gt;ADC45589.1&lt;/b&gt;&lt;br&gt;short-chain dehydrogenase/reductase SDR&lt;br&gt;Location: 172498 - 171713" points="52,90 55,85 52,80 52,90 " style="stroke-width:1; stroke:black; fill:white; " id="dummy-15_h15_4_10" class="clusterblast-orf"  />
</g>
<g id="a15_0011"  >
<polygon locus_tag="ADC45588.1" description="&lt;b&gt;ADC45588.1&lt;/b&gt;&lt;br&gt;hydrolase&lt;br&gt;Location: 171655 - 167960" points="55,90 66,90 71,85 66,80 55,80 55,90 " style="stroke-width:1; stroke:black; fill:white; " id="dummy-15_h15_4_11" class="clusterblast-orf"  />
</g>
<g id="a15_0012"  >
<polygon locus_tag="ADC45587.1" description="&lt;b&gt;ADC45587.1&lt;/b&gt;&lt;br&gt;C5-O-methyltransferase&lt;br&gt;Location: 167947 - 167087" points="71,85 74,80 74,90 71,85 " style="stroke-width:1; stroke:black; fill:white; " id="dummy-15_h15_4_12" class="clusterblast-orf"  />
</g>
<g id="a15_0013"  >
<polygon locus_tag="ADC45586.1" description="&lt;b&gt;ADC45586.1&lt;/b&gt;&lt;br&gt;modular polyketide synthase&lt;br&gt;Location: 167044 - 154052&lt;br&gt;&lt;br&gt;&lt;b&gt;BlastP hit with SSMG_03817&lt;/b&gt;&lt;br&gt;Percentage identity: 49&lt;br&gt;Percentage coverage: 55&lt;br&gt;BLAST bit score: 558&lt;br&gt;E-value: 2.3e-158" points="75,85 80,80 129,80 129,90 80,90 75,85 " style="stroke-width:1; stroke:black; fill:#1515d8; " id="dummy-15_h15_4_13" class="clusterblast-orf"  />
</g>
<g id="a15_0014"  >
<polygon locus_tag="ADC45585.1" description="&lt;b&gt;ADC45585.1&lt;/b&gt;&lt;br&gt;hypothetical protein&lt;br&gt;Location: 153836 - 152139" points="130,85 135,80 137,80 137,90 135,90 130,85 " style="stroke-width:1; stroke:black; fill:white; " id="dummy-15_h15_4_14" class="clusterblast-orf"  />
</g>
<g id="a15_0015"  >
<polygon locus_tag="ADC45584.1" description="&lt;b&gt;ADC45584.1&lt;/b&gt;&lt;br&gt;monooxygenase&lt;br&gt;Location: 152142 - 150307" points="137,85 142,80 145,80 145,90 142,90 137,85 " style="stroke-width:1; stroke:black; fill:white; " id="dummy-15_h15_4_15" class="clusterblast-orf"  />
</g>
<g id="a15_0016"  >
<polygon locus_tag="ADC45583.1" description="&lt;b&gt;ADC45583.1&lt;/b&gt;&lt;br&gt;sugar-binding transcriptional regulator&lt;br&gt;Location: 150152 - 149148" points="146,85 150,80 150,90 146,85 " style="stroke-width:1; stroke:black; fill:white; " id="dummy-15_h15_4_16" class="clusterblast-orf"  />
</g>
<g id="a15_0017"  >
<polygon locus_tag="ADC45582.1" description="&lt;b&gt;ADC45582.1&lt;/b&gt;&lt;br&gt;hypothetical protein&lt;br&gt;Location: 148932 - 145963" points="151,90 159,90 164,85 159,80 151,80 151,90 " style="stroke-width:1; stroke:black; fill:white; " id="dummy-15_h15_4_17" class="clusterblast-orf"  />
</g>
<g id="a15_0018"  >
<polygon locus_tag="ADC45581.1" description="&lt;b&gt;ADC45581.1&lt;/b&gt;&lt;br&gt;glycoside hydrolase&lt;br&gt;Location: 145820 - 144519" points="164,90 165,90 170,85 165,80 164,80 164,90 " style="stroke-width:1; stroke:black; fill:white; " id="dummy-15_h15_4_18" class="clusterblast-orf"  />
</g>
<g id="a15_0019"  >
<polygon locus_tag="ADC45580.1" description="&lt;b&gt;ADC45580.1&lt;/b&gt;&lt;br&gt;transmembrane transport protein&lt;br&gt;Location: 144553 - 143354" points="169,85 174,80 175,80 175,90 174,90 169,85 " style="stroke-width:1; stroke:black; fill:white; " id="dummy-15_h15_4_19" class="clusterblast-orf"  />
</g>
<g id="a15_0020"  >
<polygon locus_tag="ADC45579.1" description="&lt;b&gt;ADC45579.1&lt;/b&gt;&lt;br&gt;hypothetical protein&lt;br&gt;Location: 143357 - 142827" points="175,85 177,80 177,90 175,85 " style="stroke-width:1; stroke:black; fill:white; " id="dummy-15_h15_4_20" class="clusterblast-orf"  />
</g>
<g id="a15_0021"  >
<polygon locus_tag="ADC45578.1" description="&lt;b&gt;ADC45578.1&lt;/b&gt;&lt;br&gt;lysine/ornithine decarboxylase&lt;br&gt;Location: 142818 - 141628" points="177,85 182,80 182,80 182,90 182,90 177,85 " style="stroke-width:1; stroke:black; fill:white; " id="dummy-15_h15_4_21" class="clusterblast-orf"  />
</g>
<g id="a15_0022"  >
<polygon locus_tag="ADC45577.1" description="&lt;b&gt;ADC45577.1&lt;/b&gt;&lt;br&gt;hypothetical protein&lt;br&gt;Location: 141583 - 140258" points="182,85 187,80 188,80 188,90 187,90 182,85 " style="stroke-width:1; stroke:black; fill:white; " id="dummy-15_h15_4_22" class="clusterblast-orf"  />
</g>
<g id="a15_0023"  >
<polygon locus_tag="ADC45576.1" description="&lt;b&gt;ADC45576.1&lt;/b&gt;&lt;br&gt;hypothetical protein&lt;br&gt;Location: 140276 - 139224" points="188,85 192,80 192,90 188,85 " style="stroke-width:1; stroke:black; fill:white; " id="dummy-15_h15_4_23" class="clusterblast-orf"  />
</g>
<g id="a15_0024"  >
<polygon locus_tag="ADC45575.1" description="&lt;b&gt;ADC45575.1&lt;/b&gt;&lt;br&gt;hydrolase&lt;br&gt;Location: 138866 - 137355" points="193,90 195,90 200,85 195,80 193,80 193,90 " style="stroke-width:1; stroke:black; fill:white; " id="dummy-15_h15_4_24" class="clusterblast-orf"  />
</g>
<g id="a15_0025"  >
<polygon locus_tag="ADC45574.1" description="&lt;b&gt;ADC45574.1&lt;/b&gt;&lt;br&gt;flavin-dependent oxidoreductase&lt;br&gt;Location: 137323 - 136478" points="200,85 204,80 204,90 200,85 " style="stroke-width:1; stroke:black; fill:white; " id="dummy-15_h15_4_25" class="clusterblast-orf"  />
</g>
<g id="a15_0026"  >
<polygon locus_tag="ADC45573.1" description="&lt;b&gt;ADC45573.1&lt;/b&gt;&lt;br&gt;aldoketoreductase&lt;br&gt;Location: 136407 - 135388" points="204,85 208,80 208,90 204,85 " style="stroke-width:1; stroke:black; fill:white; " id="dummy-15_h15_4_26" class="clusterblast-orf"  />
</g>
<g id="a15_0027"  >
<polygon locus_tag="ADC45572.1" description="&lt;b&gt;ADC45572.1&lt;/b&gt;&lt;br&gt;TetR-family transcriptional regulator&lt;br&gt;Location: 135198 - 134605" points="209,90 211,85 209,80 209,90 " style="stroke-width:1; stroke:black; fill:white; " id="dummy-15_h15_4_27" class="clusterblast-orf"  />
</g>
<g id="a15_0028"  >
<polygon locus_tag="ADC45571.1" description="&lt;b&gt;ADC45571.1&lt;/b&gt;&lt;br&gt;hypothetical protein&lt;br&gt;Location: 134603 - 133941" points="211,85 214,80 214,90 211,85 " style="stroke-width:1; stroke:black; fill:white; " id="dummy-15_h15_4_28" class="clusterblast-orf"  />
</g>
<g id="a15_0029"  >
<polygon locus_tag="ADC45570.1" description="&lt;b&gt;ADC45570.1&lt;/b&gt;&lt;br&gt;transcriptional regulator&lt;br&gt;Location: 133751 - 133101" points="215,90 218,85 215,80 215,90 " style="stroke-width:1; stroke:black; fill:white; " id="dummy-15_h15_4_29" class="clusterblast-orf"  />
</g>
<g id="a15_0030"  >
<polygon locus_tag="ADC45569.1" description="&lt;b&gt;ADC45569.1&lt;/b&gt;&lt;br&gt;hypothetical protein&lt;br&gt;Location: 132940 - 132620" points="218,90 220,85 218,80 218,90 " style="stroke-width:1; stroke:black; fill:white; " id="dummy-15_h15_4_30" class="clusterblast-orf"  />
</g>
<g id="a15_0031"  >
<polygon locus_tag="ADC45568.1" description="&lt;b&gt;ADC45568.1&lt;/b&gt;&lt;br&gt;rhamnosidase&lt;br&gt;Location: 132380 - 129165" points="221,90 229,90 234,85 229,80 221,80 221,90 " style="stroke-width:1; stroke:black; fill:white; " id="dummy-15_h15_4_31" class="clusterblast-orf"  />
</g>
<g id="a15_0032"  >
<polygon locus_tag="ADC45567.1" description="&lt;b&gt;ADC45567.1&lt;/b&gt;&lt;br&gt;acyl-CoA dehydrogenase&lt;br&gt;Location: 129095 - 127932" points="235,85 240,80 240,80 240,90 240,90 235,85 " style="stroke-width:1; stroke:black; fill:white; " id="dummy-15_h15_4_32" class="clusterblast-orf"  />
</g>
<g id="a15_0033"  >
<polygon locus_tag="ADC45566.1" description="&lt;b&gt;ADC45566.1&lt;/b&gt;&lt;br&gt;L-carnitine dehydratase&lt;br&gt;Location: 127887 - 126703" points="240,85 245,80 245,80 245,90 245,90 240,85 " style="stroke-width:1; stroke:black; fill:white; " id="dummy-15_h15_4_33" class="clusterblast-orf"  />
</g>
<g id="a15_0034"  >
<polygon locus_tag="ADC45565.1" description="&lt;b&gt;ADC45565.1&lt;/b&gt;&lt;br&gt;LysR-family transcriptional regulator&lt;br&gt;Location: 126582 - 125629" points="245,90 249,85 245,80 245,90 " style="stroke-width:1; stroke:black; fill:white; " id="dummy-15_h15_4_34" class="clusterblast-orf"  />
</g>
<g id="a15_0035"  >
<polygon locus_tag="ADC45564.1" description="&lt;b&gt;ADC45564.1&lt;/b&gt;&lt;br&gt;hydrolase&lt;br&gt;Location: 125549 - 124725" points="250,90 253,85 250,80 250,90 " style="stroke-width:1; stroke:black; fill:white; " id="dummy-15_h15_4_35" class="clusterblast-orf"  />
</g>
<g id="a15_0036"  >
<polygon locus_tag="ADC45563.1" description="&lt;b&gt;ADC45563.1&lt;/b&gt;&lt;br&gt;sulfopyruvate decarboxylase alpha subunit&lt;br&gt;Location: 124613 - 124077" points="254,90 256,85 254,80 254,90 " style="stroke-width:1; stroke:black; fill:white; " id="dummy-15_h15_4_36" class="clusterblast-orf"  />
</g>
<g id="a15_0037"  >
<polygon locus_tag="ADC45562.1" description="&lt;b&gt;ADC45562.1&lt;/b&gt;&lt;br&gt;sulfopyruvate decarboxylase beta subunit&lt;br&gt;Location: 124077 - 123478" points="256,90 258,85 256,80 256,90 " style="stroke-width:1; stroke:black; fill:white; " id="dummy-15_h15_4_37" class="clusterblast-orf"  />
</g>
<g id="a15_0038"  >
<polygon locus_tag="ADC45561.1" description="&lt;b&gt;ADC45561.1&lt;/b&gt;&lt;br&gt;hypothetical protein&lt;br&gt;Location: 123400 - 122516" points="259,90 262,85 259,80 259,90 " style="stroke-width:1; stroke:black; fill:white; " id="dummy-15_h15_4_38" class="clusterblast-orf"  />
</g>
<g id="a15_0039"  >
<polygon locus_tag="ADC45560.1" description="&lt;b&gt;ADC45560.1&lt;/b&gt;&lt;br&gt;citrate lyase beta subunit&lt;br&gt;Location: 122463 - 121600" points="263,90 266,85 263,80 263,90 " style="stroke-width:1; stroke:black; fill:white; " id="dummy-15_h15_4_39" class="clusterblast-orf"  />
</g>
<g id="a15_0040"  >
<polygon locus_tag="ADC45559.1" description="&lt;b&gt;ADC45559.1&lt;/b&gt;&lt;br&gt;acetyl-xylan esterase&lt;br&gt;Location: 121447 - 120722" points="267,90 270,85 267,80 267,90 " style="stroke-width:1; stroke:black; fill:white; " id="dummy-15_h15_4_40" class="clusterblast-orf"  />
</g>
<g id="a15_0041"  >
<polygon locus_tag="ADC45558.1" description="&lt;b&gt;ADC45558.1&lt;/b&gt;&lt;br&gt;transcriptional regulator&lt;br&gt;Location: 120278 - 119490" points="272,90 275,85 272,80 272,90 " style="stroke-width:1; stroke:black; fill:white; " id="dummy-15_h15_4_41" class="clusterblast-orf"  />
</g>
<g id="a15_0042"  >
<polygon locus_tag="ADC45557.1" description="&lt;b&gt;ADC45557.1&lt;/b&gt;&lt;br&gt;isomerase&lt;br&gt;Location: 119445 - 118276" points="275,85 280,80 280,80 280,90 280,90 275,85 " style="stroke-width:1; stroke:black; fill:white; " id="dummy-15_h15_4_42" class="clusterblast-orf"  />
</g>
<g id="a15_0043"  >
<polygon locus_tag="ADC45556.1" description="&lt;b&gt;ADC45556.1&lt;/b&gt;&lt;br&gt;2-hydroxycyclohexanecarboxyl-CoA dehyrogenase&lt;br&gt;Location: 118279 - 117383" points="280,85 284,80 284,90 280,85 " style="stroke-width:1; stroke:black; fill:white; " id="dummy-15_h15_4_43" class="clusterblast-orf"  />
</g>
<g id="a15_0044"  >
<polygon locus_tag="ADC45555.1" description="&lt;b&gt;ADC45555.1&lt;/b&gt;&lt;br&gt;sugar transporter&lt;br&gt;Location: 117386 - 115938" points="284,85 289,80 290,80 290,90 289,90 284,85 " style="stroke-width:1; stroke:black; fill:white; " id="dummy-15_h15_4_44" class="clusterblast-orf"  />
</g>
<g id="a15_0045"  >
<polygon locus_tag="ADC45554.1" description="&lt;b&gt;ADC45554.1&lt;/b&gt;&lt;br&gt;aldose 1-epimerase&lt;br&gt;Location: 115772 - 114915" points="291,90 295,85 291,80 291,90 " style="stroke-width:1; stroke:black; fill:white; " id="dummy-15_h15_4_45" class="clusterblast-orf"  />
</g>
<g id="a15_0046"  >
<polygon locus_tag="ADC45553.1" description="&lt;b&gt;ADC45553.1&lt;/b&gt;&lt;br&gt;aldehyde dehydrogenase&lt;br&gt;Location: 114931 - 113420" points="294,85 299,80 301,80 301,90 299,90 294,85 " style="stroke-width:1; stroke:black; fill:white; " id="dummy-15_h15_4_46" class="clusterblast-orf"  />
</g>
<g id="a15_0047"  >
<polygon locus_tag="ADC45552.1" description="&lt;b&gt;ADC45552.1&lt;/b&gt;&lt;br&gt;hypothetical protein&lt;br&gt;Location: 113391 - 112882" points="301,85 303,80 303,90 301,85 " style="stroke-width:1; stroke:black; fill:white; " id="dummy-15_h15_4_47" class="clusterblast-orf"  />
</g>
<g id="a15_0048"  >
<polygon locus_tag="ADC45551.1" description="&lt;b&gt;ADC45551.1&lt;/b&gt;&lt;br&gt;dimethylmenaquinone methyltransferase&lt;br&gt;Location: 112885 - 112100" points="303,85 306,80 306,90 303,85 " style="stroke-width:1; stroke:black; fill:white; " id="dummy-15_h15_4_48" class="clusterblast-orf"  />
</g>
<g id="a15_0049"  >
<polygon locus_tag="ADC45550.1" description="&lt;b&gt;ADC45550.1&lt;/b&gt;&lt;br&gt;anion/cation symporter&lt;br&gt;Location: 111825 - 110464" points="308,90 308,90 313,85 308,80 308,80 308,90 " style="stroke-width:1; stroke:black; fill:white; " id="dummy-15_h15_4_49" class="clusterblast-orf"  />
</g>
<g id="a15_0050"  >
<polygon locus_tag="ADC45549.1" description="&lt;b&gt;ADC45549.1&lt;/b&gt;&lt;br&gt;5-carboxymethyl-2-hydroxymuconate delta-isomerase&lt;br&gt;Location: 110284 - 109505" points="314,90 317,85 314,80 314,90 " style="stroke-width:1; stroke:black; fill:white; " id="dummy-15_h15_4_50" class="clusterblast-orf"  />
</g>
<g id="a15_0051"  >
<polygon locus_tag="ADC45548.1" description="&lt;b&gt;ADC45548.1&lt;/b&gt;&lt;br&gt;mandelate racemase&lt;br&gt;Location: 109508 - 108318" points="317,90 317,90 322,85 317,80 317,80 317,90 " style="stroke-width:1; stroke:black; fill:white; " id="dummy-15_h15_4_51" class="clusterblast-orf"  />
</g>
<g id="a15_0052"  >
<polygon locus_tag="ADC45547.1" description="&lt;b&gt;ADC45547.1&lt;/b&gt;&lt;br&gt;glyoxylate carboligase&lt;br&gt;Location: 108287 - 106518" points="323,85 328,80 330,80 330,90 328,90 323,85 " style="stroke-width:1; stroke:black; fill:white; " id="dummy-15_h15_4_52" class="clusterblast-orf"  />
</g>
<g id="a15_0053"  >
<polygon locus_tag="ADC45546.1" description="&lt;b&gt;ADC45546.1&lt;/b&gt;&lt;br&gt;2-hydroxy-3-oxopropionate reductase&lt;br&gt;Location: 106452 - 105556" points="330,85 334,80 334,90 330,85 " style="stroke-width:1; stroke:black; fill:white; " id="dummy-15_h15_4_53" class="clusterblast-orf"  />
</g>
<g id="a15_0054"  >
<polygon locus_tag="ADC45545.1" description="&lt;b&gt;ADC45545.1&lt;/b&gt;&lt;br&gt;hydroxypyruvate isomerase&lt;br&gt;Location: 105486 - 104656" points="334,85 338,80 338,90 334,85 " style="stroke-width:1; stroke:black; fill:white; " id="dummy-15_h15_4_54" class="clusterblast-orf"  />
</g>
<g id="a15_0055"  >
<polygon locus_tag="ADC45544.1" description="&lt;b&gt;ADC45544.1&lt;/b&gt;&lt;br&gt;hypothetical protein&lt;br&gt;Location: 104656 - 104276" points="338,85 339,80 339,90 338,85 " style="stroke-width:1; stroke:black; fill:white; " id="dummy-15_h15_4_55" class="clusterblast-orf"  />
</g>
<g id="a15_0056"  >
<polygon locus_tag="ADC45543.1" description="&lt;b&gt;ADC45543.1&lt;/b&gt;&lt;br&gt;hypothetical protein&lt;br&gt;Location: 103896 - 103666" points="341,90 342,85 341,80 341,90 " style="stroke-width:1; stroke:black; fill:white; " id="dummy-15_h15_4_56" class="clusterblast-orf"  />
</g>
<g id="a15_0057"  >
<polygon locus_tag="ADC45542.1" description="&lt;b&gt;ADC45542.1&lt;/b&gt;&lt;br&gt;Na+/solute symporter&lt;br&gt;Location: 103669 - 102173" points="342,90 343,90 348,85 343,80 342,80 342,90 " style="stroke-width:1; stroke:black; fill:white; " id="dummy-15_h15_4_57" class="clusterblast-orf"  />
</g>
<g id="a15_0058"  >
<polygon locus_tag="ADC45541.1" description="&lt;b&gt;ADC45541.1&lt;/b&gt;&lt;br&gt;beta-lactamase-like protein&lt;br&gt;Location: 102113 - 100671" points="349,85 354,80 355,80 355,90 354,90 349,85 " style="stroke-width:1; stroke:black; fill:white; " id="dummy-15_h15_4_58" class="clusterblast-orf"  />
</g>
<g id="a15_0059"  >
<polygon locus_tag="ADC45540.1" description="&lt;b&gt;ADC45540.1&lt;/b&gt;&lt;br&gt;hypothetical protein&lt;br&gt;Location: 100469 - 99318" points="355,85 360,80 360,80 360,90 360,90 355,85 " style="stroke-width:1; stroke:black; fill:white; " id="dummy-15_h15_4_59" class="clusterblast-orf"  />
</g>
<g id="a15_0060"  >
<polygon locus_tag="ADC45539.1" description="&lt;b&gt;ADC45539.1&lt;/b&gt;&lt;br&gt;LuxR-family transcriptional regulator&lt;br&gt;Location: 99015 - 96121" points="362,90 369,90 374,85 369,80 362,80 362,90 " style="stroke-width:1; stroke:black; fill:white; " id="dummy-15_h15_4_60" class="clusterblast-orf"  />
</g>
<g id="a15_0061"  >
<polygon locus_tag="ADC45538.1" description="&lt;b&gt;ADC45538.1&lt;/b&gt;&lt;br&gt;modular polyketide synthase&lt;br&gt;Location: 96074 - 78606&lt;br&gt;&lt;br&gt;&lt;b&gt;BlastP hit with SSMG_03816&lt;/b&gt;&lt;br&gt;Percentage identity: 46&lt;br&gt;Percentage coverage: 50&lt;br&gt;BLAST bit score: 1540&lt;br&gt;E-value: 0.0" points="374,90 443,90 448,85 443,80 374,80 374,90 " style="stroke-width:1; stroke:black; fill:#1515d8; " id="dummy-15_h15_4_61" class="clusterblast-orf"  />
</g>
<g id="a15_0062"  >
<polygon locus_tag="ADC45537.1" description="&lt;b&gt;ADC45537.1&lt;/b&gt;&lt;br&gt;hypothetical protein&lt;br&gt;Location: 78601 - 77846" points="448,90 451,85 448,80 448,90 " style="stroke-width:1; stroke:black; fill:white; " id="dummy-15_h15_4_62" class="clusterblast-orf"  />
</g>
<g id="a15_0063"  >
<polygon locus_tag="AAP13848.2" description="&lt;b&gt;AAP13848.2&lt;/b&gt;&lt;br&gt;C5-ketoreductase&lt;br&gt;Location: 77679 - 76867" points="452,90 455,85 452,80 452,90 " style="stroke-width:1; stroke:black; fill:white; " id="dummy-15_h15_4_63" class="clusterblast-orf"  />
</g>
<g id="a15_0064"  >
<polygon locus_tag="ADC45536.1" description="&lt;b&gt;ADC45536.1&lt;/b&gt;&lt;br&gt;reductase&lt;br&gt;Location: 76829 - 76029" points="455,85 459,80 459,90 455,85 " style="stroke-width:1; stroke:black; fill:white; " id="dummy-15_h15_4_64" class="clusterblast-orf"  />
</g>
<g id="a15_0065"  >
<polygon locus_tag="ADC45535.1" description="&lt;b&gt;ADC45535.1&lt;/b&gt;&lt;br&gt;modular polyketide synthase&lt;br&gt;Location: 75769 - 59936&lt;br&gt;&lt;br&gt;&lt;b&gt;BlastP hit with SSMG_03817&lt;/b&gt;&lt;br&gt;Percentage identity: 51&lt;br&gt;Percentage coverage: 55&lt;br&gt;BLAST bit score: 588&lt;br&gt;E-value: 2.1e-167" points="460,90 522,90 527,85 522,80 460,80 460,90 " style="stroke-width:1; stroke:black; fill:#1515d8; " id="dummy-15_h15_4_65" class="clusterblast-orf"  />
</g>
<g id="a15_0066"  >
<polygon locus_tag="AAM97314.1" description="&lt;b&gt;AAM97314.1&lt;/b&gt;&lt;br&gt;cytochrome P450 hydroxylase&lt;br&gt;Location: 59859 - 58480" points="527,90 528,90 533,85 528,80 527,80 527,90 " style="stroke-width:1; stroke:black; fill:white; " id="dummy-15_h15_4_66" class="clusterblast-orf"  />
</g>
<g id="a15_0067"  >
<polygon locus_tag="AAM97313.1" description="&lt;b&gt;AAM97313.1&lt;/b&gt;&lt;br&gt;post-polyketide modification protein&lt;br&gt;Location: 58421 - 57429" points="533,85 537,80 537,90 533,85 " style="stroke-width:1; stroke:black; fill:white; " id="dummy-15_h15_4_67" class="clusterblast-orf"  />
</g>
<g id="a15_0068"  >
<polygon locus_tag="ADC45534.1" description="&lt;b&gt;ADC45534.1&lt;/b&gt;&lt;br&gt;modular polyketide synthase&lt;br&gt;Location: 57415 - 39452&lt;br&gt;&lt;br&gt;&lt;b&gt;BlastP hit with SSMG_03817&lt;/b&gt;&lt;br&gt;Percentage identity: 48&lt;br&gt;Percentage coverage: 57&lt;br&gt;BLAST bit score: 548&lt;br&gt;E-value: 3.1e-155" points="537,85 542,80 613,80 613,90 542,90 537,85 " style="stroke-width:1; stroke:black; fill:#1515d8; " id="dummy-15_h15_4_68" class="clusterblast-orf"  />
</g>
<g id="a15_0069"  >
<polygon locus_tag="ADC45533.1" description="&lt;b&gt;ADC45533.1&lt;/b&gt;&lt;br&gt;hypothetical protein&lt;br&gt;Location: 39195 - 38044" points="614,85 619,80 619,80 619,90 619,90 614,85 " style="stroke-width:1; stroke:black; fill:white; " id="dummy-15_h15_4_69" class="clusterblast-orf"  />
</g>
<g id="a15_0070"  >
<polygon locus_tag="ADC45532.1" description="&lt;b&gt;ADC45532.1&lt;/b&gt;&lt;br&gt;heavy metal translocating P-type ATPase&lt;br&gt;Location: 37849 - 37274" points="620,90 622,85 620,80 620,90 " style="stroke-width:1; stroke:black; fill:white; " id="dummy-15_h15_4_70" class="clusterblast-orf"  />
</g>
<g id="a15_0071"  >
<polygon locus_tag="ADC45531.1" description="&lt;b&gt;ADC45531.1&lt;/b&gt;&lt;br&gt;hypothetical protein&lt;br&gt;Location: 37263 - 36139" points="622,90 622,90 627,85 622,80 622,80 622,90 " style="stroke-width:1; stroke:black; fill:white; " id="dummy-15_h15_4_71" class="clusterblast-orf"  />
</g>
<g id="a15_0072"  >
<polygon locus_tag="ADC45530.1" description="&lt;b&gt;ADC45530.1&lt;/b&gt;&lt;br&gt;two-component system response regulator&lt;br&gt;Location: 36115 - 35423" points="627,85 630,80 630,90 627,85 " style="stroke-width:1; stroke:black; fill:white; " id="dummy-15_h15_4_72" class="clusterblast-orf"  />
</g>
<g id="a15_0073"  >
<polygon locus_tag="ADC45529.1" description="&lt;b&gt;ADC45529.1&lt;/b&gt;&lt;br&gt;two-component system histidine kinase&lt;br&gt;Location: 35426 - 33753" points="630,85 635,80 637,80 637,90 635,90 630,85 " style="stroke-width:1; stroke:black; fill:white; " id="dummy-15_h15_4_73" class="clusterblast-orf"  />
</g>
<g id="a15_0074"  >
<polygon locus_tag="ADC45528.1" description="&lt;b&gt;ADC45528.1&lt;/b&gt;&lt;br&gt;hypothetical protein&lt;br&gt;Location: 33654 - 32668" points="637,90 637,90 642,85 637,80 637,80 637,90 " style="stroke-width:1; stroke:black; fill:white; " id="dummy-15_h15_4_74" class="clusterblast-orf"  />
</g>
<g id="a15_0075"  >
<polygon locus_tag="ADC45527.1" description="&lt;b&gt;ADC45527.1&lt;/b&gt;&lt;br&gt;gluconate transporter&lt;br&gt;Location: 32580 - 31153" points="642,90 643,90 648,85 643,80 642,80 642,90 " style="stroke-width:1; stroke:black; fill:white; " id="dummy-15_h15_4_75" class="clusterblast-orf"  />
</g>
<g id="a15_0076"  >
<polygon locus_tag="ADC45526.1" description="&lt;b&gt;ADC45526.1&lt;/b&gt;&lt;br&gt;hypothetical protein&lt;br&gt;Location: 31071 - 27238" points="648,90 660,90 665,85 660,80 648,80 648,90 " style="stroke-width:1; stroke:black; fill:white; " id="dummy-15_h15_4_76" class="clusterblast-orf"  />
</g>
<g id="a15_0077"  >
<polygon locus_tag="ADC45525.1" description="&lt;b&gt;ADC45525.1&lt;/b&gt;&lt;br&gt;alpha-glucuronidase&lt;br&gt;Location: 27209 - 25161" points="665,85 670,80 673,80 673,90 670,90 665,85 " style="stroke-width:1; stroke:black; fill:white; " id="dummy-15_h15_4_77" class="clusterblast-orf"  />
</g>
<g id="a15_0078"  >
<polygon locus_tag="ADC45524.1" description="&lt;b&gt;ADC45524.1&lt;/b&gt;&lt;br&gt;hypothetical protein&lt;br&gt;Location: 25007 - 24504" points="674,90 676,85 674,80 674,90 " style="stroke-width:1; stroke:black; fill:white; " id="dummy-15_h15_4_78" class="clusterblast-orf"  />
</g>
<g id="a15_0079"  >
<polygon locus_tag="ADC45523.1" description="&lt;b&gt;ADC45523.1&lt;/b&gt;&lt;br&gt;secreted amidase&lt;br&gt;Location: 24429 - 22816" points="676,90 678,90 683,85 678,80 676,80 676,90 " style="stroke-width:1; stroke:black; fill:white; " id="dummy-15_h15_4_79" class="clusterblast-orf"  />
</g>
<g id="a15_0080"  >
<polygon locus_tag="ADC45522.1" description="&lt;b&gt;ADC45522.1&lt;/b&gt;&lt;br&gt;acyl-[acyl-carrier protein] desaturase&lt;br&gt;Location: 22801 - 21929" points="683,85 687,80 687,90 683,85 " style="stroke-width:1; stroke:black; fill:white; " id="dummy-15_h15_4_80" class="clusterblast-orf"  />
</g>
<g id="a15_0081"  >
<polygon locus_tag="ADC45521.1" description="&lt;b&gt;ADC45521.1&lt;/b&gt;&lt;br&gt;cyclopropane-fatty-acyl-phospholipid synthase&lt;br&gt;Location: 21932 - 21063" points="687,85 691,80 691,90 687,85 " style="stroke-width:1; stroke:black; fill:white; " id="dummy-15_h15_4_81" class="clusterblast-orf"  />
</g>
<g id="a15_0082"  >
<polygon locus_tag="ADC45520.1" description="&lt;b&gt;ADC45520.1&lt;/b&gt;&lt;br&gt;acyl carrier protein&lt;br&gt;Location: 21066 - 20776" points="691,85 692,80 692,90 691,85 " style="stroke-width:1; stroke:black; fill:white; " id="dummy-15_h15_4_82" class="clusterblast-orf"  />
</g>
<g id="a15_0083"  >
<polygon locus_tag="ADC45519.1" description="&lt;b&gt;ADC45519.1&lt;/b&gt;&lt;br&gt;thioesterase&lt;br&gt;Location: 20779 - 20249" points="692,85 694,80 694,90 692,85 " style="stroke-width:1; stroke:black; fill:white; " id="dummy-15_h15_4_83" class="clusterblast-orf"  />
</g>
<g id="a15_0084"  >
<polygon locus_tag="ADC45518.1" description="&lt;b&gt;ADC45518.1&lt;/b&gt;&lt;br&gt;hypothetical protein&lt;br&gt;Location: 20252 - 19386" points="694,85 698,80 698,90 694,85 " style="stroke-width:1; stroke:black; fill:white; " id="dummy-15_h15_4_84" class="clusterblast-orf"  />
</g>
<g id="a15_0085"  >
<polygon locus_tag="ADC45517.1" description="&lt;b&gt;ADC45517.1&lt;/b&gt;&lt;br&gt;AMP-dependent synthetase and ligase&lt;br&gt;Location: 19389 - 17671" points="698,85 703,80 705,80 705,90 703,90 698,85 " style="stroke-width:1; stroke:black; fill:white; " id="dummy-15_h15_4_85" class="clusterblast-orf"  />
</g>
<g id="a15_0086"  >
<polygon locus_tag="ADC45516.1" description="&lt;b&gt;ADC45516.1&lt;/b&gt;&lt;br&gt;modular polyketide synthase&lt;br&gt;Location: 17425 - 10556" points="706,90 730,90 735,85 730,80 706,80 706,90 " style="stroke-width:1; stroke:black; fill:white; " id="dummy-15_h15_4_86" class="clusterblast-orf"  />
</g>
<g id="a15_0087"  >
<polygon locus_tag="ADC45515.1" description="&lt;b&gt;ADC45515.1&lt;/b&gt;&lt;br&gt;modular polyketide synthase&lt;br&gt;Location: 10563 - 4699&lt;br&gt;&lt;br&gt;&lt;b&gt;BlastP hit with SSMG_03817&lt;/b&gt;&lt;br&gt;Percentage identity: 48&lt;br&gt;Percentage coverage: 53&lt;br&gt;BLAST bit score: 512&lt;br&gt;E-value: 2.5e-144" points="735,90 755,90 760,85 755,80 735,80 735,90 " style="stroke-width:1; stroke:black; fill:#1515d8; " id="dummy-15_h15_4_87" class="clusterblast-orf"  />
</g>
<g id="a15_0088"  >
<polygon locus_tag="ADC45514.1" description="&lt;b&gt;ADC45514.1&lt;/b&gt;&lt;br&gt;cytochrome P450&lt;br&gt;Location: 4683 - 3487" points="760,85 765,80 765,80 765,90 765,90 760,85 " style="stroke-width:1; stroke:black; fill:white; " id="dummy-15_h15_4_88" class="clusterblast-orf"  />
</g>
<g id="a15_0089"  >
<polygon locus_tag="ADC45513.1" description="&lt;b&gt;ADC45513.1&lt;/b&gt;&lt;br&gt;LysR-family transcriptional regulator&lt;br&gt;Location: 3331 - 2432" points="765,85 769,80 769,90 765,85 " style="stroke-width:1; stroke:black; fill:white; " id="dummy-15_h15_4_89" class="clusterblast-orf"  />
</g>
<g id="a15_0090"  >
<polygon locus_tag="ADC45512.1" description="&lt;b&gt;ADC45512.1&lt;/b&gt;&lt;br&gt;intracellular protease/amidase&lt;br&gt;Location: 2280 - 1603" points="770,90 773,85 770,80 770,90 " style="stroke-width:1; stroke:black; fill:white; " id="dummy-15_h15_4_90" class="clusterblast-orf"  />
</g>
<g id="a15_0091"  >
<polygon locus_tag="ADC45511.1" description="&lt;b&gt;ADC45511.1&lt;/b&gt;&lt;br&gt;Na+/H+ antiporter&lt;br&gt;Location: 1337 - 1" points="774,90 775,90 780,85 775,80 774,80 774,90 " style="stroke-width:1; stroke:black; fill:white; " id="dummy-15_h15_4_91" class="clusterblast-orf"  />
</g>
</svg>
