<svg version="1.1" xmlns="http://www.w3.org/2000/svg" height="230" width="800" xmlns:xlink="http://www.w3.org/1999/xlink" preserveAspectRatio="none" x="0" y="0" viewBox="0 0 800 230"  >
<g label="Query sequence" class="clusterblast-cluster"  >
<text class="clusterblast-acc" y="20" x="5"  >
Query sequence</text>
<line x1="10" x2="778.0" y2="35" style="stroke-width:1; stroke:grey; " y1="35"  />
<polygon locus_tag="SSMG_04068" description="&lt;b&gt;SSMG_04068&lt;/b&gt;&lt;br&gt;predicted protein&lt;br&gt;Location: 4430591 - 4431389" points="249,40 249,40 254,35 249,30 249,30 249,40 " style="stroke-width:1; stroke:black; fill:white; " id="dummy-16_q0_0_all" class="clusterblast-orf"  />
<polygon locus_tag="SSMG_04069" description="&lt;b&gt;SSMG_04069&lt;/b&gt;&lt;br&gt;proline/betaine transporter&lt;br&gt;Location: 4431385 - 4432696" points="254,40 257,40 262,35 257,30 254,30 254,40 " style="stroke-width:1; stroke:black; fill:white; " id="dummy-16_q1_0_all" class="clusterblast-orf"  />
<polygon locus_tag="SSMG_04070" description="&lt;b&gt;SSMG_04070&lt;/b&gt;&lt;br&gt;predicted protein&lt;br&gt;Location: 4432692 - 4434222" points="262,40 267,40 272,35 267,30 262,30 262,40 " style="stroke-width:1; stroke:black; fill:white; " id="dummy-16_q2_0_all" class="clusterblast-orf"  />
<polygon locus_tag="SSMG_04071" description="&lt;b&gt;SSMG_04071&lt;/b&gt;&lt;br&gt;predicted protein&lt;br&gt;Location: 4434196 - 4436218" points="272,40 279,40 284,35 279,30 272,30 272,40 " style="stroke-width:1; stroke:black; fill:white; " id="dummy-16_q3_0_all" class="clusterblast-orf"  />
<polygon locus_tag="SSMG_04072" description="&lt;b&gt;SSMG_04072&lt;/b&gt;&lt;br&gt;predicted protein&lt;br&gt;Location: 4436425 - 4437238" points="285,35 290,30 290,30 290,40 290,40 285,35 " style="stroke-width:1; stroke:black; fill:white; " id="dummy-16_q4_0_all" class="clusterblast-orf"  />
<polygon locus_tag="SSMG_04073" description="&lt;b&gt;SSMG_04073&lt;/b&gt;&lt;br&gt;major facilitator superfamily transporter permease&lt;br&gt;Location: 4437234 - 4438521" points="290,35 295,30 298,30 298,40 295,40 290,35 " style="stroke-width:1; stroke:black; fill:white; " id="dummy-16_q5_0_all" class="clusterblast-orf"  />
<polygon locus_tag="SSMG_04074" description="&lt;b&gt;SSMG_04074&lt;/b&gt;&lt;br&gt;conserved hypothetical protein&lt;br&gt;Location: 4438628 - 4441787" points="299,40 313,40 318,35 313,30 299,30 299,40 " style="stroke-width:1; stroke:black; fill:white; " id="dummy-16_q6_0_all" class="clusterblast-orf"  />
<polygon locus_tag="SSMG_04075" description="&lt;b&gt;SSMG_04075&lt;/b&gt;&lt;br&gt;predicted protein&lt;br&gt;Location: 4442155 - 4443325" points="321,35 326,30 328,30 328,40 326,40 321,35 " style="stroke-width:1; stroke:black; fill:white; " id="dummy-16_q7_0_all" class="clusterblast-orf"  />
<polygon locus_tag="SSMG_04076" description="&lt;b&gt;SSMG_04076&lt;/b&gt;&lt;br&gt;acetyl coenzyme A synthetase&lt;br&gt;Location: 4443318 - 4445454" points="328,40 336,40 341,35 336,30 328,30 328,40 " style="stroke-width:1; stroke:black; fill:white; " id="dummy-16_q8_0_all" class="clusterblast-orf"  />
<polygon locus_tag="SSMG_04077" description="&lt;b&gt;SSMG_04077&lt;/b&gt;&lt;br&gt;predicted protein&lt;br&gt;Location: 4445446 - 4446766" points="341,40 344,40 349,35 344,30 341,30 341,40 " style="stroke-width:1; stroke:black; fill:white; " id="dummy-16_q9_0_all" class="clusterblast-orf"  />
<polygon locus_tag="SSMG_04078" description="&lt;b&gt;SSMG_04078&lt;/b&gt;&lt;br&gt;predicted protein&lt;br&gt;Location: 4446822 - 4448145" points="350,40 353,40 358,35 353,30 350,30 350,40 " style="stroke-width:1; stroke:black; fill:white; " id="dummy-16_q10_0_all" class="clusterblast-orf"  />
<polygon locus_tag="SSMG_04079" description="&lt;b&gt;SSMG_04079&lt;/b&gt;&lt;br&gt;predicted protein&lt;br&gt;Location: 4448144 - 4449326" points="358,40 360,40 365,35 360,30 358,30 358,40 " style="stroke-width:1; stroke:black; fill:white; " id="dummy-16_q11_0_all" class="clusterblast-orf"  />
<polygon locus_tag="SSMG_04080" description="&lt;b&gt;SSMG_04080&lt;/b&gt;&lt;br&gt;cytochrome P450&lt;br&gt;Location: 4449339 - 4450548" points="365,35 370,30 373,30 373,40 370,40 365,35 " style="stroke-width:1; stroke:black; fill:#d81515; " id="dummy-16_q12_0_all" class="clusterblast-orf"  />
<polygon locus_tag="SSMG_04081" description="&lt;b&gt;SSMG_04081&lt;/b&gt;&lt;br&gt;predicted protein&lt;br&gt;Location: 4450544 - 4456262" points="373,35 378,30 408,30 408,40 378,40 373,35 " style="stroke-width:1; stroke:black; fill:#15d8d8; " id="dummy-16_q13_0_all" class="clusterblast-orf"  />
<polygon locus_tag="SSMG_04082" description="&lt;b&gt;SSMG_04082&lt;/b&gt;&lt;br&gt;predicted protein&lt;br&gt;Location: 4456548 - 4457130" points="410,40 413,35 410,30 410,40 " style="stroke-width:1; stroke:black; fill:white; " id="dummy-16_q14_0_all" class="clusterblast-orf"  />
<polygon locus_tag="SSMG_04083" description="&lt;b&gt;SSMG_04083&lt;/b&gt;&lt;br&gt;translation elongation factor EF-1, subunit alpha&lt;br&gt;Location: 4457199 - 4459032" points="414,35 419,30 425,30 425,40 419,40 414,35 " style="stroke-width:1; stroke:black; fill:white; " id="dummy-16_q15_0_all" class="clusterblast-orf"  />
<polygon locus_tag="SSMG_04084" description="&lt;b&gt;SSMG_04084&lt;/b&gt;&lt;br&gt;sulfate adenylyltransferase subunit 2&lt;br&gt;Location: 4459028 - 4459946" points="425,35 430,30 431,30 431,40 430,40 425,35 " style="stroke-width:1; stroke:black; fill:white; " id="dummy-16_q16_0_all" class="clusterblast-orf"  />
<polygon locus_tag="SSMG_04085" description="&lt;b&gt;SSMG_04085&lt;/b&gt;&lt;br&gt;baiE protein&lt;br&gt;Location: 4460028 - 4460502" points="431,40 434,35 431,30 431,40 " style="stroke-width:1; stroke:black; fill:white; " id="dummy-16_q17_0_all" class="clusterblast-orf"  />
<polygon locus_tag="SSMG_04086" description="&lt;b&gt;SSMG_04086&lt;/b&gt;&lt;br&gt;transcriptional regulator&lt;br&gt;Location: 4460511 - 4461399" points="434,35 439,30 440,30 440,40 439,40 434,35 " style="stroke-width:1; stroke:black; fill:white; " id="dummy-16_q18_0_all" class="clusterblast-orf"  />
<polygon locus_tag="SSMG_04087" description="&lt;b&gt;SSMG_04087&lt;/b&gt;&lt;br&gt;conserved hypothetical protein&lt;br&gt;Location: 4461487 - 4462654" points="440,40 442,40 447,35 442,30 440,30 440,40 " style="stroke-width:1; stroke:black; fill:white; " id="dummy-16_q19_0_all" class="clusterblast-orf"  />
<polygon locus_tag="SSMG_04088" description="&lt;b&gt;SSMG_04088&lt;/b&gt;&lt;br&gt;3-oxoacyl-[acyl-carrier-protein] reductase&lt;br&gt;Location: 4462658 - 4463438" points="447,40 447,40 452,35 447,30 447,30 447,40 " style="stroke-width:1; stroke:black; fill:white; " id="dummy-16_q20_0_all" class="clusterblast-orf"  />
<polygon locus_tag="SSMG_04089" description="&lt;b&gt;SSMG_04089&lt;/b&gt;&lt;br&gt;conserved hypothetical protein&lt;br&gt;Location: 4463448 - 4464600" points="452,40 454,40 459,35 454,30 452,30 452,40 " style="stroke-width:1; stroke:black; fill:white; " id="dummy-16_q21_0_all" class="clusterblast-orf"  />
<polygon locus_tag="SSMG_04090" description="&lt;b&gt;SSMG_04090&lt;/b&gt;&lt;br&gt;predicted protein&lt;br&gt;Location: 4464580 - 4465225" points="459,40 463,35 459,30 459,40 " style="stroke-width:1; stroke:black; fill:white; " id="dummy-16_q22_0_all" class="clusterblast-orf"  />
<polygon locus_tag="SSMG_04091" description="&lt;b&gt;SSMG_04091&lt;/b&gt;&lt;br&gt;predicted protein&lt;br&gt;Location: 4465316 - 4469924" points="464,35 469,30 492,30 492,40 469,40 464,35 " style="stroke-width:1; stroke:black; fill:white; " id="dummy-16_q23_0_all" class="clusterblast-orf"  />
<polygon locus_tag="SSMG_04092" description="&lt;b&gt;SSMG_04092&lt;/b&gt;&lt;br&gt;conserved hypothetical protein&lt;br&gt;Location: 4470040 - 4470820" points="493,35 498,30 498,30 498,40 498,40 493,35 " style="stroke-width:1; stroke:black; fill:white; " id="dummy-16_q24_0_all" class="clusterblast-orf"  />
<polygon locus_tag="SSMG_04093" description="&lt;b&gt;SSMG_04093&lt;/b&gt;&lt;br&gt;predicted protein&lt;br&gt;Location: 4471112 - 4471874" points="500,40 504,35 500,30 500,40 " style="stroke-width:1; stroke:black; fill:white; " id="dummy-16_q25_0_all" class="clusterblast-orf"  />
<polygon locus_tag="SSMG_04094" description="&lt;b&gt;SSMG_04094&lt;/b&gt;&lt;br&gt;NUDIX hydrolase&lt;br&gt;Location: 4471920 - 4472331" points="505,40 507,35 505,30 505,40 " style="stroke-width:1; stroke:black; fill:white; " id="dummy-16_q26_0_all" class="clusterblast-orf"  />
<polygon locus_tag="SSMG_04095" description="&lt;b&gt;SSMG_04095&lt;/b&gt;&lt;br&gt;5-oxoprolinase&lt;br&gt;Location: 4472373 - 4473963" points="507,35 512,30 517,30 517,40 512,40 507,35 " style="stroke-width:1; stroke:black; fill:white; " id="dummy-16_q27_0_all" class="clusterblast-orf"  />
<polygon locus_tag="SSMG_04096" description="&lt;b&gt;SSMG_04096&lt;/b&gt;&lt;br&gt;5-oxoprolinase&lt;br&gt;Location: 4473959 - 4475999" points="517,35 522,30 530,30 530,40 522,40 517,35 " style="stroke-width:1; stroke:black; fill:white; " id="dummy-16_q28_0_all" class="clusterblast-orf"  />
</g>
<g label="BGC0001522" description="BGC0001522_c1: auroramycin (7% of genes show similarity), Polyketide" class="clusterblast-cluster"  >
<text class="clusterblast-acc" y="70" x="5"  >
<a xlink:href="https://mibig.secondarymetabolites.org/go/BGC0001522/1" target="_blank">BGC0001522</a>:                                                                      auroramycin (7% of genes show similarity), Polyketide</text>
<line x1="10" x2="778.0" y2="85" style="stroke-width:1; stroke:grey; " y1="85"  />
</g>
<g id="a16_000"  >
<polygon locus_tag="AWR88445.1" description="&lt;b&gt;AWR88445.1&lt;/b&gt;&lt;br&gt;hypothetical protein&lt;br&gt;Location: 126292 - 125600" points="0,85 4,80 4,90 0,85 " style="stroke-width:1; stroke:black; fill:white; " id="dummy-16_h16_2_0" class="clusterblast-orf"  />
</g>
<g id="a16_001"  >
<polygon locus_tag="AWR88444.1" description="&lt;b&gt;AWR88444.1&lt;/b&gt;&lt;br&gt;hypothetical protein&lt;br&gt;Location: 125445 - 125158" points="5,85 7,80 7,90 5,85 " style="stroke-width:1; stroke:black; fill:white; " id="dummy-16_h16_2_1" class="clusterblast-orf"  />
</g>
<g id="a16_002"  >
<polygon locus_tag="AWR88443.1" description="&lt;b&gt;AWR88443.1&lt;/b&gt;&lt;br&gt;hypothetical protein&lt;br&gt;Location: 124672 - 124280" points="10,85 12,80 12,90 10,85 " style="stroke-width:1; stroke:black; fill:white; " id="dummy-16_h16_2_2" class="clusterblast-orf"  />
</g>
<g id="a16_003"  >
<polygon locus_tag="AWR88442.1" description="&lt;b&gt;AWR88442.1&lt;/b&gt;&lt;br&gt;hypothetical protein&lt;br&gt;Location: 124146 - 123712" points="13,85 15,80 15,90 13,85 " style="stroke-width:1; stroke:black; fill:white; " id="dummy-16_h16_2_3" class="clusterblast-orf"  />
</g>
<g id="a16_004"  >
<polygon locus_tag="AWR88441.1" description="&lt;b&gt;AWR88441.1&lt;/b&gt;&lt;br&gt;hypothetical protein&lt;br&gt;Location: 123503 - 123045" points="17,90 20,85 17,80 17,90 " style="stroke-width:1; stroke:black; fill:white; " id="dummy-16_h16_2_4" class="clusterblast-orf"  />
</g>
<g id="a16_005"  >
<polygon locus_tag="AWR88440.1" description="&lt;b&gt;AWR88440.1&lt;/b&gt;&lt;br&gt;hypothetical protein&lt;br&gt;Location: 122994 - 122032" points="20,85 25,80 26,80 26,90 25,90 20,85 " style="stroke-width:1; stroke:black; fill:white; " id="dummy-16_h16_2_5" class="clusterblast-orf"  />
</g>
<g id="a16_006"  >
<polygon locus_tag="AWR88439.1" description="&lt;b&gt;AWR88439.1&lt;/b&gt;&lt;br&gt;hypothetical protein&lt;br&gt;Location: 122018 - 121722" points="26,85 28,80 28,90 26,85 " style="stroke-width:1; stroke:black; fill:white; " id="dummy-16_h16_2_6" class="clusterblast-orf"  />
</g>
<g id="a16_007"  >
<polygon locus_tag="AWR88438.1" description="&lt;b&gt;AWR88438.1&lt;/b&gt;&lt;br&gt;putative sensor histidine kinase&lt;br&gt;Location: 121318 - 120086" points="30,85 35,80 38,80 38,90 35,90 30,85 " style="stroke-width:1; stroke:black; fill:white; " id="dummy-16_h16_2_7" class="clusterblast-orf"  />
</g>
<g id="a16_008"  >
<polygon locus_tag="AWR88437.1" description="&lt;b&gt;AWR88437.1&lt;/b&gt;&lt;br&gt;putative response regulator&lt;br&gt;Location: 120080 - 119427" points="38,85 42,80 42,90 38,85 " style="stroke-width:1; stroke:black; fill:white; " id="dummy-16_h16_2_8" class="clusterblast-orf"  />
</g>
<g id="a16_009"  >
<polygon locus_tag="AWR88436.1" description="&lt;b&gt;AWR88436.1&lt;/b&gt;&lt;br&gt;hypothetical protein&lt;br&gt;Location: 119044 - 118871" points="44,90 45,85 44,80 44,90 " style="stroke-width:1; stroke:black; fill:white; " id="dummy-16_h16_2_9" class="clusterblast-orf"  />
</g>
<g id="a16_0010"  >
<polygon locus_tag="AWR88435.1" description="&lt;b&gt;AWR88435.1&lt;/b&gt;&lt;br&gt;putative inositol monophosphatase&lt;br&gt;Location: 118778 - 117978" points="46,85 51,80 51,80 51,90 51,90 46,85 " style="stroke-width:1; stroke:black; fill:white; " id="dummy-16_h16_2_10" class="clusterblast-orf"  />
</g>
<g id="a16_0011"  >
<polygon locus_tag="AWR88434.1" description="&lt;b&gt;AWR88434.1&lt;/b&gt;&lt;br&gt;hypothetical protein&lt;br&gt;Location: 117927 - 116755" points="51,85 56,80 58,80 58,90 56,90 51,85 " style="stroke-width:1; stroke:black; fill:white; " id="dummy-16_h16_2_11" class="clusterblast-orf"  />
</g>
<g id="a16_0012"  >
<polygon locus_tag="AWR88433.1" description="&lt;b&gt;AWR88433.1&lt;/b&gt;&lt;br&gt;putative major facilitator transporter&lt;br&gt;Location: 116603 - 115359" points="59,90 62,90 67,85 62,80 59,80 59,90 " style="stroke-width:1; stroke:black; fill:white; " id="dummy-16_h16_2_12" class="clusterblast-orf"  />
</g>
<g id="a16_0013"  >
<polygon locus_tag="AWR88432.1" description="&lt;b&gt;AWR88432.1&lt;/b&gt;&lt;br&gt;hypothetical protein&lt;br&gt;Location: 115399 - 114080" points="67,90 70,90 75,85 70,80 67,80 67,90 " style="stroke-width:1; stroke:black; fill:white; " id="dummy-16_h16_2_13" class="clusterblast-orf"  />
</g>
<g id="a16_0014"  >
<polygon locus_tag="AWR88431.1" description="&lt;b&gt;AWR88431.1&lt;/b&gt;&lt;br&gt;hypothetical protein&lt;br&gt;Location: 113994 - 112822" points="75,85 80,80 83,80 83,90 80,90 75,85 " style="stroke-width:1; stroke:black; fill:white; " id="dummy-16_h16_2_14" class="clusterblast-orf"  />
</g>
<g id="a16_0015"  >
<polygon locus_tag="AWR88430.1" description="&lt;b&gt;AWR88430.1&lt;/b&gt;&lt;br&gt;hypothetical protein&lt;br&gt;Location: 112772 - 111315" points="83,90 87,90 92,85 87,80 83,80 83,90 " style="stroke-width:1; stroke:black; fill:white; " id="dummy-16_h16_2_15" class="clusterblast-orf"  />
</g>
<g id="a16_0016"  >
<polygon locus_tag="AWR88429.1" description="&lt;b&gt;AWR88429.1&lt;/b&gt;&lt;br&gt;putative rhodanese domain-containing protein&lt;br&gt;Location: 111230 - 110400" points="93,85 98,80 98,80 98,90 98,90 93,85 " style="stroke-width:1; stroke:black; fill:white; " id="dummy-16_h16_2_16" class="clusterblast-orf"  />
</g>
<g id="a16_0017"  >
<polygon locus_tag="AWR88428.1" description="&lt;b&gt;AWR88428.1&lt;/b&gt;&lt;br&gt;hypothetical protein&lt;br&gt;Location: 110163 - 109387" points="99,90 99,90 104,85 99,80 99,80 99,90 " style="stroke-width:1; stroke:black; fill:white; " id="dummy-16_h16_2_17" class="clusterblast-orf"  />
</g>
<g id="a16_0018"  >
<polygon locus_tag="AWR88427.1" description="&lt;b&gt;AWR88427.1&lt;/b&gt;&lt;br&gt;hypothetical protein&lt;br&gt;Location: 109300 - 108956" points="104,85 107,80 107,90 104,85 " style="stroke-width:1; stroke:black; fill:white; " id="dummy-16_h16_2_18" class="clusterblast-orf"  />
</g>
<g id="a16_0019"  >
<polygon locus_tag="AWR88426.1" description="&lt;b&gt;AWR88426.1&lt;/b&gt;&lt;br&gt;putative ABC transporter ATP-binding protein&lt;br&gt;Location: 108536 - 107724" points="109,90 109,90 114,85 109,80 109,80 109,90 " style="stroke-width:1; stroke:black; fill:white; " id="dummy-16_h16_2_19" class="clusterblast-orf"  />
</g>
<g id="a16_0020"  >
<polygon locus_tag="AWR88425.1" description="&lt;b&gt;AWR88425.1&lt;/b&gt;&lt;br&gt;putative ABC transporter, permease component&lt;br&gt;Location: 107720 - 106383" points="114,90 117,90 122,85 117,80 114,80 114,90 " style="stroke-width:1; stroke:black; fill:white; " id="dummy-16_h16_2_20" class="clusterblast-orf"  />
</g>
<g id="a16_0021"  >
<polygon locus_tag="AWR88424.1" description="&lt;b&gt;AWR88424.1&lt;/b&gt;&lt;br&gt;putative DegT/DnrJ/EryC1/StrS aminotransferase&lt;br&gt;Location: 106286 - 105096" points="123,85 128,80 130,80 130,90 128,90 123,85 " style="stroke-width:1; stroke:black; fill:white; " id="dummy-16_h16_2_21" class="clusterblast-orf"  />
</g>
<g id="a16_0022"  >
<polygon locus_tag="AWR88423.1" description="&lt;b&gt;AWR88423.1&lt;/b&gt;&lt;br&gt;putative oxidoreductase&lt;br&gt;Location: 105106 - 104090" points="130,85 135,80 137,80 137,90 135,90 130,85 " style="stroke-width:1; stroke:black; fill:white; " id="dummy-16_h16_2_22" class="clusterblast-orf"  />
</g>
<g id="a16_0023"  >
<polygon locus_tag="AWR88422.1" description="&lt;b&gt;AWR88422.1&lt;/b&gt;&lt;br&gt;putative glycosyltransferase, MGT family&lt;br&gt;Location: 104093 - 102804" points="137,85 142,80 145,80 145,90 142,90 137,85 " style="stroke-width:1; stroke:black; fill:white; " id="dummy-16_h16_2_23" class="clusterblast-orf"  />
</g>
<g id="a16_0024"  >
<polygon locus_tag="AWR88421.1" description="&lt;b&gt;AWR88421.1&lt;/b&gt;&lt;br&gt;putative cytochrome P450&lt;br&gt;Location: 102781 - 101465" points="145,85 150,80 153,80 153,90 150,90 145,85 " style="stroke-width:1; stroke:black; fill:white; " id="dummy-16_h16_2_24" class="clusterblast-orf"  />
</g>
<g id="a16_0025"  >
<polygon locus_tag="AWR88420.1" description="&lt;b&gt;AWR88420.1&lt;/b&gt;&lt;br&gt;hypothetical protein&lt;br&gt;Location: 101326 - 100058" points="154,90 157,90 162,85 157,80 154,80 154,90 " style="stroke-width:1; stroke:black; fill:white; " id="dummy-16_h16_2_25" class="clusterblast-orf"  />
</g>
<g id="a16_0026"  >
<polygon locus_tag="AWR88419.1" description="&lt;b&gt;AWR88419.1&lt;/b&gt;&lt;br&gt;putative glycosyltransferase, MGT family&lt;br&gt;Location: 100023 - 99031" points="162,85 167,80 168,80 168,90 167,90 162,85 " style="stroke-width:1; stroke:black; fill:white; " id="dummy-16_h16_2_26" class="clusterblast-orf"  />
</g>
<g id="a16_0027"  >
<polygon locus_tag="AWR88418.1" description="&lt;b&gt;AWR88418.1&lt;/b&gt;&lt;br&gt;putative methyltransferase&lt;br&gt;Location: 98825 - 98097" points="169,90 169,90 174,85 169,80 169,80 169,90 " style="stroke-width:1; stroke:black; fill:white; " id="dummy-16_h16_2_27" class="clusterblast-orf"  />
</g>
<g id="a16_0028"  >
<polygon locus_tag="AWR88417.1" description="&lt;b&gt;AWR88417.1&lt;/b&gt;&lt;br&gt;hypothetical protein&lt;br&gt;Location: 98028 - 96664" points="174,85 179,80 182,80 182,90 179,90 174,85 " style="stroke-width:1; stroke:black; fill:white; " id="dummy-16_h16_2_28" class="clusterblast-orf"  />
</g>
<g id="a16_0029"  >
<polygon locus_tag="AWR88416.1" description="&lt;b&gt;AWR88416.1&lt;/b&gt;&lt;br&gt;putative NAD-dependent epimerase/dehydratase&lt;br&gt;Location: 96667 - 95618" points="182,85 187,80 189,80 189,90 187,90 182,85 " style="stroke-width:1; stroke:black; fill:white; " id="dummy-16_h16_2_29" class="clusterblast-orf"  />
</g>
<g id="a16_0030"  >
<polygon locus_tag="AWR88415.1" description="&lt;b&gt;AWR88415.1&lt;/b&gt;&lt;br&gt;putative glucose-1-phosphate adenylyl/ thymidylyltransferas e&lt;br&gt;Location: 95621 - 94551" points="189,85 194,80 196,80 196,90 194,90 189,85 " style="stroke-width:1; stroke:black; fill:white; " id="dummy-16_h16_2_30" class="clusterblast-orf"  />
</g>
<g id="a16_0031"  >
<polygon locus_tag="AWR88414.1" description="&lt;b&gt;AWR88414.1&lt;/b&gt;&lt;br&gt;putative glycosyltransferase, MGT family&lt;br&gt;Location: 94403 - 93108" points="196,85 201,80 204,80 204,90 201,90 196,85 " style="stroke-width:1; stroke:black; fill:white; " id="dummy-16_h16_2_31" class="clusterblast-orf"  />
</g>
<g id="a16_0032"  >
<polygon locus_tag="AWR88413.1" description="&lt;b&gt;AWR88413.1&lt;/b&gt;&lt;br&gt;putative haloalkane dehalogenase&lt;br&gt;Location: 92904 - 91987" points="206,90 206,90 211,85 206,80 206,80 206,90 " style="stroke-width:1; stroke:black; fill:white; " id="dummy-16_h16_2_32" class="clusterblast-orf"  />
</g>
<g id="a16_0033"  >
<polygon locus_tag="AWR88412.1" description="&lt;b&gt;AWR88412.1&lt;/b&gt;&lt;br&gt;hypothetical protein&lt;br&gt;Location: 91952 - 90606" points="212,90 215,90 220,85 215,80 212,80 212,90 " style="stroke-width:1; stroke:black; fill:white; " id="dummy-16_h16_2_33" class="clusterblast-orf"  />
</g>
<g id="a16_0034"  >
<polygon locus_tag="AWR88411.1" description="&lt;b&gt;AWR88411.1&lt;/b&gt;&lt;br&gt;putative aminotransferase&lt;br&gt;Location: 90585 - 89191" points="220,90 224,90 229,85 224,80 220,80 220,90 " style="stroke-width:1; stroke:black; fill:white; " id="dummy-16_h16_2_34" class="clusterblast-orf"  />
</g>
<g id="a16_0035"  >
<polygon locus_tag="AWR88410.1" description="&lt;b&gt;AWR88410.1&lt;/b&gt;&lt;br&gt;putative malonyl CoA-acyl carrier protein transacylase&lt;br&gt;Location: 89100 - 88111" points="229,90 230,90 235,85 230,80 229,80 229,90 " style="stroke-width:1; stroke:black; fill:white; " id="dummy-16_h16_2_35" class="clusterblast-orf"  />
</g>
<g id="a16_0036"  >
<polygon locus_tag="AWR88409.1" description="&lt;b&gt;AWR88409.1&lt;/b&gt;&lt;br&gt;putative AMP-dependent synthetase and ligase&lt;br&gt;Location: 88169 - 86493" points="235,85 240,80 245,80 245,90 240,90 235,85 " style="stroke-width:1; stroke:black; fill:white; " id="dummy-16_h16_2_36" class="clusterblast-orf"  />
</g>
<g id="a16_0037"  >
<polygon locus_tag="AWR88408.1" description="&lt;b&gt;AWR88408.1&lt;/b&gt;&lt;br&gt;putative acyl carrier protein&lt;br&gt;Location: 86409 - 86170" points="246,85 247,80 247,90 246,85 " style="stroke-width:1; stroke:black; fill:white; " id="dummy-16_h16_2_37" class="clusterblast-orf"  />
</g>
<g id="a16_0038"  >
<polygon locus_tag="AWR88407.1" description="&lt;b&gt;AWR88407.1&lt;/b&gt;&lt;br&gt;putative AMP-dependent synthetase and ligase&lt;br&gt;Location: 86028 - 84388" points="248,90 253,90 258,85 253,80 248,80 248,90 " style="stroke-width:1; stroke:black; fill:white; " id="dummy-16_h16_2_38" class="clusterblast-orf"  />
</g>
<g id="a16_0039"  >
<polygon locus_tag="AWR88406.1" description="&lt;b&gt;AWR88406.1&lt;/b&gt;&lt;br&gt;putative cytochrome P450&lt;br&gt;Location: 84391 - 83195&lt;br&gt;&lt;br&gt;&lt;b&gt;BlastP hit with SSMG_04080&lt;/b&gt;&lt;br&gt;Percentage identity: 49&lt;br&gt;Percentage coverage: 98&lt;br&gt;BLAST bit score: 358&lt;br&gt;E-value: 1.2e-98" points="258,90 261,90 266,85 261,80 258,80 258,90 " style="stroke-width:1; stroke:black; fill:#d81515; " id="dummy-16_h16_2_39" class="clusterblast-orf"  />
</g>
<g id="a16_0040"  >
<polygon locus_tag="AWR88405.1" description="&lt;b&gt;AWR88405.1&lt;/b&gt;&lt;br&gt;putative phosphopantetheine-binding domain- containing prot ein&lt;br&gt;Location: 82992 - 71617&lt;br&gt;&lt;br&gt;&lt;b&gt;BlastP hit with SSMG_04081&lt;/b&gt;&lt;br&gt;Percentage identity: 46&lt;br&gt;Percentage coverage: 86&lt;br&gt;BLAST bit score: 1155&lt;br&gt;E-value: 0.0" points="267,85 272,80 337,80 337,90 272,90 267,85 " style="stroke-width:1; stroke:black; fill:#15d8d8; " id="dummy-16_h16_2_40" class="clusterblast-orf"  />
</g>
<g id="a16_0041"  >
<polygon locus_tag="AWR88404.1" description="&lt;b&gt;AWR88404.1&lt;/b&gt;&lt;br&gt;putative beta-ketoacyl synthase&lt;br&gt;Location: 71611 - 55358&lt;br&gt;&lt;br&gt;&lt;b&gt;BlastP hit with SSMG_04081&lt;/b&gt;&lt;br&gt;Percentage identity: 47&lt;br&gt;Percentage coverage: 92&lt;br&gt;BLAST bit score: 1289&lt;br&gt;E-value: 0.0" points="337,85 342,80 438,80 438,90 342,90 337,85 " style="stroke-width:1; stroke:black; fill:#15d8d8; " id="dummy-16_h16_2_41" class="clusterblast-orf"  />
</g>
<g id="a16_0042"  >
<polygon locus_tag="AWR88403.1" description="&lt;b&gt;AWR88403.1&lt;/b&gt;&lt;br&gt;putative thioesterase&lt;br&gt;Location: 54983 - 54207" points="440,90 440,90 445,85 440,80 440,80 440,90 " style="stroke-width:1; stroke:black; fill:white; " id="dummy-16_h16_2_42" class="clusterblast-orf"  />
</g>
<g id="a16_0043"  >
<polygon locus_tag="AWR88402.1" description="&lt;b&gt;AWR88402.1&lt;/b&gt;&lt;br&gt;putative ABC-2 type transporter&lt;br&gt;Location: 54124 - 53327" points="445,85 450,80 450,80 450,90 450,90 445,85 " style="stroke-width:1; stroke:black; fill:white; " id="dummy-16_h16_2_43" class="clusterblast-orf"  />
</g>
<g id="a16_0044"  >
<polygon locus_tag="AWR88401.1" description="&lt;b&gt;AWR88401.1&lt;/b&gt;&lt;br&gt;putative ABC transporter ATP-binding protein&lt;br&gt;Location: 53330 - 52320" points="450,85 455,80 456,80 456,90 455,90 450,85 " style="stroke-width:1; stroke:black; fill:white; " id="dummy-16_h16_2_44" class="clusterblast-orf"  />
</g>
<g id="a16_0045"  >
<polygon locus_tag="AWR88400.1" description="&lt;b&gt;AWR88400.1&lt;/b&gt;&lt;br&gt;putative TetR family transcriptional regulator&lt;br&gt;Location: 52224 - 51457" points="457,90 457,90 462,85 457,80 457,80 457,90 " style="stroke-width:1; stroke:black; fill:white; " id="dummy-16_h16_2_45" class="clusterblast-orf"  />
</g>
<g id="a16_0046"  >
<polygon locus_tag="AWR88399.1" description="&lt;b&gt;AWR88399.1&lt;/b&gt;&lt;br&gt;putative beta-ketoacyl synthase&lt;br&gt;Location: 51436 - 40544&lt;br&gt;&lt;br&gt;&lt;b&gt;BlastP hit with SSMG_04081&lt;/b&gt;&lt;br&gt;Percentage identity: 49&lt;br&gt;Percentage coverage: 90&lt;br&gt;BLAST bit score: 1419&lt;br&gt;E-value: 0.0" points="462,85 467,80 529,80 529,90 467,90 462,85 " style="stroke-width:1; stroke:black; fill:#15d8d8; " id="dummy-16_h16_2_46" class="clusterblast-orf"  />
</g>
<g id="a16_0047"  >
<polygon locus_tag="AWR88398.1" description="&lt;b&gt;AWR88398.1&lt;/b&gt;&lt;br&gt;putative beta-ketoacyl synthase&lt;br&gt;Location: 40416 - 35485" points="530,85 535,80 560,80 560,90 535,90 530,85 " style="stroke-width:1; stroke:black; fill:white; " id="dummy-16_h16_2_47" class="clusterblast-orf"  />
</g>
<g id="a16_0048"  >
<polygon locus_tag="AWR88397.1" description="&lt;b&gt;AWR88397.1&lt;/b&gt;&lt;br&gt;putative glycosyltransferase, MGT family&lt;br&gt;Location: 35423 - 34440" points="561,85 566,80 567,80 567,90 566,90 561,85 " style="stroke-width:1; stroke:black; fill:white; " id="dummy-16_h16_2_48" class="clusterblast-orf"  />
</g>
<g id="a16_0049"  >
<polygon locus_tag="AWR88396.1" description="&lt;b&gt;AWR88396.1&lt;/b&gt;&lt;br&gt;putative 3-hydroxybutyryl-CoA dehydrogenase&lt;br&gt;Location: 34363 - 33503" points="567,85 572,80 573,80 573,90 572,90 567,85 " style="stroke-width:1; stroke:black; fill:white; " id="dummy-16_h16_2_49" class="clusterblast-orf"  />
</g>
<g id="a16_0050"  >
<polygon locus_tag="AWR88395.1" description="&lt;b&gt;AWR88395.1&lt;/b&gt;&lt;br&gt;putative 3-oxoacyl-(acyl carrier protein) synthase III&lt;br&gt;Location: 33506 - 32496" points="573,85 578,80 579,80 579,90 578,90 573,85 " style="stroke-width:1; stroke:black; fill:white; " id="dummy-16_h16_2_50" class="clusterblast-orf"  />
</g>
<g id="a16_0051"  >
<polygon locus_tag="AWR88394.1" description="&lt;b&gt;AWR88394.1&lt;/b&gt;&lt;br&gt;putative crotonyl-CoA reductase / alcohol dehydrogenase&lt;br&gt;Location: 32499 - 31162" points="579,85 584,80 587,80 587,90 584,90 579,85 " style="stroke-width:1; stroke:black; fill:white; " id="dummy-16_h16_2_51" class="clusterblast-orf"  />
</g>
<g id="a16_0052"  >
<polygon locus_tag="AWR88393.1" description="&lt;b&gt;AWR88393.1&lt;/b&gt;&lt;br&gt;putative beta-ketoacyl synthase&lt;br&gt;Location: 31130 - 19662&lt;br&gt;&lt;br&gt;&lt;b&gt;BlastP hit with SSMG_04081&lt;/b&gt;&lt;br&gt;Percentage identity: 54&lt;br&gt;Percentage coverage: 92&lt;br&gt;BLAST bit score: 1606&lt;br&gt;E-value: 0.0" points="587,85 592,80 658,80 658,90 592,90 587,85 " style="stroke-width:1; stroke:black; fill:#15d8d8; " id="dummy-16_h16_2_52" class="clusterblast-orf"  />
</g>
<g id="a16_0053"  >
<polygon locus_tag="AWR88392.1" description="&lt;b&gt;AWR88392.1&lt;/b&gt;&lt;br&gt;hypothetical protein&lt;br&gt;Location: 19362 - 18682" points="660,90 664,85 660,80 660,90 " style="stroke-width:1; stroke:black; fill:white; " id="dummy-16_h16_2_53" class="clusterblast-orf"  />
</g>
<g id="a16_0054"  >
<polygon locus_tag="AWR88391.1" description="&lt;b&gt;AWR88391.1&lt;/b&gt;&lt;br&gt;putative nucleotide sugar dehydrogenase&lt;br&gt;Location: 18490 - 17267" points="665,90 668,90 673,85 668,80 665,80 665,90 " style="stroke-width:1; stroke:black; fill:white; " id="dummy-16_h16_2_54" class="clusterblast-orf"  />
</g>
<g id="a16_0055"  >
<polygon locus_tag="AWR88390.1" description="&lt;b&gt;AWR88390.1&lt;/b&gt;&lt;br&gt;putative NAD-dependent epimerase/dehydratase&lt;br&gt;Location: 17244 - 16258" points="673,90 674,90 679,85 674,80 673,80 673,90 " style="stroke-width:1; stroke:black; fill:white; " id="dummy-16_h16_2_55" class="clusterblast-orf"  />
</g>
<g id="a16_0056"  >
<polygon locus_tag="AWR88389.1" description="&lt;b&gt;AWR88389.1&lt;/b&gt;&lt;br&gt;putative LuxR family transcriptional regulator&lt;br&gt;Location: 15976 - 13082" points="681,90 694,90 699,85 694,80 681,80 681,90 " style="stroke-width:1; stroke:black; fill:white; " id="dummy-16_h16_2_56" class="clusterblast-orf"  />
</g>
<g id="a16_0057"  >
<polygon locus_tag="AWR88388.1" description="&lt;b&gt;AWR88388.1&lt;/b&gt;&lt;br&gt;hypothetical protein&lt;br&gt;Location: 13057 - 12407" points="699,85 703,80 703,90 699,85 " style="stroke-width:1; stroke:black; fill:white; " id="dummy-16_h16_2_57" class="clusterblast-orf"  />
</g>
<g id="a16_0058"  >
<polygon locus_tag="AWR88387.1" description="&lt;b&gt;AWR88387.1&lt;/b&gt;&lt;br&gt;hypothetical protein&lt;br&gt;Location: 12360 - 11173" points="703,85 708,80 710,80 710,90 708,90 703,85 " style="stroke-width:1; stroke:black; fill:white; " id="dummy-16_h16_2_58" class="clusterblast-orf"  />
</g>
<g id="a16_0059"  >
<polygon locus_tag="AWR88386.1" description="&lt;b&gt;AWR88386.1&lt;/b&gt;&lt;br&gt;hypothetical protein&lt;br&gt;Location: 11173 - 10577" points="710,85 714,80 714,90 710,85 " style="stroke-width:1; stroke:black; fill:white; " id="dummy-16_h16_2_59" class="clusterblast-orf"  />
</g>
<g id="a16_0060"  >
<polygon locus_tag="AWR88385.1" description="&lt;b&gt;AWR88385.1&lt;/b&gt;&lt;br&gt;putative GCN5-related N-acetyltransferase&lt;br&gt;Location: 10519 - 7592" points="715,85 720,80 733,80 733,90 720,90 715,85 " style="stroke-width:1; stroke:black; fill:white; " id="dummy-16_h16_2_60" class="clusterblast-orf"  />
</g>
<g id="a16_0061"  >
<polygon locus_tag="AWR88384.1" description="&lt;b&gt;AWR88384.1&lt;/b&gt;&lt;br&gt;hypothetical protein&lt;br&gt;Location: 7495 - 7214" points="733,90 735,85 733,80 733,90 " style="stroke-width:1; stroke:black; fill:white; " id="dummy-16_h16_2_61" class="clusterblast-orf"  />
</g>
<g id="a16_0062"  >
<polygon locus_tag="AWR88383.1" description="&lt;b&gt;AWR88383.1&lt;/b&gt;&lt;br&gt;putative GntR family transcriptional regulator&lt;br&gt;Location: 7029 - 6322" points="736,85 740,80 740,90 736,85 " style="stroke-width:1; stroke:black; fill:white; " id="dummy-16_h16_2_62" class="clusterblast-orf"  />
</g>
<g id="a16_0063"  >
<polygon locus_tag="AWR88382.1" description="&lt;b&gt;AWR88382.1&lt;/b&gt;&lt;br&gt;hypothetical protein&lt;br&gt;Location: 6141 - 5326" points="742,85 747,80 747,80 747,90 747,90 742,85 " style="stroke-width:1; stroke:black; fill:white; " id="dummy-16_h16_2_63" class="clusterblast-orf"  />
</g>
<g id="a16_0064"  >
<polygon locus_tag="AWR88381.1" description="&lt;b&gt;AWR88381.1&lt;/b&gt;&lt;br&gt;hypothetical protein&lt;br&gt;Location: 4901 - 3531" points="749,85 754,80 758,80 758,90 754,90 749,85 " style="stroke-width:1; stroke:black; fill:white; " id="dummy-16_h16_2_64" class="clusterblast-orf"  />
</g>
<g id="a16_0065"  >
<polygon locus_tag="AWR88380.1" description="&lt;b&gt;AWR88380.1&lt;/b&gt;&lt;br&gt;hypothetical protein&lt;br&gt;Location: 3504 - 2122" points="758,85 763,80 766,80 766,90 763,90 758,85 " style="stroke-width:1; stroke:black; fill:white; " id="dummy-16_h16_2_65" class="clusterblast-orf"  />
</g>
<g id="a16_0066"  >
<polygon locus_tag="AWR88379.1" description="&lt;b&gt;AWR88379.1&lt;/b&gt;&lt;br&gt;hypothetical protein&lt;br&gt;Location: 1829 - 1" points="768,90 775,90 780,85 775,80 768,80 768,90 " style="stroke-width:1; stroke:black; fill:white; " id="dummy-16_h16_2_66" class="clusterblast-orf"  />
</g>
</svg>
