<svg version="1.1" xmlns="http://www.w3.org/2000/svg" height="230" width="800" xmlns:xlink="http://www.w3.org/1999/xlink" preserveAspectRatio="none" x="0" y="0" viewBox="0 0 800 230"  >
<g label="Query sequence" class="clusterblast-cluster"  >
<text class="clusterblast-acc" y="20" x="5"  >
Query sequence</text>
<line x1="10" x2="778.0" y2="35" style="stroke-width:1; stroke:grey; " y1="35"  />
<polygon locus_tag="SSMG_03800" description="&lt;b&gt;SSMG_03800&lt;/b&gt;&lt;br&gt;predicted protein&lt;br&gt;Location: 4135625 - 4136882" points="184,35 189,30 193,30 193,40 189,40 184,35 " style="stroke-width:1; stroke:black; fill:white; " id="dummy-15_q0_0_all" class="clusterblast-orf"  />
<polygon locus_tag="SSMG_03801" description="&lt;b&gt;SSMG_03801&lt;/b&gt;&lt;br&gt;predicted protein&lt;br&gt;Location: 4138121 - 4138613" points="203,35 206,30 206,40 203,35 " style="stroke-width:1; stroke:black; fill:white; " id="dummy-15_q1_0_all" class="clusterblast-orf"  />
<polygon locus_tag="SSMG_03802" description="&lt;b&gt;SSMG_03802&lt;/b&gt;&lt;br&gt;transposase&lt;br&gt;Location: 4138531 - 4139158" points="206,40 210,35 206,30 206,40 " style="stroke-width:1; stroke:black; fill:white; " id="dummy-15_q2_0_all" class="clusterblast-orf"  />
<polygon locus_tag="SSMG_03803" description="&lt;b&gt;SSMG_03803&lt;/b&gt;&lt;br&gt;predicted protein&lt;br&gt;Location: 4139336 - 4139750" points="212,40 215,35 212,30 212,40 " style="stroke-width:1; stroke:black; fill:white; " id="dummy-15_q3_0_all" class="clusterblast-orf"  />
<polygon locus_tag="SSMG_03804" description="&lt;b&gt;SSMG_03804&lt;/b&gt;&lt;br&gt;RNA polymerase sigma factor RpoE&lt;br&gt;Location: 4139929 - 4140688" points="216,40 217,40 222,35 217,30 216,30 216,40 " style="stroke-width:1; stroke:black; fill:#d81515; " id="dummy-15_q4_0_all" class="clusterblast-orf"  />
<polygon locus_tag="SSMG_03805" description="&lt;b&gt;SSMG_03805&lt;/b&gt;&lt;br&gt;predicted protein&lt;br&gt;Location: 4140871 - 4141780" points="223,35 228,30 230,30 230,40 228,40 223,35 " style="stroke-width:1; stroke:black; fill:white; " id="dummy-15_q5_0_all" class="clusterblast-orf"  />
<polygon locus_tag="SSMG_03806" description="&lt;b&gt;SSMG_03806&lt;/b&gt;&lt;br&gt;predicted protein&lt;br&gt;Location: 4141905 - 4144077" points="231,40 242,40 247,35 242,30 231,30 231,40 " style="stroke-width:1; stroke:black; fill:white; " id="dummy-15_q6_0_all" class="clusterblast-orf"  />
<polygon locus_tag="SSMG_03807" description="&lt;b&gt;SSMG_03807&lt;/b&gt;&lt;br&gt;periplasmic solute binding protein&lt;br&gt;Location: 4144082 - 4144871" points="247,35 252,30 253,30 253,40 252,40 247,35 " style="stroke-width:1; stroke:black; fill:white; " id="dummy-15_q7_0_all" class="clusterblast-orf"  />
<polygon locus_tag="SSMG_03808" description="&lt;b&gt;SSMG_03808&lt;/b&gt;&lt;br&gt;predicted protein&lt;br&gt;Location: 4144840 - 4145686" points="252,35 257,30 259,30 259,40 257,40 252,35 " style="stroke-width:1; stroke:black; fill:white; " id="dummy-15_q8_0_all" class="clusterblast-orf"  />
<polygon locus_tag="SSMG_03809" description="&lt;b&gt;SSMG_03809&lt;/b&gt;&lt;br&gt;ABC transporter&lt;br&gt;Location: 4145682 - 4146336" points="259,35 263,30 263,40 259,35 " style="stroke-width:1; stroke:black; fill:white; " id="dummy-15_q9_0_all" class="clusterblast-orf"  />
<polygon locus_tag="SSMG_03810" description="&lt;b&gt;SSMG_03810&lt;/b&gt;&lt;br&gt;predicted protein&lt;br&gt;Location: 4146416 - 4147538" points="264,35 269,30 272,30 272,40 269,40 264,35 " style="stroke-width:1; stroke:black; fill:white; " id="dummy-15_q10_0_all" class="clusterblast-orf"  />
<polygon locus_tag="SSMG_03811" description="&lt;b&gt;SSMG_03811&lt;/b&gt;&lt;br&gt;predicted protein&lt;br&gt;Location: 4147626 - 4149222" points="273,40 280,40 285,35 280,30 273,30 273,40 " style="stroke-width:1; stroke:black; fill:white; " id="dummy-15_q11_0_all" class="clusterblast-orf"  />
<polygon locus_tag="SSMG_03812" description="&lt;b&gt;SSMG_03812&lt;/b&gt;&lt;br&gt;cyclohexanecarboxylate-CoA ligase&lt;br&gt;Location: 4149218 - 4150868" points="285,40 292,40 297,35 292,30 285,30 285,40 " style="stroke-width:1; stroke:black; fill:#15d815; " id="dummy-15_q12_0_all" class="clusterblast-orf"  />
<polygon locus_tag="SSMG_03813" description="&lt;b&gt;SSMG_03813&lt;/b&gt;&lt;br&gt;high-affinity nickel-transporter&lt;br&gt;Location: 4150933 - 4152067" points="298,35 303,30 306,30 306,40 303,40 298,35 " style="stroke-width:1; stroke:black; fill:white; " id="dummy-15_q13_0_all" class="clusterblast-orf"  />
<polygon locus_tag="SSMG_03814" description="&lt;b&gt;SSMG_03814&lt;/b&gt;&lt;br&gt;predicted protein&lt;br&gt;Location: 4153135 - 4153549" points="314,35 317,30 317,40 314,35 " style="stroke-width:1; stroke:black; fill:white; " id="dummy-15_q14_0_all" class="clusterblast-orf"  />
<polygon locus_tag="SSMG_03815" description="&lt;b&gt;SSMG_03815&lt;/b&gt;&lt;br&gt;5,10-methylenetetrahydromethanopterin reductase&lt;br&gt;Location: 4153709 - 4154882" points="318,40 322,40 327,35 322,30 318,30 318,40 " style="stroke-width:1; stroke:black; fill:white; " id="dummy-15_q15_0_all" class="clusterblast-orf"  />
<polygon locus_tag="SSMG_03816" description="&lt;b&gt;SSMG_03816&lt;/b&gt;&lt;br&gt;predicted protein&lt;br&gt;Location: 4154971 - 4167916" points="327,40 418,40 423,35 418,30 327,30 327,40 " style="stroke-width:1; stroke:black; fill:#1515d8; " id="dummy-15_q16_0_all" class="clusterblast-orf"  />
<polygon locus_tag="SSMG_03817" description="&lt;b&gt;SSMG_03817&lt;/b&gt;&lt;br&gt;predicted protein&lt;br&gt;Location: 4167902 - 4171460" points="423,40 445,40 450,35 445,30 423,30 423,40 " style="stroke-width:1; stroke:black; fill:#1515d8; " id="dummy-15_q17_0_all" class="clusterblast-orf"  />
<polygon locus_tag="SSMG_03818" description="&lt;b&gt;SSMG_03818&lt;/b&gt;&lt;br&gt;conserved hypothetical protein&lt;br&gt;Location: 4173548 - 4174076" points="465,40 469,35 465,30 465,40 " style="stroke-width:1; stroke:black; fill:white; " id="dummy-15_q18_0_all" class="clusterblast-orf"  />
<polygon locus_tag="SSMG_03819" description="&lt;b&gt;SSMG_03819&lt;/b&gt;&lt;br&gt;lipolytic enzyme&lt;br&gt;Location: 4174081 - 4174861" points="469,35 474,30 475,30 475,40 474,40 469,35 " style="stroke-width:1; stroke:black; fill:white; " id="dummy-15_q19_0_all" class="clusterblast-orf"  />
<polygon locus_tag="SSMG_03820" description="&lt;b&gt;SSMG_03820&lt;/b&gt;&lt;br&gt;predicted protein&lt;br&gt;Location: 4174949 - 4175519" points="475,35 480,30 480,30 480,40 480,40 475,35 " style="stroke-width:1; stroke:black; fill:white; " id="dummy-15_q20_0_all" class="clusterblast-orf"  />
<polygon locus_tag="SSMG_03821" description="&lt;b&gt;SSMG_03821&lt;/b&gt;&lt;br&gt;major facilitator transporter&lt;br&gt;Location: 4175685 - 4177029" points="481,40 486,40 491,35 486,30 481,30 481,40 " style="stroke-width:1; stroke:black; fill:white; " id="dummy-15_q21_0_all" class="clusterblast-orf"  />
<polygon locus_tag="SSMG_03822" description="&lt;b&gt;SSMG_03822&lt;/b&gt;&lt;br&gt;SPFH domain/band 7 family protein&lt;br&gt;Location: 4177090 - 4178488" points="491,35 496,30 502,30 502,40 496,40 491,35 " style="stroke-width:1; stroke:black; fill:white; " id="dummy-15_q22_0_all" class="clusterblast-orf"  />
<polygon locus_tag="SSMG_03823" description="&lt;b&gt;SSMG_03823&lt;/b&gt;&lt;br&gt;predicted protein&lt;br&gt;Location: 4178553 - 4178988" points="502,35 505,30 505,40 502,35 " style="stroke-width:1; stroke:black; fill:white; " id="dummy-15_q23_0_all" class="clusterblast-orf"  />
<polygon locus_tag="SSMG_03824" description="&lt;b&gt;SSMG_03824&lt;/b&gt;&lt;br&gt;conserved hypothetical protein&lt;br&gt;Location: 4179080 - 4179887" points="506,35 511,30 512,30 512,40 511,40 506,35 " style="stroke-width:1; stroke:black; fill:white; " id="dummy-15_q24_0_all" class="clusterblast-orf"  />
<polygon locus_tag="SSMG_03825" description="&lt;b&gt;SSMG_03825&lt;/b&gt;&lt;br&gt;aldo/keto reductase&lt;br&gt;Location: 4180049 - 4181042" points="513,40 516,40 521,35 516,30 513,30 513,40 " style="stroke-width:1; stroke:black; fill:#d815d8; " id="dummy-15_q25_0_all" class="clusterblast-orf"  />
<polygon locus_tag="SSMG_03826" description="&lt;b&gt;SSMG_03826&lt;/b&gt;&lt;br&gt;predicted protein&lt;br&gt;Location: 4181073 - 4181988" points="521,35 526,30 528,30 528,40 526,40 521,35 " style="stroke-width:1; stroke:black; fill:white; " id="dummy-15_q26_0_all" class="clusterblast-orf"  />
<polygon locus_tag="SSMG_03827" description="&lt;b&gt;SSMG_03827&lt;/b&gt;&lt;br&gt;phosphatidylinositol 3-and 4-kinase&lt;br&gt;Location: 4181972 - 4182782" points="528,35 533,30 534,30 534,40 533,40 528,35 " style="stroke-width:1; stroke:black; fill:white; " id="dummy-15_q27_0_all" class="clusterblast-orf"  />
<polygon locus_tag="SSMG_03828" description="&lt;b&gt;SSMG_03828&lt;/b&gt;&lt;br&gt;conserved hypothetical protein&lt;br&gt;Location: 4182790 - 4183366" points="534,35 538,30 538,40 534,35 " style="stroke-width:1; stroke:black; fill:white; " id="dummy-15_q28_0_all" class="clusterblast-orf"  />
<polygon locus_tag="SSMG_03829" description="&lt;b&gt;SSMG_03829&lt;/b&gt;&lt;br&gt;acyl-peptide hydrolase&lt;br&gt;Location: 4183496 - 4185428" points="539,40 548,40 553,35 548,30 539,30 539,40 " style="stroke-width:1; stroke:black; fill:#d8d815; " id="dummy-15_q29_0_all" class="clusterblast-orf"  />
<polygon locus_tag="SSMG_03830" description="&lt;b&gt;SSMG_03830&lt;/b&gt;&lt;br&gt;conserved hypothetical protein&lt;br&gt;Location: 4185424 - 4186324" points="553,40 555,40 560,35 555,30 553,30 553,40 " style="stroke-width:1; stroke:black; fill:#15d8d8; " id="dummy-15_q30_0_all" class="clusterblast-orf"  />
<polygon locus_tag="SSMG_03831" description="&lt;b&gt;SSMG_03831&lt;/b&gt;&lt;br&gt;pyridoxamine 5'-phosphate oxidase&lt;br&gt;Location: 4186330 - 4186744" points="560,40 563,35 560,30 560,40 " style="stroke-width:1; stroke:black; fill:white; " id="dummy-15_q31_0_all" class="clusterblast-orf"  />
<polygon locus_tag="SSMG_03832" description="&lt;b&gt;SSMG_03832&lt;/b&gt;&lt;br&gt;hypothetical protein&lt;br&gt;Location: 4186778 - 4187462" points="563,40 563,40 568,35 563,30 563,30 563,40 " style="stroke-width:1; stroke:black; fill:white; " id="dummy-15_q32_0_all" class="clusterblast-orf"  />
<polygon locus_tag="SSMG_03833" description="&lt;b&gt;SSMG_03833&lt;/b&gt;&lt;br&gt;predicted protein&lt;br&gt;Location: 4187472 - 4188066" points="568,40 568,40 573,35 568,30 568,30 568,40 " style="stroke-width:1; stroke:black; fill:white; " id="dummy-15_q33_0_all" class="clusterblast-orf"  />
<polygon locus_tag="SSMG_03834" description="&lt;b&gt;SSMG_03834&lt;/b&gt;&lt;br&gt;predicted protein&lt;br&gt;Location: 4188384 - 4189485" points="575,40 578,40 583,35 578,30 575,30 575,40 " style="stroke-width:1; stroke:black; fill:white; " id="dummy-15_q34_0_all" class="clusterblast-orf"  />
<polygon locus_tag="SSMG_03835" description="&lt;b&gt;SSMG_03835&lt;/b&gt;&lt;br&gt;predicted protein&lt;br&gt;Location: 4189531 - 4191085" points="584,35 589,30 595,30 595,40 589,40 584,35 " style="stroke-width:1; stroke:black; fill:white; " id="dummy-15_q35_0_all" class="clusterblast-orf"  />
</g>
<g label="BGC0000141" description="BGC0000141_c1: rubradirin (5% of genes show similarity), Polyketide" class="clusterblast-cluster"  >
<text class="clusterblast-acc" y="70" x="5"  >
<a xlink:href="https://mibig.secondarymetabolites.org/go/BGC0000141/1" target="_blank">BGC0000141</a>:                                                                       rubradirin (5% of genes show similarity), Polyketide</text>
<line x1="10" x2="778.0" y2="85" style="stroke-width:1; stroke:grey; " y1="85"  />
</g>
<g id="a15_000"  >
<polygon locus_tag="CAI94736.1" description="&lt;b&gt;CAI94736.1&lt;/b&gt;&lt;br&gt;putative transcription activator&lt;br&gt;Location: 105268 - 103001" points="0,90 11,90 16,85 11,80 0,80 0,90 " style="stroke-width:1; stroke:black; fill:white; " id="dummy-15_h15_7_0" class="clusterblast-orf"  />
</g>
<g id="a15_001"  >
<polygon locus_tag="CAI94735.1" description="&lt;b&gt;CAI94735.1&lt;/b&gt;&lt;br&gt;putative secreted protein&lt;br&gt;Location: 101614 - 100355" points="27,90 31,90 36,85 31,80 27,80 27,90 " style="stroke-width:1; stroke:black; fill:white; " id="dummy-15_h15_7_1" class="clusterblast-orf"  />
</g>
<g id="a15_002"  >
<polygon locus_tag="CAI94734.1" description="&lt;b&gt;CAI94734.1&lt;/b&gt;&lt;br&gt;hypothetical protein&lt;br&gt;Location: 100098 - 99418" points="38,90 38,90 43,85 38,80 38,80 38,90 " style="stroke-width:1; stroke:black; fill:white; " id="dummy-15_h15_7_2" class="clusterblast-orf"  />
</g>
<g id="a15_003"  >
<polygon locus_tag="CAI94733.1" description="&lt;b&gt;CAI94733.1&lt;/b&gt;&lt;br&gt;hypothetical protein&lt;br&gt;Location: 99207 - 97618" points="44,85 49,80 56,80 56,90 49,90 44,85 " style="stroke-width:1; stroke:black; fill:white; " id="dummy-15_h15_7_3" class="clusterblast-orf"  />
</g>
<g id="a15_004"  >
<polygon locus_tag="CAI94732.1" description="&lt;b&gt;CAI94732.1&lt;/b&gt;&lt;br&gt;putative TDP-glucose synthase&lt;br&gt;Location: 97072 - 96035" points="60,90 63,90 68,85 63,80 60,80 60,90 " style="stroke-width:1; stroke:black; fill:white; " id="dummy-15_h15_7_4" class="clusterblast-orf"  />
</g>
<g id="a15_005"  >
<polygon locus_tag="CAI94731.1" description="&lt;b&gt;CAI94731.1&lt;/b&gt;&lt;br&gt;putative TDP-glucose-2,3-dehydratase&lt;br&gt;Location: 95616 - 94240" points="71,90 76,90 81,85 76,80 71,80 71,90 " style="stroke-width:1; stroke:black; fill:white; " id="dummy-15_h15_7_5" class="clusterblast-orf"  />
</g>
<g id="a15_006"  >
<polygon locus_tag="CAI94730.1" description="&lt;b&gt;CAI94730.1&lt;/b&gt;&lt;br&gt;putative 4-Ketoreductase&lt;br&gt;Location: 94229 - 93240" points="81,85 86,80 89,80 89,90 86,90 81,85 " style="stroke-width:1; stroke:black; fill:white; " id="dummy-15_h15_7_6" class="clusterblast-orf"  />
</g>
<g id="a15_007"  >
<polygon locus_tag="CAI94729.1" description="&lt;b&gt;CAI94729.1&lt;/b&gt;&lt;br&gt;hypothetical protein&lt;br&gt;Location: 93243 - 92317" points="89,85 94,80 95,80 95,90 94,90 89,85 " style="stroke-width:1; stroke:black; fill:white; " id="dummy-15_h15_7_7" class="clusterblast-orf"  />
</g>
<g id="a15_008"  >
<polygon locus_tag="CAI94728.1" description="&lt;b&gt;CAI94728.1&lt;/b&gt;&lt;br&gt;putative transcription activator&lt;br&gt;Location: 92320 - 91448" points="95,85 100,80 102,80 102,90 100,90 95,85 " style="stroke-width:1; stroke:black; fill:white; " id="dummy-15_h15_7_8" class="clusterblast-orf"  />
</g>
<g id="a15_009"  >
<polygon locus_tag="CAI94727.1" description="&lt;b&gt;CAI94727.1&lt;/b&gt;&lt;br&gt;putative glycosyltransferase&lt;br&gt;Location: 91154 - 89958" points="104,90 108,90 113,85 108,80 104,80 104,90 " style="stroke-width:1; stroke:black; fill:white; " id="dummy-15_h15_7_9" class="clusterblast-orf"  />
</g>
<g id="a15_0010"  >
<polygon locus_tag="CAI94726.1" description="&lt;b&gt;CAI94726.1&lt;/b&gt;&lt;br&gt;putative cytochrome P450&lt;br&gt;Location: 89824 - 88622" points="114,90 118,90 123,85 118,80 114,80 114,90 " style="stroke-width:1; stroke:black; fill:white; " id="dummy-15_h15_7_10" class="clusterblast-orf"  />
</g>
<g id="a15_0011"  >
<polygon locus_tag="CAI94725.1" description="&lt;b&gt;CAI94725.1&lt;/b&gt;&lt;br&gt;putative aDAHP synthase&lt;br&gt;Location: 88378 - 87155" points="125,85 130,80 134,80 134,90 130,90 125,85 " style="stroke-width:1; stroke:black; fill:white; " id="dummy-15_h15_7_11" class="clusterblast-orf"  />
</g>
<g id="a15_0012"  >
<polygon locus_tag="CAI94724.1" description="&lt;b&gt;CAI94724.1&lt;/b&gt;&lt;br&gt;putative aDHQ synthase&lt;br&gt;Location: 87158 - 86106" points="134,85 139,80 141,80 141,90 139,90 134,85 " style="stroke-width:1; stroke:black; fill:white; " id="dummy-15_h15_7_12" class="clusterblast-orf"  />
</g>
<g id="a15_0013"  >
<polygon locus_tag="CAI94723.1" description="&lt;b&gt;CAI94723.1&lt;/b&gt;&lt;br&gt;putative hydroxylase&lt;br&gt;Location: 85948 - 85136" points="143,85 148,80 149,80 149,90 148,90 143,85 " style="stroke-width:1; stroke:black; fill:white; " id="dummy-15_h15_7_13" class="clusterblast-orf"  />
</g>
<g id="a15_0014"  >
<polygon locus_tag="CAI94722.1" description="&lt;b&gt;CAI94722.1&lt;/b&gt;&lt;br&gt;hypothetical protein&lt;br&gt;Location: 84912 - 84130" points="150,85 155,80 156,80 156,90 155,90 150,85 " style="stroke-width:1; stroke:black; fill:white; " id="dummy-15_h15_7_14" class="clusterblast-orf"  />
</g>
<g id="a15_0015"  >
<polygon locus_tag="CAI94721.1" description="&lt;b&gt;CAI94721.1&lt;/b&gt;&lt;br&gt;putative aDHQ dehydratase&lt;br&gt;Location: 84116 - 83661" points="156,85 160,80 160,90 156,85 " style="stroke-width:1; stroke:black; fill:white; " id="dummy-15_h15_7_15" class="clusterblast-orf"  />
</g>
<g id="a15_0016"  >
<polygon locus_tag="CAI94720.1" description="&lt;b&gt;CAI94720.1&lt;/b&gt;&lt;br&gt;putative oxyacyl-(acyl carrier protein) reductase&lt;br&gt;Location: 83578 - 82829" points="160,85 165,80 166,80 166,90 165,90 160,85 " style="stroke-width:1; stroke:black; fill:white; " id="dummy-15_h15_7_16" class="clusterblast-orf"  />
</g>
<g id="a15_0017"  >
<polygon locus_tag="CAI94719.1" description="&lt;b&gt;CAI94719.1&lt;/b&gt;&lt;br&gt;putative cytochrome P450&lt;br&gt;Location: 82832 - 81603" points="166,85 171,80 175,80 175,90 171,90 166,85 " style="stroke-width:1; stroke:black; fill:white; " id="dummy-15_h15_7_17" class="clusterblast-orf"  />
</g>
<g id="a15_0018"  >
<polygon locus_tag="CAI94718.1" description="&lt;b&gt;CAI94718.1&lt;/b&gt;&lt;br&gt;putative CoA ligase&lt;br&gt;Location: 81606 - 77653" points="175,85 180,80 204,80 204,90 180,90 175,85 " style="stroke-width:1; stroke:black; fill:white; " id="dummy-15_h15_7_18" class="clusterblast-orf"  />
</g>
<g id="a15_0019"  >
<polygon locus_tag="CAI94716.1" description="&lt;b&gt;CAI94716.1&lt;/b&gt;&lt;br&gt;putative hydroxyphenylpropionate&lt;br&gt;Location: 77467 - 75929" points="205,90 212,90 217,85 212,80 205,80 205,90 " style="stroke-width:1; stroke:black; fill:white; " id="dummy-15_h15_7_19" class="clusterblast-orf"  />
</g>
<g id="a15_0020"  >
<polygon locus_tag="CAI94713.1" description="&lt;b&gt;CAI94713.1&lt;/b&gt;&lt;br&gt;putative polyketide synthase&lt;br&gt;Location: 75887 - 60687&lt;br&gt;&lt;br&gt;&lt;b&gt;BlastP hit with SSMG_03817&lt;/b&gt;&lt;br&gt;Percentage identity: 47&lt;br&gt;Percentage coverage: 56&lt;br&gt;BLAST bit score: 515&lt;br&gt;E-value: 1.7e-145" points="217,90 325,90 330,85 325,80 217,80 217,90 " style="stroke-width:1; stroke:black; fill:#1515d8; " id="dummy-15_h15_7_20" class="clusterblast-orf"  />
</g>
<g id="a15_0021"  >
<polygon locus_tag="CAI94712.1" description="&lt;b&gt;CAI94712.1&lt;/b&gt;&lt;br&gt;hypothetical protein&lt;br&gt;Location: 60694 - 59939" points="330,85 335,80 335,80 335,90 335,90 330,85 " style="stroke-width:1; stroke:black; fill:white; " id="dummy-15_h15_7_21" class="clusterblast-orf"  />
</g>
<g id="a15_0022"  >
<polygon locus_tag="CAI94711.1" description="&lt;b&gt;CAI94711.1&lt;/b&gt;&lt;br&gt;putative transcription regulator&lt;br&gt;Location: 59782 - 58781" points="337,85 342,80 344,80 344,90 342,90 337,85 " style="stroke-width:1; stroke:black; fill:white; " id="dummy-15_h15_7_22" class="clusterblast-orf"  />
</g>
<g id="a15_0023"  >
<polygon locus_tag="CAI94710.1" description="&lt;b&gt;CAI94710.1&lt;/b&gt;&lt;br&gt;hypothetical protein&lt;br&gt;Location: 57461 - 56826" points="354,90 358,85 354,80 354,90 " style="stroke-width:1; stroke:black; fill:white; " id="dummy-15_h15_7_23" class="clusterblast-orf"  />
</g>
<g id="a15_0024"  >
<polygon locus_tag="CAI94709.1" description="&lt;b&gt;CAI94709.1&lt;/b&gt;&lt;br&gt;hypothetical protein&lt;br&gt;Location: 56058 - 54910" points="364,85 369,80 373,80 373,90 369,90 364,85 " style="stroke-width:1; stroke:black; fill:white; " id="dummy-15_h15_7_24" class="clusterblast-orf"  />
</g>
<g id="a15_0025"  >
<polygon locus_tag="CAI94708.1" description="&lt;b&gt;CAI94708.1&lt;/b&gt;&lt;br&gt;putative Hydroxylase&lt;br&gt;Location: 54634 - 53822" points="375,90 376,90 381,85 376,80 375,80 375,90 " style="stroke-width:1; stroke:black; fill:white; " id="dummy-15_h15_7_25" class="clusterblast-orf"  />
</g>
<g id="a15_0026"  >
<polygon locus_tag="CAI94707.1" description="&lt;b&gt;CAI94707.1&lt;/b&gt;&lt;br&gt;putative F420 dependent NADP reductase&lt;br&gt;Location: 53814 - 53158" points="381,90 381,90 386,85 381,80 381,80 381,90 " style="stroke-width:1; stroke:black; fill:white; " id="dummy-15_h15_7_26" class="clusterblast-orf"  />
</g>
<g id="a15_0027"  >
<polygon locus_tag="CAI94706.1" description="&lt;b&gt;CAI94706.1&lt;/b&gt;&lt;br&gt;putative aminocoumarin ligase&lt;br&gt;Location: 52987 - 51398" points="387,90 394,90 399,85 394,80 387,80 387,90 " style="stroke-width:1; stroke:black; fill:white; " id="dummy-15_h15_7_27" class="clusterblast-orf"  />
</g>
<g id="a15_0028"  >
<polygon locus_tag="CAI94705.1" description="&lt;b&gt;CAI94705.1&lt;/b&gt;&lt;br&gt;putative acid AMP ligase&lt;br&gt;Location: 51389 - 49716&lt;br&gt;&lt;br&gt;&lt;b&gt;BlastP hit with SSMG_03812&lt;/b&gt;&lt;br&gt;Percentage identity: 64&lt;br&gt;Percentage coverage: 98&lt;br&gt;BLAST bit score: 645&lt;br&gt;E-value: 6.6e-185" points="399,90 406,90 411,85 406,80 399,80 399,90 " style="stroke-width:1; stroke:black; fill:#15d815; " id="dummy-15_h15_7_28" class="clusterblast-orf"  />
</g>
<g id="a15_0029"  >
<polygon locus_tag="CAI94704.1" description="&lt;b&gt;CAI94704.1&lt;/b&gt;&lt;br&gt;putative cytochrome P450&lt;br&gt;Location: 49686 - 48466" points="411,90 415,90 420,85 415,80 411,80 411,90 " style="stroke-width:1; stroke:black; fill:white; " id="dummy-15_h15_7_29" class="clusterblast-orf"  />
</g>
<g id="a15_0030"  >
<polygon locus_tag="CAI94703.1" description="&lt;b&gt;CAI94703.1&lt;/b&gt;&lt;br&gt;hypothetical protein&lt;br&gt;Location: 48414 - 47128" points="421,85 426,80 430,80 430,90 426,90 421,85 " style="stroke-width:1; stroke:black; fill:white; " id="dummy-15_h15_7_30" class="clusterblast-orf"  />
</g>
<g id="a15_0031"  >
<polygon locus_tag="CAI94702.1" description="&lt;b&gt;CAI94702.1&lt;/b&gt;&lt;br&gt;putative amide synthase&lt;br&gt;Location: 47106 - 46312" points="430,85 435,80 436,80 436,90 435,90 430,85 " style="stroke-width:1; stroke:black; fill:white; " id="dummy-15_h15_7_31" class="clusterblast-orf"  />
</g>
<g id="a15_0032"  >
<polygon locus_tag="CAI94701.1" description="&lt;b&gt;CAI94701.1&lt;/b&gt;&lt;br&gt;putative quinone oxidoreductase&lt;br&gt;Location: 46269 - 45427" points="437,85 442,80 443,80 443,90 442,90 437,85 " style="stroke-width:1; stroke:black; fill:white; " id="dummy-15_h15_7_32" class="clusterblast-orf"  />
</g>
<g id="a15_0033"  >
<polygon locus_tag="CAI94700.1" description="&lt;b&gt;CAI94700.1&lt;/b&gt;&lt;br&gt;hypothetical protein&lt;br&gt;Location: 45292 - 44495" points="444,85 449,80 450,80 450,90 449,90 444,85 " style="stroke-width:1; stroke:black; fill:white; " id="dummy-15_h15_7_33" class="clusterblast-orf"  />
</g>
<g id="a15_0034"  >
<polygon locus_tag="CAI94699.1" description="&lt;b&gt;CAI94699.1&lt;/b&gt;&lt;br&gt;putative regulator&lt;br&gt;Location: 43957 - 43157" points="454,90 455,90 460,85 455,80 454,80 454,90 " style="stroke-width:1; stroke:black; fill:white; " id="dummy-15_h15_7_34" class="clusterblast-orf"  />
</g>
<g id="a15_0035"  >
<polygon locus_tag="CAI94698.1" description="&lt;b&gt;CAI94698.1&lt;/b&gt;&lt;br&gt;putative aminotransferase&lt;br&gt;Location: 42933 - 41812" points="461,90 465,90 470,85 465,80 461,80 461,90 " style="stroke-width:1; stroke:black; fill:white; " id="dummy-15_h15_7_35" class="clusterblast-orf"  />
</g>
<g id="a15_0036"  >
<polygon locus_tag="CAI94697.1" description="&lt;b&gt;CAI94697.1&lt;/b&gt;&lt;br&gt;hypothetical protein&lt;br&gt;Location: 41782 - 40547" points="470,90 474,90 479,85 474,80 470,80 470,90 " style="stroke-width:1; stroke:black; fill:white; " id="dummy-15_h15_7_36" class="clusterblast-orf"  />
</g>
<g id="a15_0037"  >
<polygon locus_tag="CAI94696.1" description="&lt;b&gt;CAI94696.1&lt;/b&gt;&lt;br&gt;hypothetical protein&lt;br&gt;Location: 40484 - 39213" points="480,90 484,90 489,85 484,80 480,80 480,90 " style="stroke-width:1; stroke:black; fill:white; " id="dummy-15_h15_7_37" class="clusterblast-orf"  />
</g>
<g id="a15_0038"  >
<polygon locus_tag="CAI94695.1" description="&lt;b&gt;CAI94695.1&lt;/b&gt;&lt;br&gt;hypothetical protein&lt;br&gt;Location: 39045 - 38203" points="490,90 491,90 496,85 491,80 490,80 490,90 " style="stroke-width:1; stroke:black; fill:white; " id="dummy-15_h15_7_38" class="clusterblast-orf"  />
</g>
<g id="a15_0039"  >
<polygon locus_tag="CAI94694.1" description="&lt;b&gt;CAI94694.1&lt;/b&gt;&lt;br&gt;hypothetical protein&lt;br&gt;Location: 38087 - 34797" points="497,90 517,90 522,85 517,80 497,80 497,90 " style="stroke-width:1; stroke:black; fill:white; " id="dummy-15_h15_7_39" class="clusterblast-orf"  />
</g>
<g id="a15_0040"  >
<polygon locus_tag="CAI94693.1" description="&lt;b&gt;CAI94693.1&lt;/b&gt;&lt;br&gt;putative glycosyltransferase&lt;br&gt;Location: 34709 - 33777" points="522,90 524,90 529,85 524,80 522,80 522,90 " style="stroke-width:1; stroke:black; fill:white; " id="dummy-15_h15_7_40" class="clusterblast-orf"  />
</g>
<g id="a15_0041"  >
<polygon locus_tag="CAI94692.1" description="&lt;b&gt;CAI94692.1&lt;/b&gt;&lt;br&gt;putative kinase&lt;br&gt;Location: 33738 - 32815" points="530,85 535,80 536,80 536,90 535,90 530,85 " style="stroke-width:1; stroke:black; fill:white; " id="dummy-15_h15_7_41" class="clusterblast-orf"  />
</g>
<g id="a15_0042"  >
<polygon locus_tag="CAI94691.1" description="&lt;b&gt;CAI94691.1&lt;/b&gt;&lt;br&gt;putative phosphatase&lt;br&gt;Location: 32818 - 32153" points="536,85 541,80 541,80 541,90 541,90 536,85 " style="stroke-width:1; stroke:black; fill:white; " id="dummy-15_h15_7_42" class="clusterblast-orf"  />
</g>
<g id="a15_0043"  >
<polygon locus_tag="CAI94690.1" description="&lt;b&gt;CAI94690.1&lt;/b&gt;&lt;br&gt;putative oxidoreductase&lt;br&gt;Location: 32153 - 31059" points="541,85 546,80 549,80 549,90 546,90 541,85 " style="stroke-width:1; stroke:black; fill:white; " id="dummy-15_h15_7_43" class="clusterblast-orf"  />
</g>
<g id="a15_0044"  >
<polygon locus_tag="CAI94689.1" description="&lt;b&gt;CAI94689.1&lt;/b&gt;&lt;br&gt;putative AHBA synthase&lt;br&gt;Location: 31062 - 29902" points="549,85 554,80 558,80 558,90 554,90 549,85 " style="stroke-width:1; stroke:black; fill:white; " id="dummy-15_h15_7_44" class="clusterblast-orf"  />
</g>
<g id="a15_0045"  >
<polygon locus_tag="CAI94688.1" description="&lt;b&gt;CAI94688.1&lt;/b&gt;&lt;br&gt;hypothetical protein&lt;br&gt;Location: 29739 - 29116" points="559,85 564,80 564,80 564,90 564,90 559,85 " style="stroke-width:1; stroke:black; fill:white; " id="dummy-15_h15_7_45" class="clusterblast-orf"  />
</g>
<g id="a15_0046"  >
<polygon locus_tag="CAI94687.1" description="&lt;b&gt;CAI94687.1&lt;/b&gt;&lt;br&gt;hypothetical protein&lt;br&gt;Location: 28952 - 27957" points="565,85 570,80 572,80 572,90 570,90 565,85 " style="stroke-width:1; stroke:black; fill:white; " id="dummy-15_h15_7_46" class="clusterblast-orf"  />
</g>
<g id="a15_0047"  >
<polygon locus_tag="CAI94686.1" description="&lt;b&gt;CAI94686.1&lt;/b&gt;&lt;br&gt;hypothetical protein&lt;br&gt;Location: 27583 - 26018" points="575,85 580,80 587,80 587,90 580,90 575,85 " style="stroke-width:1; stroke:black; fill:white; " id="dummy-15_h15_7_47" class="clusterblast-orf"  />
</g>
<g id="a15_0048"  >
<polygon locus_tag="CAI94685.1" description="&lt;b&gt;CAI94685.1&lt;/b&gt;&lt;br&gt;hypothetical protein&lt;br&gt;Location: 25854 - 24859" points="588,85 593,80 595,80 595,90 593,90 588,85 " style="stroke-width:1; stroke:black; fill:white; " id="dummy-15_h15_7_48" class="clusterblast-orf"  />
</g>
<g id="a15_0049"  >
<polygon locus_tag="CAI94684.1" description="&lt;b&gt;CAI94684.1&lt;/b&gt;&lt;br&gt;putative Translation initiation factor&lt;br&gt;Location: 24671 - 24447" points="597,85 598,80 598,90 597,85 " style="stroke-width:1; stroke:black; fill:white; " id="dummy-15_h15_7_49" class="clusterblast-orf"  />
</g>
<g id="a15_0050"  >
<polygon locus_tag="CAI94683.1" description="&lt;b&gt;CAI94683.1&lt;/b&gt;&lt;br&gt;putative 30S ribosomal protein modification&lt;br&gt;Location: 24459 - 23695" points="598,85 603,80 604,80 604,90 603,90 598,85 " style="stroke-width:1; stroke:black; fill:white; " id="dummy-15_h15_7_50" class="clusterblast-orf"  />
</g>
<g id="a15_0051"  >
<polygon locus_tag="CAI94682.1" description="&lt;b&gt;CAI94682.1&lt;/b&gt;&lt;br&gt;putative polyketide synthase&lt;br&gt;Location: 23472 - 7423&lt;br&gt;&lt;br&gt;&lt;b&gt;BlastP hit with SSMG_03817&lt;/b&gt;&lt;br&gt;Percentage identity: 50&lt;br&gt;Percentage coverage: 56&lt;br&gt;BLAST bit score: 573&lt;br&gt;E-value: 9e-163" points="606,90 720,90 725,85 720,80 606,80 606,90 " style="stroke-width:1; stroke:black; fill:#1515d8; " id="dummy-15_h15_7_51" class="clusterblast-orf"  />
</g>
<g id="a15_0052"  >
<polygon locus_tag="CAI94681.1" description="&lt;b&gt;CAI94681.1&lt;/b&gt;&lt;br&gt;cytochrome P450&lt;br&gt;Location: 7058 - 5775" points="727,85 732,80 737,80 737,90 732,90 727,85 " style="stroke-width:1; stroke:black; fill:white; " id="dummy-15_h15_7_52" class="clusterblast-orf"  />
</g>
<g id="a15_0053"  >
<polygon locus_tag="CAI94680.1" description="&lt;b&gt;CAI94680.1&lt;/b&gt;&lt;br&gt;hypothetical protein&lt;br&gt;Location: 5629 - 4625" points="738,90 740,90 745,85 740,80 738,80 738,90 " style="stroke-width:1; stroke:black; fill:white; " id="dummy-15_h15_7_53" class="clusterblast-orf"  />
</g>
<g id="a15_0054"  >
<polygon locus_tag="CAI94679.1" description="&lt;b&gt;CAI94679.1&lt;/b&gt;&lt;br&gt;putative translation initiation factor&lt;br&gt;Location: 4492 - 4268" points="746,85 748,80 748,90 746,85 " style="stroke-width:1; stroke:black; fill:white; " id="dummy-15_h15_7_54" class="clusterblast-orf"  />
</g>
<g id="a15_0055"  >
<polygon locus_tag="CAI94678.1" description="&lt;b&gt;CAI94678.1&lt;/b&gt;&lt;br&gt;hypothetical protein&lt;br&gt;Location: 3502 - 2741" points="754,90 754,90 759,85 754,80 754,80 754,90 " style="stroke-width:1; stroke:black; fill:white; " id="dummy-15_h15_7_55" class="clusterblast-orf"  />
</g>
<g id="a15_0056"  >
<polygon locus_tag="CAI94677.1" description="&lt;b&gt;CAI94677.1&lt;/b&gt;&lt;br&gt;putative TDP-glucose dehydratase&lt;br&gt;Location: 2157 - 1141" points="764,90 766,90 771,85 766,80 764,80 764,90 " style="stroke-width:1; stroke:black; fill:white; " id="dummy-15_h15_7_56" class="clusterblast-orf"  />
</g>
<g id="a15_0057"  >
<polygon locus_tag="CAI94676.1" description="&lt;b&gt;CAI94676.1&lt;/b&gt;&lt;br&gt;putative ABC transporter&lt;br&gt;Location: 933 - 1" points="773,90 775,90 780,85 775,80 773,80 773,90 " style="stroke-width:1; stroke:black; fill:white; " id="dummy-15_h15_7_57" class="clusterblast-orf"  />
</g>
</svg>
