<svg version="1.1" xmlns="http://www.w3.org/2000/svg" height="230" width="800" xmlns:xlink="http://www.w3.org/1999/xlink" preserveAspectRatio="none" x="0" y="0" viewBox="0 0 800 230"  >
<g label="Query sequence" class="clusterblast-cluster"  >
<text class="clusterblast-acc" y="20" x="5"  >
Query sequence</text>
<line x1="10" x2="778.0" y2="35" style="stroke-width:1; stroke:grey; " y1="35"  />
<polygon locus_tag="SSMG_04654" description="&lt;b&gt;SSMG_04654&lt;/b&gt;&lt;br&gt;molybdopterin oxidoreductase Fe4s4 region&lt;br&gt;Location: 5104309 - 5104879" points="105,35 110,30 113,30 113,40 110,40 105,35 " style="stroke-width:1; stroke:black; fill:white; " id="dummy-21_q0_0_all" class="clusterblast-orf"  />
<polygon locus_tag="SSMG_04655" description="&lt;b&gt;SSMG_04655&lt;/b&gt;&lt;br&gt;selenocysteine-specific translation elongation factor&lt;br&gt;Location: 5104884 - 5106639" points="113,35 118,30 138,30 138,40 118,40 113,35 " style="stroke-width:1; stroke:black; fill:white; " id="dummy-21_q1_0_all" class="clusterblast-orf"  />
<polygon locus_tag="SSMG_04656" description="&lt;b&gt;SSMG_04656&lt;/b&gt;&lt;br&gt;L-seryl-tRNA selenium transferase&lt;br&gt;Location: 5106629 - 5107913" points="138,35 143,30 156,30 156,40 143,40 138,35 " style="stroke-width:1; stroke:black; fill:white; " id="dummy-21_q2_0_all" class="clusterblast-orf"  />
<polygon locus_tag="SSMG_04657" description="&lt;b&gt;SSMG_04657&lt;/b&gt;&lt;br&gt;selenide, water dikinase&lt;br&gt;Location: 5108049 - 5109048" points="158,40 167,40 172,35 167,30 158,30 158,40 " style="stroke-width:1; stroke:black; fill:white; " id="dummy-21_q3_0_all" class="clusterblast-orf"  />
<polygon locus_tag="SSMG_04658" description="&lt;b&gt;SSMG_04658&lt;/b&gt;&lt;br&gt;predicted protein&lt;br&gt;Location: 5109351 - 5109807" points="176,40 178,40 183,35 178,30 176,30 176,40 " style="stroke-width:1; stroke:black; fill:white; " id="dummy-21_q4_0_all" class="clusterblast-orf"  />
<polygon locus_tag="SSMG_04659" description="&lt;b&gt;SSMG_04659&lt;/b&gt;&lt;br&gt;predicted protein&lt;br&gt;Location: 5109862 - 5110351" points="184,40 186,40 191,35 186,30 184,30 184,40 " style="stroke-width:1; stroke:black; fill:white; " id="dummy-21_q5_0_all" class="clusterblast-orf"  />
<polygon locus_tag="SSMG_04660" description="&lt;b&gt;SSMG_04660&lt;/b&gt;&lt;br&gt;predicted protein&lt;br&gt;Location: 5110347 - 5110584" points="191,40 194,35 191,30 191,40 " style="stroke-width:1; stroke:black; fill:white; " id="dummy-21_q6_0_all" class="clusterblast-orf"  />
<polygon locus_tag="SSMG_04661" description="&lt;b&gt;SSMG_04661&lt;/b&gt;&lt;br&gt;predicted protein&lt;br&gt;Location: 5110580 - 5111297" points="194,40 199,40 204,35 199,30 194,30 194,40 " style="stroke-width:1; stroke:black; fill:white; " id="dummy-21_q7_0_all" class="clusterblast-orf"  />
<polygon locus_tag="SSMG_04662" description="&lt;b&gt;SSMG_04662&lt;/b&gt;&lt;br&gt;dehydrogenase&lt;br&gt;Location: 5111293 - 5111647" points="204,40 204,40 209,35 204,30 204,30 204,40 " style="stroke-width:1; stroke:black; fill:white; " id="dummy-21_q8_0_all" class="clusterblast-orf"  />
<polygon locus_tag="SSMG_04663" description="&lt;b&gt;SSMG_04663&lt;/b&gt;&lt;br&gt;predicted protein&lt;br&gt;Location: 5111685 - 5113431" points="210,40 229,40 234,35 229,30 210,30 210,40 " style="stroke-width:1; stroke:black; fill:white; " id="dummy-21_q9_0_all" class="clusterblast-orf"  />
<polygon locus_tag="SSMG_04664" description="&lt;b&gt;SSMG_04664&lt;/b&gt;&lt;br&gt;predicted protein&lt;br&gt;Location: 5113548 - 5114052" points="236,35 241,30 243,30 243,40 241,40 236,35 " style="stroke-width:1; stroke:black; fill:white; " id="dummy-21_q10_0_all" class="clusterblast-orf"  />
<polygon locus_tag="SSMG_04665" description="&lt;b&gt;SSMG_04665&lt;/b&gt;&lt;br&gt;predicted protein&lt;br&gt;Location: 5114079 - 5114463" points="244,40 244,40 249,35 244,30 244,30 244,40 " style="stroke-width:1; stroke:black; fill:white; " id="dummy-21_q11_0_all" class="clusterblast-orf"  />
<polygon locus_tag="SSMG_04666" description="&lt;b&gt;SSMG_04666&lt;/b&gt;&lt;br&gt;hypothetical protein&lt;br&gt;Location: 5114613 - 5114940" points="251,35 256,30 256,30 256,40 256,40 251,35 " style="stroke-width:1; stroke:black; fill:white; " id="dummy-21_q12_0_all" class="clusterblast-orf"  />
<polygon locus_tag="SSMG_04667" description="&lt;b&gt;SSMG_04667&lt;/b&gt;&lt;br&gt;predicted protein&lt;br&gt;Location: 5114959 - 5115181" points="256,40 259,35 256,30 256,40 " style="stroke-width:1; stroke:black; fill:white; " id="dummy-21_q13_0_all" class="clusterblast-orf"  />
<polygon locus_tag="SSMG_04668" description="&lt;b&gt;SSMG_04668&lt;/b&gt;&lt;br&gt;cupin 2 domain-containing protein&lt;br&gt;Location: 5115170 - 5115572" points="259,35 264,30 265,30 265,40 264,40 259,35 " style="stroke-width:1; stroke:black; fill:white; " id="dummy-21_q14_0_all" class="clusterblast-orf"  />
<polygon locus_tag="SSMG_04669" description="&lt;b&gt;SSMG_04669&lt;/b&gt;&lt;br&gt;carboxymuconolactone decarboxylase&lt;br&gt;Location: 5115604 - 5115919" points="265,35 270,30 270,30 270,40 270,40 265,35 " style="stroke-width:1; stroke:black; fill:white; " id="dummy-21_q15_0_all" class="clusterblast-orf"  />
<polygon locus_tag="SSMG_04670" description="&lt;b&gt;SSMG_04670&lt;/b&gt;&lt;br&gt;predicted protein&lt;br&gt;Location: 5115915 - 5117274" points="270,35 275,30 289,30 289,40 275,40 270,35 " style="stroke-width:1; stroke:black; fill:white; " id="dummy-21_q16_0_all" class="clusterblast-orf"  />
<polygon locus_tag="SSMG_04671" description="&lt;b&gt;SSMG_04671&lt;/b&gt;&lt;br&gt;helix-turn-helix domain-containing protein&lt;br&gt;Location: 5117965 - 5118877" points="299,40 307,40 312,35 307,30 299,30 299,40 " style="stroke-width:1; stroke:black; fill:white; " id="dummy-21_q17_0_all" class="clusterblast-orf"  />
<polygon locus_tag="SSMG_04672" description="&lt;b&gt;SSMG_04672&lt;/b&gt;&lt;br&gt;nitroreductase&lt;br&gt;Location: 5118920 - 5119508" points="312,40 316,40 321,35 316,30 312,30 312,40 " style="stroke-width:1; stroke:black; fill:white; " id="dummy-21_q18_0_all" class="clusterblast-orf"  />
<polygon locus_tag="SSMG_04673" description="&lt;b&gt;SSMG_04673&lt;/b&gt;&lt;br&gt;non-ribosomal peptide synthetase&lt;br&gt;Location: 5120432 - 5122946" points="334,40 365,40 370,35 365,30 334,30 334,40 " style="stroke-width:1; stroke:black; fill:white; " id="dummy-21_q19_0_all" class="clusterblast-orf"  />
<polygon locus_tag="SSMG_04674" description="&lt;b&gt;SSMG_04674&lt;/b&gt;&lt;br&gt;D-alanine-poly(phosphoribitol) ligase, subunit 1&lt;br&gt;Location: 5122978 - 5125453" points="370,40 400,40 405,35 400,30 370,30 370,40 " style="stroke-width:1; stroke:black; fill:#d81515; " id="dummy-21_q20_0_all" class="clusterblast-orf"  />
<polygon locus_tag="SSMG_04675" description="&lt;b&gt;SSMG_04675&lt;/b&gt;&lt;br&gt;regulatory protein B&lt;br&gt;Location: 5125486 - 5126500" points="406,40 415,40 420,35 415,30 406,30 406,40 " style="stroke-width:1; stroke:black; fill:#d81515; " id="dummy-21_q21_0_all" class="clusterblast-orf"  />
<polygon locus_tag="SSMG_04676" description="&lt;b&gt;SSMG_04676&lt;/b&gt;&lt;br&gt;ornithine cyclodeaminase&lt;br&gt;Location: 5126496 - 5127564" points="420,40 430,40 435,35 430,30 420,30 420,40 " style="stroke-width:1; stroke:black; fill:#15d815; " id="dummy-21_q22_0_all" class="clusterblast-orf"  />
<polygon locus_tag="SSMG_04677" description="&lt;b&gt;SSMG_04677&lt;/b&gt;&lt;br&gt;cysteine synthase B&lt;br&gt;Location: 5127584 - 5128580" points="436,40 445,40 450,35 445,30 436,30 436,40 " style="stroke-width:1; stroke:black; fill:#1515d8; " id="dummy-21_q23_0_all" class="clusterblast-orf"  />
<polygon locus_tag="SSMG_04678" description="&lt;b&gt;SSMG_04678&lt;/b&gt;&lt;br&gt;predicted protein&lt;br&gt;Location: 5128625 - 5129813" points="450,35 455,30 467,30 467,40 455,40 450,35 " style="stroke-width:1; stroke:black; fill:white; " id="dummy-21_q24_0_all" class="clusterblast-orf"  />
<polygon locus_tag="SSMG_04679" description="&lt;b&gt;SSMG_04679&lt;/b&gt;&lt;br&gt;predicted protein&lt;br&gt;Location: 5129847 - 5130747" points="468,35 473,30 480,30 480,40 473,40 468,35 " style="stroke-width:1; stroke:black; fill:white; " id="dummy-21_q25_0_all" class="clusterblast-orf"  />
<polygon locus_tag="SSMG_04680" description="&lt;b&gt;SSMG_04680&lt;/b&gt;&lt;br&gt;transcriptional repressor&lt;br&gt;Location: 5130743 - 5131100" points="480,35 485,30 485,30 485,40 485,40 480,35 " style="stroke-width:1; stroke:black; fill:white; " id="dummy-21_q26_0_all" class="clusterblast-orf"  />
<polygon locus_tag="SSMG_04681" description="&lt;b&gt;SSMG_04681&lt;/b&gt;&lt;br&gt;cation efflux system protein&lt;br&gt;Location: 5131175 - 5132168" points="487,35 492,30 501,30 501,40 492,40 487,35 " style="stroke-width:1; stroke:black; fill:white; " id="dummy-21_q27_0_all" class="clusterblast-orf"  />
<polygon locus_tag="SSMG_04682" description="&lt;b&gt;SSMG_04682&lt;/b&gt;&lt;br&gt;M24/M37 family peptidase&lt;br&gt;Location: 5132193 - 5132862" points="501,35 506,30 511,30 511,40 506,40 501,35 " style="stroke-width:1; stroke:black; fill:white; " id="dummy-21_q28_0_all" class="clusterblast-orf"  />
<polygon locus_tag="SSMG_04683" description="&lt;b&gt;SSMG_04683&lt;/b&gt;&lt;br&gt;2-hydroxycyclohexanecarboxyl-CoA dehydrogenase&lt;br&gt;Location: 5132926 - 5133667" points="511,35 516,30 522,30 522,40 516,40 511,35 " style="stroke-width:1; stroke:black; fill:white; " id="dummy-21_q29_0_all" class="clusterblast-orf"  />
<polygon locus_tag="SSMG_04684" description="&lt;b&gt;SSMG_04684&lt;/b&gt;&lt;br&gt;2-hydroxycyclohexanecarboxyl-CoA dehydrogenase&lt;br&gt;Location: 5133693 - 5134431" points="522,35 527,30 533,30 533,40 527,40 522,35 " style="stroke-width:1; stroke:black; fill:white; " id="dummy-21_q30_0_all" class="clusterblast-orf"  />
<polygon locus_tag="SSMG_04685" description="&lt;b&gt;SSMG_04685&lt;/b&gt;&lt;br&gt;transcriptional regulator&lt;br&gt;Location: 5134509 - 5135337" points="534,40 541,40 546,35 541,30 534,30 534,40 " style="stroke-width:1; stroke:black; fill:white; " id="dummy-21_q31_0_all" class="clusterblast-orf"  />
<polygon locus_tag="SSMG_04686" description="&lt;b&gt;SSMG_04686&lt;/b&gt;&lt;br&gt;predicted protein&lt;br&gt;Location: 5135757 - 5136441" points="552,35 557,30 561,30 561,40 557,40 552,35 " style="stroke-width:1; stroke:black; fill:white; " id="dummy-21_q32_0_all" class="clusterblast-orf"  />
<polygon locus_tag="SSMG_04687" description="&lt;b&gt;SSMG_04687&lt;/b&gt;&lt;br&gt;predicted protein&lt;br&gt;Location: 5136429 - 5137119" points="561,40 566,40 571,35 566,30 561,30 561,40 " style="stroke-width:1; stroke:black; fill:white; " id="dummy-21_q33_0_all" class="clusterblast-orf"  />
<polygon locus_tag="SSMG_04688" description="&lt;b&gt;SSMG_04688&lt;/b&gt;&lt;br&gt;predicted protein&lt;br&gt;Location: 5137449 - 5137695" points="576,40 579,35 576,30 576,40 " style="stroke-width:1; stroke:black; fill:white; " id="dummy-21_q34_0_all" class="clusterblast-orf"  />
<polygon locus_tag="SSMG_04689" description="&lt;b&gt;SSMG_04689&lt;/b&gt;&lt;br&gt;diaminobutyrate-2-oxoglutarate aminotransferase&lt;br&gt;Location: 5137691 - 5139053" points="579,40 594,40 599,35 594,30 579,30 579,40 " style="stroke-width:1; stroke:black; fill:white; " id="dummy-21_q35_0_all" class="clusterblast-orf"  />
<polygon locus_tag="SSMG_04690" description="&lt;b&gt;SSMG_04690&lt;/b&gt;&lt;br&gt;predicted protein&lt;br&gt;Location: 5139483 - 5140212" points="605,40 610,40 615,35 610,30 605,30 605,40 " style="stroke-width:1; stroke:black; fill:white; " id="dummy-21_q36_0_all" class="clusterblast-orf"  />
<polygon locus_tag="SSMG_04691" description="&lt;b&gt;SSMG_04691&lt;/b&gt;&lt;br&gt;predicted protein&lt;br&gt;Location: 5140266 - 5143080" points="616,40 651,40 656,35 651,30 616,30 616,40 " style="stroke-width:1; stroke:black; fill:white; " id="dummy-21_q37_0_all" class="clusterblast-orf"  />
<polygon locus_tag="SSMG_04692" description="&lt;b&gt;SSMG_04692&lt;/b&gt;&lt;br&gt;UPF0324 membrane protein&lt;br&gt;Location: 5143129 - 5144398" points="656,35 661,30 674,30 674,40 661,40 656,35 " style="stroke-width:1; stroke:black; fill:white; " id="dummy-21_q38_0_all" class="clusterblast-orf"  />
</g>
<g label="BGC0000431" description="BGC0000431_c1: stenothricin (13% of genes show similarity), NRP:Cyclic depsipeptide" class="clusterblast-cluster"  >
<text class="clusterblast-acc" y="70" x="5"  >
<a xlink:href="https://mibig.secondarymetabolites.org/go/BGC0000431/1" target="_blank">BGC0000431</a>:                                                                     stenothricin (13% of genes show similarity), NRP:Cyclic depsipeptide</text>
<line x1="10" x2="778.0" y2="85" style="stroke-width:1; stroke:grey; " y1="85"  />
</g>
<g id="a21_000"  >
<polygon locus_tag="SSGG_00680" description="&lt;b&gt;SSGG_00680&lt;/b&gt;&lt;br&gt;pyridoxal-5'-phosphate-dependent enzyme&lt;br&gt;Location: 54895 - 53600" points="0,85 5,80 18,80 18,90 5,90 0,85 " style="stroke-width:1; stroke:black; fill:white; " id="dummy-21_h21_1_0" class="clusterblast-orf"  />
</g>
<g id="a21_001"  >
<polygon locus_tag="SSGG_00679" description="&lt;b&gt;SSGG_00679&lt;/b&gt;&lt;br&gt;nonribosomal peptide synthetase&lt;br&gt;Location: 53556 - 41905" points="19,85 24,80 184,80 184,90 24,90 19,85 " style="stroke-width:1; stroke:black; fill:white; " id="dummy-21_h21_1_1" class="clusterblast-orf"  />
</g>
<g id="a21_002"  >
<polygon locus_tag="SSGG_00678" description="&lt;b&gt;SSGG_00678&lt;/b&gt;&lt;br&gt;nonribosomal peptide synthetase&lt;br&gt;Location: 41905 - 23657" points="184,85 189,80 443,80 443,90 189,90 184,85 " style="stroke-width:1; stroke:black; fill:white; " id="dummy-21_h21_1_2" class="clusterblast-orf"  />
</g>
<g id="a21_003"  >
<polygon locus_tag="SSGG_00677" description="&lt;b&gt;SSGG_00677&lt;/b&gt;&lt;br&gt;predicted protein&lt;br&gt;Location: 23537 - 23367" points="445,85 447,80 447,90 445,85 " style="stroke-width:1; stroke:black; fill:white; " id="dummy-21_h21_1_3" class="clusterblast-orf"  />
</g>
<g id="a21_004"  >
<polygon locus_tag="SSGG_00676" description="&lt;b&gt;SSGG_00676&lt;/b&gt;&lt;br&gt;conserved hypothetical protein&lt;br&gt;Location: 23337 - 23110" points="448,85 451,80 451,90 448,85 " style="stroke-width:1; stroke:black; fill:white; " id="dummy-21_h21_1_4" class="clusterblast-orf"  />
</g>
<g id="a21_005"  >
<polygon locus_tag="SSGG_00675" description="&lt;b&gt;SSGG_00675&lt;/b&gt;&lt;br&gt;conserved hypothetical protein&lt;br&gt;Location: 22854 - 22039" points="455,85 460,80 466,80 466,90 460,90 455,85 " style="stroke-width:1; stroke:black; fill:white; " id="dummy-21_h21_1_5" class="clusterblast-orf"  />
</g>
<g id="a21_006"  >
<polygon locus_tag="SSGG_00674" description="&lt;b&gt;SSGG_00674&lt;/b&gt;&lt;br&gt;non-ribosomal peptide synthetase&lt;br&gt;Location: 21391 - 17837&lt;br&gt;&lt;br&gt;&lt;b&gt;BlastP hit with SSMG_04674&lt;/b&gt;&lt;br&gt;Percentage identity: 56&lt;br&gt;Percentage coverage: 98&lt;br&gt;BLAST bit score: 814&lt;br&gt;E-value: 2.1e-235&lt;br&gt;&lt;br&gt;&lt;b&gt;BlastP hit with SSMG_04675&lt;/b&gt;&lt;br&gt;Percentage identity: 59&lt;br&gt;Percentage coverage: 91&lt;br&gt;BLAST bit score: 368&lt;br&gt;E-value: 1.2e-101" points="476,90 521,90 526,85 521,80 476,80 476,90 " style="stroke-width:1; stroke:black; fill:#d81515; " id="dummy-21_h21_1_6" class="clusterblast-orf"  />
</g>
<g id="a21_007"  >
<polygon locus_tag="SSGG_00673" description="&lt;b&gt;SSGG_00673&lt;/b&gt;&lt;br&gt;ornithine cyclodeaminase&lt;br&gt;Location: 17744 - 16689&lt;br&gt;&lt;br&gt;&lt;b&gt;BlastP hit with SSMG_04676&lt;/b&gt;&lt;br&gt;Percentage identity: 67&lt;br&gt;Percentage coverage: 97&lt;br&gt;BLAST bit score: 460&lt;br&gt;E-value: 1.9e-129" points="527,90 537,90 542,85 537,80 527,80 527,90 " style="stroke-width:1; stroke:black; fill:#15d815; " id="dummy-21_h21_1_7" class="clusterblast-orf"  />
</g>
<g id="a21_008"  >
<polygon locus_tag="SSGG_00672" description="&lt;b&gt;SSGG_00672&lt;/b&gt;&lt;br&gt;cysteine synthase&lt;br&gt;Location: 16672 - 15665&lt;br&gt;&lt;br&gt;&lt;b&gt;BlastP hit with SSMG_04677&lt;/b&gt;&lt;br&gt;Percentage identity: 64&lt;br&gt;Percentage coverage: 94&lt;br&gt;BLAST bit score: 416&lt;br&gt;E-value: 3.9e-116" points="543,90 552,90 557,85 552,80 543,80 543,90 " style="stroke-width:1; stroke:black; fill:#1515d8; " id="dummy-21_h21_1_8" class="clusterblast-orf"  />
</g>
<g id="a21_009"  >
<polygon locus_tag="SSGG_00671" description="&lt;b&gt;SSGG_00671&lt;/b&gt;&lt;br&gt;N-acetyl-gamma-glutamylphosphate reductase&lt;br&gt;Location: 15554 - 14529" points="559,90 568,90 573,85 568,80 559,80 559,90 " style="stroke-width:1; stroke:black; fill:white; " id="dummy-21_h21_1_9" class="clusterblast-orf"  />
</g>
<g id="a21_0010"  >
<polygon locus_tag="SSGG_00670" description="&lt;b&gt;SSGG_00670&lt;/b&gt;&lt;br&gt;N2-acetyl-L-ornithine:L-glutamate N-acetyltransferase ArgJ&lt;br&gt;Location: 14532 - 13378" points="573,90 584,90 589,85 584,80 573,80 573,90 " style="stroke-width:1; stroke:black; fill:white; " id="dummy-21_h21_1_10" class="clusterblast-orf"  />
</g>
<g id="a21_0011"  >
<polygon locus_tag="SSGG_00669" description="&lt;b&gt;SSGG_00669&lt;/b&gt;&lt;br&gt;N-acetylglutamate kinase ArgB&lt;br&gt;Location: 13381 - 12437" points="589,90 598,90 603,85 598,80 589,80 589,90 " style="stroke-width:1; stroke:black; fill:white; " id="dummy-21_h21_1_11" class="clusterblast-orf"  />
</g>
<g id="a21_0012"  >
<polygon locus_tag="SSGG_00668" description="&lt;b&gt;SSGG_00668&lt;/b&gt;&lt;br&gt;N2-acetyl-L-ornithine:2-oxoglutarate aminotransferase ArgD&lt;br&gt;Location: 12440 - 11229" points="603,90 615,90 620,85 615,80 603,80 603,90 " style="stroke-width:1; stroke:black; fill:white; " id="dummy-21_h21_1_12" class="clusterblast-orf"  />
</g>
<g id="a21_0013"  >
<polygon locus_tag="SSGG_00667" description="&lt;b&gt;SSGG_00667&lt;/b&gt;&lt;br&gt;arginine repressor&lt;br&gt;Location: 11203 - 10667" points="620,90 623,90 628,85 623,80 620,80 620,90 " style="stroke-width:1; stroke:black; fill:white; " id="dummy-21_h21_1_13" class="clusterblast-orf"  />
</g>
<g id="a21_0014"  >
<polygon locus_tag="SSGG_00666" description="&lt;b&gt;SSGG_00666&lt;/b&gt;&lt;br&gt;secreted protein&lt;br&gt;Location: 10656 - 9946" points="628,85 633,80 638,80 638,90 633,90 628,85 " style="stroke-width:1; stroke:black; fill:white; " id="dummy-21_h21_1_14" class="clusterblast-orf"  />
</g>
<g id="a21_0015"  >
<polygon locus_tag="SSGG_00665" description="&lt;b&gt;SSGG_00665&lt;/b&gt;&lt;br&gt;predicted protein&lt;br&gt;Location: 9864 - 8476" points="639,85 644,80 659,80 659,90 644,90 639,85 " style="stroke-width:1; stroke:black; fill:white; " id="dummy-21_h21_1_15" class="clusterblast-orf"  />
</g>
<g id="a21_0016"  >
<polygon locus_tag="SSGG_00664" description="&lt;b&gt;SSGG_00664&lt;/b&gt;&lt;br&gt;argininosuccinate synthase ArgG&lt;br&gt;Location: 8389 - 7193" points="660,90 672,90 677,85 672,80 660,80 660,90 " style="stroke-width:1; stroke:black; fill:white; " id="dummy-21_h21_1_16" class="clusterblast-orf"  />
</g>
<g id="a21_0017"  >
<polygon locus_tag="SSGG_00663" description="&lt;b&gt;SSGG_00663&lt;/b&gt;&lt;br&gt;argininosuccinate lyase ArgH&lt;br&gt;Location: 7070 - 5643" points="679,90 694,90 699,85 694,80 679,80 679,90 " style="stroke-width:1; stroke:black; fill:white; " id="dummy-21_h21_1_17" class="clusterblast-orf"  />
</g>
<g id="a21_0018"  >
<polygon locus_tag="SSGG_00662" description="&lt;b&gt;SSGG_00662&lt;/b&gt;&lt;br&gt;oxidoreductase&lt;br&gt;Location: 5586 - 4555" points="700,90 710,90 715,85 710,80 700,80 700,90 " style="stroke-width:1; stroke:black; fill:white; " id="dummy-21_h21_1_18" class="clusterblast-orf"  />
</g>
<g id="a21_0019"  >
<polygon locus_tag="SSGG_00661" description="&lt;b&gt;SSGG_00661&lt;/b&gt;&lt;br&gt;conserved hypothetical protein&lt;br&gt;Location: 4524 - 2359" points="715,85 720,80 746,80 746,90 720,90 715,85 " style="stroke-width:1; stroke:black; fill:white; " id="dummy-21_h21_1_19" class="clusterblast-orf"  />
</g>
<g id="a21_0020"  >
<polygon locus_tag="SSGG_00660" description="&lt;b&gt;SSGG_00660&lt;/b&gt;&lt;br&gt;TetR-family transcriptional regulator&lt;br&gt;Location: 2111 - 1542" points="750,90 753,90 758,85 753,80 750,80 750,90 " style="stroke-width:1; stroke:black; fill:white; " id="dummy-21_h21_1_20" class="clusterblast-orf"  />
</g>
<g id="a21_0021"  >
<polygon locus_tag="SSGG_00659" description="&lt;b&gt;SSGG_00659&lt;/b&gt;&lt;br&gt;transmembrane-transport protein&lt;br&gt;Location: 1545 - 1" points="758,90 775,90 780,85 775,80 758,80 758,90 " style="stroke-width:1; stroke:black; fill:white; " id="dummy-21_h21_1_21" class="clusterblast-orf"  />
</g>
</svg>
