<svg version="1.1" xmlns="http://www.w3.org/2000/svg" height="230" width="800" xmlns:xlink="http://www.w3.org/1999/xlink" preserveAspectRatio="none" x="0" y="0" viewBox="0 0 800 230"  >
<g label="Query sequence" class="clusterblast-cluster"  >
<text class="clusterblast-acc" y="20" x="5"  >
Query sequence</text>
<line x1="10" x2="778.0" y2="35" style="stroke-width:1; stroke:grey; " y1="35"  />
<polygon locus_tag="SSMG_03201" description="&lt;b&gt;SSMG_03201&lt;/b&gt;&lt;br&gt;DNA ligase, NAD-dependent&lt;br&gt;Location: 3472881 - 3474873" points="0,40 67,40 72,35 67,30 0,30 0,40 " style="stroke-width:1; stroke:black; fill:white; " id="dummy-12_q0_0_all" class="clusterblast-orf"  />
<polygon locus_tag="SSMG_03202" description="&lt;b&gt;SSMG_03202&lt;/b&gt;&lt;br&gt;predicted protein&lt;br&gt;Location: 3476058 - 3477006" points="114,35 119,30 148,30 148,40 119,40 114,35 " style="stroke-width:1; stroke:black; fill:white; " id="dummy-12_q1_0_all" class="clusterblast-orf"  />
<polygon locus_tag="SSMG_03203" description="&lt;b&gt;SSMG_03203&lt;/b&gt;&lt;br&gt;predicted protein&lt;br&gt;Location: 3477056 - 3477656" points="150,40 167,40 172,35 167,30 150,30 150,40 " style="stroke-width:1; stroke:black; fill:white; " id="dummy-12_q2_0_all" class="clusterblast-orf"  />
<polygon locus_tag="SSMG_03204" description="&lt;b&gt;SSMG_03204&lt;/b&gt;&lt;br&gt;predicted protein&lt;br&gt;Location: 3477878 - 3479594" points="180,35 185,30 241,30 241,40 185,40 180,35 " style="stroke-width:1; stroke:black; fill:#d81515; " id="dummy-12_q3_0_all" class="clusterblast-orf"  />
<polygon locus_tag="SSMG_03205" description="&lt;b&gt;SSMG_03205&lt;/b&gt;&lt;br&gt;predicted protein&lt;br&gt;Location: 3480123 - 3481776" points="260,35 265,30 320,30 320,40 265,40 260,35 " style="stroke-width:1; stroke:black; fill:#15d815; " id="dummy-12_q4_0_all" class="clusterblast-orf"  />
<polygon locus_tag="SSMG_03206" description="&lt;b&gt;SSMG_03206&lt;/b&gt;&lt;br&gt;serine/threonine protein kinase&lt;br&gt;Location: 3482531 - 3485132" points="347,35 352,30 441,30 441,40 352,40 347,35 " style="stroke-width:1; stroke:black; fill:#1515d8; " id="dummy-12_q5_0_all" class="clusterblast-orf"  />
<polygon locus_tag="SSMG_03207" description="&lt;b&gt;SSMG_03207&lt;/b&gt;&lt;br&gt;transcriptional regulator&lt;br&gt;Location: 3485491 - 3486403" points="454,35 459,30 486,30 486,40 459,40 454,35 " style="stroke-width:1; stroke:black; fill:white; " id="dummy-12_q6_0_all" class="clusterblast-orf"  />
<polygon locus_tag="SSMG_03208" description="&lt;b&gt;SSMG_03208&lt;/b&gt;&lt;br&gt;predicted protein&lt;br&gt;Location: 3486431 - 3487364" points="487,40 516,40 521,35 516,30 487,30 487,40 " style="stroke-width:1; stroke:black; fill:white; " id="dummy-12_q7_0_all" class="clusterblast-orf"  />
<polygon locus_tag="SSMG_03209" description="&lt;b&gt;SSMG_03209&lt;/b&gt;&lt;br&gt;predicted protein&lt;br&gt;Location: 3487360 - 3488143" points="521,35 526,30 549,30 549,40 526,40 521,35 " style="stroke-width:1; stroke:black; fill:white; " id="dummy-12_q8_0_all" class="clusterblast-orf"  />
<polygon locus_tag="SSMG_03210" description="&lt;b&gt;SSMG_03210&lt;/b&gt;&lt;br&gt;secreted protein&lt;br&gt;Location: 3488195 - 3489029" points="551,35 556,30 581,30 581,40 556,40 551,35 " style="stroke-width:1; stroke:black; fill:white; " id="dummy-12_q9_0_all" class="clusterblast-orf"  />
<polygon locus_tag="SSMG_03211" description="&lt;b&gt;SSMG_03211&lt;/b&gt;&lt;br&gt;alpha-galactosidase&lt;br&gt;Location: 3489206 - 3490511" points="587,35 592,30 634,30 634,40 592,40 587,35 " style="stroke-width:1; stroke:black; fill:white; " id="dummy-12_q10_0_all" class="clusterblast-orf"  />
<polygon locus_tag="SSMG_03212" description="&lt;b&gt;SSMG_03212&lt;/b&gt;&lt;br&gt;predicted protein&lt;br&gt;Location: 3490507 - 3491473" points="634,35 639,30 669,30 669,40 639,40 634,35 " style="stroke-width:1; stroke:black; fill:white; " id="dummy-12_q11_0_all" class="clusterblast-orf"  />
<polygon locus_tag="SSMG_03213" description="&lt;b&gt;SSMG_03213&lt;/b&gt;&lt;br&gt;sugar transport membrane protein&lt;br&gt;Location: 3491469 - 3492357" points="669,35 674,30 701,30 701,40 674,40 669,35 " style="stroke-width:1; stroke:black; fill:white; " id="dummy-12_q12_0_all" class="clusterblast-orf"  />
<polygon locus_tag="SSMG_03214" description="&lt;b&gt;SSMG_03214&lt;/b&gt;&lt;br&gt;sugar transporter membrane protein&lt;br&gt;Location: 3492353 - 3493268" points="701,35 706,30 734,30 734,40 706,40 701,35 " style="stroke-width:1; stroke:black; fill:white; " id="dummy-12_q13_0_all" class="clusterblast-orf"  />
<polygon locus_tag="SSMG_03215" description="&lt;b&gt;SSMG_03215&lt;/b&gt;&lt;br&gt;sugar transporter sugar binding lipoprotein&lt;br&gt;Location: 3493278 - 3494556" points="734,35 739,30 780,30 780,40 739,40 734,35 " style="stroke-width:1; stroke:black; fill:white; " id="dummy-12_q14_0_all" class="clusterblast-orf"  />
</g>
<g label="BGC0000513" description="BGC0000513_c1: Ery-9 / Ery-6 / Ery-8 / Ery-7 / Ery-5 / Ery-4 / Ery-3 (75% of genes show similarity), RiPP:Lanthipeptide" class="clusterblast-cluster"  >
<text class="clusterblast-acc" y="70" x="5"  >
<a xlink:href="https://mibig.secondarymetabolites.org/go/BGC0000513/1" target="_blank">BGC0000513</a>:                            Ery-9 / Ery-6 / Ery-8 / Ery-7 / Ery-5 / Ery-4 / Ery-3 (75% of genes show similarity), RiPP:Lanthipeptide</text>
<line x1="10" x2="778.0" y2="85" style="stroke-width:1; stroke:grey; " y1="85"  />
</g>
<g id="a12_000"  >
<polygon locus_tag="SACE_4233" description="&lt;b&gt;SACE_4233&lt;/b&gt;&lt;br&gt;putative ABC transporter&lt;br&gt;Location: 6203 - 4494&lt;br&gt;&lt;br&gt;&lt;b&gt;BlastP hit with SSMG_03204&lt;/b&gt;&lt;br&gt;Percentage identity: 62&lt;br&gt;Percentage coverage: 99&lt;br&gt;BLAST bit score: 606&lt;br&gt;E-value: 3.5e-173" points="278,85 283,80 339,80 339,90 283,90 278,85 " style="stroke-width:1; stroke:black; fill:#d81515; " id="dummy-12_h12_1_0" class="clusterblast-orf"  />
</g>
<g id="a12_001"  >
<polygon locus_tag="SACE_4232" description="&lt;b&gt;SACE_4232&lt;/b&gt;&lt;br&gt;putative ABC transporter&lt;br&gt;Location: 4497 - 2839&lt;br&gt;&lt;br&gt;&lt;b&gt;BlastP hit with SSMG_03205&lt;/b&gt;&lt;br&gt;Percentage identity: 58&lt;br&gt;Percentage coverage: 101&lt;br&gt;BLAST bit score: 547&lt;br&gt;E-value: 1.9e-155" points="339,85 344,80 399,80 399,90 344,90 339,85 " style="stroke-width:1; stroke:black; fill:#15d815; " id="dummy-12_h12_1_1" class="clusterblast-orf"  />
</g>
<g id="a12_002"  >
<polygon locus_tag="SACE_4231" description="&lt;b&gt;SACE_4231&lt;/b&gt;&lt;br&gt;hypothetical protein&lt;br&gt;Location: 2743 - 2603" points="402,85 407,80 407,80 407,90 407,90 402,85 " style="stroke-width:1; stroke:black; fill:white; " id="dummy-12_h12_1_2" class="clusterblast-orf"  />
</g>
<g id="a12_003"  >
<polygon locus_tag="SACE_4230" description="&lt;b&gt;SACE_4230&lt;/b&gt;&lt;br&gt;serine/threonine protein kinase&lt;br&gt;Location: 2535 - 1&lt;br&gt;&lt;br&gt;&lt;b&gt;BlastP hit with SSMG_03206&lt;/b&gt;&lt;br&gt;Percentage identity: 60&lt;br&gt;Percentage coverage: 97&lt;br&gt;BLAST bit score: 990&lt;br&gt;E-value: 2.2e-288" points="410,85 415,80 501,80 501,90 415,90 410,85 " style="stroke-width:1; stroke:black; fill:#1515d8; " id="dummy-12_h12_1_3" class="clusterblast-orf"  />
</g>
</svg>
