<svg version="1.1" xmlns="http://www.w3.org/2000/svg" height="230" width="800" xmlns:xlink="http://www.w3.org/1999/xlink" preserveAspectRatio="none" x="0" y="0" viewBox="0 0 800 230"  >
<g label="Query sequence" class="clusterblast-cluster"  >
<text class="clusterblast-acc" y="20" x="5"  >
Query sequence</text>
<line x1="10" x2="778.0" y2="35" style="stroke-width:1; stroke:grey; " y1="35"  />
<polygon locus_tag="SSMG_04259" description="&lt;b&gt;SSMG_04259&lt;/b&gt;&lt;br&gt;conserved hypothetical protein&lt;br&gt;Location: 4646055 - 4646568" points="121,35 126,30 126,30 126,40 126,40 121,35 " style="stroke-width:1; stroke:black; fill:white; " id="dummy-17_q0_0_all" class="clusterblast-orf"  />
<polygon locus_tag="SSMG_04260" description="&lt;b&gt;SSMG_04260&lt;/b&gt;&lt;br&gt;predicted protein&lt;br&gt;Location: 4646583 - 4647069" points="127,35 132,30 132,30 132,40 132,40 127,35 " style="stroke-width:1; stroke:black; fill:white; " id="dummy-17_q1_0_all" class="clusterblast-orf"  />
<polygon locus_tag="SSMG_04261" description="&lt;b&gt;SSMG_04261&lt;/b&gt;&lt;br&gt;phosphatidylinositol alpha-mannosyltransferase&lt;br&gt;Location: 4647065 - 4648208" points="132,35 137,30 144,30 144,40 137,40 132,35 " style="stroke-width:1; stroke:black; fill:white; " id="dummy-17_q2_0_all" class="clusterblast-orf"  />
<polygon locus_tag="SSMG_04262" description="&lt;b&gt;SSMG_04262&lt;/b&gt;&lt;br&gt;predicted protein&lt;br&gt;Location: 4648225 - 4649128" points="144,35 149,30 154,30 154,40 149,40 144,35 " style="stroke-width:1; stroke:black; fill:white; " id="dummy-17_q3_0_all" class="clusterblast-orf"  />
<polygon locus_tag="SSMG_04263" description="&lt;b&gt;SSMG_04263&lt;/b&gt;&lt;br&gt;phosphatidylinositol synthase&lt;br&gt;Location: 4649124 - 4649772" points="154,35 159,30 160,30 160,40 159,40 154,35 " style="stroke-width:1; stroke:black; fill:white; " id="dummy-17_q4_0_all" class="clusterblast-orf"  />
<polygon locus_tag="SSMG_04264" description="&lt;b&gt;SSMG_04264&lt;/b&gt;&lt;br&gt;MarR-family transcriptional repressor&lt;br&gt;Location: 4649872 - 4650403" points="161,35 166,30 167,30 167,40 166,40 161,35 " style="stroke-width:1; stroke:black; fill:white; " id="dummy-17_q5_0_all" class="clusterblast-orf"  />
<polygon locus_tag="SSMG_04265" description="&lt;b&gt;SSMG_04265&lt;/b&gt;&lt;br&gt;HIT family protein&lt;br&gt;Location: 4650453 - 4650996" points="168,35 173,30 173,30 173,40 173,40 168,35 " style="stroke-width:1; stroke:black; fill:white; " id="dummy-17_q6_0_all" class="clusterblast-orf"  />
<polygon locus_tag="SSMG_04266" description="&lt;b&gt;SSMG_04266&lt;/b&gt;&lt;br&gt;threonyl-tRNA synthetase&lt;br&gt;Location: 4650992 - 4653029" points="173,35 178,30 195,30 195,40 178,40 173,35 " style="stroke-width:1; stroke:black; fill:white; " id="dummy-17_q7_0_all" class="clusterblast-orf"  />
<polygon locus_tag="SSMG_04267" description="&lt;b&gt;SSMG_04267&lt;/b&gt;&lt;br&gt;nitroreductase&lt;br&gt;Location: 4653174 - 4653786" points="197,35 202,30 203,30 203,40 202,40 197,35 " style="stroke-width:1; stroke:black; fill:white; " id="dummy-17_q8_0_all" class="clusterblast-orf"  />
<polygon locus_tag="SSMG_04268" description="&lt;b&gt;SSMG_04268&lt;/b&gt;&lt;br&gt;undecaprenyl-phosphate glucose phosphotransferase&lt;br&gt;Location: 4653943 - 4655410" points="205,35 210,30 220,30 220,40 210,40 205,35 " style="stroke-width:1; stroke:black; fill:white; " id="dummy-17_q9_0_all" class="clusterblast-orf"  />
<polygon locus_tag="SSMG_04269" description="&lt;b&gt;SSMG_04269&lt;/b&gt;&lt;br&gt;predicted protein&lt;br&gt;Location: 4656012 - 4656249" points="227,35 229,30 229,40 227,35 " style="stroke-width:1; stroke:black; fill:white; " id="dummy-17_q10_0_all" class="clusterblast-orf"  />
<polygon locus_tag="SSMG_04270" description="&lt;b&gt;SSMG_04270&lt;/b&gt;&lt;br&gt;predicted protein&lt;br&gt;Location: 4656683 - 4657121" points="234,35 239,30 239,30 239,40 239,40 234,35 " style="stroke-width:1; stroke:black; fill:white; " id="dummy-17_q11_0_all" class="clusterblast-orf"  />
<polygon locus_tag="SSMG_04271" description="&lt;b&gt;SSMG_04271&lt;/b&gt;&lt;br&gt;predicted protein&lt;br&gt;Location: 4658192 - 4659011" points="250,40 254,40 259,35 254,30 250,30 250,40 " style="stroke-width:1; stroke:black; fill:white; " id="dummy-17_q12_0_all" class="clusterblast-orf"  />
<polygon locus_tag="SSMG_04272" description="&lt;b&gt;SSMG_04272&lt;/b&gt;&lt;br&gt;3-oxoacyl-(acyl carrier protein) synthase III&lt;br&gt;Location: 4659025 - 4659964" points="259,35 264,30 269,30 269,40 264,40 259,35 " style="stroke-width:1; stroke:black; fill:white; " id="dummy-17_q13_0_all" class="clusterblast-orf"  />
<polygon locus_tag="SSMG_04273" description="&lt;b&gt;SSMG_04273&lt;/b&gt;&lt;br&gt;predicted protein&lt;br&gt;Location: 4659985 - 4662595" points="269,35 274,30 297,30 297,40 274,40 269,35 " style="stroke-width:1; stroke:black; fill:white; " id="dummy-17_q14_0_all" class="clusterblast-orf"  />
<polygon locus_tag="SSMG_04274" description="&lt;b&gt;SSMG_04274&lt;/b&gt;&lt;br&gt;conserved hypothetical protein&lt;br&gt;Location: 4662699 - 4663347" points="298,35 303,30 305,30 305,40 303,40 298,35 " style="stroke-width:1; stroke:black; fill:white; " id="dummy-17_q15_0_all" class="clusterblast-orf"  />
<polygon locus_tag="SSMG_04275" description="&lt;b&gt;SSMG_04275&lt;/b&gt;&lt;br&gt;3-oxoacyl-[acyl-carrier-protein] reductase&lt;br&gt;Location: 4663491 - 4664232" points="306,35 311,30 314,30 314,40 311,40 306,35 " style="stroke-width:1; stroke:black; fill:#d81515; " id="dummy-17_q16_0_all" class="clusterblast-orf"  />
<polygon locus_tag="SSMG_04276" description="&lt;b&gt;SSMG_04276&lt;/b&gt;&lt;br&gt;predicted protein&lt;br&gt;Location: 4664228 - 4664642" points="314,35 318,30 318,40 314,35 " style="stroke-width:1; stroke:black; fill:white; " id="dummy-17_q17_0_all" class="clusterblast-orf"  />
<polygon locus_tag="SSMG_04277" description="&lt;b&gt;SSMG_04277&lt;/b&gt;&lt;br&gt;predicted protein&lt;br&gt;Location: 4664638 - 4664989" points="318,35 322,30 322,40 318,35 " style="stroke-width:1; stroke:black; fill:white; " id="dummy-17_q18_0_all" class="clusterblast-orf"  />
<polygon locus_tag="SSMG_04278" description="&lt;b&gt;SSMG_04278&lt;/b&gt;&lt;br&gt;predicted protein&lt;br&gt;Location: 4664964 - 4665975" points="322,35 327,30 333,30 333,40 327,40 322,35 " style="stroke-width:1; stroke:black; fill:white; " id="dummy-17_q19_0_all" class="clusterblast-orf"  />
<polygon locus_tag="SSMG_04279" description="&lt;b&gt;SSMG_04279&lt;/b&gt;&lt;br&gt;3-oxoacyl-[acyl-carrier-protein] synthase 2&lt;br&gt;Location: 4665971 - 4667213" points="333,35 338,30 346,30 346,40 338,40 333,35 " style="stroke-width:1; stroke:black; fill:#15d815; " id="dummy-17_q20_0_all" class="clusterblast-orf"  />
<polygon locus_tag="SSMG_04280" description="&lt;b&gt;SSMG_04280&lt;/b&gt;&lt;br&gt;acyl carrier protein&lt;br&gt;Location: 4667214 - 4667502" points="346,35 349,30 349,40 346,35 " style="stroke-width:1; stroke:black; fill:white; " id="dummy-17_q21_0_all" class="clusterblast-orf"  />
<polygon locus_tag="SSMG_04281" description="&lt;b&gt;SSMG_04281&lt;/b&gt;&lt;br&gt;predicted protein&lt;br&gt;Location: 4667530 - 4668379" points="349,35 354,30 358,30 358,40 354,40 349,35 " style="stroke-width:1; stroke:black; fill:white; " id="dummy-17_q22_0_all" class="clusterblast-orf"  />
<polygon locus_tag="SSMG_04282" description="&lt;b&gt;SSMG_04282&lt;/b&gt;&lt;br&gt;dicarboxylate-CoA ligase PimA&lt;br&gt;Location: 4668401 - 4669997" points="358,35 363,30 375,30 375,40 363,40 358,35 " style="stroke-width:1; stroke:black; fill:#1597d8; " id="dummy-17_q23_0_all" class="clusterblast-orf"  />
<polygon locus_tag="SSMG_04283" description="&lt;b&gt;SSMG_04283&lt;/b&gt;&lt;br&gt;predicted protein&lt;br&gt;Location: 4669993 - 4671523" points="375,35 380,30 392,30 392,40 380,40 375,35 " style="stroke-width:1; stroke:black; fill:#9715d8; " id="dummy-17_q24_0_all" class="clusterblast-orf"  />
<polygon locus_tag="SSMG_04284" description="&lt;b&gt;SSMG_04284&lt;/b&gt;&lt;br&gt;modular polyketide synthase&lt;br&gt;Location: 4671446 - 4677095" points="391,35 396,30 451,30 451,40 396,40 391,35 " style="stroke-width:1; stroke:black; fill:#d89715; " id="dummy-17_q25_0_all" class="clusterblast-orf"  />
<polygon locus_tag="SSMG_04285" description="&lt;b&gt;SSMG_04285&lt;/b&gt;&lt;br&gt;predicted protein&lt;br&gt;Location: 4677855 - 4678209" points="459,35 463,30 463,40 459,35 " style="stroke-width:1; stroke:black; fill:#15d897; " id="dummy-17_q26_0_all" class="clusterblast-orf"  />
<polygon locus_tag="SSMG_04286" description="&lt;b&gt;SSMG_04286&lt;/b&gt;&lt;br&gt;conserved hypothetical protein&lt;br&gt;Location: 4678234 - 4678792" points="463,35 468,30 469,30 469,40 468,40 463,35 " style="stroke-width:1; stroke:black; fill:#1515d8; " id="dummy-17_q27_0_all" class="clusterblast-orf"  />
<polygon locus_tag="SSMG_04287" description="&lt;b&gt;SSMG_04287&lt;/b&gt;&lt;br&gt;predicted protein&lt;br&gt;Location: 4678788 - 4679991" points="469,35 474,30 482,30 482,40 474,40 469,35 " style="stroke-width:1; stroke:black; fill:#d81597; " id="dummy-17_q28_0_all" class="clusterblast-orf"  />
<polygon locus_tag="SSMG_04288" description="&lt;b&gt;SSMG_04288&lt;/b&gt;&lt;br&gt;predicted protein&lt;br&gt;Location: 4680008 - 4681220" points="482,35 487,30 495,30 495,40 487,40 482,35 " style="stroke-width:1; stroke:black; fill:#d81597; " id="dummy-17_q29_0_all" class="clusterblast-orf"  />
<polygon locus_tag="SSMG_04289" description="&lt;b&gt;SSMG_04289&lt;/b&gt;&lt;br&gt;taurine catabolism dioxygenase&lt;br&gt;Location: 4681253 - 4682135" points="495,35 500,30 504,30 504,40 500,40 495,35 " style="stroke-width:1; stroke:black; fill:#97d815; " id="dummy-17_q30_0_all" class="clusterblast-orf"  />
<polygon locus_tag="SSMG_04290" description="&lt;b&gt;SSMG_04290&lt;/b&gt;&lt;br&gt;regulator&lt;br&gt;Location: 4683071 - 4683497" points="514,40 514,40 519,35 514,30 514,30 514,40 " style="stroke-width:1; stroke:black; fill:white; " id="dummy-17_q31_0_all" class="clusterblast-orf"  />
<polygon locus_tag="SSMG_04291" description="&lt;b&gt;SSMG_04291&lt;/b&gt;&lt;br&gt;glucose-6-phosphate dehydrogenase, F420-dependent&lt;br&gt;Location: 4684438 - 4685443" points="529,35 534,30 540,30 540,40 534,40 529,35 " style="stroke-width:1; stroke:black; fill:white; " id="dummy-17_q32_0_all" class="clusterblast-orf"  />
<polygon locus_tag="SSMG_04292" description="&lt;b&gt;SSMG_04292&lt;/b&gt;&lt;br&gt;predicted protein&lt;br&gt;Location: 4685755 - 4686505" points="543,35 548,30 551,30 551,40 548,40 543,35 " style="stroke-width:1; stroke:black; fill:white; " id="dummy-17_q33_0_all" class="clusterblast-orf"  />
<polygon locus_tag="SSMG_04293" description="&lt;b&gt;SSMG_04293&lt;/b&gt;&lt;br&gt;siderophore interacting protein&lt;br&gt;Location: 4687111 - 4687906" points="557,40 561,40 566,35 561,30 557,30 557,40 " style="stroke-width:1; stroke:black; fill:white; " id="dummy-17_q34_0_all" class="clusterblast-orf"  />
<polygon locus_tag="SSMG_04294" description="&lt;b&gt;SSMG_04294&lt;/b&gt;&lt;br&gt;methylated-DNA-protein-cysteine methyltransferase&lt;br&gt;Location: 4687911 - 4688481" points="566,35 571,30 572,30 572,40 571,40 566,35 " style="stroke-width:1; stroke:black; fill:white; " id="dummy-17_q35_0_all" class="clusterblast-orf"  />
<polygon locus_tag="SSMG_04295" description="&lt;b&gt;SSMG_04295&lt;/b&gt;&lt;br&gt;4-carboxy-4-hydroxy-2-oxoadipate aldolase/oxaloacetate decarboxylase&lt;br&gt;Location: 4688461 - 4689097" points="572,40 573,40 578,35 573,30 572,30 572,40 " style="stroke-width:1; stroke:black; fill:white; " id="dummy-17_q36_0_all" class="clusterblast-orf"  />
<polygon locus_tag="SSMG_04296" description="&lt;b&gt;SSMG_04296&lt;/b&gt;&lt;br&gt;predicted protein&lt;br&gt;Location: 4689033 - 4689261" points="578,40 580,35 578,30 578,40 " style="stroke-width:1; stroke:black; fill:white; " id="dummy-17_q37_0_all" class="clusterblast-orf"  />
<polygon locus_tag="SSMG_04297" description="&lt;b&gt;SSMG_04297&lt;/b&gt;&lt;br&gt;predicted protein&lt;br&gt;Location: 4689680 - 4689869" points="585,35 587,30 587,40 585,35 " style="stroke-width:1; stroke:black; fill:white; " id="dummy-17_q38_0_all" class="clusterblast-orf"  />
<polygon locus_tag="SSMG_04298" description="&lt;b&gt;SSMG_04298&lt;/b&gt;&lt;br&gt;predicted protein&lt;br&gt;Location: 4689991 - 4690285" points="588,40 591,35 588,30 588,40 " style="stroke-width:1; stroke:black; fill:white; " id="dummy-17_q39_0_all" class="clusterblast-orf"  />
<polygon locus_tag="SSMG_04299" description="&lt;b&gt;SSMG_04299&lt;/b&gt;&lt;br&gt;proline iminopeptidase&lt;br&gt;Location: 4690952 - 4692182" points="598,40 606,40 611,35 606,30 598,30 598,40 " style="stroke-width:1; stroke:black; fill:white; " id="dummy-17_q40_0_all" class="clusterblast-orf"  />
<polygon locus_tag="SSMG_04300" description="&lt;b&gt;SSMG_04300&lt;/b&gt;&lt;br&gt;2-hydroxycyclohexanecarboxyl-CoA dehydrogenase&lt;br&gt;Location: 4692227 - 4693079" points="612,35 617,30 621,30 621,40 617,40 612,35 " style="stroke-width:1; stroke:black; fill:white; " id="dummy-17_q41_0_all" class="clusterblast-orf"  />
<polygon locus_tag="SSMG_04301" description="&lt;b&gt;SSMG_04301&lt;/b&gt;&lt;br&gt;predicted protein&lt;br&gt;Location: 4693154 - 4694012" points="622,35 627,30 631,30 631,40 627,40 622,35 " style="stroke-width:1; stroke:black; fill:white; " id="dummy-17_q42_0_all" class="clusterblast-orf"  />
<polygon locus_tag="SSMG_04302" description="&lt;b&gt;SSMG_04302&lt;/b&gt;&lt;br&gt;conserved hypothetical protein&lt;br&gt;Location: 4694070 - 4695588" points="631,35 636,30 647,30 647,40 636,40 631,35 " style="stroke-width:1; stroke:black; fill:white; " id="dummy-17_q43_0_all" class="clusterblast-orf"  />
<polygon locus_tag="SSMG_04303" description="&lt;b&gt;SSMG_04303&lt;/b&gt;&lt;br&gt;conserved hypothetical protein&lt;br&gt;Location: 4695563 - 4696613" points="647,35 652,30 658,30 658,40 652,40 647,35 " style="stroke-width:1; stroke:black; fill:white; " id="dummy-17_q44_0_all" class="clusterblast-orf"  />
</g>
<g label="BGC0001072" description="BGC0001072_c1: simocyclinone D8 (4% of genes show similarity), Saccharide + Polyketide:Modular type I + Polyketide:Type II + Other:Aminocoumarin" class="clusterblast-cluster"  >
<text class="clusterblast-acc" y="70" x="5"  >
<a xlink:href="https://mibig.secondarymetabolites.org/go/BGC0001072/1" target="_blank">BGC0001072</a>:                                                                 simocyclinone D8 (4% of genes show similarity), Saccharide + Polyketide:Modular type I + Polyketide:Type II + Other:Aminocoumarin</text>
<line x1="10" x2="778.0" y2="85" style="stroke-width:1; stroke:grey; " y1="85"  />
</g>
<g id="a17_000"  >
<polygon locus_tag="AAK06812.1" description="&lt;b&gt;AAK06812.1&lt;/b&gt;&lt;br&gt;SimX6&lt;br&gt;Location: 74610 - 74332" points="0,85 2,80 2,90 0,85 " style="stroke-width:1; stroke:black; fill:white; " id="dummy-17_h17_7_0" class="clusterblast-orf"  />
</g>
<g id="a17_001"  >
<polygon locus_tag="AAK06811.1" description="&lt;b&gt;AAK06811.1&lt;/b&gt;&lt;br&gt;putative acetyl transferase SimB6&lt;br&gt;Location: 74253 - 72853" points="3,85 8,80 18,80 18,90 8,90 3,85 " style="stroke-width:1; stroke:black; fill:white; " id="dummy-17_h17_7_1" class="clusterblast-orf"  />
</g>
<g id="a17_002"  >
<polygon locus_tag="AAK06810.1" description="&lt;b&gt;AAK06810.1&lt;/b&gt;&lt;br&gt;putative dNDP-4-keto-6-deoxy-glucose-2,3-dehydratase SimB3&lt;br&gt;Location: 72856 - 71408" points="18,85 23,80 34,80 34,90 23,90 18,85 " style="stroke-width:1; stroke:black; fill:white; " id="dummy-17_h17_7_2" class="clusterblast-orf"  />
</g>
<g id="a17_003"  >
<polygon locus_tag="AAK06809.1" description="&lt;b&gt;AAK06809.1&lt;/b&gt;&lt;br&gt;putative 3-keto-acyl-reductase SimD4&lt;br&gt;Location: 71341 - 70601&lt;br&gt;&lt;br&gt;&lt;b&gt;BlastP hit with SSMG_04275&lt;/b&gt;&lt;br&gt;Percentage identity: 60&lt;br&gt;Percentage coverage: 98&lt;br&gt;BLAST bit score: 263&lt;br&gt;E-value: 4.1e-70" points="34,85 39,80 42,80 42,90 39,90 34,85 " style="stroke-width:1; stroke:black; fill:#d81515; " id="dummy-17_h17_7_3" class="clusterblast-orf"  />
</g>
<g id="a17_004"  >
<polygon locus_tag="AAK06808.1" description="&lt;b&gt;AAK06808.1&lt;/b&gt;&lt;br&gt;regulator&lt;br&gt;Location: 70278 - 69523" points="46,85 51,80 54,80 54,90 51,90 46,85 " style="stroke-width:1; stroke:black; fill:white; " id="dummy-17_h17_7_4" class="clusterblast-orf"  />
</g>
<g id="a17_005"  >
<polygon locus_tag="AAK06807.1" description="&lt;b&gt;AAK06807.1&lt;/b&gt;&lt;br&gt;putative 3-keto-acyl-reductase SimD2&lt;br&gt;Location: 69353 - 68532" points="55,85 60,80 64,80 64,90 60,90 55,85 " style="stroke-width:1; stroke:black; fill:white; " id="dummy-17_h17_7_5" class="clusterblast-orf"  />
</g>
<g id="a17_006"  >
<polygon locus_tag="AAK06806.1" description="&lt;b&gt;AAK06806.1&lt;/b&gt;&lt;br&gt;MbtH-like protein&lt;br&gt;Location: 68521 - 68309" points="64,85 66,80 66,90 64,85 " style="stroke-width:1; stroke:black; fill:white; " id="dummy-17_h17_7_6" class="clusterblast-orf"  />
</g>
<g id="a17_007"  >
<polygon locus_tag="AAK06805.1" description="&lt;b&gt;AAK06805.1&lt;/b&gt;&lt;br&gt;putative cytochrome P450 oxidase SimD1&lt;br&gt;Location: 68272 - 67007" points="67,85 72,80 80,80 80,90 72,90 67,85 " style="stroke-width:1; stroke:black; fill:white; " id="dummy-17_h17_7_7" class="clusterblast-orf"  />
</g>
<g id="a17_008"  >
<polygon locus_tag="AAK06804.1" description="&lt;b&gt;AAK06804.1&lt;/b&gt;&lt;br&gt;Tyroxyl-AMP-forming enzyme&lt;br&gt;Location: 67010 - 63978" points="80,85 85,80 113,80 113,90 85,90 80,85 " style="stroke-width:1; stroke:black; fill:white; " id="dummy-17_h17_7_8" class="clusterblast-orf"  />
</g>
<g id="a17_009"  >
<polygon locus_tag="AAK06803.1" description="&lt;b&gt;AAK06803.1&lt;/b&gt;&lt;br&gt;aminocoumarin ligase&lt;br&gt;Location: 63988 - 62429" points="112,85 117,80 129,80 129,90 117,90 112,85 " style="stroke-width:1; stroke:black; fill:white; " id="dummy-17_h17_7_9" class="clusterblast-orf"  />
</g>
<g id="a17_0010"  >
<polygon locus_tag="AAK06802.1" description="&lt;b&gt;AAK06802.1&lt;/b&gt;&lt;br&gt;putative 3-keto-acyl-reductase SimD3&lt;br&gt;Location: 62392 - 61682" points="129,85 134,80 137,80 137,90 134,90 129,85 " style="stroke-width:1; stroke:black; fill:white; " id="dummy-17_h17_7_10" class="clusterblast-orf"  />
</g>
<g id="a17_0011"  >
<polygon locus_tag="AAK06801.1" description="&lt;b&gt;AAK06801.1&lt;/b&gt;&lt;br&gt;putative phosphopantetheinyl transferase SimC8&lt;br&gt;Location: 61536 - 60874" points="138,85 143,80 146,80 146,90 143,90 138,85 " style="stroke-width:1; stroke:black; fill:white; " id="dummy-17_h17_7_11" class="clusterblast-orf"  />
</g>
<g id="a17_0012"  >
<polygon locus_tag="AAK06800.1" description="&lt;b&gt;AAK06800.1&lt;/b&gt;&lt;br&gt;SimX4&lt;br&gt;Location: 60877 - 59996" points="145,85 150,80 155,80 155,90 150,90 145,85 " style="stroke-width:1; stroke:black; fill:white; " id="dummy-17_h17_7_12" class="clusterblast-orf"  />
</g>
<g id="a17_0013"  >
<polygon locus_tag="AAK06799.1" description="&lt;b&gt;AAK06799.1&lt;/b&gt;&lt;br&gt;simocyclinone-specific efflux pump&lt;br&gt;Location: 59784 - 58180" points="157,85 162,80 174,80 174,90 162,90 157,85 " style="stroke-width:1; stroke:black; fill:white; " id="dummy-17_h17_7_13" class="clusterblast-orf"  />
</g>
<g id="a17_0014"  >
<polygon locus_tag="AAK06798.1" description="&lt;b&gt;AAK06798.1&lt;/b&gt;&lt;br&gt;transcriptional repressor of transporter SimX&lt;br&gt;Location: 58083 - 57298" points="175,90 179,90 184,85 179,80 175,80 175,90 " style="stroke-width:1; stroke:black; fill:white; " id="dummy-17_h17_7_14" class="clusterblast-orf"  />
</g>
<g id="a17_0015"  >
<polygon locus_tag="AAK06797.1" description="&lt;b&gt;AAK06797.1&lt;/b&gt;&lt;br&gt;putative alcohol dehydrogenase SimC5&lt;br&gt;Location: 57347 - 56007" points="183,85 188,80 197,80 197,90 188,90 183,85 " style="stroke-width:1; stroke:black; fill:white; " id="dummy-17_h17_7_15" class="clusterblast-orf"  />
</g>
<g id="a17_0016"  >
<polygon locus_tag="AAK06796.1" description="&lt;b&gt;AAK06796.1&lt;/b&gt;&lt;br&gt;putative dioxygenase SimC4&lt;br&gt;Location: 55990 - 54620" points="197,85 202,80 212,80 212,90 202,90 197,85 " style="stroke-width:1; stroke:black; fill:white; " id="dummy-17_h17_7_16" class="clusterblast-orf"  />
</g>
<g id="a17_0017"  >
<polygon locus_tag="AAK06795.1" description="&lt;b&gt;AAK06795.1&lt;/b&gt;&lt;br&gt;putative thioesterase SimC3&lt;br&gt;Location: 54623 - 53850" points="212,85 217,80 220,80 220,90 217,90 212,85 " style="stroke-width:1; stroke:black; fill:white; " id="dummy-17_h17_7_17" class="clusterblast-orf"  />
</g>
<g id="a17_0018"  >
<polygon locus_tag="AAK06794.1" description="&lt;b&gt;AAK06794.1&lt;/b&gt;&lt;br&gt;SimX2&lt;br&gt;Location: 53808 - 53572" points="221,85 223,80 223,90 221,85 " style="stroke-width:1; stroke:black; fill:white; " id="dummy-17_h17_7_18" class="clusterblast-orf"  />
</g>
<g id="a17_0019"  >
<polygon locus_tag="AAK06793.1" description="&lt;b&gt;AAK06793.1&lt;/b&gt;&lt;br&gt;putative decarboxylase SimA12&lt;br&gt;Location: 53575 - 51989" points="223,85 228,80 240,80 240,90 228,90 223,85 " style="stroke-width:1; stroke:black; fill:white; " id="dummy-17_h17_7_19" class="clusterblast-orf"  />
</g>
<g id="a17_0020"  >
<polygon locus_tag="AAK06792.1" description="&lt;b&gt;AAK06792.1&lt;/b&gt;&lt;br&gt;putative phosphopantheine-transferase SimA11&lt;br&gt;Location: 51976 - 51311" points="240,85 245,80 247,80 247,90 245,90 240,85 " style="stroke-width:1; stroke:black; fill:white; " id="dummy-17_h17_7_20" class="clusterblast-orf"  />
</g>
<g id="a17_0021"  >
<polygon locus_tag="AAK06791.1" description="&lt;b&gt;AAK06791.1&lt;/b&gt;&lt;br&gt;putative reductase SimA10&lt;br&gt;Location: 51303 - 50731" points="247,85 252,80 253,80 253,90 252,90 247,85 " style="stroke-width:1; stroke:black; fill:white; " id="dummy-17_h17_7_21" class="clusterblast-orf"  />
</g>
<g id="a17_0022"  >
<polygon locus_tag="AAK06790.1" description="&lt;b&gt;AAK06790.1&lt;/b&gt;&lt;br&gt;putative reductase SimA9&lt;br&gt;Location: 50600 - 49836" points="255,85 260,80 263,80 263,90 260,90 255,85 " style="stroke-width:1; stroke:black; fill:white; " id="dummy-17_h17_7_22" class="clusterblast-orf"  />
</g>
<g id="a17_0023"  >
<polygon locus_tag="AAK06789.1" description="&lt;b&gt;AAK06789.1&lt;/b&gt;&lt;br&gt;putative oxygenase SimA8&lt;br&gt;Location: 49757 - 48273" points="264,85 269,80 279,80 279,90 269,90 264,85 " style="stroke-width:1; stroke:black; fill:white; " id="dummy-17_h17_7_23" class="clusterblast-orf"  />
</g>
<g id="a17_0024"  >
<polygon locus_tag="AAK06788.1" description="&lt;b&gt;AAK06788.1&lt;/b&gt;&lt;br&gt;putative cyclase/dehydrase SimA5&lt;br&gt;Location: 48267 - 47320" points="280,85 285,80 290,80 290,90 285,90 280,85 " style="stroke-width:1; stroke:black; fill:white; " id="dummy-17_h17_7_24" class="clusterblast-orf"  />
</g>
<g id="a17_0025"  >
<polygon locus_tag="AAK06787.1" description="&lt;b&gt;AAK06787.1&lt;/b&gt;&lt;br&gt;putative ketoreductase SimA6&lt;br&gt;Location: 47294 - 46509" points="290,85 295,80 298,80 298,90 295,90 290,85 " style="stroke-width:1; stroke:black; fill:white; " id="dummy-17_h17_7_25" class="clusterblast-orf"  />
</g>
<g id="a17_0026"  >
<polygon locus_tag="AAK06786.1" description="&lt;b&gt;AAK06786.1&lt;/b&gt;&lt;br&gt;putative acyl carrier protein SimA3&lt;br&gt;Location: 46489 - 46223" points="298,85 301,80 301,90 298,85 " style="stroke-width:1; stroke:black; fill:white; " id="dummy-17_h17_7_26" class="clusterblast-orf"  />
</g>
<g id="a17_0027"  >
<polygon locus_tag="AAK06785.1" description="&lt;b&gt;AAK06785.1&lt;/b&gt;&lt;br&gt;putative ketosynthase SimA2&lt;br&gt;Location: 46174 - 44960" points="302,85 307,80 315,80 315,90 307,90 302,85 " style="stroke-width:1; stroke:black; fill:white; " id="dummy-17_h17_7_27" class="clusterblast-orf"  />
</g>
<g id="a17_0028"  >
<polygon locus_tag="AAK06784.1" description="&lt;b&gt;AAK06784.1&lt;/b&gt;&lt;br&gt;putative ketosynthase SimA1&lt;br&gt;Location: 44963 - 43695" points="315,85 320,80 328,80 328,90 320,90 315,85 " style="stroke-width:1; stroke:black; fill:white; " id="dummy-17_h17_7_28" class="clusterblast-orf"  />
</g>
<g id="a17_0029"  >
<polygon locus_tag="AAK06783.1" description="&lt;b&gt;AAK06783.1&lt;/b&gt;&lt;br&gt;putative cyclase SimA4&lt;br&gt;Location: 43698 - 43372" points="328,85 332,80 332,90 328,85 " style="stroke-width:1; stroke:black; fill:white; " id="dummy-17_h17_7_29" class="clusterblast-orf"  />
</g>
<g id="a17_0030"  >
<polygon locus_tag="AAK06782.1" description="&lt;b&gt;AAK06782.1&lt;/b&gt;&lt;br&gt;putative oxygenase SimA7&lt;br&gt;Location: 43322 - 41847" points="332,85 337,80 348,80 348,90 337,90 332,85 " style="stroke-width:1; stroke:black; fill:white; " id="dummy-17_h17_7_30" class="clusterblast-orf"  />
</g>
<g id="a17_0031"  >
<polygon locus_tag="AEU17901.1" description="&lt;b&gt;AEU17901.1&lt;/b&gt;&lt;br&gt;hypothetical protein&lt;br&gt;Location: 41457 - 41215" points="352,85 354,80 354,90 352,85 " style="stroke-width:1; stroke:black; fill:white; " id="dummy-17_h17_7_31" class="clusterblast-orf"  />
</g>
<g id="a17_0032"  >
<polygon locus_tag="AEU17900.1" description="&lt;b&gt;AEU17900.1&lt;/b&gt;&lt;br&gt;putative thioesterase&lt;br&gt;Location: 40788 - 39958" points="359,85 364,80 368,80 368,90 364,90 359,85 " style="stroke-width:1; stroke:black; fill:white; " id="dummy-17_h17_7_32" class="clusterblast-orf"  />
</g>
<g id="a17_0033"  >
<polygon locus_tag="AEU17899.1" description="&lt;b&gt;AEU17899.1&lt;/b&gt;&lt;br&gt;putative type I PKS&lt;br&gt;Location: 39741 - 26623" points="370,85 375,80 510,80 510,90 375,90 370,85 " style="stroke-width:1; stroke:black; fill:white; " id="dummy-17_h17_7_33" class="clusterblast-orf"  />
</g>
<g id="a17_0034"  >
<polygon locus_tag="AEU17898.1" description="&lt;b&gt;AEU17898.1&lt;/b&gt;&lt;br&gt;putative type I PKS&lt;br&gt;Location: 26555 - 22560" points="510,85 515,80 553,80 553,90 515,90 510,85 " style="stroke-width:1; stroke:black; fill:white; " id="dummy-17_h17_7_34" class="clusterblast-orf"  />
</g>
<g id="a17_0035"  >
<polygon locus_tag="AEU17897.1" description="&lt;b&gt;AEU17897.1&lt;/b&gt;&lt;br&gt;putative type I PKS&lt;br&gt;Location: 22506 - 15910" points="553,85 558,80 623,80 623,90 558,90 553,85 " style="stroke-width:1; stroke:black; fill:white; " id="dummy-17_h17_7_35" class="clusterblast-orf"  />
</g>
<g id="a17_0036"  >
<polygon locus_tag="AEU17896.1" description="&lt;b&gt;AEU17896.1&lt;/b&gt;&lt;br&gt;putative P450 oxygenase&lt;br&gt;Location: 15829 - 14573" points="624,85 629,80 638,80 638,90 629,90 624,85 " style="stroke-width:1; stroke:black; fill:white; " id="dummy-17_h17_7_36" class="clusterblast-orf"  />
</g>
<g id="a17_0037"  >
<polygon locus_tag="AEU17895.1" description="&lt;b&gt;AEU17895.1&lt;/b&gt;&lt;br&gt;putative Na/H antiporter&lt;br&gt;Location: 14186 - 12945" points="642,85 647,80 655,80 655,90 647,90 642,85 " style="stroke-width:1; stroke:black; fill:white; " id="dummy-17_h17_7_37" class="clusterblast-orf"  />
</g>
<g id="a17_0038"  >
<polygon locus_tag="AEU17894.1" description="&lt;b&gt;AEU17894.1&lt;/b&gt;&lt;br&gt;putative halogenase&lt;br&gt;Location: 12410 - 10947" points="661,85 666,80 676,80 676,90 666,90 661,85 " style="stroke-width:1; stroke:black; fill:white; " id="dummy-17_h17_7_38" class="clusterblast-orf"  />
</g>
<g id="a17_0039"  >
<polygon locus_tag="AEU17893.1" description="&lt;b&gt;AEU17893.1&lt;/b&gt;&lt;br&gt;hypothetical protein&lt;br&gt;Location: 10863 - 10750" points="677,85 678,80 678,90 677,85 " style="stroke-width:1; stroke:black; fill:white; " id="dummy-17_h17_7_39" class="clusterblast-orf"  />
</g>
<g id="a17_0040"  >
<polygon locus_tag="AEU17892.1" description="&lt;b&gt;AEU17892.1&lt;/b&gt;&lt;br&gt;putative hydroxylase/dehydratase&lt;br&gt;Location: 10198 - 9344" points="684,85 689,80 693,80 693,90 689,90 684,85 " style="stroke-width:1; stroke:black; fill:white; " id="dummy-17_h17_7_40" class="clusterblast-orf"  />
</g>
<g id="a17_0041"  >
<polygon locus_tag="AEU17891.1" description="&lt;b&gt;AEU17891.1&lt;/b&gt;&lt;br&gt;putative regulator MarR/SlyA family&lt;br&gt;Location: 9330 - 8866" points="693,85 698,80 698,80 698,90 698,90 693,85 " style="stroke-width:1; stroke:black; fill:white; " id="dummy-17_h17_7_41" class="clusterblast-orf"  />
</g>
<g id="a17_0042"  >
<polygon locus_tag="AEU17890.1" description="&lt;b&gt;AEU17890.1&lt;/b&gt;&lt;br&gt;hypothetical protein&lt;br&gt;Location: 8855 - 8085" points="698,85 703,80 707,80 707,90 703,90 698,85 " style="stroke-width:1; stroke:black; fill:white; " id="dummy-17_h17_7_42" class="clusterblast-orf"  />
</g>
<g id="a17_0043"  >
<polygon locus_tag="AEU17889.1" description="&lt;b&gt;AEU17889.1&lt;/b&gt;&lt;br&gt;putative 3-oxo-ACP synthase&lt;br&gt;Location: 8059 - 7106" points="707,85 712,80 717,80 717,90 712,90 707,85 " style="stroke-width:1; stroke:black; fill:white; " id="dummy-17_h17_7_43" class="clusterblast-orf"  />
</g>
<g id="a17_0044"  >
<polygon locus_tag="AEU17888.1" description="&lt;b&gt;AEU17888.1&lt;/b&gt;&lt;br&gt;putative 3-ketoreductase&lt;br&gt;Location: 7102 - 6134" points="717,85 722,80 727,80 727,90 722,90 717,85 " style="stroke-width:1; stroke:black; fill:white; " id="dummy-17_h17_7_44" class="clusterblast-orf"  />
</g>
<g id="a17_0045"  >
<polygon locus_tag="AEU17887.1" description="&lt;b&gt;AEU17887.1&lt;/b&gt;&lt;br&gt;putative 4-ketoreductase&lt;br&gt;Location: 6137 - 5376" points="727,85 732,80 735,80 735,90 732,90 727,85 " style="stroke-width:1; stroke:black; fill:white; " id="dummy-17_h17_7_45" class="clusterblast-orf"  />
</g>
<g id="a17_0046"  >
<polygon locus_tag="AEU17886.1" description="&lt;b&gt;AEU17886.1&lt;/b&gt;&lt;br&gt;putative glycosyl transferase&lt;br&gt;Location: 5369 - 4212" points="735,85 740,80 748,80 748,90 740,90 735,85 " style="stroke-width:1; stroke:black; fill:white; " id="dummy-17_h17_7_46" class="clusterblast-orf"  />
</g>
<g id="a17_0047"  >
<polygon locus_tag="AEU17885.1" description="&lt;b&gt;AEU17885.1&lt;/b&gt;&lt;br&gt;3-oxo-ACP synthase II&lt;br&gt;Location: 3843 - 2602&lt;br&gt;&lt;br&gt;&lt;b&gt;BlastP hit with SSMG_04279&lt;/b&gt;&lt;br&gt;Percentage identity: 61&lt;br&gt;Percentage coverage: 98&lt;br&gt;BLAST bit score: 485&lt;br&gt;E-value: 6.6e-137" points="752,85 757,80 765,80 765,90 757,90 752,85 " style="stroke-width:1; stroke:black; fill:#15d815; " id="dummy-17_h17_7_47" class="clusterblast-orf"  />
</g>
<g id="a17_0048"  >
<polygon locus_tag="AEU17884.1" description="&lt;b&gt;AEU17884.1&lt;/b&gt;&lt;br&gt;3-oxo-ACP synthase II&lt;br&gt;Location: 2551 - 1472" points="765,85 770,80 777,80 777,90 770,90 765,85 " style="stroke-width:1; stroke:black; fill:white; " id="dummy-17_h17_7_48" class="clusterblast-orf"  />
</g>
<g id="a17_0049"  >
<polygon locus_tag="AEU17883.1" description="&lt;b&gt;AEU17883.1&lt;/b&gt;&lt;br&gt;putative acyl carrier protein&lt;br&gt;Location: 1475 - 1227" points="777,85 779,80 779,90 777,85 " style="stroke-width:1; stroke:black; fill:white; " id="dummy-17_h17_7_49" class="clusterblast-orf"  />
</g>
</svg>
