<svg version="1.1" xmlns="http://www.w3.org/2000/svg" height="230" width="800" xmlns:xlink="http://www.w3.org/1999/xlink" preserveAspectRatio="none" x="0" y="0" viewBox="0 0 800 230"  >
<g label="Query sequence" class="clusterblast-cluster"  >
<text class="clusterblast-acc" y="20" x="5"  >
Query sequence</text>
<line x1="10" x2="778.0" y2="35" style="stroke-width:1; stroke:grey; " y1="35"  />
<polygon locus_tag="SSMG_04068" description="&lt;b&gt;SSMG_04068&lt;/b&gt;&lt;br&gt;predicted protein&lt;br&gt;Location: 4430591 - 4431389" points="130,40 134,40 139,35 134,30 130,30 130,40 " style="stroke-width:1; stroke:black; fill:white; " id="dummy-16_q0_0_all" class="clusterblast-orf"  />
<polygon locus_tag="SSMG_04069" description="&lt;b&gt;SSMG_04069&lt;/b&gt;&lt;br&gt;proline/betaine transporter&lt;br&gt;Location: 4431385 - 4432696" points="139,40 149,40 154,35 149,30 139,30 139,40 " style="stroke-width:1; stroke:black; fill:white; " id="dummy-16_q1_0_all" class="clusterblast-orf"  />
<polygon locus_tag="SSMG_04070" description="&lt;b&gt;SSMG_04070&lt;/b&gt;&lt;br&gt;predicted protein&lt;br&gt;Location: 4432692 - 4434222" points="154,40 166,40 171,35 166,30 154,30 154,40 " style="stroke-width:1; stroke:black; fill:white; " id="dummy-16_q2_0_all" class="clusterblast-orf"  />
<polygon locus_tag="SSMG_04071" description="&lt;b&gt;SSMG_04071&lt;/b&gt;&lt;br&gt;predicted protein&lt;br&gt;Location: 4434196 - 4436218" points="171,40 189,40 194,35 189,30 171,30 171,40 " style="stroke-width:1; stroke:black; fill:white; " id="dummy-16_q3_0_all" class="clusterblast-orf"  />
<polygon locus_tag="SSMG_04072" description="&lt;b&gt;SSMG_04072&lt;/b&gt;&lt;br&gt;predicted protein&lt;br&gt;Location: 4436425 - 4437238" points="197,35 202,30 206,30 206,40 202,40 197,35 " style="stroke-width:1; stroke:black; fill:white; " id="dummy-16_q4_0_all" class="clusterblast-orf"  />
<polygon locus_tag="SSMG_04073" description="&lt;b&gt;SSMG_04073&lt;/b&gt;&lt;br&gt;major facilitator superfamily transporter permease&lt;br&gt;Location: 4437234 - 4438521" points="206,35 211,30 221,30 221,40 211,40 206,35 " style="stroke-width:1; stroke:black; fill:white; " id="dummy-16_q5_0_all" class="clusterblast-orf"  />
<polygon locus_tag="SSMG_04074" description="&lt;b&gt;SSMG_04074&lt;/b&gt;&lt;br&gt;conserved hypothetical protein&lt;br&gt;Location: 4438628 - 4441787" points="222,40 253,40 258,35 253,30 222,30 222,40 " style="stroke-width:1; stroke:black; fill:white; " id="dummy-16_q6_0_all" class="clusterblast-orf"  />
<polygon locus_tag="SSMG_04075" description="&lt;b&gt;SSMG_04075&lt;/b&gt;&lt;br&gt;predicted protein&lt;br&gt;Location: 4442155 - 4443325" points="262,35 267,30 276,30 276,40 267,40 262,35 " style="stroke-width:1; stroke:black; fill:white; " id="dummy-16_q7_0_all" class="clusterblast-orf"  />
<polygon locus_tag="SSMG_04076" description="&lt;b&gt;SSMG_04076&lt;/b&gt;&lt;br&gt;acetyl coenzyme A synthetase&lt;br&gt;Location: 4443318 - 4445454" points="276,40 295,40 300,35 295,30 276,30 276,40 " style="stroke-width:1; stroke:black; fill:white; " id="dummy-16_q8_0_all" class="clusterblast-orf"  />
<polygon locus_tag="SSMG_04077" description="&lt;b&gt;SSMG_04077&lt;/b&gt;&lt;br&gt;predicted protein&lt;br&gt;Location: 4445446 - 4446766" points="300,40 310,40 315,35 310,30 300,30 300,40 " style="stroke-width:1; stroke:black; fill:white; " id="dummy-16_q9_0_all" class="clusterblast-orf"  />
<polygon locus_tag="SSMG_04078" description="&lt;b&gt;SSMG_04078&lt;/b&gt;&lt;br&gt;predicted protein&lt;br&gt;Location: 4446822 - 4448145" points="316,40 326,40 331,35 326,30 316,30 316,40 " style="stroke-width:1; stroke:black; fill:white; " id="dummy-16_q10_0_all" class="clusterblast-orf"  />
<polygon locus_tag="SSMG_04079" description="&lt;b&gt;SSMG_04079&lt;/b&gt;&lt;br&gt;predicted protein&lt;br&gt;Location: 4448144 - 4449326" points="331,40 339,40 344,35 339,30 331,30 331,40 " style="stroke-width:1; stroke:black; fill:white; " id="dummy-16_q11_0_all" class="clusterblast-orf"  />
<polygon locus_tag="SSMG_04080" description="&lt;b&gt;SSMG_04080&lt;/b&gt;&lt;br&gt;cytochrome P450&lt;br&gt;Location: 4449339 - 4450548" points="344,35 349,30 358,30 358,40 349,40 344,35 " style="stroke-width:1; stroke:black; fill:#d81515; " id="dummy-16_q12_0_all" class="clusterblast-orf"  />
<polygon locus_tag="SSMG_04081" description="&lt;b&gt;SSMG_04081&lt;/b&gt;&lt;br&gt;predicted protein&lt;br&gt;Location: 4450544 - 4456262" points="358,35 363,30 424,30 424,40 363,40 358,35 " style="stroke-width:1; stroke:black; fill:#15d8d8; " id="dummy-16_q13_0_all" class="clusterblast-orf"  />
<polygon locus_tag="SSMG_04082" description="&lt;b&gt;SSMG_04082&lt;/b&gt;&lt;br&gt;predicted protein&lt;br&gt;Location: 4456548 - 4457130" points="427,40 428,40 433,35 428,30 427,30 427,40 " style="stroke-width:1; stroke:black; fill:white; " id="dummy-16_q14_0_all" class="clusterblast-orf"  />
<polygon locus_tag="SSMG_04083" description="&lt;b&gt;SSMG_04083&lt;/b&gt;&lt;br&gt;translation elongation factor EF-1, subunit alpha&lt;br&gt;Location: 4457199 - 4459032" points="434,35 439,30 455,30 455,40 439,40 434,35 " style="stroke-width:1; stroke:black; fill:white; " id="dummy-16_q15_0_all" class="clusterblast-orf"  />
<polygon locus_tag="SSMG_04084" description="&lt;b&gt;SSMG_04084&lt;/b&gt;&lt;br&gt;sulfate adenylyltransferase subunit 2&lt;br&gt;Location: 4459028 - 4459946" points="455,35 460,30 466,30 466,40 460,40 455,35 " style="stroke-width:1; stroke:black; fill:white; " id="dummy-16_q16_0_all" class="clusterblast-orf"  />
<polygon locus_tag="SSMG_04085" description="&lt;b&gt;SSMG_04085&lt;/b&gt;&lt;br&gt;baiE protein&lt;br&gt;Location: 4460028 - 4460502" points="467,40 467,40 472,35 467,30 467,30 467,40 " style="stroke-width:1; stroke:black; fill:white; " id="dummy-16_q17_0_all" class="clusterblast-orf"  />
<polygon locus_tag="SSMG_04086" description="&lt;b&gt;SSMG_04086&lt;/b&gt;&lt;br&gt;transcriptional regulator&lt;br&gt;Location: 4460511 - 4461399" points="472,35 477,30 482,30 482,40 477,40 472,35 " style="stroke-width:1; stroke:black; fill:white; " id="dummy-16_q18_0_all" class="clusterblast-orf"  />
<polygon locus_tag="SSMG_04087" description="&lt;b&gt;SSMG_04087&lt;/b&gt;&lt;br&gt;conserved hypothetical protein&lt;br&gt;Location: 4461487 - 4462654" points="483,40 492,40 497,35 492,30 483,30 483,40 " style="stroke-width:1; stroke:black; fill:white; " id="dummy-16_q19_0_all" class="clusterblast-orf"  />
<polygon locus_tag="SSMG_04088" description="&lt;b&gt;SSMG_04088&lt;/b&gt;&lt;br&gt;3-oxoacyl-[acyl-carrier-protein] reductase&lt;br&gt;Location: 4462658 - 4463438" points="497,40 501,40 506,35 501,30 497,30 497,40 " style="stroke-width:1; stroke:black; fill:white; " id="dummy-16_q20_0_all" class="clusterblast-orf"  />
<polygon locus_tag="SSMG_04089" description="&lt;b&gt;SSMG_04089&lt;/b&gt;&lt;br&gt;conserved hypothetical protein&lt;br&gt;Location: 4463448 - 4464600" points="506,40 514,40 519,35 514,30 506,30 506,40 " style="stroke-width:1; stroke:black; fill:white; " id="dummy-16_q21_0_all" class="clusterblast-orf"  />
<polygon locus_tag="SSMG_04090" description="&lt;b&gt;SSMG_04090&lt;/b&gt;&lt;br&gt;predicted protein&lt;br&gt;Location: 4464580 - 4465225" points="519,40 521,40 526,35 521,30 519,30 519,40 " style="stroke-width:1; stroke:black; fill:white; " id="dummy-16_q22_0_all" class="clusterblast-orf"  />
<polygon locus_tag="SSMG_04091" description="&lt;b&gt;SSMG_04091&lt;/b&gt;&lt;br&gt;predicted protein&lt;br&gt;Location: 4465316 - 4469924" points="527,35 532,30 580,30 580,40 532,40 527,35 " style="stroke-width:1; stroke:black; fill:white; " id="dummy-16_q23_0_all" class="clusterblast-orf"  />
<polygon locus_tag="SSMG_04092" description="&lt;b&gt;SSMG_04092&lt;/b&gt;&lt;br&gt;conserved hypothetical protein&lt;br&gt;Location: 4470040 - 4470820" points="581,35 586,30 590,30 590,40 586,40 581,35 " style="stroke-width:1; stroke:black; fill:white; " id="dummy-16_q24_0_all" class="clusterblast-orf"  />
<polygon locus_tag="SSMG_04093" description="&lt;b&gt;SSMG_04093&lt;/b&gt;&lt;br&gt;predicted protein&lt;br&gt;Location: 4471112 - 4471874" points="593,40 597,40 602,35 597,30 593,30 593,40 " style="stroke-width:1; stroke:black; fill:white; " id="dummy-16_q25_0_all" class="clusterblast-orf"  />
<polygon locus_tag="SSMG_04094" description="&lt;b&gt;SSMG_04094&lt;/b&gt;&lt;br&gt;NUDIX hydrolase&lt;br&gt;Location: 4471920 - 4472331" points="603,40 607,35 603,30 603,40 " style="stroke-width:1; stroke:black; fill:white; " id="dummy-16_q26_0_all" class="clusterblast-orf"  />
<polygon locus_tag="SSMG_04095" description="&lt;b&gt;SSMG_04095&lt;/b&gt;&lt;br&gt;5-oxoprolinase&lt;br&gt;Location: 4472373 - 4473963" points="608,35 613,30 626,30 626,40 613,40 608,35 " style="stroke-width:1; stroke:black; fill:white; " id="dummy-16_q27_0_all" class="clusterblast-orf"  />
<polygon locus_tag="SSMG_04096" description="&lt;b&gt;SSMG_04096&lt;/b&gt;&lt;br&gt;5-oxoprolinase&lt;br&gt;Location: 4473959 - 4475999" points="626,35 631,30 649,30 649,40 631,40 626,35 " style="stroke-width:1; stroke:black; fill:white; " id="dummy-16_q28_0_all" class="clusterblast-orf"  />
</g>
<g label="BGC0001702" description="BGC0001702_c1: nocamycin (14% of genes show similarity), NRP + Polyketide" class="clusterblast-cluster"  >
<text class="clusterblast-acc" y="70" x="5"  >
<a xlink:href="https://mibig.secondarymetabolites.org/go/BGC0001702/1" target="_blank">BGC0001702</a>:                                                                        nocamycin (14% of genes show similarity), NRP + Polyketide</text>
<line x1="10" x2="778.0" y2="85" style="stroke-width:1; stroke:grey; " y1="85"  />
</g>
<g id="a16_000"  >
<polygon locus_tag="ARS01487.1" description="&lt;b&gt;ARS01487.1&lt;/b&gt;&lt;br&gt;2Fe-2S ferredoxin&lt;br&gt;Location: 68204 - 67236" points="0,90 6,90 11,85 6,80 0,80 0,90 " style="stroke-width:1; stroke:black; fill:white; " id="dummy-16_h16_7_0" class="clusterblast-orf"  />
</g>
<g id="a16_001"  >
<polygon locus_tag="ARS01486.1" description="&lt;b&gt;ARS01486.1&lt;/b&gt;&lt;br&gt;ubiquinone biosynthesis methyltransferase UbiE&lt;br&gt;Location: 67047 - 66349" points="13,85 18,80 21,80 21,90 18,90 13,85 " style="stroke-width:1; stroke:black; fill:white; " id="dummy-16_h16_7_1" class="clusterblast-orf"  />
</g>
<g id="a16_002"  >
<polygon locus_tag="ARS01485.1" description="&lt;b&gt;ARS01485.1&lt;/b&gt;&lt;br&gt;Ohr subfamily peroxiredoxin&lt;br&gt;Location: 66254 - 65862" points="22,90 26,85 22,80 22,90 " style="stroke-width:1; stroke:black; fill:white; " id="dummy-16_h16_7_2" class="clusterblast-orf"  />
</g>
<g id="a16_003"  >
<polygon locus_tag="ARS01484.1" description="&lt;b&gt;ARS01484.1&lt;/b&gt;&lt;br&gt;NcmK&lt;br&gt;Location: 65655 - 65014" points="29,85 34,80 36,80 36,90 34,90 29,85 " style="stroke-width:1; stroke:black; fill:white; " id="dummy-16_h16_7_3" class="clusterblast-orf"  />
</g>
<g id="a16_004"  >
<polygon locus_tag="ARS01483.1" description="&lt;b&gt;ARS01483.1&lt;/b&gt;&lt;br&gt;NcmJ&lt;br&gt;Location: 64915 - 62774" points="37,90 57,90 62,85 57,80 37,80 37,90 " style="stroke-width:1; stroke:black; fill:white; " id="dummy-16_h16_7_4" class="clusterblast-orf"  />
</g>
<g id="a16_005"  >
<polygon locus_tag="ARS01482.1" description="&lt;b&gt;ARS01482.1&lt;/b&gt;&lt;br&gt;NcmI&lt;br&gt;Location: 62631 - 62038" points="63,90 65,90 70,85 65,80 63,80 63,90 " style="stroke-width:1; stroke:black; fill:white; " id="dummy-16_h16_7_5" class="clusterblast-orf"  />
</g>
<g id="a16_006"  >
<polygon locus_tag="ARS01481.1" description="&lt;b&gt;ARS01481.1&lt;/b&gt;&lt;br&gt;NcmH&lt;br&gt;Location: 62041 - 60410" points="70,90 84,90 89,85 84,80 70,80 70,90 " style="stroke-width:1; stroke:black; fill:white; " id="dummy-16_h16_7_6" class="clusterblast-orf"  />
</g>
<g id="a16_007"  >
<polygon locus_tag="ARS01480.1" description="&lt;b&gt;ARS01480.1&lt;/b&gt;&lt;br&gt;NcmG&lt;br&gt;Location: 60164 - 58971&lt;br&gt;&lt;br&gt;&lt;b&gt;BlastP hit with SSMG_04080&lt;/b&gt;&lt;br&gt;Percentage identity: 51&lt;br&gt;Percentage coverage: 98&lt;br&gt;BLAST bit score: 379&lt;br&gt;E-value: 4.9e-105" points="91,85 96,80 105,80 105,90 96,90 91,85 " style="stroke-width:1; stroke:black; fill:#d81515; " id="dummy-16_h16_7_7" class="clusterblast-orf"  />
</g>
<g id="a16_008"  >
<polygon locus_tag="ARS01479.1" description="&lt;b&gt;ARS01479.1&lt;/b&gt;&lt;br&gt;NcmF&lt;br&gt;Location: 58965 - 57502" points="105,85 110,80 122,80 122,90 110,90 105,85 " style="stroke-width:1; stroke:black; fill:white; " id="dummy-16_h16_7_8" class="clusterblast-orf"  />
</g>
<g id="a16_009"  >
<polygon locus_tag="ARS01478.1" description="&lt;b&gt;ARS01478.1&lt;/b&gt;&lt;br&gt;NcmE&lt;br&gt;Location: 57505 - 56684" points="122,85 127,80 131,80 131,90 127,90 122,85 " style="stroke-width:1; stroke:black; fill:white; " id="dummy-16_h16_7_9" class="clusterblast-orf"  />
</g>
<g id="a16_0010"  >
<polygon locus_tag="ARS01477.1" description="&lt;b&gt;ARS01477.1&lt;/b&gt;&lt;br&gt;NcmAV&lt;br&gt;Location: 56591 - 48552&lt;br&gt;&lt;br&gt;&lt;b&gt;BlastP hit with SSMG_04081&lt;/b&gt;&lt;br&gt;Percentage identity: 48&lt;br&gt;Percentage coverage: 91&lt;br&gt;BLAST bit score: 1244&lt;br&gt;E-value: 0.0" points="132,85 137,80 224,80 224,90 137,90 132,85 " style="stroke-width:1; stroke:black; fill:#15d8d8; " id="dummy-16_h16_7_10" class="clusterblast-orf"  />
</g>
<g id="a16_0011"  >
<polygon locus_tag="ARS01476.1" description="&lt;b&gt;ARS01476.1&lt;/b&gt;&lt;br&gt;NcmAIV&lt;br&gt;Location: 48550 - 43190&lt;br&gt;&lt;br&gt;&lt;b&gt;BlastP hit with SSMG_04081&lt;/b&gt;&lt;br&gt;Percentage identity: 48&lt;br&gt;Percentage coverage: 93&lt;br&gt;BLAST bit score: 1268&lt;br&gt;E-value: 0.0" points="224,85 229,80 286,80 286,90 229,90 224,85 " style="stroke-width:1; stroke:black; fill:#15d8d8; " id="dummy-16_h16_7_11" class="clusterblast-orf"  />
</g>
<g id="a16_0012"  >
<polygon locus_tag="ARS01475.1" description="&lt;b&gt;ARS01475.1&lt;/b&gt;&lt;br&gt;NcmAIII&lt;br&gt;Location: 43197 - 38533" points="285,85 290,80 339,80 339,90 290,90 285,85 " style="stroke-width:1; stroke:black; fill:white; " id="dummy-16_h16_7_12" class="clusterblast-orf"  />
</g>
<g id="a16_0013"  >
<polygon locus_tag="ARS01474.1" description="&lt;b&gt;ARS01474.1&lt;/b&gt;&lt;br&gt;NcmAII&lt;br&gt;Location: 38533 - 33173&lt;br&gt;&lt;br&gt;&lt;b&gt;BlastP hit with SSMG_04081&lt;/b&gt;&lt;br&gt;Percentage identity: 46&lt;br&gt;Percentage coverage: 93&lt;br&gt;BLAST bit score: 1217&lt;br&gt;E-value: 0.0" points="339,85 344,80 400,80 400,90 344,90 339,85 " style="stroke-width:1; stroke:black; fill:#15d8d8; " id="dummy-16_h16_7_13" class="clusterblast-orf"  />
</g>
<g id="a16_0014"  >
<polygon locus_tag="ARS01473.1" description="&lt;b&gt;ARS01473.1&lt;/b&gt;&lt;br&gt;NcmAI&lt;br&gt;Location: 33173 - 18426" points="400,85 405,80 569,80 569,90 405,90 400,85 " style="stroke-width:1; stroke:black; fill:white; " id="dummy-16_h16_7_14" class="clusterblast-orf"  />
</g>
<g id="a16_0015"  >
<polygon locus_tag="ARS01472.1" description="&lt;b&gt;ARS01472.1&lt;/b&gt;&lt;br&gt;NcmQ&lt;br&gt;Location: 18112 - 17750" points="572,85 577,80 577,80 577,90 577,90 572,85 " style="stroke-width:1; stroke:black; fill:white; " id="dummy-16_h16_7_15" class="clusterblast-orf"  />
</g>
<g id="a16_0016"  >
<polygon locus_tag="ARS01471.1" description="&lt;b&gt;ARS01471.1&lt;/b&gt;&lt;br&gt;NcmD&lt;br&gt;Location: 17652 - 16837" points="578,90 582,90 587,85 582,80 578,80 578,90 " style="stroke-width:1; stroke:black; fill:white; " id="dummy-16_h16_7_16" class="clusterblast-orf"  />
</g>
<g id="a16_0017"  >
<polygon locus_tag="ARS01470.1" description="&lt;b&gt;ARS01470.1&lt;/b&gt;&lt;br&gt;NcmB&lt;br&gt;Location: 16840 - 13526" points="587,85 592,80 625,80 625,90 592,90 587,85 " style="stroke-width:1; stroke:black; fill:white; " id="dummy-16_h16_7_17" class="clusterblast-orf"  />
</g>
<g id="a16_0018"  >
<polygon locus_tag="ARS01469.1" description="&lt;b&gt;ARS01469.1&lt;/b&gt;&lt;br&gt;NcmC&lt;br&gt;Location: 13515 - 12697" points="625,85 630,80 634,80 634,90 630,90 625,85 " style="stroke-width:1; stroke:black; fill:white; " id="dummy-16_h16_7_18" class="clusterblast-orf"  />
</g>
<g id="a16_0019"  >
<polygon locus_tag="ARS01468.1" description="&lt;b&gt;ARS01468.1&lt;/b&gt;&lt;br&gt;NcmP&lt;br&gt;Location: 12700 - 11858" points="634,85 639,80 644,80 644,90 639,90 634,85 " style="stroke-width:1; stroke:black; fill:white; " id="dummy-16_h16_7_19" class="clusterblast-orf"  />
</g>
<g id="a16_0020"  >
<polygon locus_tag="ARS01467.1" description="&lt;b&gt;ARS01467.1&lt;/b&gt;&lt;br&gt;NcmO&lt;br&gt;Location: 11843 - 10689" points="644,85 649,80 657,80 657,90 649,90 644,85 " style="stroke-width:1; stroke:black; fill:white; " id="dummy-16_h16_7_20" class="clusterblast-orf"  />
</g>
<g id="a16_0021"  >
<polygon locus_tag="ARS01466.1" description="&lt;b&gt;ARS01466.1&lt;/b&gt;&lt;br&gt;NcmN&lt;br&gt;Location: 10284 - 7606" points="662,85 667,80 693,80 693,90 667,90 662,85 " style="stroke-width:1; stroke:black; fill:white; " id="dummy-16_h16_7_21" class="clusterblast-orf"  />
</g>
<g id="a16_0022"  >
<polygon locus_tag="ARS01465.1" description="&lt;b&gt;ARS01465.1&lt;/b&gt;&lt;br&gt;NcmL&lt;br&gt;Location: 6996 - 5461" points="700,90 712,90 717,85 712,80 700,80 700,90 " style="stroke-width:1; stroke:black; fill:white; " id="dummy-16_h16_7_22" class="clusterblast-orf"  />
</g>
<g id="a16_0023"  >
<polygon locus_tag="ARS01464.1" description="&lt;b&gt;ARS01464.1&lt;/b&gt;&lt;br&gt;NcmM&lt;br&gt;Location: 5444 - 4770" points="717,90 720,90 725,85 720,80 717,80 717,90 " style="stroke-width:1; stroke:black; fill:white; " id="dummy-16_h16_7_23" class="clusterblast-orf"  />
</g>
<g id="a16_0024"  >
<polygon locus_tag="ARS01463.1" description="&lt;b&gt;ARS01463.1&lt;/b&gt;&lt;br&gt;hypothetical protein&lt;br&gt;Location: 4371 - 3004" points="730,85 735,80 745,80 745,90 735,90 730,85 " style="stroke-width:1; stroke:black; fill:white; " id="dummy-16_h16_7_24" class="clusterblast-orf"  />
</g>
<g id="a16_0025"  >
<polygon locus_tag="ARS01462.1" description="&lt;b&gt;ARS01462.1&lt;/b&gt;&lt;br&gt;helicase&lt;br&gt;Location: 2918 - 924" points="746,85 751,80 769,80 769,90 751,90 746,85 " style="stroke-width:1; stroke:black; fill:white; " id="dummy-16_h16_7_25" class="clusterblast-orf"  />
</g>
<g id="a16_0026"  >
<polygon locus_tag="ARS01461.1" description="&lt;b&gt;ARS01461.1&lt;/b&gt;&lt;br&gt;short-chain dehydrogenase&lt;br&gt;Location: 816 - 1" points="770,90 775,90 780,85 775,80 770,80 770,90 " style="stroke-width:1; stroke:black; fill:white; " id="dummy-16_h16_7_26" class="clusterblast-orf"  />
</g>
</svg>
