<svg version="1.1" xmlns="http://www.w3.org/2000/svg" height="230" width="800" xmlns:xlink="http://www.w3.org/1999/xlink" preserveAspectRatio="none" x="0" y="0" viewBox="0 0 800 230"  >
<g label="Query sequence" class="clusterblast-cluster"  >
<text class="clusterblast-acc" y="20" x="5"  >
Query sequence</text>
<line x1="10" x2="778.0" y2="35" style="stroke-width:1; stroke:grey; " y1="35"  />
<polygon locus_tag="SSMG_04571" description="&lt;b&gt;SSMG_04571&lt;/b&gt;&lt;br&gt;predicted protein&lt;br&gt;Location: 5016278 - 5016476" points="0,35 3,30 3,40 0,35 " style="stroke-width:1; stroke:black; fill:white; " id="dummy-19_q0_0_all" class="clusterblast-orf"  />
<polygon locus_tag="SSMG_04572" description="&lt;b&gt;SSMG_04572&lt;/b&gt;&lt;br&gt;conserved hypothetical protein&lt;br&gt;Location: 5016531 - 5016717" points="4,35 7,30 7,40 4,35 " style="stroke-width:1; stroke:black; fill:white; " id="dummy-19_q1_0_all" class="clusterblast-orf"  />
<polygon locus_tag="SSMG_04573" description="&lt;b&gt;SSMG_04573&lt;/b&gt;&lt;br&gt;magnesium and cobalt transporter CorA&lt;br&gt;Location: 5016985 - 5017954" points="11,40 22,40 27,35 22,30 11,30 11,40 " style="stroke-width:1; stroke:black; fill:white; " id="dummy-19_q2_0_all" class="clusterblast-orf"  />
<polygon locus_tag="SSMG_04574" description="&lt;b&gt;SSMG_04574&lt;/b&gt;&lt;br&gt;predicted protein&lt;br&gt;Location: 5018045 - 5018759" points="29,40 35,40 40,35 35,30 29,30 29,40 " style="stroke-width:1; stroke:black; fill:white; " id="dummy-19_q3_0_all" class="clusterblast-orf"  />
<polygon locus_tag="SSMG_04575" description="&lt;b&gt;SSMG_04575&lt;/b&gt;&lt;br&gt;predicted protein&lt;br&gt;Location: 5019044 - 5019236" points="45,35 48,30 48,40 45,35 " style="stroke-width:1; stroke:black; fill:white; " id="dummy-19_q4_0_all" class="clusterblast-orf"  />
<polygon locus_tag="SSMG_04576" description="&lt;b&gt;SSMG_04576&lt;/b&gt;&lt;br&gt;predicted protein&lt;br&gt;Location: 5019224 - 5019596" points="48,40 49,40 54,35 49,30 48,30 48,40 " style="stroke-width:1; stroke:black; fill:white; " id="dummy-19_q5_0_all" class="clusterblast-orf"  />
<polygon locus_tag="SSMG_04577" description="&lt;b&gt;SSMG_04577&lt;/b&gt;&lt;br&gt;predicted protein&lt;br&gt;Location: 5019614 - 5020178" points="54,35 59,30 64,30 64,40 59,40 54,35 " style="stroke-width:1; stroke:black; fill:white; " id="dummy-19_q6_0_all" class="clusterblast-orf"  />
<polygon locus_tag="SSMG_04578" description="&lt;b&gt;SSMG_04578&lt;/b&gt;&lt;br&gt;acetyltransferase&lt;br&gt;Location: 5020236 - 5020761" points="65,40 68,40 73,35 68,30 65,30 65,40 " style="stroke-width:1; stroke:black; fill:white; " id="dummy-19_q7_0_all" class="clusterblast-orf"  />
<polygon locus_tag="SSMG_04579" description="&lt;b&gt;SSMG_04579&lt;/b&gt;&lt;br&gt;imidazolonepropionase&lt;br&gt;Location: 5020774 - 5022061" points="73,35 78,30 95,30 95,40 78,40 73,35 " style="stroke-width:1; stroke:black; fill:white; " id="dummy-19_q8_0_all" class="clusterblast-orf"  />
<polygon locus_tag="SSMG_04580" description="&lt;b&gt;SSMG_04580&lt;/b&gt;&lt;br&gt;predicted protein&lt;br&gt;Location: 5022057 - 5023515" points="94,35 99,30 118,30 118,40 99,40 94,35 " style="stroke-width:1; stroke:black; fill:white; " id="dummy-19_q9_0_all" class="clusterblast-orf"  />
<polygon locus_tag="SSMG_04581" description="&lt;b&gt;SSMG_04581&lt;/b&gt;&lt;br&gt;predicted protein&lt;br&gt;Location: 5023643 - 5024669" points="120,40 132,40 137,35 132,30 120,30 120,40 " style="stroke-width:1; stroke:black; fill:white; " id="dummy-19_q10_0_all" class="clusterblast-orf"  />
<polygon locus_tag="SSMG_04582" description="&lt;b&gt;SSMG_04582&lt;/b&gt;&lt;br&gt;predicted protein&lt;br&gt;Location: 5024831 - 5028356" points="140,40 193,40 198,35 193,30 140,30 140,40 " style="stroke-width:1; stroke:black; fill:white; " id="dummy-19_q11_0_all" class="clusterblast-orf"  />
<polygon locus_tag="SSMG_04583" description="&lt;b&gt;SSMG_04583&lt;/b&gt;&lt;br&gt;predicted protein&lt;br&gt;Location: 5028607 - 5029621" points="202,40 214,40 219,35 214,30 202,30 202,40 " style="stroke-width:1; stroke:black; fill:white; " id="dummy-19_q12_0_all" class="clusterblast-orf"  />
<polygon locus_tag="SSMG_04584" description="&lt;b&gt;SSMG_04584&lt;/b&gt;&lt;br&gt;aldo/keto reductase&lt;br&gt;Location: 5029887 - 5030874" points="223,35 228,30 239,30 239,40 228,40 223,35 " style="stroke-width:1; stroke:black; fill:white; " id="dummy-19_q13_0_all" class="clusterblast-orf"  />
<polygon locus_tag="SSMG_04585" description="&lt;b&gt;SSMG_04585&lt;/b&gt;&lt;br&gt;predicted protein&lt;br&gt;Location: 5031439 - 5031892" points="248,35 253,30 256,30 256,40 253,40 248,35 " style="stroke-width:1; stroke:black; fill:white; " id="dummy-19_q14_0_all" class="clusterblast-orf"  />
<polygon locus_tag="SSMG_04586" description="&lt;b&gt;SSMG_04586&lt;/b&gt;&lt;br&gt;branched-chain amino acid transporter&lt;br&gt;Location: 5031899 - 5032229" points="256,35 261,30 261,30 261,40 261,40 256,35 " style="stroke-width:1; stroke:black; fill:white; " id="dummy-19_q15_0_all" class="clusterblast-orf"  />
<polygon locus_tag="SSMG_04587" description="&lt;b&gt;SSMG_04587&lt;/b&gt;&lt;br&gt;azaleucine resistance protein AzlC&lt;br&gt;Location: 5032221 - 5032938" points="261,35 266,30 273,30 273,40 266,40 261,35 " style="stroke-width:1; stroke:black; fill:white; " id="dummy-19_q16_0_all" class="clusterblast-orf"  />
<polygon locus_tag="SSMG_04588" description="&lt;b&gt;SSMG_04588&lt;/b&gt;&lt;br&gt;leucine-responsive regulator&lt;br&gt;Location: 5033001 - 5033460" points="274,40 276,40 281,35 276,30 274,30 274,40 " style="stroke-width:1; stroke:black; fill:white; " id="dummy-19_q17_0_all" class="clusterblast-orf"  />
<polygon locus_tag="SSMG_04589" description="&lt;b&gt;SSMG_04589&lt;/b&gt;&lt;br&gt;zinc-binding alcohol dehydrogenase&lt;br&gt;Location: 5033502 - 5034450" points="282,35 287,30 298,30 298,40 287,40 282,35 " style="stroke-width:1; stroke:black; fill:white; " id="dummy-19_q18_0_all" class="clusterblast-orf"  />
<polygon locus_tag="SSMG_04590" description="&lt;b&gt;SSMG_04590&lt;/b&gt;&lt;br&gt;antibiotic biosynthesis monooxygenase&lt;br&gt;Location: 5034461 - 5034749" points="298,35 303,30 303,30 303,40 303,40 298,35 " style="stroke-width:1; stroke:black; fill:white; " id="dummy-19_q19_0_all" class="clusterblast-orf"  />
<polygon locus_tag="SSMG_04591" description="&lt;b&gt;SSMG_04591&lt;/b&gt;&lt;br&gt;dicarboxylate-CoA ligase PimA&lt;br&gt;Location: 5034745 - 5036440" points="303,35 308,30 330,30 330,40 308,40 303,35 " style="stroke-width:1; stroke:black; fill:white; " id="dummy-19_q20_0_all" class="clusterblast-orf"  />
<polygon locus_tag="SSMG_04592" description="&lt;b&gt;SSMG_04592&lt;/b&gt;&lt;br&gt;conserved hypothetical protein&lt;br&gt;Location: 5036436 - 5037393" points="330,35 335,30 346,30 346,40 335,40 330,35 " style="stroke-width:1; stroke:black; fill:white; " id="dummy-19_q21_0_all" class="clusterblast-orf"  />
<polygon locus_tag="SSMG_04593" description="&lt;b&gt;SSMG_04593&lt;/b&gt;&lt;br&gt;conserved hypothetical protein&lt;br&gt;Location: 5037545 - 5038397" points="348,40 357,40 362,35 357,30 348,30 348,40 " style="stroke-width:1; stroke:black; fill:white; " id="dummy-19_q22_0_all" class="clusterblast-orf"  />
<polygon locus_tag="SSMG_04594" description="&lt;b&gt;SSMG_04594&lt;/b&gt;&lt;br&gt;predicted protein&lt;br&gt;Location: 5038500 - 5039706" points="364,40 379,40 384,35 379,30 364,30 364,40 " style="stroke-width:1; stroke:black; fill:white; " id="dummy-19_q23_0_all" class="clusterblast-orf"  />
<polygon locus_tag="SSMG_04595" description="&lt;b&gt;SSMG_04595&lt;/b&gt;&lt;br&gt;DJ-1/PfpI family protein&lt;br&gt;Location: 5039824 - 5040598" points="386,40 394,40 399,35 394,30 386,30 386,40 " style="stroke-width:1; stroke:black; fill:white; " id="dummy-19_q24_0_all" class="clusterblast-orf"  />
<polygon locus_tag="SSMG_04596" description="&lt;b&gt;SSMG_04596&lt;/b&gt;&lt;br&gt;conserved hypothetical protein&lt;br&gt;Location: 5040857 - 5041343" points="403,35 408,30 411,30 411,40 408,40 403,35 " style="stroke-width:1; stroke:black; fill:white; " id="dummy-19_q25_0_all" class="clusterblast-orf"  />
<polygon locus_tag="SSMG_04597" description="&lt;b&gt;SSMG_04597&lt;/b&gt;&lt;br&gt;predicted protein&lt;br&gt;Location: 5041538 - 5041820" points="414,35 419,30 419,30 419,40 419,40 414,35 " style="stroke-width:1; stroke:black; fill:white; " id="dummy-19_q26_0_all" class="clusterblast-orf"  />
<polygon locus_tag="SSMG_04598" description="&lt;b&gt;SSMG_04598&lt;/b&gt;&lt;br&gt;predicted protein&lt;br&gt;Location: 5042805 - 5043999" points="435,35 440,30 454,30 454,40 440,40 435,35 " style="stroke-width:1; stroke:black; fill:white; " id="dummy-19_q27_0_all" class="clusterblast-orf"  />
<polygon locus_tag="SSMG_04599" description="&lt;b&gt;SSMG_04599&lt;/b&gt;&lt;br&gt;hypothetical protein&lt;br&gt;Location: 5043995 - 5045036" points="454,35 459,30 471,30 471,40 459,40 454,35 " style="stroke-width:1; stroke:black; fill:white; " id="dummy-19_q28_0_all" class="clusterblast-orf"  />
<polygon locus_tag="SSMG_04600" description="&lt;b&gt;SSMG_04600&lt;/b&gt;&lt;br&gt;predicted protein&lt;br&gt;Location: 5045032 - 5045941" points="471,35 476,30 486,30 486,40 476,40 471,35 " style="stroke-width:1; stroke:black; fill:white; " id="dummy-19_q29_0_all" class="clusterblast-orf"  />
<polygon locus_tag="SSMG_04601" description="&lt;b&gt;SSMG_04601&lt;/b&gt;&lt;br&gt;predicted protein&lt;br&gt;Location: 5045937 - 5047152" points="486,35 491,30 506,30 506,40 491,40 486,35 " style="stroke-width:1; stroke:black; fill:white; " id="dummy-19_q30_0_all" class="clusterblast-orf"  />
<polygon locus_tag="SSMG_04602" description="&lt;b&gt;SSMG_04602&lt;/b&gt;&lt;br&gt;acyl carrier protein&lt;br&gt;Location: 5047148 - 5047400" points="506,35 510,30 510,40 506,35 " style="stroke-width:1; stroke:black; fill:white; " id="dummy-19_q31_0_all" class="clusterblast-orf"  />
<polygon locus_tag="SSMG_04603" description="&lt;b&gt;SSMG_04603&lt;/b&gt;&lt;br&gt;hypothetical protein&lt;br&gt;Location: 5047405 - 5048581" points="510,35 515,30 530,30 530,40 515,40 510,35 " style="stroke-width:1; stroke:black; fill:white; " id="dummy-19_q32_0_all" class="clusterblast-orf"  />
<polygon locus_tag="SSMG_04604" description="&lt;b&gt;SSMG_04604&lt;/b&gt;&lt;br&gt;predicted protein&lt;br&gt;Location: 5048741 - 5049221" points="532,35 537,30 540,30 540,40 537,40 532,35 " style="stroke-width:1; stroke:black; fill:white; " id="dummy-19_q33_0_all" class="clusterblast-orf"  />
<polygon locus_tag="SSMG_04605" description="&lt;b&gt;SSMG_04605&lt;/b&gt;&lt;br&gt;predicted protein&lt;br&gt;Location: 5049350 - 5050472" points="542,40 556,40 561,35 556,30 542,30 542,40 " style="stroke-width:1; stroke:black; fill:white; " id="dummy-19_q34_0_all" class="clusterblast-orf"  />
<polygon locus_tag="SSMG_04606" description="&lt;b&gt;SSMG_04606&lt;/b&gt;&lt;br&gt;predicted protein&lt;br&gt;Location: 5050485 - 5051361" points="561,35 566,30 575,30 575,40 566,40 561,35 " style="stroke-width:1; stroke:black; fill:white; " id="dummy-19_q35_0_all" class="clusterblast-orf"  />
<polygon locus_tag="SSMG_04607" description="&lt;b&gt;SSMG_04607&lt;/b&gt;&lt;br&gt;predicted protein&lt;br&gt;Location: 5051376 - 5051796" points="575,35 580,30 582,30 582,40 580,40 575,35 " style="stroke-width:1; stroke:black; fill:white; " id="dummy-19_q36_0_all" class="clusterblast-orf"  />
<polygon locus_tag="SSMG_04608" description="&lt;b&gt;SSMG_04608&lt;/b&gt;&lt;br&gt;predicted protein&lt;br&gt;Location: 5051993 - 5053214" points="585,35 590,30 606,30 606,40 590,40 585,35 " style="stroke-width:1; stroke:black; fill:white; " id="dummy-19_q37_0_all" class="clusterblast-orf"  />
<polygon locus_tag="SSMG_04609" description="&lt;b&gt;SSMG_04609&lt;/b&gt;&lt;br&gt;predicted protein&lt;br&gt;Location: 5053210 - 5057104" points="605,35 610,30 669,30 669,40 610,40 605,35 " style="stroke-width:1; stroke:black; fill:white; " id="dummy-19_q38_0_all" class="clusterblast-orf"  />
<polygon locus_tag="SSMG_04610" description="&lt;b&gt;SSMG_04610&lt;/b&gt;&lt;br&gt;conserved hypothetical protein&lt;br&gt;Location: 5057533 - 5058733" points="676,35 681,30 696,30 696,40 681,40 676,35 " style="stroke-width:1; stroke:black; fill:#d81515; " id="dummy-19_q39_0_all" class="clusterblast-orf"  />
<polygon locus_tag="SSMG_04611" description="&lt;b&gt;SSMG_04611&lt;/b&gt;&lt;br&gt;ATPase&lt;br&gt;Location: 5058732 - 5059938" points="696,35 701,30 716,30 716,40 701,40 696,35 " style="stroke-width:1; stroke:black; fill:#15d815; " id="dummy-19_q40_0_all" class="clusterblast-orf"  />
<polygon locus_tag="SSMG_04612" description="&lt;b&gt;SSMG_04612&lt;/b&gt;&lt;br&gt;predicted protein&lt;br&gt;Location: 5059974 - 5061252" points="716,35 721,30 737,30 737,40 721,40 716,35 " style="stroke-width:1; stroke:black; fill:#1515d8; " id="dummy-19_q41_0_all" class="clusterblast-orf"  />
<polygon locus_tag="SSMG_04613" description="&lt;b&gt;SSMG_04613&lt;/b&gt;&lt;br&gt;conserved hypothetical protein&lt;br&gt;Location: 5061449 - 5062064" points="741,40 746,40 751,35 746,30 741,30 741,40 " style="stroke-width:1; stroke:black; fill:white; " id="dummy-19_q42_0_all" class="clusterblast-orf"  />
<polygon locus_tag="SSMG_04614" description="&lt;b&gt;SSMG_04614&lt;/b&gt;&lt;br&gt;3-ketosteroid-delta-1-dehydrogenase&lt;br&gt;Location: 5062110 - 5063832" points="751,35 756,30 780,30 780,40 756,40 751,35 " style="stroke-width:1; stroke:black; fill:white; " id="dummy-19_q43_0_all" class="clusterblast-orf"  />
</g>
<g label="BGC0000316" description="BGC0000316_c1: capreomycin IA / capreomycin IB / capreomycin IIA / capreomyci... (12% of genes show similarity), NRP" class="clusterblast-cluster"  >
<text class="clusterblast-acc" y="70" x="5"  >
<a xlink:href="https://mibig.secondarymetabolites.org/go/BGC0000316/1" target="_blank">BGC0000316</a>:              capreomycin IA / capreomycin IB / capreomycin IIA / capreomycin IIB (12% of genes show similarity), NRP</text>
<line x1="10" x2="778.0" y2="85" style="stroke-width:1; stroke:grey; " y1="85"  />
</g>
<g id="a19_000"  >
<polygon locus_tag="ABR67762.1" description="&lt;b&gt;ABR67762.1&lt;/b&gt;&lt;br&gt;unknown&lt;br&gt;Location: 141 - 644" points="31,85 36,80 39,80 39,90 36,90 31,85 " style="stroke-width:1; stroke:black; fill:white; " id="dummy-19_h19_1_0" class="clusterblast-orf"  />
</g>
<g id="a19_001"  >
<polygon locus_tag="ABR67763.1" description="&lt;b&gt;ABR67763.1&lt;/b&gt;&lt;br&gt;unknown&lt;br&gt;Location: 804 - 1376" points="41,90 46,90 51,85 46,80 41,80 41,90 " style="stroke-width:1; stroke:black; fill:white; " id="dummy-19_h19_1_1" class="clusterblast-orf"  />
</g>
<g id="a19_002"  >
<polygon locus_tag="ABR67764.1" description="&lt;b&gt;ABR67764.1&lt;/b&gt;&lt;br&gt;unknown&lt;br&gt;Location: 1383 - 2123" points="51,85 56,80 63,80 63,90 56,90 51,85 " style="stroke-width:1; stroke:black; fill:white; " id="dummy-19_h19_1_2" class="clusterblast-orf"  />
</g>
<g id="a19_003"  >
<polygon locus_tag="ABR67765.1" description="&lt;b&gt;ABR67765.1&lt;/b&gt;&lt;br&gt;unknown&lt;br&gt;Location: 2159 - 3442" points="64,90 80,90 85,85 80,80 64,80 64,90 " style="stroke-width:1; stroke:black; fill:white; " id="dummy-19_h19_1_3" class="clusterblast-orf"  />
</g>
<g id="a19_004"  >
<polygon locus_tag="ABR67766.1" description="&lt;b&gt;ABR67766.1&lt;/b&gt;&lt;br&gt;unknown&lt;br&gt;Location: 3462 - 4862" points="85,85 90,80 108,80 108,90 90,90 85,85 " style="stroke-width:1; stroke:black; fill:white; " id="dummy-19_h19_1_4" class="clusterblast-orf"  />
</g>
<g id="a19_005"  >
<polygon locus_tag="ABR67767.1" description="&lt;b&gt;ABR67767.1&lt;/b&gt;&lt;br&gt;unknown&lt;br&gt;Location: 5150 - 5752" points="113,90 118,90 123,85 118,80 113,80 113,90 " style="stroke-width:1; stroke:black; fill:white; " id="dummy-19_h19_1_5" class="clusterblast-orf"  />
</g>
<g id="a19_006"  >
<polygon locus_tag="ABR67768.1" description="&lt;b&gt;ABR67768.1&lt;/b&gt;&lt;br&gt;unknown&lt;br&gt;Location: 5861 - 6376" points="124,85 129,80 133,80 133,90 129,90 124,85 " style="stroke-width:1; stroke:black; fill:white; " id="dummy-19_h19_1_6" class="clusterblast-orf"  />
</g>
<g id="a19_007"  >
<polygon locus_tag="ABR67769.1" description="&lt;b&gt;ABR67769.1&lt;/b&gt;&lt;br&gt;unknown&lt;br&gt;Location: 6395 - 7591&lt;br&gt;&lt;br&gt;&lt;b&gt;BlastP hit with SSMG_04610&lt;/b&gt;&lt;br&gt;Percentage identity: 81&lt;br&gt;Percentage coverage: 101&lt;br&gt;BLAST bit score: 675&lt;br&gt;E-value: 7.4e-194" points="133,85 138,80 153,80 153,90 138,90 133,85 " style="stroke-width:1; stroke:black; fill:#d81515; " id="dummy-19_h19_1_7" class="clusterblast-orf"  />
</g>
<g id="a19_008"  >
<polygon locus_tag="ABR67770.1" description="&lt;b&gt;ABR67770.1&lt;/b&gt;&lt;br&gt;unknown&lt;br&gt;Location: 7588 - 8802&lt;br&gt;&lt;br&gt;&lt;b&gt;BlastP hit with SSMG_04611&lt;/b&gt;&lt;br&gt;Percentage identity: 87&lt;br&gt;Percentage coverage: 96&lt;br&gt;BLAST bit score: 669&lt;br&gt;E-value: 4.1e-192" points="153,85 158,80 173,80 173,90 158,90 153,85 " style="stroke-width:1; stroke:black; fill:#15d815; " id="dummy-19_h19_1_8" class="clusterblast-orf"  />
</g>
<g id="a19_009"  >
<polygon locus_tag="ABR67771.1" description="&lt;b&gt;ABR67771.1&lt;/b&gt;&lt;br&gt;unknown&lt;br&gt;Location: 8863 - 9531&lt;br&gt;&lt;br&gt;&lt;b&gt;BlastP hit with SSMG_04612&lt;/b&gt;&lt;br&gt;Percentage identity: 71&lt;br&gt;Percentage coverage: 45&lt;br&gt;BLAST bit score: 263&lt;br&gt;E-value: 5.5e-70" points="174,85 179,80 185,80 185,90 179,90 174,85 " style="stroke-width:1; stroke:black; fill:#1515d8; " id="dummy-19_h19_1_9" class="clusterblast-orf"  />
</g>
<g id="a19_0010"  >
<polygon locus_tag="ABR67772.1" description="&lt;b&gt;ABR67772.1&lt;/b&gt;&lt;br&gt;unknown&lt;br&gt;Location: 9528 - 10286&lt;br&gt;&lt;br&gt;&lt;b&gt;BlastP hit with SSMG_04612&lt;/b&gt;&lt;br&gt;Percentage identity: 76&lt;br&gt;Percentage coverage: 43&lt;br&gt;BLAST bit score: 272&lt;br&gt;E-value: 1.2e-72" points="184,85 189,80 197,80 197,90 189,90 184,85 " style="stroke-width:1; stroke:black; fill:#1515d8; " id="dummy-19_h19_1_10" class="clusterblast-orf"  />
</g>
<g id="a19_0011"  >
<polygon locus_tag="ABR67773.1" description="&lt;b&gt;ABR67773.1&lt;/b&gt;&lt;br&gt;unknown&lt;br&gt;Location: 10362 - 11108" points="198,85 203,80 210,80 210,90 203,90 198,85 " style="stroke-width:1; stroke:black; fill:white; " id="dummy-19_h19_1_11" class="clusterblast-orf"  />
</g>
<g id="a19_0012"  >
<polygon locus_tag="ABR67760.1" description="&lt;b&gt;ABR67760.1&lt;/b&gt;&lt;br&gt;CmnR&lt;br&gt;Location: 11212 - 11925" points="212,85 217,80 224,80 224,90 217,90 212,85 " style="stroke-width:1; stroke:black; fill:white; " id="dummy-19_h19_1_12" class="clusterblast-orf"  />
</g>
<g id="a19_0013"  >
<polygon locus_tag="ABR67761.1" description="&lt;b&gt;ABR67761.1&lt;/b&gt;&lt;br&gt;CmnU&lt;br&gt;Location: 12265 - 12984" points="229,85 234,80 241,80 241,90 234,90 229,85 " style="stroke-width:1; stroke:black; fill:white; " id="dummy-19_h19_1_13" class="clusterblast-orf"  />
</g>
<g id="a19_0014"  >
<polygon locus_tag="ABR67744.1" description="&lt;b&gt;ABR67744.1&lt;/b&gt;&lt;br&gt;CmnA&lt;br&gt;Location: 13445 - 20650" points="249,90 362,90 367,85 362,80 249,80 249,90 " style="stroke-width:1; stroke:black; fill:white; " id="dummy-19_h19_1_14" class="clusterblast-orf"  />
</g>
<g id="a19_0015"  >
<polygon locus_tag="ABR67745.1" description="&lt;b&gt;ABR67745.1&lt;/b&gt;&lt;br&gt;CmnB&lt;br&gt;Location: 20668 - 21756" points="367,90 380,90 385,85 380,80 367,80 367,90 " style="stroke-width:1; stroke:black; fill:white; " id="dummy-19_h19_1_15" class="clusterblast-orf"  />
</g>
<g id="a19_0016"  >
<polygon locus_tag="ABR67746.1" description="&lt;b&gt;ABR67746.1&lt;/b&gt;&lt;br&gt;CmnC&lt;br&gt;Location: 21753 - 22769" points="385,90 397,90 402,85 397,80 385,80 385,90 " style="stroke-width:1; stroke:black; fill:white; " id="dummy-19_h19_1_16" class="clusterblast-orf"  />
</g>
<g id="a19_0017"  >
<polygon locus_tag="ABR67747.1" description="&lt;b&gt;ABR67747.1&lt;/b&gt;&lt;br&gt;CmnD&lt;br&gt;Location: 22766 - 23887" points="402,90 415,90 420,85 415,80 402,80 402,90 " style="stroke-width:1; stroke:black; fill:white; " id="dummy-19_h19_1_17" class="clusterblast-orf"  />
</g>
<g id="a19_0018"  >
<polygon locus_tag="ABR67748.1" description="&lt;b&gt;ABR67748.1&lt;/b&gt;&lt;br&gt;CmnE&lt;br&gt;Location: 23934 - 25181" points="421,90 436,90 441,85 436,80 421,80 421,90 " style="stroke-width:1; stroke:black; fill:white; " id="dummy-19_h19_1_18" class="clusterblast-orf"  />
</g>
<g id="a19_0019"  >
<polygon locus_tag="ABR67749.1" description="&lt;b&gt;ABR67749.1&lt;/b&gt;&lt;br&gt;CmnF&lt;br&gt;Location: 25196 - 28366" points="441,90 488,90 493,85 488,80 441,80 441,90 " style="stroke-width:1; stroke:black; fill:white; " id="dummy-19_h19_1_19" class="clusterblast-orf"  />
</g>
<g id="a19_0020"  >
<polygon locus_tag="ABR67750.1" description="&lt;b&gt;ABR67750.1&lt;/b&gt;&lt;br&gt;CmnG&lt;br&gt;Location: 28363 - 31221" points="493,90 535,90 540,85 535,80 493,80 493,90 " style="stroke-width:1; stroke:black; fill:white; " id="dummy-19_h19_1_20" class="clusterblast-orf"  />
</g>
<g id="a19_0021"  >
<polygon locus_tag="ABR67751.1" description="&lt;b&gt;ABR67751.1&lt;/b&gt;&lt;br&gt;CmnH&lt;br&gt;Location: 31218 - 31964" points="540,90 547,90 552,85 547,80 540,80 540,90 " style="stroke-width:1; stroke:black; fill:white; " id="dummy-19_h19_1_21" class="clusterblast-orf"  />
</g>
<g id="a19_0022"  >
<polygon locus_tag="ABR67752.1" description="&lt;b&gt;ABR67752.1&lt;/b&gt;&lt;br&gt;CmnI&lt;br&gt;Location: 31961 - 33607" points="552,90 574,90 579,85 574,80 552,80 552,90 " style="stroke-width:1; stroke:black; fill:white; " id="dummy-19_h19_1_22" class="clusterblast-orf"  />
</g>
<g id="a19_0023"  >
<polygon locus_tag="ABR67753.1" description="&lt;b&gt;ABR67753.1&lt;/b&gt;&lt;br&gt;CmnJ&lt;br&gt;Location: 33604 - 34755" points="579,90 593,90 598,85 593,80 579,80 579,90 " style="stroke-width:1; stroke:black; fill:white; " id="dummy-19_h19_1_23" class="clusterblast-orf"  />
</g>
<g id="a19_0024"  >
<polygon locus_tag="ABR67754.1" description="&lt;b&gt;ABR67754.1&lt;/b&gt;&lt;br&gt;CmnK&lt;br&gt;Location: 34758 - 35756" points="598,90 610,90 615,85 610,80 598,80 598,90 " style="stroke-width:1; stroke:black; fill:white; " id="dummy-19_h19_1_24" class="clusterblast-orf"  />
</g>
<g id="a19_0025"  >
<polygon locus_tag="ABR67755.1" description="&lt;b&gt;ABR67755.1&lt;/b&gt;&lt;br&gt;CmnL&lt;br&gt;Location: 35753 - 36640" points="615,90 624,90 629,85 624,80 615,80 615,90 " style="stroke-width:1; stroke:black; fill:white; " id="dummy-19_h19_1_25" class="clusterblast-orf"  />
</g>
<g id="a19_0026"  >
<polygon locus_tag="ABR67756.1" description="&lt;b&gt;ABR67756.1&lt;/b&gt;&lt;br&gt;CmnM&lt;br&gt;Location: 36633 - 37838" points="629,90 644,90 649,85 644,80 629,80 629,90 " style="stroke-width:1; stroke:black; fill:white; " id="dummy-19_h19_1_26" class="clusterblast-orf"  />
</g>
<g id="a19_0027"  >
<polygon locus_tag="ABR67757.1" description="&lt;b&gt;ABR67757.1&lt;/b&gt;&lt;br&gt;CmnN&lt;br&gt;Location: 37847 - 38035" points="649,90 652,85 649,80 649,90 " style="stroke-width:1; stroke:black; fill:white; " id="dummy-19_h19_1_27" class="clusterblast-orf"  />
</g>
<g id="a19_0028"  >
<polygon locus_tag="ABR67758.1" description="&lt;b&gt;ABR67758.1&lt;/b&gt;&lt;br&gt;CmnO&lt;br&gt;Location: 38032 - 39786" points="652,90 676,90 681,85 676,80 652,80 652,90 " style="stroke-width:1; stroke:black; fill:white; " id="dummy-19_h19_1_28" class="clusterblast-orf"  />
</g>
<g id="a19_0029"  >
<polygon locus_tag="ABR67759.1" description="&lt;b&gt;ABR67759.1&lt;/b&gt;&lt;br&gt;CmnP&lt;br&gt;Location: 39792 - 41138" points="681,90 698,90 703,85 698,80 681,80 681,90 " style="stroke-width:1; stroke:black; fill:white; " id="dummy-19_h19_1_29" class="clusterblast-orf"  />
</g>
<g id="a19_0030"  >
<polygon locus_tag="ABR67774.1" description="&lt;b&gt;ABR67774.1&lt;/b&gt;&lt;br&gt;unknown&lt;br&gt;Location: 42340 - 43176" points="723,90 731,90 736,85 731,80 723,80 723,90 " style="stroke-width:1; stroke:black; fill:white; " id="dummy-19_h19_1_30" class="clusterblast-orf"  />
</g>
<g id="a19_0031"  >
<polygon locus_tag="ABR67775.1" description="&lt;b&gt;ABR67775.1&lt;/b&gt;&lt;br&gt;unknown&lt;br&gt;Location: 43177 - 43914" points="736,85 741,80 748,80 748,90 741,90 736,85 " style="stroke-width:1; stroke:black; fill:white; " id="dummy-19_h19_1_31" class="clusterblast-orf"  />
</g>
</svg>
