<svg version="1.1" xmlns="http://www.w3.org/2000/svg" height="230" width="800" xmlns:xlink="http://www.w3.org/1999/xlink" preserveAspectRatio="none" x="0" y="0" viewBox="0 0 800 230"  >
<g label="Query sequence" class="clusterblast-cluster"  >
<text class="clusterblast-acc" y="20" x="5"  >
Query sequence</text>
<line x1="10" x2="778.0" y2="35" style="stroke-width:1; stroke:grey; " y1="35"  />
<polygon locus_tag="SSMG_03375" description="&lt;b&gt;SSMG_03375&lt;/b&gt;&lt;br&gt;predicted protein&lt;br&gt;Location: 3680898 - 3681750" points="160,40 164,40 169,35 164,30 160,30 160,40 " style="stroke-width:1; stroke:black; fill:white; " id="dummy-13_q0_0_all" class="clusterblast-orf"  />
<polygon locus_tag="SSMG_03376" description="&lt;b&gt;SSMG_03376&lt;/b&gt;&lt;br&gt;predicted protein&lt;br&gt;Location: 3681823 - 3683095" points="170,35 175,30 183,30 183,40 175,40 170,35 " style="stroke-width:1; stroke:black; fill:white; " id="dummy-13_q1_0_all" class="clusterblast-orf"  />
<polygon locus_tag="SSMG_03377" description="&lt;b&gt;SSMG_03377&lt;/b&gt;&lt;br&gt;ECF sub family sigma-70 factor&lt;br&gt;Location: 3683266 - 3683791" points="185,40 186,40 191,35 186,30 185,30 185,40 " style="stroke-width:1; stroke:black; fill:white; " id="dummy-13_q2_0_all" class="clusterblast-orf"  />
<polygon locus_tag="SSMG_03378" description="&lt;b&gt;SSMG_03378&lt;/b&gt;&lt;br&gt;predicted protein&lt;br&gt;Location: 3683787 - 3684474" points="191,40 193,40 198,35 193,30 191,30 191,40 " style="stroke-width:1; stroke:black; fill:white; " id="dummy-13_q3_0_all" class="clusterblast-orf"  />
<polygon locus_tag="SSMG_03379" description="&lt;b&gt;SSMG_03379&lt;/b&gt;&lt;br&gt;predicted protein&lt;br&gt;Location: 3684512 - 3684920" points="199,40 203,35 199,30 199,40 " style="stroke-width:1; stroke:black; fill:white; " id="dummy-13_q4_0_all" class="clusterblast-orf"  />
<polygon locus_tag="SSMG_03380" description="&lt;b&gt;SSMG_03380&lt;/b&gt;&lt;br&gt;metallophosphoesterase&lt;br&gt;Location: 3684916 - 3685855" points="203,40 208,40 213,35 208,30 203,30 203,40 " style="stroke-width:1; stroke:black; fill:white; " id="dummy-13_q5_0_all" class="clusterblast-orf"  />
<polygon locus_tag="SSMG_03381" description="&lt;b&gt;SSMG_03381&lt;/b&gt;&lt;br&gt;predicted protein&lt;br&gt;Location: 3685851 - 3686256" points="213,40 217,35 213,30 213,40 " style="stroke-width:1; stroke:black; fill:white; " id="dummy-13_q6_0_all" class="clusterblast-orf"  />
<polygon locus_tag="SSMG_03382" description="&lt;b&gt;SSMG_03382&lt;/b&gt;&lt;br&gt;transcriptional regulator&lt;br&gt;Location: 3686293 - 3686932" points="218,35 223,30 225,30 225,40 223,40 218,35 " style="stroke-width:1; stroke:black; fill:white; " id="dummy-13_q7_0_all" class="clusterblast-orf"  />
<polygon locus_tag="SSMG_03383" description="&lt;b&gt;SSMG_03383&lt;/b&gt;&lt;br&gt;conserved hypothetical protein&lt;br&gt;Location: 3686936 - 3687500" points="225,35 230,30 231,30 231,40 230,40 225,35 " style="stroke-width:1; stroke:black; fill:white; " id="dummy-13_q8_0_all" class="clusterblast-orf"  />
<polygon locus_tag="SSMG_03384" description="&lt;b&gt;SSMG_03384&lt;/b&gt;&lt;br&gt;predicted protein&lt;br&gt;Location: 3687873 - 3688647" points="235,35 240,30 243,30 243,40 240,40 235,35 " style="stroke-width:1; stroke:black; fill:white; " id="dummy-13_q9_0_all" class="clusterblast-orf"  />
<polygon locus_tag="SSMG_03385" description="&lt;b&gt;SSMG_03385&lt;/b&gt;&lt;br&gt;predicted protein&lt;br&gt;Location: 3688668 - 3689325" points="243,35 248,30 250,30 250,40 248,40 243,35 " style="stroke-width:1; stroke:black; fill:white; " id="dummy-13_q10_0_all" class="clusterblast-orf"  />
<polygon locus_tag="SSMG_03386" description="&lt;b&gt;SSMG_03386&lt;/b&gt;&lt;br&gt;predicted protein&lt;br&gt;Location: 3689568 - 3689937" points="253,35 257,30 257,40 253,35 " style="stroke-width:1; stroke:black; fill:white; " id="dummy-13_q11_0_all" class="clusterblast-orf"  />
<polygon locus_tag="SSMG_03387" description="&lt;b&gt;SSMG_03387&lt;/b&gt;&lt;br&gt;conserved hypothetical protein&lt;br&gt;Location: 3689917 - 3690343" points="257,35 261,30 261,40 257,35 " style="stroke-width:1; stroke:black; fill:white; " id="dummy-13_q12_0_all" class="clusterblast-orf"  />
<polygon locus_tag="SSMG_03388" description="&lt;b&gt;SSMG_03388&lt;/b&gt;&lt;br&gt;short chain dehydrogenase&lt;br&gt;Location: 3690377 - 3691079" points="261,35 266,30 269,30 269,40 266,40 261,35 " style="stroke-width:1; stroke:black; fill:white; " id="dummy-13_q13_0_all" class="clusterblast-orf"  />
<polygon locus_tag="SSMG_03389" description="&lt;b&gt;SSMG_03389&lt;/b&gt;&lt;br&gt;conserved hypothetical protein&lt;br&gt;Location: 3691165 - 3691654" points="270,40 270,40 275,35 270,30 270,30 270,40 " style="stroke-width:1; stroke:black; fill:white; " id="dummy-13_q14_0_all" class="clusterblast-orf"  />
<polygon locus_tag="SSMG_03390" description="&lt;b&gt;SSMG_03390&lt;/b&gt;&lt;br&gt;acetyl-CoA C-acyltransferase FadA&lt;br&gt;Location: 3691709 - 3692876" points="276,35 281,30 288,30 288,40 281,40 276,35 " style="stroke-width:1; stroke:black; fill:white; " id="dummy-13_q15_0_all" class="clusterblast-orf"  />
<polygon locus_tag="SSMG_03391" description="&lt;b&gt;SSMG_03391&lt;/b&gt;&lt;br&gt;transcriptional regulator&lt;br&gt;Location: 3692998 - 3693439" points="290,40 294,35 290,30 290,40 " style="stroke-width:1; stroke:black; fill:white; " id="dummy-13_q16_0_all" class="clusterblast-orf"  />
<polygon locus_tag="SSMG_03392" description="&lt;b&gt;SSMG_03392&lt;/b&gt;&lt;br&gt;predicted protein&lt;br&gt;Location: 3693425 - 3693881" points="294,40 294,40 299,35 294,30 294,30 294,40 " style="stroke-width:1; stroke:black; fill:white; " id="dummy-13_q17_0_all" class="clusterblast-orf"  />
<polygon locus_tag="SSMG_03393" description="&lt;b&gt;SSMG_03393&lt;/b&gt;&lt;br&gt;CalU8&lt;br&gt;Location: 3693975 - 3694626" points="300,40 302,40 307,35 302,30 300,30 300,40 " style="stroke-width:1; stroke:black; fill:#d81515; " id="dummy-13_q18_0_all" class="clusterblast-orf"  />
<polygon locus_tag="SSMG_03394" description="&lt;b&gt;SSMG_03394&lt;/b&gt;&lt;br&gt;predicted protein&lt;br&gt;Location: 3695111 - 3696059" points="312,40 317,40 322,35 317,30 312,30 312,40 " style="stroke-width:1; stroke:black; fill:white; " id="dummy-13_q19_0_all" class="clusterblast-orf"  />
<polygon locus_tag="SSMG_03395" description="&lt;b&gt;SSMG_03395&lt;/b&gt;&lt;br&gt;FG-GAP repeat-containing protein&lt;br&gt;Location: 3696112 - 3698014" points="323,40 338,40 343,35 338,30 323,30 323,40 " style="stroke-width:1; stroke:black; fill:#4dd815; " id="dummy-13_q20_0_all" class="clusterblast-orf"  />
<polygon locus_tag="SSMG_03396" description="&lt;b&gt;SSMG_03396&lt;/b&gt;&lt;br&gt;UnbU protein&lt;br&gt;Location: 3698010 - 3699000" points="343,40 349,40 354,35 349,30 343,30 343,40 " style="stroke-width:1; stroke:black; fill:#1585d8; " id="dummy-13_q21_0_all" class="clusterblast-orf"  />
<polygon locus_tag="SSMG_03397" description="&lt;b&gt;SSMG_03397&lt;/b&gt;&lt;br&gt;predicted protein&lt;br&gt;Location: 3700172 - 3704279" points="366,40 405,40 410,35 405,30 366,30 366,40 " style="stroke-width:1; stroke:black; fill:white; " id="dummy-13_q22_0_all" class="clusterblast-orf"  />
<polygon locus_tag="SSMG_03398" description="&lt;b&gt;SSMG_03398&lt;/b&gt;&lt;br&gt;TebC protein&lt;br&gt;Location: 3704275 - 3704689" points="410,40 410,40 415,35 410,30 410,30 410,40 " style="stroke-width:1; stroke:black; fill:#a115d8; " id="dummy-13_q23_0_all" class="clusterblast-orf"  />
<polygon locus_tag="SSMG_03399" description="&lt;b&gt;SSMG_03399&lt;/b&gt;&lt;br&gt;predicted protein&lt;br&gt;Location: 3704698 - 3706147" points="415,40 425,40 430,35 425,30 415,30 415,40 " style="stroke-width:1; stroke:black; fill:white; " id="dummy-13_q24_0_all" class="clusterblast-orf"  />
<polygon locus_tag="SSMG_03400" description="&lt;b&gt;SSMG_03400&lt;/b&gt;&lt;br&gt;methionine synthase vitamin-B12 independent&lt;br&gt;Location: 3706143 - 3707229" points="430,40 437,40 442,35 437,30 430,30 430,40 " style="stroke-width:1; stroke:black; fill:#d86915; " id="dummy-13_q25_0_all" class="clusterblast-orf"  />
<polygon locus_tag="SSMG_03401" description="&lt;b&gt;SSMG_03401&lt;/b&gt;&lt;br&gt;CalU12&lt;br&gt;Location: 3707219 - 3707882" points="442,35 447,30 449,30 449,40 447,40 442,35 " style="stroke-width:1; stroke:black; fill:#15d831; " id="dummy-13_q26_0_all" class="clusterblast-orf"  />
<polygon locus_tag="SSMG_03402" description="&lt;b&gt;SSMG_03402&lt;/b&gt;&lt;br&gt;ATP-dependent chaperone ClpB&lt;br&gt;Location: 3708067 - 3710563" points="451,40 473,40 478,35 473,30 451,30 451,40 " style="stroke-width:1; stroke:black; fill:#1531d8; " id="dummy-13_q27_0_all" class="clusterblast-orf"  />
<polygon locus_tag="SSMG_03403" description="&lt;b&gt;SSMG_03403&lt;/b&gt;&lt;br&gt;CalU10&lt;br&gt;Location: 3710746 - 3711949" points="480,40 488,40 493,35 488,30 480,30 480,40 " style="stroke-width:1; stroke:black; fill:#d815bc; " id="dummy-13_q28_0_all" class="clusterblast-orf"  />
<polygon locus_tag="SSMG_03404" description="&lt;b&gt;SSMG_03404&lt;/b&gt;&lt;br&gt;CalE3&lt;br&gt;Location: 3712083 - 3712944" points="494,40 498,40 503,35 498,30 494,30 494,40 " style="stroke-width:1; stroke:black; fill:#d8bc15; " id="dummy-13_q29_0_all" class="clusterblast-orf"  />
<polygon locus_tag="SSMG_03405" description="&lt;b&gt;SSMG_03405&lt;/b&gt;&lt;br&gt;predicted protein&lt;br&gt;Location: 3712943 - 3713582" points="503,40 505,40 510,35 505,30 503,30 503,40 " style="stroke-width:1; stroke:black; fill:white; " id="dummy-13_q30_0_all" class="clusterblast-orf"  />
<polygon locus_tag="SSMG_03406" description="&lt;b&gt;SSMG_03406&lt;/b&gt;&lt;br&gt;CalR9&lt;br&gt;Location: 3713574 - 3714834" points="510,40 518,40 523,35 518,30 510,30 510,40 " style="stroke-width:1; stroke:black; fill:#15d885; " id="dummy-13_q31_0_all" class="clusterblast-orf"  />
<polygon locus_tag="SSMG_03407" description="&lt;b&gt;SSMG_03407&lt;/b&gt;&lt;br&gt;transcriptional regulator&lt;br&gt;Location: 3715094 - 3715925" points="526,40 530,40 535,35 530,30 526,30 526,40 " style="stroke-width:1; stroke:black; fill:white; " id="dummy-13_q32_0_all" class="clusterblast-orf"  />
<polygon locus_tag="SSMG_03408" description="&lt;b&gt;SSMG_03408&lt;/b&gt;&lt;br&gt;predicted protein&lt;br&gt;Location: 3715940 - 3716801" points="535,35 540,30 545,30 545,40 540,40 535,35 " style="stroke-width:1; stroke:black; fill:#4d15d8; " id="dummy-13_q33_0_all" class="clusterblast-orf"  />
<polygon locus_tag="SSMG_03409" description="&lt;b&gt;SSMG_03409&lt;/b&gt;&lt;br&gt;predicted protein&lt;br&gt;Location: 3717072 - 3717516" points="547,40 547,40 552,35 547,30 547,30 547,40 " style="stroke-width:1; stroke:black; fill:white; " id="dummy-13_q34_0_all" class="clusterblast-orf"  />
<polygon locus_tag="SSMG_03410" description="&lt;b&gt;SSMG_03410&lt;/b&gt;&lt;br&gt;predicted protein&lt;br&gt;Location: 3717512 - 3718970" points="552,40 563,40 568,35 563,30 552,30 552,40 " style="stroke-width:1; stroke:black; fill:white; " id="dummy-13_q35_0_all" class="clusterblast-orf"  />
<polygon locus_tag="SSMG_03411" description="&lt;b&gt;SSMG_03411&lt;/b&gt;&lt;br&gt;predicted protein&lt;br&gt;Location: 3718979 - 3720668" points="568,35 573,30 586,30 586,40 573,40 568,35 " style="stroke-width:1; stroke:black; fill:#d81569; " id="dummy-13_q36_0_all" class="clusterblast-orf"  />
<polygon locus_tag="SSMG_03412" description="&lt;b&gt;SSMG_03412&lt;/b&gt;&lt;br&gt;CalE9&lt;br&gt;Location: 3720664 - 3721978" points="586,35 591,30 600,30 600,40 591,40 586,35 " style="stroke-width:1; stroke:black; fill:#a1d815; " id="dummy-13_q37_0_all" class="clusterblast-orf"  />
<polygon locus_tag="SSMG_03413" description="&lt;b&gt;SSMG_03413&lt;/b&gt;&lt;br&gt;CalT6&lt;br&gt;Location: 3722072 - 3723779" points="601,40 614,40 619,35 614,30 601,30 601,40 " style="stroke-width:1; stroke:black; fill:#15d8d8; " id="dummy-13_q38_0_all" class="clusterblast-orf"  />
</g>
<g label="BGC0001060" description="BGC0001060_c1: dynemicin A (5% of genes show similarity), Polyketide" class="clusterblast-cluster"  >
<text class="clusterblast-acc" y="70" x="5"  >
<a xlink:href="https://mibig.secondarymetabolites.org/go/BGC0001060/1" target="_blank">BGC0001060</a>:                                                                      dynemicin A (5% of genes show similarity), Polyketide</text>
<line x1="10" x2="778.0" y2="85" style="stroke-width:1; stroke:grey; " y1="85"  />
</g>
<g id="a13_000"  >
<polygon locus_tag="ACB47031.1" description="&lt;b&gt;ACB47031.1&lt;/b&gt;&lt;br&gt;hypothetical protein&lt;br&gt;Location: 2116 - 3345" points="0,90 8,90 13,85 8,80 0,80 0,90 " style="stroke-width:1; stroke:black; fill:white; " id="dummy-13_h13_4_0" class="clusterblast-orf"  />
</g>
<g id="a13_001"  >
<polygon locus_tag="ACB47032.1" description="&lt;b&gt;ACB47032.1&lt;/b&gt;&lt;br&gt;NTP pyrophosphohydrolase&lt;br&gt;Location: 3364 - 4284" points="13,85 18,80 23,80 23,90 18,90 13,85 " style="stroke-width:1; stroke:black; fill:white; " id="dummy-13_h13_4_1" class="clusterblast-orf"  />
</g>
<g id="a13_002"  >
<polygon locus_tag="ACB47033.1" description="&lt;b&gt;ACB47033.1&lt;/b&gt;&lt;br&gt;hypothetical protein&lt;br&gt;Location: 4478 - 6295" points="25,90 39,90 44,85 39,80 25,80 25,90 " style="stroke-width:1; stroke:black; fill:white; " id="dummy-13_h13_4_2" class="clusterblast-orf"  />
</g>
<g id="a13_003"  >
<polygon locus_tag="ACB47034.1" description="&lt;b&gt;ACB47034.1&lt;/b&gt;&lt;br&gt;hypothetical protein&lt;br&gt;Location: 6369 - 7016" points="45,85 50,80 52,80 52,90 50,90 45,85 " style="stroke-width:1; stroke:black; fill:white; " id="dummy-13_h13_4_3" class="clusterblast-orf"  />
</g>
<g id="a13_004"  >
<polygon locus_tag="ACB47035.1" description="&lt;b&gt;ACB47035.1&lt;/b&gt;&lt;br&gt;GntT-like protein&lt;br&gt;Location: 13044 - 13523" points="117,90 117,90 122,85 117,80 117,80 117,90 " style="stroke-width:1; stroke:black; fill:white; " id="dummy-13_h13_4_4" class="clusterblast-orf"  />
</g>
<g id="a13_005"  >
<polygon locus_tag="ACB47036.1" description="&lt;b&gt;ACB47036.1&lt;/b&gt;&lt;br&gt;TobX-like protein&lt;br&gt;Location: 13423 - 13773" points="121,85 124,80 124,90 121,85 " style="stroke-width:1; stroke:black; fill:white; " id="dummy-13_h13_4_5" class="clusterblast-orf"  />
</g>
<g id="a13_006"  >
<polygon locus_tag="ACB47037.1" description="&lt;b&gt;ACB47037.1&lt;/b&gt;&lt;br&gt;unkown protein&lt;br&gt;Location: 14054 - 14521" points="127,85 132,80 132,80 132,90 132,90 127,85 " style="stroke-width:1; stroke:black; fill:white; " id="dummy-13_h13_4_6" class="clusterblast-orf"  />
</g>
<g id="a13_007"  >
<polygon locus_tag="ACB47038.1" description="&lt;b&gt;ACB47038.1&lt;/b&gt;&lt;br&gt;hypothetical protein&lt;br&gt;Location: 14799 - 15254" points="135,90 135,90 140,85 135,80 135,80 135,90 " style="stroke-width:1; stroke:black; fill:white; " id="dummy-13_h13_4_7" class="clusterblast-orf"  />
</g>
<g id="a13_008"  >
<polygon locus_tag="ACB47039.1" description="&lt;b&gt;ACB47039.1&lt;/b&gt;&lt;br&gt;putative tryptophanyl-tRNA synthetase&lt;br&gt;Location: 15598 - 16656" points="144,90 150,90 155,85 150,80 144,80 144,90 " style="stroke-width:1; stroke:black; fill:white; " id="dummy-13_h13_4_8" class="clusterblast-orf"  />
</g>
<g id="a13_009"  >
<polygon locus_tag="ACB47040.1" description="&lt;b&gt;ACB47040.1&lt;/b&gt;&lt;br&gt;putative class Ic arginyl-tRNA synthetase&lt;br&gt;Location: 16939 - 18657" points="158,90 172,90 177,85 172,80 158,80 158,90 " style="stroke-width:1; stroke:black; fill:white; " id="dummy-13_h13_4_9" class="clusterblast-orf"  />
</g>
<g id="a13_0010"  >
<polygon locus_tag="ACB47041.1" description="&lt;b&gt;ACB47041.1&lt;/b&gt;&lt;br&gt;hypothetical protein&lt;br&gt;Location: 18716 - 19150" points="177,85 182,80 182,80 182,90 182,90 177,85 " style="stroke-width:1; stroke:black; fill:white; " id="dummy-13_h13_4_10" class="clusterblast-orf"  />
</g>
<g id="a13_0011"  >
<polygon locus_tag="ACB47042.1" description="&lt;b&gt;ACB47042.1&lt;/b&gt;&lt;br&gt;putative xanthine/CO dehydrogenases maturation factor&lt;br&gt;Location: 19092 - 20252" points="181,85 186,80 194,80 194,90 186,90 181,85 " style="stroke-width:1; stroke:black; fill:white; " id="dummy-13_h13_4_11" class="clusterblast-orf"  />
</g>
<g id="a13_0012"  >
<polygon locus_tag="ACB47043.1" description="&lt;b&gt;ACB47043.1&lt;/b&gt;&lt;br&gt;hypothetical protein&lt;br&gt;Location: 20194 - 20781" points="193,85 198,80 199,80 199,90 198,90 193,85 " style="stroke-width:1; stroke:black; fill:white; " id="dummy-13_h13_4_12" class="clusterblast-orf"  />
</g>
<g id="a13_0013"  >
<polygon locus_tag="ACB47044.1" description="&lt;b&gt;ACB47044.1&lt;/b&gt;&lt;br&gt;CalR2-like protein&lt;br&gt;Location: 20782 - 22653" points="200,85 205,80 220,80 220,90 205,90 200,85 " style="stroke-width:1; stroke:black; fill:white; " id="dummy-13_h13_4_13" class="clusterblast-orf"  />
</g>
<g id="a13_0014"  >
<polygon locus_tag="ACB47045.1" description="&lt;b&gt;ACB47045.1&lt;/b&gt;&lt;br&gt;DynU15&lt;br&gt;Location: 22855 - 23841" points="222,90 227,90 232,85 227,80 222,80 222,90 " style="stroke-width:1; stroke:black; fill:white; " id="dummy-13_h13_4_14" class="clusterblast-orf"  />
</g>
<g id="a13_0015"  >
<polygon locus_tag="ACB47046.1" description="&lt;b&gt;ACB47046.1&lt;/b&gt;&lt;br&gt;DynU14&lt;br&gt;Location: 23898 - 25796&lt;br&gt;&lt;br&gt;&lt;b&gt;BlastP hit with SSMG_03395&lt;/b&gt;&lt;br&gt;Percentage identity: 52&lt;br&gt;Percentage coverage: 99&lt;br&gt;BLAST bit score: 610&lt;br&gt;E-value: 3.5e-174" points="233,90 248,90 253,85 248,80 233,80 233,90 " style="stroke-width:1; stroke:black; fill:#4dd815; " id="dummy-13_h13_4_15" class="clusterblast-orf"  />
</g>
<g id="a13_0016"  >
<polygon locus_tag="ACB47047.1" description="&lt;b&gt;ACB47047.1&lt;/b&gt;&lt;br&gt;DynT3&lt;br&gt;Location: 25826 - 26815&lt;br&gt;&lt;br&gt;&lt;b&gt;BlastP hit with SSMG_03396&lt;/b&gt;&lt;br&gt;Percentage identity: 59&lt;br&gt;Percentage coverage: 82&lt;br&gt;BLAST bit score: 312&lt;br&gt;E-value: 1e-84" points="254,90 259,90 264,85 259,80 254,80 254,90 " style="stroke-width:1; stroke:black; fill:#1585d8; " id="dummy-13_h13_4_16" class="clusterblast-orf"  />
</g>
<g id="a13_0017"  >
<polygon locus_tag="ACB47048.1" description="&lt;b&gt;ACB47048.1&lt;/b&gt;&lt;br&gt;DynE8&lt;br&gt;Location: 26849 - 32551" points="265,90 321,90 326,85 321,80 265,80 265,90 " style="stroke-width:1; stroke:black; fill:white; " id="dummy-13_h13_4_17" class="clusterblast-orf"  />
</g>
<g id="a13_0018"  >
<polygon locus_tag="ACB47049.1" description="&lt;b&gt;ACB47049.1&lt;/b&gt;&lt;br&gt;DynE7&lt;br&gt;Location: 32556 - 32990&lt;br&gt;&lt;br&gt;&lt;b&gt;BlastP hit with SSMG_03398&lt;/b&gt;&lt;br&gt;Percentage identity: 57&lt;br&gt;Percentage coverage: 102&lt;br&gt;BLAST bit score: 157&lt;br&gt;E-value: 1.4e-38" points="326,90 330,85 326,80 326,90 " style="stroke-width:1; stroke:black; fill:#a115d8; " id="dummy-13_h13_4_18" class="clusterblast-orf"  />
</g>
<g id="a13_0019"  >
<polygon locus_tag="ACB47050.1" description="&lt;b&gt;ACB47050.1&lt;/b&gt;&lt;br&gt;DynS6&lt;br&gt;Location: 32987 - 33646" points="330,90 332,90 337,85 332,80 330,80 330,90 " style="stroke-width:1; stroke:black; fill:white; " id="dummy-13_h13_4_19" class="clusterblast-orf"  />
</g>
<g id="a13_0020"  >
<polygon locus_tag="ACB47051.1" description="&lt;b&gt;ACB47051.1&lt;/b&gt;&lt;br&gt;DynU8&lt;br&gt;Location: 33652 - 34326" points="337,85 342,80 345,80 345,90 342,90 337,85 " style="stroke-width:1; stroke:black; fill:white; " id="dummy-13_h13_4_20" class="clusterblast-orf"  />
</g>
<g id="a13_0021"  >
<polygon locus_tag="ACB47052.1" description="&lt;b&gt;ACB47052.1&lt;/b&gt;&lt;br&gt;DynU6&lt;br&gt;Location: 34396 - 35319" points="345,90 350,90 355,85 350,80 345,80 345,90 " style="stroke-width:1; stroke:black; fill:white; " id="dummy-13_h13_4_21" class="clusterblast-orf"  />
</g>
<g id="a13_0022"  >
<polygon locus_tag="ACB47053.1" description="&lt;b&gt;ACB47053.1&lt;/b&gt;&lt;br&gt;DynR2&lt;br&gt;Location: 35283 - 37166" points="355,85 360,80 375,80 375,90 360,90 355,85 " style="stroke-width:1; stroke:black; fill:white; " id="dummy-13_h13_4_22" class="clusterblast-orf"  />
</g>
<g id="a13_0023"  >
<polygon locus_tag="ACB47054.1" description="&lt;b&gt;ACB47054.1&lt;/b&gt;&lt;br&gt;DynR3&lt;br&gt;Location: 37274 - 38638" points="376,90 386,90 391,85 386,80 376,80 376,90 " style="stroke-width:1; stroke:black; fill:white; " id="dummy-13_h13_4_23" class="clusterblast-orf"  />
</g>
<g id="a13_0024"  >
<polygon locus_tag="ACB47055.1" description="&lt;b&gt;ACB47055.1&lt;/b&gt;&lt;br&gt;DynU21&lt;br&gt;Location: 38660 - 39226" points="391,90 392,90 397,85 392,80 391,80 391,90 " style="stroke-width:1; stroke:black; fill:white; " id="dummy-13_h13_4_24" class="clusterblast-orf"  />
</g>
<g id="a13_0025"  >
<polygon locus_tag="ACB47056.1" description="&lt;b&gt;ACB47056.1&lt;/b&gt;&lt;br&gt;unkown protein&lt;br&gt;Location: 39223 - 39798" points="397,90 398,90 403,85 398,80 397,80 397,90 " style="stroke-width:1; stroke:black; fill:white; " id="dummy-13_h13_4_25" class="clusterblast-orf"  />
</g>
<g id="a13_0026"  >
<polygon locus_tag="ACB47057.1" description="&lt;b&gt;ACB47057.1&lt;/b&gt;&lt;br&gt;unkown protein&lt;br&gt;Location: 39828 - 41045" points="404,85 409,80 417,80 417,90 409,90 404,85 " style="stroke-width:1; stroke:black; fill:white; " id="dummy-13_h13_4_26" class="clusterblast-orf"  />
</g>
<g id="a13_0027"  >
<polygon locus_tag="ACB47058.1" description="&lt;b&gt;ACB47058.1&lt;/b&gt;&lt;br&gt;unkown protein&lt;br&gt;Location: 41055 - 41687" points="417,85 422,80 424,80 424,90 422,90 417,85 " style="stroke-width:1; stroke:black; fill:white; " id="dummy-13_h13_4_27" class="clusterblast-orf"  />
</g>
<g id="a13_0028"  >
<polygon locus_tag="ACB47059.1" description="&lt;b&gt;ACB47059.1&lt;/b&gt;&lt;br&gt;PBS lyase HEAT-like repeat protein&lt;br&gt;Location: 41709 - 43034" points="424,85 429,80 438,80 438,90 429,90 424,85 " style="stroke-width:1; stroke:black; fill:white; " id="dummy-13_h13_4_28" class="clusterblast-orf"  />
</g>
<g id="a13_0029"  >
<polygon locus_tag="ACB47060.1" description="&lt;b&gt;ACB47060.1&lt;/b&gt;&lt;br&gt;ketone reductase&lt;br&gt;Location: 43124 - 44674" points="439,90 451,90 456,85 451,80 439,80 439,90 " style="stroke-width:1; stroke:black; fill:white; " id="dummy-13_h13_4_29" class="clusterblast-orf"  />
</g>
<g id="a13_0030"  >
<polygon locus_tag="ACB47061.1" description="&lt;b&gt;ACB47061.1&lt;/b&gt;&lt;br&gt;unkown protein&lt;br&gt;Location: 44713 - 45564" points="456,90 460,90 465,85 460,80 456,80 456,90 " style="stroke-width:1; stroke:black; fill:white; " id="dummy-13_h13_4_30" class="clusterblast-orf"  />
</g>
<g id="a13_0031"  >
<polygon locus_tag="ACB47062.1" description="&lt;b&gt;ACB47062.1&lt;/b&gt;&lt;br&gt;DynR7&lt;br&gt;Location: 45570 - 46421" points="465,90 469,90 474,85 469,80 465,80 465,90 " style="stroke-width:1; stroke:black; fill:white; " id="dummy-13_h13_4_31" class="clusterblast-orf"  />
</g>
<g id="a13_0032"  >
<polygon locus_tag="ACB47063.1" description="&lt;b&gt;ACB47063.1&lt;/b&gt;&lt;br&gt;hypothetical protein&lt;br&gt;Location: 46468 - 47724" points="475,85 480,80 488,80 488,90 480,90 475,85 " style="stroke-width:1; stroke:black; fill:white; " id="dummy-13_h13_4_32" class="clusterblast-orf"  />
</g>
<g id="a13_0033"  >
<polygon locus_tag="ACB47064.1" description="&lt;b&gt;ACB47064.1&lt;/b&gt;&lt;br&gt;FAD-dependent oxidoreductase&lt;br&gt;Location: 47735 - 48871" points="488,85 493,80 500,80 500,90 493,90 488,85 " style="stroke-width:1; stroke:black; fill:white; " id="dummy-13_h13_4_33" class="clusterblast-orf"  />
</g>
<g id="a13_0034"  >
<polygon locus_tag="ACB47065.1" description="&lt;b&gt;ACB47065.1&lt;/b&gt;&lt;br&gt;putative hydroxylase&lt;br&gt;Location: 49086 - 49514" points="503,90 507,85 503,80 503,90 " style="stroke-width:1; stroke:black; fill:white; " id="dummy-13_h13_4_34" class="clusterblast-orf"  />
</g>
<g id="a13_0035"  >
<polygon locus_tag="ACB47066.1" description="&lt;b&gt;ACB47066.1&lt;/b&gt;&lt;br&gt;putative hydroxylase&lt;br&gt;Location: 49551 - 50054" points="508,90 508,90 513,85 508,80 508,80 508,90 " style="stroke-width:1; stroke:black; fill:white; " id="dummy-13_h13_4_35" class="clusterblast-orf"  />
</g>
<g id="a13_0036"  >
<polygon locus_tag="ACB47067.1" description="&lt;b&gt;ACB47067.1&lt;/b&gt;&lt;br&gt;conserved hypothetical protein&lt;br&gt;Location: 50182 - 51078" points="515,85 520,80 524,80 524,90 520,90 515,85 " style="stroke-width:1; stroke:black; fill:white; " id="dummy-13_h13_4_36" class="clusterblast-orf"  />
</g>
<g id="a13_0037"  >
<polygon locus_tag="ACB47068.1" description="&lt;b&gt;ACB47068.1&lt;/b&gt;&lt;br&gt;putative secreted hydrolase&lt;br&gt;Location: 51075 - 52604" points="524,85 529,80 540,80 540,90 529,90 524,85 " style="stroke-width:1; stroke:black; fill:white; " id="dummy-13_h13_4_37" class="clusterblast-orf"  />
</g>
<g id="a13_0038"  >
<polygon locus_tag="ACB47069.1" description="&lt;b&gt;ACB47069.1&lt;/b&gt;&lt;br&gt;putative methyltransferase&lt;br&gt;Location: 52523 - 53635" points="540,85 545,80 552,80 552,90 545,90 540,85 " style="stroke-width:1; stroke:black; fill:white; " id="dummy-13_h13_4_38" class="clusterblast-orf"  />
</g>
<g id="a13_0039"  >
<polygon locus_tag="ACB47070.1" description="&lt;b&gt;ACB47070.1&lt;/b&gt;&lt;br&gt;putative cytochrome P450 hydroxylase&lt;br&gt;Location: 53691 - 54902" points="552,85 557,80 565,80 565,90 557,90 552,85 " style="stroke-width:1; stroke:black; fill:white; " id="dummy-13_h13_4_39" class="clusterblast-orf"  />
</g>
<g id="a13_0040"  >
<polygon locus_tag="ACB47071.1" description="&lt;b&gt;ACB47071.1&lt;/b&gt;&lt;br&gt;putative cytochrome P450 hydroxylase&lt;br&gt;Location: 54945 - 56147" points="566,85 571,80 578,80 578,90 571,90 566,85 " style="stroke-width:1; stroke:black; fill:white; " id="dummy-13_h13_4_40" class="clusterblast-orf"  />
</g>
<g id="a13_0041"  >
<polygon locus_tag="ACB47072.1" description="&lt;b&gt;ACB47072.1&lt;/b&gt;&lt;br&gt;hypothetical protein&lt;br&gt;Location: 56283 - 56723" points="580,85 585,80 585,80 585,90 585,90 580,85 " style="stroke-width:1; stroke:black; fill:white; " id="dummy-13_h13_4_41" class="clusterblast-orf"  />
</g>
<g id="a13_0042"  >
<polygon locus_tag="ACB47073.1" description="&lt;b&gt;ACB47073.1&lt;/b&gt;&lt;br&gt;putative transcriptional regulator&lt;br&gt;Location: 56720 - 57064" points="585,85 588,80 588,90 585,85 " style="stroke-width:1; stroke:black; fill:white; " id="dummy-13_h13_4_42" class="clusterblast-orf"  />
</g>
<g id="a13_0043"  >
<polygon locus_tag="ACB47074.1" description="&lt;b&gt;ACB47074.1&lt;/b&gt;&lt;br&gt;hypothetical protein&lt;br&gt;Location: 57068 - 57439" points="588,85 592,80 592,90 588,85 " style="stroke-width:1; stroke:black; fill:white; " id="dummy-13_h13_4_43" class="clusterblast-orf"  />
</g>
<g id="a13_0044"  >
<polygon locus_tag="ACB47075.1" description="&lt;b&gt;ACB47075.1&lt;/b&gt;&lt;br&gt;putative integral membrane transport protein&lt;br&gt;Location: 57582 - 58391" points="594,85 599,80 602,80 602,90 599,90 594,85 " style="stroke-width:1; stroke:black; fill:white; " id="dummy-13_h13_4_44" class="clusterblast-orf"  />
</g>
<g id="a13_0045"  >
<polygon locus_tag="ACB47076.1" description="&lt;b&gt;ACB47076.1&lt;/b&gt;&lt;br&gt;DynT5&lt;br&gt;Location: 58388 - 59389" points="602,85 607,80 613,80 613,90 607,90 602,85 " style="stroke-width:1; stroke:black; fill:white; " id="dummy-13_h13_4_45" class="clusterblast-orf"  />
</g>
<g id="a13_0046"  >
<polygon locus_tag="ACB47077.1" description="&lt;b&gt;ACB47077.1&lt;/b&gt;&lt;br&gt;hypothetical protein&lt;br&gt;Location: 59513 - 59884" points="615,85 618,80 618,90 615,85 " style="stroke-width:1; stroke:black; fill:white; " id="dummy-13_h13_4_46" class="clusterblast-orf"  />
</g>
<g id="a13_0047"  >
<polygon locus_tag="ACB47078.1" description="&lt;b&gt;ACB47078.1&lt;/b&gt;&lt;br&gt;putative carbon monoxide dehydrogenase large subunit&lt;br&gt;Location: 59911 - 62271" points="619,85 624,80 644,80 644,90 624,90 619,85 " style="stroke-width:1; stroke:black; fill:white; " id="dummy-13_h13_4_47" class="clusterblast-orf"  />
</g>
<g id="a13_0048"  >
<polygon locus_tag="ACB47079.1" description="&lt;b&gt;ACB47079.1&lt;/b&gt;&lt;br&gt;putative carbon monoxide dehydrogenase small subunit&lt;br&gt;Location: 62268 - 62762" points="644,85 649,80 649,80 649,90 649,90 644,85 " style="stroke-width:1; stroke:black; fill:white; " id="dummy-13_h13_4_48" class="clusterblast-orf"  />
</g>
<g id="a13_0049"  >
<polygon locus_tag="ACB47080.1" description="&lt;b&gt;ACB47080.1&lt;/b&gt;&lt;br&gt;putative carbon monoxide dehydrogenase medium subunit&lt;br&gt;Location: 62778 - 63656" points="649,85 654,80 659,80 659,90 654,90 649,85 " style="stroke-width:1; stroke:black; fill:white; " id="dummy-13_h13_4_49" class="clusterblast-orf"  />
</g>
<g id="a13_0050"  >
<polygon locus_tag="ACB47081.1" description="&lt;b&gt;ACB47081.1&lt;/b&gt;&lt;br&gt;DynO6&lt;br&gt;Location: 63682 - 64731" points="659,85 664,80 670,80 670,90 664,90 659,85 " style="stroke-width:1; stroke:black; fill:white; " id="dummy-13_h13_4_50" class="clusterblast-orf"  />
</g>
<g id="a13_0051"  >
<polygon locus_tag="ACB47082.1" description="&lt;b&gt;ACB47082.1&lt;/b&gt;&lt;br&gt;putative transmembrane transport protein&lt;br&gt;Location: 64871 - 65890" points="672,85 677,80 683,80 683,90 677,90 672,85 " style="stroke-width:1; stroke:black; fill:white; " id="dummy-13_h13_4_51" class="clusterblast-orf"  />
</g>
<g id="a13_0052"  >
<polygon locus_tag="ACB47083.1" description="&lt;b&gt;ACB47083.1&lt;/b&gt;&lt;br&gt;putative ABC transporter ATP-binding protein&lt;br&gt;Location: 65887 - 66804" points="683,85 688,80 693,80 693,90 688,90 683,85 " style="stroke-width:1; stroke:black; fill:white; " id="dummy-13_h13_4_52" class="clusterblast-orf"  />
</g>
<g id="a13_0053"  >
<polygon locus_tag="ACB47084.1" description="&lt;b&gt;ACB47084.1&lt;/b&gt;&lt;br&gt;putative transmembrane transport protein&lt;br&gt;Location: 66977 - 67972" points="694,85 699,80 705,80 705,90 699,90 694,85 " style="stroke-width:1; stroke:black; fill:white; " id="dummy-13_h13_4_53" class="clusterblast-orf"  />
</g>
<g id="a13_0054"  >
<polygon locus_tag="ACB47085.1" description="&lt;b&gt;ACB47085.1&lt;/b&gt;&lt;br&gt;putative 2-component system sensor kinase&lt;br&gt;Location: 68128 - 68697" points="707,90 708,90 713,85 708,80 707,80 707,90 " style="stroke-width:1; stroke:black; fill:white; " id="dummy-13_h13_4_54" class="clusterblast-orf"  />
</g>
<g id="a13_0055"  >
<polygon locus_tag="ACB47086.1" description="&lt;b&gt;ACB47086.1&lt;/b&gt;&lt;br&gt;hypothetical protein&lt;br&gt;Location: 68795 - 69451" points="714,90 716,90 721,85 716,80 714,80 714,90 " style="stroke-width:1; stroke:black; fill:white; " id="dummy-13_h13_4_55" class="clusterblast-orf"  />
</g>
<g id="a13_0056"  >
<polygon locus_tag="ACB47087.1" description="&lt;b&gt;ACB47087.1&lt;/b&gt;&lt;br&gt;hypothetical protein&lt;br&gt;Location: 69668 - 70093" points="723,90 723,90 728,85 723,80 723,80 723,90 " style="stroke-width:1; stroke:black; fill:white; " id="dummy-13_h13_4_56" class="clusterblast-orf"  />
</g>
<g id="a13_0057"  >
<polygon locus_tag="ACB47088.1" description="&lt;b&gt;ACB47088.1&lt;/b&gt;&lt;br&gt;unkown protein&lt;br&gt;Location: 70161 - 70586" points="729,90 733,85 729,80 729,90 " style="stroke-width:1; stroke:black; fill:white; " id="dummy-13_h13_4_57" class="clusterblast-orf"  />
</g>
<g id="a13_0058"  >
<polygon locus_tag="ACB47089.1" description="&lt;b&gt;ACB47089.1&lt;/b&gt;&lt;br&gt;type I site-specific deoxyribonuclease protein R&lt;br&gt;Location: 71495 - 74911" points="743,85 748,80 780,80 780,90 748,90 743,85 " style="stroke-width:1; stroke:black; fill:white; " id="dummy-13_h13_4_58" class="clusterblast-orf"  />
</g>
</svg>
