<svg version="1.1" xmlns="http://www.w3.org/2000/svg" height="230" width="800" xmlns:xlink="http://www.w3.org/1999/xlink" preserveAspectRatio="none" x="0" y="0" viewBox="0 0 800 230"  >
<g label="Query sequence" class="clusterblast-cluster"  >
<text class="clusterblast-acc" y="20" x="5"  >
Query sequence</text>
<line x1="10" x2="778.0" y2="35" style="stroke-width:1; stroke:grey; " y1="35"  />
<polygon locus_tag="SSMG_03375" description="&lt;b&gt;SSMG_03375&lt;/b&gt;&lt;br&gt;predicted protein&lt;br&gt;Location: 3680898 - 3681750" points="193,40 196,40 201,35 196,30 193,30 193,40 " style="stroke-width:1; stroke:black; fill:white; " id="dummy-13_q0_0_all" class="clusterblast-orf"  />
<polygon locus_tag="SSMG_03376" description="&lt;b&gt;SSMG_03376&lt;/b&gt;&lt;br&gt;predicted protein&lt;br&gt;Location: 3681823 - 3683095" points="201,35 206,30 213,30 213,40 206,40 201,35 " style="stroke-width:1; stroke:black; fill:white; " id="dummy-13_q1_0_all" class="clusterblast-orf"  />
<polygon locus_tag="SSMG_03377" description="&lt;b&gt;SSMG_03377&lt;/b&gt;&lt;br&gt;ECF sub family sigma-70 factor&lt;br&gt;Location: 3683266 - 3683791" points="215,40 219,35 215,30 215,40 " style="stroke-width:1; stroke:black; fill:white; " id="dummy-13_q2_0_all" class="clusterblast-orf"  />
<polygon locus_tag="SSMG_03378" description="&lt;b&gt;SSMG_03378&lt;/b&gt;&lt;br&gt;predicted protein&lt;br&gt;Location: 3683787 - 3684474" points="219,40 221,40 226,35 221,30 219,30 219,40 " style="stroke-width:1; stroke:black; fill:white; " id="dummy-13_q3_0_all" class="clusterblast-orf"  />
<polygon locus_tag="SSMG_03379" description="&lt;b&gt;SSMG_03379&lt;/b&gt;&lt;br&gt;predicted protein&lt;br&gt;Location: 3684512 - 3684920" points="226,40 230,35 226,30 226,40 " style="stroke-width:1; stroke:black; fill:white; " id="dummy-13_q4_0_all" class="clusterblast-orf"  />
<polygon locus_tag="SSMG_03380" description="&lt;b&gt;SSMG_03380&lt;/b&gt;&lt;br&gt;metallophosphoesterase&lt;br&gt;Location: 3684916 - 3685855" points="230,40 233,40 238,35 233,30 230,30 230,40 " style="stroke-width:1; stroke:black; fill:white; " id="dummy-13_q5_0_all" class="clusterblast-orf"  />
<polygon locus_tag="SSMG_03381" description="&lt;b&gt;SSMG_03381&lt;/b&gt;&lt;br&gt;predicted protein&lt;br&gt;Location: 3685851 - 3686256" points="238,40 242,35 238,30 238,40 " style="stroke-width:1; stroke:black; fill:white; " id="dummy-13_q6_0_all" class="clusterblast-orf"  />
<polygon locus_tag="SSMG_03382" description="&lt;b&gt;SSMG_03382&lt;/b&gt;&lt;br&gt;transcriptional regulator&lt;br&gt;Location: 3686293 - 3686932" points="242,35 247,30 248,30 248,40 247,40 242,35 " style="stroke-width:1; stroke:black; fill:white; " id="dummy-13_q7_0_all" class="clusterblast-orf"  />
<polygon locus_tag="SSMG_03383" description="&lt;b&gt;SSMG_03383&lt;/b&gt;&lt;br&gt;conserved hypothetical protein&lt;br&gt;Location: 3686936 - 3687500" points="248,35 253,30 253,30 253,40 253,40 248,35 " style="stroke-width:1; stroke:black; fill:white; " id="dummy-13_q8_0_all" class="clusterblast-orf"  />
<polygon locus_tag="SSMG_03384" description="&lt;b&gt;SSMG_03384&lt;/b&gt;&lt;br&gt;predicted protein&lt;br&gt;Location: 3687873 - 3688647" points="257,35 262,30 264,30 264,40 262,40 257,35 " style="stroke-width:1; stroke:black; fill:white; " id="dummy-13_q9_0_all" class="clusterblast-orf"  />
<polygon locus_tag="SSMG_03385" description="&lt;b&gt;SSMG_03385&lt;/b&gt;&lt;br&gt;predicted protein&lt;br&gt;Location: 3688668 - 3689325" points="264,35 269,30 270,30 270,40 269,40 264,35 " style="stroke-width:1; stroke:black; fill:white; " id="dummy-13_q10_0_all" class="clusterblast-orf"  />
<polygon locus_tag="SSMG_03386" description="&lt;b&gt;SSMG_03386&lt;/b&gt;&lt;br&gt;predicted protein&lt;br&gt;Location: 3689568 - 3689937" points="272,35 276,30 276,40 272,35 " style="stroke-width:1; stroke:black; fill:white; " id="dummy-13_q11_0_all" class="clusterblast-orf"  />
<polygon locus_tag="SSMG_03387" description="&lt;b&gt;SSMG_03387&lt;/b&gt;&lt;br&gt;conserved hypothetical protein&lt;br&gt;Location: 3689917 - 3690343" points="276,35 280,30 280,40 276,35 " style="stroke-width:1; stroke:black; fill:white; " id="dummy-13_q12_0_all" class="clusterblast-orf"  />
<polygon locus_tag="SSMG_03388" description="&lt;b&gt;SSMG_03388&lt;/b&gt;&lt;br&gt;short chain dehydrogenase&lt;br&gt;Location: 3690377 - 3691079" points="280,35 285,30 286,30 286,40 285,40 280,35 " style="stroke-width:1; stroke:black; fill:white; " id="dummy-13_q13_0_all" class="clusterblast-orf"  />
<polygon locus_tag="SSMG_03389" description="&lt;b&gt;SSMG_03389&lt;/b&gt;&lt;br&gt;conserved hypothetical protein&lt;br&gt;Location: 3691165 - 3691654" points="287,40 287,40 292,35 287,30 287,30 287,40 " style="stroke-width:1; stroke:black; fill:white; " id="dummy-13_q14_0_all" class="clusterblast-orf"  />
<polygon locus_tag="SSMG_03390" description="&lt;b&gt;SSMG_03390&lt;/b&gt;&lt;br&gt;acetyl-CoA C-acyltransferase FadA&lt;br&gt;Location: 3691709 - 3692876" points="292,35 297,30 303,30 303,40 297,40 292,35 " style="stroke-width:1; stroke:black; fill:white; " id="dummy-13_q15_0_all" class="clusterblast-orf"  />
<polygon locus_tag="SSMG_03391" description="&lt;b&gt;SSMG_03391&lt;/b&gt;&lt;br&gt;transcriptional regulator&lt;br&gt;Location: 3692998 - 3693439" points="304,40 308,35 304,30 304,40 " style="stroke-width:1; stroke:black; fill:white; " id="dummy-13_q16_0_all" class="clusterblast-orf"  />
<polygon locus_tag="SSMG_03392" description="&lt;b&gt;SSMG_03392&lt;/b&gt;&lt;br&gt;predicted protein&lt;br&gt;Location: 3693425 - 3693881" points="308,40 312,35 308,30 308,40 " style="stroke-width:1; stroke:black; fill:white; " id="dummy-13_q17_0_all" class="clusterblast-orf"  />
<polygon locus_tag="SSMG_03393" description="&lt;b&gt;SSMG_03393&lt;/b&gt;&lt;br&gt;CalU8&lt;br&gt;Location: 3693975 - 3694626" points="313,40 314,40 319,35 314,30 313,30 313,40 " style="stroke-width:1; stroke:black; fill:#d81515; " id="dummy-13_q18_0_all" class="clusterblast-orf"  />
<polygon locus_tag="SSMG_03394" description="&lt;b&gt;SSMG_03394&lt;/b&gt;&lt;br&gt;predicted protein&lt;br&gt;Location: 3695111 - 3696059" points="323,40 327,40 332,35 327,30 323,30 323,40 " style="stroke-width:1; stroke:black; fill:white; " id="dummy-13_q19_0_all" class="clusterblast-orf"  />
<polygon locus_tag="SSMG_03395" description="&lt;b&gt;SSMG_03395&lt;/b&gt;&lt;br&gt;FG-GAP repeat-containing protein&lt;br&gt;Location: 3696112 - 3698014" points="332,40 345,40 350,35 345,30 332,30 332,40 " style="stroke-width:1; stroke:black; fill:#4dd815; " id="dummy-13_q20_0_all" class="clusterblast-orf"  />
<polygon locus_tag="SSMG_03396" description="&lt;b&gt;SSMG_03396&lt;/b&gt;&lt;br&gt;UnbU protein&lt;br&gt;Location: 3698010 - 3699000" points="350,40 354,40 359,35 354,30 350,30 350,40 " style="stroke-width:1; stroke:black; fill:#1585d8; " id="dummy-13_q21_0_all" class="clusterblast-orf"  />
<polygon locus_tag="SSMG_03397" description="&lt;b&gt;SSMG_03397&lt;/b&gt;&lt;br&gt;predicted protein&lt;br&gt;Location: 3700172 - 3704279" points="370,40 402,40 407,35 402,30 370,30 370,40 " style="stroke-width:1; stroke:black; fill:white; " id="dummy-13_q22_0_all" class="clusterblast-orf"  />
<polygon locus_tag="SSMG_03398" description="&lt;b&gt;SSMG_03398&lt;/b&gt;&lt;br&gt;TebC protein&lt;br&gt;Location: 3704275 - 3704689" points="407,40 411,35 407,30 407,40 " style="stroke-width:1; stroke:black; fill:#a115d8; " id="dummy-13_q23_0_all" class="clusterblast-orf"  />
<polygon locus_tag="SSMG_03399" description="&lt;b&gt;SSMG_03399&lt;/b&gt;&lt;br&gt;predicted protein&lt;br&gt;Location: 3704698 - 3706147" points="411,40 420,40 425,35 420,30 411,30 411,40 " style="stroke-width:1; stroke:black; fill:white; " id="dummy-13_q24_0_all" class="clusterblast-orf"  />
<polygon locus_tag="SSMG_03400" description="&lt;b&gt;SSMG_03400&lt;/b&gt;&lt;br&gt;methionine synthase vitamin-B12 independent&lt;br&gt;Location: 3706143 - 3707229" points="424,40 429,40 434,35 429,30 424,30 424,40 " style="stroke-width:1; stroke:black; fill:#d86915; " id="dummy-13_q25_0_all" class="clusterblast-orf"  />
<polygon locus_tag="SSMG_03401" description="&lt;b&gt;SSMG_03401&lt;/b&gt;&lt;br&gt;CalU12&lt;br&gt;Location: 3707219 - 3707882" points="434,35 439,30 440,30 440,40 439,40 434,35 " style="stroke-width:1; stroke:black; fill:#15d831; " id="dummy-13_q26_0_all" class="clusterblast-orf"  />
<polygon locus_tag="SSMG_03402" description="&lt;b&gt;SSMG_03402&lt;/b&gt;&lt;br&gt;ATP-dependent chaperone ClpB&lt;br&gt;Location: 3708067 - 3710563" points="442,40 460,40 465,35 460,30 442,30 442,40 " style="stroke-width:1; stroke:black; fill:#1531d8; " id="dummy-13_q27_0_all" class="clusterblast-orf"  />
<polygon locus_tag="SSMG_03403" description="&lt;b&gt;SSMG_03403&lt;/b&gt;&lt;br&gt;CalU10&lt;br&gt;Location: 3710746 - 3711949" points="467,40 473,40 478,35 473,30 467,30 467,40 " style="stroke-width:1; stroke:black; fill:#d815bc; " id="dummy-13_q28_0_all" class="clusterblast-orf"  />
<polygon locus_tag="SSMG_03404" description="&lt;b&gt;SSMG_03404&lt;/b&gt;&lt;br&gt;CalE3&lt;br&gt;Location: 3712083 - 3712944" points="479,40 482,40 487,35 482,30 479,30 479,40 " style="stroke-width:1; stroke:black; fill:#d8bc15; " id="dummy-13_q29_0_all" class="clusterblast-orf"  />
<polygon locus_tag="SSMG_03405" description="&lt;b&gt;SSMG_03405&lt;/b&gt;&lt;br&gt;predicted protein&lt;br&gt;Location: 3712943 - 3713582" points="487,40 488,40 493,35 488,30 487,30 487,40 " style="stroke-width:1; stroke:black; fill:white; " id="dummy-13_q30_0_all" class="clusterblast-orf"  />
<polygon locus_tag="SSMG_03406" description="&lt;b&gt;SSMG_03406&lt;/b&gt;&lt;br&gt;CalR9&lt;br&gt;Location: 3713574 - 3714834" points="493,40 499,40 504,35 499,30 493,30 493,40 " style="stroke-width:1; stroke:black; fill:#15d885; " id="dummy-13_q31_0_all" class="clusterblast-orf"  />
<polygon locus_tag="SSMG_03407" description="&lt;b&gt;SSMG_03407&lt;/b&gt;&lt;br&gt;transcriptional regulator&lt;br&gt;Location: 3715094 - 3715925" points="507,40 509,40 514,35 509,30 507,30 507,40 " style="stroke-width:1; stroke:black; fill:white; " id="dummy-13_q32_0_all" class="clusterblast-orf"  />
<polygon locus_tag="SSMG_03408" description="&lt;b&gt;SSMG_03408&lt;/b&gt;&lt;br&gt;predicted protein&lt;br&gt;Location: 3715940 - 3716801" points="514,35 519,30 522,30 522,40 519,40 514,35 " style="stroke-width:1; stroke:black; fill:#4d15d8; " id="dummy-13_q33_0_all" class="clusterblast-orf"  />
<polygon locus_tag="SSMG_03409" description="&lt;b&gt;SSMG_03409&lt;/b&gt;&lt;br&gt;predicted protein&lt;br&gt;Location: 3717072 - 3717516" points="525,40 529,35 525,30 525,40 " style="stroke-width:1; stroke:black; fill:white; " id="dummy-13_q34_0_all" class="clusterblast-orf"  />
<polygon locus_tag="SSMG_03410" description="&lt;b&gt;SSMG_03410&lt;/b&gt;&lt;br&gt;predicted protein&lt;br&gt;Location: 3717512 - 3718970" points="529,40 537,40 542,35 537,30 529,30 529,40 " style="stroke-width:1; stroke:black; fill:white; " id="dummy-13_q35_0_all" class="clusterblast-orf"  />
<polygon locus_tag="SSMG_03411" description="&lt;b&gt;SSMG_03411&lt;/b&gt;&lt;br&gt;predicted protein&lt;br&gt;Location: 3718979 - 3720668" points="542,35 547,30 558,30 558,40 547,40 542,35 " style="stroke-width:1; stroke:black; fill:#d81569; " id="dummy-13_q36_0_all" class="clusterblast-orf"  />
<polygon locus_tag="SSMG_03412" description="&lt;b&gt;SSMG_03412&lt;/b&gt;&lt;br&gt;CalE9&lt;br&gt;Location: 3720664 - 3721978" points="558,35 563,30 570,30 570,40 563,40 558,35 " style="stroke-width:1; stroke:black; fill:#a1d815; " id="dummy-13_q37_0_all" class="clusterblast-orf"  />
<polygon locus_tag="SSMG_03413" description="&lt;b&gt;SSMG_03413&lt;/b&gt;&lt;br&gt;CalT6&lt;br&gt;Location: 3722072 - 3723779" points="571,40 581,40 586,35 581,30 571,30 571,40 " style="stroke-width:1; stroke:black; fill:#15d8d8; " id="dummy-13_q38_0_all" class="clusterblast-orf"  />
</g>
<g label="BGC0000965" description="BGC0000965_c1: C-1027 (3% of genes show similarity), Polyketide:Iterative type I + Polyketide:Enediyne type I" class="clusterblast-cluster"  >
<text class="clusterblast-acc" y="70" x="5"  >
<a xlink:href="https://mibig.secondarymetabolites.org/go/BGC0000965/1" target="_blank">BGC0000965</a>:                                                                           C-1027 (3% of genes show similarity), Polyketide:Iterative type I + Polyketide:Enediyne type I</text>
<line x1="10" x2="778.0" y2="85" style="stroke-width:1; stroke:grey; " y1="85"  />
</g>
<g id="a13_000"  >
<polygon locus_tag="AAL06713.1" description="&lt;b&gt;AAL06713.1&lt;/b&gt;&lt;br&gt;putative primase/helicase-like protein&lt;br&gt;Location: 85045 - 83510" points="0,90 9,90 14,85 9,80 0,80 0,90 " style="stroke-width:1; stroke:black; fill:white; " id="dummy-13_h13_7_0" class="clusterblast-orf"  />
</g>
<g id="a13_001"  >
<polygon locus_tag="AAL06712.1" description="&lt;b&gt;AAL06712.1&lt;/b&gt;&lt;br&gt;unknown&lt;br&gt;Location: 83513 - 83115" points="14,90 17,85 14,80 14,90 " style="stroke-width:1; stroke:black; fill:white; " id="dummy-13_h13_7_1" class="clusterblast-orf"  />
</g>
<g id="a13_002"  >
<polygon locus_tag="AAL06711.1" description="&lt;b&gt;AAL06711.1&lt;/b&gt;&lt;br&gt;hypothetical protein&lt;br&gt;Location: 83091 - 82408" points="17,85 22,80 24,80 24,90 22,90 17,85 " style="stroke-width:1; stroke:black; fill:white; " id="dummy-13_h13_7_2" class="clusterblast-orf"  />
</g>
<g id="a13_003"  >
<polygon locus_tag="AAL06710.1" description="&lt;b&gt;AAL06710.1&lt;/b&gt;&lt;br&gt;hypothetical protein&lt;br&gt;Location: 82351 - 81881" points="24,90 24,90 29,85 24,80 24,80 24,90 " style="stroke-width:1; stroke:black; fill:white; " id="dummy-13_h13_7_3" class="clusterblast-orf"  />
</g>
<g id="a13_004"  >
<polygon locus_tag="AAL06709.1" description="&lt;b&gt;AAL06709.1&lt;/b&gt;&lt;br&gt;unknown&lt;br&gt;Location: 81855 - 81442" points="29,90 33,85 29,80 29,90 " style="stroke-width:1; stroke:black; fill:white; " id="dummy-13_h13_7_4" class="clusterblast-orf"  />
</g>
<g id="a13_005"  >
<polygon locus_tag="AAL06708.1" description="&lt;b&gt;AAL06708.1&lt;/b&gt;&lt;br&gt;putative primase/helicase&lt;br&gt;Location: 81484 - 80060" points="32,85 37,80 45,80 45,90 37,90 32,85 " style="stroke-width:1; stroke:black; fill:white; " id="dummy-13_h13_7_5" class="clusterblast-orf"  />
</g>
<g id="a13_006"  >
<polygon locus_tag="AAL06707.1" description="&lt;b&gt;AAL06707.1&lt;/b&gt;&lt;br&gt;TylR regulatory protein-like protein&lt;br&gt;Location: 78769 - 77582" points="57,90 63,90 68,85 63,80 57,80 57,90 " style="stroke-width:1; stroke:black; fill:white; " id="dummy-13_h13_7_6" class="clusterblast-orf"  />
</g>
<g id="a13_007"  >
<polygon locus_tag="AAL06706.1" description="&lt;b&gt;AAL06706.1&lt;/b&gt;&lt;br&gt;hypothetical protein&lt;br&gt;Location: 77492 - 77031" points="69,85 73,80 73,90 69,85 " style="stroke-width:1; stroke:black; fill:white; " id="dummy-13_h13_7_7" class="clusterblast-orf"  />
</g>
<g id="a13_008"  >
<polygon locus_tag="AAL06705.1" description="&lt;b&gt;AAL06705.1&lt;/b&gt;&lt;br&gt;hypothetical protein&lt;br&gt;Location: 77026 - 76421" points="73,85 78,80 79,80 79,90 78,90 73,85 " style="stroke-width:1; stroke:black; fill:white; " id="dummy-13_h13_7_8" class="clusterblast-orf"  />
</g>
<g id="a13_009"  >
<polygon locus_tag="AAL06704.1" description="&lt;b&gt;AAL06704.1&lt;/b&gt;&lt;br&gt;hypothetical protein&lt;br&gt;Location: 76316 - 75873" points="80,90 84,85 80,80 80,90 " style="stroke-width:1; stroke:black; fill:white; " id="dummy-13_h13_7_9" class="clusterblast-orf"  />
</g>
<g id="a13_0010"  >
<polygon locus_tag="AAL06703.1" description="&lt;b&gt;AAL06703.1&lt;/b&gt;&lt;br&gt;hypothetical protein&lt;br&gt;Location: 75688 - 74942" points="85,90 87,90 92,85 87,80 85,80 85,90 " style="stroke-width:1; stroke:black; fill:white; " id="dummy-13_h13_7_10" class="clusterblast-orf"  />
</g>
<g id="a13_0011"  >
<polygon locus_tag="AAL06702.1" description="&lt;b&gt;AAL06702.1&lt;/b&gt;&lt;br&gt;hypothetical protein&lt;br&gt;Location: 74611 - 73625" points="95,90 99,90 104,85 99,80 95,80 95,90 " style="stroke-width:1; stroke:black; fill:white; " id="dummy-13_h13_7_11" class="clusterblast-orf"  />
</g>
<g id="a13_0012"  >
<polygon locus_tag="AAL06701.1" description="&lt;b&gt;AAL06701.1&lt;/b&gt;&lt;br&gt;Unknown&lt;br&gt;Location: 73628 - 71700" points="104,90 117,90 122,85 117,80 104,80 104,90 " style="stroke-width:1; stroke:black; fill:white; " id="dummy-13_h13_7_12" class="clusterblast-orf"  />
</g>
<g id="a13_0013"  >
<polygon locus_tag="AAL06700.1" description="&lt;b&gt;AAL06700.1&lt;/b&gt;&lt;br&gt;Unknown&lt;br&gt;Location: 71703 - 70573&lt;br&gt;&lt;br&gt;&lt;b&gt;BlastP hit with SSMG_03396&lt;/b&gt;&lt;br&gt;Percentage identity: 51&lt;br&gt;Percentage coverage: 81&lt;br&gt;BLAST bit score: 255&lt;br&gt;E-value: 1.1e-67" points="122,90 127,90 132,85 127,80 122,80 122,90 " style="stroke-width:1; stroke:black; fill:#1585d8; " id="dummy-13_h13_7_13" class="clusterblast-orf"  />
</g>
<g id="a13_0014"  >
<polygon locus_tag="AAL06699.1" description="&lt;b&gt;AAL06699.1&lt;/b&gt;&lt;br&gt;polyketide synthase&lt;br&gt;Location: 70576 - 64757" points="132,90 181,90 186,85 181,80 132,80 132,90 " style="stroke-width:1; stroke:black; fill:white; " id="dummy-13_h13_7_14" class="clusterblast-orf"  />
</g>
<g id="a13_0015"  >
<polygon locus_tag="AAL06698.1" description="&lt;b&gt;AAL06698.1&lt;/b&gt;&lt;br&gt;oxidoreductase&lt;br&gt;Location: 64676 - 64128" points="186,90 186,90 191,85 186,80 186,80 186,90 " style="stroke-width:1; stroke:black; fill:white; " id="dummy-13_h13_7_15" class="clusterblast-orf"  />
</g>
<g id="a13_0016"  >
<polygon locus_tag="AAL06697.1" description="&lt;b&gt;AAL06697.1&lt;/b&gt;&lt;br&gt;P450 hydroxylase&lt;br&gt;Location: 64131 - 62782" points="191,90 199,90 204,85 199,80 191,80 191,90 " style="stroke-width:1; stroke:black; fill:white; " id="dummy-13_h13_7_16" class="clusterblast-orf"  />
</g>
<g id="a13_0017"  >
<polygon locus_tag="AAL06696.1" description="&lt;b&gt;AAL06696.1&lt;/b&gt;&lt;br&gt;putative regulatory protein&lt;br&gt;Location: 62894 - 62040" points="203,85 208,80 211,80 211,90 208,90 203,85 " style="stroke-width:1; stroke:black; fill:white; " id="dummy-13_h13_7_17" class="clusterblast-orf"  />
</g>
<g id="a13_0018"  >
<polygon locus_tag="AAL06695.1" description="&lt;b&gt;AAL06695.1&lt;/b&gt;&lt;br&gt;regulatory protein&lt;br&gt;Location: 62014 - 60935" points="211,85 216,80 221,80 221,90 216,90 211,85 " style="stroke-width:1; stroke:black; fill:white; " id="dummy-13_h13_7_18" class="clusterblast-orf"  />
</g>
<g id="a13_0019"  >
<polygon locus_tag="AAL06694.1" description="&lt;b&gt;AAL06694.1&lt;/b&gt;&lt;br&gt;putative regulatory protein&lt;br&gt;Location: 60677 - 60087" points="223,90 223,90 228,85 223,80 223,80 223,90 " style="stroke-width:1; stroke:black; fill:white; " id="dummy-13_h13_7_19" class="clusterblast-orf"  />
</g>
<g id="a13_0020"  >
<polygon locus_tag="AAL06693.1" description="&lt;b&gt;AAL06693.1&lt;/b&gt;&lt;br&gt;oxidoreductase&lt;br&gt;Location: 60090 - 58435" points="228,90 239,90 244,85 239,80 228,80 228,90 " style="stroke-width:1; stroke:black; fill:white; " id="dummy-13_h13_7_20" class="clusterblast-orf"  />
</g>
<g id="a13_0021"  >
<polygon locus_tag="AAL06692.1" description="&lt;b&gt;AAL06692.1&lt;/b&gt;&lt;br&gt;thioesterase&lt;br&gt;Location: 58298 - 57828" points="245,90 249,85 245,80 245,90 " style="stroke-width:1; stroke:black; fill:white; " id="dummy-13_h13_7_21" class="clusterblast-orf"  />
</g>
<g id="a13_0022"  >
<polygon locus_tag="AAL06691.1" description="&lt;b&gt;AAL06691.1&lt;/b&gt;&lt;br&gt;Unknown&lt;br&gt;Location: 57725 - 56922" points="250,90 252,90 257,85 252,80 250,80 250,90 " style="stroke-width:1; stroke:black; fill:white; " id="dummy-13_h13_7_22" class="clusterblast-orf"  />
</g>
<g id="a13_0023"  >
<polygon locus_tag="AAL06690.1" description="&lt;b&gt;AAL06690.1&lt;/b&gt;&lt;br&gt;putative oxidase&lt;br&gt;Location: 56875 - 56021" points="258,85 263,80 266,80 266,90 263,90 258,85 " style="stroke-width:1; stroke:black; fill:white; " id="dummy-13_h13_7_23" class="clusterblast-orf"  />
</g>
<g id="a13_0024"  >
<polygon locus_tag="AAL06689.1" description="&lt;b&gt;AAL06689.1&lt;/b&gt;&lt;br&gt;Regulator&lt;br&gt;Location: 55374 - 54226" points="272,85 277,80 282,80 282,90 277,90 272,85 " style="stroke-width:1; stroke:black; fill:white; " id="dummy-13_h13_7_24" class="clusterblast-orf"  />
</g>
<g id="a13_0025"  >
<polygon locus_tag="AAL06688.1" description="&lt;b&gt;AAL06688.1&lt;/b&gt;&lt;br&gt;Unknown&lt;br&gt;Location: 54069 - 53212" points="284,85 289,80 291,80 291,90 289,90 284,85 " style="stroke-width:1; stroke:black; fill:white; " id="dummy-13_h13_7_25" class="clusterblast-orf"  />
</g>
<g id="a13_0026"  >
<polygon locus_tag="AAL06687.1" description="&lt;b&gt;AAL06687.1&lt;/b&gt;&lt;br&gt;oxidoreductase&lt;br&gt;Location: 52336 - 51416" points="300,90 303,90 308,85 303,80 300,80 300,90 " style="stroke-width:1; stroke:black; fill:white; " id="dummy-13_h13_7_26" class="clusterblast-orf"  />
</g>
<g id="a13_0027"  >
<polygon locus_tag="AAL06686.1" description="&lt;b&gt;AAL06686.1&lt;/b&gt;&lt;br&gt;Unknown&lt;br&gt;Location: 51385 - 50345" points="308,85 313,80 318,80 318,90 313,90 308,85 " style="stroke-width:1; stroke:black; fill:white; " id="dummy-13_h13_7_27" class="clusterblast-orf"  />
</g>
<g id="a13_0028"  >
<polygon locus_tag="AAL06685.1" description="&lt;b&gt;AAL06685.1&lt;/b&gt;&lt;br&gt;oxidoreductase&lt;br&gt;Location: 49709 - 48603" points="324,90 329,90 334,85 329,80 324,80 324,90 " style="stroke-width:1; stroke:black; fill:white; " id="dummy-13_h13_7_28" class="clusterblast-orf"  />
</g>
<g id="a13_0029"  >
<polygon locus_tag="AAL06684.1" description="&lt;b&gt;AAL06684.1&lt;/b&gt;&lt;br&gt;P450 hydroxylase&lt;br&gt;Location: 48479 - 47223" points="335,85 340,80 346,80 346,90 340,90 335,85 " style="stroke-width:1; stroke:black; fill:white; " id="dummy-13_h13_7_29" class="clusterblast-orf"  />
</g>
<g id="a13_0030"  >
<polygon locus_tag="AAL06683.1" description="&lt;b&gt;AAL06683.1&lt;/b&gt;&lt;br&gt;O-methyltransferase&lt;br&gt;Location: 47166 - 46162" points="347,85 352,80 356,80 356,90 352,90 347,85 " style="stroke-width:1; stroke:black; fill:white; " id="dummy-13_h13_7_30" class="clusterblast-orf"  />
</g>
<g id="a13_0031"  >
<polygon locus_tag="AAL06682.1" description="&lt;b&gt;AAL06682.1&lt;/b&gt;&lt;br&gt;antibiotic transporter&lt;br&gt;Location: 46018 - 43940" points="357,85 362,80 377,80 377,90 362,90 357,85 " style="stroke-width:1; stroke:black; fill:white; " id="dummy-13_h13_7_31" class="clusterblast-orf"  />
</g>
<g id="a13_0032"  >
<polygon locus_tag="AAL06681.1" description="&lt;b&gt;AAL06681.1&lt;/b&gt;&lt;br&gt;A-domain type II peptide synthetase&lt;br&gt;Location: 43692 - 41047" points="379,90 398,90 403,85 398,80 379,80 379,90 " style="stroke-width:1; stroke:black; fill:white; " id="dummy-13_h13_7_32" class="clusterblast-orf"  />
</g>
<g id="a13_0033"  >
<polygon locus_tag="AAL06680.1" description="&lt;b&gt;AAL06680.1&lt;/b&gt;&lt;br&gt;putative ammonia lyase/transferase&lt;br&gt;Location: 40981 - 39362" points="404,90 414,90 419,85 414,80 404,80 404,90 " style="stroke-width:1; stroke:black; fill:white; " id="dummy-13_h13_7_33" class="clusterblast-orf"  />
</g>
<g id="a13_0034"  >
<polygon locus_tag="AAL06679.1" description="&lt;b&gt;AAL06679.1&lt;/b&gt;&lt;br&gt;type II PCP&lt;br&gt;Location: 39259 - 38978" points="419,85 422,80 422,90 419,85 " style="stroke-width:1; stroke:black; fill:white; " id="dummy-13_h13_7_34" class="clusterblast-orf"  />
</g>
<g id="a13_0035"  >
<polygon locus_tag="AAL06678.1" description="&lt;b&gt;AAL06678.1&lt;/b&gt;&lt;br&gt;C-domain type II peptide synthetase&lt;br&gt;Location: 38933 - 37554" points="422,85 427,80 435,80 435,90 427,90 422,85 " style="stroke-width:1; stroke:black; fill:white; " id="dummy-13_h13_7_35" class="clusterblast-orf"  />
</g>
<g id="a13_0036"  >
<polygon locus_tag="AAL06677.1" description="&lt;b&gt;AAL06677.1&lt;/b&gt;&lt;br&gt;citrate/shikimate transporter&lt;br&gt;Location: 37485 - 36160" points="436,85 441,80 448,80 448,90 441,90 436,85 " style="stroke-width:1; stroke:black; fill:white; " id="dummy-13_h13_7_36" class="clusterblast-orf"  />
</g>
<g id="a13_0037"  >
<polygon locus_tag="AAL06676.1" description="&lt;b&gt;AAL06676.1&lt;/b&gt;&lt;br&gt;Unknown&lt;br&gt;Location: 35933 - 35511" points="450,90 454,85 450,80 450,90 " style="stroke-width:1; stroke:black; fill:white; " id="dummy-13_h13_7_37" class="clusterblast-orf"  />
</g>
<g id="a13_0038"  >
<polygon locus_tag="AAL06675.1" description="&lt;b&gt;AAL06675.1&lt;/b&gt;&lt;br&gt;haloacetate dehalogenase&lt;br&gt;Location: 35289 - 34453" points="456,90 459,90 464,85 459,80 456,80 456,90 " style="stroke-width:1; stroke:black; fill:white; " id="dummy-13_h13_7_38" class="clusterblast-orf"  />
</g>
<g id="a13_0039"  >
<polygon locus_tag="AAL06674.1" description="&lt;b&gt;AAL06674.1&lt;/b&gt;&lt;br&gt;chlorophenol-4-monooxygenase&lt;br&gt;Location: 34387 - 32804" points="464,85 469,80 479,80 479,90 469,90 464,85 " style="stroke-width:1; stroke:black; fill:white; " id="dummy-13_h13_7_39" class="clusterblast-orf"  />
</g>
<g id="a13_0040"  >
<polygon locus_tag="AAL06673.1" description="&lt;b&gt;AAL06673.1&lt;/b&gt;&lt;br&gt;coenzyme F390 synthase-like protein&lt;br&gt;Location: 32585 - 31275" points="481,85 486,80 493,80 493,90 486,90 481,85 " style="stroke-width:1; stroke:black; fill:white; " id="dummy-13_h13_7_40" class="clusterblast-orf"  />
</g>
<g id="a13_0041"  >
<polygon locus_tag="AAL06672.1" description="&lt;b&gt;AAL06672.1&lt;/b&gt;&lt;br&gt;transmembrane efflux protein&lt;br&gt;Location: 31192 - 29627" points="493,85 498,80 508,80 508,90 498,90 493,85 " style="stroke-width:1; stroke:black; fill:white; " id="dummy-13_h13_7_41" class="clusterblast-orf"  />
</g>
<g id="a13_0042"  >
<polygon locus_tag="AAL06671.1" description="&lt;b&gt;AAL06671.1&lt;/b&gt;&lt;br&gt;dNTP-glucose dehydratase&lt;br&gt;Location: 29583 - 28585" points="508,85 513,80 517,80 517,90 513,90 508,85 " style="stroke-width:1; stroke:black; fill:white; " id="dummy-13_h13_7_42" class="clusterblast-orf"  />
</g>
<g id="a13_0043"  >
<polygon locus_tag="AAL06670.1" description="&lt;b&gt;AAL06670.1&lt;/b&gt;&lt;br&gt;glycosyl transferase&lt;br&gt;Location: 28588 - 27209" points="517,85 522,80 530,80 530,90 522,90 517,85 " style="stroke-width:1; stroke:black; fill:white; " id="dummy-13_h13_7_43" class="clusterblast-orf"  />
</g>
<g id="a13_0044"  >
<polygon locus_tag="AAL06669.1" description="&lt;b&gt;AAL06669.1&lt;/b&gt;&lt;br&gt;squalene monooxygenase-like protein&lt;br&gt;Location: 27165 - 25810" points="530,85 535,80 543,80 543,90 535,90 530,85 " style="stroke-width:1; stroke:black; fill:white; " id="dummy-13_h13_7_44" class="clusterblast-orf"  />
</g>
<g id="a13_0045"  >
<polygon locus_tag="AAL06668.1" description="&lt;b&gt;AAL06668.1&lt;/b&gt;&lt;br&gt;dNTP-4-keto-6-deoxyglucose epimerase&lt;br&gt;Location: 25559 - 24981" points="545,90 545,90 550,85 545,80 545,80 545,90 " style="stroke-width:1; stroke:black; fill:white; " id="dummy-13_h13_7_45" class="clusterblast-orf"  />
</g>
<g id="a13_0046"  >
<polygon locus_tag="AAL06667.1" description="&lt;b&gt;AAL06667.1&lt;/b&gt;&lt;br&gt;3-O-acyltransferase&lt;br&gt;Location: 24697 - 23561" points="553,90 558,90 563,85 558,80 553,80 553,90 " style="stroke-width:1; stroke:black; fill:white; " id="dummy-13_h13_7_46" class="clusterblast-orf"  />
</g>
<g id="a13_0047"  >
<polygon locus_tag="AAL06666.1" description="&lt;b&gt;AAL06666.1&lt;/b&gt;&lt;br&gt;hypothetical Fe-S flavoprotein&lt;br&gt;Location: 23541 - 22870" points="564,90 565,90 570,85 565,80 564,80 564,90 " style="stroke-width:1; stroke:black; fill:white; " id="dummy-13_h13_7_47" class="clusterblast-orf"  />
</g>
<g id="a13_0048"  >
<polygon locus_tag="AAL06665.1" description="&lt;b&gt;AAL06665.1&lt;/b&gt;&lt;br&gt;putative phenylacetyl CoA ligase&lt;br&gt;Location: 22873 - 21419" points="570,90 578,90 583,85 578,80 570,80 570,90 " style="stroke-width:1; stroke:black; fill:white; " id="dummy-13_h13_7_48" class="clusterblast-orf"  />
</g>
<g id="a13_0049"  >
<polygon locus_tag="AAL06664.1" description="&lt;b&gt;AAL06664.1&lt;/b&gt;&lt;br&gt;anthranilate synthase I&lt;br&gt;Location: 21402 - 19921" points="583,90 592,90 597,85 592,80 583,80 583,90 " style="stroke-width:1; stroke:black; fill:white; " id="dummy-13_h13_7_49" class="clusterblast-orf"  />
</g>
<g id="a13_0050"  >
<polygon locus_tag="AAL06663.1" description="&lt;b&gt;AAL06663.1&lt;/b&gt;&lt;br&gt;anthranilate synthase II&lt;br&gt;Location: 19924 - 19262" points="597,90 598,90 603,85 598,80 597,80 597,90 " style="stroke-width:1; stroke:black; fill:white; " id="dummy-13_h13_7_50" class="clusterblast-orf"  />
</g>
<g id="a13_0051"  >
<polygon locus_tag="AAL06662.1" description="&lt;b&gt;AAL06662.1&lt;/b&gt;&lt;br&gt;epoxide hydrolase&lt;br&gt;Location: 19188 - 18031" points="604,90 609,90 614,85 609,80 604,80 604,90 " style="stroke-width:1; stroke:black; fill:white; " id="dummy-13_h13_7_51" class="clusterblast-orf"  />
</g>
<g id="a13_0052"  >
<polygon locus_tag="AAL06661.1" description="&lt;b&gt;AAL06661.1&lt;/b&gt;&lt;br&gt;C-methyl transferase&lt;br&gt;Location: 17924 - 16653" points="615,90 622,90 627,85 622,80 615,80 615,90 " style="stroke-width:1; stroke:black; fill:white; " id="dummy-13_h13_7_52" class="clusterblast-orf"  />
</g>
<g id="a13_0053"  >
<polygon locus_tag="AAL06660.1" description="&lt;b&gt;AAL06660.1&lt;/b&gt;&lt;br&gt;N-methyl transferase&lt;br&gt;Location: 16653 - 15919" points="627,90 629,90 634,85 629,80 627,80 627,90 " style="stroke-width:1; stroke:black; fill:white; " id="dummy-13_h13_7_53" class="clusterblast-orf"  />
</g>
<g id="a13_0054"  >
<polygon locus_tag="AAL06659.1" description="&lt;b&gt;AAL06659.1&lt;/b&gt;&lt;br&gt;amino transferase&lt;br&gt;Location: 15922 - 14690" points="634,90 640,90 645,85 640,80 634,80 634,90 " style="stroke-width:1; stroke:black; fill:white; " id="dummy-13_h13_7_54" class="clusterblast-orf"  />
</g>
<g id="a13_0055"  >
<polygon locus_tag="AAL06658.1" description="&lt;b&gt;AAL06658.1&lt;/b&gt;&lt;br&gt;C-1027 apoprotein&lt;br&gt;Location: 14643 - 14212" points="645,90 649,85 645,80 645,90 " style="stroke-width:1; stroke:black; fill:white; " id="dummy-13_h13_7_55" class="clusterblast-orf"  />
</g>
<g id="a13_0056"  >
<polygon locus_tag="AAL06657.1" description="&lt;b&gt;AAL06657.1&lt;/b&gt;&lt;br&gt;dNTP-glucose synthase&lt;br&gt;Location: 14079 - 13012" points="650,85 655,80 660,80 660,90 655,90 650,85 " style="stroke-width:1; stroke:black; fill:white; " id="dummy-13_h13_7_56" class="clusterblast-orf"  />
</g>
<g id="a13_0057"  >
<polygon locus_tag="AAL06656.1" description="&lt;b&gt;AAL06656.1&lt;/b&gt;&lt;br&gt;alkylhalidase&lt;br&gt;Location: 12835 - 11351" points="662,90 670,90 675,85 670,80 662,80 662,90 " style="stroke-width:1; stroke:black; fill:white; " id="dummy-13_h13_7_57" class="clusterblast-orf"  />
</g>
<g id="a13_0058"  >
<polygon locus_tag="AAL06655.1" description="&lt;b&gt;AAL06655.1&lt;/b&gt;&lt;br&gt;Na/H efflux pump&lt;br&gt;Location: 11349 - 9982" points="675,90 683,90 688,85 683,80 675,80 675,90 " style="stroke-width:1; stroke:black; fill:white; " id="dummy-13_h13_7_58" class="clusterblast-orf"  />
</g>
<g id="a13_0059"  >
<polygon locus_tag="AAL06654.1" description="&lt;b&gt;AAL06654.1&lt;/b&gt;&lt;br&gt;UvrA-like drug resistance pump&lt;br&gt;Location: 9927 - 7573" points="689,90 705,90 710,85 705,80 689,80 689,90 " style="stroke-width:1; stroke:black; fill:white; " id="dummy-13_h13_7_59" class="clusterblast-orf"  />
</g>
<g id="a13_0060"  >
<polygon locus_tag="AAL06653.1" description="&lt;b&gt;AAL06653.1&lt;/b&gt;&lt;br&gt;glycerol phosphate ABC transporter&lt;br&gt;Location: 7478 - 5982" points="711,85 716,80 725,80 725,90 716,90 711,85 " style="stroke-width:1; stroke:black; fill:white; " id="dummy-13_h13_7_60" class="clusterblast-orf"  />
</g>
<g id="a13_0061"  >
<polygon locus_tag="AAL06652.1" description="&lt;b&gt;AAL06652.1&lt;/b&gt;&lt;br&gt;putative primase&lt;br&gt;Location: 4971 - 3442" points="734,90 743,90 748,85 743,80 734,80 734,90 " style="stroke-width:1; stroke:black; fill:white; " id="dummy-13_h13_7_61" class="clusterblast-orf"  />
</g>
<g id="a13_0062"  >
<polygon locus_tag="AAL06651.1" description="&lt;b&gt;AAL06651.1&lt;/b&gt;&lt;br&gt;transcription factor&lt;br&gt;Location: 3237 - 2851" points="750,90 753,85 750,80 750,90 " style="stroke-width:1; stroke:black; fill:white; " id="dummy-13_h13_7_62" class="clusterblast-orf"  />
</g>
<g id="a13_0063"  >
<polygon locus_tag="AAL06650.1" description="&lt;b&gt;AAL06650.1&lt;/b&gt;&lt;br&gt;truncated methionine synthase-like protein&lt;br&gt;Location: 2713 - 1649&lt;br&gt;&lt;br&gt;&lt;b&gt;BlastP hit with SSMG_03400&lt;/b&gt;&lt;br&gt;Percentage identity: 66&lt;br&gt;Percentage coverage: 98&lt;br&gt;BLAST bit score: 458&lt;br&gt;E-value: 1.3e-128" points="755,90 759,90 764,85 759,80 755,80 755,90 " style="stroke-width:1; stroke:black; fill:#d86915; " id="dummy-13_h13_7_63" class="clusterblast-orf"  />
</g>
<g id="a13_0064"  >
<polygon locus_tag="AAL06649.1" description="&lt;b&gt;AAL06649.1&lt;/b&gt;&lt;br&gt;viral infectivity potentiator-like protein&lt;br&gt;Location: 1478 - 930" points="766,90 766,90 771,85 766,80 766,80 766,90 " style="stroke-width:1; stroke:black; fill:white; " id="dummy-13_h13_7_64" class="clusterblast-orf"  />
</g>
<g id="a13_0065"  >
<polygon locus_tag="AAL06648.1" description="&lt;b&gt;AAL06648.1&lt;/b&gt;&lt;br&gt;hydroxylase-like protein&lt;br&gt;Location: 658 - 8" points="774,90 775,90 780,85 775,80 774,80 774,90 " style="stroke-width:1; stroke:black; fill:white; " id="dummy-13_h13_7_65" class="clusterblast-orf"  />
</g>
</svg>
