<svg version="1.1" xmlns="http://www.w3.org/2000/svg" height="230" width="800" xmlns:xlink="http://www.w3.org/1999/xlink" preserveAspectRatio="none" x="0" y="0" viewBox="0 0 800 230"  >
<g label="Query sequence" class="clusterblast-cluster"  >
<text class="clusterblast-acc" y="20" x="5"  >
Query sequence</text>
<line x1="10" x2="778.0" y2="35" style="stroke-width:1; stroke:grey; " y1="35"  />
<polygon locus_tag="SSMG_04365" description="&lt;b&gt;SSMG_04365&lt;/b&gt;&lt;br&gt;aldehyde dehydrogenase&lt;br&gt;Location: 4774714 - 4776169" points="286,35 291,30 293,30 293,40 291,40 286,35 " style="stroke-width:1; stroke:black; fill:white; " id="dummy-18_q0_0_all" class="clusterblast-orf"  />
<polygon locus_tag="SSMG_04366" description="&lt;b&gt;SSMG_04366&lt;/b&gt;&lt;br&gt;conserved hypothetical protein&lt;br&gt;Location: 4776591 - 4777734" points="295,35 300,30 300,30 300,40 300,40 295,35 " style="stroke-width:1; stroke:black; fill:white; " id="dummy-18_q1_0_all" class="clusterblast-orf"  />
<polygon locus_tag="SSMG_04367" description="&lt;b&gt;SSMG_04367&lt;/b&gt;&lt;br&gt;glucarate dehydratase&lt;br&gt;Location: 4777738 - 4778998" points="300,35 305,30 307,30 307,40 305,40 300,35 " style="stroke-width:1; stroke:black; fill:#d81515; " id="dummy-18_q2_0_all" class="clusterblast-orf"  />
<polygon locus_tag="SSMG_04368" description="&lt;b&gt;SSMG_04368&lt;/b&gt;&lt;br&gt;5-dehydro-4-deoxyglucarate dehydratase&lt;br&gt;Location: 4778994 - 4779927" points="307,35 311,30 311,40 307,35 " style="stroke-width:1; stroke:black; fill:#15d8d8; " id="dummy-18_q3_0_all" class="clusterblast-orf"  />
<polygon locus_tag="SSMG_04369" description="&lt;b&gt;SSMG_04369&lt;/b&gt;&lt;br&gt;transcriptional regulator&lt;br&gt;Location: 4780056 - 4780854" points="312,40 316,35 312,30 312,40 " style="stroke-width:1; stroke:black; fill:white; " id="dummy-18_q4_0_all" class="clusterblast-orf"  />
<polygon locus_tag="SSMG_04370" description="&lt;b&gt;SSMG_04370&lt;/b&gt;&lt;br&gt;NAD-dependent epimerase/dehydratase&lt;br&gt;Location: 4780902 - 4781727" points="316,40 320,35 316,30 316,40 " style="stroke-width:1; stroke:black; fill:white; " id="dummy-18_q5_0_all" class="clusterblast-orf"  />
<polygon locus_tag="SSMG_04371" description="&lt;b&gt;SSMG_04371&lt;/b&gt;&lt;br&gt;predicted protein&lt;br&gt;Location: 4781768 - 4782650" points="320,40 320,40 325,35 320,30 320,30 320,40 " style="stroke-width:1; stroke:black; fill:white; " id="dummy-18_q6_0_all" class="clusterblast-orf"  />
<polygon locus_tag="SSMG_04372" description="&lt;b&gt;SSMG_04372&lt;/b&gt;&lt;br&gt;maleylacetate reductase 1&lt;br&gt;Location: 4782744 - 4784670" points="325,40 329,40 334,35 329,30 325,30 325,40 " style="stroke-width:1; stroke:black; fill:white; " id="dummy-18_q7_0_all" class="clusterblast-orf"  />
<polygon locus_tag="SSMG_04373" description="&lt;b&gt;SSMG_04373&lt;/b&gt;&lt;br&gt;chlorohydroquinone monooxygenase&lt;br&gt;Location: 4784656 - 4786387" points="334,40 338,40 343,35 338,30 334,30 334,40 " style="stroke-width:1; stroke:black; fill:white; " id="dummy-18_q8_0_all" class="clusterblast-orf"  />
<polygon locus_tag="SSMG_04374" description="&lt;b&gt;SSMG_04374&lt;/b&gt;&lt;br&gt;conserved hypothetical protein&lt;br&gt;Location: 4786388 - 4788677" points="343,35 348,30 354,30 354,40 348,40 343,35 " style="stroke-width:1; stroke:black; fill:white; " id="dummy-18_q9_0_all" class="clusterblast-orf"  />
<polygon locus_tag="SSMG_04375" description="&lt;b&gt;SSMG_04375&lt;/b&gt;&lt;br&gt;predicted protein&lt;br&gt;Location: 4788697 - 4791025" points="354,35 359,30 366,30 366,40 359,40 354,35 " style="stroke-width:1; stroke:black; fill:white; " id="dummy-18_q10_0_all" class="clusterblast-orf"  />
<polygon locus_tag="SSMG_04376" description="&lt;b&gt;SSMG_04376&lt;/b&gt;&lt;br&gt;riboflavin biosynthesis protein RibD domain-containing protein&lt;br&gt;Location: 4791153 - 4791735" points="366,35 369,30 369,40 366,35 " style="stroke-width:1; stroke:black; fill:white; " id="dummy-18_q11_0_all" class="clusterblast-orf"  />
<polygon locus_tag="SSMG_04377" description="&lt;b&gt;SSMG_04377&lt;/b&gt;&lt;br&gt;glyoxalase I/lactoylglutathione lyase&lt;br&gt;Location: 4791731 - 4792154" points="369,35 371,30 371,40 369,35 " style="stroke-width:1; stroke:black; fill:white; " id="dummy-18_q12_0_all" class="clusterblast-orf"  />
<polygon locus_tag="SSMG_04378" description="&lt;b&gt;SSMG_04378&lt;/b&gt;&lt;br&gt;metallopeptidase&lt;br&gt;Location: 4792266 - 4793628" points="372,35 377,30 378,30 378,40 377,40 372,35 " style="stroke-width:1; stroke:black; fill:white; " id="dummy-18_q13_0_all" class="clusterblast-orf"  />
<polygon locus_tag="SSMG_04379" description="&lt;b&gt;SSMG_04379&lt;/b&gt;&lt;br&gt;non-ribosomal peptide synthetase&lt;br&gt;Location: 4793707 - 4797589" points="379,35 384,30 398,30 398,40 384,40 379,35 " style="stroke-width:1; stroke:black; fill:white; " id="dummy-18_q14_0_all" class="clusterblast-orf"  />
<polygon locus_tag="SSMG_04380" description="&lt;b&gt;SSMG_04380&lt;/b&gt;&lt;br&gt;ribosome-associated GTPase EngA&lt;br&gt;Location: 4797868 - 4799350" points="399,35 404,30 406,30 406,40 404,40 399,35 " style="stroke-width:1; stroke:black; fill:white; " id="dummy-18_q15_0_all" class="clusterblast-orf"  />
<polygon locus_tag="SSMG_04381" description="&lt;b&gt;SSMG_04381&lt;/b&gt;&lt;br&gt;cytidylate kinase&lt;br&gt;Location: 4799366 - 4800023" points="406,35 410,30 410,40 406,35 " style="stroke-width:1; stroke:black; fill:white; " id="dummy-18_q16_0_all" class="clusterblast-orf"  />
<polygon locus_tag="SSMG_04382" description="&lt;b&gt;SSMG_04382&lt;/b&gt;&lt;br&gt;cytidylate kinase&lt;br&gt;Location: 4800019 - 4800766" points="410,35 413,30 413,40 410,35 " style="stroke-width:1; stroke:black; fill:white; " id="dummy-18_q17_0_all" class="clusterblast-orf"  />
<polygon locus_tag="SSMG_04383" description="&lt;b&gt;SSMG_04383&lt;/b&gt;&lt;br&gt;predicted protein&lt;br&gt;Location: 4800942 - 4801311" points="414,40 416,35 414,30 414,40 " style="stroke-width:1; stroke:black; fill:white; " id="dummy-18_q18_0_all" class="clusterblast-orf"  />
<polygon locus_tag="SSMG_04384" description="&lt;b&gt;SSMG_04384&lt;/b&gt;&lt;br&gt;TrkA-C domain-containing protein&lt;br&gt;Location: 4801347 - 4801830" points="416,40 419,35 416,30 416,40 " style="stroke-width:1; stroke:black; fill:white; " id="dummy-18_q19_0_all" class="clusterblast-orf"  />
<polygon locus_tag="SSMG_04385" description="&lt;b&gt;SSMG_04385&lt;/b&gt;&lt;br&gt;transmembrane transporter&lt;br&gt;Location: 4801829 - 4803020" points="419,40 419,40 424,35 419,30 419,30 419,40 " style="stroke-width:1; stroke:black; fill:white; " id="dummy-18_q20_0_all" class="clusterblast-orf"  />
<polygon locus_tag="SSMG_04386" description="&lt;b&gt;SSMG_04386&lt;/b&gt;&lt;br&gt;X-prolyl-dipeptidyl aminopeptidase&lt;br&gt;Location: 4803098 - 4805000" points="425,35 430,30 434,30 434,40 430,40 425,35 " style="stroke-width:1; stroke:black; fill:white; " id="dummy-18_q21_0_all" class="clusterblast-orf"  />
<polygon locus_tag="SSMG_04387" description="&lt;b&gt;SSMG_04387&lt;/b&gt;&lt;br&gt;pseudouridylate synthase ribosomal large subunit&lt;br&gt;Location: 4805088 - 4805841" points="434,35 438,30 438,40 434,35 " style="stroke-width:1; stroke:black; fill:white; " id="dummy-18_q22_0_all" class="clusterblast-orf"  />
<polygon locus_tag="SSMG_04388" description="&lt;b&gt;SSMG_04388&lt;/b&gt;&lt;br&gt;segregation and condensation protein B&lt;br&gt;Location: 4805830 - 4806568" points="438,35 442,30 442,40 438,35 " style="stroke-width:1; stroke:black; fill:white; " id="dummy-18_q23_0_all" class="clusterblast-orf"  />
<polygon locus_tag="SSMG_04389" description="&lt;b&gt;SSMG_04389&lt;/b&gt;&lt;br&gt;ScpA/B protein&lt;br&gt;Location: 4806714 - 4807719" points="442,35 447,30 447,30 447,40 447,40 442,35 " style="stroke-width:1; stroke:black; fill:white; " id="dummy-18_q24_0_all" class="clusterblast-orf"  />
<polygon locus_tag="SSMG_04390" description="&lt;b&gt;SSMG_04390&lt;/b&gt;&lt;br&gt;cobyrinic acid ac-diamide synthase&lt;br&gt;Location: 4807718 - 4808135" points="447,35 449,30 449,40 447,35 " style="stroke-width:1; stroke:black; fill:white; " id="dummy-18_q25_0_all" class="clusterblast-orf"  />
<polygon locus_tag="SSMG_04391" description="&lt;b&gt;SSMG_04391&lt;/b&gt;&lt;br&gt;partitioning or sporulation protein&lt;br&gt;Location: 4808131 - 4809181" points="449,35 454,30 455,30 455,40 454,40 449,35 " style="stroke-width:1; stroke:black; fill:white; " id="dummy-18_q26_0_all" class="clusterblast-orf"  />
<polygon locus_tag="SSMG_04392" description="&lt;b&gt;SSMG_04392&lt;/b&gt;&lt;br&gt;tyrosine recombinase XerD&lt;br&gt;Location: 4809313 - 4810246" points="455,35 460,30 460,30 460,40 460,40 455,35 " style="stroke-width:1; stroke:black; fill:white; " id="dummy-18_q27_0_all" class="clusterblast-orf"  />
<polygon locus_tag="SSMG_04393" description="&lt;b&gt;SSMG_04393&lt;/b&gt;&lt;br&gt;ADP-ribose pyrophosphatase&lt;br&gt;Location: 4810286 - 4810919" points="460,35 463,30 463,40 460,35 " style="stroke-width:1; stroke:black; fill:white; " id="dummy-18_q28_0_all" class="clusterblast-orf"  />
<polygon locus_tag="SSMG_04394" description="&lt;b&gt;SSMG_04394&lt;/b&gt;&lt;br&gt;CTP synthase&lt;br&gt;Location: 4810915 - 4812616" points="463,35 468,30 471,30 471,40 468,40 463,35 " style="stroke-width:1; stroke:black; fill:white; " id="dummy-18_q29_0_all" class="clusterblast-orf"  />
<polygon locus_tag="SSMG_04395" description="&lt;b&gt;SSMG_04395&lt;/b&gt;&lt;br&gt;3-phosphoshikimate 1-carboxyvinyltransferase&lt;br&gt;Location: 4812704 - 4814000" points="472,40 473,40 478,35 473,30 472,30 472,40 " style="stroke-width:1; stroke:black; fill:white; " id="dummy-18_q30_0_all" class="clusterblast-orf"  />
<polygon locus_tag="SSMG_04396" description="&lt;b&gt;SSMG_04396&lt;/b&gt;&lt;br&gt;predicted protein&lt;br&gt;Location: 4813992 - 4814853" points="478,35 482,30 482,40 478,35 " style="stroke-width:1; stroke:black; fill:white; " id="dummy-18_q31_0_all" class="clusterblast-orf"  />
<polygon locus_tag="SSMG_04397" description="&lt;b&gt;SSMG_04397&lt;/b&gt;&lt;br&gt;predicted protein&lt;br&gt;Location: 4814872 - 4815553" points="482,35 486,30 486,40 482,35 " style="stroke-width:1; stroke:black; fill:white; " id="dummy-18_q32_0_all" class="clusterblast-orf"  />
<polygon locus_tag="SSMG_04398" description="&lt;b&gt;SSMG_04398&lt;/b&gt;&lt;br&gt;NCS1 nucleoside transporter&lt;br&gt;Location: 4815645 - 4817115" points="486,40 488,40 493,35 488,30 486,30 486,40 " style="stroke-width:1; stroke:black; fill:white; " id="dummy-18_q33_0_all" class="clusterblast-orf"  />
</g>
<g label="BGC0001065" description="BGC0001065_c1: herboxidiene (2% of genes show similarity), Polyketide" class="clusterblast-cluster"  >
<text class="clusterblast-acc" y="70" x="5"  >
<a xlink:href="https://mibig.secondarymetabolites.org/go/BGC0001065/1" target="_blank">BGC0001065</a>:                                                                     herboxidiene (2% of genes show similarity), Polyketide</text>
<line x1="10" x2="778.0" y2="85" style="stroke-width:1; stroke:grey; " y1="85"  />
</g>
<g id="a18_000"  >
<polygon locus_tag="sccontig008-89" description="&lt;b&gt;sccontig008-89&lt;/b&gt;&lt;br&gt;putative N-acetyl-glucosamine transferase&lt;br&gt;Location: 159201 - 157960" points="0,85 5,80 6,80 6,90 5,90 0,85 " style="stroke-width:1; stroke:black; fill:white; " id="dummy-18_h18_1_0" class="clusterblast-orf"  />
</g>
<g id="a18_001"  >
<polygon locus_tag="sccontig008-88" description="&lt;b&gt;sccontig008-88&lt;/b&gt;&lt;br&gt;conserved Hypothetical protein&lt;br&gt;Location: 157337 - 155508" points="9,90 13,90 18,85 13,80 9,80 9,90 " style="stroke-width:1; stroke:black; fill:white; " id="dummy-18_h18_1_1" class="clusterblast-orf"  />
</g>
<g id="a18_002"  >
<polygon locus_tag="sccontig008-87" description="&lt;b&gt;sccontig008-87&lt;/b&gt;&lt;br&gt;conserved Hypothetical protein&lt;br&gt;Location: 155378 - 154347" points="18,90 18,90 23,85 18,80 18,80 18,90 " style="stroke-width:1; stroke:black; fill:white; " id="dummy-18_h18_1_2" class="clusterblast-orf"  />
</g>
<g id="a18_003"  >
<polygon locus_tag="sccontig008-86" description="&lt;b&gt;sccontig008-86&lt;/b&gt;&lt;br&gt;hypothetical protein&lt;br&gt;Location: 154321 - 152018" points="23,85 28,80 35,80 35,90 28,90 23,85 " style="stroke-width:1; stroke:black; fill:white; " id="dummy-18_h18_1_3" class="clusterblast-orf"  />
</g>
<g id="a18_004"  >
<polygon locus_tag="sccontig008-85" description="&lt;b&gt;sccontig008-85&lt;/b&gt;&lt;br&gt;SARP family transcriptional regulator&lt;br&gt;Location: 152033 - 151248" points="35,90 38,85 35,80 35,90 " style="stroke-width:1; stroke:black; fill:white; " id="dummy-18_h18_1_4" class="clusterblast-orf"  />
</g>
<g id="a18_005"  >
<polygon locus_tag="sccontig008-84" description="&lt;b&gt;sccontig008-84&lt;/b&gt;&lt;br&gt;O-methyltransferase&lt;br&gt;Location: 151188 - 150106" points="39,85 44,80 44,80 44,90 44,90 39,85 " style="stroke-width:1; stroke:black; fill:white; " id="dummy-18_h18_1_5" class="clusterblast-orf"  />
</g>
<g id="a18_006"  >
<polygon locus_tag="sccontig008-83" description="&lt;b&gt;sccontig008-83&lt;/b&gt;&lt;br&gt;DNA topology modulation protein&lt;br&gt;Location: 150109 - 149291" points="44,85 48,80 48,90 44,85 " style="stroke-width:1; stroke:black; fill:white; " id="dummy-18_h18_1_6" class="clusterblast-orf"  />
</g>
<g id="a18_007"  >
<polygon locus_tag="sccontig008-82" description="&lt;b&gt;sccontig008-82&lt;/b&gt;&lt;br&gt;carbamoyltransferase&lt;br&gt;Location: 149310 - 147838" points="48,85 53,80 55,80 55,90 53,90 48,85 " style="stroke-width:1; stroke:black; fill:white; " id="dummy-18_h18_1_7" class="clusterblast-orf"  />
</g>
<g id="a18_008"  >
<polygon locus_tag="sccontig008-81" description="&lt;b&gt;sccontig008-81&lt;/b&gt;&lt;br&gt;putative aminotransferase&lt;br&gt;Location: 147737 - 146559" points="56,85 61,80 61,80 61,90 61,90 56,85 " style="stroke-width:1; stroke:black; fill:white; " id="dummy-18_h18_1_8" class="clusterblast-orf"  />
</g>
<g id="a18_009"  >
<polygon locus_tag="sccontig008-80" description="&lt;b&gt;sccontig008-80&lt;/b&gt;&lt;br&gt;putative radical SAM protein&lt;br&gt;Location: 146520 - 145123" points="62,85 67,80 68,80 68,90 67,90 62,85 " style="stroke-width:1; stroke:black; fill:white; " id="dummy-18_h18_1_9" class="clusterblast-orf"  />
</g>
<g id="a18_0010"  >
<polygon locus_tag="sccontig008-79" description="&lt;b&gt;sccontig008-79&lt;/b&gt;&lt;br&gt;hypothetical protein&lt;br&gt;Location: 144618 - 143824" points="71,90 75,85 71,80 71,90 " style="stroke-width:1; stroke:black; fill:white; " id="dummy-18_h18_1_10" class="clusterblast-orf"  />
</g>
<g id="a18_0011"  >
<polygon locus_tag="sccontig008-78" description="&lt;b&gt;sccontig008-78&lt;/b&gt;&lt;br&gt;hypothetical protein&lt;br&gt;Location: 143686 - 142958" points="76,90 79,85 76,80 76,90 " style="stroke-width:1; stroke:black; fill:white; " id="dummy-18_h18_1_11" class="clusterblast-orf"  />
</g>
<g id="a18_0012"  >
<polygon locus_tag="sccontig008-77" description="&lt;b&gt;sccontig008-77&lt;/b&gt;&lt;br&gt;short-chain dehydrogenase/reductase SDR&lt;br&gt;Location: 142647 - 141853" points="81,90 84,85 81,80 81,90 " style="stroke-width:1; stroke:black; fill:white; " id="dummy-18_h18_1_12" class="clusterblast-orf"  />
</g>
<g id="a18_0013"  >
<polygon locus_tag="sccontig008-76" description="&lt;b&gt;sccontig008-76&lt;/b&gt;&lt;br&gt;putative Hydroxylase&lt;br&gt;Location: 141815 - 141210" points="85,90 88,85 85,80 85,90 " style="stroke-width:1; stroke:black; fill:white; " id="dummy-18_h18_1_13" class="clusterblast-orf"  />
</g>
<g id="a18_0014"  >
<polygon locus_tag="sccontig008-75" description="&lt;b&gt;sccontig008-75&lt;/b&gt;&lt;br&gt;UDP-N-acetylglucosamine 1-carboxyvinyltransferase&lt;br&gt;Location: 141225 - 139738" points="88,90 90,90 95,85 90,80 88,80 88,90 " style="stroke-width:1; stroke:black; fill:white; " id="dummy-18_h18_1_14" class="clusterblast-orf"  />
</g>
<g id="a18_0015"  >
<polygon locus_tag="sccontig008-74" description="&lt;b&gt;sccontig008-74&lt;/b&gt;&lt;br&gt;putative Hydroxylase&lt;br&gt;Location: 139745 - 139023" points="95,90 98,85 95,80 95,90 " style="stroke-width:1; stroke:black; fill:white; " id="dummy-18_h18_1_15" class="clusterblast-orf"  />
</g>
<g id="a18_0016"  >
<polygon locus_tag="sccontig008-73" description="&lt;b&gt;sccontig008-73&lt;/b&gt;&lt;br&gt;major facilitator family transporter&lt;br&gt;Location: 138769 - 137276" points="100,90 102,90 107,85 102,80 100,80 100,90 " style="stroke-width:1; stroke:black; fill:white; " id="dummy-18_h18_1_16" class="clusterblast-orf"  />
</g>
<g id="a18_0017"  >
<polygon locus_tag="sccontig008-72" description="&lt;b&gt;sccontig008-72&lt;/b&gt;&lt;br&gt;tRNA pseudouridine synthase d&lt;br&gt;Location: 137273 - 136233" points="107,90 107,90 112,85 107,80 107,80 107,90 " style="stroke-width:1; stroke:black; fill:white; " id="dummy-18_h18_1_17" class="clusterblast-orf"  />
</g>
<g id="a18_0018"  >
<polygon locus_tag="sccontig008-71" description="&lt;b&gt;sccontig008-71&lt;/b&gt;&lt;br&gt;hypothetical protein&lt;br&gt;Location: 136221 - 135601" points="112,85 115,80 115,90 112,85 " style="stroke-width:1; stroke:black; fill:white; " id="dummy-18_h18_1_18" class="clusterblast-orf"  />
</g>
<g id="a18_0019"  >
<polygon locus_tag="sccontig008-70" description="&lt;b&gt;sccontig008-70&lt;/b&gt;&lt;br&gt;Marr family transcriptional regulator&lt;br&gt;Location: 135515 - 135060" points="116,85 118,80 118,90 116,85 " style="stroke-width:1; stroke:black; fill:white; " id="dummy-18_h18_1_19" class="clusterblast-orf"  />
</g>
<g id="a18_0020"  >
<polygon locus_tag="sccontig008-69" description="&lt;b&gt;sccontig008-69&lt;/b&gt;&lt;br&gt;major facilitator superfamily protein&lt;br&gt;Location: 134869 - 133412" points="119,90 121,90 126,85 121,80 119,80 119,90 " style="stroke-width:1; stroke:black; fill:white; " id="dummy-18_h18_1_20" class="clusterblast-orf"  />
</g>
<g id="a18_0021"  >
<polygon locus_tag="sccontig008-68" description="&lt;b&gt;sccontig008-68&lt;/b&gt;&lt;br&gt;fumarate reductase/succinate dehydrogenase flavoprotein domain-containing protein&lt;br&gt;Location: 133338 - 131497" points="126,90 130,90 135,85 130,80 126,80 126,90 " style="stroke-width:1; stroke:black; fill:white; " id="dummy-18_h18_1_21" class="clusterblast-orf"  />
</g>
<g id="a18_0022"  >
<polygon locus_tag="sccontig008-67" description="&lt;b&gt;sccontig008-67&lt;/b&gt;&lt;br&gt;putative feruloyl esterase b&lt;br&gt;Location: 131450 - 129969" points="135,85 140,80 143,80 143,90 140,90 135,85 " style="stroke-width:1; stroke:black; fill:white; " id="dummy-18_h18_1_22" class="clusterblast-orf"  />
</g>
<g id="a18_0023"  >
<polygon locus_tag="sccontig008-66" description="&lt;b&gt;sccontig008-66&lt;/b&gt;&lt;br&gt;fatty-acid-CoA ligase&lt;br&gt;Location: 129796 - 127955" points="144,85 149,80 153,80 153,90 149,90 144,85 " style="stroke-width:1; stroke:black; fill:white; " id="dummy-18_h18_1_23" class="clusterblast-orf"  />
</g>
<g id="a18_0024"  >
<polygon locus_tag="sccontig008-65" description="&lt;b&gt;sccontig008-65&lt;/b&gt;&lt;br&gt;cdar family transcriptional regulator&lt;br&gt;Location: 127812 - 126616" points="153,85 158,80 159,80 159,90 158,90 153,85 " style="stroke-width:1; stroke:black; fill:white; " id="dummy-18_h18_1_24" class="clusterblast-orf"  />
</g>
<g id="a18_0025"  >
<polygon locus_tag="sccontig008-64" description="&lt;b&gt;sccontig008-64&lt;/b&gt;&lt;br&gt;pectin lyase fold/virulence factor&lt;br&gt;Location: 126560 - 124506" points="159,85 164,80 169,80 169,90 164,90 159,85 " style="stroke-width:1; stroke:black; fill:white; " id="dummy-18_h18_1_25" class="clusterblast-orf"  />
</g>
<g id="a18_0026"  >
<polygon locus_tag="sccontig008-63" description="&lt;b&gt;sccontig008-63&lt;/b&gt;&lt;br&gt;GntR family transcriptional regulator&lt;br&gt;Location: 124401 - 123634" points="170,85 174,80 174,90 170,85 " style="stroke-width:1; stroke:black; fill:white; " id="dummy-18_h18_1_26" class="clusterblast-orf"  />
</g>
<g id="a18_0027"  >
<polygon locus_tag="sccontig008-62" description="&lt;b&gt;sccontig008-62&lt;/b&gt;&lt;br&gt;racemase&lt;br&gt;Location: 123514 - 122399" points="174,90 175,90 180,85 175,80 174,80 174,90 " style="stroke-width:1; stroke:black; fill:white; " id="dummy-18_h18_1_27" class="clusterblast-orf"  />
</g>
<g id="a18_0028"  >
<polygon locus_tag="sccontig008-61" description="&lt;b&gt;sccontig008-61&lt;/b&gt;&lt;br&gt;solute-binding protein&lt;br&gt;Location: 122287 - 120923" points="180,90 182,90 187,85 182,80 180,80 180,90 " style="stroke-width:1; stroke:black; fill:white; " id="dummy-18_h18_1_28" class="clusterblast-orf"  />
</g>
<g id="a18_0029"  >
<polygon locus_tag="sccontig008-60" description="&lt;b&gt;sccontig008-60&lt;/b&gt;&lt;br&gt;ABC transporter permease&lt;br&gt;Location: 120913 - 119933" points="187,90 187,90 192,85 187,80 187,80 187,90 " style="stroke-width:1; stroke:black; fill:white; " id="dummy-18_h18_1_29" class="clusterblast-orf"  />
</g>
<g id="a18_0030"  >
<polygon locus_tag="sccontig008-59" description="&lt;b&gt;sccontig008-59&lt;/b&gt;&lt;br&gt;ABC transporter permease&lt;br&gt;Location: 119923 - 118964" points="192,90 192,90 197,85 192,80 192,80 192,90 " style="stroke-width:1; stroke:black; fill:white; " id="dummy-18_h18_1_30" class="clusterblast-orf"  />
</g>
<g id="a18_0031"  >
<polygon locus_tag="sccontig008-58" description="&lt;b&gt;sccontig008-58&lt;/b&gt;&lt;br&gt;glycoside Hydrolase family protein&lt;br&gt;Location: 118869 - 116416" points="197,90 204,90 209,85 204,80 197,80 197,90 " style="stroke-width:1; stroke:black; fill:white; " id="dummy-18_h18_1_31" class="clusterblast-orf"  />
</g>
<g id="a18_0032"  >
<polygon locus_tag="sccontig008-57" description="&lt;b&gt;sccontig008-57&lt;/b&gt;&lt;br&gt;TetR family transcriptional regulator&lt;br&gt;Location: 116373 - 115744" points="209,90 212,85 209,80 209,90 " style="stroke-width:1; stroke:black; fill:white; " id="dummy-18_h18_1_32" class="clusterblast-orf"  />
</g>
<g id="a18_0033"  >
<polygon locus_tag="sccontig008-56" description="&lt;b&gt;sccontig008-56&lt;/b&gt;&lt;br&gt;Na(+)/H(+) antiporter&lt;br&gt;Location: 115573 - 114299" points="213,90 214,90 219,85 214,80 213,80 213,90 " style="stroke-width:1; stroke:black; fill:white; " id="dummy-18_h18_1_33" class="clusterblast-orf"  />
</g>
<g id="a18_0034"  >
<polygon locus_tag="sccontig008-55" description="&lt;b&gt;sccontig008-55&lt;/b&gt;&lt;br&gt;conserved Hypothetical protein&lt;br&gt;Location: 114211 - 112790" points="220,85 225,80 227,80 227,90 225,90 220,85 " style="stroke-width:1; stroke:black; fill:white; " id="dummy-18_h18_1_34" class="clusterblast-orf"  />
</g>
<g id="a18_0035"  >
<polygon locus_tag="sccontig008-54" description="&lt;b&gt;sccontig008-54&lt;/b&gt;&lt;br&gt;conserved Hypothetical protein&lt;br&gt;Location: 112367 - 111081" points="229,90 230,90 235,85 230,80 229,80 229,90 " style="stroke-width:1; stroke:black; fill:white; " id="dummy-18_h18_1_35" class="clusterblast-orf"  />
</g>
<g id="a18_0036"  >
<polygon locus_tag="sccontig008-53" description="&lt;b&gt;sccontig008-53&lt;/b&gt;&lt;br&gt;ABC-type Fe3+-siderophore transporter substrate-binding protein&lt;br&gt;Location: 110761 - 110033" points="237,90 240,85 237,80 237,90 " style="stroke-width:1; stroke:black; fill:white; " id="dummy-18_h18_1_36" class="clusterblast-orf"  />
</g>
<g id="a18_0037"  >
<polygon locus_tag="sccontig008-52" description="&lt;b&gt;sccontig008-52&lt;/b&gt;&lt;br&gt;Fe3+-siderophore ABC transporter permease&lt;br&gt;Location: 110036 - 108993" points="240,90 240,90 245,85 240,80 240,80 240,90 " style="stroke-width:1; stroke:black; fill:white; " id="dummy-18_h18_1_37" class="clusterblast-orf"  />
</g>
<g id="a18_0038"  >
<polygon locus_tag="sccontig008-51" description="&lt;b&gt;sccontig008-51&lt;/b&gt;&lt;br&gt;Fe3+ siderophore ABC transporter permease&lt;br&gt;Location: 108996 - 107944" points="245,90 246,90 251,85 246,80 245,80 245,90 " style="stroke-width:1; stroke:black; fill:white; " id="dummy-18_h18_1_38" class="clusterblast-orf"  />
</g>
<g id="a18_0039"  >
<polygon locus_tag="sccontig008-50" description="&lt;b&gt;sccontig008-50&lt;/b&gt;&lt;br&gt;ABC-type Fe3+-siderophore transporter ATP-binding protein&lt;br&gt;Location: 107947 - 107120" points="251,90 255,85 251,80 251,90 " style="stroke-width:1; stroke:black; fill:white; " id="dummy-18_h18_1_39" class="clusterblast-orf"  />
</g>
<g id="a18_0040"  >
<polygon locus_tag="sccontig008-49" description="&lt;b&gt;sccontig008-49&lt;/b&gt;&lt;br&gt;putative secreted protein&lt;br&gt;Location: 107144 - 104343" points="255,85 260,80 268,80 268,90 260,90 255,85 " style="stroke-width:1; stroke:black; fill:white; " id="dummy-18_h18_1_40" class="clusterblast-orf"  />
</g>
<g id="a18_0041"  >
<polygon locus_tag="sccontig008-48" description="&lt;b&gt;sccontig008-48&lt;/b&gt;&lt;br&gt;mandelate racemase/muconate lactonizing protein&lt;br&gt;Location: 104035 - 102764&lt;br&gt;&lt;br&gt;&lt;b&gt;BlastP hit with SSMG_04367&lt;/b&gt;&lt;br&gt;Percentage identity: 60&lt;br&gt;Percentage coverage: 100&lt;br&gt;BLAST bit score: 521&lt;br&gt;E-value: 1.1e-147" points="270,85 275,80 276,80 276,90 275,90 270,85 " style="stroke-width:1; stroke:black; fill:#d81515; " id="dummy-18_h18_1_41" class="clusterblast-orf"  />
</g>
<g id="a18_0042"  >
<polygon locus_tag="sccontig008-47" description="&lt;b&gt;sccontig008-47&lt;/b&gt;&lt;br&gt;5-dehydro-4-deoxyglucarate dehydratase&lt;br&gt;Location: 102764 - 101847&lt;br&gt;&lt;br&gt;&lt;b&gt;BlastP hit with SSMG_04368&lt;/b&gt;&lt;br&gt;Percentage identity: 49&lt;br&gt;Percentage coverage: 97&lt;br&gt;BLAST bit score: 276&lt;br&gt;E-value: 4.5e-74" points="276,85 281,80 281,80 281,90 281,90 276,85 " style="stroke-width:1; stroke:black; fill:#15d8d8; " id="dummy-18_h18_1_42" class="clusterblast-orf"  />
</g>
<g id="a18_0043"  >
<polygon locus_tag="sccontig008-46" description="&lt;b&gt;sccontig008-46&lt;/b&gt;&lt;br&gt;major facilitator superfamily protein&lt;br&gt;Location: 101473 - 100109" points="282,90 284,90 289,85 284,80 282,80 282,90 " style="stroke-width:1; stroke:black; fill:white; " id="dummy-18_h18_1_43" class="clusterblast-orf"  />
</g>
<g id="a18_0044"  >
<polygon locus_tag="sccontig008-45" description="&lt;b&gt;sccontig008-45&lt;/b&gt;&lt;br&gt;integral membrane transporter&lt;br&gt;Location: 100004 - 98571" points="290,85 295,80 297,80 297,90 295,90 290,85 " style="stroke-width:1; stroke:black; fill:white; " id="dummy-18_h18_1_44" class="clusterblast-orf"  />
</g>
<g id="a18_0045"  >
<polygon locus_tag="sccontig008-44" description="&lt;b&gt;sccontig008-44&lt;/b&gt;&lt;br&gt;Merr family transcriptional regulator&lt;br&gt;Location: 98088 - 97678" points="299,90 301,85 299,80 299,90 " style="stroke-width:1; stroke:black; fill:white; " id="dummy-18_h18_1_45" class="clusterblast-orf"  />
</g>
<g id="a18_0046"  >
<polygon locus_tag="sccontig008-43" description="&lt;b&gt;sccontig008-43&lt;/b&gt;&lt;br&gt;GntR family transcriptional regulator&lt;br&gt;Location: 97624 - 96911" points="301,85 305,80 305,90 301,85 " style="stroke-width:1; stroke:black; fill:white; " id="dummy-18_h18_1_46" class="clusterblast-orf"  />
</g>
<g id="a18_0047"  >
<polygon locus_tag="sccontig008-42" description="&lt;b&gt;sccontig008-42&lt;/b&gt;&lt;br&gt;putative membrane transport protein&lt;br&gt;Location: 96529 - 95132" points="307,90 308,90 313,85 308,80 307,80 307,90 " style="stroke-width:1; stroke:black; fill:white; " id="dummy-18_h18_1_47" class="clusterblast-orf"  />
</g>
<g id="a18_0048"  >
<polygon locus_tag="sccontig008-41" description="&lt;b&gt;sccontig008-41&lt;/b&gt;&lt;br&gt;L-idonate 5-dehydrogenase&lt;br&gt;Location: 95135 - 94086" points="313,90 314,90 319,85 314,80 313,80 313,90 " style="stroke-width:1; stroke:black; fill:white; " id="dummy-18_h18_1_48" class="clusterblast-orf"  />
</g>
<g id="a18_0049"  >
<polygon locus_tag="sccontig008-40" description="&lt;b&gt;sccontig008-40&lt;/b&gt;&lt;br&gt;hypothetical protein&lt;br&gt;Location: 93962 - 93591" points="319,90 321,85 319,80 319,90 " style="stroke-width:1; stroke:black; fill:white; " id="dummy-18_h18_1_49" class="clusterblast-orf"  />
</g>
<g id="a18_0050"  >
<polygon locus_tag="sccontig008-39" description="&lt;b&gt;sccontig008-39&lt;/b&gt;&lt;br&gt;hypothetical protein&lt;br&gt;Location: 93572 - 93378" points="321,85 322,80 322,90 321,85 " style="stroke-width:1; stroke:black; fill:white; " id="dummy-18_h18_1_50" class="clusterblast-orf"  />
</g>
<g id="a18_0051"  >
<polygon locus_tag="sccontig008-38" description="&lt;b&gt;sccontig008-38&lt;/b&gt;&lt;br&gt;putative secreted protein&lt;br&gt;Location: 93265 - 92399" points="323,85 327,80 327,90 323,85 " style="stroke-width:1; stroke:black; fill:white; " id="dummy-18_h18_1_51" class="clusterblast-orf"  />
</g>
<g id="a18_0052"  >
<polygon locus_tag="sccontig008-37" description="&lt;b&gt;sccontig008-37&lt;/b&gt;&lt;br&gt;acyl-CoA dehydrogenase&lt;br&gt;Location: 92231 - 91053" points="328,85 333,80 333,80 333,90 333,90 328,85 " style="stroke-width:1; stroke:black; fill:white; " id="dummy-18_h18_1_52" class="clusterblast-orf"  />
</g>
<g id="a18_0053"  >
<polygon locus_tag="sccontig008-36" description="&lt;b&gt;sccontig008-36&lt;/b&gt;&lt;br&gt;acyl-CoA dehydrogenase&lt;br&gt;Location: 91056 - 89821" points="333,85 338,80 339,80 339,90 338,90 333,85 " style="stroke-width:1; stroke:black; fill:white; " id="dummy-18_h18_1_53" class="clusterblast-orf"  />
</g>
<g id="a18_0054"  >
<polygon locus_tag="sccontig008-35" description="&lt;b&gt;sccontig008-35&lt;/b&gt;&lt;br&gt;oxidoreductase&lt;br&gt;Location: 89821 - 88814" points="339,85 344,80 344,80 344,90 344,90 339,85 " style="stroke-width:1; stroke:black; fill:white; " id="dummy-18_h18_1_54" class="clusterblast-orf"  />
</g>
<g id="a18_0055"  >
<polygon locus_tag="sccontig008-34" description="&lt;b&gt;sccontig008-34&lt;/b&gt;&lt;br&gt;XRE family transcriptional regulator&lt;br&gt;Location: 88777 - 88190" points="345,85 347,80 347,90 345,85 " style="stroke-width:1; stroke:black; fill:white; " id="dummy-18_h18_1_55" class="clusterblast-orf"  />
</g>
<g id="a18_0056"  >
<polygon locus_tag="sccontig008-33" description="&lt;b&gt;sccontig008-33&lt;/b&gt;&lt;br&gt;hypothetical protein&lt;br&gt;Location: 88053 - 87775" points="348,85 349,80 349,90 348,85 " style="stroke-width:1; stroke:black; fill:white; " id="dummy-18_h18_1_56" class="clusterblast-orf"  />
</g>
<g id="a18_0057"  >
<polygon locus_tag="sccontig008-32" description="&lt;b&gt;sccontig008-32&lt;/b&gt;&lt;br&gt;putative prolyl aminopeptidase&lt;br&gt;Location: 87643 - 86300" points="350,85 355,80 357,80 357,90 355,90 350,85 " style="stroke-width:1; stroke:black; fill:white; " id="dummy-18_h18_1_57" class="clusterblast-orf"  />
</g>
<g id="a18_0058"  >
<polygon locus_tag="sccontig008-31" description="&lt;b&gt;sccontig008-31&lt;/b&gt;&lt;br&gt;glycine betaine/L-proline ABC transporter, ATPase subunit&lt;br&gt;Location: 86119 - 84935" points="358,90 358,90 363,85 358,80 358,80 358,90 " style="stroke-width:1; stroke:black; fill:white; " id="dummy-18_h18_1_58" class="clusterblast-orf"  />
</g>
<g id="a18_0059"  >
<polygon locus_tag="sccontig008-30" description="&lt;b&gt;sccontig008-30&lt;/b&gt;&lt;br&gt;putative esterase&lt;br&gt;Location: 84779 - 83808" points="364,90 364,90 369,85 364,80 364,80 364,90 " style="stroke-width:1; stroke:black; fill:white; " id="dummy-18_h18_1_59" class="clusterblast-orf"  />
</g>
<g id="a18_0060"  >
<polygon locus_tag="sccontig008-29" description="&lt;b&gt;sccontig008-29&lt;/b&gt;&lt;br&gt;glycine betaine ABC transporter substrate-binding protein&lt;br&gt;Location: 83884 - 82844" points="369,85 374,80 374,80 374,90 374,90 369,85 " style="stroke-width:1; stroke:black; fill:white; " id="dummy-18_h18_1_60" class="clusterblast-orf"  />
</g>
<g id="a18_0061"  >
<polygon locus_tag="sccontig008-28" description="&lt;b&gt;sccontig008-28&lt;/b&gt;&lt;br&gt;glycine betaine ABC transport system permease protein&lt;br&gt;Location: 82847 - 82173" points="374,85 377,80 377,90 374,85 " style="stroke-width:1; stroke:black; fill:white; " id="dummy-18_h18_1_61" class="clusterblast-orf"  />
</g>
<g id="a18_0062"  >
<polygon locus_tag="sccontig008-27" description="&lt;b&gt;sccontig008-27&lt;/b&gt;&lt;br&gt;ABC transporter permease&lt;br&gt;Location: 82176 - 81496" points="377,85 380,80 380,90 377,85 " style="stroke-width:1; stroke:black; fill:white; " id="dummy-18_h18_1_62" class="clusterblast-orf"  />
</g>
<g id="a18_0063"  >
<polygon locus_tag="sccontig008-26" description="&lt;b&gt;sccontig008-26&lt;/b&gt;&lt;br&gt;cytochrome P450&lt;br&gt;Location: 81153 - 79963" points="382,90 383,90 388,85 383,80 382,80 382,90 " style="stroke-width:1; stroke:black; fill:white; " id="dummy-18_h18_1_63" class="clusterblast-orf"  />
</g>
<g id="a18_0064"  >
<polygon locus_tag="sccontig008-25" description="&lt;b&gt;sccontig008-25&lt;/b&gt;&lt;br&gt;type III polyketide synthase&lt;br&gt;Location: 79953 - 78853" points="388,90 388,90 393,85 388,80 388,80 388,90 " style="stroke-width:1; stroke:black; fill:white; " id="dummy-18_h18_1_64" class="clusterblast-orf"  />
</g>
<g id="a18_0065"  >
<polygon locus_tag="sccontig008-24" description="&lt;b&gt;sccontig008-24&lt;/b&gt;&lt;br&gt;hypothetical protein&lt;br&gt;Location: 78620 - 77832" points="394,90 398,85 394,80 394,90 " style="stroke-width:1; stroke:black; fill:white; " id="dummy-18_h18_1_65" class="clusterblast-orf"  />
</g>
<g id="a18_0066"  >
<polygon locus_tag="sccontig008-23" description="&lt;b&gt;sccontig008-23&lt;/b&gt;&lt;br&gt;hypothetical protein&lt;br&gt;Location: 77772 - 77305" points="398,85 401,80 401,90 398,85 " style="stroke-width:1; stroke:black; fill:white; " id="dummy-18_h18_1_66" class="clusterblast-orf"  />
</g>
<g id="a18_0067"  >
<polygon locus_tag="sccontig008-22" description="&lt;b&gt;sccontig008-22&lt;/b&gt;&lt;br&gt;abhydrolase&lt;br&gt;Location: 77156 - 76320" points="401,90 401,90 406,85 401,80 401,80 401,90 " style="stroke-width:1; stroke:black; fill:white; " id="dummy-18_h18_1_67" class="clusterblast-orf"  />
</g>
<g id="a18_0068"  >
<polygon locus_tag="sccontig008-21" description="&lt;b&gt;sccontig008-21&lt;/b&gt;&lt;br&gt;hypothetical protein&lt;br&gt;Location: 76332 - 75064" points="406,90 407,90 412,85 407,80 406,80 406,90 " style="stroke-width:1; stroke:black; fill:white; " id="dummy-18_h18_1_68" class="clusterblast-orf"  />
</g>
<g id="a18_0069"  >
<polygon locus_tag="sccontig008-20" description="&lt;b&gt;sccontig008-20&lt;/b&gt;&lt;br&gt;GCN5-like N-acetyltransferase&lt;br&gt;Location: 75028 - 74495" points="412,90 415,85 412,80 412,90 " style="stroke-width:1; stroke:black; fill:white; " id="dummy-18_h18_1_69" class="clusterblast-orf"  />
</g>
<g id="a18_0070"  >
<polygon locus_tag="AEZ64507.1" description="&lt;b&gt;AEZ64507.1&lt;/b&gt;&lt;br&gt;Herg&lt;br&gt;Location: 74480 - 73212" points="415,85 420,80 421,80 421,90 420,90 415,85 " style="stroke-width:1; stroke:black; fill:white; " id="dummy-18_h18_1_70" class="clusterblast-orf"  />
</g>
<g id="a18_0071"  >
<polygon locus_tag="AEZ64598.1" description="&lt;b&gt;AEZ64598.1&lt;/b&gt;&lt;br&gt;Herf&lt;br&gt;Location: 73069 - 72176" points="422,85 426,80 426,90 422,85 " style="stroke-width:1; stroke:black; fill:white; " id="dummy-18_h18_1_71" class="clusterblast-orf"  />
</g>
<g id="a18_0072"  >
<polygon locus_tag="AEZ64506.1" description="&lt;b&gt;AEZ64506.1&lt;/b&gt;&lt;br&gt;Here&lt;br&gt;Location: 72179 - 70746" points="426,85 431,80 433,80 433,90 431,90 426,85 " style="stroke-width:1; stroke:black; fill:white; " id="dummy-18_h18_1_72" class="clusterblast-orf"  />
</g>
<g id="a18_0073"  >
<polygon locus_tag="AEZ64503.1" description="&lt;b&gt;AEZ64503.1&lt;/b&gt;&lt;br&gt;Herd&lt;br&gt;Location: 70616 - 64524" points="434,85 439,80 463,80 463,90 439,90 434,85 " style="stroke-width:1; stroke:black; fill:white; " id="dummy-18_h18_1_73" class="clusterblast-orf"  />
</g>
<g id="a18_0074"  >
<polygon locus_tag="AEZ64504.1" description="&lt;b&gt;AEZ64504.1&lt;/b&gt;&lt;br&gt;Herc&lt;br&gt;Location: 64527 - 43111" points="463,85 468,80 568,80 568,90 468,90 463,85 " style="stroke-width:1; stroke:black; fill:white; " id="dummy-18_h18_1_74" class="clusterblast-orf"  />
</g>
<g id="a18_0075"  >
<polygon locus_tag="AEZ64505.1" description="&lt;b&gt;AEZ64505.1&lt;/b&gt;&lt;br&gt;Herb&lt;br&gt;Location: 42969 - 23785" points="569,85 574,80 663,80 663,90 574,90 569,85 " style="stroke-width:1; stroke:black; fill:white; " id="dummy-18_h18_1_75" class="clusterblast-orf"  />
</g>
<g id="a18_0076"  >
<polygon locus_tag="AEZ64508.1" description="&lt;b&gt;AEZ64508.1&lt;/b&gt;&lt;br&gt;Hera&lt;br&gt;Location: 22474 - 21446" points="669,85 674,80 674,80 674,90 674,90 669,85 " style="stroke-width:1; stroke:black; fill:white; " id="dummy-18_h18_1_76" class="clusterblast-orf"  />
</g>
<g id="a18_0077"  >
<polygon locus_tag="sccontig008-19" description="&lt;b&gt;sccontig008-19&lt;/b&gt;&lt;br&gt;xylose isomerase domain-containing protein&lt;br&gt;Location: 21263 - 20478" points="675,90 679,85 675,80 675,90 " style="stroke-width:1; stroke:black; fill:white; " id="dummy-18_h18_1_77" class="clusterblast-orf"  />
</g>
<g id="a18_0078"  >
<polygon locus_tag="sccontig008-18" description="&lt;b&gt;sccontig008-18&lt;/b&gt;&lt;br&gt;inositol 2-dehydrogenase&lt;br&gt;Location: 20408 - 19386" points="680,90 680,90 685,85 680,80 680,80 680,90 " style="stroke-width:1; stroke:black; fill:white; " id="dummy-18_h18_1_78" class="clusterblast-orf"  />
</g>
<g id="a18_0079"  >
<polygon locus_tag="sccontig008-17" description="&lt;b&gt;sccontig008-17&lt;/b&gt;&lt;br&gt;hydrogenase nickel incorporation protein Hypb&lt;br&gt;Location: 19385 - 18576" points="685,85 688,80 688,90 685,85 " style="stroke-width:1; stroke:black; fill:white; " id="dummy-18_h18_1_79" class="clusterblast-orf"  />
</g>
<g id="a18_0080"  >
<polygon locus_tag="sccontig008-16" description="&lt;b&gt;sccontig008-16&lt;/b&gt;&lt;br&gt;hydrogenase nickel incorporation protein Hypa&lt;br&gt;Location: 18571 - 18242" points="689,85 690,80 690,90 689,85 " style="stroke-width:1; stroke:black; fill:white; " id="dummy-18_h18_1_80" class="clusterblast-orf"  />
</g>
<g id="a18_0081"  >
<polygon locus_tag="sccontig008-15" description="&lt;b&gt;sccontig008-15&lt;/b&gt;&lt;br&gt;Nife Hydrogenase i small subunit, Hyaa&lt;br&gt;Location: 17978 - 17010" points="691,90 691,90 696,85 691,80 691,80 691,90 " style="stroke-width:1; stroke:black; fill:white; " id="dummy-18_h18_1_81" class="clusterblast-orf"  />
</g>
<g id="a18_0082"  >
<polygon locus_tag="sccontig008-14" description="&lt;b&gt;sccontig008-14&lt;/b&gt;&lt;br&gt;Nife Hydrogenase i large subunit, Hyab&lt;br&gt;Location: 16977 - 15205" points="696,90 700,90 705,85 700,80 696,80 696,90 " style="stroke-width:1; stroke:black; fill:white; " id="dummy-18_h18_1_82" class="clusterblast-orf"  />
</g>
<g id="a18_0083"  >
<polygon locus_tag="sccontig008-13" description="&lt;b&gt;sccontig008-13&lt;/b&gt;&lt;br&gt;nitrogen fixation protein&lt;br&gt;Location: 15203 - 14208" points="705,90 705,90 710,85 705,80 705,80 705,90 " style="stroke-width:1; stroke:black; fill:white; " id="dummy-18_h18_1_83" class="clusterblast-orf"  />
</g>
<g id="a18_0084"  >
<polygon locus_tag="sccontig008-12" description="&lt;b&gt;sccontig008-12&lt;/b&gt;&lt;br&gt;hypothetical protein&lt;br&gt;Location: 14211 - 13501" points="710,90 713,85 710,80 710,90 " style="stroke-width:1; stroke:black; fill:white; " id="dummy-18_h18_1_84" class="clusterblast-orf"  />
</g>
<g id="a18_0085"  >
<polygon locus_tag="sccontig008-11" description="&lt;b&gt;sccontig008-11&lt;/b&gt;&lt;br&gt;conserved Hypothetical protein&lt;br&gt;Location: 13504 - 12788" points="713,90 717,85 713,80 713,90 " style="stroke-width:1; stroke:black; fill:white; " id="dummy-18_h18_1_85" class="clusterblast-orf"  />
</g>
<g id="a18_0086"  >
<polygon locus_tag="sccontig008-10" description="&lt;b&gt;sccontig008-10&lt;/b&gt;&lt;br&gt;hypothetical protein&lt;br&gt;Location: 12791 - 11280" points="717,90 719,90 724,85 719,80 717,80 717,90 " style="stroke-width:1; stroke:black; fill:white; " id="dummy-18_h18_1_86" class="clusterblast-orf"  />
</g>
<g id="a18_0087"  >
<polygon locus_tag="sccontig008-9" description="&lt;b&gt;sccontig008-9&lt;/b&gt;&lt;br&gt;hydrogenase maturation factor, Hyad&lt;br&gt;Location: 11115 - 10585" points="725,90 728,85 725,80 725,90 " style="stroke-width:1; stroke:black; fill:white; " id="dummy-18_h18_1_87" class="clusterblast-orf"  />
</g>
<g id="a18_0088"  >
<polygon locus_tag="sccontig008-8" description="&lt;b&gt;sccontig008-8&lt;/b&gt;&lt;br&gt;hydrogenase maturation protein Hypf&lt;br&gt;Location: 10580 - 7977" points="728,90 735,90 740,85 735,80 728,80 728,90 " style="stroke-width:1; stroke:black; fill:white; " id="dummy-18_h18_1_88" class="clusterblast-orf"  />
</g>
<g id="a18_0089"  >
<polygon locus_tag="sccontig008-7" description="&lt;b&gt;sccontig008-7&lt;/b&gt;&lt;br&gt;hydrogenase assembly chaperone HypC/hupf&lt;br&gt;Location: 7866 - 7570" points="741,90 742,85 741,80 741,90 " style="stroke-width:1; stroke:black; fill:white; " id="dummy-18_h18_1_89" class="clusterblast-orf"  />
</g>
<g id="a18_0090"  >
<polygon locus_tag="sccontig008-6" description="&lt;b&gt;sccontig008-6&lt;/b&gt;&lt;br&gt;hydrogenase maturation protein Hypd&lt;br&gt;Location: 7573 - 6470" points="742,90 743,90 748,85 743,80 742,80 742,90 " style="stroke-width:1; stroke:black; fill:white; " id="dummy-18_h18_1_90" class="clusterblast-orf"  />
</g>
<g id="a18_0091"  >
<polygon locus_tag="sccontig008-5" description="&lt;b&gt;sccontig008-5&lt;/b&gt;&lt;br&gt;hydrogenase maturation protein Hype&lt;br&gt;Location: 6473 - 5322" points="748,90 748,90 753,85 748,80 748,80 748,90 " style="stroke-width:1; stroke:black; fill:white; " id="dummy-18_h18_1_91" class="clusterblast-orf"  />
</g>
<g id="a18_0092"  >
<polygon locus_tag="sccontig008-4" description="&lt;b&gt;sccontig008-4&lt;/b&gt;&lt;br&gt;hypothetical protein&lt;br&gt;Location: 5321 - 4581" points="753,90 757,85 753,80 753,90 " style="stroke-width:1; stroke:black; fill:white; " id="dummy-18_h18_1_92" class="clusterblast-orf"  />
</g>
<g id="a18_0093"  >
<polygon locus_tag="sccontig008-3" description="&lt;b&gt;sccontig008-3&lt;/b&gt;&lt;br&gt;oxidoreductase&lt;br&gt;Location: 4519 - 2966" points="757,90 760,90 765,85 760,80 757,80 757,90 " style="stroke-width:1; stroke:black; fill:white; " id="dummy-18_h18_1_93" class="clusterblast-orf"  />
</g>
<g id="a18_0094"  >
<polygon locus_tag="sccontig008-2" description="&lt;b&gt;sccontig008-2&lt;/b&gt;&lt;br&gt;deoxyribodipyrimidine photolyase&lt;br&gt;Location: 2969 - 1584" points="765,90 767,90 772,85 767,80 765,80 765,90 " style="stroke-width:1; stroke:black; fill:white; " id="dummy-18_h18_1_94" class="clusterblast-orf"  />
</g>
<g id="a18_0095"  >
<polygon locus_tag="sccontig008-1" description="&lt;b&gt;sccontig008-1&lt;/b&gt;&lt;br&gt;hypothetical protein&lt;br&gt;Location: 1057 - 1" points="774,90 775,90 780,85 775,80 774,80 774,90 " style="stroke-width:1; stroke:black; fill:white; " id="dummy-18_h18_1_95" class="clusterblast-orf"  />
</g>
</svg>
