<svg version="1.1" xmlns="http://www.w3.org/2000/svg" height="230" width="800" xmlns:xlink="http://www.w3.org/1999/xlink" preserveAspectRatio="none" x="0" y="0" viewBox="0 0 800 230"  >
<g label="Query sequence" class="clusterblast-cluster"  >
<text class="clusterblast-acc" y="20" x="5"  >
Query sequence</text>
<line x1="10" x2="778.0" y2="35" style="stroke-width:1; stroke:grey; " y1="35"  />
<polygon locus_tag="SSMG_02720" description="&lt;b&gt;SSMG_02720&lt;/b&gt;&lt;br&gt;beta-1,3-glucanase&lt;br&gt;Location: 2943276 - 2944449" points="0,35 5,30 37,30 37,40 5,40 0,35 " style="stroke-width:1; stroke:black; fill:white; " id="dummy-9_q0_0_all" class="clusterblast-orf"  />
<polygon locus_tag="SSMG_02721" description="&lt;b&gt;SSMG_02721&lt;/b&gt;&lt;br&gt;chitin-binding domain-containing protein&lt;br&gt;Location: 2944638 - 2945157" points="43,35 48,30 59,30 59,40 48,40 43,35 " style="stroke-width:1; stroke:black; fill:white; " id="dummy-9_q1_0_all" class="clusterblast-orf"  />
<polygon locus_tag="SSMG_02722" description="&lt;b&gt;SSMG_02722&lt;/b&gt;&lt;br&gt;LysR-family transcriptional regulator&lt;br&gt;Location: 2945951 - 2946902" points="84,35 89,30 114,30 114,40 89,40 84,35 " style="stroke-width:1; stroke:black; fill:white; " id="dummy-9_q2_0_all" class="clusterblast-orf"  />
<polygon locus_tag="SSMG_02723" description="&lt;b&gt;SSMG_02723&lt;/b&gt;&lt;br&gt;hypothetical protein&lt;br&gt;Location: 2946986 - 2948312" points="116,40 153,40 158,35 153,30 116,30 116,40 " style="stroke-width:1; stroke:black; fill:white; " id="dummy-9_q3_0_all" class="clusterblast-orf"  />
<polygon locus_tag="SSMG_02724" description="&lt;b&gt;SSMG_02724&lt;/b&gt;&lt;br&gt;IS901 protein&lt;br&gt;Location: 2948210 - 2949422" points="155,35 160,30 193,30 193,40 160,40 155,35 " style="stroke-width:1; stroke:black; fill:white; " id="dummy-9_q4_0_all" class="clusterblast-orf"  />
<polygon locus_tag="SSMG_02725" description="&lt;b&gt;SSMG_02725&lt;/b&gt;&lt;br&gt;conserved hypothetical protein&lt;br&gt;Location: 2949650 - 2950073" points="200,40 208,40 213,35 208,30 200,30 200,40 " style="stroke-width:1; stroke:black; fill:white; " id="dummy-9_q5_0_all" class="clusterblast-orf"  />
<polygon locus_tag="SSMG_02726" description="&lt;b&gt;SSMG_02726&lt;/b&gt;&lt;br&gt;radical SAM domain-containing protein&lt;br&gt;Location: 2950637 - 2951639" points="231,35 236,30 262,30 262,40 236,40 231,35 " style="stroke-width:1; stroke:black; fill:#d81515; " id="dummy-9_q6_0_all" class="clusterblast-orf"  />
<polygon locus_tag="SSMG_02727" description="&lt;b&gt;SSMG_02727&lt;/b&gt;&lt;br&gt;LytB protein&lt;br&gt;Location: 2951642 - 2953106" points="262,35 267,30 308,30 308,40 267,40 262,35 " style="stroke-width:1; stroke:black; fill:#15d815; " id="dummy-9_q7_0_all" class="clusterblast-orf"  />
<polygon locus_tag="SSMG_02728" description="&lt;b&gt;SSMG_02728&lt;/b&gt;&lt;br&gt;squalene-hopene cyclase&lt;br&gt;Location: 2953102 - 2955016" points="308,35 313,30 368,30 368,40 313,40 308,35 " style="stroke-width:1; stroke:black; fill:#1515d8; " id="dummy-9_q8_0_all" class="clusterblast-orf"  />
<polygon locus_tag="SSMG_02729" description="&lt;b&gt;SSMG_02729&lt;/b&gt;&lt;br&gt;polyprenyl diphosphate synthase&lt;br&gt;Location: 2955012 - 2956044" points="368,35 373,30 400,30 400,40 373,40 368,35 " style="stroke-width:1; stroke:black; fill:#d815d8; " id="dummy-9_q9_0_all" class="clusterblast-orf"  />
<polygon locus_tag="SSMG_02730" description="&lt;b&gt;SSMG_02730&lt;/b&gt;&lt;br&gt;phytoene desaturase&lt;br&gt;Location: 2956040 - 2957378" points="400,35 405,30 442,30 442,40 405,40 400,35 " style="stroke-width:1; stroke:black; fill:#d8d815; " id="dummy-9_q10_0_all" class="clusterblast-orf"  />
<polygon locus_tag="SSMG_02731" description="&lt;b&gt;SSMG_02731&lt;/b&gt;&lt;br&gt;squalene synthase HpnD&lt;br&gt;Location: 2957374 - 2958286" points="442,35 447,30 471,30 471,40 447,40 442,35 " style="stroke-width:1; stroke:black; fill:#15d8d8; " id="dummy-9_q11_0_all" class="clusterblast-orf"  />
<polygon locus_tag="SSMG_02732" description="&lt;b&gt;SSMG_02732&lt;/b&gt;&lt;br&gt;squalene synthase HpnC&lt;br&gt;Location: 2958240 - 2959029" points="469,35 474,30 494,30 494,40 474,40 469,35 " style="stroke-width:1; stroke:black; fill:white; " id="dummy-9_q12_0_all" class="clusterblast-orf"  />
<polygon locus_tag="SSMG_02733" description="&lt;b&gt;SSMG_02733&lt;/b&gt;&lt;br&gt;predicted protein&lt;br&gt;Location: 2959080 - 2960454" points="495,40 534,40 539,35 534,30 495,30 495,40 " style="stroke-width:1; stroke:black; fill:white; " id="dummy-9_q13_0_all" class="clusterblast-orf"  />
<polygon locus_tag="SSMG_02734" description="&lt;b&gt;SSMG_02734&lt;/b&gt;&lt;br&gt;2-hydroxycyclohexanecarboxyl-CoA dehydrogenase&lt;br&gt;Location: 2960567 - 2961398" points="542,35 547,30 568,30 568,40 547,40 542,35 " style="stroke-width:1; stroke:black; fill:white; " id="dummy-9_q14_0_all" class="clusterblast-orf"  />
<polygon locus_tag="SSMG_02735" description="&lt;b&gt;SSMG_02735&lt;/b&gt;&lt;br&gt;predicted protein&lt;br&gt;Location: 2961316 - 2961982" points="566,35 571,30 586,30 586,40 571,40 566,35 " style="stroke-width:1; stroke:black; fill:white; " id="dummy-9_q15_0_all" class="clusterblast-orf"  />
<polygon locus_tag="SSMG_02736" description="&lt;b&gt;SSMG_02736&lt;/b&gt;&lt;br&gt;predicted protein&lt;br&gt;Location: 2962143 - 2963064" points="592,40 615,40 620,35 615,30 592,30 592,40 " style="stroke-width:1; stroke:black; fill:white; " id="dummy-9_q16_0_all" class="clusterblast-orf"  />
<polygon locus_tag="SSMG_02737" description="&lt;b&gt;SSMG_02737&lt;/b&gt;&lt;br&gt;predicted protein&lt;br&gt;Location: 2963089 - 2965924" points="621,40 705,40 710,35 705,30 621,30 621,40 " style="stroke-width:1; stroke:black; fill:white; " id="dummy-9_q17_0_all" class="clusterblast-orf"  />
<polygon locus_tag="SSMG_02738" description="&lt;b&gt;SSMG_02738&lt;/b&gt;&lt;br&gt;conserved hypothetical protein&lt;br&gt;Location: 2965924 - 2966659" points="710,35 715,30 733,30 733,40 715,40 710,35 " style="stroke-width:1; stroke:black; fill:white; " id="dummy-9_q18_0_all" class="clusterblast-orf"  />
<polygon locus_tag="SSMG_02739" description="&lt;b&gt;SSMG_02739&lt;/b&gt;&lt;br&gt;peptide-methionine (S)-S-oxide reductase&lt;br&gt;Location: 2966662 - 2967160" points="733,35 738,30 749,30 749,40 738,40 733,35 " style="stroke-width:1; stroke:black; fill:white; " id="dummy-9_q19_0_all" class="clusterblast-orf"  />
<polygon locus_tag="SSMG_02740" description="&lt;b&gt;SSMG_02740&lt;/b&gt;&lt;br&gt;predicted protein&lt;br&gt;Location: 2967240 - 2968146" points="751,35 756,30 780,30 780,40 756,40 751,35 " style="stroke-width:1; stroke:black; fill:white; " id="dummy-9_q20_0_all" class="clusterblast-orf"  />
</g>
<g label="BGC0000663" description="BGC0000663_c1: hopene (38% of genes show similarity), Terpene" class="clusterblast-cluster"  >
<text class="clusterblast-acc" y="70" x="5"  >
<a xlink:href="https://mibig.secondarymetabolites.org/go/BGC0000663/1" target="_blank">BGC0000663</a>:                                                                           hopene (38% of genes show similarity), Terpene</text>
<line x1="10" x2="778.0" y2="85" style="stroke-width:1; stroke:grey; " y1="85"  />
</g>
<g id="a9_000"  >
<polygon locus_tag="CAB39704.1" description="&lt;b&gt;CAB39704.1&lt;/b&gt;&lt;br&gt;putative small hydrophobic secreted protein&lt;br&gt;Location: 13757 - 13638" points="174,85 178,80 178,90 174,85 " style="stroke-width:1; stroke:black; fill:white; " id="dummy-9_h9_1_0" class="clusterblast-orf"  />
</g>
<g id="a9_001"  >
<polygon locus_tag="CAB39703.1" description="&lt;b&gt;CAB39703.1&lt;/b&gt;&lt;br&gt;putative DNA-binding protein&lt;br&gt;Location: 13641 - 13027" points="177,85 182,80 197,80 197,90 182,90 177,85 " style="stroke-width:1; stroke:black; fill:white; " id="dummy-9_h9_1_1" class="clusterblast-orf"  />
</g>
<g id="a9_002"  >
<polygon locus_tag="CAB39702.1" description="&lt;b&gt;CAB39702.1&lt;/b&gt;&lt;br&gt;probable aminotransferase&lt;br&gt;Location: 12953 - 11568" points="199,85 204,80 242,80 242,90 204,90 199,85 " style="stroke-width:1; stroke:black; fill:white; " id="dummy-9_h9_1_2" class="clusterblast-orf"  />
</g>
<g id="a9_003"  >
<polygon locus_tag="CAB39701.1" description="&lt;b&gt;CAB39701.1&lt;/b&gt;&lt;br&gt;probable transketolase&lt;br&gt;Location: 11567 - 9597" points="242,85 247,80 304,80 304,90 247,90 242,85 " style="stroke-width:1; stroke:black; fill:white; " id="dummy-9_h9_1_3" class="clusterblast-orf"  />
</g>
<g id="a9_004"  >
<polygon locus_tag="CAB39700.1" description="&lt;b&gt;CAB39700.1&lt;/b&gt;&lt;br&gt;GcpE protein homolog, conserved hypothetical protein&lt;br&gt;Location: 9571 - 8417" points="305,85 310,80 341,80 341,90 310,90 305,85 " style="stroke-width:1; stroke:black; fill:white; " id="dummy-9_h9_1_4" class="clusterblast-orf"  />
</g>
<g id="a9_005"  >
<polygon locus_tag="CAB39699.1" description="&lt;b&gt;CAB39699.1&lt;/b&gt;&lt;br&gt;conserved hypothetical protein&lt;br&gt;Location: 8412 - 7390&lt;br&gt;&lt;br&gt;&lt;b&gt;BlastP hit with SSMG_02726&lt;/b&gt;&lt;br&gt;Percentage identity: 72&lt;br&gt;Percentage coverage: 99&lt;br&gt;BLAST bit score: 514&lt;br&gt;E-value: 1.4e-145" points="341,85 346,80 373,80 373,90 346,90 341,85 " style="stroke-width:1; stroke:black; fill:#d81515; " id="dummy-9_h9_1_5" class="clusterblast-orf"  />
</g>
<g id="a9_006"  >
<polygon locus_tag="CAB39698.1" description="&lt;b&gt;CAB39698.1&lt;/b&gt;&lt;br&gt;putative lipoprotein&lt;br&gt;Location: 7383 - 6742" points="374,85 379,80 394,80 394,90 379,90 374,85 " style="stroke-width:1; stroke:black; fill:white; " id="dummy-9_h9_1_6" class="clusterblast-orf"  />
</g>
<g id="a9_007"  >
<polygon locus_tag="CAB39697.1" description="&lt;b&gt;CAB39697.1&lt;/b&gt;&lt;br&gt;putative squalene-hopene cyclase&lt;br&gt;Location: 6742 - 4700&lt;br&gt;&lt;br&gt;&lt;b&gt;BlastP hit with SSMG_02728&lt;/b&gt;&lt;br&gt;Percentage identity: 61&lt;br&gt;Percentage coverage: 100&lt;br&gt;BLAST bit score: 736&lt;br&gt;E-value: 4.3e-212" points="394,85 399,80 458,80 458,90 399,90 394,85 " style="stroke-width:1; stroke:black; fill:#1515d8; " id="dummy-9_h9_1_7" class="clusterblast-orf"  />
</g>
<g id="a9_008"  >
<polygon locus_tag="CAB39696.1" description="&lt;b&gt;CAB39696.1&lt;/b&gt;&lt;br&gt;putative polyprenyl synthatase&lt;br&gt;Location: 4583 - 3447&lt;br&gt;&lt;br&gt;&lt;b&gt;BlastP hit with SSMG_02729&lt;/b&gt;&lt;br&gt;Percentage identity: 51&lt;br&gt;Percentage coverage: 100&lt;br&gt;BLAST bit score: 310&lt;br&gt;E-value: 3.1e-84" points="462,85 467,80 497,80 497,90 467,90 462,85 " style="stroke-width:1; stroke:black; fill:#d815d8; " id="dummy-9_h9_1_8" class="clusterblast-orf"  />
</g>
<g id="a9_009"  >
<polygon locus_tag="CAB39695.1" description="&lt;b&gt;CAB39695.1&lt;/b&gt;&lt;br&gt;putative phytoene dehydrogenase&lt;br&gt;Location: 3450 - 2014&lt;br&gt;&lt;br&gt;&lt;b&gt;BlastP hit with SSMG_02730&lt;/b&gt;&lt;br&gt;Percentage identity: 57&lt;br&gt;Percentage coverage: 91&lt;br&gt;BLAST bit score: 408&lt;br&gt;E-value: 1.9e-113" points="497,85 502,80 542,80 542,90 502,90 497,85 " style="stroke-width:1; stroke:black; fill:#d8d815; " id="dummy-9_h9_1_9" class="clusterblast-orf"  />
</g>
<g id="a9_0010"  >
<polygon locus_tag="CAB39694.1" description="&lt;b&gt;CAB39694.1&lt;/b&gt;&lt;br&gt;small hypothetical protein&lt;br&gt;Location: 2017 - 1859" points="542,85 547,80 547,80 547,90 547,90 542,85 " style="stroke-width:1; stroke:black; fill:white; " id="dummy-9_h9_1_10" class="clusterblast-orf"  />
</g>
<g id="a9_0011"  >
<polygon locus_tag="CAB39693.1" description="&lt;b&gt;CAB39693.1&lt;/b&gt;&lt;br&gt;putative phytoene synthase&lt;br&gt;Location: 1859 - 921&lt;br&gt;&lt;br&gt;&lt;b&gt;BlastP hit with SSMG_02731&lt;/b&gt;&lt;br&gt;Percentage identity: 52&lt;br&gt;Percentage coverage: 95&lt;br&gt;BLAST bit score: 277&lt;br&gt;E-value: 2e-74" points="547,85 552,80 576,80 576,90 552,90 547,85 " style="stroke-width:1; stroke:black; fill:#15d8d8; " id="dummy-9_h9_1_11" class="clusterblast-orf"  />
</g>
<g id="a9_0012"  >
<polygon locus_tag="CAB39692.1" description="&lt;b&gt;CAB39692.1&lt;/b&gt;&lt;br&gt;putative phytoene synthase&lt;br&gt;Location: 912 - 1" points="577,85 582,80 605,80 605,90 582,90 577,85 " style="stroke-width:1; stroke:black; fill:white; " id="dummy-9_h9_1_12" class="clusterblast-orf"  />
</g>
</svg>
