<svg version="1.1" xmlns="http://www.w3.org/2000/svg" height="230" width="800" xmlns:xlink="http://www.w3.org/1999/xlink" preserveAspectRatio="none" x="0" y="0" viewBox="0 0 800 230"  >
<g label="Query sequence" class="clusterblast-cluster"  >
<text class="clusterblast-acc" y="20" x="5"  >
Query sequence</text>
<line x1="10" x2="778.0" y2="35" style="stroke-width:1; stroke:grey; " y1="35"  />
<polygon locus_tag="SSMG_01838" description="&lt;b&gt;SSMG_01838&lt;/b&gt;&lt;br&gt;3-deoxy-7-phosphoheptulonate synthase&lt;br&gt;Location: 1960872 - 1962264" points="0,40 50,40 55,35 50,30 0,30 0,40 " style="stroke-width:1; stroke:black; fill:white; " id="dummy-5_q0_0_all" class="clusterblast-orf"  />
<polygon locus_tag="SSMG_01839" description="&lt;b&gt;SSMG_01839&lt;/b&gt;&lt;br&gt;predicted protein&lt;br&gt;Location: 1962301 - 1963582" points="56,35 61,30 107,30 107,40 61,40 56,35 " style="stroke-width:1; stroke:black; fill:white; " id="dummy-5_q1_0_all" class="clusterblast-orf"  />
<polygon locus_tag="SSMG_01840" description="&lt;b&gt;SSMG_01840&lt;/b&gt;&lt;br&gt;predicted protein&lt;br&gt;Location: 1963699 - 1964383" points="112,35 117,30 139,30 139,40 117,40 112,35 " style="stroke-width:1; stroke:black; fill:white; " id="dummy-5_q2_0_all" class="clusterblast-orf"  />
<polygon locus_tag="SSMG_01841" description="&lt;b&gt;SSMG_01841&lt;/b&gt;&lt;br&gt;band 7 protein&lt;br&gt;Location: 1964382 - 1965861" points="139,35 144,30 197,30 197,40 144,40 139,35 " style="stroke-width:1; stroke:black; fill:white; " id="dummy-5_q3_0_all" class="clusterblast-orf"  />
<polygon locus_tag="SSMG_01842" description="&lt;b&gt;SSMG_01842&lt;/b&gt;&lt;br&gt;conserved hypothetical protein&lt;br&gt;Location: 1965927 - 1966137" points="200,35 205,30 208,30 208,40 205,40 200,35 " style="stroke-width:1; stroke:black; fill:white; " id="dummy-5_q4_0_all" class="clusterblast-orf"  />
<polygon locus_tag="SSMG_01843" description="&lt;b&gt;SSMG_01843&lt;/b&gt;&lt;br&gt;predicted protein&lt;br&gt;Location: 1966133 - 1968149" points="208,35 213,30 288,30 288,40 213,40 208,35 " style="stroke-width:1; stroke:black; fill:white; " id="dummy-5_q5_0_all" class="clusterblast-orf"  />
<polygon locus_tag="SSMG_01844" description="&lt;b&gt;SSMG_01844&lt;/b&gt;&lt;br&gt;transcriptional regulatory protein&lt;br&gt;Location: 1968241 - 1968610" points="291,40 301,40 306,35 301,30 291,30 291,40 " style="stroke-width:1; stroke:black; fill:white; " id="dummy-5_q6_0_all" class="clusterblast-orf"  />
<polygon locus_tag="SSMG_01845" description="&lt;b&gt;SSMG_01845&lt;/b&gt;&lt;br&gt;predicted protein&lt;br&gt;Location: 1968668 - 1969172" points="308,35 313,30 328,30 328,40 313,40 308,35 " style="stroke-width:1; stroke:black; fill:white; " id="dummy-5_q7_0_all" class="clusterblast-orf"  />
<polygon locus_tag="SSMG_01846" description="&lt;b&gt;SSMG_01846&lt;/b&gt;&lt;br&gt;predicted protein&lt;br&gt;Location: 1969132 - 1969843" points="327,35 332,30 355,30 355,40 332,40 327,35 " style="stroke-width:1; stroke:black; fill:white; " id="dummy-5_q8_0_all" class="clusterblast-orf"  />
<polygon locus_tag="SSMG_01847" description="&lt;b&gt;SSMG_01847&lt;/b&gt;&lt;br&gt;predicted protein&lt;br&gt;Location: 1969826 - 1970390" points="354,40 372,40 377,35 372,30 354,30 354,40 " style="stroke-width:1; stroke:black; fill:white; " id="dummy-5_q9_0_all" class="clusterblast-orf"  />
<polygon locus_tag="SSMG_01848" description="&lt;b&gt;SSMG_01848&lt;/b&gt;&lt;br&gt;predicted protein&lt;br&gt;Location: 1970395 - 1970815" points="377,40 388,40 393,35 388,30 377,30 377,40 " style="stroke-width:1; stroke:black; fill:white; " id="dummy-5_q10_0_all" class="clusterblast-orf"  />
<polygon locus_tag="SSMG_01849" description="&lt;b&gt;SSMG_01849&lt;/b&gt;&lt;br&gt;squalene synthase HpnD&lt;br&gt;Location: 1970786 - 1971788" points="392,35 397,30 432,30 432,40 397,40 392,35 " style="stroke-width:1; stroke:black; fill:#d81515; " id="dummy-5_q11_0_all" class="clusterblast-orf"  />
<polygon locus_tag="SSMG_01850" description="&lt;b&gt;SSMG_01850&lt;/b&gt;&lt;br&gt;phytoene desaturase&lt;br&gt;Location: 1971706 - 1973182" points="429,35 434,30 487,30 487,40 434,40 429,35 " style="stroke-width:1; stroke:black; fill:#15d815; " id="dummy-5_q12_0_all" class="clusterblast-orf"  />
<polygon locus_tag="SSMG_01851" description="&lt;b&gt;SSMG_01851&lt;/b&gt;&lt;br&gt;geranylgeranyl pyrophosphate synthase&lt;br&gt;Location: 1973181 - 1974309" points="487,35 492,30 532,30 532,40 492,40 487,35 " style="stroke-width:1; stroke:black; fill:#1515d8; " id="dummy-5_q13_0_all" class="clusterblast-orf"  />
<polygon locus_tag="SSMG_01852" description="&lt;b&gt;SSMG_01852&lt;/b&gt;&lt;br&gt;predicted protein&lt;br&gt;Location: 1974344 - 1975094" points="533,35 538,30 563,30 563,40 538,40 533,35 " style="stroke-width:1; stroke:black; fill:white; " id="dummy-5_q14_0_all" class="clusterblast-orf"  />
<polygon locus_tag="SSMG_01853" description="&lt;b&gt;SSMG_01853&lt;/b&gt;&lt;br&gt;5,10-methylenetetrahydrofolate reductase&lt;br&gt;Location: 1975092 - 1975980" points="563,40 593,40 598,35 593,30 563,30 563,40 " style="stroke-width:1; stroke:black; fill:white; " id="dummy-5_q15_0_all" class="clusterblast-orf"  />
<polygon locus_tag="SSMG_01854" description="&lt;b&gt;SSMG_01854&lt;/b&gt;&lt;br&gt;conserved hypothetical protein&lt;br&gt;Location: 1976120 - 1977800" points="603,40 665,40 670,35 665,30 603,30 603,40 " style="stroke-width:1; stroke:black; fill:white; " id="dummy-5_q16_0_all" class="clusterblast-orf"  />
<polygon locus_tag="SSMG_01855" description="&lt;b&gt;SSMG_01855&lt;/b&gt;&lt;br&gt;conserved hypothetical protein&lt;br&gt;Location: 1977849 - 1978359" points="672,40 687,40 692,35 687,30 672,30 672,40 " style="stroke-width:1; stroke:black; fill:white; " id="dummy-5_q17_0_all" class="clusterblast-orf"  />
<polygon locus_tag="SSMG_01856" description="&lt;b&gt;SSMG_01856&lt;/b&gt;&lt;br&gt;predicted protein&lt;br&gt;Location: 1978563 - 1979460" points="700,40 730,40 735,35 730,30 700,30 700,40 " style="stroke-width:1; stroke:black; fill:white; " id="dummy-5_q18_0_all" class="clusterblast-orf"  />
<polygon locus_tag="SSMG_01857" description="&lt;b&gt;SSMG_01857&lt;/b&gt;&lt;br&gt;acetyltransferase&lt;br&gt;Location: 1979521 - 1980109" points="738,35 743,30 761,30 761,40 743,40 738,35 " style="stroke-width:1; stroke:black; fill:white; " id="dummy-5_q19_0_all" class="clusterblast-orf"  />
<polygon locus_tag="SSMG_01858" description="&lt;b&gt;SSMG_01858&lt;/b&gt;&lt;br&gt;YbaK/prolyl-tRNA synthetase associated region&lt;br&gt;Location: 1980105 - 1980585" points="761,35 766,30 780,30 780,40 766,40 761,35 " style="stroke-width:1; stroke:black; fill:white; " id="dummy-5_q20_0_all" class="clusterblast-orf"  />
</g>
<g label="BGC0001456" description="BGC0001456_c1: isorenieratene (25% of genes show similarity), Terpene" class="clusterblast-cluster"  >
<text class="clusterblast-acc" y="70" x="5"  >
<a xlink:href="https://mibig.secondarymetabolites.org/go/BGC0001456/1" target="_blank">BGC0001456</a>:                                                                   isorenieratene (25% of genes show similarity), Terpene</text>
<line x1="10" x2="778.0" y2="85" style="stroke-width:1; stroke:grey; " y1="85"  />
</g>
<g id="a5_000"  >
<polygon locus_tag="crtaV" description="&lt;b&gt;crtaV&lt;/b&gt;&lt;br&gt;2Fe-2S ferredoxin&lt;br&gt;Location: 1 - 1017" points="196,85 201,80 236,80 236,90 201,90 196,85 " style="stroke-width:1; stroke:black; fill:white; " id="dummy-5_h5_2_0" class="clusterblast-orf"  />
</g>
<g id="a5_001"  >
<polygon locus_tag="crtaB" description="&lt;b&gt;crtaB&lt;/b&gt;&lt;br&gt;phytoene / squalene synthase&lt;br&gt;Location: 1014 - 2045&lt;br&gt;&lt;br&gt;&lt;b&gt;BlastP hit with SSMG_01849&lt;/b&gt;&lt;br&gt;Percentage identity: 60&lt;br&gt;Percentage coverage: 85&lt;br&gt;BLAST bit score: 313&lt;br&gt;E-value: 4.7e-85" points="236,85 241,80 277,80 277,90 241,90 236,85 " style="stroke-width:1; stroke:black; fill:#d81515; " id="dummy-5_h5_2_1" class="clusterblast-orf"  />
</g>
<g id="a5_002"  >
<polygon locus_tag="crtaI" description="&lt;b&gt;crtaI&lt;/b&gt;&lt;br&gt;phytoene desaturase&lt;br&gt;Location: 2042 - 3586&lt;br&gt;&lt;br&gt;&lt;b&gt;BlastP hit with SSMG_01850&lt;/b&gt;&lt;br&gt;Percentage identity: 64&lt;br&gt;Percentage coverage: 100&lt;br&gt;BLAST bit score: 614&lt;br&gt;E-value: 1.1e-175" points="277,85 282,80 338,80 338,90 282,90 277,85 " style="stroke-width:1; stroke:black; fill:#15d815; " id="dummy-5_h5_2_2" class="clusterblast-orf"  />
</g>
<g id="a5_003"  >
<polygon locus_tag="crtaE" description="&lt;b&gt;crtaE&lt;/b&gt;&lt;br&gt;geranylgeranyl pyrophosphate synthase&lt;br&gt;Location: 3583 - 4974" points="338,85 343,80 393,80 393,90 343,90 338,85 " style="stroke-width:1; stroke:black; fill:white; " id="dummy-5_h5_2_3" class="clusterblast-orf"  />
</g>
<g id="a5_004"  >
<polygon locus_tag="crtaQ" description="&lt;b&gt;crtaQ&lt;/b&gt;&lt;br&gt;RNA polymerase, sigma-24 subunit&lt;br&gt;Location: 5310 - 5930" points="406,90 426,90 431,85 426,80 406,80 406,90 " style="stroke-width:1; stroke:black; fill:white; " id="dummy-5_h5_2_4" class="clusterblast-orf"  />
</g>
<g id="a5_005"  >
<polygon locus_tag="crtaY" description="&lt;b&gt;crtaY&lt;/b&gt;&lt;br&gt;lycopene cyclase&lt;br&gt;Location: 6172 - 7362" points="440,90 482,90 487,85 482,80 440,80 440,90 " style="stroke-width:1; stroke:black; fill:white; " id="dummy-5_h5_2_5" class="clusterblast-orf"  />
</g>
<g id="a5_006"  >
<polygon locus_tag="crtaT" description="&lt;b&gt;crtaT&lt;/b&gt;&lt;br&gt;methyltransferase&lt;br&gt;Location: 7418 - 8152" points="490,90 514,90 519,85 514,80 490,80 490,90 " style="stroke-width:1; stroke:black; fill:white; " id="dummy-5_h5_2_6" class="clusterblast-orf"  />
</g>
<g id="a5_007"  >
<polygon locus_tag="crtaU" description="&lt;b&gt;crtaU&lt;/b&gt;&lt;br&gt;isorenieratene synthase&lt;br&gt;Location: 8149 - 9777" points="518,90 578,90 583,85 578,80 518,80 518,90 " style="stroke-width:1; stroke:black; fill:white; " id="dummy-5_h5_2_7" class="clusterblast-orf"  />
</g>
</svg>
