<svg version="1.1" xmlns="http://www.w3.org/2000/svg" height="230" width="800" xmlns:xlink="http://www.w3.org/1999/xlink" preserveAspectRatio="none" x="0" y="0" viewBox="0 0 800 230"  >
<g label="Query sequence" class="clusterblast-cluster"  >
<text class="clusterblast-acc" y="20" x="5"  >
Query sequence</text>
<line x1="10" x2="778.0" y2="35" style="stroke-width:1; stroke:grey; " y1="35"  />
<polygon locus_tag="SSMG_04259" description="&lt;b&gt;SSMG_04259&lt;/b&gt;&lt;br&gt;conserved hypothetical protein&lt;br&gt;Location: 4646055 - 4646568" points="0,35 5,30 8,30 8,40 5,40 0,35 " style="stroke-width:1; stroke:black; fill:white; " id="dummy-17_q0_0_all" class="clusterblast-orf"  />
<polygon locus_tag="SSMG_04260" description="&lt;b&gt;SSMG_04260&lt;/b&gt;&lt;br&gt;predicted protein&lt;br&gt;Location: 4646583 - 4647069" points="8,35 13,30 15,30 15,40 13,40 8,35 " style="stroke-width:1; stroke:black; fill:white; " id="dummy-17_q1_0_all" class="clusterblast-orf"  />
<polygon locus_tag="SSMG_04261" description="&lt;b&gt;SSMG_04261&lt;/b&gt;&lt;br&gt;phosphatidylinositol alpha-mannosyltransferase&lt;br&gt;Location: 4647065 - 4648208" points="15,35 20,30 33,30 33,40 20,40 15,35 " style="stroke-width:1; stroke:black; fill:white; " id="dummy-17_q2_0_all" class="clusterblast-orf"  />
<polygon locus_tag="SSMG_04262" description="&lt;b&gt;SSMG_04262&lt;/b&gt;&lt;br&gt;predicted protein&lt;br&gt;Location: 4648225 - 4649128" points="33,35 38,30 47,30 47,40 38,40 33,35 " style="stroke-width:1; stroke:black; fill:white; " id="dummy-17_q3_0_all" class="clusterblast-orf"  />
<polygon locus_tag="SSMG_04263" description="&lt;b&gt;SSMG_04263&lt;/b&gt;&lt;br&gt;phosphatidylinositol synthase&lt;br&gt;Location: 4649124 - 4649772" points="47,35 52,30 57,30 57,40 52,40 47,35 " style="stroke-width:1; stroke:black; fill:white; " id="dummy-17_q4_0_all" class="clusterblast-orf"  />
<polygon locus_tag="SSMG_04264" description="&lt;b&gt;SSMG_04264&lt;/b&gt;&lt;br&gt;MarR-family transcriptional repressor&lt;br&gt;Location: 4649872 - 4650403" points="59,35 64,30 67,30 67,40 64,40 59,35 " style="stroke-width:1; stroke:black; fill:white; " id="dummy-17_q5_0_all" class="clusterblast-orf"  />
<polygon locus_tag="SSMG_04265" description="&lt;b&gt;SSMG_04265&lt;/b&gt;&lt;br&gt;HIT family protein&lt;br&gt;Location: 4650453 - 4650996" points="68,35 73,30 76,30 76,40 73,40 68,35 " style="stroke-width:1; stroke:black; fill:white; " id="dummy-17_q6_0_all" class="clusterblast-orf"  />
<polygon locus_tag="SSMG_04266" description="&lt;b&gt;SSMG_04266&lt;/b&gt;&lt;br&gt;threonyl-tRNA synthetase&lt;br&gt;Location: 4650992 - 4653029" points="76,35 81,30 107,30 107,40 81,40 76,35 " style="stroke-width:1; stroke:black; fill:white; " id="dummy-17_q7_0_all" class="clusterblast-orf"  />
<polygon locus_tag="SSMG_04267" description="&lt;b&gt;SSMG_04267&lt;/b&gt;&lt;br&gt;nitroreductase&lt;br&gt;Location: 4653174 - 4653786" points="109,35 114,30 119,30 119,40 114,40 109,35 " style="stroke-width:1; stroke:black; fill:white; " id="dummy-17_q8_0_all" class="clusterblast-orf"  />
<polygon locus_tag="SSMG_04268" description="&lt;b&gt;SSMG_04268&lt;/b&gt;&lt;br&gt;undecaprenyl-phosphate glucose phosphotransferase&lt;br&gt;Location: 4653943 - 4655410" points="121,35 126,30 144,30 144,40 126,40 121,35 " style="stroke-width:1; stroke:black; fill:white; " id="dummy-17_q9_0_all" class="clusterblast-orf"  />
<polygon locus_tag="SSMG_04269" description="&lt;b&gt;SSMG_04269&lt;/b&gt;&lt;br&gt;predicted protein&lt;br&gt;Location: 4656012 - 4656249" points="153,35 157,30 157,40 153,35 " style="stroke-width:1; stroke:black; fill:white; " id="dummy-17_q10_0_all" class="clusterblast-orf"  />
<polygon locus_tag="SSMG_04270" description="&lt;b&gt;SSMG_04270&lt;/b&gt;&lt;br&gt;predicted protein&lt;br&gt;Location: 4656683 - 4657121" points="164,35 169,30 170,30 170,40 169,40 164,35 " style="stroke-width:1; stroke:black; fill:white; " id="dummy-17_q11_0_all" class="clusterblast-orf"  />
<polygon locus_tag="SSMG_04271" description="&lt;b&gt;SSMG_04271&lt;/b&gt;&lt;br&gt;predicted protein&lt;br&gt;Location: 4658192 - 4659011" points="187,40 195,40 200,35 195,30 187,30 187,40 " style="stroke-width:1; stroke:black; fill:white; " id="dummy-17_q12_0_all" class="clusterblast-orf"  />
<polygon locus_tag="SSMG_04272" description="&lt;b&gt;SSMG_04272&lt;/b&gt;&lt;br&gt;3-oxoacyl-(acyl carrier protein) synthase III&lt;br&gt;Location: 4659025 - 4659964" points="200,35 205,30 214,30 214,40 205,40 200,35 " style="stroke-width:1; stroke:black; fill:white; " id="dummy-17_q13_0_all" class="clusterblast-orf"  />
<polygon locus_tag="SSMG_04273" description="&lt;b&gt;SSMG_04273&lt;/b&gt;&lt;br&gt;predicted protein&lt;br&gt;Location: 4659985 - 4662595" points="215,35 220,30 255,30 255,40 220,40 215,35 " style="stroke-width:1; stroke:black; fill:white; " id="dummy-17_q14_0_all" class="clusterblast-orf"  />
<polygon locus_tag="SSMG_04274" description="&lt;b&gt;SSMG_04274&lt;/b&gt;&lt;br&gt;conserved hypothetical protein&lt;br&gt;Location: 4662699 - 4663347" points="256,35 261,30 266,30 266,40 261,40 256,35 " style="stroke-width:1; stroke:black; fill:white; " id="dummy-17_q15_0_all" class="clusterblast-orf"  />
<polygon locus_tag="SSMG_04275" description="&lt;b&gt;SSMG_04275&lt;/b&gt;&lt;br&gt;3-oxoacyl-[acyl-carrier-protein] reductase&lt;br&gt;Location: 4663491 - 4664232" points="269,35 274,30 280,30 280,40 274,40 269,35 " style="stroke-width:1; stroke:black; fill:#d81515; " id="dummy-17_q16_0_all" class="clusterblast-orf"  />
<polygon locus_tag="SSMG_04276" description="&lt;b&gt;SSMG_04276&lt;/b&gt;&lt;br&gt;predicted protein&lt;br&gt;Location: 4664228 - 4664642" points="280,35 285,30 286,30 286,40 285,40 280,35 " style="stroke-width:1; stroke:black; fill:white; " id="dummy-17_q17_0_all" class="clusterblast-orf"  />
<polygon locus_tag="SSMG_04277" description="&lt;b&gt;SSMG_04277&lt;/b&gt;&lt;br&gt;predicted protein&lt;br&gt;Location: 4664638 - 4664989" points="286,35 291,30 292,30 292,40 291,40 286,35 " style="stroke-width:1; stroke:black; fill:white; " id="dummy-17_q18_0_all" class="clusterblast-orf"  />
<polygon locus_tag="SSMG_04278" description="&lt;b&gt;SSMG_04278&lt;/b&gt;&lt;br&gt;predicted protein&lt;br&gt;Location: 4664964 - 4665975" points="291,35 296,30 307,30 307,40 296,40 291,35 " style="stroke-width:1; stroke:black; fill:white; " id="dummy-17_q19_0_all" class="clusterblast-orf"  />
<polygon locus_tag="SSMG_04279" description="&lt;b&gt;SSMG_04279&lt;/b&gt;&lt;br&gt;3-oxoacyl-[acyl-carrier-protein] synthase 2&lt;br&gt;Location: 4665971 - 4667213" points="307,35 312,30 326,30 326,40 312,40 307,35 " style="stroke-width:1; stroke:black; fill:#15d815; " id="dummy-17_q20_0_all" class="clusterblast-orf"  />
<polygon locus_tag="SSMG_04280" description="&lt;b&gt;SSMG_04280&lt;/b&gt;&lt;br&gt;acyl carrier protein&lt;br&gt;Location: 4667214 - 4667502" points="326,35 331,30 331,30 331,40 331,40 326,35 " style="stroke-width:1; stroke:black; fill:white; " id="dummy-17_q21_0_all" class="clusterblast-orf"  />
<polygon locus_tag="SSMG_04281" description="&lt;b&gt;SSMG_04281&lt;/b&gt;&lt;br&gt;predicted protein&lt;br&gt;Location: 4667530 - 4668379" points="331,35 336,30 344,30 344,40 336,40 331,35 " style="stroke-width:1; stroke:black; fill:white; " id="dummy-17_q22_0_all" class="clusterblast-orf"  />
<polygon locus_tag="SSMG_04282" description="&lt;b&gt;SSMG_04282&lt;/b&gt;&lt;br&gt;dicarboxylate-CoA ligase PimA&lt;br&gt;Location: 4668401 - 4669997" points="344,35 349,30 369,30 369,40 349,40 344,35 " style="stroke-width:1; stroke:black; fill:#1597d8; " id="dummy-17_q23_0_all" class="clusterblast-orf"  />
<polygon locus_tag="SSMG_04283" description="&lt;b&gt;SSMG_04283&lt;/b&gt;&lt;br&gt;predicted protein&lt;br&gt;Location: 4669993 - 4671523" points="369,35 374,30 393,30 393,40 374,40 369,35 " style="stroke-width:1; stroke:black; fill:#9715d8; " id="dummy-17_q24_0_all" class="clusterblast-orf"  />
<polygon locus_tag="SSMG_04284" description="&lt;b&gt;SSMG_04284&lt;/b&gt;&lt;br&gt;modular polyketide synthase&lt;br&gt;Location: 4671446 - 4677095" points="391,35 396,30 479,30 479,40 396,40 391,35 " style="stroke-width:1; stroke:black; fill:#d89715; " id="dummy-17_q25_0_all" class="clusterblast-orf"  />
<polygon locus_tag="SSMG_04285" description="&lt;b&gt;SSMG_04285&lt;/b&gt;&lt;br&gt;predicted protein&lt;br&gt;Location: 4677855 - 4678209" points="490,35 495,30 496,30 496,40 495,40 490,35 " style="stroke-width:1; stroke:black; fill:#15d897; " id="dummy-17_q26_0_all" class="clusterblast-orf"  />
<polygon locus_tag="SSMG_04286" description="&lt;b&gt;SSMG_04286&lt;/b&gt;&lt;br&gt;conserved hypothetical protein&lt;br&gt;Location: 4678234 - 4678792" points="496,35 501,30 505,30 505,40 501,40 496,35 " style="stroke-width:1; stroke:black; fill:#1515d8; " id="dummy-17_q27_0_all" class="clusterblast-orf"  />
<polygon locus_tag="SSMG_04287" description="&lt;b&gt;SSMG_04287&lt;/b&gt;&lt;br&gt;predicted protein&lt;br&gt;Location: 4678788 - 4679991" points="505,35 510,30 523,30 523,40 510,40 505,35 " style="stroke-width:1; stroke:black; fill:#d81597; " id="dummy-17_q28_0_all" class="clusterblast-orf"  />
<polygon locus_tag="SSMG_04288" description="&lt;b&gt;SSMG_04288&lt;/b&gt;&lt;br&gt;predicted protein&lt;br&gt;Location: 4680008 - 4681220" points="523,35 528,30 542,30 542,40 528,40 523,35 " style="stroke-width:1; stroke:black; fill:#d81597; " id="dummy-17_q29_0_all" class="clusterblast-orf"  />
<polygon locus_tag="SSMG_04289" description="&lt;b&gt;SSMG_04289&lt;/b&gt;&lt;br&gt;taurine catabolism dioxygenase&lt;br&gt;Location: 4681253 - 4682135" points="543,35 548,30 556,30 556,40 548,40 543,35 " style="stroke-width:1; stroke:black; fill:#97d815; " id="dummy-17_q30_0_all" class="clusterblast-orf"  />
<polygon locus_tag="SSMG_04290" description="&lt;b&gt;SSMG_04290&lt;/b&gt;&lt;br&gt;regulator&lt;br&gt;Location: 4683071 - 4683497" points="571,40 572,40 577,35 572,30 571,30 571,40 " style="stroke-width:1; stroke:black; fill:white; " id="dummy-17_q31_0_all" class="clusterblast-orf"  />
<polygon locus_tag="SSMG_04291" description="&lt;b&gt;SSMG_04291&lt;/b&gt;&lt;br&gt;glucose-6-phosphate dehydrogenase, F420-dependent&lt;br&gt;Location: 4684438 - 4685443" points="592,35 597,30 607,30 607,40 597,40 592,35 " style="stroke-width:1; stroke:black; fill:white; " id="dummy-17_q32_0_all" class="clusterblast-orf"  />
<polygon locus_tag="SSMG_04292" description="&lt;b&gt;SSMG_04292&lt;/b&gt;&lt;br&gt;predicted protein&lt;br&gt;Location: 4685755 - 4686505" points="612,35 617,30 624,30 624,40 617,40 612,35 " style="stroke-width:1; stroke:black; fill:white; " id="dummy-17_q33_0_all" class="clusterblast-orf"  />
<polygon locus_tag="SSMG_04293" description="&lt;b&gt;SSMG_04293&lt;/b&gt;&lt;br&gt;siderophore interacting protein&lt;br&gt;Location: 4687111 - 4687906" points="633,40 640,40 645,35 640,30 633,30 633,40 " style="stroke-width:1; stroke:black; fill:white; " id="dummy-17_q34_0_all" class="clusterblast-orf"  />
<polygon locus_tag="SSMG_04294" description="&lt;b&gt;SSMG_04294&lt;/b&gt;&lt;br&gt;methylated-DNA-protein-cysteine methyltransferase&lt;br&gt;Location: 4687911 - 4688481" points="645,35 650,30 654,30 654,40 650,40 645,35 " style="stroke-width:1; stroke:black; fill:white; " id="dummy-17_q35_0_all" class="clusterblast-orf"  />
<polygon locus_tag="SSMG_04295" description="&lt;b&gt;SSMG_04295&lt;/b&gt;&lt;br&gt;4-carboxy-4-hydroxy-2-oxoadipate aldolase/oxaloacetate decarboxylase&lt;br&gt;Location: 4688461 - 4689097" points="654,40 659,40 664,35 659,30 654,30 654,40 " style="stroke-width:1; stroke:black; fill:white; " id="dummy-17_q36_0_all" class="clusterblast-orf"  />
<polygon locus_tag="SSMG_04296" description="&lt;b&gt;SSMG_04296&lt;/b&gt;&lt;br&gt;predicted protein&lt;br&gt;Location: 4689033 - 4689261" points="663,40 666,35 663,30 663,40 " style="stroke-width:1; stroke:black; fill:white; " id="dummy-17_q37_0_all" class="clusterblast-orf"  />
<polygon locus_tag="SSMG_04297" description="&lt;b&gt;SSMG_04297&lt;/b&gt;&lt;br&gt;predicted protein&lt;br&gt;Location: 4689680 - 4689869" points="673,35 676,30 676,40 673,35 " style="stroke-width:1; stroke:black; fill:white; " id="dummy-17_q38_0_all" class="clusterblast-orf"  />
<polygon locus_tag="SSMG_04298" description="&lt;b&gt;SSMG_04298&lt;/b&gt;&lt;br&gt;predicted protein&lt;br&gt;Location: 4689991 - 4690285" points="677,40 677,40 682,35 677,30 677,30 677,40 " style="stroke-width:1; stroke:black; fill:white; " id="dummy-17_q39_0_all" class="clusterblast-orf"  />
<polygon locus_tag="SSMG_04299" description="&lt;b&gt;SSMG_04299&lt;/b&gt;&lt;br&gt;proline iminopeptidase&lt;br&gt;Location: 4690952 - 4692182" points="692,40 706,40 711,35 706,30 692,30 692,40 " style="stroke-width:1; stroke:black; fill:white; " id="dummy-17_q40_0_all" class="clusterblast-orf"  />
<polygon locus_tag="SSMG_04300" description="&lt;b&gt;SSMG_04300&lt;/b&gt;&lt;br&gt;2-hydroxycyclohexanecarboxyl-CoA dehydrogenase&lt;br&gt;Location: 4692227 - 4693079" points="712,35 717,30 725,30 725,40 717,40 712,35 " style="stroke-width:1; stroke:black; fill:white; " id="dummy-17_q41_0_all" class="clusterblast-orf"  />
<polygon locus_tag="SSMG_04301" description="&lt;b&gt;SSMG_04301&lt;/b&gt;&lt;br&gt;predicted protein&lt;br&gt;Location: 4693154 - 4694012" points="726,35 731,30 740,30 740,40 731,40 726,35 " style="stroke-width:1; stroke:black; fill:white; " id="dummy-17_q42_0_all" class="clusterblast-orf"  />
<polygon locus_tag="SSMG_04302" description="&lt;b&gt;SSMG_04302&lt;/b&gt;&lt;br&gt;conserved hypothetical protein&lt;br&gt;Location: 4694070 - 4695588" points="740,35 745,30 764,30 764,40 745,40 740,35 " style="stroke-width:1; stroke:black; fill:white; " id="dummy-17_q43_0_all" class="clusterblast-orf"  />
<polygon locus_tag="SSMG_04303" description="&lt;b&gt;SSMG_04303&lt;/b&gt;&lt;br&gt;conserved hypothetical protein&lt;br&gt;Location: 4695563 - 4696613" points="763,35 768,30 780,30 780,40 768,40 763,35 " style="stroke-width:1; stroke:black; fill:white; " id="dummy-17_q44_0_all" class="clusterblast-orf"  />
</g>
<g label="BGC0002014" description="BGC0002014_c1: pepticinnamin E (10% of genes show similarity), NRP + Polyketide" class="clusterblast-cluster"  >
<text class="clusterblast-acc" y="70" x="5"  >
<a xlink:href="https://mibig.secondarymetabolites.org/go/BGC0002014/1" target="_blank">BGC0002014</a>:                                                                  pepticinnamin E (10% of genes show similarity), NRP + Polyketide</text>
<line x1="10" x2="778.0" y2="85" style="stroke-width:1; stroke:grey; " y1="85"  />
</g>
<g id="a17_000"  >
<polygon locus_tag="OK006_RS36610" description="&lt;b&gt;OK006_RS36610&lt;/b&gt;&lt;br&gt;StaN&lt;br&gt;Location: 44694 - 43351" points="45,85 50,80 65,80 65,90 50,90 45,85 " style="stroke-width:1; stroke:black; fill:white; " id="dummy-17_h17_3_0" class="clusterblast-orf"  />
</g>
<g id="a17_001"  >
<polygon locus_tag="OK006_RS36605" description="&lt;b&gt;OK006_RS36605&lt;/b&gt;&lt;br&gt;non-ribosomal peptide synthetase&lt;br&gt;Location: 43095 - 31663" points="69,85 74,80 246,80 246,90 74,90 69,85 " style="stroke-width:1; stroke:black; fill:white; " id="dummy-17_h17_3_1" class="clusterblast-orf"  />
</g>
<g id="a17_002"  >
<polygon locus_tag="OK006_RS36600" description="&lt;b&gt;OK006_RS36600&lt;/b&gt;&lt;br&gt;hypothetical protein&lt;br&gt;Location: 31162 - 30830" points="254,90 254,90 259,85 254,80 254,80 254,90 " style="stroke-width:1; stroke:black; fill:white; " id="dummy-17_h17_3_2" class="clusterblast-orf"  />
</g>
<g id="a17_003"  >
<polygon locus_tag="OK006_RS36595" description="&lt;b&gt;OK006_RS36595&lt;/b&gt;&lt;br&gt;DUF3995 domain-containing protein&lt;br&gt;Location: 30512 - 30018" points="264,90 266,90 271,85 266,80 264,80 264,90 " style="stroke-width:1; stroke:black; fill:white; " id="dummy-17_h17_3_3" class="clusterblast-orf"  />
</g>
<g id="a17_004"  >
<polygon locus_tag="OK006_RS36590" description="&lt;b&gt;OK006_RS36590&lt;/b&gt;&lt;br&gt;hypothetical protein&lt;br&gt;Location: 29877 - 28555" points="273,90 289,90 294,85 289,80 273,80 273,90 " style="stroke-width:1; stroke:black; fill:white; " id="dummy-17_h17_3_4" class="clusterblast-orf"  />
</g>
<g id="a17_005"  >
<polygon locus_tag="OK006_RS36585" description="&lt;b&gt;OK006_RS36585&lt;/b&gt;&lt;br&gt;hypothetical protein&lt;br&gt;Location: 28537 - 27998" points="294,85 299,80 302,80 302,90 299,90 294,85 " style="stroke-width:1; stroke:black; fill:white; " id="dummy-17_h17_3_5" class="clusterblast-orf"  />
</g>
<g id="a17_006"  >
<polygon locus_tag="OK006_RS54960" description="&lt;b&gt;OK006_RS54960&lt;/b&gt;&lt;br&gt;hypothetical protein&lt;br&gt;Location: 28001 - 27045" points="302,85 307,80 317,80 317,90 307,90 302,85 " style="stroke-width:1; stroke:black; fill:white; " id="dummy-17_h17_3_6" class="clusterblast-orf"  />
</g>
<g id="a17_007"  >
<polygon locus_tag="OK006_RS36570" description="&lt;b&gt;OK006_RS36570&lt;/b&gt;&lt;br&gt;DsrE family protein&lt;br&gt;Location: 27171 - 26758" points="315,85 320,80 321,80 321,90 320,90 315,85 " style="stroke-width:1; stroke:black; fill:white; " id="dummy-17_h17_3_7" class="clusterblast-orf"  />
</g>
<g id="a17_008"  >
<polygon locus_tag="OK006_RS36565" description="&lt;b&gt;OK006_RS36565&lt;/b&gt;&lt;br&gt;hypothetical protein&lt;br&gt;Location: 26755 - 26420" points="321,85 326,80 327,80 327,90 326,90 321,85 " style="stroke-width:1; stroke:black; fill:white; " id="dummy-17_h17_3_8" class="clusterblast-orf"  />
</g>
<g id="a17_009"  >
<polygon locus_tag="OK006_RS36560" description="&lt;b&gt;OK006_RS36560&lt;/b&gt;&lt;br&gt;acyl carrier protein&lt;br&gt;Location: 26423 - 26166" points="327,85 331,80 331,90 327,85 " style="stroke-width:1; stroke:black; fill:white; " id="dummy-17_h17_3_9" class="clusterblast-orf"  />
</g>
<g id="a17_0010"  >
<polygon locus_tag="OK006_RS36555" description="&lt;b&gt;OK006_RS36555&lt;/b&gt;&lt;br&gt;isomerase&lt;br&gt;Location: 26124 - 25408" points="331,85 336,80 342,80 342,90 336,90 331,85 " style="stroke-width:1; stroke:black; fill:white; " id="dummy-17_h17_3_10" class="clusterblast-orf"  />
</g>
<g id="a17_0011"  >
<polygon locus_tag="OK006_RS36550" description="&lt;b&gt;OK006_RS36550&lt;/b&gt;&lt;br&gt;SDR family oxidoreductase&lt;br&gt;Location: 25380 - 24634&lt;br&gt;&lt;br&gt;&lt;b&gt;BlastP hit with SSMG_04275&lt;/b&gt;&lt;br&gt;Percentage identity: 58&lt;br&gt;Percentage coverage: 100&lt;br&gt;BLAST bit score: 269&lt;br&gt;E-value: 7.5e-72" points="343,85 348,80 354,80 354,90 348,90 343,85 " style="stroke-width:1; stroke:black; fill:#d81515; " id="dummy-17_h17_3_11" class="clusterblast-orf"  />
</g>
<g id="a17_0012"  >
<polygon locus_tag="OK006_RS36545" description="&lt;b&gt;OK006_RS36545&lt;/b&gt;&lt;br&gt;hypothetical protein&lt;br&gt;Location: 24549 - 23506" points="356,85 361,80 372,80 372,90 361,90 356,85 " style="stroke-width:1; stroke:black; fill:white; " id="dummy-17_h17_3_12" class="clusterblast-orf"  />
</g>
<g id="a17_0013"  >
<polygon locus_tag="OK006_RS36540" description="&lt;b&gt;OK006_RS36540&lt;/b&gt;&lt;br&gt;hypothetical protein&lt;br&gt;Location: 23509 - 22499" points="372,85 377,80 387,80 387,90 377,90 372,85 " style="stroke-width:1; stroke:black; fill:white; " id="dummy-17_h17_3_13" class="clusterblast-orf"  />
</g>
<g id="a17_0014"  >
<polygon locus_tag="OK006_RS36535" description="&lt;b&gt;OK006_RS36535&lt;/b&gt;&lt;br&gt;alpha/beta hydrolase&lt;br&gt;Location: 22499 - 21612" points="387,85 392,80 401,80 401,90 392,90 387,85 " style="stroke-width:1; stroke:black; fill:white; " id="dummy-17_h17_3_14" class="clusterblast-orf"  />
</g>
<g id="a17_0015"  >
<polygon locus_tag="OK006_RS36530" description="&lt;b&gt;OK006_RS36530&lt;/b&gt;&lt;br&gt;hypothetical protein&lt;br&gt;Location: 21615 - 20617" points="401,85 406,80 416,80 416,90 406,90 401,85 " style="stroke-width:1; stroke:black; fill:white; " id="dummy-17_h17_3_15" class="clusterblast-orf"  />
</g>
<g id="a17_0016"  >
<polygon locus_tag="OK006_RS36525" description="&lt;b&gt;OK006_RS36525&lt;/b&gt;&lt;br&gt;3-oxoacyl-ACP synthase&lt;br&gt;Location: 20620 - 19478" points="416,85 421,80 434,80 434,90 421,90 416,85 " style="stroke-width:1; stroke:black; fill:white; " id="dummy-17_h17_3_16" class="clusterblast-orf"  />
</g>
<g id="a17_0017"  >
<polygon locus_tag="OK006_RS36520" description="&lt;b&gt;OK006_RS36520&lt;/b&gt;&lt;br&gt;beta-ketoacyl-[acyl-carrier-protein] synthase family protein&lt;br&gt;Location: 19481 - 18255&lt;br&gt;&lt;br&gt;&lt;b&gt;BlastP hit with SSMG_04279&lt;/b&gt;&lt;br&gt;Percentage identity: 62&lt;br&gt;Percentage coverage: 97&lt;br&gt;BLAST bit score: 485&lt;br&gt;E-value: 6.6e-137" points="434,85 439,80 453,80 453,90 439,90 434,85 " style="stroke-width:1; stroke:black; fill:#15d815; " id="dummy-17_h17_3_17" class="clusterblast-orf"  />
</g>
<g id="a17_0018"  >
<polygon locus_tag="OK006_RS36515" description="&lt;b&gt;OK006_RS36515&lt;/b&gt;&lt;br&gt;acyl carrier protein&lt;br&gt;Location: 18224 - 17967" points="453,85 457,80 457,90 453,85 " style="stroke-width:1; stroke:black; fill:white; " id="dummy-17_h17_3_18" class="clusterblast-orf"  />
</g>
<g id="a17_0019"  >
<polygon locus_tag="OK006_RS36510" description="&lt;b&gt;OK006_RS36510&lt;/b&gt;&lt;br&gt;hypothetical protein&lt;br&gt;Location: 17694 - 16936" points="461,90 468,90 473,85 468,80 461,80 461,90 " style="stroke-width:1; stroke:black; fill:white; " id="dummy-17_h17_3_19" class="clusterblast-orf"  />
</g>
<g id="a17_0020"  >
<polygon locus_tag="OK006_RS36505" description="&lt;b&gt;OK006_RS36505&lt;/b&gt;&lt;br&gt;methyltransferase domain-containing protein&lt;br&gt;Location: 16898 - 16236" points="474,90 479,90 484,85 479,80 474,80 474,90 " style="stroke-width:1; stroke:black; fill:white; " id="dummy-17_h17_3_20" class="clusterblast-orf"  />
</g>
<g id="a17_0021"  >
<polygon locus_tag="OK006_RS36500" description="&lt;b&gt;OK006_RS36500&lt;/b&gt;&lt;br&gt;NAD(P)/FAD-dependent oxidoreductase&lt;br&gt;Location: 16213 - 14501" points="484,85 489,80 511,80 511,90 489,90 484,85 " style="stroke-width:1; stroke:black; fill:white; " id="dummy-17_h17_3_21" class="clusterblast-orf"  />
</g>
<g id="a17_0022"  >
<polygon locus_tag="OK006_RS36495" description="&lt;b&gt;OK006_RS36495&lt;/b&gt;&lt;br&gt;hypothetical protein&lt;br&gt;Location: 14504 - 13428" points="511,85 516,80 527,80 527,90 516,90 511,85 " style="stroke-width:1; stroke:black; fill:white; " id="dummy-17_h17_3_22" class="clusterblast-orf"  />
</g>
<g id="a17_0023"  >
<polygon locus_tag="OK006_RS36490" description="&lt;b&gt;OK006_RS36490&lt;/b&gt;&lt;br&gt;beta-ketoacyl-[acyl-carrier-protein] synthase family protein&lt;br&gt;Location: 13431 - 12190&lt;br&gt;&lt;br&gt;&lt;b&gt;BlastP hit with SSMG_04279&lt;/b&gt;&lt;br&gt;Percentage identity: 64&lt;br&gt;Percentage coverage: 99&lt;br&gt;BLAST bit score: 494&lt;br&gt;E-value: 1.4e-139" points="527,85 532,80 546,80 546,90 532,90 527,85 " style="stroke-width:1; stroke:black; fill:#15d815; " id="dummy-17_h17_3_23" class="clusterblast-orf"  />
</g>
<g id="a17_0024"  >
<polygon locus_tag="OK006_RS36485" description="&lt;b&gt;OK006_RS36485&lt;/b&gt;&lt;br&gt;ATP-binding cassette domain-containing protein&lt;br&gt;Location: 12024 - 11038" points="549,90 559,90 564,85 559,80 549,80 549,90 " style="stroke-width:1; stroke:black; fill:white; " id="dummy-17_h17_3_24" class="clusterblast-orf"  />
</g>
<g id="a17_0025"  >
<polygon locus_tag="OK006_RS36480" description="&lt;b&gt;OK006_RS36480&lt;/b&gt;&lt;br&gt;ABC transporter permease&lt;br&gt;Location: 11041 - 10238" points="564,90 571,90 576,85 571,80 564,80 564,90 " style="stroke-width:1; stroke:black; fill:white; " id="dummy-17_h17_3_25" class="clusterblast-orf"  />
</g>
<g id="a17_0026"  >
<polygon locus_tag="OK006_RS36475" description="&lt;b&gt;OK006_RS36475&lt;/b&gt;&lt;br&gt;hypothetical protein&lt;br&gt;Location: 10109 - 9666" points="578,85 583,80 585,80 585,90 583,90 578,85 " style="stroke-width:1; stroke:black; fill:white; " id="dummy-17_h17_3_26" class="clusterblast-orf"  />
</g>
<g id="a17_0027"  >
<polygon locus_tag="OK006_RS36470" description="&lt;b&gt;OK006_RS36470&lt;/b&gt;&lt;br&gt;MbtH family protein&lt;br&gt;Location: 9355 - 9152" points="590,90 593,85 590,80 590,90 " style="stroke-width:1; stroke:black; fill:white; " id="dummy-17_h17_3_27" class="clusterblast-orf"  />
</g>
<g id="a17_0028"  >
<polygon locus_tag="OK006_RS36465" description="&lt;b&gt;OK006_RS36465&lt;/b&gt;&lt;br&gt;non-ribosomal peptide synthase&lt;br&gt;Location: 9109 - 1577" points="594,90 705,90 710,85 705,80 594,80 594,90 " style="stroke-width:1; stroke:black; fill:white; " id="dummy-17_h17_3_28" class="clusterblast-orf"  />
</g>
<g id="a17_0029"  >
<polygon locus_tag="OK006_RS36460" description="&lt;b&gt;OK006_RS36460&lt;/b&gt;&lt;br&gt;FAD-dependent oxidoreductase&lt;br&gt;Location: 1569 - 1" points="710,90 729,90 734,85 729,80 710,80 710,90 " style="stroke-width:1; stroke:black; fill:white; " id="dummy-17_h17_3_29" class="clusterblast-orf"  />
</g>
</svg>
