<svg version="1.1" xmlns="http://www.w3.org/2000/svg" height="230" width="800" xmlns:xlink="http://www.w3.org/1999/xlink" preserveAspectRatio="none" x="0" y="0" viewBox="0 0 800 230"  >
<g label="Query sequence" class="clusterblast-cluster"  >
<text class="clusterblast-acc" y="20" x="5"  >
Query sequence</text>
<line x1="10" x2="778.0" y2="35" style="stroke-width:1; stroke:grey; " y1="35"  />
<polygon locus_tag="SSMG_07210" description="&lt;b&gt;SSMG_07210&lt;/b&gt;&lt;br&gt;HAD-superfamily subfamily IB&lt;br&gt;Location: 7911286 - 7912108" points="31,40 36,40 41,35 36,30 31,30 31,40 " style="stroke-width:1; stroke:black; fill:white; " id="dummy-26_q0_0_all" class="clusterblast-orf"  />
<polygon locus_tag="SSMG_07211" description="&lt;b&gt;SSMG_07211&lt;/b&gt;&lt;br&gt;beta-N-Acetylglucosaminidase&lt;br&gt;Location: 7912745 - 7914542" points="49,40 65,40 70,35 65,30 49,30 49,40 " style="stroke-width:1; stroke:black; fill:white; " id="dummy-26_q1_0_all" class="clusterblast-orf"  />
<polygon locus_tag="SSMG_07212" description="&lt;b&gt;SSMG_07212&lt;/b&gt;&lt;br&gt;conserved hypothetical protein&lt;br&gt;Location: 7914592 - 7915819" points="71,40 81,40 86,35 81,30 71,30 71,40 " style="stroke-width:1; stroke:black; fill:white; " id="dummy-26_q2_0_all" class="clusterblast-orf"  />
<polygon locus_tag="SSMG_07213" description="&lt;b&gt;SSMG_07213&lt;/b&gt;&lt;br&gt;beta-lactamase&lt;br&gt;Location: 7915869 - 7917585" points="86,40 102,40 107,35 102,30 86,30 86,40 " style="stroke-width:1; stroke:black; fill:white; " id="dummy-26_q3_0_all" class="clusterblast-orf"  />
<polygon locus_tag="SSMG_07214" description="&lt;b&gt;SSMG_07214&lt;/b&gt;&lt;br&gt;transcriptional regulator&lt;br&gt;Location: 7917796 - 7918798" points="110,40 117,40 122,35 117,30 110,30 110,40 " style="stroke-width:1; stroke:black; fill:white; " id="dummy-26_q4_0_all" class="clusterblast-orf"  />
<polygon locus_tag="SSMG_07215" description="&lt;b&gt;SSMG_07215&lt;/b&gt;&lt;br&gt;N-acetylmuramic acid 6-phosphate etherase&lt;br&gt;Location: 7918817 - 7919744" points="122,40 128,40 133,35 128,30 122,30 122,40 " style="stroke-width:1; stroke:black; fill:white; " id="dummy-26_q5_0_all" class="clusterblast-orf"  />
<polygon locus_tag="SSMG_07216" description="&lt;b&gt;SSMG_07216&lt;/b&gt;&lt;br&gt;high-affinity nickel-transporter&lt;br&gt;Location: 7919817 - 7920912" points="134,40 142,40 147,35 142,30 134,30 134,40 " style="stroke-width:1; stroke:black; fill:white; " id="dummy-26_q6_0_all" class="clusterblast-orf"  />
<polygon locus_tag="SSMG_07217" description="&lt;b&gt;SSMG_07217&lt;/b&gt;&lt;br&gt;alkylhydroperoxidase AhpD&lt;br&gt;Location: 7921132 - 7921585" points="150,35 155,30 155,30 155,40 155,40 150,35 " style="stroke-width:1; stroke:black; fill:white; " id="dummy-26_q7_0_all" class="clusterblast-orf"  />
<polygon locus_tag="SSMG_07218" description="&lt;b&gt;SSMG_07218&lt;/b&gt;&lt;br&gt;sigma factor&lt;br&gt;Location: 7921656 - 7922535" points="156,40 162,40 167,35 162,30 156,30 156,40 " style="stroke-width:1; stroke:black; fill:white; " id="dummy-26_q8_0_all" class="clusterblast-orf"  />
<polygon locus_tag="SSMG_07219" description="&lt;b&gt;SSMG_07219&lt;/b&gt;&lt;br&gt;oxidoreductase&lt;br&gt;Location: 7922537 - 7923437" points="167,35 172,30 178,30 178,40 172,40 167,35 " style="stroke-width:1; stroke:black; fill:white; " id="dummy-26_q9_0_all" class="clusterblast-orf"  />
<polygon locus_tag="SSMG_07220" description="&lt;b&gt;SSMG_07220&lt;/b&gt;&lt;br&gt;TetR family protein transcriptional regulator&lt;br&gt;Location: 7923501 - 7924071" points="178,40 180,40 185,35 180,30 178,30 178,40 " style="stroke-width:1; stroke:black; fill:white; " id="dummy-26_q10_0_all" class="clusterblast-orf"  />
<polygon locus_tag="SSMG_07221" description="&lt;b&gt;SSMG_07221&lt;/b&gt;&lt;br&gt;GAF domain-containing protein&lt;br&gt;Location: 7924055 - 7925972" points="185,35 190,30 208,30 208,40 190,40 185,35 " style="stroke-width:1; stroke:black; fill:white; " id="dummy-26_q11_0_all" class="clusterblast-orf"  />
<polygon locus_tag="SSMG_07222" description="&lt;b&gt;SSMG_07222&lt;/b&gt;&lt;br&gt;integral membrane transporter&lt;br&gt;Location: 7925872 - 7927255" points="207,35 212,30 224,30 224,40 212,40 207,35 " style="stroke-width:1; stroke:black; fill:white; " id="dummy-26_q12_0_all" class="clusterblast-orf"  />
<polygon locus_tag="SSMG_07223" description="&lt;b&gt;SSMG_07223&lt;/b&gt;&lt;br&gt;2-hydroxycyclohexanecarboxyl-CoA dehydrogenase&lt;br&gt;Location: 7927214 - 7927964" points="223,35 228,30 232,30 232,40 228,40 223,35 " style="stroke-width:1; stroke:black; fill:white; " id="dummy-26_q13_0_all" class="clusterblast-orf"  />
<polygon locus_tag="SSMG_07224" description="&lt;b&gt;SSMG_07224&lt;/b&gt;&lt;br&gt;predicted protein&lt;br&gt;Location: 7928053 - 7928776" points="233,35 238,30 242,30 242,40 238,40 233,35 " style="stroke-width:1; stroke:black; fill:white; " id="dummy-26_q14_0_all" class="clusterblast-orf"  />
<polygon locus_tag="SSMG_07225" description="&lt;b&gt;SSMG_07225&lt;/b&gt;&lt;br&gt;purine phosphoribosyltransferase&lt;br&gt;Location: 7928858 - 7929356" points="243,35 248,30 249,30 249,40 248,40 243,35 " style="stroke-width:1; stroke:black; fill:white; " id="dummy-26_q15_0_all" class="clusterblast-orf"  />
<polygon locus_tag="SSMG_07226" description="&lt;b&gt;SSMG_07226&lt;/b&gt;&lt;br&gt;acetyltransferase&lt;br&gt;Location: 7929469 - 7930048" points="250,40 252,40 257,35 252,30 250,30 250,40 " style="stroke-width:1; stroke:black; fill:white; " id="dummy-26_q16_0_all" class="clusterblast-orf"  />
<polygon locus_tag="SSMG_07227" description="&lt;b&gt;SSMG_07227&lt;/b&gt;&lt;br&gt;acetate-CoA ligase&lt;br&gt;Location: 7930166 - 7932146" points="259,40 277,40 282,35 277,30 259,30 259,40 " style="stroke-width:1; stroke:black; fill:#d81515; " id="dummy-26_q17_0_all" class="clusterblast-orf"  />
<polygon locus_tag="SSMG_07228" description="&lt;b&gt;SSMG_07228&lt;/b&gt;&lt;br&gt;predicted protein&lt;br&gt;Location: 7932283 - 7932799" points="284,40 285,40 290,35 285,30 284,30 284,40 " style="stroke-width:1; stroke:black; fill:white; " id="dummy-26_q18_0_all" class="clusterblast-orf"  />
<polygon locus_tag="SSMG_07229" description="&lt;b&gt;SSMG_07229&lt;/b&gt;&lt;br&gt;predicted protein&lt;br&gt;Location: 7932861 - 7933200" points="291,35 295,30 295,40 291,35 " style="stroke-width:1; stroke:black; fill:white; " id="dummy-26_q19_0_all" class="clusterblast-orf"  />
<polygon locus_tag="SSMG_07230" description="&lt;b&gt;SSMG_07230&lt;/b&gt;&lt;br&gt;integral membrane protein&lt;br&gt;Location: 7933320 - 7934043" points="297,40 300,40 305,35 300,30 297,30 297,40 " style="stroke-width:1; stroke:black; fill:white; " id="dummy-26_q20_0_all" class="clusterblast-orf"  />
<polygon locus_tag="SSMG_07231" description="&lt;b&gt;SSMG_07231&lt;/b&gt;&lt;br&gt;predicted protein&lt;br&gt;Location: 7934044 - 7935256" points="305,35 310,30 320,30 320,40 310,40 305,35 " style="stroke-width:1; stroke:black; fill:white; " id="dummy-26_q21_0_all" class="clusterblast-orf"  />
<polygon locus_tag="SSMG_07232" description="&lt;b&gt;SSMG_07232&lt;/b&gt;&lt;br&gt;predicted protein&lt;br&gt;Location: 7935293 - 7936613" points="320,35 325,30 336,30 336,40 325,40 320,35 " style="stroke-width:1; stroke:black; fill:#15d815; " id="dummy-26_q22_0_all" class="clusterblast-orf"  />
<polygon locus_tag="SSMG_07233" description="&lt;b&gt;SSMG_07233&lt;/b&gt;&lt;br&gt;3-deoxy-7-phosphoheptulonate synthase&lt;br&gt;Location: 7936657 - 7937824" points="337,35 342,30 351,30 351,40 342,40 337,35 " style="stroke-width:1; stroke:black; fill:#1597d8; " id="dummy-26_q23_0_all" class="clusterblast-orf"  />
<polygon locus_tag="SSMG_07234" description="&lt;b&gt;SSMG_07234&lt;/b&gt;&lt;br&gt;phenazine biosynthesis protein PhzE&lt;br&gt;Location: 7937875 - 7939819" points="351,35 356,30 375,30 375,40 356,40 351,35 " style="stroke-width:1; stroke:black; fill:#9715d8; " id="dummy-26_q24_0_all" class="clusterblast-orf"  />
<polygon locus_tag="SSMG_07235" description="&lt;b&gt;SSMG_07235&lt;/b&gt;&lt;br&gt;predicted protein&lt;br&gt;Location: 7939815 - 7940535" points="375,35 380,30 383,30 383,40 380,40 375,35 " style="stroke-width:1; stroke:black; fill:white; " id="dummy-26_q25_0_all" class="clusterblast-orf"  />
<polygon locus_tag="SSMG_07236" description="&lt;b&gt;SSMG_07236&lt;/b&gt;&lt;br&gt;predicted protein&lt;br&gt;Location: 7940531 - 7943624" points="383,35 388,30 421,30 421,40 388,40 383,35 " style="stroke-width:1; stroke:black; fill:#d89715; " id="dummy-26_q26_0_all" class="clusterblast-orf"  />
<polygon locus_tag="SSMG_07237" description="&lt;b&gt;SSMG_07237&lt;/b&gt;&lt;br&gt;modular polyketide synthase&lt;br&gt;Location: 7943657 - 7945214" points="421,35 426,30 440,30 440,40 426,40 421,35 " style="stroke-width:1; stroke:black; fill:white; " id="dummy-26_q27_0_all" class="clusterblast-orf"  />
<polygon locus_tag="SSMG_07238" description="&lt;b&gt;SSMG_07238&lt;/b&gt;&lt;br&gt;peptidyl carrier protein&lt;br&gt;Location: 7945279 - 7945537" points="441,35 444,30 444,40 441,35 " style="stroke-width:1; stroke:black; fill:white; " id="dummy-26_q28_0_all" class="clusterblast-orf"  />
<polygon locus_tag="SSMG_07239" description="&lt;b&gt;SSMG_07239&lt;/b&gt;&lt;br&gt;predicted protein&lt;br&gt;Location: 7945805 - 7947257" points="447,40 459,40 464,35 459,30 447,30 447,40 " style="stroke-width:1; stroke:black; fill:white; " id="dummy-26_q29_0_all" class="clusterblast-orf"  />
<polygon locus_tag="SSMG_07240" description="&lt;b&gt;SSMG_07240&lt;/b&gt;&lt;br&gt;predicted protein&lt;br&gt;Location: 7947409 - 7948612" points="466,40 476,40 481,35 476,30 466,30 466,40 " style="stroke-width:1; stroke:black; fill:white; " id="dummy-26_q30_0_all" class="clusterblast-orf"  />
<polygon locus_tag="SSMG_07241" description="&lt;b&gt;SSMG_07241&lt;/b&gt;&lt;br&gt;isochorismatase&lt;br&gt;Location: 7948589 - 7949279" points="480,35 485,30 489,30 489,40 485,40 480,35 " style="stroke-width:1; stroke:black; fill:#15d897; " id="dummy-26_q31_0_all" class="clusterblast-orf"  />
<polygon locus_tag="SSMG_07242" description="&lt;b&gt;SSMG_07242&lt;/b&gt;&lt;br&gt;predicted protein&lt;br&gt;Location: 7949360 - 7950515" points="490,40 499,40 504,35 499,30 490,30 490,40 " style="stroke-width:1; stroke:black; fill:white; " id="dummy-26_q32_0_all" class="clusterblast-orf"  />
<polygon locus_tag="SSMG_07243" description="&lt;b&gt;SSMG_07243&lt;/b&gt;&lt;br&gt;predicted protein&lt;br&gt;Location: 7950511 - 7951132" points="504,40 506,40 511,35 506,30 504,30 504,40 " style="stroke-width:1; stroke:black; fill:white; " id="dummy-26_q33_0_all" class="clusterblast-orf"  />
<polygon locus_tag="SSMG_07244" description="&lt;b&gt;SSMG_07244&lt;/b&gt;&lt;br&gt;di/tripeptide permease&lt;br&gt;Location: 7951135 - 7952638" points="511,35 516,30 529,30 529,40 516,40 511,35 " style="stroke-width:1; stroke:black; fill:white; " id="dummy-26_q34_0_all" class="clusterblast-orf"  />
<polygon locus_tag="SSMG_07245" description="&lt;b&gt;SSMG_07245&lt;/b&gt;&lt;br&gt;Na+/H+ antiporter NhaA&lt;br&gt;Location: 7952813 - 7954064" points="531,40 541,40 546,35 541,30 531,30 531,40 " style="stroke-width:1; stroke:black; fill:#1515d8; " id="dummy-26_q35_0_all" class="clusterblast-orf"  />
<polygon locus_tag="SSMG_07246" description="&lt;b&gt;SSMG_07246&lt;/b&gt;&lt;br&gt;predicted protein&lt;br&gt;Location: 7954102 - 7954621" points="547,40 548,40 553,35 548,30 547,30 547,40 " style="stroke-width:1; stroke:black; fill:white; " id="dummy-26_q36_0_all" class="clusterblast-orf"  />
<polygon locus_tag="SSMG_07247" description="&lt;b&gt;SSMG_07247&lt;/b&gt;&lt;br&gt;alpha/beta hydrolase fold containing protein&lt;br&gt;Location: 7954637 - 7955558" points="553,40 559,40 564,35 559,30 553,30 553,40 " style="stroke-width:1; stroke:black; fill:white; " id="dummy-26_q37_0_all" class="clusterblast-orf"  />
<polygon locus_tag="SSMG_07248" description="&lt;b&gt;SSMG_07248&lt;/b&gt;&lt;br&gt;protease&lt;br&gt;Location: 7955788 - 7956973" points="567,35 572,30 581,30 581,40 572,40 567,35 " style="stroke-width:1; stroke:black; fill:white; " id="dummy-26_q38_0_all" class="clusterblast-orf"  />
<polygon locus_tag="SSMG_07249" description="&lt;b&gt;SSMG_07249&lt;/b&gt;&lt;br&gt;predicted protein&lt;br&gt;Location: 7956980 - 7957697" points="581,35 586,30 590,30 590,40 586,40 581,35 " style="stroke-width:1; stroke:black; fill:#d81597; " id="dummy-26_q39_0_all" class="clusterblast-orf"  />
<polygon locus_tag="SSMG_07250" description="&lt;b&gt;SSMG_07250&lt;/b&gt;&lt;br&gt;redoxin&lt;br&gt;Location: 7957693 - 7958296" points="590,35 595,30 597,30 597,40 595,40 590,35 " style="stroke-width:1; stroke:black; fill:white; " id="dummy-26_q40_0_all" class="clusterblast-orf"  />
<polygon locus_tag="SSMG_07251" description="&lt;b&gt;SSMG_07251&lt;/b&gt;&lt;br&gt;endonuclease III&lt;br&gt;Location: 7958292 - 7959054" points="597,35 602,30 606,30 606,40 602,40 597,35 " style="stroke-width:1; stroke:black; fill:#97d815; " id="dummy-26_q41_0_all" class="clusterblast-orf"  />
<polygon locus_tag="SSMG_07252" description="&lt;b&gt;SSMG_07252&lt;/b&gt;&lt;br&gt;predicted protein&lt;br&gt;Location: 7959183 - 7959465" points="608,40 611,35 608,30 608,40 " style="stroke-width:1; stroke:black; fill:white; " id="dummy-26_q42_0_all" class="clusterblast-orf"  />
<polygon locus_tag="SSMG_07253" description="&lt;b&gt;SSMG_07253&lt;/b&gt;&lt;br&gt;transcriptional regulator&lt;br&gt;Location: 7959624 - 7960299" points="613,40 616,40 621,35 616,30 613,30 613,40 " style="stroke-width:1; stroke:black; fill:white; " id="dummy-26_q43_0_all" class="clusterblast-orf"  />
<polygon locus_tag="SSMG_07254" description="&lt;b&gt;SSMG_07254&lt;/b&gt;&lt;br&gt;predicted protein&lt;br&gt;Location: 7960711 - 7961908" points="626,35 631,30 641,30 641,40 631,40 626,35 " style="stroke-width:1; stroke:black; fill:white; " id="dummy-26_q44_0_all" class="clusterblast-orf"  />
<polygon locus_tag="SSMG_07255" description="&lt;b&gt;SSMG_07255&lt;/b&gt;&lt;br&gt;predicted protein&lt;br&gt;Location: 7962045 - 7963215" points="642,40 651,40 656,35 651,30 642,30 642,40 " style="stroke-width:1; stroke:black; fill:white; " id="dummy-26_q45_0_all" class="clusterblast-orf"  />
<polygon locus_tag="SSMG_07256" description="&lt;b&gt;SSMG_07256&lt;/b&gt;&lt;br&gt;DNA polymerase III, beta subunit&lt;br&gt;Location: 7963479 - 7964577" points="660,40 668,40 673,35 668,30 660,30 660,40 " style="stroke-width:1; stroke:black; fill:white; " id="dummy-26_q46_0_all" class="clusterblast-orf"  />
<polygon locus_tag="SSMG_07257" description="&lt;b&gt;SSMG_07257&lt;/b&gt;&lt;br&gt;conserved hypothetical protein&lt;br&gt;Location: 7964848 - 7965172" points="676,35 680,30 680,40 676,35 " style="stroke-width:1; stroke:black; fill:white; " id="dummy-26_q47_0_all" class="clusterblast-orf"  />
<polygon locus_tag="SSMG_07258" description="&lt;b&gt;SSMG_07258&lt;/b&gt;&lt;br&gt;beta-lactamase domain-containing protein&lt;br&gt;Location: 7965099 - 7965876" points="679,35 684,30 689,30 689,40 684,40 679,35 " style="stroke-width:1; stroke:black; fill:white; " id="dummy-26_q48_0_all" class="clusterblast-orf"  />
<polygon locus_tag="SSMG_07259" description="&lt;b&gt;SSMG_07259&lt;/b&gt;&lt;br&gt;NUDIX hydrolase&lt;br&gt;Location: 7965876 - 7966701" points="689,35 694,30 698,30 698,40 694,40 689,35 " style="stroke-width:1; stroke:black; fill:white; " id="dummy-26_q49_0_all" class="clusterblast-orf"  />
<polygon locus_tag="SSMG_07260" description="&lt;b&gt;SSMG_07260&lt;/b&gt;&lt;br&gt;predicted protein&lt;br&gt;Location: 7966916 - 7968101" points="701,35 706,30 715,30 715,40 706,40 701,35 " style="stroke-width:1; stroke:black; fill:white; " id="dummy-26_q50_0_all" class="clusterblast-orf"  />
<polygon locus_tag="SSMG_07261" description="&lt;b&gt;SSMG_07261&lt;/b&gt;&lt;br&gt;conserved hypothetical protein&lt;br&gt;Location: 7968139 - 7968712" points="716,35 721,30 723,30 723,40 721,40 716,35 " style="stroke-width:1; stroke:black; fill:white; " id="dummy-26_q51_0_all" class="clusterblast-orf"  />
<polygon locus_tag="SSMG_07262" description="&lt;b&gt;SSMG_07262&lt;/b&gt;&lt;br&gt;endoribonuclease L-PSP&lt;br&gt;Location: 7968768 - 7969224" points="723,35 728,30 729,30 729,40 728,40 723,35 " style="stroke-width:1; stroke:black; fill:white; " id="dummy-26_q52_0_all" class="clusterblast-orf"  />
<polygon locus_tag="SSMG_07263" description="&lt;b&gt;SSMG_07263&lt;/b&gt;&lt;br&gt;endoribonuclease L-PSP&lt;br&gt;Location: 7969234 - 7969423" points="729,35 731,30 731,40 729,35 " style="stroke-width:1; stroke:black; fill:white; " id="dummy-26_q53_0_all" class="clusterblast-orf"  />
<polygon locus_tag="SSMG_07264" description="&lt;b&gt;SSMG_07264&lt;/b&gt;&lt;br&gt;predicted protein&lt;br&gt;Location: 7969537 - 7969786" points="733,40 736,35 733,30 733,40 " style="stroke-width:1; stroke:black; fill:white; " id="dummy-26_q54_0_all" class="clusterblast-orf"  />
<polygon locus_tag="SSMG_07265" description="&lt;b&gt;SSMG_07265&lt;/b&gt;&lt;br&gt;anion transporter ATPase&lt;br&gt;Location: 7969808 - 7970813" points="736,40 743,40 748,35 743,30 736,30 736,40 " style="stroke-width:1; stroke:black; fill:white; " id="dummy-26_q55_0_all" class="clusterblast-orf"  />
</g>
<g label="BGC0001675" description="BGC0001675_c1: murayaquinone (5% of genes show similarity), Polyketide" class="clusterblast-cluster"  >
<text class="clusterblast-acc" y="70" x="5"  >
<a xlink:href="https://mibig.secondarymetabolites.org/go/BGC0001675/1" target="_blank">BGC0001675</a>:                                                                    murayaquinone (5% of genes show similarity), Polyketide</text>
<line x1="10" x2="778.0" y2="85" style="stroke-width:1; stroke:grey; " y1="85"  />
</g>
<g id="a26_000"  >
<polygon locus_tag="AQW35023.1" description="&lt;b&gt;AQW35023.1&lt;/b&gt;&lt;br&gt;polyketide cyclase&lt;br&gt;Location: 2081 - 2635" points="0,90 1,90 6,85 1,80 0,80 0,90 " style="stroke-width:1; stroke:black; fill:white; " id="dummy-26_h26_10_0" class="clusterblast-orf"  />
</g>
<g id="a26_001"  >
<polygon locus_tag="AQW35024.1" description="&lt;b&gt;AQW35024.1&lt;/b&gt;&lt;br&gt;cytochrome ubiquinol oxidase subunit I&lt;br&gt;Location: 2978 - 4252" points="10,90 21,90 26,85 21,80 10,80 10,90 " style="stroke-width:1; stroke:black; fill:white; " id="dummy-26_h26_10_1" class="clusterblast-orf"  />
</g>
<g id="a26_002"  >
<polygon locus_tag="AQW35025.1" description="&lt;b&gt;AQW35025.1&lt;/b&gt;&lt;br&gt;cytochrome BD oxidase subunit II&lt;br&gt;Location: 4265 - 5026" points="26,90 30,90 35,85 30,80 26,80 26,90 " style="stroke-width:1; stroke:black; fill:white; " id="dummy-26_h26_10_2" class="clusterblast-orf"  />
</g>
<g id="a26_003"  >
<polygon locus_tag="AQW35026.1" description="&lt;b&gt;AQW35026.1&lt;/b&gt;&lt;br&gt;Transmembrane transporter&lt;br&gt;Location: 5178 - 7355" points="37,90 58,90 63,85 58,80 37,80 37,90 " style="stroke-width:1; stroke:black; fill:white; " id="dummy-26_h26_10_3" class="clusterblast-orf"  />
</g>
<g id="a26_004"  >
<polygon locus_tag="AQW35027.1" description="&lt;b&gt;AQW35027.1&lt;/b&gt;&lt;br&gt;transcriptional regulator&lt;br&gt;Location: 7422 - 9356" points="64,85 69,80 87,80 87,90 69,90 64,85 " style="stroke-width:1; stroke:black; fill:white; " id="dummy-26_h26_10_4" class="clusterblast-orf"  />
</g>
<g id="a26_005"  >
<polygon locus_tag="AQW35028.1" description="&lt;b&gt;AQW35028.1&lt;/b&gt;&lt;br&gt;Multidrug MFS transporter&lt;br&gt;Location: 9730 - 11454" points="92,85 97,80 112,80 112,90 97,90 92,85 " style="stroke-width:1; stroke:black; fill:white; " id="dummy-26_h26_10_5" class="clusterblast-orf"  />
</g>
<g id="a26_006"  >
<polygon locus_tag="AQW35029.1" description="&lt;b&gt;AQW35029.1&lt;/b&gt;&lt;br&gt;MarR family transcriptional regulator&lt;br&gt;Location: 11564 - 12097" points="114,90 115,90 120,85 115,80 114,80 114,90 " style="stroke-width:1; stroke:black; fill:white; " id="dummy-26_h26_10_6" class="clusterblast-orf"  />
</g>
<g id="a26_007"  >
<polygon locus_tag="AQW35030.1" description="&lt;b&gt;AQW35030.1&lt;/b&gt;&lt;br&gt;transposase&lt;br&gt;Location: 12188 - 13402" points="121,85 126,80 136,80 136,90 126,90 121,85 " style="stroke-width:1; stroke:black; fill:white; " id="dummy-26_h26_10_7" class="clusterblast-orf"  />
</g>
<g id="a26_008"  >
<polygon locus_tag="AQW35031.1" description="&lt;b&gt;AQW35031.1&lt;/b&gt;&lt;br&gt;oxidoreductase&lt;br&gt;Location: 14050 - 15075" points="144,85 149,80 156,80 156,90 149,90 144,85 " style="stroke-width:1; stroke:black; fill:white; " id="dummy-26_h26_10_8" class="clusterblast-orf"  />
</g>
<g id="a26_009"  >
<polygon locus_tag="AQW35032.1" description="&lt;b&gt;AQW35032.1&lt;/b&gt;&lt;br&gt;N-acetyltransferase&lt;br&gt;Location: 15098 - 15889" points="156,85 161,80 166,80 166,90 161,90 156,85 " style="stroke-width:1; stroke:black; fill:white; " id="dummy-26_h26_10_9" class="clusterblast-orf"  />
</g>
<g id="a26_0010"  >
<polygon locus_tag="AQW35033.1" description="&lt;b&gt;AQW35033.1&lt;/b&gt;&lt;br&gt;ketoacyl-ACP synthase III&lt;br&gt;Location: 15925 - 16950" points="166,85 171,80 179,80 179,90 171,90 166,85 " style="stroke-width:1; stroke:black; fill:white; " id="dummy-26_h26_10_10" class="clusterblast-orf"  />
</g>
<g id="a26_0011"  >
<polygon locus_tag="AQW35034.1" description="&lt;b&gt;AQW35034.1&lt;/b&gt;&lt;br&gt;hypothetical protein&lt;br&gt;Location: 17231 - 17905" points="182,90 185,90 190,85 185,80 182,80 182,90 " style="stroke-width:1; stroke:black; fill:white; " id="dummy-26_h26_10_11" class="clusterblast-orf"  />
</g>
<g id="a26_0012"  >
<polygon locus_tag="AQW35035.1" description="&lt;b&gt;AQW35035.1&lt;/b&gt;&lt;br&gt;oxidoreductase&lt;br&gt;Location: 17957 - 18982" points="191,90 198,90 203,85 198,80 191,80 191,90 " style="stroke-width:1; stroke:black; fill:white; " id="dummy-26_h26_10_12" class="clusterblast-orf"  />
</g>
<g id="a26_0013"  >
<polygon locus_tag="AQW35036.1" description="&lt;b&gt;AQW35036.1&lt;/b&gt;&lt;br&gt;copper oxidase&lt;br&gt;Location: 19017 - 20612" points="203,85 208,80 223,80 223,90 208,90 203,85 " style="stroke-width:1; stroke:black; fill:white; " id="dummy-26_h26_10_13" class="clusterblast-orf"  />
</g>
<g id="a26_0014"  >
<polygon locus_tag="AQW35037.1" description="&lt;b&gt;AQW35037.1&lt;/b&gt;&lt;br&gt;hypothetical protein&lt;br&gt;Location: 20609 - 21040" points="223,85 228,80 228,80 228,90 228,90 223,85 " style="stroke-width:1; stroke:black; fill:white; " id="dummy-26_h26_10_14" class="clusterblast-orf"  />
</g>
<g id="a26_0015"  >
<polygon locus_tag="AQW35038.1" description="&lt;b&gt;AQW35038.1&lt;/b&gt;&lt;br&gt;regulatory protein&lt;br&gt;Location: 21268 - 22047" points="231,90 235,90 240,85 235,80 231,80 231,90 " style="stroke-width:1; stroke:black; fill:white; " id="dummy-26_h26_10_15" class="clusterblast-orf"  />
</g>
<g id="a26_0016"  >
<polygon locus_tag="AQW35039.1" description="&lt;b&gt;AQW35039.1&lt;/b&gt;&lt;br&gt;dTDP-4-dehydrorhamnose 3,5-epimerase&lt;br&gt;Location: 22050 - 22640" points="240,85 245,80 247,80 247,90 245,90 240,85 " style="stroke-width:1; stroke:black; fill:white; " id="dummy-26_h26_10_16" class="clusterblast-orf"  />
</g>
<g id="a26_0017"  >
<polygon locus_tag="AQW35040.1" description="&lt;b&gt;AQW35040.1&lt;/b&gt;&lt;br&gt;glucose-1-phosphate thymidylyltransferase&lt;br&gt;Location: 22654 - 23721" points="247,85 252,80 260,80 260,90 252,90 247,85 " style="stroke-width:1; stroke:black; fill:white; " id="dummy-26_h26_10_17" class="clusterblast-orf"  />
</g>
<g id="a26_0018"  >
<polygon locus_tag="AQW35041.1" description="&lt;b&gt;AQW35041.1&lt;/b&gt;&lt;br&gt;glycosyltransferase&lt;br&gt;Location: 23931 - 25067" points="263,90 271,90 276,85 271,80 263,80 263,90 " style="stroke-width:1; stroke:black; fill:white; " id="dummy-26_h26_10_18" class="clusterblast-orf"  />
</g>
<g id="a26_0019"  >
<polygon locus_tag="AQW35042.1" description="&lt;b&gt;AQW35042.1&lt;/b&gt;&lt;br&gt;dTDP-glucose 4,6-dehydratase&lt;br&gt;Location: 25177 - 26160" points="278,90 284,90 289,85 284,80 278,80 278,90 " style="stroke-width:1; stroke:black; fill:white; " id="dummy-26_h26_10_19" class="clusterblast-orf"  />
</g>
<g id="a26_0020"  >
<polygon locus_tag="AQW35043.1" description="&lt;b&gt;AQW35043.1&lt;/b&gt;&lt;br&gt;dTDP-4-dehydrorhamnose reductase&lt;br&gt;Location: 26157 - 27041" points="289,90 295,90 300,85 295,80 289,80 289,90 " style="stroke-width:1; stroke:black; fill:white; " id="dummy-26_h26_10_20" class="clusterblast-orf"  />
</g>
<g id="a26_0021"  >
<polygon locus_tag="AQW35044.1" description="&lt;b&gt;AQW35044.1&lt;/b&gt;&lt;br&gt;SAM-dependent methyltransferase&lt;br&gt;Location: 27083 - 28357" points="301,90 311,90 316,85 311,80 301,80 301,90 " style="stroke-width:1; stroke:black; fill:white; " id="dummy-26_h26_10_21" class="clusterblast-orf"  />
</g>
<g id="a26_0022"  >
<polygon locus_tag="AQW35045.1" description="&lt;b&gt;AQW35045.1&lt;/b&gt;&lt;br&gt;3-oxoacyl-ACP synthase&lt;br&gt;Location: 28418 - 29464" points="317,90 324,90 329,85 324,80 317,80 317,90 " style="stroke-width:1; stroke:black; fill:white; " id="dummy-26_h26_10_22" class="clusterblast-orf"  />
</g>
<g id="a26_0023"  >
<polygon locus_tag="AQW35046.1" description="&lt;b&gt;AQW35046.1&lt;/b&gt;&lt;br&gt;beta-ketoacyl synthase III&lt;br&gt;Location: 29543 - 30544" points="330,85 335,80 342,80 342,90 335,90 330,85 " style="stroke-width:1; stroke:black; fill:white; " id="dummy-26_h26_10_23" class="clusterblast-orf"  />
</g>
<g id="a26_0024"  >
<polygon locus_tag="AQW35047.1" description="&lt;b&gt;AQW35047.1&lt;/b&gt;&lt;br&gt;Acyl-CoA synthetase&lt;br&gt;Location: 30541 - 32271" points="342,85 347,80 363,80 363,90 347,90 342,85 " style="stroke-width:1; stroke:black; fill:white; " id="dummy-26_h26_10_24" class="clusterblast-orf"  />
</g>
<g id="a26_0025"  >
<polygon locus_tag="AQW35048.1" description="&lt;b&gt;AQW35048.1&lt;/b&gt;&lt;br&gt;phenazine biosynthesis protein PhzE&lt;br&gt;Location: 32313 - 34349&lt;br&gt;&lt;br&gt;&lt;b&gt;BlastP hit with SSMG_07234&lt;/b&gt;&lt;br&gt;Percentage identity: 53&lt;br&gt;Percentage coverage: 96&lt;br&gt;BLAST bit score: 596&lt;br&gt;E-value: 5.4e-170" points="363,85 368,80 388,80 388,90 368,90 363,85 " style="stroke-width:1; stroke:black; fill:#9715d8; " id="dummy-26_h26_10_25" class="clusterblast-orf"  />
</g>
<g id="a26_0026"  >
<polygon locus_tag="AQW35049.1" description="&lt;b&gt;AQW35049.1&lt;/b&gt;&lt;br&gt;phenazine biosynthesis protein PhzD&lt;br&gt;Location: 34346 - 35074&lt;br&gt;&lt;br&gt;&lt;b&gt;BlastP hit with SSMG_07241&lt;/b&gt;&lt;br&gt;Percentage identity: 60&lt;br&gt;Percentage coverage: 92&lt;br&gt;BLAST bit score: 262&lt;br&gt;E-value: 5e-70" points="388,85 393,80 397,80 397,90 393,90 388,85 " style="stroke-width:1; stroke:black; fill:#15d897; " id="dummy-26_h26_10_26" class="clusterblast-orf"  />
</g>
<g id="a26_0027"  >
<polygon locus_tag="AQW35050.1" description="&lt;b&gt;AQW35050.1&lt;/b&gt;&lt;br&gt;2,3-dihydroxybenzoate-2,3-dehydrogenase&lt;br&gt;Location: 35076 - 35858" points="397,85 402,80 406,80 406,90 402,90 397,85 " style="stroke-width:1; stroke:black; fill:white; " id="dummy-26_h26_10_27" class="clusterblast-orf"  />
</g>
<g id="a26_0028"  >
<polygon locus_tag="AQW35051.1" description="&lt;b&gt;AQW35051.1&lt;/b&gt;&lt;br&gt;phospho-2-dehydro-3-deoxyheptonate aldolase&lt;br&gt;Location: 35903 - 37075&lt;br&gt;&lt;br&gt;&lt;b&gt;BlastP hit with SSMG_07233&lt;/b&gt;&lt;br&gt;Percentage identity: 58&lt;br&gt;Percentage coverage: 99&lt;br&gt;BLAST bit score: 411&lt;br&gt;E-value: 1.5e-114" points="407,85 412,80 421,80 421,90 412,90 407,85 " style="stroke-width:1; stroke:black; fill:#1597d8; " id="dummy-26_h26_10_28" class="clusterblast-orf"  />
</g>
<g id="a26_0029"  >
<polygon locus_tag="AQW35052.1" description="&lt;b&gt;AQW35052.1&lt;/b&gt;&lt;br&gt;carboxylesterase&lt;br&gt;Location: 37112 - 38692" points="421,85 426,80 440,80 440,90 426,90 421,85 " style="stroke-width:1; stroke:black; fill:white; " id="dummy-26_h26_10_29" class="clusterblast-orf"  />
</g>
<g id="a26_0030"  >
<polygon locus_tag="AQW35053.1" description="&lt;b&gt;AQW35053.1&lt;/b&gt;&lt;br&gt;acetyltransferase&lt;br&gt;Location: 38933 - 39817" points="443,90 449,90 454,85 449,80 443,80 443,90 " style="stroke-width:1; stroke:black; fill:white; " id="dummy-26_h26_10_30" class="clusterblast-orf"  />
</g>
<g id="a26_0031"  >
<polygon locus_tag="AQW35054.1" description="&lt;b&gt;AQW35054.1&lt;/b&gt;&lt;br&gt;long-chain acyl-CoA synthetase&lt;br&gt;Location: 39817 - 41394" points="454,90 468,90 473,85 468,80 454,80 454,90 " style="stroke-width:1; stroke:black; fill:white; " id="dummy-26_h26_10_31" class="clusterblast-orf"  />
</g>
<g id="a26_0032"  >
<polygon locus_tag="AQW35055.1" description="&lt;b&gt;AQW35055.1&lt;/b&gt;&lt;br&gt;bifunctional monooxygenase-dehydratase&lt;br&gt;Location: 41534 - 42949" points="475,90 487,90 492,85 487,80 475,80 475,90 " style="stroke-width:1; stroke:black; fill:white; " id="dummy-26_h26_10_32" class="clusterblast-orf"  />
</g>
<g id="a26_0033"  >
<polygon locus_tag="AQW35056.1" description="&lt;b&gt;AQW35056.1&lt;/b&gt;&lt;br&gt;regulatory protein&lt;br&gt;Location: 43022 - 43822" points="492,85 497,80 502,80 502,90 497,90 492,85 " style="stroke-width:1; stroke:black; fill:white; " id="dummy-26_h26_10_33" class="clusterblast-orf"  />
</g>
<g id="a26_0034"  >
<polygon locus_tag="AQW35057.1" description="&lt;b&gt;AQW35057.1&lt;/b&gt;&lt;br&gt;3-oxoacyl-ACP reductase&lt;br&gt;Location: 44096 - 44833" points="505,90 509,90 514,85 509,80 505,80 505,90 " style="stroke-width:1; stroke:black; fill:white; " id="dummy-26_h26_10_34" class="clusterblast-orf"  />
</g>
<g id="a26_0035"  >
<polygon locus_tag="AQW35058.1" description="&lt;b&gt;AQW35058.1&lt;/b&gt;&lt;br&gt;KS&lt;br&gt;Location: 44937 - 46190" points="515,90 526,90 531,85 526,80 515,80 515,90 " style="stroke-width:1; stroke:black; fill:white; " id="dummy-26_h26_10_35" class="clusterblast-orf"  />
</g>
<g id="a26_0036"  >
<polygon locus_tag="AQW35059.1" description="&lt;b&gt;AQW35059.1&lt;/b&gt;&lt;br&gt;chain length factor&lt;br&gt;Location: 46187 - 47431" points="531,90 541,90 546,85 541,80 531,80 531,90 " style="stroke-width:1; stroke:black; fill:white; " id="dummy-26_h26_10_36" class="clusterblast-orf"  />
</g>
<g id="a26_0037"  >
<polygon locus_tag="AQW35060.1" description="&lt;b&gt;AQW35060.1&lt;/b&gt;&lt;br&gt;acyl carrier protein&lt;br&gt;Location: 47485 - 47748" points="546,90 549,85 546,80 546,90 " style="stroke-width:1; stroke:black; fill:white; " id="dummy-26_h26_10_37" class="clusterblast-orf"  />
</g>
<g id="a26_0038"  >
<polygon locus_tag="AQW35061.1" description="&lt;b&gt;AQW35061.1&lt;/b&gt;&lt;br&gt;oxidoreductase&lt;br&gt;Location: 47745 - 48671" points="549,90 555,90 560,85 555,80 549,80 549,90 " style="stroke-width:1; stroke:black; fill:white; " id="dummy-26_h26_10_38" class="clusterblast-orf"  />
</g>
<g id="a26_0039"  >
<polygon locus_tag="AQW35062.1" description="&lt;b&gt;AQW35062.1&lt;/b&gt;&lt;br&gt;second ring cyclase&lt;br&gt;Location: 48802 - 49761" points="562,90 569,90 574,85 569,80 562,80 562,90 " style="stroke-width:1; stroke:black; fill:white; " id="dummy-26_h26_10_39" class="clusterblast-orf"  />
</g>
<g id="a26_0040"  >
<polygon locus_tag="AQW35063.1" description="&lt;b&gt;AQW35063.1&lt;/b&gt;&lt;br&gt;cyclase&lt;br&gt;Location: 49820 - 50773" points="574,85 579,80 586,80 586,90 579,90 574,85 " style="stroke-width:1; stroke:black; fill:white; " id="dummy-26_h26_10_40" class="clusterblast-orf"  />
</g>
<g id="a26_0041"  >
<polygon locus_tag="AQW35064.1" description="&lt;b&gt;AQW35064.1&lt;/b&gt;&lt;br&gt;Polyketide C-9 ketoreductase&lt;br&gt;Location: 50851 - 51639" points="587,85 592,80 596,80 596,90 592,90 587,85 " style="stroke-width:1; stroke:black; fill:white; " id="dummy-26_h26_10_41" class="clusterblast-orf"  />
</g>
<g id="a26_0042"  >
<polygon locus_tag="AQW35065.1" description="&lt;b&gt;AQW35065.1&lt;/b&gt;&lt;br&gt;flavin reductase&lt;br&gt;Location: 51636 - 52154" points="596,85 601,80 602,80 602,90 601,90 596,85 " style="stroke-width:1; stroke:black; fill:white; " id="dummy-26_h26_10_42" class="clusterblast-orf"  />
</g>
<g id="a26_0043"  >
<polygon locus_tag="AQW35066.1" description="&lt;b&gt;AQW35066.1&lt;/b&gt;&lt;br&gt;hypothetical protein&lt;br&gt;Location: 52347 - 53417" points="605,90 613,90 618,85 613,80 605,80 605,90 " style="stroke-width:1; stroke:black; fill:white; " id="dummy-26_h26_10_43" class="clusterblast-orf"  />
</g>
<g id="a26_0044"  >
<polygon locus_tag="AQW35067.1" description="&lt;b&gt;AQW35067.1&lt;/b&gt;&lt;br&gt;oxidase&lt;br&gt;Location: 53453 - 54922" points="618,90 631,90 636,85 631,80 618,80 618,90 " style="stroke-width:1; stroke:black; fill:white; " id="dummy-26_h26_10_44" class="clusterblast-orf"  />
</g>
<g id="a26_0045"  >
<polygon locus_tag="AQW35068.1" description="&lt;b&gt;AQW35068.1&lt;/b&gt;&lt;br&gt;oxidase&lt;br&gt;Location: 54995 - 56050" points="637,85 642,80 649,80 649,90 642,90 637,85 " style="stroke-width:1; stroke:black; fill:white; " id="dummy-26_h26_10_45" class="clusterblast-orf"  />
</g>
<g id="a26_0046"  >
<polygon locus_tag="AQW35069.1" description="&lt;b&gt;AQW35069.1&lt;/b&gt;&lt;br&gt;ketoreductase&lt;br&gt;Location: 56116 - 56886" points="650,85 655,80 659,80 659,90 655,90 650,85 " style="stroke-width:1; stroke:black; fill:white; " id="dummy-26_h26_10_46" class="clusterblast-orf"  />
</g>
<g id="a26_0047"  >
<polygon locus_tag="AQW35070.1" description="&lt;b&gt;AQW35070.1&lt;/b&gt;&lt;br&gt;hypothetical protein&lt;br&gt;Location: 56883 - 57344" points="659,85 664,80 665,80 665,90 664,90 659,85 " style="stroke-width:1; stroke:black; fill:white; " id="dummy-26_h26_10_47" class="clusterblast-orf"  />
</g>
<g id="a26_0048"  >
<polygon locus_tag="AQW35071.1" description="&lt;b&gt;AQW35071.1&lt;/b&gt;&lt;br&gt;cyclase&lt;br&gt;Location: 57332 - 57865" points="665,85 670,80 671,80 671,90 670,90 665,85 " style="stroke-width:1; stroke:black; fill:white; " id="dummy-26_h26_10_48" class="clusterblast-orf"  />
</g>
<g id="a26_0049"  >
<polygon locus_tag="AQW35072.1" description="&lt;b&gt;AQW35072.1&lt;/b&gt;&lt;br&gt;hypothetical protein&lt;br&gt;Location: 57867 - 58331" points="671,85 676,80 677,80 677,90 676,90 671,85 " style="stroke-width:1; stroke:black; fill:white; " id="dummy-26_h26_10_49" class="clusterblast-orf"  />
</g>
<g id="a26_0050"  >
<polygon locus_tag="AQW35073.1" description="&lt;b&gt;AQW35073.1&lt;/b&gt;&lt;br&gt;oxygenase&lt;br&gt;Location: 58328 - 58639" points="677,85 680,80 680,90 677,85 " style="stroke-width:1; stroke:black; fill:white; " id="dummy-26_h26_10_50" class="clusterblast-orf"  />
</g>
<g id="a26_0051"  >
<polygon locus_tag="AQW35074.1" description="&lt;b&gt;AQW35074.1&lt;/b&gt;&lt;br&gt;FAD-binding monooxygenase&lt;br&gt;Location: 58885 - 60483" points="683,90 698,90 703,85 698,80 683,80 683,90 " style="stroke-width:1; stroke:black; fill:white; " id="dummy-26_h26_10_51" class="clusterblast-orf"  />
</g>
<g id="a26_0052"  >
<polygon locus_tag="AQW35075.1" description="&lt;b&gt;AQW35075.1&lt;/b&gt;&lt;br&gt;NAD(P)-dependent oxidoreductase&lt;br&gt;Location: 60533 - 61396" points="703,90 709,90 714,85 709,80 703,80 703,90 " style="stroke-width:1; stroke:black; fill:white; " id="dummy-26_h26_10_52" class="clusterblast-orf"  />
</g>
<g id="a26_0053"  >
<polygon locus_tag="AQW35076.1" description="&lt;b&gt;AQW35076.1&lt;/b&gt;&lt;br&gt;hypothetical protein&lt;br&gt;Location: 61749 - 62399" points="718,85 723,80 726,80 726,90 723,90 718,85 " style="stroke-width:1; stroke:black; fill:white; " id="dummy-26_h26_10_53" class="clusterblast-orf"  />
</g>
<g id="a26_0054"  >
<polygon locus_tag="AQW35077.1" description="&lt;b&gt;AQW35077.1&lt;/b&gt;&lt;br&gt;MFS transporter&lt;br&gt;Location: 62466 - 63977" points="727,85 732,80 745,80 745,90 732,90 727,85 " style="stroke-width:1; stroke:black; fill:white; " id="dummy-26_h26_10_54" class="clusterblast-orf"  />
</g>
<g id="a26_0055"  >
<polygon locus_tag="AQW35078.1" description="&lt;b&gt;AQW35078.1&lt;/b&gt;&lt;br&gt;TetR family transcriptional regulator&lt;br&gt;Location: 64227 - 64910" points="748,90 751,90 756,85 751,80 748,80 748,90 " style="stroke-width:1; stroke:black; fill:white; " id="dummy-26_h26_10_55" class="clusterblast-orf"  />
</g>
<g id="a26_0056"  >
<polygon locus_tag="AQW35079.1" description="&lt;b&gt;AQW35079.1&lt;/b&gt;&lt;br&gt;two-component sensor histidine kinase&lt;br&gt;Location: 64910 - 66124" points="756,90 766,90 771,85 766,80 756,80 756,90 " style="stroke-width:1; stroke:black; fill:white; " id="dummy-26_h26_10_56" class="clusterblast-orf"  />
</g>
<g id="a26_0057"  >
<polygon locus_tag="AQW35080.1" description="&lt;b&gt;AQW35080.1&lt;/b&gt;&lt;br&gt;two-component response regulator&lt;br&gt;Location: 66184 - 66864" points="771,90 775,90 780,85 775,80 771,80 771,90 " style="stroke-width:1; stroke:black; fill:white; " id="dummy-26_h26_10_57" class="clusterblast-orf"  />
</g>
</svg>
