<svg version="1.1" xmlns="http://www.w3.org/2000/svg" height="230" width="800" xmlns:xlink="http://www.w3.org/1999/xlink" preserveAspectRatio="none" x="0" y="0" viewBox="0 0 800 230"  >
<g label="Query sequence" class="clusterblast-cluster"  >
<text class="clusterblast-acc" y="20" x="5"  >
Query sequence</text>
<line x1="10" x2="778.0" y2="35" style="stroke-width:1; stroke:grey; " y1="35"  />
<polygon locus_tag="SSMG_00016" description="&lt;b&gt;SSMG_00016&lt;/b&gt;&lt;br&gt;regulatory protein&lt;br&gt;Location: 18425 - 18938" points="222,35 227,30 231,30 231,40 227,40 222,35 " style="stroke-width:1; stroke:black; fill:white; " id="dummy-1_q0_0_all" class="clusterblast-orf"  />
<polygon locus_tag="SSMG_00017" description="&lt;b&gt;SSMG_00017&lt;/b&gt;&lt;br&gt;esterase/lipase&lt;br&gt;Location: 19064 - 20027" points="233,40 244,40 249,35 244,30 233,30 233,40 " style="stroke-width:1; stroke:black; fill:white; " id="dummy-1_q1_0_all" class="clusterblast-orf"  />
<polygon locus_tag="SSMG_00018" description="&lt;b&gt;SSMG_00018&lt;/b&gt;&lt;br&gt;predicted protein&lt;br&gt;Location: 20186 - 21581" points="252,40 270,40 275,35 270,30 252,30 252,40 " style="stroke-width:1; stroke:black; fill:white; " id="dummy-1_q2_0_all" class="clusterblast-orf"  />
<polygon locus_tag="SSMG_00019" description="&lt;b&gt;SSMG_00019&lt;/b&gt;&lt;br&gt;predicted protein&lt;br&gt;Location: 21584 - 22448" points="275,35 280,30 289,30 289,40 280,40 275,35 " style="stroke-width:1; stroke:black; fill:white; " id="dummy-1_q3_0_all" class="clusterblast-orf"  />
<polygon locus_tag="SSMG_00020" description="&lt;b&gt;SSMG_00020&lt;/b&gt;&lt;br&gt;TetR-family transcriptional regulator&lt;br&gt;Location: 22567 - 23146" points="291,35 296,30 301,30 301,40 296,40 291,35 " style="stroke-width:1; stroke:black; fill:#d81515; " id="dummy-1_q4_0_all" class="clusterblast-orf"  />
<polygon locus_tag="SSMG_00021" description="&lt;b&gt;SSMG_00021&lt;/b&gt;&lt;br&gt;membrane protein&lt;br&gt;Location: 23236 - 23683" points="302,40 305,40 310,35 305,30 302,30 302,40 " style="stroke-width:1; stroke:black; fill:#4dd815; " id="dummy-1_q5_0_all" class="clusterblast-orf"  />
<polygon locus_tag="SSMG_00022" description="&lt;b&gt;SSMG_00022&lt;/b&gt;&lt;br&gt;predicted protein&lt;br&gt;Location: 23843 - 24374" points="312,40 316,40 321,35 316,30 312,30 312,40 " style="stroke-width:1; stroke:black; fill:white; " id="dummy-1_q6_0_all" class="clusterblast-orf"  />
<polygon locus_tag="SSMG_00023" description="&lt;b&gt;SSMG_00023&lt;/b&gt;&lt;br&gt;adenylosuccinate lyase&lt;br&gt;Location: 24440 - 25841" points="322,35 327,30 345,30 345,40 327,40 322,35 " style="stroke-width:1; stroke:black; fill:white; " id="dummy-1_q7_0_all" class="clusterblast-orf"  />
<polygon locus_tag="SSMG_00024" description="&lt;b&gt;SSMG_00024&lt;/b&gt;&lt;br&gt;conserved hypothetical protein&lt;br&gt;Location: 26639 - 27155" points="359,35 364,30 367,30 367,40 364,40 359,35 " style="stroke-width:1; stroke:black; fill:white; " id="dummy-1_q8_0_all" class="clusterblast-orf"  />
<polygon locus_tag="SSMG_00025" description="&lt;b&gt;SSMG_00025&lt;/b&gt;&lt;br&gt;predicted protein&lt;br&gt;Location: 27543 - 28605" points="374,40 386,40 391,35 386,30 374,30 374,40 " style="stroke-width:1; stroke:black; fill:#1585d8; " id="dummy-1_q9_0_all" class="clusterblast-orf"  />
<polygon locus_tag="SSMG_00026" description="&lt;b&gt;SSMG_00026&lt;/b&gt;&lt;br&gt;tryptophanase&lt;br&gt;Location: 28647 - 30024" points="392,40 410,40 415,35 410,30 392,30 392,40 " style="stroke-width:1; stroke:black; fill:#d815bc; " id="dummy-1_q10_0_all" class="clusterblast-orf"  />
<polygon locus_tag="SSMG_00027" description="&lt;b&gt;SSMG_00027&lt;/b&gt;&lt;br&gt;ATP/GTP-binding protein&lt;br&gt;Location: 30097 - 30685" points="416,35 421,30 426,30 426,40 421,40 416,35 " style="stroke-width:1; stroke:black; fill:#d8bc15; " id="dummy-1_q11_0_all" class="clusterblast-orf"  />
<polygon locus_tag="SSMG_00028" description="&lt;b&gt;SSMG_00028&lt;/b&gt;&lt;br&gt;conserved hypothetical protein&lt;br&gt;Location: 30665 - 31031" points="425,35 430,30 432,30 432,40 430,40 425,35 " style="stroke-width:1; stroke:black; fill:#15d885; " id="dummy-1_q12_0_all" class="clusterblast-orf"  />
<polygon locus_tag="SSMG_00029" description="&lt;b&gt;SSMG_00029&lt;/b&gt;&lt;br&gt;conserved hypothetical protein&lt;br&gt;Location: 31027 - 31453" points="431,35 436,30 439,30 439,40 436,40 431,35 " style="stroke-width:1; stroke:black; fill:#4d15d8; " id="dummy-1_q13_0_all" class="clusterblast-orf"  />
<polygon locus_tag="SSMG_00030" description="&lt;b&gt;SSMG_00030&lt;/b&gt;&lt;br&gt;hypothetical protein&lt;br&gt;Location: 31495 - 33862" points="439,35 444,30 478,30 478,40 444,40 439,35 " style="stroke-width:1; stroke:black; fill:white; " id="dummy-1_q14_0_all" class="clusterblast-orf"  />
<polygon locus_tag="SSMG_00031" description="&lt;b&gt;SSMG_00031&lt;/b&gt;&lt;br&gt;predicted protein&lt;br&gt;Location: 34268 - 36653" points="485,35 490,30 525,30 525,40 490,40 485,35 " style="stroke-width:1; stroke:black; fill:white; " id="dummy-1_q15_0_all" class="clusterblast-orf"  />
<polygon locus_tag="SSMG_00032" description="&lt;b&gt;SSMG_00032&lt;/b&gt;&lt;br&gt;predicted protein&lt;br&gt;Location: 36857 - 37337" points="528,40 531,40 536,35 531,30 528,30 528,40 " style="stroke-width:1; stroke:black; fill:white; " id="dummy-1_q16_0_all" class="clusterblast-orf"  />
<polygon locus_tag="SSMG_00033" description="&lt;b&gt;SSMG_00033&lt;/b&gt;&lt;br&gt;integral membrane protein&lt;br&gt;Location: 37320 - 37722" points="536,40 537,40 542,35 537,30 536,30 536,40 " style="stroke-width:1; stroke:black; fill:white; " id="dummy-1_q17_0_all" class="clusterblast-orf"  />
<polygon locus_tag="SSMG_00034" description="&lt;b&gt;SSMG_00034&lt;/b&gt;&lt;br&gt;poly(L-lactic acid) depolymerase&lt;br&gt;Location: 37874 - 38588" points="545,40 552,40 557,35 552,30 545,30 545,40 " style="stroke-width:1; stroke:black; fill:white; " id="dummy-1_q18_0_all" class="clusterblast-orf"  />
</g>
<g label="BGC0000695" description="BGC0000695_c1: fortimicin (9% of genes show similarity), Saccharide" class="clusterblast-cluster"  >
<text class="clusterblast-acc" y="70" x="5"  >
<a xlink:href="https://mibig.secondarymetabolites.org/go/BGC0000695/1" target="_blank">BGC0000695</a>:                                                                       fortimicin (9% of genes show similarity), Saccharide</text>
<line x1="10" x2="778.0" y2="85" style="stroke-width:1; stroke:grey; " y1="85"  />
</g>
<g id="a1_000"  >
<polygon locus_tag="CAF31530.1" description="&lt;b&gt;CAF31530.1&lt;/b&gt;&lt;br&gt;hypothetical protein&lt;br&gt;Location: 1 - 1416" points="0,85 5,80 23,80 23,90 5,90 0,85 " style="stroke-width:1; stroke:black; fill:white; " id="dummy-1_h1_1_0" class="clusterblast-orf"  />
</g>
<g id="a1_001"  >
<polygon locus_tag="CAF31531.1" description="&lt;b&gt;CAF31531.1&lt;/b&gt;&lt;br&gt;putative transposase&lt;br&gt;Location: 1547 - 2467" points="25,85 30,80 40,80 40,90 30,90 25,85 " style="stroke-width:1; stroke:black; fill:white; " id="dummy-1_h1_1_1" class="clusterblast-orf"  />
</g>
<g id="a1_002"  >
<polygon locus_tag="CAF31532.1" description="&lt;b&gt;CAF31532.1&lt;/b&gt;&lt;br&gt;ForY&lt;br&gt;Location: 2968 - 4290" points="49,90 66,90 71,85 66,80 49,80 49,90 " style="stroke-width:1; stroke:black; fill:white; " id="dummy-1_h1_1_2" class="clusterblast-orf"  />
</g>
<g id="a1_003"  >
<polygon locus_tag="CAF31533.1" description="&lt;b&gt;CAF31533.1&lt;/b&gt;&lt;br&gt;putative component in exporter complex&lt;br&gt;Location: 4629 - 6635" points="76,90 105,90 110,85 105,80 76,80 76,90 " style="stroke-width:1; stroke:black; fill:white; " id="dummy-1_h1_1_3" class="clusterblast-orf"  />
</g>
<g id="a1_004"  >
<polygon locus_tag="CAF31534.1" description="&lt;b&gt;CAF31534.1&lt;/b&gt;&lt;br&gt;putative component in exporter complex&lt;br&gt;Location: 6632 - 8143" points="109,90 130,90 135,85 130,80 109,80 109,90 " style="stroke-width:1; stroke:black; fill:white; " id="dummy-1_h1_1_4" class="clusterblast-orf"  />
</g>
<g id="a1_005"  >
<polygon locus_tag="CAF31535.1" description="&lt;b&gt;CAF31535.1&lt;/b&gt;&lt;br&gt;putative component in exporter complex&lt;br&gt;Location: 8169 - 10031" points="135,90 161,90 166,85 161,80 135,80 135,90 " style="stroke-width:1; stroke:black; fill:white; " id="dummy-1_h1_1_5" class="clusterblast-orf"  />
</g>
<g id="a1_006"  >
<polygon locus_tag="CAF31536.1" description="&lt;b&gt;CAF31536.1&lt;/b&gt;&lt;br&gt;putative fortimicin dehydrogenase&lt;br&gt;Location: 10124 - 11803" points="167,90 190,90 195,85 190,80 167,80 167,90 " style="stroke-width:1; stroke:black; fill:white; " id="dummy-1_h1_1_6" class="clusterblast-orf"  />
</g>
<g id="a1_007"  >
<polygon locus_tag="CAF31537.1" description="&lt;b&gt;CAF31537.1&lt;/b&gt;&lt;br&gt;cytochrome c-type&lt;br&gt;Location: 11817 - 12680" points="195,85 200,80 210,80 210,90 200,90 195,85 " style="stroke-width:1; stroke:black; fill:white; " id="dummy-1_h1_1_7" class="clusterblast-orf"  />
</g>
<g id="a1_008"  >
<polygon locus_tag="CAF31538.1" description="&lt;b&gt;CAF31538.1&lt;/b&gt;&lt;br&gt;putative transmembrane efflux protein&lt;br&gt;Location: 12677 - 14227" points="210,85 215,80 235,80 235,90 215,90 210,85 " style="stroke-width:1; stroke:black; fill:white; " id="dummy-1_h1_1_8" class="clusterblast-orf"  />
</g>
<g id="a1_009"  >
<polygon locus_tag="CAF31539.1" description="&lt;b&gt;CAF31539.1&lt;/b&gt;&lt;br&gt;putative (N-acetyl-)hexosaminyltransferase&lt;br&gt;Location: 14239 - 15522" points="236,85 241,80 257,80 257,90 241,90 236,85 " style="stroke-width:1; stroke:black; fill:white; " id="dummy-1_h1_1_9" class="clusterblast-orf"  />
</g>
<g id="a1_0010"  >
<polygon locus_tag="CAF31540.1" description="&lt;b&gt;CAF31540.1&lt;/b&gt;&lt;br&gt;putative ketocyclitol aminotransferase I and II&lt;br&gt;Location: 15533 - 16804" points="257,85 262,80 278,80 278,90 262,90 257,85 " style="stroke-width:1; stroke:black; fill:white; " id="dummy-1_h1_1_10" class="clusterblast-orf"  />
</g>
<g id="a1_0011"  >
<polygon locus_tag="CAF31541.1" description="&lt;b&gt;CAF31541.1&lt;/b&gt;&lt;br&gt;putative (cyclitol-)dehydrogenase&lt;br&gt;Location: 16801 - 17862" points="278,85 283,80 296,80 296,90 283,90 278,85 " style="stroke-width:1; stroke:black; fill:white; " id="dummy-1_h1_1_11" class="clusterblast-orf"  />
</g>
<g id="a1_0012"  >
<polygon locus_tag="CAF31542.1" description="&lt;b&gt;CAF31542.1&lt;/b&gt;&lt;br&gt;putative fortimicin O-methyltransferase&lt;br&gt;Location: 17859 - 18593" points="296,85 301,80 308,80 308,90 301,90 296,85 " style="stroke-width:1; stroke:black; fill:white; " id="dummy-1_h1_1_12" class="clusterblast-orf"  />
</g>
<g id="a1_0013"  >
<polygon locus_tag="CAF31543.1" description="&lt;b&gt;CAF31543.1&lt;/b&gt;&lt;br&gt;conserved hypothetical protein; putative fortimicin production protein&lt;br&gt;Location: 18619 - 19758" points="308,85 313,80 327,80 327,90 313,90 308,85 " style="stroke-width:1; stroke:black; fill:white; " id="dummy-1_h1_1_13" class="clusterblast-orf"  />
</g>
<g id="a1_0014"  >
<polygon locus_tag="CAF31544.1" description="&lt;b&gt;CAF31544.1&lt;/b&gt;&lt;br&gt;putative N-acetylhexosaminyl deacetylase&lt;br&gt;Location: 19752 - 20660" points="327,85 332,80 342,80 342,90 332,90 327,85 " style="stroke-width:1; stroke:black; fill:white; " id="dummy-1_h1_1_14" class="clusterblast-orf"  />
</g>
<g id="a1_0015"  >
<polygon locus_tag="CAF31545.1" description="&lt;b&gt;CAF31545.1&lt;/b&gt;&lt;br&gt;putative fortimicin 3'-phosphotransferase (biosynthetic)&lt;br&gt;Location: 20660 - 21484" points="342,85 347,80 356,80 356,90 347,90 342,85 " style="stroke-width:1; stroke:black; fill:white; " id="dummy-1_h1_1_15" class="clusterblast-orf"  />
</g>
<g id="a1_0016"  >
<polygon locus_tag="CAF31546.1" description="&lt;b&gt;CAF31546.1&lt;/b&gt;&lt;br&gt;putative fortimicin 6'-aminotransferase&lt;br&gt;Location: 21486 - 22814" points="356,85 361,80 378,80 378,90 361,90 356,85 " style="stroke-width:1; stroke:black; fill:white; " id="dummy-1_h1_1_16" class="clusterblast-orf"  />
</g>
<g id="a1_0017"  >
<polygon locus_tag="CAF31547.1" description="&lt;b&gt;CAF31547.1&lt;/b&gt;&lt;br&gt;fortimicin KL1 C-methyltransferase&lt;br&gt;Location: 23004 - 24665" points="381,85 386,80 409,80 409,90 386,90 381,85 " style="stroke-width:1; stroke:black; fill:white; " id="dummy-1_h1_1_17" class="clusterblast-orf"  />
</g>
<g id="a1_0018"  >
<polygon locus_tag="CAF31548.1" description="&lt;b&gt;CAF31548.1&lt;/b&gt;&lt;br&gt;fortimicin A N-forimidoyltransferase&lt;br&gt;Location: 24691 - 26139" points="409,85 414,80 433,80 433,90 414,90 409,85 " style="stroke-width:1; stroke:black; fill:white; " id="dummy-1_h1_1_18" class="clusterblast-orf"  />
</g>
<g id="a1_0019"  >
<polygon locus_tag="CAF31549.1" description="&lt;b&gt;CAF31549.1&lt;/b&gt;&lt;br&gt;putative fortimicin production protein&lt;br&gt;Location: 26925 - 27392" points="446,90 449,90 454,85 449,80 446,80 446,90 " style="stroke-width:1; stroke:black; fill:white; " id="dummy-1_h1_1_19" class="clusterblast-orf"  />
</g>
<g id="a1_0020"  >
<polygon locus_tag="CAF31550.1" description="&lt;b&gt;CAF31550.1&lt;/b&gt;&lt;br&gt;putative myo-inositol 3-dehydrogenase&lt;br&gt;Location: 27450 - 28511" points="455,90 467,90 472,85 467,80 455,80 455,90 " style="stroke-width:1; stroke:black; fill:white; " id="dummy-1_h1_1_20" class="clusterblast-orf"  />
</g>
<g id="a1_0021"  >
<polygon locus_tag="CAF31551.1" description="&lt;b&gt;CAF31551.1&lt;/b&gt;&lt;br&gt;putative fortimicin N-methyltransferase&lt;br&gt;Location: 28508 - 29350" points="472,90 481,90 486,85 481,80 472,80 472,90 " style="stroke-width:1; stroke:black; fill:white; " id="dummy-1_h1_1_21" class="clusterblast-orf"  />
</g>
<g id="a1_0022"  >
<polygon locus_tag="CAF31552.1" description="&lt;b&gt;CAF31552.1&lt;/b&gt;&lt;br&gt;putative myo-inositol-3-phosphate phosphatase&lt;br&gt;Location: 29359 - 30204" points="486,90 495,90 500,85 495,80 486,80 486,90 " style="stroke-width:1; stroke:black; fill:white; " id="dummy-1_h1_1_22" class="clusterblast-orf"  />
</g>
<g id="a1_0023"  >
<polygon locus_tag="CAF31553.1" description="&lt;b&gt;CAF31553.1&lt;/b&gt;&lt;br&gt;putative fortimicin biosynthetic oxidoreductase&lt;br&gt;Location: 30466 - 31254" points="505,85 510,80 518,80 518,90 510,90 505,85 " style="stroke-width:1; stroke:black; fill:white; " id="dummy-1_h1_1_23" class="clusterblast-orf"  />
</g>
<g id="a1_0024"  >
<polygon locus_tag="CAF31554.1" description="&lt;b&gt;CAF31554.1&lt;/b&gt;&lt;br&gt;hypothetical protein&lt;br&gt;Location: 31607 - 31906" points="524,90 524,90 529,85 524,80 524,80 524,90 " style="stroke-width:1; stroke:black; fill:white; " id="dummy-1_h1_1_24" class="clusterblast-orf"  />
</g>
<g id="a1_0025"  >
<polygon locus_tag="CAF31555.1" description="&lt;b&gt;CAF31555.1&lt;/b&gt;&lt;br&gt;16S rRNA methyltransferase&lt;br&gt;Location: 31944 - 32825" points="529,90 539,90 544,85 539,80 529,80 529,90 " style="stroke-width:1; stroke:black; fill:white; " id="dummy-1_h1_1_25" class="clusterblast-orf"  />
</g>
<g id="a1_0026"  >
<polygon locus_tag="CAF31556.1" description="&lt;b&gt;CAF31556.1&lt;/b&gt;&lt;br&gt;putative fortimicin production protein&lt;br&gt;Location: 32936 - 33877" points="546,90 556,90 561,85 556,80 546,80 546,90 " style="stroke-width:1; stroke:black; fill:white; " id="dummy-1_h1_1_26" class="clusterblast-orf"  />
</g>
<g id="a1_0027"  >
<polygon locus_tag="CAF31557.1" description="&lt;b&gt;CAF31557.1&lt;/b&gt;&lt;br&gt;putative fortimicin production protein&lt;br&gt;Location: 33910 - 34266" points="562,85 567,80 568,80 568,90 567,90 562,85 " style="stroke-width:1; stroke:black; fill:white; " id="dummy-1_h1_1_27" class="clusterblast-orf"  />
</g>
<g id="a1_0028"  >
<polygon locus_tag="CAF31558.1" description="&lt;b&gt;CAF31558.1&lt;/b&gt;&lt;br&gt;putative fortimicin production protein&lt;br&gt;Location: 34266 - 34904" points="568,85 573,80 578,80 578,90 573,90 568,85 " style="stroke-width:1; stroke:black; fill:white; " id="dummy-1_h1_1_28" class="clusterblast-orf"  />
</g>
<g id="a1_0029"  >
<polygon locus_tag="CAF31559.1" description="&lt;b&gt;CAF31559.1&lt;/b&gt;&lt;br&gt;putative fortimicin production protein; unknown ATP/GTP-binding protein&lt;br&gt;Location: 34911 - 35612" points="578,85 583,80 590,80 590,90 583,90 578,85 " style="stroke-width:1; stroke:black; fill:white; " id="dummy-1_h1_1_29" class="clusterblast-orf"  />
</g>
<g id="a1_0030"  >
<polygon locus_tag="CAF31560.1" description="&lt;b&gt;CAF31560.1&lt;/b&gt;&lt;br&gt;possible fortimicin production protein&lt;br&gt;Location: 35772 - 36185" points="593,85 598,80 600,80 600,90 598,90 593,85 " style="stroke-width:1; stroke:black; fill:white; " id="dummy-1_h1_1_30" class="clusterblast-orf"  />
</g>
<g id="a1_0031"  >
<polygon locus_tag="CAF31561.1" description="&lt;b&gt;CAF31561.1&lt;/b&gt;&lt;br&gt;possible fortimicin production protein&lt;br&gt;Location: 36526 - 36897" points="605,85 610,80 611,80 611,90 610,90 605,85 " style="stroke-width:1; stroke:black; fill:white; " id="dummy-1_h1_1_31" class="clusterblast-orf"  />
</g>
<g id="a1_0032"  >
<polygon locus_tag="CAF31562.1" description="&lt;b&gt;CAF31562.1&lt;/b&gt;&lt;br&gt;16S rRNA methyltransferase; fortimicin resistance&lt;br&gt;Location: 36896 - 37372" points="611,90 614,90 619,85 614,80 611,80 611,90 " style="stroke-width:1; stroke:black; fill:white; " id="dummy-1_h1_1_32" class="clusterblast-orf"  />
</g>
<g id="a1_0033"  >
<polygon locus_tag="CAF31563.1" description="&lt;b&gt;CAF31563.1&lt;/b&gt;&lt;br&gt;16S rRNA methyltransferase&lt;br&gt;Location: 37713 - 38522" points="625,85 630,80 638,80 638,90 630,90 625,85 " style="stroke-width:1; stroke:black; fill:white; " id="dummy-1_h1_1_33" class="clusterblast-orf"  />
</g>
<g id="a1_0034"  >
<polygon locus_tag="CAF31564.1" description="&lt;b&gt;CAF31564.1&lt;/b&gt;&lt;br&gt;possible fortimicin production protein&lt;br&gt;Location: 38531 - 39688" points="638,85 643,80 658,80 658,90 643,90 638,85 " style="stroke-width:1; stroke:black; fill:white; " id="dummy-1_h1_1_34" class="clusterblast-orf"  />
</g>
<g id="a1_0035"  >
<polygon locus_tag="CAF31565.1" description="&lt;b&gt;CAF31565.1&lt;/b&gt;&lt;br&gt;conserved hypothetical protein&lt;br&gt;Location: 40025 - 41155&lt;br&gt;&lt;br&gt;&lt;b&gt;BlastP hit with SSMG_00025&lt;/b&gt;&lt;br&gt;Percentage identity: 51&lt;br&gt;Percentage coverage: 100&lt;br&gt;BLAST bit score: 330&lt;br&gt;E-value: 3.9e-90" points="663,90 677,90 682,85 677,80 663,80 663,90 " style="stroke-width:1; stroke:black; fill:#1585d8; " id="dummy-1_h1_1_35" class="clusterblast-orf"  />
</g>
<g id="a1_0036"  >
<polygon locus_tag="CAF31566.1" description="&lt;b&gt;CAF31566.1&lt;/b&gt;&lt;br&gt;putative tryptophanase&lt;br&gt;Location: 41180 - 42595&lt;br&gt;&lt;br&gt;&lt;b&gt;BlastP hit with SSMG_00026&lt;/b&gt;&lt;br&gt;Percentage identity: 67&lt;br&gt;Percentage coverage: 99&lt;br&gt;BLAST bit score: 611&lt;br&gt;E-value: 8.8e-175" points="682,90 701,90 706,85 701,80 682,80 682,90 " style="stroke-width:1; stroke:black; fill:#d815bc; " id="dummy-1_h1_1_36" class="clusterblast-orf"  />
</g>
<g id="a1_0037"  >
<polygon locus_tag="CAF31567.1" description="&lt;b&gt;CAF31567.1&lt;/b&gt;&lt;br&gt;putative ATP/GTP-binding protein&lt;br&gt;Location: 42675 - 42806" points="707,85 709,80 709,90 707,85 " style="stroke-width:1; stroke:black; fill:white; " id="dummy-1_h1_1_37" class="clusterblast-orf"  />
</g>
<g id="a1_0038"  >
<polygon locus_tag="CAF31567.1" description="&lt;b&gt;CAF31567.1&lt;/b&gt;&lt;br&gt;putative ATP/GTP-binding protein&lt;br&gt;Location: 42675 - 42806" points="707,85 709,80 709,90 707,85 " style="stroke-width:1; stroke:black; fill:white; " id="dummy-1_h1_1_38" class="clusterblast-orf"  />
</g>
<g id="a1_0039"  >
<polygon locus_tag="CAG38669.1" description="&lt;b&gt;CAG38669.1&lt;/b&gt;&lt;br&gt;putative GTPase&lt;br&gt;Location: 42675 - 43229&lt;br&gt;&lt;br&gt;&lt;b&gt;BlastP hit with SSMG_00027&lt;/b&gt;&lt;br&gt;Percentage identity: 69&lt;br&gt;Percentage coverage: 89&lt;br&gt;BLAST bit score: 242&lt;br&gt;E-value: 6e-64" points="707,85 712,80 716,80 716,90 712,90 707,85 " style="stroke-width:1; stroke:black; fill:#d8bc15; " id="dummy-1_h1_1_39" class="clusterblast-orf"  />
</g>
<g id="a1_0040"  >
<polygon locus_tag="CAG38670.1" description="&lt;b&gt;CAG38670.1&lt;/b&gt;&lt;br&gt;conserved hypothetical protein&lt;br&gt;Location: 43274 - 43639" points="717,85 722,80 723,80 723,90 722,90 717,85 " style="stroke-width:1; stroke:black; fill:white; " id="dummy-1_h1_1_40" class="clusterblast-orf"  />
</g>
<g id="a1_0041"  >
<polygon locus_tag="CAG38671.1" description="&lt;b&gt;CAG38671.1&lt;/b&gt;&lt;br&gt;conserved hypothetical protein&lt;br&gt;Location: 43636 - 44064&lt;br&gt;&lt;br&gt;&lt;b&gt;BlastP hit with SSMG_00029&lt;/b&gt;&lt;br&gt;Percentage identity: 49&lt;br&gt;Percentage coverage: 97&lt;br&gt;BLAST bit score: 112&lt;br&gt;E-value: 6.7e-25" points="723,85 728,80 730,80 730,90 728,90 723,85 " style="stroke-width:1; stroke:black; fill:#4d15d8; " id="dummy-1_h1_1_41" class="clusterblast-orf"  />
</g>
<g id="a1_0042"  >
<polygon locus_tag="CAG38672.1" description="&lt;b&gt;CAG38672.1&lt;/b&gt;&lt;br&gt;putative signal transduction histidine kinase&lt;br&gt;Location: 44075 - 45499" points="730,85 735,80 754,80 754,90 735,90 730,85 " style="stroke-width:1; stroke:black; fill:white; " id="dummy-1_h1_1_42" class="clusterblast-orf"  />
</g>
<g id="a1_0043"  >
<polygon locus_tag="CAG38673.1" description="&lt;b&gt;CAG38673.1&lt;/b&gt;&lt;br&gt;putative acetyltransferase&lt;br&gt;Location: 46148 - 47035" points="765,85 770,80 780,80 780,90 770,90 765,85 " style="stroke-width:1; stroke:black; fill:white; " id="dummy-1_h1_1_43" class="clusterblast-orf"  />
</g>
</svg>
