<svg version="1.1" xmlns="http://www.w3.org/2000/svg" height="230" width="800" xmlns:xlink="http://www.w3.org/1999/xlink" preserveAspectRatio="none" x="0" y="0" viewBox="0 0 800 230"  >
<g label="Query sequence" class="clusterblast-cluster"  >
<text class="clusterblast-acc" y="20" x="5"  >
Query sequence</text>
<line x1="10" x2="778.0" y2="35" style="stroke-width:1; stroke:grey; " y1="35"  />
<polygon locus_tag="SSMG_00016" description="&lt;b&gt;SSMG_00016&lt;/b&gt;&lt;br&gt;regulatory protein&lt;br&gt;Location: 18425 - 18938" points="78,35 83,30 94,30 94,40 83,40 78,35 " style="stroke-width:1; stroke:black; fill:white; " id="dummy-1_q0_0_all" class="clusterblast-orf"  />
<polygon locus_tag="SSMG_00017" description="&lt;b&gt;SSMG_00017&lt;/b&gt;&lt;br&gt;esterase/lipase&lt;br&gt;Location: 19064 - 20027" points="98,40 123,40 128,35 123,30 98,30 98,40 " style="stroke-width:1; stroke:black; fill:white; " id="dummy-1_q1_0_all" class="clusterblast-orf"  />
<polygon locus_tag="SSMG_00018" description="&lt;b&gt;SSMG_00018&lt;/b&gt;&lt;br&gt;predicted protein&lt;br&gt;Location: 20186 - 21581" points="133,40 171,40 176,35 171,30 133,30 133,40 " style="stroke-width:1; stroke:black; fill:white; " id="dummy-1_q2_0_all" class="clusterblast-orf"  />
<polygon locus_tag="SSMG_00019" description="&lt;b&gt;SSMG_00019&lt;/b&gt;&lt;br&gt;predicted protein&lt;br&gt;Location: 21584 - 22448" points="176,35 181,30 203,30 203,40 181,40 176,35 " style="stroke-width:1; stroke:black; fill:white; " id="dummy-1_q3_0_all" class="clusterblast-orf"  />
<polygon locus_tag="SSMG_00020" description="&lt;b&gt;SSMG_00020&lt;/b&gt;&lt;br&gt;TetR-family transcriptional regulator&lt;br&gt;Location: 22567 - 23146" points="206,35 211,30 224,30 224,40 211,40 206,35 " style="stroke-width:1; stroke:black; fill:#d81515; " id="dummy-1_q4_0_all" class="clusterblast-orf"  />
<polygon locus_tag="SSMG_00021" description="&lt;b&gt;SSMG_00021&lt;/b&gt;&lt;br&gt;membrane protein&lt;br&gt;Location: 23236 - 23683" points="227,40 236,40 241,35 236,30 227,30 227,40 " style="stroke-width:1; stroke:black; fill:#4dd815; " id="dummy-1_q5_0_all" class="clusterblast-orf"  />
<polygon locus_tag="SSMG_00022" description="&lt;b&gt;SSMG_00022&lt;/b&gt;&lt;br&gt;predicted protein&lt;br&gt;Location: 23843 - 24374" points="246,40 257,40 262,35 257,30 246,30 246,40 " style="stroke-width:1; stroke:black; fill:white; " id="dummy-1_q6_0_all" class="clusterblast-orf"  />
<polygon locus_tag="SSMG_00023" description="&lt;b&gt;SSMG_00023&lt;/b&gt;&lt;br&gt;adenylosuccinate lyase&lt;br&gt;Location: 24440 - 25841" points="264,35 269,30 307,30 307,40 269,40 264,35 " style="stroke-width:1; stroke:black; fill:white; " id="dummy-1_q7_0_all" class="clusterblast-orf"  />
<polygon locus_tag="SSMG_00024" description="&lt;b&gt;SSMG_00024&lt;/b&gt;&lt;br&gt;conserved hypothetical protein&lt;br&gt;Location: 26639 - 27155" points="332,35 337,30 348,30 348,40 337,40 332,35 " style="stroke-width:1; stroke:black; fill:white; " id="dummy-1_q8_0_all" class="clusterblast-orf"  />
<polygon locus_tag="SSMG_00025" description="&lt;b&gt;SSMG_00025&lt;/b&gt;&lt;br&gt;predicted protein&lt;br&gt;Location: 27543 - 28605" points="360,40 388,40 393,35 388,30 360,30 360,40 " style="stroke-width:1; stroke:black; fill:#1585d8; " id="dummy-1_q9_0_all" class="clusterblast-orf"  />
<polygon locus_tag="SSMG_00026" description="&lt;b&gt;SSMG_00026&lt;/b&gt;&lt;br&gt;tryptophanase&lt;br&gt;Location: 28647 - 30024" points="394,40 432,40 437,35 432,30 394,30 394,40 " style="stroke-width:1; stroke:black; fill:#d815bc; " id="dummy-1_q10_0_all" class="clusterblast-orf"  />
<polygon locus_tag="SSMG_00027" description="&lt;b&gt;SSMG_00027&lt;/b&gt;&lt;br&gt;ATP/GTP-binding protein&lt;br&gt;Location: 30097 - 30685" points="439,35 444,30 457,30 457,40 444,40 439,35 " style="stroke-width:1; stroke:black; fill:#d8bc15; " id="dummy-1_q11_0_all" class="clusterblast-orf"  />
<polygon locus_tag="SSMG_00028" description="&lt;b&gt;SSMG_00028&lt;/b&gt;&lt;br&gt;conserved hypothetical protein&lt;br&gt;Location: 30665 - 31031" points="456,35 461,30 468,30 468,40 461,40 456,35 " style="stroke-width:1; stroke:black; fill:#15d885; " id="dummy-1_q12_0_all" class="clusterblast-orf"  />
<polygon locus_tag="SSMG_00029" description="&lt;b&gt;SSMG_00029&lt;/b&gt;&lt;br&gt;conserved hypothetical protein&lt;br&gt;Location: 31027 - 31453" points="468,35 473,30 481,30 481,40 473,40 468,35 " style="stroke-width:1; stroke:black; fill:#4d15d8; " id="dummy-1_q13_0_all" class="clusterblast-orf"  />
<polygon locus_tag="SSMG_00030" description="&lt;b&gt;SSMG_00030&lt;/b&gt;&lt;br&gt;hypothetical protein&lt;br&gt;Location: 31495 - 33862" points="482,35 487,30 555,30 555,40 487,40 482,35 " style="stroke-width:1; stroke:black; fill:white; " id="dummy-1_q14_0_all" class="clusterblast-orf"  />
<polygon locus_tag="SSMG_00031" description="&lt;b&gt;SSMG_00031&lt;/b&gt;&lt;br&gt;predicted protein&lt;br&gt;Location: 34268 - 36653" points="568,35 573,30 641,30 641,40 573,40 568,35 " style="stroke-width:1; stroke:black; fill:white; " id="dummy-1_q15_0_all" class="clusterblast-orf"  />
<polygon locus_tag="SSMG_00032" description="&lt;b&gt;SSMG_00032&lt;/b&gt;&lt;br&gt;predicted protein&lt;br&gt;Location: 36857 - 37337" points="648,40 658,40 663,35 658,30 648,30 648,40 " style="stroke-width:1; stroke:black; fill:white; " id="dummy-1_q16_0_all" class="clusterblast-orf"  />
<polygon locus_tag="SSMG_00033" description="&lt;b&gt;SSMG_00033&lt;/b&gt;&lt;br&gt;integral membrane protein&lt;br&gt;Location: 37320 - 37722" points="662,40 669,40 674,35 669,30 662,30 662,40 " style="stroke-width:1; stroke:black; fill:white; " id="dummy-1_q17_0_all" class="clusterblast-orf"  />
<polygon locus_tag="SSMG_00034" description="&lt;b&gt;SSMG_00034&lt;/b&gt;&lt;br&gt;poly(L-lactic acid) depolymerase&lt;br&gt;Location: 37874 - 38588" points="679,40 696,40 701,35 696,30 679,30 679,40 " style="stroke-width:1; stroke:black; fill:white; " id="dummy-1_q18_0_all" class="clusterblast-orf"  />
</g>
<g label="BGC0001483" description="BGC0001483_c1: 5-isoprenylindole-3-carboxylate β-D-glycosyl ester (9% of genes show similarity), Other" class="clusterblast-cluster"  >
<text class="clusterblast-acc" y="70" x="5"  >
<a xlink:href="https://mibig.secondarymetabolites.org/go/BGC0001483/1" target="_blank">BGC0001483</a>:                               5-isoprenylindole-3-carboxylate β-D-glycosyl ester (9% of genes show similarity), Other</text>
<line x1="10" x2="778.0" y2="85" style="stroke-width:1; stroke:grey; " y1="85"  />
</g>
<g id="a1_000"  >
<polygon locus_tag="ANA09434.1" description="&lt;b&gt;ANA09434.1&lt;/b&gt;&lt;br&gt;hypothetical protein&lt;br&gt;Location: 1 - 2544" points="0,90 73,90 78,85 73,80 0,80 0,90 " style="stroke-width:1; stroke:black; fill:white; " id="dummy-1_h1_5_0" class="clusterblast-orf"  />
</g>
<g id="a1_001"  >
<polygon locus_tag="ANA09433.1" description="&lt;b&gt;ANA09433.1&lt;/b&gt;&lt;br&gt;hypothetical protein&lt;br&gt;Location: 2627 - 3976" points="81,85 86,80 122,80 122,90 86,90 81,85 " style="stroke-width:1; stroke:black; fill:white; " id="dummy-1_h1_5_1" class="clusterblast-orf"  />
</g>
<g id="a1_002"  >
<polygon locus_tag="ANA09432.1" description="&lt;b&gt;ANA09432.1&lt;/b&gt;&lt;br&gt;hypothetical protein&lt;br&gt;Location: 4139 - 5524" points="127,85 132,80 170,80 170,90 132,90 127,85 " style="stroke-width:1; stroke:black; fill:white; " id="dummy-1_h1_5_2" class="clusterblast-orf"  />
</g>
<g id="a1_003"  >
<polygon locus_tag="ANA09431.1" description="&lt;b&gt;ANA09431.1&lt;/b&gt;&lt;br&gt;hypothetical protein&lt;br&gt;Location: 5902 - 6843" points="182,85 187,80 211,80 211,90 187,90 182,85 " style="stroke-width:1; stroke:black; fill:white; " id="dummy-1_h1_5_3" class="clusterblast-orf"  />
</g>
<g id="a1_004"  >
<polygon locus_tag="ANA09430.1" description="&lt;b&gt;ANA09430.1&lt;/b&gt;&lt;br&gt;hypothetical protein&lt;br&gt;Location: 6858 - 7463" points="211,85 216,80 230,80 230,90 216,90 211,85 " style="stroke-width:1; stroke:black; fill:white; " id="dummy-1_h1_5_4" class="clusterblast-orf"  />
</g>
<g id="a1_005"  >
<polygon locus_tag="ANA09442.1" description="&lt;b&gt;ANA09442.1&lt;/b&gt;&lt;br&gt;hypothetical protein&lt;br&gt;Location: 7533 - 8012" points="232,85 237,80 247,80 247,90 237,90 232,85 " style="stroke-width:1; stroke:black; fill:white; " id="dummy-1_h1_5_5" class="clusterblast-orf"  />
</g>
<g id="a1_006"  >
<polygon locus_tag="ANA09449.1" description="&lt;b&gt;ANA09449.1&lt;/b&gt;&lt;br&gt;PriG&lt;br&gt;Location: 8159 - 9475" points="251,85 256,80 292,80 292,90 256,90 251,85 " style="stroke-width:1; stroke:black; fill:white; " id="dummy-1_h1_5_6" class="clusterblast-orf"  />
</g>
<g id="a1_007"  >
<polygon locus_tag="ANA09448.1" description="&lt;b&gt;ANA09448.1&lt;/b&gt;&lt;br&gt;PriF&lt;br&gt;Location: 9962 - 10696" points="307,85 312,80 330,80 330,90 312,90 307,85 " style="stroke-width:1; stroke:black; fill:white; " id="dummy-1_h1_5_7" class="clusterblast-orf"  />
</g>
<g id="a1_008"  >
<polygon locus_tag="ANA09447.1" description="&lt;b&gt;ANA09447.1&lt;/b&gt;&lt;br&gt;PriE&lt;br&gt;Location: 11108 - 12205" points="343,85 348,80 376,80 376,90 348,90 343,85 " style="stroke-width:1; stroke:black; fill:white; " id="dummy-1_h1_5_8" class="clusterblast-orf"  />
</g>
<g id="a1_009"  >
<polygon locus_tag="ANA09446.1" description="&lt;b&gt;ANA09446.1&lt;/b&gt;&lt;br&gt;PriD&lt;br&gt;Location: 12289 - 13665" points="379,85 384,80 422,80 422,90 384,90 379,85 " style="stroke-width:1; stroke:black; fill:white; " id="dummy-1_h1_5_9" class="clusterblast-orf"  />
</g>
<g id="a1_0010"  >
<polygon locus_tag="ANA09441.1" description="&lt;b&gt;ANA09441.1&lt;/b&gt;&lt;br&gt;hypothetical protein&lt;br&gt;Location: 13760 - 13981" points="424,90 426,90 431,85 426,80 424,80 424,90 " style="stroke-width:1; stroke:black; fill:white; " id="dummy-1_h1_5_10" class="clusterblast-orf"  />
</g>
<g id="a1_0011"  >
<polygon locus_tag="ANA09440.1" description="&lt;b&gt;ANA09440.1&lt;/b&gt;&lt;br&gt;hypothetical protein&lt;br&gt;Location: 14313 - 15443" points="442,90 471,90 476,85 471,80 442,80 442,90 " style="stroke-width:1; stroke:black; fill:white; " id="dummy-1_h1_5_11" class="clusterblast-orf"  />
</g>
<g id="a1_0012"  >
<polygon locus_tag="ANA09439.1" description="&lt;b&gt;ANA09439.1&lt;/b&gt;&lt;br&gt;hypothetical protein&lt;br&gt;Location: 15461 - 15841" points="477,90 484,90 489,85 484,80 477,80 477,90 " style="stroke-width:1; stroke:black; fill:white; " id="dummy-1_h1_5_12" class="clusterblast-orf"  />
</g>
<g id="a1_0013"  >
<polygon locus_tag="ANA09438.1" description="&lt;b&gt;ANA09438.1&lt;/b&gt;&lt;br&gt;hypothetical protein&lt;br&gt;Location: 16157 - 16774&lt;br&gt;&lt;br&gt;&lt;b&gt;BlastP hit with SSMG_00027&lt;/b&gt;&lt;br&gt;Percentage identity: 52&lt;br&gt;Percentage coverage: 90&lt;br&gt;BLAST bit score: 183&lt;br&gt;E-value: 3.3e-46" points="498,90 513,90 518,85 513,80 498,80 498,90 " style="stroke-width:1; stroke:black; fill:#d8bc15; " id="dummy-1_h1_5_13" class="clusterblast-orf"  />
</g>
<g id="a1_0014"  >
<polygon locus_tag="ANA09445.1" description="&lt;b&gt;ANA09445.1&lt;/b&gt;&lt;br&gt;PriC&lt;br&gt;Location: 16784 - 18130" points="518,90 554,90 559,85 554,80 518,80 518,90 " style="stroke-width:1; stroke:black; fill:white; " id="dummy-1_h1_5_14" class="clusterblast-orf"  />
</g>
<g id="a1_0015"  >
<polygon locus_tag="ANA09444.1" description="&lt;b&gt;ANA09444.1&lt;/b&gt;&lt;br&gt;PriB&lt;br&gt;Location: 18469 - 19626" points="570,90 601,90 606,85 601,80 570,80 570,90 " style="stroke-width:1; stroke:black; fill:white; " id="dummy-1_h1_5_15" class="clusterblast-orf"  />
</g>
<g id="a1_0016"  >
<polygon locus_tag="ANA09443.1" description="&lt;b&gt;ANA09443.1&lt;/b&gt;&lt;br&gt;PriA&lt;br&gt;Location: 19675 - 21048&lt;br&gt;&lt;br&gt;&lt;b&gt;BlastP hit with SSMG_00026&lt;/b&gt;&lt;br&gt;Percentage identity: 66&lt;br&gt;Percentage coverage: 98&lt;br&gt;BLAST bit score: 592&lt;br&gt;E-value: 5.5e-169" points="607,90 645,90 650,85 645,80 607,80 607,90 " style="stroke-width:1; stroke:black; fill:#d815bc; " id="dummy-1_h1_5_16" class="clusterblast-orf"  />
</g>
<g id="a1_0017"  >
<polygon locus_tag="ANA09429.1" description="&lt;b&gt;ANA09429.1&lt;/b&gt;&lt;br&gt;hypothetical protein&lt;br&gt;Location: 21322 - 21741" points="658,85 663,80 671,80 671,90 663,90 658,85 " style="stroke-width:1; stroke:black; fill:white; " id="dummy-1_h1_5_17" class="clusterblast-orf"  />
</g>
<g id="a1_0018"  >
<polygon locus_tag="ANA09435.1" description="&lt;b&gt;ANA09435.1&lt;/b&gt;&lt;br&gt;hypothetical protein&lt;br&gt;Location: 21870 - 22886" points="675,85 680,80 706,80 706,90 680,90 675,85 " style="stroke-width:1; stroke:black; fill:white; " id="dummy-1_h1_5_18" class="clusterblast-orf"  />
</g>
<g id="a1_0019"  >
<polygon locus_tag="ANA09436.1" description="&lt;b&gt;ANA09436.1&lt;/b&gt;&lt;br&gt;hypothetical protein&lt;br&gt;Location: 22901 - 23518" points="707,85 712,80 726,80 726,90 712,90 707,85 " style="stroke-width:1; stroke:black; fill:white; " id="dummy-1_h1_5_19" class="clusterblast-orf"  />
</g>
<g id="a1_0020"  >
<polygon locus_tag="ANA09437.1" description="&lt;b&gt;ANA09437.1&lt;/b&gt;&lt;br&gt;hypothetical protein&lt;br&gt;Location: 23678 - 25255" points="731,85 736,80 780,80 780,90 736,90 731,85 " style="stroke-width:1; stroke:black; fill:white; " id="dummy-1_h1_5_20" class="clusterblast-orf"  />
</g>
</svg>
