<svg version="1.1" xmlns="http://www.w3.org/2000/svg" height="230" width="800" xmlns:xlink="http://www.w3.org/1999/xlink" preserveAspectRatio="none" x="0" y="0" viewBox="0 0 800 230"  >
<g label="Query sequence" class="clusterblast-cluster"  >
<text class="clusterblast-acc" y="20" x="5"  >
Query sequence</text>
<line x1="10" x2="778.0" y2="35" style="stroke-width:1; stroke:grey; " y1="35"  />
<polygon locus_tag="SSMG_03800" description="&lt;b&gt;SSMG_03800&lt;/b&gt;&lt;br&gt;predicted protein&lt;br&gt;Location: 4135625 - 4136882" points="97,35 102,30 110,30 110,40 102,40 97,35 " style="stroke-width:1; stroke:black; fill:white; " id="dummy-15_q0_0_all" class="clusterblast-orf"  />
<polygon locus_tag="SSMG_03801" description="&lt;b&gt;SSMG_03801&lt;/b&gt;&lt;br&gt;predicted protein&lt;br&gt;Location: 4138121 - 4138613" points="123,35 128,30 128,30 128,40 128,40 123,35 " style="stroke-width:1; stroke:black; fill:white; " id="dummy-15_q1_0_all" class="clusterblast-orf"  />
<polygon locus_tag="SSMG_03802" description="&lt;b&gt;SSMG_03802&lt;/b&gt;&lt;br&gt;transposase&lt;br&gt;Location: 4138531 - 4139158" points="127,40 129,40 134,35 129,30 127,30 127,40 " style="stroke-width:1; stroke:black; fill:white; " id="dummy-15_q2_0_all" class="clusterblast-orf"  />
<polygon locus_tag="SSMG_03803" description="&lt;b&gt;SSMG_03803&lt;/b&gt;&lt;br&gt;predicted protein&lt;br&gt;Location: 4139336 - 4139750" points="136,40 140,35 136,30 136,40 " style="stroke-width:1; stroke:black; fill:white; " id="dummy-15_q3_0_all" class="clusterblast-orf"  />
<polygon locus_tag="SSMG_03804" description="&lt;b&gt;SSMG_03804&lt;/b&gt;&lt;br&gt;RNA polymerase sigma factor RpoE&lt;br&gt;Location: 4139929 - 4140688" points="142,40 145,40 150,35 145,30 142,30 142,40 " style="stroke-width:1; stroke:black; fill:#d81515; " id="dummy-15_q4_0_all" class="clusterblast-orf"  />
<polygon locus_tag="SSMG_03805" description="&lt;b&gt;SSMG_03805&lt;/b&gt;&lt;br&gt;predicted protein&lt;br&gt;Location: 4140871 - 4141780" points="152,35 157,30 162,30 162,40 157,40 152,35 " style="stroke-width:1; stroke:black; fill:white; " id="dummy-15_q5_0_all" class="clusterblast-orf"  />
<polygon locus_tag="SSMG_03806" description="&lt;b&gt;SSMG_03806&lt;/b&gt;&lt;br&gt;predicted protein&lt;br&gt;Location: 4141905 - 4144077" points="163,40 181,40 186,35 181,30 163,30 163,40 " style="stroke-width:1; stroke:black; fill:white; " id="dummy-15_q6_0_all" class="clusterblast-orf"  />
<polygon locus_tag="SSMG_03807" description="&lt;b&gt;SSMG_03807&lt;/b&gt;&lt;br&gt;periplasmic solute binding protein&lt;br&gt;Location: 4144082 - 4144871" points="186,35 191,30 194,30 194,40 191,40 186,35 " style="stroke-width:1; stroke:black; fill:white; " id="dummy-15_q7_0_all" class="clusterblast-orf"  />
<polygon locus_tag="SSMG_03808" description="&lt;b&gt;SSMG_03808&lt;/b&gt;&lt;br&gt;predicted protein&lt;br&gt;Location: 4144840 - 4145686" points="194,35 199,30 203,30 203,40 199,40 194,35 " style="stroke-width:1; stroke:black; fill:white; " id="dummy-15_q8_0_all" class="clusterblast-orf"  />
<polygon locus_tag="SSMG_03809" description="&lt;b&gt;SSMG_03809&lt;/b&gt;&lt;br&gt;ABC transporter&lt;br&gt;Location: 4145682 - 4146336" points="203,35 208,30 210,30 210,40 208,40 203,35 " style="stroke-width:1; stroke:black; fill:white; " id="dummy-15_q9_0_all" class="clusterblast-orf"  />
<polygon locus_tag="SSMG_03810" description="&lt;b&gt;SSMG_03810&lt;/b&gt;&lt;br&gt;predicted protein&lt;br&gt;Location: 4146416 - 4147538" points="211,35 216,30 222,30 222,40 216,40 211,35 " style="stroke-width:1; stroke:black; fill:white; " id="dummy-15_q10_0_all" class="clusterblast-orf"  />
<polygon locus_tag="SSMG_03811" description="&lt;b&gt;SSMG_03811&lt;/b&gt;&lt;br&gt;predicted protein&lt;br&gt;Location: 4147626 - 4149222" points="223,40 235,40 240,35 235,30 223,30 223,40 " style="stroke-width:1; stroke:black; fill:white; " id="dummy-15_q11_0_all" class="clusterblast-orf"  />
<polygon locus_tag="SSMG_03812" description="&lt;b&gt;SSMG_03812&lt;/b&gt;&lt;br&gt;cyclohexanecarboxylate-CoA ligase&lt;br&gt;Location: 4149218 - 4150868" points="240,40 253,40 258,35 253,30 240,30 240,40 " style="stroke-width:1; stroke:black; fill:#15d815; " id="dummy-15_q12_0_all" class="clusterblast-orf"  />
<polygon locus_tag="SSMG_03813" description="&lt;b&gt;SSMG_03813&lt;/b&gt;&lt;br&gt;high-affinity nickel-transporter&lt;br&gt;Location: 4150933 - 4152067" points="258,35 263,30 270,30 270,40 263,40 258,35 " style="stroke-width:1; stroke:black; fill:white; " id="dummy-15_q13_0_all" class="clusterblast-orf"  />
<polygon locus_tag="SSMG_03814" description="&lt;b&gt;SSMG_03814&lt;/b&gt;&lt;br&gt;predicted protein&lt;br&gt;Location: 4153135 - 4153549" points="282,35 286,30 286,40 282,35 " style="stroke-width:1; stroke:black; fill:white; " id="dummy-15_q14_0_all" class="clusterblast-orf"  />
<polygon locus_tag="SSMG_03815" description="&lt;b&gt;SSMG_03815&lt;/b&gt;&lt;br&gt;5,10-methylenetetrahydromethanopterin reductase&lt;br&gt;Location: 4153709 - 4154882" points="288,40 295,40 300,35 295,30 288,30 288,40 " style="stroke-width:1; stroke:black; fill:white; " id="dummy-15_q15_0_all" class="clusterblast-orf"  />
<polygon locus_tag="SSMG_03816" description="&lt;b&gt;SSMG_03816&lt;/b&gt;&lt;br&gt;predicted protein&lt;br&gt;Location: 4154971 - 4167916" points="301,40 433,40 438,35 433,30 301,30 301,40 " style="stroke-width:1; stroke:black; fill:#1515d8; " id="dummy-15_q16_0_all" class="clusterblast-orf"  />
<polygon locus_tag="SSMG_03817" description="&lt;b&gt;SSMG_03817&lt;/b&gt;&lt;br&gt;predicted protein&lt;br&gt;Location: 4167902 - 4171460" points="438,40 470,40 475,35 470,30 438,30 438,40 " style="stroke-width:1; stroke:black; fill:#1515d8; " id="dummy-15_q17_0_all" class="clusterblast-orf"  />
<polygon locus_tag="SSMG_03818" description="&lt;b&gt;SSMG_03818&lt;/b&gt;&lt;br&gt;conserved hypothetical protein&lt;br&gt;Location: 4173548 - 4174076" points="497,40 498,40 503,35 498,30 497,30 497,40 " style="stroke-width:1; stroke:black; fill:white; " id="dummy-15_q18_0_all" class="clusterblast-orf"  />
<polygon locus_tag="SSMG_03819" description="&lt;b&gt;SSMG_03819&lt;/b&gt;&lt;br&gt;lipolytic enzyme&lt;br&gt;Location: 4174081 - 4174861" points="503,35 508,30 511,30 511,40 508,40 503,35 " style="stroke-width:1; stroke:black; fill:white; " id="dummy-15_q19_0_all" class="clusterblast-orf"  />
<polygon locus_tag="SSMG_03820" description="&lt;b&gt;SSMG_03820&lt;/b&gt;&lt;br&gt;predicted protein&lt;br&gt;Location: 4174949 - 4175519" points="512,35 517,30 518,30 518,40 517,40 512,35 " style="stroke-width:1; stroke:black; fill:white; " id="dummy-15_q20_0_all" class="clusterblast-orf"  />
<polygon locus_tag="SSMG_03821" description="&lt;b&gt;SSMG_03821&lt;/b&gt;&lt;br&gt;major facilitator transporter&lt;br&gt;Location: 4175685 - 4177029" points="520,40 529,40 534,35 529,30 520,30 520,40 " style="stroke-width:1; stroke:black; fill:white; " id="dummy-15_q21_0_all" class="clusterblast-orf"  />
<polygon locus_tag="SSMG_03822" description="&lt;b&gt;SSMG_03822&lt;/b&gt;&lt;br&gt;SPFH domain/band 7 family protein&lt;br&gt;Location: 4177090 - 4178488" points="535,35 540,30 550,30 550,40 540,40 535,35 " style="stroke-width:1; stroke:black; fill:white; " id="dummy-15_q22_0_all" class="clusterblast-orf"  />
<polygon locus_tag="SSMG_03823" description="&lt;b&gt;SSMG_03823&lt;/b&gt;&lt;br&gt;predicted protein&lt;br&gt;Location: 4178553 - 4178988" points="550,35 555,30 555,30 555,40 555,40 550,35 " style="stroke-width:1; stroke:black; fill:white; " id="dummy-15_q23_0_all" class="clusterblast-orf"  />
<polygon locus_tag="SSMG_03824" description="&lt;b&gt;SSMG_03824&lt;/b&gt;&lt;br&gt;conserved hypothetical protein&lt;br&gt;Location: 4179080 - 4179887" points="556,35 561,30 564,30 564,40 561,40 556,35 " style="stroke-width:1; stroke:black; fill:white; " id="dummy-15_q24_0_all" class="clusterblast-orf"  />
<polygon locus_tag="SSMG_03825" description="&lt;b&gt;SSMG_03825&lt;/b&gt;&lt;br&gt;aldo/keto reductase&lt;br&gt;Location: 4180049 - 4181042" points="566,40 572,40 577,35 572,30 566,30 566,40 " style="stroke-width:1; stroke:black; fill:#d815d8; " id="dummy-15_q25_0_all" class="clusterblast-orf"  />
<polygon locus_tag="SSMG_03826" description="&lt;b&gt;SSMG_03826&lt;/b&gt;&lt;br&gt;predicted protein&lt;br&gt;Location: 4181073 - 4181988" points="577,35 582,30 587,30 587,40 582,40 577,35 " style="stroke-width:1; stroke:black; fill:white; " id="dummy-15_q26_0_all" class="clusterblast-orf"  />
<polygon locus_tag="SSMG_03827" description="&lt;b&gt;SSMG_03827&lt;/b&gt;&lt;br&gt;phosphatidylinositol 3-and 4-kinase&lt;br&gt;Location: 4181972 - 4182782" points="586,35 591,30 595,30 595,40 591,40 586,35 " style="stroke-width:1; stroke:black; fill:white; " id="dummy-15_q27_0_all" class="clusterblast-orf"  />
<polygon locus_tag="SSMG_03828" description="&lt;b&gt;SSMG_03828&lt;/b&gt;&lt;br&gt;conserved hypothetical protein&lt;br&gt;Location: 4182790 - 4183366" points="595,35 600,30 601,30 601,40 600,40 595,35 " style="stroke-width:1; stroke:black; fill:white; " id="dummy-15_q28_0_all" class="clusterblast-orf"  />
<polygon locus_tag="SSMG_03829" description="&lt;b&gt;SSMG_03829&lt;/b&gt;&lt;br&gt;acyl-peptide hydrolase&lt;br&gt;Location: 4183496 - 4185428" points="602,40 618,40 623,35 618,30 602,30 602,40 " style="stroke-width:1; stroke:black; fill:#d8d815; " id="dummy-15_q29_0_all" class="clusterblast-orf"  />
<polygon locus_tag="SSMG_03830" description="&lt;b&gt;SSMG_03830&lt;/b&gt;&lt;br&gt;conserved hypothetical protein&lt;br&gt;Location: 4185424 - 4186324" points="623,40 627,40 632,35 627,30 623,30 623,40 " style="stroke-width:1; stroke:black; fill:#15d8d8; " id="dummy-15_q30_0_all" class="clusterblast-orf"  />
<polygon locus_tag="SSMG_03831" description="&lt;b&gt;SSMG_03831&lt;/b&gt;&lt;br&gt;pyridoxamine 5'-phosphate oxidase&lt;br&gt;Location: 4186330 - 4186744" points="632,40 632,40 637,35 632,30 632,30 632,40 " style="stroke-width:1; stroke:black; fill:white; " id="dummy-15_q31_0_all" class="clusterblast-orf"  />
<polygon locus_tag="SSMG_03832" description="&lt;b&gt;SSMG_03832&lt;/b&gt;&lt;br&gt;hypothetical protein&lt;br&gt;Location: 4186778 - 4187462" points="637,40 639,40 644,35 639,30 637,30 637,40 " style="stroke-width:1; stroke:black; fill:white; " id="dummy-15_q32_0_all" class="clusterblast-orf"  />
<polygon locus_tag="SSMG_03833" description="&lt;b&gt;SSMG_03833&lt;/b&gt;&lt;br&gt;predicted protein&lt;br&gt;Location: 4187472 - 4188066" points="644,40 646,40 651,35 646,30 644,30 644,40 " style="stroke-width:1; stroke:black; fill:white; " id="dummy-15_q33_0_all" class="clusterblast-orf"  />
<polygon locus_tag="SSMG_03834" description="&lt;b&gt;SSMG_03834&lt;/b&gt;&lt;br&gt;predicted protein&lt;br&gt;Location: 4188384 - 4189485" points="654,40 661,40 666,35 661,30 654,30 654,40 " style="stroke-width:1; stroke:black; fill:white; " id="dummy-15_q34_0_all" class="clusterblast-orf"  />
<polygon locus_tag="SSMG_03835" description="&lt;b&gt;SSMG_03835&lt;/b&gt;&lt;br&gt;predicted protein&lt;br&gt;Location: 4189531 - 4191085" points="666,35 671,30 683,30 683,40 671,40 666,35 " style="stroke-width:1; stroke:black; fill:white; " id="dummy-15_q35_0_all" class="clusterblast-orf"  />
</g>
<g label="BGC0001580" description="BGC0001580_c1: ebelactone (11% of genes show similarity), Polyketide" class="clusterblast-cluster"  >
<text class="clusterblast-acc" y="70" x="5"  >
<a xlink:href="https://mibig.secondarymetabolites.org/go/BGC0001580/1" target="_blank">BGC0001580</a>:                                                                       ebelactone (11% of genes show similarity), Polyketide</text>
<line x1="10" x2="778.0" y2="85" style="stroke-width:1; stroke:grey; " y1="85"  />
</g>
<g id="a15_000"  >
<polygon locus_tag="SCN11940.1" description="&lt;b&gt;SCN11940.1&lt;/b&gt;&lt;br&gt;peptidoglycan binding protein&lt;br&gt;Location: 127 - 2505" points="0,90 20,90 25,85 20,80 0,80 0,90 " style="stroke-width:1; stroke:black; fill:white; " id="dummy-15_h15_3_0" class="clusterblast-orf"  />
</g>
<g id="a15_001"  >
<polygon locus_tag="SCN11941.1" description="&lt;b&gt;SCN11941.1&lt;/b&gt;&lt;br&gt;putative peptidoglycan binding protein&lt;br&gt;Location: 2586 - 4106" points="25,90 37,90 42,85 37,80 25,80 25,90 " style="stroke-width:1; stroke:black; fill:white; " id="dummy-15_h15_3_1" class="clusterblast-orf"  />
</g>
<g id="a15_002"  >
<polygon locus_tag="SCN11942.1" description="&lt;b&gt;SCN11942.1&lt;/b&gt;&lt;br&gt;glycoside hydrolase&lt;br&gt;Location: 4257 - 6227" points="43,85 48,80 64,80 64,90 48,90 43,85 " style="stroke-width:1; stroke:black; fill:white; " id="dummy-15_h15_3_2" class="clusterblast-orf"  />
</g>
<g id="a15_003"  >
<polygon locus_tag="SCN11943.1" description="&lt;b&gt;SCN11943.1&lt;/b&gt;&lt;br&gt;esterase LipW&lt;br&gt;Location: 6437 - 7456" points="66,85 71,80 77,80 77,90 71,90 66,85 " style="stroke-width:1; stroke:black; fill:white; " id="dummy-15_h15_3_3" class="clusterblast-orf"  />
</g>
<g id="a15_004"  >
<polygon locus_tag="SCN11944.1" description="&lt;b&gt;SCN11944.1&lt;/b&gt;&lt;br&gt;alkaline D-peptidase&lt;br&gt;Location: 7722 - 9050" points="80,90 89,90 94,85 89,80 80,80 80,90 " style="stroke-width:1; stroke:black; fill:white; " id="dummy-15_h15_3_4" class="clusterblast-orf"  />
</g>
<g id="a15_005"  >
<polygon locus_tag="SCN11945.1" description="&lt;b&gt;SCN11945.1&lt;/b&gt;&lt;br&gt;hypothetical protein&lt;br&gt;Location: 9252 - 10013" points="96,90 99,90 104,85 99,80 96,80 96,90 " style="stroke-width:1; stroke:black; fill:white; " id="dummy-15_h15_3_5" class="clusterblast-orf"  />
</g>
<g id="a15_006"  >
<polygon locus_tag="SCN11946.1" description="&lt;b&gt;SCN11946.1&lt;/b&gt;&lt;br&gt;SAM-dependent methlyltransferase&lt;br&gt;Location: 10194 - 11072" points="106,85 111,80 115,80 115,90 111,90 106,85 " style="stroke-width:1; stroke:black; fill:white; " id="dummy-15_h15_3_6" class="clusterblast-orf"  />
</g>
<g id="a15_007"  >
<polygon locus_tag="SCN11947.1" description="&lt;b&gt;SCN11947.1&lt;/b&gt;&lt;br&gt;2-methylisoborneol synthase&lt;br&gt;Location: 11088 - 12161" points="115,85 120,80 127,80 127,90 120,90 115,85 " style="stroke-width:1; stroke:black; fill:white; " id="dummy-15_h15_3_7" class="clusterblast-orf"  />
</g>
<g id="a15_008"  >
<polygon locus_tag="SCN11948.1" description="&lt;b&gt;SCN11948.1&lt;/b&gt;&lt;br&gt;hypothetical protein&lt;br&gt;Location: 12617 - 13195" points="131,85 136,80 138,80 138,90 136,90 131,85 " style="stroke-width:1; stroke:black; fill:white; " id="dummy-15_h15_3_8" class="clusterblast-orf"  />
</g>
<g id="a15_009"  >
<polygon locus_tag="SCN11949.1" description="&lt;b&gt;SCN11949.1&lt;/b&gt;&lt;br&gt;ebeA-type I polyketide synthase KSQ-ATa-ACP&lt;br&gt;Location: 13864 - 17031" points="145,90 173,90 178,85 173,80 145,80 145,90 " style="stroke-width:1; stroke:black; fill:white; " id="dummy-15_h15_3_9" class="clusterblast-orf"  />
</g>
<g id="a15_0010"  >
<polygon locus_tag="SCN11950.1" description="&lt;b&gt;SCN11950.1&lt;/b&gt;&lt;br&gt;EbeB-type I polyketide synthase&lt;br&gt;Location: 17094 - 23708&lt;br&gt;&lt;br&gt;&lt;b&gt;BlastP hit with SSMG_03816&lt;/b&gt;&lt;br&gt;Percentage identity: 47&lt;br&gt;Percentage coverage: 50&lt;br&gt;BLAST bit score: 1617&lt;br&gt;E-value: 0.0&lt;br&gt;&lt;br&gt;&lt;b&gt;BlastP hit with SSMG_03817&lt;/b&gt;&lt;br&gt;Percentage identity: 50&lt;br&gt;Percentage coverage: 59&lt;br&gt;BLAST bit score: 579&lt;br&gt;E-value: 1.6e-164" points="179,90 244,90 249,85 244,80 179,80 179,90 " style="stroke-width:1; stroke:black; fill:#1515d8; " id="dummy-15_h15_3_10" class="clusterblast-orf"  />
</g>
<g id="a15_0011"  >
<polygon locus_tag="SCN11951.1" description="&lt;b&gt;SCN11951.1&lt;/b&gt;&lt;br&gt;ebeC-type I polyketide synthase&lt;br&gt;Location: 23865 - 33065&lt;br&gt;&lt;br&gt;&lt;b&gt;BlastP hit with SSMG_03817&lt;/b&gt;&lt;br&gt;Percentage identity: 51&lt;br&gt;Percentage coverage: 55&lt;br&gt;BLAST bit score: 567&lt;br&gt;E-value: 4.9e-161" points="250,90 343,90 348,85 343,80 250,80 250,90 " style="stroke-width:1; stroke:black; fill:#1515d8; " id="dummy-15_h15_3_11" class="clusterblast-orf"  />
</g>
<g id="a15_0012"  >
<polygon locus_tag="SCN11952.1" description="&lt;b&gt;SCN11952.1&lt;/b&gt;&lt;br&gt;ebeD-type I polyketide synthase&lt;br&gt;Location: 33058 - 44862&lt;br&gt;&lt;br&gt;&lt;b&gt;BlastP hit with SSMG_03817&lt;/b&gt;&lt;br&gt;Percentage identity: 50&lt;br&gt;Percentage coverage: 58&lt;br&gt;BLAST bit score: 599&lt;br&gt;E-value: 9e-171" points="348,90 467,90 472,85 467,80 348,80 348,90 " style="stroke-width:1; stroke:black; fill:#1515d8; " id="dummy-15_h15_3_12" class="clusterblast-orf"  />
</g>
<g id="a15_0013"  >
<polygon locus_tag="SCN11953.1" description="&lt;b&gt;SCN11953.1&lt;/b&gt;&lt;br&gt;ebeE-type I polyketide synthase&lt;br&gt;Location: 44953 - 51489&lt;br&gt;&lt;br&gt;&lt;b&gt;BlastP hit with SSMG_03817&lt;/b&gt;&lt;br&gt;Percentage identity: 50&lt;br&gt;Percentage coverage: 56&lt;br&gt;BLAST bit score: 569&lt;br&gt;E-value: 1.7e-161" points="473,90 537,90 542,85 537,80 473,80 473,90 " style="stroke-width:1; stroke:black; fill:#1515d8; " id="dummy-15_h15_3_13" class="clusterblast-orf"  />
</g>
<g id="a15_0014"  >
<polygon locus_tag="SCN11954.1" description="&lt;b&gt;SCN11954.1&lt;/b&gt;&lt;br&gt;Orf1 putative non-ribosomal peptide synthetase&lt;br&gt;Location: 51557 - 53254" points="543,85 548,80 561,80 561,90 548,90 543,85 " style="stroke-width:1; stroke:black; fill:white; " id="dummy-15_h15_3_14" class="clusterblast-orf"  />
</g>
<g id="a15_0015"  >
<polygon locus_tag="SCN11955.1" description="&lt;b&gt;SCN11955.1&lt;/b&gt;&lt;br&gt;short-chain alcohol dehydrogenase&lt;br&gt;Location: 53756 - 54631" points="566,90 570,90 575,85 570,80 566,80 566,90 " style="stroke-width:1; stroke:black; fill:white; " id="dummy-15_h15_3_15" class="clusterblast-orf"  />
</g>
<g id="a15_0016"  >
<polygon locus_tag="SCN11956.1" description="&lt;b&gt;SCN11956.1&lt;/b&gt;&lt;br&gt;esterase&lt;br&gt;Location: 54655 - 55461" points="576,85 581,80 584,80 584,90 581,90 576,85 " style="stroke-width:1; stroke:black; fill:white; " id="dummy-15_h15_3_16" class="clusterblast-orf"  />
</g>
<g id="a15_0017"  >
<polygon locus_tag="SCN11957.1" description="&lt;b&gt;SCN11957.1&lt;/b&gt;&lt;br&gt;hypothetical protein&lt;br&gt;Location: 55574 - 55927" points="585,85 589,80 589,90 585,85 " style="stroke-width:1; stroke:black; fill:white; " id="dummy-15_h15_3_17" class="clusterblast-orf"  />
</g>
<g id="a15_0018"  >
<polygon locus_tag="SCN11958.1" description="&lt;b&gt;SCN11958.1&lt;/b&gt;&lt;br&gt;F420-dependent oxidoreductase&lt;br&gt;Location: 56104 - 57030" points="591,90 596,90 601,85 596,80 591,80 591,90 " style="stroke-width:1; stroke:black; fill:white; " id="dummy-15_h15_3_18" class="clusterblast-orf"  />
</g>
<g id="a15_0019"  >
<polygon locus_tag="SCN11959.1" description="&lt;b&gt;SCN11959.1&lt;/b&gt;&lt;br&gt;ATP/GTP-binding protein&lt;br&gt;Location: 57337 - 58041" points="604,90 607,90 612,85 607,80 604,80 604,90 " style="stroke-width:1; stroke:black; fill:white; " id="dummy-15_h15_3_19" class="clusterblast-orf"  />
</g>
<g id="a15_0020"  >
<polygon locus_tag="SCN11960.1" description="&lt;b&gt;SCN11960.1&lt;/b&gt;&lt;br&gt;metalloprotease MEP1-like protein&lt;br&gt;Location: 58336 - 59355" points="615,90 620,90 625,85 620,80 615,80 615,90 " style="stroke-width:1; stroke:black; fill:white; " id="dummy-15_h15_3_20" class="clusterblast-orf"  />
</g>
<g id="a15_0021"  >
<polygon locus_tag="SCN11961.1" description="&lt;b&gt;SCN11961.1&lt;/b&gt;&lt;br&gt;universal stress protein UspA&lt;br&gt;Location: 59621 - 60085" points="628,90 628,90 633,85 628,80 628,80 628,90 " style="stroke-width:1; stroke:black; fill:white; " id="dummy-15_h15_3_21" class="clusterblast-orf"  />
</g>
<g id="a15_0022"  >
<polygon locus_tag="SCN11962.1" description="&lt;b&gt;SCN11962.1&lt;/b&gt;&lt;br&gt;cold-shock DNA-binding protein&lt;br&gt;Location: 60216 - 60428" points="635,90 637,85 635,80 635,90 " style="stroke-width:1; stroke:black; fill:white; " id="dummy-15_h15_3_22" class="clusterblast-orf"  />
</g>
<g id="a15_0023"  >
<polygon locus_tag="SCN11963.1" description="&lt;b&gt;SCN11963.1&lt;/b&gt;&lt;br&gt;DNA glycosylase&lt;br&gt;Location: 60509 - 61366" points="638,90 642,90 647,85 642,80 638,80 638,90 " style="stroke-width:1; stroke:black; fill:white; " id="dummy-15_h15_3_23" class="clusterblast-orf"  />
</g>
<g id="a15_0024"  >
<polygon locus_tag="SCN11964.1" description="&lt;b&gt;SCN11964.1&lt;/b&gt;&lt;br&gt;uridine kinase&lt;br&gt;Location: 61314 - 61949" points="646,85 651,80 653,80 653,90 651,90 646,85 " style="stroke-width:1; stroke:black; fill:white; " id="dummy-15_h15_3_24" class="clusterblast-orf"  />
</g>
<g id="a15_0025"  >
<polygon locus_tag="SCN11965.1" description="&lt;b&gt;SCN11965.1&lt;/b&gt;&lt;br&gt;hypothetical protein&lt;br&gt;Location: 61995 - 63314" points="653,85 658,80 667,80 667,90 658,90 653,85 " style="stroke-width:1; stroke:black; fill:white; " id="dummy-15_h15_3_25" class="clusterblast-orf"  />
</g>
<g id="a15_0026"  >
<polygon locus_tag="SCN11966.1" description="&lt;b&gt;SCN11966.1&lt;/b&gt;&lt;br&gt;hypothetical protein&lt;br&gt;Location: 63421 - 63753" points="668,85 672,80 672,90 668,85 " style="stroke-width:1; stroke:black; fill:white; " id="dummy-15_h15_3_26" class="clusterblast-orf"  />
</g>
<g id="a15_0027"  >
<polygon locus_tag="SCN11967.1" description="&lt;b&gt;SCN11967.1&lt;/b&gt;&lt;br&gt;putative serine phosphatase RsbU, regulator of sigma subunit&lt;br&gt;Location: 63936 - 66362" points="674,90 694,90 699,85 694,80 674,80 674,90 " style="stroke-width:1; stroke:black; fill:white; " id="dummy-15_h15_3_27" class="clusterblast-orf"  />
</g>
<g id="a15_0028"  >
<polygon locus_tag="SCN11968.1" description="&lt;b&gt;SCN11968.1&lt;/b&gt;&lt;br&gt;putative two-component system sensor kinase&lt;br&gt;Location: 66509 - 68203" points="701,90 714,90 719,85 714,80 701,80 701,90 " style="stroke-width:1; stroke:black; fill:white; " id="dummy-15_h15_3_28" class="clusterblast-orf"  />
</g>
<g id="a15_0029"  >
<polygon locus_tag="SCN11969.1" description="&lt;b&gt;SCN11969.1&lt;/b&gt;&lt;br&gt;LuxR family transcriptional regulator&lt;br&gt;Location: 68299 - 68967" points="720,90 722,90 727,85 722,80 720,80 720,90 " style="stroke-width:1; stroke:black; fill:white; " id="dummy-15_h15_3_29" class="clusterblast-orf"  />
</g>
<g id="a15_0030"  >
<polygon locus_tag="SCN11970.1" description="&lt;b&gt;SCN11970.1&lt;/b&gt;&lt;br&gt;AsnC family transcriptional regulator&lt;br&gt;Location: 69071 - 69502" points="728,85 733,80 733,80 733,90 733,90 728,85 " style="stroke-width:1; stroke:black; fill:white; " id="dummy-15_h15_3_30" class="clusterblast-orf"  />
</g>
<g id="a15_0031"  >
<polygon locus_tag="SCN11971.1" description="&lt;b&gt;SCN11971.1&lt;/b&gt;&lt;br&gt;lysine exporter protein LysE&lt;br&gt;Location: 69582 - 70220" points="733,90 735,90 740,85 735,80 733,80 733,90 " style="stroke-width:1; stroke:black; fill:white; " id="dummy-15_h15_3_31" class="clusterblast-orf"  />
</g>
<g id="a15_0032"  >
<polygon locus_tag="SCN11972.1" description="&lt;b&gt;SCN11972.1&lt;/b&gt;&lt;br&gt;putative transglycosylase&lt;br&gt;Location: 70746 - 71525" points="746,90 749,90 754,85 749,80 746,80 746,90 " style="stroke-width:1; stroke:black; fill:white; " id="dummy-15_h15_3_32" class="clusterblast-orf"  />
</g>
<g id="a15_0033"  >
<polygon locus_tag="SCN11973.1" description="&lt;b&gt;SCN11973.1&lt;/b&gt;&lt;br&gt;ubiquinone biosynthesis methyltransferase UbiE&lt;br&gt;Location: 71600 - 72310" points="755,90 757,90 762,85 757,80 755,80 755,90 " style="stroke-width:1; stroke:black; fill:white; " id="dummy-15_h15_3_33" class="clusterblast-orf"  />
</g>
<g id="a15_0034"  >
<polygon locus_tag="SCN11974.1" description="&lt;b&gt;SCN11974.1&lt;/b&gt;&lt;br&gt;short-chain dehydrogenase/reductase SDR&lt;br&gt;Location: 72410 - 73165" points="763,90 766,90 771,85 766,80 763,80 763,90 " style="stroke-width:1; stroke:black; fill:white; " id="dummy-15_h15_3_34" class="clusterblast-orf"  />
</g>
<g id="a15_0035"  >
<polygon locus_tag="SCN11975.1" description="&lt;b&gt;SCN11975.1&lt;/b&gt;&lt;br&gt;putative ArsR family transcriptional regulator&lt;br&gt;Location: 73339 - 73935" points="773,90 774,90 779,85 774,80 773,80 773,90 " style="stroke-width:1; stroke:black; fill:white; " id="dummy-15_h15_3_35" class="clusterblast-orf"  />
</g>
</svg>
