<svg version="1.1" xmlns="http://www.w3.org/2000/svg" height="230" width="800" xmlns:xlink="http://www.w3.org/1999/xlink" preserveAspectRatio="none" x="0" y="0" viewBox="0 0 800 230"  >
<g label="Query sequence" class="clusterblast-cluster"  >
<text class="clusterblast-acc" y="20" x="5"  >
Query sequence</text>
<line x1="10" x2="778.0" y2="35" style="stroke-width:1; stroke:grey; " y1="35"  />
<polygon locus_tag="SSMG_05904" description="&lt;b&gt;SSMG_05904&lt;/b&gt;&lt;br&gt;predicted protein&lt;br&gt;Location: 6494403 - 6494646" points="3,35 5,30 5,40 3,35 " style="stroke-width:1; stroke:black; fill:white; " id="dummy-22_q0_0_all" class="clusterblast-orf"  />
<polygon locus_tag="SSMG_05905" description="&lt;b&gt;SSMG_05905&lt;/b&gt;&lt;br&gt;monooxygenase&lt;br&gt;Location: 6494758 - 6495877" points="6,35 11,30 14,30 14,40 11,40 6,35 " style="stroke-width:1; stroke:black; fill:white; " id="dummy-22_q1_0_all" class="clusterblast-orf"  />
<polygon locus_tag="SSMG_05906" description="&lt;b&gt;SSMG_05906&lt;/b&gt;&lt;br&gt;ATPase&lt;br&gt;Location: 6497554 - 6501253" points="26,35 31,30 52,30 52,40 31,40 26,35 " style="stroke-width:1; stroke:black; fill:white; " id="dummy-22_q2_0_all" class="clusterblast-orf"  />
<polygon locus_tag="SSMG_05907" description="&lt;b&gt;SSMG_05907&lt;/b&gt;&lt;br&gt;predicted protein&lt;br&gt;Location: 6501367 - 6502021" points="53,40 53,40 58,35 53,30 53,30 53,40 " style="stroke-width:1; stroke:black; fill:white; " id="dummy-22_q3_0_all" class="clusterblast-orf"  />
<polygon locus_tag="SSMG_05908" description="&lt;b&gt;SSMG_05908&lt;/b&gt;&lt;br&gt;sigma-70 region 2 domain-containing protein&lt;br&gt;Location: 6502030 - 6503281" points="58,35 63,30 67,30 67,40 63,40 58,35 " style="stroke-width:1; stroke:black; fill:white; " id="dummy-22_q4_0_all" class="clusterblast-orf"  />
<polygon locus_tag="SSMG_05909" description="&lt;b&gt;SSMG_05909&lt;/b&gt;&lt;br&gt;dgpfaetke family protein&lt;br&gt;Location: 6503244 - 6503568" points="67,35 69,30 69,40 67,35 " style="stroke-width:1; stroke:black; fill:white; " id="dummy-22_q5_0_all" class="clusterblast-orf"  />
<polygon locus_tag="SSMG_05910" description="&lt;b&gt;SSMG_05910&lt;/b&gt;&lt;br&gt;riboflavin biosynthesis protein RibD domain-containing protein&lt;br&gt;Location: 6503592 - 6504213" points="69,35 74,30 74,30 74,40 74,40 69,35 " style="stroke-width:1; stroke:black; fill:white; " id="dummy-22_q6_0_all" class="clusterblast-orf"  />
<polygon locus_tag="SSMG_05911" description="&lt;b&gt;SSMG_05911&lt;/b&gt;&lt;br&gt;conserved hypothetical protein&lt;br&gt;Location: 6504333 - 6505188" points="75,35 80,30 81,30 81,40 80,40 75,35 " style="stroke-width:1; stroke:black; fill:white; " id="dummy-22_q7_0_all" class="clusterblast-orf"  />
<polygon locus_tag="SSMG_05912" description="&lt;b&gt;SSMG_05912&lt;/b&gt;&lt;br&gt;ribonuclease Z&lt;br&gt;Location: 6505189 - 6506098" points="81,35 86,30 87,30 87,40 86,40 81,35 " style="stroke-width:1; stroke:black; fill:white; " id="dummy-22_q8_0_all" class="clusterblast-orf"  />
<polygon locus_tag="SSMG_05913" description="&lt;b&gt;SSMG_05913&lt;/b&gt;&lt;br&gt;predicted protein&lt;br&gt;Location: 6506223 - 6507189" points="88,35 93,30 95,30 95,40 93,40 88,35 " style="stroke-width:1; stroke:black; fill:white; " id="dummy-22_q9_0_all" class="clusterblast-orf"  />
<polygon locus_tag="SSMG_05914" description="&lt;b&gt;SSMG_05914&lt;/b&gt;&lt;br&gt;predicted protein&lt;br&gt;Location: 6507197 - 6508166" points="95,35 100,30 102,30 102,40 100,40 95,35 " style="stroke-width:1; stroke:black; fill:white; " id="dummy-22_q10_0_all" class="clusterblast-orf"  />
<polygon locus_tag="SSMG_05915" description="&lt;b&gt;SSMG_05915&lt;/b&gt;&lt;br&gt;butyrolactone receptor&lt;br&gt;Location: 6508346 - 6508979" points="104,40 108,35 104,30 104,40 " style="stroke-width:1; stroke:black; fill:white; " id="dummy-22_q11_0_all" class="clusterblast-orf"  />
<polygon locus_tag="SSMG_05916" description="&lt;b&gt;SSMG_05916&lt;/b&gt;&lt;br&gt;predicted protein&lt;br&gt;Location: 6509405 - 6510080" points="111,35 116,30 116,30 116,40 116,40 111,35 " style="stroke-width:1; stroke:black; fill:white; " id="dummy-22_q12_0_all" class="clusterblast-orf"  />
<polygon locus_tag="SSMG_05917" description="&lt;b&gt;SSMG_05917&lt;/b&gt;&lt;br&gt;predicted protein&lt;br&gt;Location: 6510293 - 6511061" points="118,40 118,40 123,35 118,30 118,30 118,40 " style="stroke-width:1; stroke:black; fill:white; " id="dummy-22_q13_0_all" class="clusterblast-orf"  />
<polygon locus_tag="SSMG_05918" description="&lt;b&gt;SSMG_05918&lt;/b&gt;&lt;br&gt;predicted protein&lt;br&gt;Location: 6511551 - 6512124" points="127,35 131,30 131,40 127,35 " style="stroke-width:1; stroke:black; fill:white; " id="dummy-22_q14_0_all" class="clusterblast-orf"  />
<polygon locus_tag="SSMG_05919" description="&lt;b&gt;SSMG_05919&lt;/b&gt;&lt;br&gt;predicted protein&lt;br&gt;Location: 6512270 - 6513098" points="132,35 137,30 138,30 138,40 137,40 132,35 " style="stroke-width:1; stroke:black; fill:#d81515; " id="dummy-22_q15_0_all" class="clusterblast-orf"  />
<polygon locus_tag="SSMG_05920" description="&lt;b&gt;SSMG_05920&lt;/b&gt;&lt;br&gt;nodulation ABC transporter NodI&lt;br&gt;Location: 6513097 - 6514048" points="138,35 143,30 145,30 145,40 143,40 138,35 " style="stroke-width:1; stroke:black; fill:#6ad815; " id="dummy-22_q16_0_all" class="clusterblast-orf"  />
<polygon locus_tag="SSMG_05921" description="&lt;b&gt;SSMG_05921&lt;/b&gt;&lt;br&gt;polyketide synthase type I&lt;br&gt;Location: 6514125 - 6524589" points="145,35 150,30 221,30 221,40 150,40 145,35 " style="stroke-width:1; stroke:black; fill:#15bfd8; " id="dummy-22_q17_0_all" class="clusterblast-orf"  />
<polygon locus_tag="SSMG_05922" description="&lt;b&gt;SSMG_05922&lt;/b&gt;&lt;br&gt;acyl transferase domain-containing protein&lt;br&gt;Location: 6524595 - 6529314" points="221,35 226,30 255,30 255,40 226,40 221,35 " style="stroke-width:1; stroke:black; fill:#15bfd8; " id="dummy-22_q18_0_all" class="clusterblast-orf"  />
<polygon locus_tag="SSMG_05923" description="&lt;b&gt;SSMG_05923&lt;/b&gt;&lt;br&gt;polyketide synthase type I&lt;br&gt;Location: 6529325 - 6534461" points="255,35 260,30 292,30 292,40 260,40 255,35 " style="stroke-width:1; stroke:black; fill:#15bfd8; " id="dummy-22_q19_0_all" class="clusterblast-orf"  />
<polygon locus_tag="SSMG_05924" description="&lt;b&gt;SSMG_05924&lt;/b&gt;&lt;br&gt;predicted protein&lt;br&gt;Location: 6534559 - 6535441" points="293,35 298,30 300,30 300,40 298,40 293,35 " style="stroke-width:1; stroke:black; fill:#9d15d8; " id="dummy-22_q20_0_all" class="clusterblast-orf"  />
<polygon locus_tag="SSMG_05925" description="&lt;b&gt;SSMG_05925&lt;/b&gt;&lt;br&gt;predicted protein&lt;br&gt;Location: 6535532 - 6538088" points="300,35 305,30 319,30 319,40 305,40 300,35 " style="stroke-width:1; stroke:black; fill:white; " id="dummy-22_q21_0_all" class="clusterblast-orf"  />
<polygon locus_tag="SSMG_05926" description="&lt;b&gt;SSMG_05926&lt;/b&gt;&lt;br&gt;lipoprotein releasing system, ATP-binding protein&lt;br&gt;Location: 6538084 - 6538930" points="319,35 324,30 325,30 325,40 324,40 319,35 " style="stroke-width:1; stroke:black; fill:#d84815; " id="dummy-22_q22_0_all" class="clusterblast-orf"  />
<polygon locus_tag="SSMG_05927" description="&lt;b&gt;SSMG_05927&lt;/b&gt;&lt;br&gt;hypothetical protein&lt;br&gt;Location: 6539188 - 6539740" points="327,35 331,30 331,40 327,35 " style="stroke-width:1; stroke:black; fill:#37d815; " id="dummy-22_q23_0_all" class="clusterblast-orf"  />
<polygon locus_tag="SSMG_05928" description="&lt;b&gt;SSMG_05928&lt;/b&gt;&lt;br&gt;hypothetical protein&lt;br&gt;Location: 6539678 - 6540389" points="330,40 330,40 335,35 330,30 330,30 330,40 " style="stroke-width:1; stroke:black; fill:white; " id="dummy-22_q24_0_all" class="clusterblast-orf"  />
<polygon locus_tag="SSMG_05929" description="&lt;b&gt;SSMG_05929&lt;/b&gt;&lt;br&gt;predicted protein&lt;br&gt;Location: 6540909 - 6550362" points="339,35 344,30 407,30 407,40 344,40 339,35 " style="stroke-width:1; stroke:black; fill:#15bfd8; " id="dummy-22_q25_0_all" class="clusterblast-orf"  />
<polygon locus_tag="SSMG_05930" description="&lt;b&gt;SSMG_05930&lt;/b&gt;&lt;br&gt;predicted protein&lt;br&gt;Location: 6550532 - 6551294" points="409,40 409,40 414,35 409,30 409,30 409,40 " style="stroke-width:1; stroke:black; fill:#158cd8; " id="dummy-22_q26_0_all" class="clusterblast-orf"  />
<polygon locus_tag="SSMG_05931" description="&lt;b&gt;SSMG_05931&lt;/b&gt;&lt;br&gt;UDP-glucose/GDP-mannose dehydrogenase&lt;br&gt;Location: 6551358 - 6552651" points="415,40 419,40 424,35 419,30 415,30 415,40 " style="stroke-width:1; stroke:black; fill:#d015d8; " id="dummy-22_q27_0_all" class="clusterblast-orf"  />
<polygon locus_tag="SSMG_05932" description="&lt;b&gt;SSMG_05932&lt;/b&gt;&lt;br&gt;NAD-dependent epimerase/dehydratase&lt;br&gt;Location: 6552702 - 6553677" points="424,40 426,40 431,35 426,30 424,30 424,40 " style="stroke-width:1; stroke:black; fill:#d87b15; " id="dummy-22_q28_0_all" class="clusterblast-orf"  />
<polygon locus_tag="SSMG_05933" description="&lt;b&gt;SSMG_05933&lt;/b&gt;&lt;br&gt;hypothetical protein&lt;br&gt;Location: 6553888 - 6556477" points="433,35 438,30 452,30 452,40 438,40 433,35 " style="stroke-width:1; stroke:black; fill:white; " id="dummy-22_q29_0_all" class="clusterblast-orf"  />
<polygon locus_tag="SSMG_05934" description="&lt;b&gt;SSMG_05934&lt;/b&gt;&lt;br&gt;predicted protein&lt;br&gt;Location: 6556689 - 6558081" points="453,40 458,40 463,35 458,30 453,30 453,40 " style="stroke-width:1; stroke:black; fill:white; " id="dummy-22_q30_0_all" class="clusterblast-orf"  />
<polygon locus_tag="SSMG_05935" description="&lt;b&gt;SSMG_05935&lt;/b&gt;&lt;br&gt;thioesterase&lt;br&gt;Location: 6558131 - 6558914" points="464,40 464,40 469,35 464,30 464,30 464,40 " style="stroke-width:1; stroke:black; fill:#15d826; " id="dummy-22_q31_0_all" class="clusterblast-orf"  />
<polygon locus_tag="SSMG_05936" description="&lt;b&gt;SSMG_05936&lt;/b&gt;&lt;br&gt;predicted protein&lt;br&gt;Location: 6558953 - 6559295" points="469,40 472,35 469,30 469,40 " style="stroke-width:1; stroke:black; fill:#1559d8; " id="dummy-22_q32_0_all" class="clusterblast-orf"  />
<polygon locus_tag="SSMG_05937" description="&lt;b&gt;SSMG_05937&lt;/b&gt;&lt;br&gt;predicted protein&lt;br&gt;Location: 6559696 - 6560167" points="475,35 478,30 478,40 475,35 " style="stroke-width:1; stroke:black; fill:white; " id="dummy-22_q33_0_all" class="clusterblast-orf"  />
<polygon locus_tag="SSMG_05938" description="&lt;b&gt;SSMG_05938&lt;/b&gt;&lt;br&gt;PKS module 4&lt;br&gt;Location: 6560592 - 6565977" points="481,35 486,30 520,30 520,40 486,40 481,35 " style="stroke-width:1; stroke:black; fill:#15bfd8; " id="dummy-22_q34_0_all" class="clusterblast-orf"  />
<polygon locus_tag="SSMG_05939" description="&lt;b&gt;SSMG_05939&lt;/b&gt;&lt;br&gt;modular polyketide synthase&lt;br&gt;Location: 6565973 - 6581756" points="520,35 525,30 634,30 634,40 525,40 520,35 " style="stroke-width:1; stroke:black; fill:#15bfd8; " id="dummy-22_q35_0_all" class="clusterblast-orf"  />
<polygon locus_tag="SSMG_05940" description="&lt;b&gt;SSMG_05940&lt;/b&gt;&lt;br&gt;cytochrome P450&lt;br&gt;Location: 6581852 - 6583049" points="635,35 640,30 644,30 644,40 640,40 635,35 " style="stroke-width:1; stroke:black; fill:#d815ae; " id="dummy-22_q36_0_all" class="clusterblast-orf"  />
<polygon locus_tag="SSMG_05941" description="&lt;b&gt;SSMG_05941&lt;/b&gt;&lt;br&gt;glutamate mutase subunit B&lt;br&gt;Location: 6583045 - 6584314" points="644,35 649,30 653,30 653,40 649,40 644,35 " style="stroke-width:1; stroke:black; fill:#d8ae15; " id="dummy-22_q37_0_all" class="clusterblast-orf"  />
<polygon locus_tag="SSMG_05942" description="&lt;b&gt;SSMG_05942&lt;/b&gt;&lt;br&gt;glutamate mutase S-chain&lt;br&gt;Location: 6584310 - 6584787" points="653,35 656,30 656,40 653,35 " style="stroke-width:1; stroke:black; fill:#15d859; " id="dummy-22_q38_0_all" class="clusterblast-orf"  />
<polygon locus_tag="SSMG_05943" description="&lt;b&gt;SSMG_05943&lt;/b&gt;&lt;br&gt;diaminopimelate decarboxylase&lt;br&gt;Location: 6584783 - 6585998" points="656,35 661,30 665,30 665,40 661,40 656,35 " style="stroke-width:1; stroke:black; fill:#1526d8; " id="dummy-22_q39_0_all" class="clusterblast-orf"  />
<polygon locus_tag="SSMG_05944" description="&lt;b&gt;SSMG_05944&lt;/b&gt;&lt;br&gt;O-succinylbenzoate-CoA ligase&lt;br&gt;Location: 6585994 - 6587455" points="665,35 670,30 675,30 675,40 670,40 665,35 " style="stroke-width:1; stroke:black; fill:#d8157b; " id="dummy-22_q40_0_all" class="clusterblast-orf"  />
<polygon locus_tag="SSMG_05945" description="&lt;b&gt;SSMG_05945&lt;/b&gt;&lt;br&gt;AMP-dependent synthetase and ligase&lt;br&gt;Location: 6587651 - 6589199" points="677,35 682,30 688,30 688,40 682,40 677,35 " style="stroke-width:1; stroke:black; fill:#d0d815; " id="dummy-22_q41_0_all" class="clusterblast-orf"  />
<polygon locus_tag="SSMG_05946" description="&lt;b&gt;SSMG_05946&lt;/b&gt;&lt;br&gt;predicted protein&lt;br&gt;Location: 6589274 - 6589628" points="689,40 691,35 689,30 689,40 " style="stroke-width:1; stroke:black; fill:#15d88c; " id="dummy-22_q42_0_all" class="clusterblast-orf"  />
<polygon locus_tag="SSMG_05947" description="&lt;b&gt;SSMG_05947&lt;/b&gt;&lt;br&gt;malonyl-CoA-[acyl-carrier-protein] transacylase&lt;br&gt;Location: 6589620 - 6590580" points="691,35 696,30 698,30 698,40 696,40 691,35 " style="stroke-width:1; stroke:black; fill:#3715d8; " id="dummy-22_q43_0_all" class="clusterblast-orf"  />
<polygon locus_tag="SSMG_05948" description="&lt;b&gt;SSMG_05948&lt;/b&gt;&lt;br&gt;proline-specific peptidase&lt;br&gt;Location: 6590572 - 6591505" points="698,35 703,30 705,30 705,40 703,40 698,35 " style="stroke-width:1; stroke:black; fill:#d81548; " id="dummy-22_q44_0_all" class="clusterblast-orf"  />
<polygon locus_tag="SSMG_05949" description="&lt;b&gt;SSMG_05949&lt;/b&gt;&lt;br&gt;predicted protein&lt;br&gt;Location: 6591738 - 6593001" points="706,40 711,40 716,35 711,30 706,30 706,40 " style="stroke-width:1; stroke:black; fill:#9dd815; " id="dummy-22_q45_0_all" class="clusterblast-orf"  />
<polygon locus_tag="SSMG_05950" description="&lt;b&gt;SSMG_05950&lt;/b&gt;&lt;br&gt;predicted protein&lt;br&gt;Location: 6592910 - 6594107" points="715,40 719,40 724,35 719,30 715,30 715,40 " style="stroke-width:1; stroke:black; fill:#15d8bf; " id="dummy-22_q46_0_all" class="clusterblast-orf"  />
<polygon locus_tag="SSMG_05951" description="&lt;b&gt;SSMG_05951&lt;/b&gt;&lt;br&gt;two component transcriptional regulator&lt;br&gt;Location: 6594130 - 6594784" points="724,40 728,35 724,30 724,40 " style="stroke-width:1; stroke:black; fill:#6a15d8; " id="dummy-22_q47_0_all" class="clusterblast-orf"  />
<polygon locus_tag="SSMG_05952" description="&lt;b&gt;SSMG_05952&lt;/b&gt;&lt;br&gt;predicted protein&lt;br&gt;Location: 6595236 - 6595497" points="732,35 734,30 734,40 732,35 " style="stroke-width:1; stroke:black; fill:white; " id="dummy-22_q48_0_all" class="clusterblast-orf"  />
<polygon locus_tag="SSMG_05953" description="&lt;b&gt;SSMG_05953&lt;/b&gt;&lt;br&gt;acetyl-CoA carboxylase complex&lt;br&gt;Location: 6596157 - 6597732" points="738,35 743,30 750,30 750,40 743,40 738,35 " style="stroke-width:1; stroke:black; fill:white; " id="dummy-22_q49_0_all" class="clusterblast-orf"  />
<polygon locus_tag="SSMG_05954" description="&lt;b&gt;SSMG_05954&lt;/b&gt;&lt;br&gt;thioesterase&lt;br&gt;Location: 6597718 - 6598489" points="750,35 755,30 755,30 755,40 755,40 750,35 " style="stroke-width:1; stroke:black; fill:#15d826; " id="dummy-22_q50_0_all" class="clusterblast-orf"  />
<polygon locus_tag="SSMG_05955" description="&lt;b&gt;SSMG_05955&lt;/b&gt;&lt;br&gt;predicted protein&lt;br&gt;Location: 6598699 - 6598879" points="757,40 758,35 757,30 757,40 " style="stroke-width:1; stroke:black; fill:white; " id="dummy-22_q51_0_all" class="clusterblast-orf"  />
<polygon locus_tag="SSMG_05956" description="&lt;b&gt;SSMG_05956&lt;/b&gt;&lt;br&gt;acetyltransferase&lt;br&gt;Location: 6598857 - 6599643" points="758,35 763,30 764,30 764,40 763,40 758,35 " style="stroke-width:1; stroke:black; fill:white; " id="dummy-22_q52_0_all" class="clusterblast-orf"  />
<polygon locus_tag="SSMG_05957" description="&lt;b&gt;SSMG_05957&lt;/b&gt;&lt;br&gt;conserved hypothetical protein&lt;br&gt;Location: 6599693 - 6600416" points="764,40 764,40 769,35 764,30 764,30 764,40 " style="stroke-width:1; stroke:black; fill:white; " id="dummy-22_q53_0_all" class="clusterblast-orf"  />
<polygon locus_tag="SSMG_05958" description="&lt;b&gt;SSMG_05958&lt;/b&gt;&lt;br&gt;predicted protein&lt;br&gt;Location: 6600437 - 6600926" points="769,40 773,35 769,30 769,40 " style="stroke-width:1; stroke:black; fill:white; " id="dummy-22_q54_0_all" class="clusterblast-orf"  />
<polygon locus_tag="SSMG_05959" description="&lt;b&gt;SSMG_05959&lt;/b&gt;&lt;br&gt;transcriptional regulator&lt;br&gt;Location: 6600933 - 6601395" points="773,35 776,30 776,40 773,35 " style="stroke-width:1; stroke:black; fill:white; " id="dummy-22_q55_0_all" class="clusterblast-orf"  />
</g>
<g label="BGC0001303" description="BGC0001303_c1: lobosamide A / lobosamide B / lobosamide C (28% of genes show similarity), Polyketide" class="clusterblast-cluster"  >
<text class="clusterblast-acc" y="70" x="5"  >
<a xlink:href="https://mibig.secondarymetabolites.org/go/BGC0001303/1" target="_blank">BGC0001303</a>:                                       lobosamide A / lobosamide B / lobosamide C (28% of genes show similarity), Polyketide</text>
<line x1="10" x2="778.0" y2="85" style="stroke-width:1; stroke:grey; " y1="85"  />
</g>
<g id="a22_000"  >
<polygon locus_tag="ALA09384.1" description="&lt;b&gt;ALA09384.1&lt;/b&gt;&lt;br&gt;hypothetical protein&lt;br&gt;Location: 108348 - 107488" points="0,85 5,80 6,80 6,90 5,90 0,85 " style="stroke-width:1; stroke:black; fill:white; " id="dummy-22_h22_10_0" class="clusterblast-orf"  />
</g>
<g id="a22_001"  >
<polygon locus_tag="ALA09383.1" description="&lt;b&gt;ALA09383.1&lt;/b&gt;&lt;br&gt;hypothetical protein&lt;br&gt;Location: 107378 - 106356" points="7,85 12,80 14,80 14,90 12,90 7,85 " style="stroke-width:1; stroke:black; fill:white; " id="dummy-22_h22_10_1" class="clusterblast-orf"  />
</g>
<g id="a22_002"  >
<polygon locus_tag="ALA09382.1" description="&lt;b&gt;ALA09382.1&lt;/b&gt;&lt;br&gt;hypothetical protein&lt;br&gt;Location: 106345 - 104444" points="14,85 19,80 28,80 28,90 19,90 14,85 " style="stroke-width:1; stroke:black; fill:white; " id="dummy-22_h22_10_2" class="clusterblast-orf"  />
</g>
<g id="a22_003"  >
<polygon locus_tag="ALA09381.1" description="&lt;b&gt;ALA09381.1&lt;/b&gt;&lt;br&gt;serine/threonine protein kinase&lt;br&gt;Location: 104091 - 102577" points="30,90 36,90 41,85 36,80 30,80 30,90 " style="stroke-width:1; stroke:black; fill:white; " id="dummy-22_h22_10_3" class="clusterblast-orf"  />
</g>
<g id="a22_004"  >
<polygon locus_tag="ALA09380.1" description="&lt;b&gt;ALA09380.1&lt;/b&gt;&lt;br&gt;sensor histidine kinase&lt;br&gt;Location: 102580 - 101255" points="41,90 46,90 51,85 46,80 41,80 41,90 " style="stroke-width:1; stroke:black; fill:white; " id="dummy-22_h22_10_4" class="clusterblast-orf"  />
</g>
<g id="a22_005"  >
<polygon locus_tag="ALA09379.1" description="&lt;b&gt;ALA09379.1&lt;/b&gt;&lt;br&gt;LuxR family DNA-binding response regulator&lt;br&gt;Location: 101246 - 100629&lt;br&gt;&lt;br&gt;&lt;b&gt;BlastP hit with SSMG_05951&lt;/b&gt;&lt;br&gt;Percentage identity: 54&lt;br&gt;Percentage coverage: 91&lt;br&gt;BLAST bit score: 205&lt;br&gt;E-value: 1.2e-52" points="51,90 55,85 51,80 51,90 " style="stroke-width:1; stroke:black; fill:#6a15d8; " id="dummy-22_h22_10_5" class="clusterblast-orf"  />
</g>
<g id="a22_006"  >
<polygon locus_tag="ALA09378.1" description="&lt;b&gt;ALA09378.1&lt;/b&gt;&lt;br&gt;ABC transporter&lt;br&gt;Location: 100428 - 97864" points="57,85 62,80 75,80 75,90 62,90 57,85 " style="stroke-width:1; stroke:black; fill:white; " id="dummy-22_h22_10_6" class="clusterblast-orf"  />
</g>
<g id="a22_007"  >
<polygon locus_tag="ALA09377.1" description="&lt;b&gt;ALA09377.1&lt;/b&gt;&lt;br&gt;ABC transporter&lt;br&gt;Location: 97864 - 97058&lt;br&gt;&lt;br&gt;&lt;b&gt;BlastP hit with SSMG_05926&lt;/b&gt;&lt;br&gt;Percentage identity: 67&lt;br&gt;Percentage coverage: 88&lt;br&gt;BLAST bit score: 311&lt;br&gt;E-value: 2e-84" points="75,85 80,80 81,80 81,90 80,90 75,85 " style="stroke-width:1; stroke:black; fill:#d84815; " id="dummy-22_h22_10_7" class="clusterblast-orf"  />
</g>
<g id="a22_008"  >
<polygon locus_tag="ALA09376.1" description="&lt;b&gt;ALA09376.1&lt;/b&gt;&lt;br&gt;transcriptional regulator&lt;br&gt;Location: 96917 - 96015" points="82,85 87,80 89,80 89,90 87,90 82,85 " style="stroke-width:1; stroke:black; fill:white; " id="dummy-22_h22_10_8" class="clusterblast-orf"  />
</g>
<g id="a22_009"  >
<polygon locus_tag="ALA09375.1" description="&lt;b&gt;ALA09375.1&lt;/b&gt;&lt;br&gt;transcriptional regulator&lt;br&gt;Location: 96030 - 94084" points="89,85 94,80 103,80 103,90 94,90 89,85 " style="stroke-width:1; stroke:black; fill:white; " id="dummy-22_h22_10_9" class="clusterblast-orf"  />
</g>
<g id="a22_0010"  >
<polygon locus_tag="ALA09374.1" description="&lt;b&gt;ALA09374.1&lt;/b&gt;&lt;br&gt;thioesterase&lt;br&gt;Location: 92804 - 92169&lt;br&gt;&lt;br&gt;&lt;b&gt;BlastP hit with SSMG_05935&lt;/b&gt;&lt;br&gt;Percentage identity: 57&lt;br&gt;Percentage coverage: 79&lt;br&gt;BLAST bit score: 233&lt;br&gt;E-value: 3.7e-61&lt;br&gt;&lt;br&gt;&lt;b&gt;BlastP hit with SSMG_05954&lt;/b&gt;&lt;br&gt;Percentage identity: 52&lt;br&gt;Percentage coverage: 76&lt;br&gt;BLAST bit score: 194&lt;br&gt;E-value: 1.9e-49" points="112,85 116,80 116,90 112,85 " style="stroke-width:1; stroke:black; fill:#15d826; " id="dummy-22_h22_10_10" class="clusterblast-orf"  />
</g>
<g id="a22_0011"  >
<polygon locus_tag="ALA09373.1" description="&lt;b&gt;ALA09373.1&lt;/b&gt;&lt;br&gt;drug resistance transporter EmrB/QacA&lt;br&gt;Location: 91712 - 89979" points="120,85 125,80 132,80 132,90 125,90 120,85 " style="stroke-width:1; stroke:black; fill:white; " id="dummy-22_h22_10_11" class="clusterblast-orf"  />
</g>
<g id="a22_0012"  >
<polygon locus_tag="ALA09372.1" description="&lt;b&gt;ALA09372.1&lt;/b&gt;&lt;br&gt;transcriptional regulator&lt;br&gt;Location: 89897 - 89289" points="133,90 137,85 133,80 133,90 " style="stroke-width:1; stroke:black; fill:white; " id="dummy-22_h22_10_12" class="clusterblast-orf"  />
</g>
<g id="a22_0013"  >
<polygon locus_tag="ALA09371.1" description="&lt;b&gt;ALA09371.1&lt;/b&gt;&lt;br&gt;type I modular PKS&lt;br&gt;Location: 88672 - 67391&lt;br&gt;&lt;br&gt;&lt;b&gt;BlastP hit with SSMG_05921&lt;/b&gt;&lt;br&gt;Percentage identity: 50&lt;br&gt;Percentage coverage: 103&lt;br&gt;BLAST bit score: 2934&lt;br&gt;E-value: 0.0&lt;br&gt;&lt;br&gt;&lt;b&gt;BlastP hit with SSMG_05923&lt;/b&gt;&lt;br&gt;Percentage identity: 53&lt;br&gt;Percentage coverage: 104&lt;br&gt;BLAST bit score: 1586&lt;br&gt;E-value: 0.0&lt;br&gt;&lt;br&gt;&lt;b&gt;BlastP hit with SSMG_05929&lt;/b&gt;&lt;br&gt;Percentage identity: 52&lt;br&gt;Percentage coverage: 56&lt;br&gt;BLAST bit score: 1532&lt;br&gt;E-value: 0.0&lt;br&gt;&lt;br&gt;&lt;b&gt;BlastP hit with SSMG_05938&lt;/b&gt;&lt;br&gt;Percentage identity: 54&lt;br&gt;Percentage coverage: 102&lt;br&gt;BLAST bit score: 1686&lt;br&gt;E-value: 0.0&lt;br&gt;&lt;br&gt;&lt;b&gt;BlastP hit with SSMG_05939&lt;/b&gt;&lt;br&gt;Percentage identity: 53&lt;br&gt;Percentage coverage: 103&lt;br&gt;BLAST bit score: 4803&lt;br&gt;E-value: 0.0" points="142,85 147,80 295,80 295,90 147,90 142,85 " style="stroke-width:1; stroke:black; fill:#15bfd8; " id="dummy-22_h22_10_13" class="clusterblast-orf"  />
</g>
<g id="a22_0014"  >
<polygon locus_tag="ALA09370.1" description="&lt;b&gt;ALA09370.1&lt;/b&gt;&lt;br&gt;cytochrome P450&lt;br&gt;Location: 67021 - 65834&lt;br&gt;&lt;br&gt;&lt;b&gt;BlastP hit with SSMG_05940&lt;/b&gt;&lt;br&gt;Percentage identity: 59&lt;br&gt;Percentage coverage: 100&lt;br&gt;BLAST bit score: 472&lt;br&gt;E-value: 5.5e-133" points="298,85 303,80 307,80 307,90 303,90 298,85 " style="stroke-width:1; stroke:black; fill:#d815ae; " id="dummy-22_h22_10_14" class="clusterblast-orf"  />
</g>
<g id="a22_0015"  >
<polygon locus_tag="ALA09369.1" description="&lt;b&gt;ALA09369.1&lt;/b&gt;&lt;br&gt;glutamate 2,3- aminomutase&lt;br&gt;Location: 65476 - 64130" points="309,90 314,90 319,85 314,80 309,80 309,90 " style="stroke-width:1; stroke:black; fill:white; " id="dummy-22_h22_10_15" class="clusterblast-orf"  />
</g>
<g id="a22_0016"  >
<polygon locus_tag="ALA09368.1" description="&lt;b&gt;ALA09368.1&lt;/b&gt;&lt;br&gt;aminotransferase&lt;br&gt;Location: 64101 - 62845" points="319,90 323,90 328,85 323,80 319,80 319,90 " style="stroke-width:1; stroke:black; fill:white; " id="dummy-22_h22_10_16" class="clusterblast-orf"  />
</g>
<g id="a22_0017"  >
<polygon locus_tag="ALA09367.1" description="&lt;b&gt;ALA09367.1&lt;/b&gt;&lt;br&gt;amalonyl CoA-acyl carrier protein transacylase&lt;br&gt;Location: 62776 - 61847&lt;br&gt;&lt;br&gt;&lt;b&gt;BlastP hit with SSMG_05947&lt;/b&gt;&lt;br&gt;Percentage identity: 53&lt;br&gt;Percentage coverage: 95&lt;br&gt;BLAST bit score: 335&lt;br&gt;E-value: 1.1e-91" points="329,90 331,90 336,85 331,80 329,80 329,90 " style="stroke-width:1; stroke:black; fill:#3715d8; " id="dummy-22_h22_10_17" class="clusterblast-orf"  />
</g>
<g id="a22_0018"  >
<polygon locus_tag="ALA09366.1" description="&lt;b&gt;ALA09366.1&lt;/b&gt;&lt;br&gt;AMP-dependent synthetase and ligase&lt;br&gt;Location: 61821 - 60277&lt;br&gt;&lt;br&gt;&lt;b&gt;BlastP hit with SSMG_05945&lt;/b&gt;&lt;br&gt;Percentage identity: 60&lt;br&gt;Percentage coverage: 100&lt;br&gt;BLAST bit score: 583&lt;br&gt;E-value: 3.8e-166" points="336,90 342,90 347,85 342,80 336,80 336,90 " style="stroke-width:1; stroke:black; fill:#d0d815; " id="dummy-22_h22_10_18" class="clusterblast-orf"  />
</g>
<g id="a22_0019"  >
<polygon locus_tag="ALA09365.1" description="&lt;b&gt;ALA09365.1&lt;/b&gt;&lt;br&gt;AMP-dependent synthetase and ligase&lt;br&gt;Location: 60135 - 58576" points="348,85 353,80 359,80 359,90 353,90 348,85 " style="stroke-width:1; stroke:black; fill:white; " id="dummy-22_h22_10_19" class="clusterblast-orf"  />
</g>
<g id="a22_0020"  >
<polygon locus_tag="ALA09364.1" description="&lt;b&gt;ALA09364.1&lt;/b&gt;&lt;br&gt;ACP starter unit biosynthesis protein&lt;br&gt;Location: 58381 - 58127" points="361,90 362,85 361,80 361,90 " style="stroke-width:1; stroke:black; fill:white; " id="dummy-22_h22_10_20" class="clusterblast-orf"  />
</g>
<g id="a22_0021"  >
<polygon locus_tag="ALA09363.1" description="&lt;b&gt;ALA09363.1&lt;/b&gt;&lt;br&gt;aldo/keto reductase family oxidoreductase&lt;br&gt;Location: 58061 - 57294" points="363,85 368,80 368,80 368,90 368,90 363,85 " style="stroke-width:1; stroke:black; fill:white; " id="dummy-22_h22_10_21" class="clusterblast-orf"  />
</g>
<g id="a22_0022"  >
<polygon locus_tag="ALA09362.1" description="&lt;b&gt;ALA09362.1&lt;/b&gt;&lt;br&gt;aldo/keto reductase family oxidoreductase&lt;br&gt;Location: 57294 - 57151" points="368,85 369,80 369,90 368,85 " style="stroke-width:1; stroke:black; fill:white; " id="dummy-22_h22_10_22" class="clusterblast-orf"  />
</g>
<g id="a22_0023"  >
<polygon locus_tag="ALA09361.1" description="&lt;b&gt;ALA09361.1&lt;/b&gt;&lt;br&gt;transcriptional regulator&lt;br&gt;Location: 57075 - 56632" points="370,90 373,85 370,80 370,90 " style="stroke-width:1; stroke:black; fill:white; " id="dummy-22_h22_10_23" class="clusterblast-orf"  />
</g>
<g id="a22_0024"  >
<polygon locus_tag="ALA09360.1" description="&lt;b&gt;ALA09360.1&lt;/b&gt;&lt;br&gt;peptidase&lt;br&gt;Location: 56519 - 55614&lt;br&gt;&lt;br&gt;&lt;b&gt;BlastP hit with SSMG_05948&lt;/b&gt;&lt;br&gt;Percentage identity: 62&lt;br&gt;Percentage coverage: 96&lt;br&gt;BLAST bit score: 392&lt;br&gt;E-value: 7.4e-109" points="374,85 379,80 381,80 381,90 379,90 374,85 " style="stroke-width:1; stroke:black; fill:#d81548; " id="dummy-22_h22_10_24" class="clusterblast-orf"  />
</g>
<g id="a22_0025"  >
<polygon locus_tag="ALA09359.1" description="&lt;b&gt;ALA09359.1&lt;/b&gt;&lt;br&gt;type I modular PKS&lt;br&gt;Location: 55590 - 53029" points="381,85 386,80 399,80 399,90 386,90 381,85 " style="stroke-width:1; stroke:black; fill:white; " id="dummy-22_h22_10_25" class="clusterblast-orf"  />
</g>
<g id="a22_0026"  >
<polygon locus_tag="ALA09358.1" description="&lt;b&gt;ALA09358.1&lt;/b&gt;&lt;br&gt;type I modular PKS&lt;br&gt;Location: 52861 - 48338&lt;br&gt;&lt;br&gt;&lt;b&gt;BlastP hit with SSMG_05921&lt;/b&gt;&lt;br&gt;Percentage identity: 58&lt;br&gt;Percentage coverage: 42&lt;br&gt;BLAST bit score: 1473&lt;br&gt;E-value: 0.0&lt;br&gt;&lt;br&gt;&lt;b&gt;BlastP hit with SSMG_05922&lt;/b&gt;&lt;br&gt;Percentage identity: 50&lt;br&gt;Percentage coverage: 56&lt;br&gt;BLAST bit score: 765&lt;br&gt;E-value: 1.3e-220&lt;br&gt;&lt;br&gt;&lt;b&gt;BlastP hit with SSMG_05923&lt;/b&gt;&lt;br&gt;Percentage identity: 59&lt;br&gt;Percentage coverage: 58&lt;br&gt;BLAST bit score: 1066&lt;br&gt;E-value: 3.7e-311&lt;br&gt;&lt;br&gt;&lt;b&gt;BlastP hit with SSMG_05938&lt;/b&gt;&lt;br&gt;Percentage identity: 57&lt;br&gt;Percentage coverage: 56&lt;br&gt;BLAST bit score: 1025&lt;br&gt;E-value: 1e-298" points="401,85 406,80 433,80 433,90 406,90 401,85 " style="stroke-width:1; stroke:black; fill:#15bfd8; " id="dummy-22_h22_10_26" class="clusterblast-orf"  />
</g>
<g id="a22_0027"  >
<polygon locus_tag="ALA09357.1" description="&lt;b&gt;ALA09357.1&lt;/b&gt;&lt;br&gt;type I modular PKS&lt;br&gt;Location: 48341 - 39402&lt;br&gt;&lt;br&gt;&lt;b&gt;BlastP hit with SSMG_05921&lt;/b&gt;&lt;br&gt;Percentage identity: 56&lt;br&gt;Percentage coverage: 80&lt;br&gt;BLAST bit score: 2755&lt;br&gt;E-value: 0.0&lt;br&gt;&lt;br&gt;&lt;b&gt;BlastP hit with SSMG_05923&lt;/b&gt;&lt;br&gt;Percentage identity: 57&lt;br&gt;Percentage coverage: 61&lt;br&gt;BLAST bit score: 1060&lt;br&gt;E-value: 2.7e-309&lt;br&gt;&lt;br&gt;&lt;b&gt;BlastP hit with SSMG_05929&lt;/b&gt;&lt;br&gt;Percentage identity: 50&lt;br&gt;Percentage coverage: 89&lt;br&gt;BLAST bit score: 2265&lt;br&gt;E-value: 0.0&lt;br&gt;&lt;br&gt;&lt;b&gt;BlastP hit with SSMG_05938&lt;/b&gt;&lt;br&gt;Percentage identity: 51&lt;br&gt;Percentage coverage: 99&lt;br&gt;BLAST bit score: 1508&lt;br&gt;E-value: 0.0&lt;br&gt;&lt;br&gt;&lt;b&gt;BlastP hit with SSMG_05939&lt;/b&gt;&lt;br&gt;Percentage identity: 54&lt;br&gt;Percentage coverage: 53&lt;br&gt;BLAST bit score: 2594&lt;br&gt;E-value: 0.0" points="433,85 438,80 498,80 498,90 438,90 433,85 " style="stroke-width:1; stroke:black; fill:#15bfd8; " id="dummy-22_h22_10_27" class="clusterblast-orf"  />
</g>
<g id="a22_0028"  >
<polygon locus_tag="ALA09356.1" description="&lt;b&gt;ALA09356.1&lt;/b&gt;&lt;br&gt;type I modular PKS&lt;br&gt;Location: 39342 - 34582&lt;br&gt;&lt;br&gt;&lt;b&gt;BlastP hit with SSMG_05922&lt;/b&gt;&lt;br&gt;Percentage identity: 56&lt;br&gt;Percentage coverage: 102&lt;br&gt;BLAST bit score: 1574&lt;br&gt;E-value: 0.0&lt;br&gt;&lt;br&gt;&lt;b&gt;BlastP hit with SSMG_05938&lt;/b&gt;&lt;br&gt;Percentage identity: 49&lt;br&gt;Percentage coverage: 51&lt;br&gt;BLAST bit score: 733&lt;br&gt;E-value: 6e-211" points="498,85 503,80 533,80 533,90 503,90 498,85 " style="stroke-width:1; stroke:black; fill:#15bfd8; " id="dummy-22_h22_10_28" class="clusterblast-orf"  />
</g>
<g id="a22_0029"  >
<polygon locus_tag="ALA09355.1" description="&lt;b&gt;ALA09355.1&lt;/b&gt;&lt;br&gt;type I modular PKS&lt;br&gt;Location: 34541 - 25497&lt;br&gt;&lt;br&gt;&lt;b&gt;BlastP hit with SSMG_05922&lt;/b&gt;&lt;br&gt;Percentage identity: 49&lt;br&gt;Percentage coverage: 101&lt;br&gt;BLAST bit score: 1285&lt;br&gt;E-value: 0.0&lt;br&gt;&lt;br&gt;&lt;b&gt;BlastP hit with SSMG_05938&lt;/b&gt;&lt;br&gt;Percentage identity: 55&lt;br&gt;Percentage coverage: 51&lt;br&gt;BLAST bit score: 894&lt;br&gt;E-value: 2.7e-259" points="533,85 538,80 598,80 598,90 538,90 533,85 " style="stroke-width:1; stroke:black; fill:#15bfd8; " id="dummy-22_h22_10_29" class="clusterblast-orf"  />
</g>
<g id="a22_0030"  >
<polygon locus_tag="ALA09354.1" description="&lt;b&gt;ALA09354.1&lt;/b&gt;&lt;br&gt;type I modular PKS&lt;br&gt;Location: 25313 - 20001&lt;br&gt;&lt;br&gt;&lt;b&gt;BlastP hit with SSMG_05921&lt;/b&gt;&lt;br&gt;Percentage identity: 51&lt;br&gt;Percentage coverage: 48&lt;br&gt;BLAST bit score: 1463&lt;br&gt;E-value: 0.0&lt;br&gt;&lt;br&gt;&lt;b&gt;BlastP hit with SSMG_05922&lt;/b&gt;&lt;br&gt;Percentage identity: 48&lt;br&gt;Percentage coverage: 63&lt;br&gt;BLAST bit score: 768&lt;br&gt;E-value: 1.9e-221&lt;br&gt;&lt;br&gt;&lt;b&gt;BlastP hit with SSMG_05923&lt;/b&gt;&lt;br&gt;Percentage identity: 52&lt;br&gt;Percentage coverage: 96&lt;br&gt;BLAST bit score: 1495&lt;br&gt;E-value: 0.0&lt;br&gt;&lt;br&gt;&lt;b&gt;BlastP hit with SSMG_05929&lt;/b&gt;&lt;br&gt;Percentage identity: 50&lt;br&gt;Percentage coverage: 53&lt;br&gt;BLAST bit score: 1395&lt;br&gt;E-value: 0.0&lt;br&gt;&lt;br&gt;&lt;b&gt;BlastP hit with SSMG_05938&lt;/b&gt;&lt;br&gt;Percentage identity: 51&lt;br&gt;Percentage coverage: 94&lt;br&gt;BLAST bit score: 1452&lt;br&gt;E-value: 0.0" points="600,85 605,80 638,80 638,90 605,90 600,85 " style="stroke-width:1; stroke:black; fill:#15bfd8; " id="dummy-22_h22_10_30" class="clusterblast-orf"  />
</g>
<g id="a22_0031"  >
<polygon locus_tag="ALA09353.1" description="&lt;b&gt;ALA09353.1&lt;/b&gt;&lt;br&gt;hypothetical protein&lt;br&gt;Location: 19654 - 18407" points="640,85 645,80 650,80 650,90 645,90 640,85 " style="stroke-width:1; stroke:black; fill:white; " id="dummy-22_h22_10_31" class="clusterblast-orf"  />
</g>
<g id="a22_0032"  >
<polygon locus_tag="ALA09352.1" description="&lt;b&gt;ALA09352.1&lt;/b&gt;&lt;br&gt;hypothetical protein&lt;br&gt;Location: 18082 - 17864" points="652,85 653,80 653,90 652,85 " style="stroke-width:1; stroke:black; fill:white; " id="dummy-22_h22_10_32" class="clusterblast-orf"  />
</g>
<g id="a22_0033"  >
<polygon locus_tag="ALA09351.1" description="&lt;b&gt;ALA09351.1&lt;/b&gt;&lt;br&gt;hypothetical protein&lt;br&gt;Location: 17787 - 16699" points="654,85 659,80 662,80 662,90 659,90 654,85 " style="stroke-width:1; stroke:black; fill:white; " id="dummy-22_h22_10_33" class="clusterblast-orf"  />
</g>
<g id="a22_0034"  >
<polygon locus_tag="ALA09350.1" description="&lt;b&gt;ALA09350.1&lt;/b&gt;&lt;br&gt;hypothetical protein&lt;br&gt;Location: 16498 - 15911" points="663,85 668,80 668,80 668,90 668,90 663,85 " style="stroke-width:1; stroke:black; fill:white; " id="dummy-22_h22_10_34" class="clusterblast-orf"  />
</g>
<g id="a22_0035"  >
<polygon locus_tag="ALA09349.1" description="&lt;b&gt;ALA09349.1&lt;/b&gt;&lt;br&gt;hypothetical protein&lt;br&gt;Location: 15792 - 14779" points="668,85 673,80 676,80 676,90 673,90 668,85 " style="stroke-width:1; stroke:black; fill:white; " id="dummy-22_h22_10_35" class="clusterblast-orf"  />
</g>
<g id="a22_0036"  >
<polygon locus_tag="ALA09348.1" description="&lt;b&gt;ALA09348.1&lt;/b&gt;&lt;br&gt;hypothetical protein&lt;br&gt;Location: 14782 - 14510" points="676,85 678,80 678,90 676,85 " style="stroke-width:1; stroke:black; fill:white; " id="dummy-22_h22_10_36" class="clusterblast-orf"  />
</g>
<g id="a22_0037"  >
<polygon locus_tag="ALA09347.1" description="&lt;b&gt;ALA09347.1&lt;/b&gt;&lt;br&gt;hypothetical protein&lt;br&gt;Location: 14393 - 13704" points="679,90 683,85 679,80 679,90 " style="stroke-width:1; stroke:black; fill:white; " id="dummy-22_h22_10_37" class="clusterblast-orf"  />
</g>
<g id="a22_0038"  >
<polygon locus_tag="ALA09346.1" description="&lt;b&gt;ALA09346.1&lt;/b&gt;&lt;br&gt;hypothetical protein&lt;br&gt;Location: 13499 - 8034" points="685,90 719,90 724,85 719,80 685,80 685,90 " style="stroke-width:1; stroke:black; fill:white; " id="dummy-22_h22_10_38" class="clusterblast-orf"  />
</g>
<g id="a22_0039"  >
<polygon locus_tag="ALA09345.1" description="&lt;b&gt;ALA09345.1&lt;/b&gt;&lt;br&gt;hypothetical protein&lt;br&gt;Location: 7495 - 5843" points="728,85 733,80 740,80 740,90 733,90 728,85 " style="stroke-width:1; stroke:black; fill:white; " id="dummy-22_h22_10_39" class="clusterblast-orf"  />
</g>
<g id="a22_0040"  >
<polygon locus_tag="ALA09344.1" description="&lt;b&gt;ALA09344.1&lt;/b&gt;&lt;br&gt;hypothetical protein&lt;br&gt;Location: 5670 - 4906" points="742,85 747,80 747,80 747,90 747,90 742,85 " style="stroke-width:1; stroke:black; fill:white; " id="dummy-22_h22_10_40" class="clusterblast-orf"  />
</g>
<g id="a22_0041"  >
<polygon locus_tag="ALA09343.1" description="&lt;b&gt;ALA09343.1&lt;/b&gt;&lt;br&gt;hypothetical protein&lt;br&gt;Location: 4882 - 3854" points="747,85 752,80 755,80 755,90 752,90 747,85 " style="stroke-width:1; stroke:black; fill:white; " id="dummy-22_h22_10_41" class="clusterblast-orf"  />
</g>
<g id="a22_0042"  >
<polygon locus_tag="ALA09342.1" description="&lt;b&gt;ALA09342.1&lt;/b&gt;&lt;br&gt;hypothetical protein&lt;br&gt;Location: 3823 - 3452" points="755,85 758,80 758,90 755,85 " style="stroke-width:1; stroke:black; fill:white; " id="dummy-22_h22_10_42" class="clusterblast-orf"  />
</g>
<g id="a22_0043"  >
<polygon locus_tag="ALA09341.1" description="&lt;b&gt;ALA09341.1&lt;/b&gt;&lt;br&gt;hypothetical protein&lt;br&gt;Location: 3470 - 2643" points="757,85 762,80 763,80 763,90 762,90 757,85 " style="stroke-width:1; stroke:black; fill:white; " id="dummy-22_h22_10_43" class="clusterblast-orf"  />
</g>
<g id="a22_0044"  >
<polygon locus_tag="ALA09340.1" description="&lt;b&gt;ALA09340.1&lt;/b&gt;&lt;br&gt;hypothetical protein&lt;br&gt;Location: 2462 - 1515" points="765,90 767,90 772,85 767,80 765,80 765,90 " style="stroke-width:1; stroke:black; fill:white; " id="dummy-22_h22_10_44" class="clusterblast-orf"  />
</g>
<g id="a22_0045"  >
<polygon locus_tag="ALA09339.1" description="&lt;b&gt;ALA09339.1&lt;/b&gt;&lt;br&gt;hypothetical protein&lt;br&gt;Location: 1432 - 419" points="772,90 775,90 780,85 775,80 772,80 772,90 " style="stroke-width:1; stroke:black; fill:white; " id="dummy-22_h22_10_45" class="clusterblast-orf"  />
</g>
</svg>
