<svg version="1.1" xmlns="http://www.w3.org/2000/svg" height="230" width="800" xmlns:xlink="http://www.w3.org/1999/xlink" preserveAspectRatio="none" x="0" y="0" viewBox="0 0 800 230"  >
<g label="Query sequence" class="clusterblast-cluster"  >
<text class="clusterblast-acc" y="20" x="5"  >
Query sequence</text>
<line x1="10" x2="778.0" y2="35" style="stroke-width:1; stroke:grey; " y1="35"  />
<polygon locus_tag="SSMG_00995" description="&lt;b&gt;SSMG_00995&lt;/b&gt;&lt;br&gt;predicted protein&lt;br&gt;Location: 1052056 - 1052755" points="324,40 328,35 324,30 324,40 " style="stroke-width:1; stroke:black; fill:white; " id="dummy-3_q0_0_all" class="clusterblast-orf"  />
<polygon locus_tag="SSMG_00996" description="&lt;b&gt;SSMG_00996&lt;/b&gt;&lt;br&gt;cytochrome P450 hydroxylase&lt;br&gt;Location: 1052894 - 1054115" points="329,40 332,40 337,35 332,30 329,30 329,40 " style="stroke-width:1; stroke:black; fill:#d81515; " id="dummy-3_q1_0_all" class="clusterblast-orf"  />
<polygon locus_tag="SSMG_00997" description="&lt;b&gt;SSMG_00997&lt;/b&gt;&lt;br&gt;transposase IS116/IS110/IS902 family protein&lt;br&gt;Location: 1054138 - 1055371" points="337,35 342,30 345,30 345,40 342,40 337,35 " style="stroke-width:1; stroke:black; fill:white; " id="dummy-3_q2_0_all" class="clusterblast-orf"  />
<polygon locus_tag="SSMG_00998" description="&lt;b&gt;SSMG_00998&lt;/b&gt;&lt;br&gt;predicted protein&lt;br&gt;Location: 1055392 - 1055722" points="345,40 347,35 345,30 345,40 " style="stroke-width:1; stroke:black; fill:white; " id="dummy-3_q3_0_all" class="clusterblast-orf"  />
<polygon locus_tag="SSMG_00999" description="&lt;b&gt;SSMG_00999&lt;/b&gt;&lt;br&gt;predicted protein&lt;br&gt;Location: 1055732 - 1055927" points="347,40 349,35 347,30 347,40 " style="stroke-width:1; stroke:black; fill:#15d863; " id="dummy-3_q4_0_all" class="clusterblast-orf"  />
<polygon locus_tag="SSMG_01000" description="&lt;b&gt;SSMG_01000&lt;/b&gt;&lt;br&gt;transcriptional regulator&lt;br&gt;Location: 1055976 - 1056777" points="349,40 349,40 354,35 349,30 349,30 349,40 " style="stroke-width:1; stroke:black; fill:white; " id="dummy-3_q5_0_all" class="clusterblast-orf"  />
<polygon locus_tag="SSMG_01001" description="&lt;b&gt;SSMG_01001&lt;/b&gt;&lt;br&gt;methyltransferase type 11&lt;br&gt;Location: 1056742 - 1057531" points="354,35 359,30 359,30 359,40 359,40 354,35 " style="stroke-width:1; stroke:black; fill:white; " id="dummy-3_q6_0_all" class="clusterblast-orf"  />
<polygon locus_tag="SSMG_01002" description="&lt;b&gt;SSMG_01002&lt;/b&gt;&lt;br&gt;predicted protein&lt;br&gt;Location: 1057505 - 1057736" points="358,35 360,30 360,40 358,35 " style="stroke-width:1; stroke:black; fill:white; " id="dummy-3_q7_0_all" class="clusterblast-orf"  />
<polygon locus_tag="SSMG_01003" description="&lt;b&gt;SSMG_01003&lt;/b&gt;&lt;br&gt;glutaredoxin&lt;br&gt;Location: 1057732 - 1057972" points="360,35 361,30 361,40 360,35 " style="stroke-width:1; stroke:black; fill:white; " id="dummy-3_q8_0_all" class="clusterblast-orf"  />
<polygon locus_tag="SSMG_01004" description="&lt;b&gt;SSMG_01004&lt;/b&gt;&lt;br&gt;predicted protein&lt;br&gt;Location: 1057968 - 1060089" points="361,35 366,30 375,30 375,40 366,40 361,35 " style="stroke-width:1; stroke:black; fill:#1563d8; " id="dummy-3_q9_0_all" class="clusterblast-orf"  />
<polygon locus_tag="SSMG_01005" description="&lt;b&gt;SSMG_01005&lt;/b&gt;&lt;br&gt;predicted protein&lt;br&gt;Location: 1060085 - 1060751" points="375,35 379,30 379,40 375,35 " style="stroke-width:1; stroke:black; fill:white; " id="dummy-3_q10_0_all" class="clusterblast-orf"  />
<polygon locus_tag="SSMG_01006" description="&lt;b&gt;SSMG_01006&lt;/b&gt;&lt;br&gt;predicted protein&lt;br&gt;Location: 1060669 - 1061392" points="378,35 383,30 383,30 383,40 383,40 378,35 " style="stroke-width:1; stroke:black; fill:#b115d8; " id="dummy-3_q11_0_all" class="clusterblast-orf"  />
<polygon locus_tag="SSMG_01007" description="&lt;b&gt;SSMG_01007&lt;/b&gt;&lt;br&gt;terpene synthase&lt;br&gt;Location: 1061718 - 1063962" points="385,35 390,30 399,30 399,40 390,40 385,35 " style="stroke-width:1; stroke:black; fill:#b1d815; " id="dummy-3_q12_0_all" class="clusterblast-orf"  />
<polygon locus_tag="SSMG_01008" description="&lt;b&gt;SSMG_01008&lt;/b&gt;&lt;br&gt;conserved hypothetical protein&lt;br&gt;Location: 1064394 - 1065990" points="402,40 407,40 412,35 407,30 402,30 402,40 " style="stroke-width:1; stroke:black; fill:white; " id="dummy-3_q13_0_all" class="clusterblast-orf"  />
<polygon locus_tag="SSMG_01009" description="&lt;b&gt;SSMG_01009&lt;/b&gt;&lt;br&gt;hydrolase&lt;br&gt;Location: 1066040 - 1068095" points="412,35 417,30 425,30 425,40 417,40 412,35 " style="stroke-width:1; stroke:black; fill:white; " id="dummy-3_q14_0_all" class="clusterblast-orf"  />
<polygon locus_tag="SSMG_01010" description="&lt;b&gt;SSMG_01010&lt;/b&gt;&lt;br&gt;sugar transport integral membrane protein&lt;br&gt;Location: 1068101 - 1068971" points="425,35 430,30 431,30 431,40 430,40 425,35 " style="stroke-width:1; stroke:black; fill:white; " id="dummy-3_q15_0_all" class="clusterblast-orf"  />
<polygon locus_tag="SSMG_01011" description="&lt;b&gt;SSMG_01011&lt;/b&gt;&lt;br&gt;sugar transport integral membrane protein&lt;br&gt;Location: 1068972 - 1069923" points="431,35 436,30 437,30 437,40 436,40 431,35 " style="stroke-width:1; stroke:black; fill:white; " id="dummy-3_q16_0_all" class="clusterblast-orf"  />
<polygon locus_tag="SSMG_01012" description="&lt;b&gt;SSMG_01012&lt;/b&gt;&lt;br&gt;sugar transport sugar binding protein&lt;br&gt;Location: 1069919 - 1071305" points="437,35 442,30 446,30 446,40 442,40 437,35 " style="stroke-width:1; stroke:black; fill:white; " id="dummy-3_q17_0_all" class="clusterblast-orf"  />
<polygon locus_tag="SSMG_01013" description="&lt;b&gt;SSMG_01013&lt;/b&gt;&lt;br&gt;catabolite control protein A&lt;br&gt;Location: 1071441 - 1072476" points="447,40 448,40 453,35 448,30 447,30 447,40 " style="stroke-width:1; stroke:black; fill:white; " id="dummy-3_q18_0_all" class="clusterblast-orf"  />
<polygon locus_tag="SSMG_01014" description="&lt;b&gt;SSMG_01014&lt;/b&gt;&lt;br&gt;predicted protein&lt;br&gt;Location: 1072468 - 1072789" points="453,40 455,35 453,30 453,40 " style="stroke-width:1; stroke:black; fill:white; " id="dummy-3_q19_0_all" class="clusterblast-orf"  />
</g>
<g label="BGC0000115" description="BGC0000115_c1: nystatin A1 (9% of genes show similarity), Polyketide:Modular type I + Saccharide:Hybrid/tailoring" class="clusterblast-cluster"  >
<text class="clusterblast-acc" y="70" x="5"  >
<a xlink:href="https://mibig.secondarymetabolites.org/go/BGC0000115/1" target="_blank">BGC0000115</a>:                                                                      nystatin A1 (9% of genes show similarity), Polyketide:Modular type I + Saccharide:Hybrid/tailoring</text>
<line x1="10" x2="778.0" y2="85" style="stroke-width:1; stroke:grey; " y1="85"  />
</g>
<g id="a3_000"  >
<polygon locus_tag="AAF71783.1" description="&lt;b&gt;AAF71783.1&lt;/b&gt;&lt;br&gt;ORF2&lt;br&gt;Location: 123468 - 122404" points="0,90 1,90 6,85 1,80 0,80 0,90 " style="stroke-width:1; stroke:black; fill:white; " id="dummy-3_h3_9_0" class="clusterblast-orf"  />
</g>
<g id="a3_001"  >
<polygon locus_tag="AAF71782.1" description="&lt;b&gt;AAF71782.1&lt;/b&gt;&lt;br&gt;ORF3&lt;br&gt;Location: 122350 - 121589" points="7,85 11,80 11,90 7,85 " style="stroke-width:1; stroke:black; fill:white; " id="dummy-3_h3_9_1" class="clusterblast-orf"  />
</g>
<g id="a3_002"  >
<polygon locus_tag="AAF71781.1" description="&lt;b&gt;AAF71781.1&lt;/b&gt;&lt;br&gt;ORF4&lt;br&gt;Location: 120900 - 120268" points="16,85 20,80 20,90 16,85 " style="stroke-width:1; stroke:black; fill:white; " id="dummy-3_h3_9_2" class="clusterblast-orf"  />
</g>
<g id="a3_003"  >
<polygon locus_tag="AAF71780.1" description="&lt;b&gt;AAF71780.1&lt;/b&gt;&lt;br&gt;nysRIII&lt;br&gt;Location: 119816 - 117033" points="23,85 28,80 40,80 40,90 28,90 23,85 " style="stroke-width:1; stroke:black; fill:white; " id="dummy-3_h3_9_3" class="clusterblast-orf"  />
</g>
<g id="a3_004"  >
<polygon locus_tag="AAF71779.1" description="&lt;b&gt;AAF71779.1&lt;/b&gt;&lt;br&gt;nysRII&lt;br&gt;Location: 117043 - 114182" points="40,85 45,80 58,80 58,90 45,90 40,85 " style="stroke-width:1; stroke:black; fill:white; " id="dummy-3_h3_9_4" class="clusterblast-orf"  />
</g>
<g id="a3_005"  >
<polygon locus_tag="AAF71778.1" description="&lt;b&gt;AAF71778.1&lt;/b&gt;&lt;br&gt;nysRI&lt;br&gt;Location: 114158 - 111258" points="58,85 63,80 77,80 77,90 63,90 58,85 " style="stroke-width:1; stroke:black; fill:white; " id="dummy-3_h3_9_5" class="clusterblast-orf"  />
</g>
<g id="a3_006"  >
<polygon locus_tag="AAF71777.1" description="&lt;b&gt;AAF71777.1&lt;/b&gt;&lt;br&gt;nysE&lt;br&gt;Location: 110868 - 110113" points="79,85 84,80 84,80 84,90 84,90 79,85 " style="stroke-width:1; stroke:black; fill:white; " id="dummy-3_h3_9_6" class="clusterblast-orf"  />
</g>
<g id="a3_007"  >
<polygon locus_tag="AAF71776.1" description="&lt;b&gt;AAF71776.1&lt;/b&gt;&lt;br&gt;nysC&lt;br&gt;Location: 109693 - 76403" points="87,85 92,80 297,80 297,90 92,90 87,85 " style="stroke-width:1; stroke:black; fill:white; " id="dummy-3_h3_9_7" class="clusterblast-orf"  />
</g>
<g id="a3_008"  >
<polygon locus_tag="AAF71775.1" description="&lt;b&gt;AAF71775.1&lt;/b&gt;&lt;br&gt;nysB&lt;br&gt;Location: 76383 - 66805" points="297,85 302,80 358,80 358,90 302,90 297,85 " style="stroke-width:1; stroke:black; fill:white; " id="dummy-3_h3_9_8" class="clusterblast-orf"  />
</g>
<g id="a3_009"  >
<polygon locus_tag="AAF71774.1" description="&lt;b&gt;AAF71774.1&lt;/b&gt;&lt;br&gt;nysA&lt;br&gt;Location: 66759 - 62659" points="358,85 363,80 384,80 384,90 363,90 358,85 " style="stroke-width:1; stroke:black; fill:white; " id="dummy-3_h3_9_9" class="clusterblast-orf"  />
</g>
<g id="a3_0010"  >
<polygon locus_tag="AAF71773.1" description="&lt;b&gt;AAF71773.1&lt;/b&gt;&lt;br&gt;nysDI&lt;br&gt;Location: 62429 - 60909" points="385,90 390,90 395,85 390,80 385,80 385,90 " style="stroke-width:1; stroke:black; fill:white; " id="dummy-3_h3_9_10" class="clusterblast-orf"  />
</g>
<g id="a3_0011"  >
<polygon locus_tag="AAF71772.1" description="&lt;b&gt;AAF71772.1&lt;/b&gt;&lt;br&gt;nysDII&lt;br&gt;Location: 60888 - 59830" points="395,90 397,90 402,85 397,80 395,80 395,90 " style="stroke-width:1; stroke:black; fill:white; " id="dummy-3_h3_9_11" class="clusterblast-orf"  />
</g>
<g id="a3_0012"  >
<polygon locus_tag="AAF71771.1" description="&lt;b&gt;AAF71771.1&lt;/b&gt;&lt;br&gt;nysN&lt;br&gt;Location: 59833 - 58637&lt;br&gt;&lt;br&gt;&lt;b&gt;BlastP hit with SSMG_00996&lt;/b&gt;&lt;br&gt;Percentage identity: 49&lt;br&gt;Percentage coverage: 97&lt;br&gt;BLAST bit score: 348&lt;br&gt;E-value: 1.6e-95" points="402,90 404,90 409,85 404,80 402,80 402,90 " style="stroke-width:1; stroke:black; fill:#d81515; " id="dummy-3_h3_9_12" class="clusterblast-orf"  />
</g>
<g id="a3_0013"  >
<polygon locus_tag="AAF71770.1" description="&lt;b&gt;AAF71770.1&lt;/b&gt;&lt;br&gt;nysM&lt;br&gt;Location: 58572 - 58378&lt;br&gt;&lt;br&gt;&lt;b&gt;BlastP hit with SSMG_00999&lt;/b&gt;&lt;br&gt;Percentage identity: 53&lt;br&gt;Percentage coverage: 97&lt;br&gt;BLAST bit score: 64&lt;br&gt;E-value: 9.6e-11" points="410,90 411,85 410,80 410,90 " style="stroke-width:1; stroke:black; fill:#15d863; " id="dummy-3_h3_9_13" class="clusterblast-orf"  />
</g>
<g id="a3_0014"  >
<polygon locus_tag="AAF71769.1" description="&lt;b&gt;AAF71769.1&lt;/b&gt;&lt;br&gt;nysL&lt;br&gt;Location: 58279 - 57095" points="411,85 416,80 419,80 419,90 416,90 411,85 " style="stroke-width:1; stroke:black; fill:white; " id="dummy-3_h3_9_14" class="clusterblast-orf"  />
</g>
<g id="a3_0015"  >
<polygon locus_tag="AAF71768.1" description="&lt;b&gt;AAF71768.1&lt;/b&gt;&lt;br&gt;nysK&lt;br&gt;Location: 56947 - 50747" points="420,85 425,80 459,80 459,90 425,90 420,85 " style="stroke-width:1; stroke:black; fill:white; " id="dummy-3_h3_9_15" class="clusterblast-orf"  />
</g>
<g id="a3_0016"  >
<polygon locus_tag="AAF71767.1" description="&lt;b&gt;AAF71767.1&lt;/b&gt;&lt;br&gt;nysJ&lt;br&gt;Location: 50691 - 34384" points="459,85 464,80 562,80 562,90 464,90 459,85 " style="stroke-width:1; stroke:black; fill:white; " id="dummy-3_h3_9_16" class="clusterblast-orf"  />
</g>
<g id="a3_0017"  >
<polygon locus_tag="AAF71766.1" description="&lt;b&gt;AAF71766.1&lt;/b&gt;&lt;br&gt;nysI&lt;br&gt;Location: 34363 - 5930" points="563,85 568,80 742,80 742,90 568,90 563,85 " style="stroke-width:1; stroke:black; fill:white; " id="dummy-3_h3_9_17" class="clusterblast-orf"  />
</g>
<g id="a3_0018"  >
<polygon locus_tag="AAF71765.1" description="&lt;b&gt;AAF71765.1&lt;/b&gt;&lt;br&gt;nysDIII&lt;br&gt;Location: 5748 - 4714" points="743,85 748,80 750,80 750,90 748,90 743,85 " style="stroke-width:1; stroke:black; fill:white; " id="dummy-3_h3_9_18" class="clusterblast-orf"  />
</g>
<g id="a3_0019"  >
<polygon locus_tag="AAF71764.1" description="&lt;b&gt;AAF71764.1&lt;/b&gt;&lt;br&gt;nysH&lt;br&gt;Location: 4416 - 2662" points="752,90 758,90 763,85 758,80 752,80 752,90 " style="stroke-width:1; stroke:black; fill:white; " id="dummy-3_h3_9_19" class="clusterblast-orf"  />
</g>
<g id="a3_0020"  >
<polygon locus_tag="AAF71763.1" description="&lt;b&gt;AAF71763.1&lt;/b&gt;&lt;br&gt;nysG&lt;br&gt;Location: 2684 - 867" points="763,90 769,90 774,85 769,80 763,80 763,90 " style="stroke-width:1; stroke:black; fill:white; " id="dummy-3_h3_9_20" class="clusterblast-orf"  />
</g>
<g id="a3_0021"  >
<polygon locus_tag="AAF71762.1" description="&lt;b&gt;AAF71762.1&lt;/b&gt;&lt;br&gt;nysF&lt;br&gt;Location: 783 - 46" points="775,90 775,90 780,85 775,80 775,80 775,90 " style="stroke-width:1; stroke:black; fill:white; " id="dummy-3_h3_9_21" class="clusterblast-orf"  />
</g>
</svg>
