<svg version="1.1" xmlns="http://www.w3.org/2000/svg" height="230" width="800" xmlns:xlink="http://www.w3.org/1999/xlink" preserveAspectRatio="none" x="0" y="0" viewBox="0 0 800 230"  >
<g label="Query sequence" class="clusterblast-cluster"  >
<text class="clusterblast-acc" y="20" x="5"  >
Query sequence</text>
<line x1="10" x2="778.0" y2="35" style="stroke-width:1; stroke:grey; " y1="35"  />
<polygon locus_tag="SSMG_03375" description="&lt;b&gt;SSMG_03375&lt;/b&gt;&lt;br&gt;predicted protein&lt;br&gt;Location: 3680898 - 3681750" points="204,40 207,40 212,35 207,30 204,30 204,40 " style="stroke-width:1; stroke:black; fill:white; " id="dummy-13_q0_0_all" class="clusterblast-orf"  />
<polygon locus_tag="SSMG_03376" description="&lt;b&gt;SSMG_03376&lt;/b&gt;&lt;br&gt;predicted protein&lt;br&gt;Location: 3681823 - 3683095" points="212,35 217,30 223,30 223,40 217,40 212,35 " style="stroke-width:1; stroke:black; fill:white; " id="dummy-13_q1_0_all" class="clusterblast-orf"  />
<polygon locus_tag="SSMG_03377" description="&lt;b&gt;SSMG_03377&lt;/b&gt;&lt;br&gt;ECF sub family sigma-70 factor&lt;br&gt;Location: 3683266 - 3683791" points="225,40 229,35 225,30 225,40 " style="stroke-width:1; stroke:black; fill:white; " id="dummy-13_q2_0_all" class="clusterblast-orf"  />
<polygon locus_tag="SSMG_03378" description="&lt;b&gt;SSMG_03378&lt;/b&gt;&lt;br&gt;predicted protein&lt;br&gt;Location: 3683787 - 3684474" points="229,40 230,40 235,35 230,30 229,30 229,40 " style="stroke-width:1; stroke:black; fill:white; " id="dummy-13_q3_0_all" class="clusterblast-orf"  />
<polygon locus_tag="SSMG_03379" description="&lt;b&gt;SSMG_03379&lt;/b&gt;&lt;br&gt;predicted protein&lt;br&gt;Location: 3684512 - 3684920" points="236,40 239,35 236,30 236,40 " style="stroke-width:1; stroke:black; fill:white; " id="dummy-13_q4_0_all" class="clusterblast-orf"  />
<polygon locus_tag="SSMG_03380" description="&lt;b&gt;SSMG_03380&lt;/b&gt;&lt;br&gt;metallophosphoesterase&lt;br&gt;Location: 3684916 - 3685855" points="239,40 242,40 247,35 242,30 239,30 239,40 " style="stroke-width:1; stroke:black; fill:white; " id="dummy-13_q5_0_all" class="clusterblast-orf"  />
<polygon locus_tag="SSMG_03381" description="&lt;b&gt;SSMG_03381&lt;/b&gt;&lt;br&gt;predicted protein&lt;br&gt;Location: 3685851 - 3686256" points="247,40 251,35 247,30 247,40 " style="stroke-width:1; stroke:black; fill:white; " id="dummy-13_q6_0_all" class="clusterblast-orf"  />
<polygon locus_tag="SSMG_03382" description="&lt;b&gt;SSMG_03382&lt;/b&gt;&lt;br&gt;transcriptional regulator&lt;br&gt;Location: 3686293 - 3686932" points="251,35 256,30 257,30 257,40 256,40 251,35 " style="stroke-width:1; stroke:black; fill:white; " id="dummy-13_q7_0_all" class="clusterblast-orf"  />
<polygon locus_tag="SSMG_03383" description="&lt;b&gt;SSMG_03383&lt;/b&gt;&lt;br&gt;conserved hypothetical protein&lt;br&gt;Location: 3686936 - 3687500" points="257,35 261,30 261,40 257,35 " style="stroke-width:1; stroke:black; fill:white; " id="dummy-13_q8_0_all" class="clusterblast-orf"  />
<polygon locus_tag="SSMG_03384" description="&lt;b&gt;SSMG_03384&lt;/b&gt;&lt;br&gt;predicted protein&lt;br&gt;Location: 3687873 - 3688647" points="265,35 270,30 271,30 271,40 270,40 265,35 " style="stroke-width:1; stroke:black; fill:white; " id="dummy-13_q9_0_all" class="clusterblast-orf"  />
<polygon locus_tag="SSMG_03385" description="&lt;b&gt;SSMG_03385&lt;/b&gt;&lt;br&gt;predicted protein&lt;br&gt;Location: 3688668 - 3689325" points="272,35 277,30 277,30 277,40 277,40 272,35 " style="stroke-width:1; stroke:black; fill:white; " id="dummy-13_q10_0_all" class="clusterblast-orf"  />
<polygon locus_tag="SSMG_03386" description="&lt;b&gt;SSMG_03386&lt;/b&gt;&lt;br&gt;predicted protein&lt;br&gt;Location: 3689568 - 3689937" points="279,35 283,30 283,40 279,35 " style="stroke-width:1; stroke:black; fill:white; " id="dummy-13_q11_0_all" class="clusterblast-orf"  />
<polygon locus_tag="SSMG_03387" description="&lt;b&gt;SSMG_03387&lt;/b&gt;&lt;br&gt;conserved hypothetical protein&lt;br&gt;Location: 3689917 - 3690343" points="282,35 286,30 286,40 282,35 " style="stroke-width:1; stroke:black; fill:white; " id="dummy-13_q12_0_all" class="clusterblast-orf"  />
<polygon locus_tag="SSMG_03388" description="&lt;b&gt;SSMG_03388&lt;/b&gt;&lt;br&gt;short chain dehydrogenase&lt;br&gt;Location: 3690377 - 3691079" points="286,35 291,30 292,30 292,40 291,40 286,35 " style="stroke-width:1; stroke:black; fill:white; " id="dummy-13_q13_0_all" class="clusterblast-orf"  />
<polygon locus_tag="SSMG_03389" description="&lt;b&gt;SSMG_03389&lt;/b&gt;&lt;br&gt;conserved hypothetical protein&lt;br&gt;Location: 3691165 - 3691654" points="293,40 297,35 293,30 293,40 " style="stroke-width:1; stroke:black; fill:white; " id="dummy-13_q14_0_all" class="clusterblast-orf"  />
<polygon locus_tag="SSMG_03390" description="&lt;b&gt;SSMG_03390&lt;/b&gt;&lt;br&gt;acetyl-CoA C-acyltransferase FadA&lt;br&gt;Location: 3691709 - 3692876" points="298,35 303,30 308,30 308,40 303,40 298,35 " style="stroke-width:1; stroke:black; fill:white; " id="dummy-13_q15_0_all" class="clusterblast-orf"  />
<polygon locus_tag="SSMG_03391" description="&lt;b&gt;SSMG_03391&lt;/b&gt;&lt;br&gt;transcriptional regulator&lt;br&gt;Location: 3692998 - 3693439" points="309,40 313,35 309,30 309,40 " style="stroke-width:1; stroke:black; fill:white; " id="dummy-13_q16_0_all" class="clusterblast-orf"  />
<polygon locus_tag="SSMG_03392" description="&lt;b&gt;SSMG_03392&lt;/b&gt;&lt;br&gt;predicted protein&lt;br&gt;Location: 3693425 - 3693881" points="313,40 317,35 313,30 313,40 " style="stroke-width:1; stroke:black; fill:white; " id="dummy-13_q17_0_all" class="clusterblast-orf"  />
<polygon locus_tag="SSMG_03393" description="&lt;b&gt;SSMG_03393&lt;/b&gt;&lt;br&gt;CalU8&lt;br&gt;Location: 3693975 - 3694626" points="317,40 318,40 323,35 318,30 317,30 317,40 " style="stroke-width:1; stroke:black; fill:#d81515; " id="dummy-13_q18_0_all" class="clusterblast-orf"  />
<polygon locus_tag="SSMG_03394" description="&lt;b&gt;SSMG_03394&lt;/b&gt;&lt;br&gt;predicted protein&lt;br&gt;Location: 3695111 - 3696059" points="327,40 330,40 335,35 330,30 327,30 327,40 " style="stroke-width:1; stroke:black; fill:white; " id="dummy-13_q19_0_all" class="clusterblast-orf"  />
<polygon locus_tag="SSMG_03395" description="&lt;b&gt;SSMG_03395&lt;/b&gt;&lt;br&gt;FG-GAP repeat-containing protein&lt;br&gt;Location: 3696112 - 3698014" points="336,40 347,40 352,35 347,30 336,30 336,40 " style="stroke-width:1; stroke:black; fill:#4dd815; " id="dummy-13_q20_0_all" class="clusterblast-orf"  />
<polygon locus_tag="SSMG_03396" description="&lt;b&gt;SSMG_03396&lt;/b&gt;&lt;br&gt;UnbU protein&lt;br&gt;Location: 3698010 - 3699000" points="352,40 356,40 361,35 356,30 352,30 352,40 " style="stroke-width:1; stroke:black; fill:#1585d8; " id="dummy-13_q21_0_all" class="clusterblast-orf"  />
<polygon locus_tag="SSMG_03397" description="&lt;b&gt;SSMG_03397&lt;/b&gt;&lt;br&gt;predicted protein&lt;br&gt;Location: 3700172 - 3704279" points="371,40 401,40 406,35 401,30 371,30 371,40 " style="stroke-width:1; stroke:black; fill:white; " id="dummy-13_q22_0_all" class="clusterblast-orf"  />
<polygon locus_tag="SSMG_03398" description="&lt;b&gt;SSMG_03398&lt;/b&gt;&lt;br&gt;TebC protein&lt;br&gt;Location: 3704275 - 3704689" points="406,40 410,35 406,30 406,40 " style="stroke-width:1; stroke:black; fill:#a115d8; " id="dummy-13_q23_0_all" class="clusterblast-orf"  />
<polygon locus_tag="SSMG_03399" description="&lt;b&gt;SSMG_03399&lt;/b&gt;&lt;br&gt;predicted protein&lt;br&gt;Location: 3704698 - 3706147" points="410,40 417,40 422,35 417,30 410,30 410,40 " style="stroke-width:1; stroke:black; fill:white; " id="dummy-13_q24_0_all" class="clusterblast-orf"  />
<polygon locus_tag="SSMG_03400" description="&lt;b&gt;SSMG_03400&lt;/b&gt;&lt;br&gt;methionine synthase vitamin-B12 independent&lt;br&gt;Location: 3706143 - 3707229" points="422,40 427,40 432,35 427,30 422,30 422,40 " style="stroke-width:1; stroke:black; fill:#d86915; " id="dummy-13_q25_0_all" class="clusterblast-orf"  />
<polygon locus_tag="SSMG_03401" description="&lt;b&gt;SSMG_03401&lt;/b&gt;&lt;br&gt;CalU12&lt;br&gt;Location: 3707219 - 3707882" points="432,35 437,30 437,30 437,40 437,40 432,35 " style="stroke-width:1; stroke:black; fill:#15d831; " id="dummy-13_q26_0_all" class="clusterblast-orf"  />
<polygon locus_tag="SSMG_03402" description="&lt;b&gt;SSMG_03402&lt;/b&gt;&lt;br&gt;ATP-dependent chaperone ClpB&lt;br&gt;Location: 3708067 - 3710563" points="439,40 456,40 461,35 456,30 439,30 439,40 " style="stroke-width:1; stroke:black; fill:#1531d8; " id="dummy-13_q27_0_all" class="clusterblast-orf"  />
<polygon locus_tag="SSMG_03403" description="&lt;b&gt;SSMG_03403&lt;/b&gt;&lt;br&gt;CalU10&lt;br&gt;Location: 3710746 - 3711949" points="462,40 468,40 473,35 468,30 462,30 462,40 " style="stroke-width:1; stroke:black; fill:#d815bc; " id="dummy-13_q28_0_all" class="clusterblast-orf"  />
<polygon locus_tag="SSMG_03404" description="&lt;b&gt;SSMG_03404&lt;/b&gt;&lt;br&gt;CalE3&lt;br&gt;Location: 3712083 - 3712944" points="474,40 476,40 481,35 476,30 474,30 474,40 " style="stroke-width:1; stroke:black; fill:#d8bc15; " id="dummy-13_q29_0_all" class="clusterblast-orf"  />
<polygon locus_tag="SSMG_03405" description="&lt;b&gt;SSMG_03405&lt;/b&gt;&lt;br&gt;predicted protein&lt;br&gt;Location: 3712943 - 3713582" points="481,40 482,40 487,35 482,30 481,30 481,40 " style="stroke-width:1; stroke:black; fill:white; " id="dummy-13_q30_0_all" class="clusterblast-orf"  />
<polygon locus_tag="SSMG_03406" description="&lt;b&gt;SSMG_03406&lt;/b&gt;&lt;br&gt;CalR9&lt;br&gt;Location: 3713574 - 3714834" points="487,40 492,40 497,35 492,30 487,30 487,40 " style="stroke-width:1; stroke:black; fill:#15d885; " id="dummy-13_q31_0_all" class="clusterblast-orf"  />
<polygon locus_tag="SSMG_03407" description="&lt;b&gt;SSMG_03407&lt;/b&gt;&lt;br&gt;transcriptional regulator&lt;br&gt;Location: 3715094 - 3715925" points="500,40 502,40 507,35 502,30 500,30 500,40 " style="stroke-width:1; stroke:black; fill:white; " id="dummy-13_q32_0_all" class="clusterblast-orf"  />
<polygon locus_tag="SSMG_03408" description="&lt;b&gt;SSMG_03408&lt;/b&gt;&lt;br&gt;predicted protein&lt;br&gt;Location: 3715940 - 3716801" points="507,35 512,30 514,30 514,40 512,40 507,35 " style="stroke-width:1; stroke:black; fill:#4d15d8; " id="dummy-13_q33_0_all" class="clusterblast-orf"  />
<polygon locus_tag="SSMG_03409" description="&lt;b&gt;SSMG_03409&lt;/b&gt;&lt;br&gt;predicted protein&lt;br&gt;Location: 3717072 - 3717516" points="517,40 521,35 517,30 517,40 " style="stroke-width:1; stroke:black; fill:white; " id="dummy-13_q34_0_all" class="clusterblast-orf"  />
<polygon locus_tag="SSMG_03410" description="&lt;b&gt;SSMG_03410&lt;/b&gt;&lt;br&gt;predicted protein&lt;br&gt;Location: 3717512 - 3718970" points="521,40 528,40 533,35 528,30 521,30 521,40 " style="stroke-width:1; stroke:black; fill:white; " id="dummy-13_q35_0_all" class="clusterblast-orf"  />
<polygon locus_tag="SSMG_03411" description="&lt;b&gt;SSMG_03411&lt;/b&gt;&lt;br&gt;predicted protein&lt;br&gt;Location: 3718979 - 3720668" points="533,35 538,30 548,30 548,40 538,40 533,35 " style="stroke-width:1; stroke:black; fill:#d81569; " id="dummy-13_q36_0_all" class="clusterblast-orf"  />
<polygon locus_tag="SSMG_03412" description="&lt;b&gt;SSMG_03412&lt;/b&gt;&lt;br&gt;CalE9&lt;br&gt;Location: 3720664 - 3721978" points="548,35 553,30 559,30 559,40 553,40 548,35 " style="stroke-width:1; stroke:black; fill:#a1d815; " id="dummy-13_q37_0_all" class="clusterblast-orf"  />
<polygon locus_tag="SSMG_03413" description="&lt;b&gt;SSMG_03413&lt;/b&gt;&lt;br&gt;CalT6&lt;br&gt;Location: 3722072 - 3723779" points="560,40 570,40 575,35 570,30 560,30 560,40 " style="stroke-width:1; stroke:black; fill:#15d8d8; " id="dummy-13_q38_0_all" class="clusterblast-orf"  />
</g>
<g label="BGC0000033" description="BGC0000033_c1: calicheamicin (13% of genes show similarity), Polyketide" class="clusterblast-cluster"  >
<text class="clusterblast-acc" y="70" x="5"  >
<a xlink:href="https://mibig.secondarymetabolites.org/go/BGC0000033/1" target="_blank">BGC0000033</a>:                                                                    calicheamicin (13% of genes show similarity), Polyketide</text>
<line x1="10" x2="778.0" y2="85" style="stroke-width:1; stroke:grey; " y1="85"  />
</g>
<g id="a13_000"  >
<polygon locus_tag="AAM70365.1" description="&lt;b&gt;AAM70365.1&lt;/b&gt;&lt;br&gt;CalG4&lt;br&gt;Location: 90348 - 89143" points="0,90 5,90 10,85 5,80 0,80 0,90 " style="stroke-width:1; stroke:black; fill:white; " id="dummy-13_h13_1_0" class="clusterblast-orf"  />
</g>
<g id="a13_001"  >
<polygon locus_tag="AAM94801.1" description="&lt;b&gt;AAM94801.1&lt;/b&gt;&lt;br&gt;CalU22&lt;br&gt;Location: 88853 - 87351" points="12,90 20,90 25,85 20,80 12,80 12,90 " style="stroke-width:1; stroke:black; fill:white; " id="dummy-13_h13_1_1" class="clusterblast-orf"  />
</g>
<g id="a13_002"  >
<polygon locus_tag="AAM70363.1" description="&lt;b&gt;AAM70363.1&lt;/b&gt;&lt;br&gt;CalU21&lt;br&gt;Location: 87271 - 86678" points="26,90 26,90 31,85 26,80 26,80 26,90 " style="stroke-width:1; stroke:black; fill:white; " id="dummy-13_h13_1_2" class="clusterblast-orf"  />
</g>
<g id="a13_003"  >
<polygon locus_tag="AAM70362.1" description="&lt;b&gt;AAM70362.1&lt;/b&gt;&lt;br&gt;CalU20&lt;br&gt;Location: 86669 - 86118" points="31,90 31,90 36,85 31,80 31,80 31,90 " style="stroke-width:1; stroke:black; fill:white; " id="dummy-13_h13_1_3" class="clusterblast-orf"  />
</g>
<g id="a13_004"  >
<polygon locus_tag="AAM70361.1" description="&lt;b&gt;AAM70361.1&lt;/b&gt;&lt;br&gt;CalU19&lt;br&gt;Location: 85998 - 85300" points="37,90 38,90 43,85 38,80 37,80 37,90 " style="stroke-width:1; stroke:black; fill:white; " id="dummy-13_h13_1_4" class="clusterblast-orf"  />
</g>
<g id="a13_005"  >
<polygon locus_tag="AAM94800.1" description="&lt;b&gt;AAM94800.1&lt;/b&gt;&lt;br&gt;CalE10&lt;br&gt;Location: 85229 - 84045" points="44,85 49,80 54,80 54,90 49,90 44,85 " style="stroke-width:1; stroke:black; fill:white; " id="dummy-13_h13_1_5" class="clusterblast-orf"  />
</g>
<g id="a13_006"  >
<polygon locus_tag="AAM70359.1" description="&lt;b&gt;AAM70359.1&lt;/b&gt;&lt;br&gt;CalS14&lt;br&gt;Location: 83886 - 82456" points="55,85 60,80 68,80 68,90 60,90 55,85 " style="stroke-width:1; stroke:black; fill:white; " id="dummy-13_h13_1_6" class="clusterblast-orf"  />
</g>
<g id="a13_007"  >
<polygon locus_tag="AAM70358.1" description="&lt;b&gt;AAM70358.1&lt;/b&gt;&lt;br&gt;CalU18&lt;br&gt;Location: 82371 - 82105" points="68,85 71,80 71,90 68,85 " style="stroke-width:1; stroke:black; fill:white; " id="dummy-13_h13_1_7" class="clusterblast-orf"  />
</g>
<g id="a13_008"  >
<polygon locus_tag="AAM70357.1" description="&lt;b&gt;AAM70357.1&lt;/b&gt;&lt;br&gt;CalU17&lt;br&gt;Location: 82102 - 81152" points="71,85 76,80 79,80 79,90 76,90 71,85 " style="stroke-width:1; stroke:black; fill:white; " id="dummy-13_h13_1_8" class="clusterblast-orf"  />
</g>
<g id="a13_009"  >
<polygon locus_tag="AAM70356.1" description="&lt;b&gt;AAM70356.1&lt;/b&gt;&lt;br&gt;CalO6&lt;br&gt;Location: 81147 - 80077" points="79,85 84,80 88,80 88,90 84,90 79,85 " style="stroke-width:1; stroke:black; fill:white; " id="dummy-13_h13_1_9" class="clusterblast-orf"  />
</g>
<g id="a13_0010"  >
<polygon locus_tag="AAM70355.1" description="&lt;b&gt;AAM70355.1&lt;/b&gt;&lt;br&gt;CalO5&lt;br&gt;Location: 80046 - 76231" points="88,85 93,80 121,80 121,90 93,90 88,85 " style="stroke-width:1; stroke:black; fill:white; " id="dummy-13_h13_1_10" class="clusterblast-orf"  />
</g>
<g id="a13_0011"  >
<polygon locus_tag="AAM70354.1" description="&lt;b&gt;AAM70354.1&lt;/b&gt;&lt;br&gt;CalO4&lt;br&gt;Location: 76186 - 75152" points="122,85 127,80 131,80 131,90 127,90 122,85 " style="stroke-width:1; stroke:black; fill:white; " id="dummy-13_h13_1_11" class="clusterblast-orf"  />
</g>
<g id="a13_0012"  >
<polygon locus_tag="AAM70353.1" description="&lt;b&gt;AAM70353.1&lt;/b&gt;&lt;br&gt;CalO3&lt;br&gt;Location: 75102 - 73840" points="131,85 136,80 142,80 142,90 136,90 131,85 " style="stroke-width:1; stroke:black; fill:white; " id="dummy-13_h13_1_12" class="clusterblast-orf"  />
</g>
<g id="a13_0013"  >
<polygon locus_tag="AAM94799.1" description="&lt;b&gt;AAM94799.1&lt;/b&gt;&lt;br&gt;CalO2&lt;br&gt;Location: 73799 - 72606" points="142,85 147,80 153,80 153,90 147,90 142,85 " style="stroke-width:1; stroke:black; fill:white; " id="dummy-13_h13_1_13" class="clusterblast-orf"  />
</g>
<g id="a13_0014"  >
<polygon locus_tag="AAM94798.1" description="&lt;b&gt;AAM94798.1&lt;/b&gt;&lt;br&gt;CalG3&lt;br&gt;Location: 72522 - 71392" points="153,85 158,80 163,80 163,90 158,90 153,85 " style="stroke-width:1; stroke:black; fill:white; " id="dummy-13_h13_1_14" class="clusterblast-orf"  />
</g>
<g id="a13_0015"  >
<polygon locus_tag="AAM94797.1" description="&lt;b&gt;AAM94797.1&lt;/b&gt;&lt;br&gt;CalS13&lt;br&gt;Location: 71351 - 70221" points="164,85 169,80 173,80 173,90 169,90 164,85 " style="stroke-width:1; stroke:black; fill:white; " id="dummy-13_h13_1_15" class="clusterblast-orf"  />
</g>
<g id="a13_0016"  >
<polygon locus_tag="AAM70349.1" description="&lt;b&gt;AAM70349.1&lt;/b&gt;&lt;br&gt;CalS12&lt;br&gt;Location: 70024 - 69032" points="175,90 179,90 184,85 179,80 175,80 175,90 " style="stroke-width:1; stroke:black; fill:white; " id="dummy-13_h13_1_16" class="clusterblast-orf"  />
</g>
<g id="a13_0017"  >
<polygon locus_tag="AAM70348.1" description="&lt;b&gt;AAM70348.1&lt;/b&gt;&lt;br&gt;CalG2&lt;br&gt;Location: 68981 - 67788" points="184,90 189,90 194,85 189,80 184,80 184,90 " style="stroke-width:1; stroke:black; fill:white; " id="dummy-13_h13_1_17" class="clusterblast-orf"  />
</g>
<g id="a13_0018"  >
<polygon locus_tag="AAM70347.1" description="&lt;b&gt;AAM70347.1&lt;/b&gt;&lt;br&gt;CalR9&lt;br&gt;Location: 67705 - 66458&lt;br&gt;&lt;br&gt;&lt;b&gt;BlastP hit with SSMG_03406&lt;/b&gt;&lt;br&gt;Percentage identity: 59&lt;br&gt;Percentage coverage: 96&lt;br&gt;BLAST bit score: 478&lt;br&gt;E-value: 1.4e-134" points="195,85 200,80 206,80 206,90 200,90 195,85 " style="stroke-width:1; stroke:black; fill:#15d885; " id="dummy-13_h13_1_18" class="clusterblast-orf"  />
</g>
<g id="a13_0019"  >
<polygon locus_tag="AAM70346.1" description="&lt;b&gt;AAM70346.1&lt;/b&gt;&lt;br&gt;CalT7&lt;br&gt;Location: 66461 - 64779&lt;br&gt;&lt;br&gt;&lt;b&gt;BlastP hit with SSMG_03411&lt;/b&gt;&lt;br&gt;Percentage identity: 48&lt;br&gt;Percentage coverage: 99&lt;br&gt;BLAST bit score: 459&lt;br&gt;E-value: 6.9e-129" points="206,85 211,80 220,80 220,90 211,90 206,85 " style="stroke-width:1; stroke:black; fill:#d81569; " id="dummy-13_h13_1_19" class="clusterblast-orf"  />
</g>
<g id="a13_0020"  >
<polygon locus_tag="AAM70345.1" description="&lt;b&gt;AAM70345.1&lt;/b&gt;&lt;br&gt;IS&lt;br&gt;Location: 64685 - 63477" points="221,90 226,90 231,85 226,80 221,80 221,90 " style="stroke-width:1; stroke:black; fill:white; " id="dummy-13_h13_1_20" class="clusterblast-orf"  />
</g>
<g id="a13_0021"  >
<polygon locus_tag="AAM94796.1" description="&lt;b&gt;AAM94796.1&lt;/b&gt;&lt;br&gt;CalE9&lt;br&gt;Location: 63463 - 62177&lt;br&gt;&lt;br&gt;&lt;b&gt;BlastP hit with SSMG_03412&lt;/b&gt;&lt;br&gt;Percentage identity: 77&lt;br&gt;Percentage coverage: 96&lt;br&gt;BLAST bit score: 683&lt;br&gt;E-value: 3e-196" points="232,85 237,80 243,80 243,90 237,90 232,85 " style="stroke-width:1; stroke:black; fill:#a1d815; " id="dummy-13_h13_1_21" class="clusterblast-orf"  />
</g>
<g id="a13_0022"  >
<polygon locus_tag="AAM70343.1" description="&lt;b&gt;AAM70343.1&lt;/b&gt;&lt;br&gt;CalO1&lt;br&gt;Location: 61975 - 60938" points="244,90 248,90 253,85 248,80 244,80 244,90 " style="stroke-width:1; stroke:black; fill:white; " id="dummy-13_h13_1_22" class="clusterblast-orf"  />
</g>
<g id="a13_0023"  >
<polygon locus_tag="AAM70342.1" description="&lt;b&gt;AAM70342.1&lt;/b&gt;&lt;br&gt;CalT6&lt;br&gt;Location: 60914 - 59208&lt;br&gt;&lt;br&gt;&lt;b&gt;BlastP hit with SSMG_03413&lt;/b&gt;&lt;br&gt;Percentage identity: 68&lt;br&gt;Percentage coverage: 99&lt;br&gt;BLAST bit score: 789&lt;br&gt;E-value: 5e-228" points="254,90 263,90 268,85 263,80 254,80 254,90 " style="stroke-width:1; stroke:black; fill:#15d8d8; " id="dummy-13_h13_1_23" class="clusterblast-orf"  />
</g>
<g id="a13_0024"  >
<polygon locus_tag="AAM70341.1" description="&lt;b&gt;AAM70341.1&lt;/b&gt;&lt;br&gt;CalT5&lt;br&gt;Location: 59091 - 58105" points="269,90 273,90 278,85 273,80 269,80 269,90 " style="stroke-width:1; stroke:black; fill:white; " id="dummy-13_h13_1_24" class="clusterblast-orf"  />
</g>
<g id="a13_0025"  >
<polygon locus_tag="AAM70340.1" description="&lt;b&gt;AAM70340.1&lt;/b&gt;&lt;br&gt;CalT4&lt;br&gt;Location: 58108 - 57266" points="278,90 280,90 285,85 280,80 278,80 278,90 " style="stroke-width:1; stroke:black; fill:white; " id="dummy-13_h13_1_25" class="clusterblast-orf"  />
</g>
<g id="a13_0026"  >
<polygon locus_tag="AAM70339.1" description="&lt;b&gt;AAM70339.1&lt;/b&gt;&lt;br&gt;CalU16&lt;br&gt;Location: 56959 - 56411" points="288,85 292,80 292,90 288,85 " style="stroke-width:1; stroke:black; fill:white; " id="dummy-13_h13_1_26" class="clusterblast-orf"  />
</g>
<g id="a13_0027"  >
<polygon locus_tag="AAM70338.1" description="&lt;b&gt;AAM70338.1&lt;/b&gt;&lt;br&gt;CalC&lt;br&gt;Location: 56402 - 55857" points="293,85 297,80 297,90 293,85 " style="stroke-width:1; stroke:black; fill:white; " id="dummy-13_h13_1_27" class="clusterblast-orf"  />
</g>
<g id="a13_0028"  >
<polygon locus_tag="AAM70337.1" description="&lt;b&gt;AAM70337.1&lt;/b&gt;&lt;br&gt;CalS11&lt;br&gt;Location: 55677 - 54904" points="299,85 304,80 306,80 306,90 304,90 299,85 " style="stroke-width:1; stroke:black; fill:white; " id="dummy-13_h13_1_28" class="clusterblast-orf"  />
</g>
<g id="a13_0029"  >
<polygon locus_tag="AAM70336.1" description="&lt;b&gt;AAM70336.1&lt;/b&gt;&lt;br&gt;CalG1&lt;br&gt;Location: 54689 - 53511" points="307,90 313,90 318,85 313,80 307,80 307,90 " style="stroke-width:1; stroke:black; fill:white; " id="dummy-13_h13_1_29" class="clusterblast-orf"  />
</g>
<g id="a13_0030"  >
<polygon locus_tag="AAM70335.1" description="&lt;b&gt;AAM70335.1&lt;/b&gt;&lt;br&gt;CalR8&lt;br&gt;Location: 53453 - 53061" points="318,85 321,80 321,90 318,85 " style="stroke-width:1; stroke:black; fill:white; " id="dummy-13_h13_1_30" class="clusterblast-orf"  />
</g>
<g id="a13_0031"  >
<polygon locus_tag="AAM70334.1" description="&lt;b&gt;AAM70334.1&lt;/b&gt;&lt;br&gt;CalS10&lt;br&gt;Location: 52950 - 52213" points="322,90 324,90 329,85 324,80 322,80 322,90 " style="stroke-width:1; stroke:black; fill:white; " id="dummy-13_h13_1_31" class="clusterblast-orf"  />
</g>
<g id="a13_0032"  >
<polygon locus_tag="AAM70333.1" description="&lt;b&gt;AAM70333.1&lt;/b&gt;&lt;br&gt;CalS9&lt;br&gt;Location: 51993 - 51004" points="331,85 336,80 339,80 339,90 336,90 331,85 " style="stroke-width:1; stroke:black; fill:white; " id="dummy-13_h13_1_32" class="clusterblast-orf"  />
</g>
<g id="a13_0033"  >
<polygon locus_tag="AAM70332.1" description="&lt;b&gt;AAM70332.1&lt;/b&gt;&lt;br&gt;CalS8&lt;br&gt;Location: 50997 - 49636" points="339,85 344,80 351,80 351,90 344,90 339,85 " style="stroke-width:1; stroke:black; fill:white; " id="dummy-13_h13_1_33" class="clusterblast-orf"  />
</g>
<g id="a13_0034"  >
<polygon locus_tag="AAM70331.1" description="&lt;b&gt;AAM70331.1&lt;/b&gt;&lt;br&gt;CalR7&lt;br&gt;Location: 49559 - 48717" points="352,85 357,80 359,80 359,90 357,90 352,85 " style="stroke-width:1; stroke:black; fill:white; " id="dummy-13_h13_1_34" class="clusterblast-orf"  />
</g>
<g id="a13_0035"  >
<polygon locus_tag="AAM70330.1" description="&lt;b&gt;AAM70330.1&lt;/b&gt;&lt;br&gt;CalU15&lt;br&gt;Location: 48416 - 47448" points="362,90 365,90 370,85 365,80 362,80 362,90 " style="stroke-width:1; stroke:black; fill:white; " id="dummy-13_h13_1_35" class="clusterblast-orf"  />
</g>
<g id="a13_0036"  >
<polygon locus_tag="AAM70329.1" description="&lt;b&gt;AAM70329.1&lt;/b&gt;&lt;br&gt;CalU14&lt;br&gt;Location: 47426 - 45471" points="370,90 382,90 387,85 382,80 370,80 370,90 " style="stroke-width:1; stroke:black; fill:white; " id="dummy-13_h13_1_36" class="clusterblast-orf"  />
</g>
<g id="a13_0037"  >
<polygon locus_tag="AAM94795.1" description="&lt;b&gt;AAM94795.1&lt;/b&gt;&lt;br&gt;CalT3&lt;br&gt;Location: 45474 - 44509&lt;br&gt;&lt;br&gt;&lt;b&gt;BlastP hit with SSMG_03396&lt;/b&gt;&lt;br&gt;Percentage identity: 56&lt;br&gt;Percentage coverage: 81&lt;br&gt;BLAST bit score: 275&lt;br&gt;E-value: 1.4e-73" points="387,90 390,90 395,85 390,80 387,80 387,90 " style="stroke-width:1; stroke:black; fill:#1585d8; " id="dummy-13_h13_1_37" class="clusterblast-orf"  />
</g>
<g id="a13_0038"  >
<polygon locus_tag="AAM94794.1" description="&lt;b&gt;AAM94794.1&lt;/b&gt;&lt;br&gt;CalE8&lt;br&gt;Location: 44512 - 38753" points="395,90 440,90 445,85 440,80 395,80 395,90 " style="stroke-width:1; stroke:black; fill:white; " id="dummy-13_h13_1_38" class="clusterblast-orf"  />
</g>
<g id="a13_0039"  >
<polygon locus_tag="AAM94793.1" description="&lt;b&gt;AAM94793.1&lt;/b&gt;&lt;br&gt;CalE7&lt;br&gt;Location: 38756 - 38310" points="445,90 449,85 445,80 445,90 " style="stroke-width:1; stroke:black; fill:white; " id="dummy-13_h13_1_39" class="clusterblast-orf"  />
</g>
<g id="a13_0040"  >
<polygon locus_tag="AAM94792.1" description="&lt;b&gt;AAM94792.1&lt;/b&gt;&lt;br&gt;CalE6&lt;br&gt;Location: 38313 - 37168" points="449,90 454,90 459,85 454,80 449,80 449,90 " style="stroke-width:1; stroke:black; fill:white; " id="dummy-13_h13_1_40" class="clusterblast-orf"  />
</g>
<g id="a13_0041"  >
<polygon locus_tag="AAM94791.1" description="&lt;b&gt;AAM94791.1&lt;/b&gt;&lt;br&gt;CalU13&lt;br&gt;Location: 37111 - 36452" points="459,90 460,90 465,85 460,80 459,80 459,90 " style="stroke-width:1; stroke:black; fill:white; " id="dummy-13_h13_1_41" class="clusterblast-orf"  />
</g>
<g id="a13_0042"  >
<polygon locus_tag="AAM94790.1" description="&lt;b&gt;AAM94790.1&lt;/b&gt;&lt;br&gt;CalU12&lt;br&gt;Location: 36411 - 35749&lt;br&gt;&lt;br&gt;&lt;b&gt;BlastP hit with SSMG_03401&lt;/b&gt;&lt;br&gt;Percentage identity: 69&lt;br&gt;Percentage coverage: 95&lt;br&gt;BLAST bit score: 307&lt;br&gt;E-value: 1.3e-83" points="465,85 470,80 471,80 471,90 470,90 465,85 " style="stroke-width:1; stroke:black; fill:#15d831; " id="dummy-13_h13_1_42" class="clusterblast-orf"  />
</g>
<g id="a13_0043"  >
<polygon locus_tag="AAM94789.1" description="&lt;b&gt;AAM94789.1&lt;/b&gt;&lt;br&gt;CalS7&lt;br&gt;Location: 35580 - 34687" points="472,90 475,90 480,85 475,80 472,80 472,90 " style="stroke-width:1; stroke:black; fill:white; " id="dummy-13_h13_1_43" class="clusterblast-orf"  />
</g>
<g id="a13_0044"  >
<polygon locus_tag="AAM94788.1" description="&lt;b&gt;AAM94788.1&lt;/b&gt;&lt;br&gt;CalE5&lt;br&gt;Location: 34553 - 33669&lt;br&gt;&lt;br&gt;&lt;b&gt;BlastP hit with SSMG_03408&lt;/b&gt;&lt;br&gt;Percentage identity: 47&lt;br&gt;Percentage coverage: 97&lt;br&gt;BLAST bit score: 225&lt;br&gt;E-value: 8.5e-59" points="481,90 484,90 489,85 484,80 481,80 481,90 " style="stroke-width:1; stroke:black; fill:#4d15d8; " id="dummy-13_h13_1_44" class="clusterblast-orf"  />
</g>
<g id="a13_0045"  >
<polygon locus_tag="AAM94787.1" description="&lt;b&gt;AAM94787.1&lt;/b&gt;&lt;br&gt;CalU11&lt;br&gt;Location: 33672 - 32854" points="489,90 491,90 496,85 491,80 489,80 489,90 " style="stroke-width:1; stroke:black; fill:white; " id="dummy-13_h13_1_45" class="clusterblast-orf"  />
</g>
<g id="a13_0046"  >
<polygon locus_tag="AAM94786.1" description="&lt;b&gt;AAM94786.1&lt;/b&gt;&lt;br&gt;CalE4&lt;br&gt;Location: 32797 - 31589" points="496,90 502,90 507,85 502,80 496,80 496,90 " style="stroke-width:1; stroke:black; fill:white; " id="dummy-13_h13_1_46" class="clusterblast-orf"  />
</g>
<g id="a13_0047"  >
<polygon locus_tag="AAM94785.1" description="&lt;b&gt;AAM94785.1&lt;/b&gt;&lt;br&gt;CalR6&lt;br&gt;Location: 31592 - 30069" points="507,90 515,90 520,85 515,80 507,80 507,90 " style="stroke-width:1; stroke:black; fill:white; " id="dummy-13_h13_1_47" class="clusterblast-orf"  />
</g>
<g id="a13_0048"  >
<polygon locus_tag="AAM94784.1" description="&lt;b&gt;AAM94784.1&lt;/b&gt;&lt;br&gt;CalR5&lt;br&gt;Location: 30072 - 28696" points="520,90 527,90 532,85 527,80 520,80 520,90 " style="stroke-width:1; stroke:black; fill:white; " id="dummy-13_h13_1_48" class="clusterblast-orf"  />
</g>
<g id="a13_0049"  >
<polygon locus_tag="AAM94783.1" description="&lt;b&gt;AAM94783.1&lt;/b&gt;&lt;br&gt;CalU10&lt;br&gt;Location: 28304 - 27102&lt;br&gt;&lt;br&gt;&lt;b&gt;BlastP hit with SSMG_03403&lt;/b&gt;&lt;br&gt;Percentage identity: 66&lt;br&gt;Percentage coverage: 99&lt;br&gt;BLAST bit score: 541&lt;br&gt;E-value: 1.3e-153" points="535,90 541,90 546,85 541,80 535,80 535,90 " style="stroke-width:1; stroke:black; fill:#d815bc; " id="dummy-13_h13_1_49" class="clusterblast-orf"  />
</g>
<g id="a13_0050"  >
<polygon locus_tag="AAM94782.1" description="&lt;b&gt;AAM94782.1&lt;/b&gt;&lt;br&gt;CalR4&lt;br&gt;Location: 26896 - 24503&lt;br&gt;&lt;br&gt;&lt;b&gt;BlastP hit with SSMG_03402&lt;/b&gt;&lt;br&gt;Percentage identity: 82&lt;br&gt;Percentage coverage: 94&lt;br&gt;BLAST bit score: 1253&lt;br&gt;E-value: 0.0" points="547,90 563,90 568,85 563,80 547,80 547,90 " style="stroke-width:1; stroke:black; fill:#1531d8; " id="dummy-13_h13_1_50" class="clusterblast-orf"  />
</g>
<g id="a13_0051"  >
<polygon locus_tag="AAM94781.1" description="&lt;b&gt;AAM94781.1&lt;/b&gt;&lt;br&gt;CalT2&lt;br&gt;Location: 24506 - 22968" points="568,90 576,90 581,85 576,80 568,80 568,90 " style="stroke-width:1; stroke:black; fill:white; " id="dummy-13_h13_1_51" class="clusterblast-orf"  />
</g>
<g id="a13_0052"  >
<polygon locus_tag="AAM94780.1" description="&lt;b&gt;AAM94780.1&lt;/b&gt;&lt;br&gt;CalR3&lt;br&gt;Location: 22826 - 21423" points="582,85 587,80 595,80 595,90 587,90 582,85 " style="stroke-width:1; stroke:black; fill:white; " id="dummy-13_h13_1_52" class="clusterblast-orf"  />
</g>
<g id="a13_0053"  >
<polygon locus_tag="AAM94779.1" description="&lt;b&gt;AAM94779.1&lt;/b&gt;&lt;br&gt;CalU9&lt;br&gt;Location: 21426 - 20791" points="595,85 600,80 600,80 600,90 600,90 595,85 " style="stroke-width:1; stroke:black; fill:white; " id="dummy-13_h13_1_53" class="clusterblast-orf"  />
</g>
<g id="a13_0054"  >
<polygon locus_tag="AAM94778.1" description="&lt;b&gt;AAM94778.1&lt;/b&gt;&lt;br&gt;CalE3&lt;br&gt;Location: 20794 - 19901&lt;br&gt;&lt;br&gt;&lt;b&gt;BlastP hit with SSMG_03404&lt;/b&gt;&lt;br&gt;Percentage identity: 62&lt;br&gt;Percentage coverage: 103&lt;br&gt;BLAST bit score: 356&lt;br&gt;E-value: 5.4e-98" points="600,85 605,80 608,80 608,90 605,90 600,85 " style="stroke-width:1; stroke:black; fill:#d8bc15; " id="dummy-13_h13_1_54" class="clusterblast-orf"  />
</g>
<g id="a13_0055"  >
<polygon locus_tag="AAM94777.1" description="&lt;b&gt;AAM94777.1&lt;/b&gt;&lt;br&gt;CalR2&lt;br&gt;Location: 19825 - 17960" points="608,85 613,80 624,80 624,90 613,90 608,85 " style="stroke-width:1; stroke:black; fill:white; " id="dummy-13_h13_1_55" class="clusterblast-orf"  />
</g>
<g id="a13_0056"  >
<polygon locus_tag="AAM94776.1" description="&lt;b&gt;AAM94776.1&lt;/b&gt;&lt;br&gt;CalS6&lt;br&gt;Location: 17672 - 16890" points="627,90 629,90 634,85 629,80 627,80 627,90 " style="stroke-width:1; stroke:black; fill:white; " id="dummy-13_h13_1_56" class="clusterblast-orf"  />
</g>
<g id="a13_0057"  >
<polygon locus_tag="AAM94775.1" description="&lt;b&gt;AAM94775.1&lt;/b&gt;&lt;br&gt;CalU8&lt;br&gt;Location: 16962 - 16249" points="633,85 638,80 639,80 639,90 638,90 633,85 " style="stroke-width:1; stroke:black; fill:white; " id="dummy-13_h13_1_57" class="clusterblast-orf"  />
</g>
<g id="a13_0058"  >
<polygon locus_tag="AAM94774.1" description="&lt;b&gt;AAM94774.1&lt;/b&gt;&lt;br&gt;CalS5&lt;br&gt;Location: 16092 - 15028" points="641,90 645,90 650,85 645,80 641,80 641,90 " style="stroke-width:1; stroke:black; fill:white; " id="dummy-13_h13_1_58" class="clusterblast-orf"  />
</g>
<g id="a13_0059"  >
<polygon locus_tag="AAM94773.1" description="&lt;b&gt;AAM94773.1&lt;/b&gt;&lt;br&gt;CalE2&lt;br&gt;Location: 15017 - 14103" points="650,85 655,80 658,80 658,90 655,90 650,85 " style="stroke-width:1; stroke:black; fill:white; " id="dummy-13_h13_1_59" class="clusterblast-orf"  />
</g>
<g id="a13_0060"  >
<polygon locus_tag="AAM94772.1" description="&lt;b&gt;AAM94772.1&lt;/b&gt;&lt;br&gt;CalS4&lt;br&gt;Location: 13918 - 12764" points="659,85 664,80 669,80 669,90 664,90 659,85 " style="stroke-width:1; stroke:black; fill:white; " id="dummy-13_h13_1_60" class="clusterblast-orf"  />
</g>
<g id="a13_0061"  >
<polygon locus_tag="AAM94771.1" description="&lt;b&gt;AAM94771.1&lt;/b&gt;&lt;br&gt;CalU7&lt;br&gt;Location: 12490 - 12161" points="672,90 675,85 672,80 672,90 " style="stroke-width:1; stroke:black; fill:white; " id="dummy-13_h13_1_61" class="clusterblast-orf"  />
</g>
<g id="a13_0062"  >
<polygon locus_tag="AAM94770.1" description="&lt;b&gt;AAM94770.1&lt;/b&gt;&lt;br&gt;CalS3&lt;br&gt;Location: 12109 - 11078" points="675,85 680,80 684,80 684,90 680,90 675,85 " style="stroke-width:1; stroke:black; fill:white; " id="dummy-13_h13_1_62" class="clusterblast-orf"  />
</g>
<g id="a13_0063"  >
<polygon locus_tag="AAM94769.1" description="&lt;b&gt;AAM94769.1&lt;/b&gt;&lt;br&gt;CalS2&lt;br&gt;Location: 11081 - 10158" points="684,85 689,80 692,80 692,90 689,90 684,85 " style="stroke-width:1; stroke:black; fill:white; " id="dummy-13_h13_1_63" class="clusterblast-orf"  />
</g>
<g id="a13_0064"  >
<polygon locus_tag="AAM94768.1" description="&lt;b&gt;AAM94768.1&lt;/b&gt;&lt;br&gt;CalS1&lt;br&gt;Location: 9987 - 9415" points="693,90 693,90 698,85 693,80 693,80 693,90 " style="stroke-width:1; stroke:black; fill:white; " id="dummy-13_h13_1_64" class="clusterblast-orf"  />
</g>
<g id="a13_0065"  >
<polygon locus_tag="AAM94767.1" description="&lt;b&gt;AAM94767.1&lt;/b&gt;&lt;br&gt;CalU6&lt;br&gt;Location: 9382 - 8447" points="699,85 704,80 707,80 707,90 704,90 699,85 " style="stroke-width:1; stroke:black; fill:white; " id="dummy-13_h13_1_65" class="clusterblast-orf"  />
</g>
<g id="a13_0066"  >
<polygon locus_tag="AAM94766.1" description="&lt;b&gt;AAM94766.1&lt;/b&gt;&lt;br&gt;CalR1&lt;br&gt;Location: 8285 - 7665" points="708,90 708,90 713,85 708,80 708,80 708,90 " style="stroke-width:1; stroke:black; fill:white; " id="dummy-13_h13_1_66" class="clusterblast-orf"  />
</g>
<g id="a13_0067"  >
<polygon locus_tag="AAM94765.1" description="&lt;b&gt;AAM94765.1&lt;/b&gt;&lt;br&gt;CalT1&lt;br&gt;Location: 7595 - 6006" points="714,90 723,90 728,85 723,80 714,80 714,90 " style="stroke-width:1; stroke:black; fill:white; " id="dummy-13_h13_1_67" class="clusterblast-orf"  />
</g>
<g id="a13_0068"  >
<polygon locus_tag="AAM94764.1" description="&lt;b&gt;AAM94764.1&lt;/b&gt;&lt;br&gt;CalU5&lt;br&gt;Location: 5941 - 5045" points="728,85 733,80 736,80 736,90 733,90 728,85 " style="stroke-width:1; stroke:black; fill:white; " id="dummy-13_h13_1_68" class="clusterblast-orf"  />
</g>
<g id="a13_0069"  >
<polygon locus_tag="AAM94763.1" description="&lt;b&gt;AAM94763.1&lt;/b&gt;&lt;br&gt;CalE1&lt;br&gt;Location: 5048 - 3723" points="736,85 741,80 747,80 747,90 741,90 736,85 " style="stroke-width:1; stroke:black; fill:white; " id="dummy-13_h13_1_69" class="clusterblast-orf"  />
</g>
<g id="a13_0070"  >
<polygon locus_tag="AAM94762.1" description="&lt;b&gt;AAM94762.1&lt;/b&gt;&lt;br&gt;CalU4&lt;br&gt;Location: 3726 - 2932" points="747,85 752,80 754,80 754,90 752,90 747,85 " style="stroke-width:1; stroke:black; fill:white; " id="dummy-13_h13_1_70" class="clusterblast-orf"  />
</g>
<g id="a13_0071"  >
<polygon locus_tag="AAM94761.1" description="&lt;b&gt;AAM94761.1&lt;/b&gt;&lt;br&gt;CalU3&lt;br&gt;Location: 2935 - 1874" points="754,85 759,80 763,80 763,90 759,90 754,85 " style="stroke-width:1; stroke:black; fill:white; " id="dummy-13_h13_1_71" class="clusterblast-orf"  />
</g>
<g id="a13_0072"  >
<polygon locus_tag="AAM94760.1" description="&lt;b&gt;AAM94760.1&lt;/b&gt;&lt;br&gt;CalU2&lt;br&gt;Location: 1827 - 880" points="764,85 769,80 772,80 772,90 769,90 764,85 " style="stroke-width:1; stroke:black; fill:white; " id="dummy-13_h13_1_72" class="clusterblast-orf"  />
</g>
<g id="a13_0073"  >
<polygon locus_tag="AAM94759.1" description="&lt;b&gt;AAM94759.1&lt;/b&gt;&lt;br&gt;CalU1&lt;br&gt;Location: 873 - 1" points="772,85 777,80 780,80 780,90 777,90 772,85 " style="stroke-width:1; stroke:black; fill:white; " id="dummy-13_h13_1_73" class="clusterblast-orf"  />
</g>
</svg>
