<svg version="1.1" xmlns="http://www.w3.org/2000/svg" height="50" width="800" xmlns:xlink="http://www.w3.org/1999/xlink" preserveAspectRatio="none" x="0" y="0" viewBox="0 0 800 50"  >
<g label="Query sequence" class="clusterblast-cluster"  >
<text class="clusterblast-acc" y="20" x="5"  >
Query sequence</text>
<line x1="10" x2="778.0" y2="35" style="stroke-width:1; stroke:grey; " y1="35"  />
<polygon locus_tag="SSMG_06550" description="&lt;b&gt;SSMG_06550&lt;/b&gt;&lt;br&gt;predicted protein&lt;br&gt;Location: 7221510 - 7221744" points="0,40 13,40 18,35 13,30 0,30 0,40 " style="stroke-width:1; stroke:black; fill:white; " id="subclusterblast-24_q0_0_all" class="clusterblast-orf"  />
<polygon locus_tag="SSMG_06551" description="&lt;b&gt;SSMG_06551&lt;/b&gt;&lt;br&gt;predicted protein&lt;br&gt;Location: 7222332 - 7223187" points="63,35 68,30 128,30 128,40 68,40 63,35 " style="stroke-width:1; stroke:black; fill:white; " id="subclusterblast-24_q1_0_all" class="clusterblast-orf"  />
<polygon locus_tag="SSMG_06552" description="&lt;b&gt;SSMG_06552&lt;/b&gt;&lt;br&gt;predicted protein&lt;br&gt;Location: 7224197 - 7225403" points="205,40 292,40 297,35 292,30 205,30 205,40 " style="stroke-width:1; stroke:black; fill:white; " id="subclusterblast-24_q2_0_all" class="clusterblast-orf"  />
<polygon locus_tag="SSMG_06553" description="&lt;b&gt;SSMG_06553&lt;/b&gt;&lt;br&gt;peptidase M15B and M15C&lt;br&gt;Location: 7225427 - 7225955" points="299,35 304,30 339,30 339,40 304,40 299,35 " style="stroke-width:1; stroke:black; fill:white; " id="subclusterblast-24_q3_0_all" class="clusterblast-orf"  />
<polygon locus_tag="SSMG_06554" description="&lt;b&gt;SSMG_06554&lt;/b&gt;&lt;br&gt;Linocin M18 bacteriocin protein&lt;br&gt;Location: 7226041 - 7226839" points="345,35 350,30 406,30 406,40 350,40 345,35 " style="stroke-width:1; stroke:black; fill:white; " id="subclusterblast-24_q4_0_all" class="clusterblast-orf"  />
<polygon locus_tag="SSMG_06555" description="&lt;b&gt;SSMG_06555&lt;/b&gt;&lt;br&gt;dyp-type peroxidase&lt;br&gt;Location: 7226835 - 7227867" points="406,35 411,30 484,30 484,40 411,40 406,35 " style="stroke-width:1; stroke:black; fill:white; " id="subclusterblast-24_q5_0_all" class="clusterblast-orf"  />
<polygon locus_tag="SSMG_06556" description="&lt;b&gt;SSMG_06556&lt;/b&gt;&lt;br&gt;short-chain dehydrogenase/reductase SDR&lt;br&gt;Location: 7228004 - 7228739" points="495,35 500,30 551,30 551,40 500,40 495,35 " style="stroke-width:1; stroke:black; fill:white; " id="subclusterblast-24_q6_0_all" class="clusterblast-orf"  />
<polygon locus_tag="SSMG_06557" description="&lt;b&gt;SSMG_06557&lt;/b&gt;&lt;br&gt;predicted protein&lt;br&gt;Location: 7228748 - 7229117" points="552,35 557,30 580,30 580,40 557,40 552,35 " style="stroke-width:1; stroke:black; fill:white; " id="subclusterblast-24_q7_0_all" class="clusterblast-orf"  />
<polygon locus_tag="SSMG_06558" description="&lt;b&gt;SSMG_06558&lt;/b&gt;&lt;br&gt;hypothetical protein&lt;br&gt;Location: 7229113 - 7229683" points="579,35 584,30 623,30 623,40 584,40 579,35 " style="stroke-width:1; stroke:black; fill:white; " id="subclusterblast-24_q8_0_all" class="clusterblast-orf"  />
<polygon locus_tag="SSMG_06559" description="&lt;b&gt;SSMG_06559&lt;/b&gt;&lt;br&gt;conserved hypothetical protein&lt;br&gt;Location: 7229679 - 7230282" points="623,35 628,30 668,30 668,40 628,40 623,35 " style="stroke-width:1; stroke:black; fill:white; " id="subclusterblast-24_q9_0_all" class="clusterblast-orf"  />
<polygon locus_tag="SSMG_06560" description="&lt;b&gt;SSMG_06560&lt;/b&gt;&lt;br&gt;conserved hypothetical protein&lt;br&gt;Location: 7230371 - 7230749" points="675,40 699,40 704,35 699,30 675,30 675,40 " style="stroke-width:1; stroke:black; fill:white; " id="subclusterblast-24_q10_0_all" class="clusterblast-orf"  />
<polygon locus_tag="SSMG_06561" description="&lt;b&gt;SSMG_06561&lt;/b&gt;&lt;br&gt;hypothetical protein&lt;br&gt;Location: 7230751 - 7231750" points="704,40 775,40 780,35 775,30 704,30 704,40 " style="stroke-width:1; stroke:black; fill:white; " id="subclusterblast-24_q11_0_all" class="clusterblast-orf"  />
</g>
</svg>
