<svg version="1.1" xmlns="http://www.w3.org/2000/svg" height="50" width="800" xmlns:xlink="http://www.w3.org/1999/xlink" preserveAspectRatio="none" x="0" y="0" viewBox="0 0 800 50"  >
<g label="Query sequence" class="clusterblast-cluster"  >
<text class="clusterblast-acc" y="20" x="5"  >
Query sequence</text>
<line x1="10" x2="778.0" y2="35" style="stroke-width:1; stroke:grey; " y1="35"  />
<polygon locus_tag="SSMG_04365" description="&lt;b&gt;SSMG_04365&lt;/b&gt;&lt;br&gt;aldehyde dehydrogenase&lt;br&gt;Location: 4774714 - 4776169" points="0,35 5,30 26,30 26,40 5,40 0,35 " style="stroke-width:1; stroke:black; fill:white; " id="subclusterblast-18_q0_0_all" class="clusterblast-orf"  />
<polygon locus_tag="SSMG_04366" description="&lt;b&gt;SSMG_04366&lt;/b&gt;&lt;br&gt;conserved hypothetical protein&lt;br&gt;Location: 4776591 - 4777734" points="34,35 39,30 55,30 55,40 39,40 34,35 " style="stroke-width:1; stroke:black; fill:white; " id="subclusterblast-18_q1_0_all" class="clusterblast-orf"  />
<polygon locus_tag="SSMG_04367" description="&lt;b&gt;SSMG_04367&lt;/b&gt;&lt;br&gt;glucarate dehydratase&lt;br&gt;Location: 4777738 - 4778998" points="55,35 60,30 78,30 78,40 60,40 55,35 " style="stroke-width:1; stroke:black; fill:white; " id="subclusterblast-18_q2_0_all" class="clusterblast-orf"  />
<polygon locus_tag="SSMG_04368" description="&lt;b&gt;SSMG_04368&lt;/b&gt;&lt;br&gt;5-dehydro-4-deoxyglucarate dehydratase&lt;br&gt;Location: 4778994 - 4779927" points="78,35 83,30 96,30 96,40 83,40 78,35 " style="stroke-width:1; stroke:black; fill:white; " id="subclusterblast-18_q3_0_all" class="clusterblast-orf"  />
<polygon locus_tag="SSMG_04369" description="&lt;b&gt;SSMG_04369&lt;/b&gt;&lt;br&gt;transcriptional regulator&lt;br&gt;Location: 4780056 - 4780854" points="98,40 108,40 113,35 108,30 98,30 98,40 " style="stroke-width:1; stroke:black; fill:white; " id="subclusterblast-18_q4_0_all" class="clusterblast-orf"  />
<polygon locus_tag="SSMG_04370" description="&lt;b&gt;SSMG_04370&lt;/b&gt;&lt;br&gt;NAD-dependent epimerase/dehydratase&lt;br&gt;Location: 4780902 - 4781727" points="114,40 124,40 129,35 124,30 114,30 114,40 " style="stroke-width:1; stroke:black; fill:white; " id="subclusterblast-18_q5_0_all" class="clusterblast-orf"  />
<polygon locus_tag="SSMG_04371" description="&lt;b&gt;SSMG_04371&lt;/b&gt;&lt;br&gt;predicted protein&lt;br&gt;Location: 4781768 - 4782650" points="129,40 141,40 146,35 141,30 129,30 129,40 " style="stroke-width:1; stroke:black; fill:white; " id="subclusterblast-18_q6_0_all" class="clusterblast-orf"  />
<polygon locus_tag="SSMG_04372" description="&lt;b&gt;SSMG_04372&lt;/b&gt;&lt;br&gt;maleylacetate reductase 1&lt;br&gt;Location: 4782744 - 4784670" points="147,40 178,40 183,35 178,30 147,30 147,40 " style="stroke-width:1; stroke:black; fill:white; " id="subclusterblast-18_q7_0_all" class="clusterblast-orf"  />
<polygon locus_tag="SSMG_04373" description="&lt;b&gt;SSMG_04373&lt;/b&gt;&lt;br&gt;chlorohydroquinone monooxygenase&lt;br&gt;Location: 4784656 - 4786387" points="183,40 209,40 214,35 209,30 183,30 183,40 " style="stroke-width:1; stroke:black; fill:white; " id="subclusterblast-18_q8_0_all" class="clusterblast-orf"  />
<polygon locus_tag="SSMG_04374" description="&lt;b&gt;SSMG_04374&lt;/b&gt;&lt;br&gt;conserved hypothetical protein&lt;br&gt;Location: 4786388 - 4788677" points="214,35 219,30 257,30 257,40 219,40 214,35 " style="stroke-width:1; stroke:black; fill:white; " id="subclusterblast-18_q9_0_all" class="clusterblast-orf"  />
<polygon locus_tag="SSMG_04375" description="&lt;b&gt;SSMG_04375&lt;/b&gt;&lt;br&gt;predicted protein&lt;br&gt;Location: 4788697 - 4791025" points="257,35 262,30 300,30 300,40 262,40 257,35 " style="stroke-width:1; stroke:black; fill:white; " id="subclusterblast-18_q10_0_all" class="clusterblast-orf"  />
<polygon locus_tag="SSMG_04376" description="&lt;b&gt;SSMG_04376&lt;/b&gt;&lt;br&gt;riboflavin biosynthesis protein RibD domain-containing protein&lt;br&gt;Location: 4791153 - 4791735" points="302,35 307,30 313,30 313,40 307,40 302,35 " style="stroke-width:1; stroke:black; fill:white; " id="subclusterblast-18_q11_0_all" class="clusterblast-orf"  />
<polygon locus_tag="SSMG_04377" description="&lt;b&gt;SSMG_04377&lt;/b&gt;&lt;br&gt;glyoxalase I/lactoylglutathione lyase&lt;br&gt;Location: 4791731 - 4792154" points="313,35 318,30 321,30 321,40 318,40 313,35 " style="stroke-width:1; stroke:black; fill:white; " id="subclusterblast-18_q12_0_all" class="clusterblast-orf"  />
<polygon locus_tag="SSMG_04378" description="&lt;b&gt;SSMG_04378&lt;/b&gt;&lt;br&gt;metallopeptidase&lt;br&gt;Location: 4792266 - 4793628" points="323,35 328,30 348,30 348,40 328,40 323,35 " style="stroke-width:1; stroke:black; fill:white; " id="subclusterblast-18_q13_0_all" class="clusterblast-orf"  />
<polygon locus_tag="SSMG_04379" description="&lt;b&gt;SSMG_04379&lt;/b&gt;&lt;br&gt;non-ribosomal peptide synthetase&lt;br&gt;Location: 4793707 - 4797589" points="349,35 354,30 420,30 420,40 354,40 349,35 " style="stroke-width:1; stroke:black; fill:white; " id="subclusterblast-18_q14_0_all" class="clusterblast-orf"  />
<polygon locus_tag="SSMG_04380" description="&lt;b&gt;SSMG_04380&lt;/b&gt;&lt;br&gt;ribosome-associated GTPase EngA&lt;br&gt;Location: 4797868 - 4799350" points="426,35 431,30 453,30 453,40 431,40 426,35 " style="stroke-width:1; stroke:black; fill:white; " id="subclusterblast-18_q15_0_all" class="clusterblast-orf"  />
<polygon locus_tag="SSMG_04381" description="&lt;b&gt;SSMG_04381&lt;/b&gt;&lt;br&gt;cytidylate kinase&lt;br&gt;Location: 4799366 - 4800023" points="453,35 458,30 465,30 465,40 458,40 453,35 " style="stroke-width:1; stroke:black; fill:white; " id="subclusterblast-18_q16_0_all" class="clusterblast-orf"  />
<polygon locus_tag="SSMG_04382" description="&lt;b&gt;SSMG_04382&lt;/b&gt;&lt;br&gt;cytidylate kinase&lt;br&gt;Location: 4800019 - 4800766" points="465,35 470,30 479,30 479,40 470,40 465,35 " style="stroke-width:1; stroke:black; fill:white; " id="subclusterblast-18_q17_0_all" class="clusterblast-orf"  />
<polygon locus_tag="SSMG_04383" description="&lt;b&gt;SSMG_04383&lt;/b&gt;&lt;br&gt;predicted protein&lt;br&gt;Location: 4800942 - 4801311" points="482,40 484,40 489,35 484,30 482,30 482,40 " style="stroke-width:1; stroke:black; fill:white; " id="subclusterblast-18_q18_0_all" class="clusterblast-orf"  />
<polygon locus_tag="SSMG_04384" description="&lt;b&gt;SSMG_04384&lt;/b&gt;&lt;br&gt;TrkA-C domain-containing protein&lt;br&gt;Location: 4801347 - 4801830" points="490,40 494,40 499,35 494,30 490,30 490,40 " style="stroke-width:1; stroke:black; fill:white; " id="subclusterblast-18_q19_0_all" class="clusterblast-orf"  />
<polygon locus_tag="SSMG_04385" description="&lt;b&gt;SSMG_04385&lt;/b&gt;&lt;br&gt;transmembrane transporter&lt;br&gt;Location: 4801829 - 4803020" points="498,40 515,40 520,35 515,30 498,30 498,40 " style="stroke-width:1; stroke:black; fill:white; " id="subclusterblast-18_q20_0_all" class="clusterblast-orf"  />
<polygon locus_tag="SSMG_04386" description="&lt;b&gt;SSMG_04386&lt;/b&gt;&lt;br&gt;X-prolyl-dipeptidyl aminopeptidase&lt;br&gt;Location: 4803098 - 4805000" points="522,35 527,30 557,30 557,40 527,40 522,35 " style="stroke-width:1; stroke:black; fill:white; " id="subclusterblast-18_q21_0_all" class="clusterblast-orf"  />
<polygon locus_tag="SSMG_04387" description="&lt;b&gt;SSMG_04387&lt;/b&gt;&lt;br&gt;pseudouridylate synthase ribosomal large subunit&lt;br&gt;Location: 4805088 - 4805841" points="558,35 563,30 572,30 572,40 563,40 558,35 " style="stroke-width:1; stroke:black; fill:white; " id="subclusterblast-18_q22_0_all" class="clusterblast-orf"  />
<polygon locus_tag="SSMG_04388" description="&lt;b&gt;SSMG_04388&lt;/b&gt;&lt;br&gt;segregation and condensation protein B&lt;br&gt;Location: 4805830 - 4806568" points="572,35 577,30 586,30 586,40 577,40 572,35 " style="stroke-width:1; stroke:black; fill:white; " id="subclusterblast-18_q23_0_all" class="clusterblast-orf"  />
<polygon locus_tag="SSMG_04389" description="&lt;b&gt;SSMG_04389&lt;/b&gt;&lt;br&gt;ScpA/B protein&lt;br&gt;Location: 4806714 - 4807719" points="588,35 593,30 607,30 607,40 593,40 588,35 " style="stroke-width:1; stroke:black; fill:white; " id="subclusterblast-18_q24_0_all" class="clusterblast-orf"  />
<polygon locus_tag="SSMG_04390" description="&lt;b&gt;SSMG_04390&lt;/b&gt;&lt;br&gt;cobyrinic acid ac-diamide synthase&lt;br&gt;Location: 4807718 - 4808135" points="607,35 612,30 614,30 614,40 612,40 607,35 " style="stroke-width:1; stroke:black; fill:white; " id="subclusterblast-18_q25_0_all" class="clusterblast-orf"  />
<polygon locus_tag="SSMG_04391" description="&lt;b&gt;SSMG_04391&lt;/b&gt;&lt;br&gt;partitioning or sporulation protein&lt;br&gt;Location: 4808131 - 4809181" points="614,35 619,30 634,30 634,40 619,40 614,35 " style="stroke-width:1; stroke:black; fill:white; " id="subclusterblast-18_q26_0_all" class="clusterblast-orf"  />
<polygon locus_tag="SSMG_04392" description="&lt;b&gt;SSMG_04392&lt;/b&gt;&lt;br&gt;tyrosine recombinase XerD&lt;br&gt;Location: 4809313 - 4810246" points="636,35 641,30 653,30 653,40 641,40 636,35 " style="stroke-width:1; stroke:black; fill:white; " id="subclusterblast-18_q27_0_all" class="clusterblast-orf"  />
<polygon locus_tag="SSMG_04393" description="&lt;b&gt;SSMG_04393&lt;/b&gt;&lt;br&gt;ADP-ribose pyrophosphatase&lt;br&gt;Location: 4810286 - 4810919" points="654,35 659,30 666,30 666,40 659,40 654,35 " style="stroke-width:1; stroke:black; fill:white; " id="subclusterblast-18_q28_0_all" class="clusterblast-orf"  />
<polygon locus_tag="SSMG_04394" description="&lt;b&gt;SSMG_04394&lt;/b&gt;&lt;br&gt;CTP synthase&lt;br&gt;Location: 4810915 - 4812616" points="666,35 671,30 697,30 697,40 671,40 666,35 " style="stroke-width:1; stroke:black; fill:white; " id="subclusterblast-18_q29_0_all" class="clusterblast-orf"  />
<polygon locus_tag="SSMG_04395" description="&lt;b&gt;SSMG_04395&lt;/b&gt;&lt;br&gt;3-phosphoshikimate 1-carboxyvinyltransferase&lt;br&gt;Location: 4812704 - 4814000" points="699,40 717,40 722,35 717,30 699,30 699,40 " style="stroke-width:1; stroke:black; fill:white; " id="subclusterblast-18_q30_0_all" class="clusterblast-orf"  />
<polygon locus_tag="SSMG_04396" description="&lt;b&gt;SSMG_04396&lt;/b&gt;&lt;br&gt;predicted protein&lt;br&gt;Location: 4813992 - 4814853" points="722,35 727,30 738,30 738,40 727,40 722,35 " style="stroke-width:1; stroke:black; fill:white; " id="subclusterblast-18_q31_0_all" class="clusterblast-orf"  />
<polygon locus_tag="SSMG_04397" description="&lt;b&gt;SSMG_04397&lt;/b&gt;&lt;br&gt;predicted protein&lt;br&gt;Location: 4814872 - 4815553" points="738,35 743,30 751,30 751,40 743,40 738,35 " style="stroke-width:1; stroke:black; fill:white; " id="subclusterblast-18_q32_0_all" class="clusterblast-orf"  />
<polygon locus_tag="SSMG_04398" description="&lt;b&gt;SSMG_04398&lt;/b&gt;&lt;br&gt;NCS1 nucleoside transporter&lt;br&gt;Location: 4815645 - 4817115" points="753,40 775,40 780,35 775,30 753,30 753,40 " style="stroke-width:1; stroke:black; fill:white; " id="subclusterblast-18_q33_0_all" class="clusterblast-orf"  />
</g>
</svg>
