<svg version="1.1" xmlns="http://www.w3.org/2000/svg" height="50" width="800" xmlns:xlink="http://www.w3.org/1999/xlink" preserveAspectRatio="none" x="0" y="0" viewBox="0 0 800 50"  >
<g label="Query sequence" class="clusterblast-cluster"  >
<text class="clusterblast-acc" y="20" x="5"  >
Query sequence</text>
<line x1="10" x2="778.0" y2="35" style="stroke-width:1; stroke:grey; " y1="35"  />
<polygon locus_tag="SSMG_07027" description="&lt;b&gt;SSMG_07027&lt;/b&gt;&lt;br&gt;predicted protein&lt;br&gt;Location: 7715160 - 7717953" points="1,35 6,30 347,30 347,40 6,40 1,35 " style="stroke-width:1; stroke:black; fill:white; " id="subclusterblast-25_q0_0_all" class="clusterblast-orf"  />
<polygon locus_tag="SSMG_07028" description="&lt;b&gt;SSMG_07028&lt;/b&gt;&lt;br&gt;ectoine hydroxylase&lt;br&gt;Location: 7718276 - 7719179" points="387,35 392,30 499,30 499,40 392,40 387,35 " style="stroke-width:1; stroke:black; fill:white; " id="subclusterblast-25_q1_0_all" class="clusterblast-orf"  />
<polygon locus_tag="SSMG_07029" description="&lt;b&gt;SSMG_07029&lt;/b&gt;&lt;br&gt;ectoine synthase&lt;br&gt;Location: 7719245 - 7719638" points="507,35 512,30 556,30 556,40 512,40 507,35 " style="stroke-width:1; stroke:black; fill:white; " id="subclusterblast-25_q2_0_all" class="clusterblast-orf"  />
<polygon locus_tag="SSMG_07030" description="&lt;b&gt;SSMG_07030&lt;/b&gt;&lt;br&gt;diaminobutyrate-2-oxoglutarate aminotransferase&lt;br&gt;Location: 7719669 - 7720920" points="559,35 564,30 714,30 714,40 564,40 559,35 " style="stroke-width:1; stroke:black; fill:white; " id="subclusterblast-25_q3_0_all" class="clusterblast-orf"  />
<polygon locus_tag="SSMG_07031" description="&lt;b&gt;SSMG_07031&lt;/b&gt;&lt;br&gt;L-2,4-diaminobutyric acid acetyltransferase&lt;br&gt;Location: 7720961 - 7721456" points="719,35 724,30 781,30 781,40 724,40 719,35 " style="stroke-width:1; stroke:black; fill:white; " id="subclusterblast-25_q4_0_all" class="clusterblast-orf"  />
</g>
</svg>
