<svg version="1.1" xmlns="http://www.w3.org/2000/svg" height="50" width="800" xmlns:xlink="http://www.w3.org/1999/xlink" preserveAspectRatio="none" x="0" y="0" viewBox="0 0 800 50"  >
<g label="Query sequence" class="clusterblast-cluster"  >
<text class="clusterblast-acc" y="20" x="5"  >
Query sequence</text>
<line x1="10" x2="778.0" y2="35" style="stroke-width:1; stroke:grey; " y1="35"  />
<polygon locus_tag="SSMG_03679" description="&lt;b&gt;SSMG_03679&lt;/b&gt;&lt;br&gt;conserved hypothetical protein&lt;br&gt;Location: 4007765 - 4008614" points="0,35 5,30 15,30 15,40 5,40 0,35 " style="stroke-width:1; stroke:black; fill:white; " id="subclusterblast-14_q0_0_all" class="clusterblast-orf"  />
<polygon locus_tag="SSMG_03680" description="&lt;b&gt;SSMG_03680&lt;/b&gt;&lt;br&gt;3-oxoacyl-[acyl-carrier-protein] reductase&lt;br&gt;Location: 4008610 - 4009336" points="15,35 20,30 28,30 28,40 20,40 15,35 " style="stroke-width:1; stroke:black; fill:white; " id="subclusterblast-14_q1_0_all" class="clusterblast-orf"  />
<polygon locus_tag="SSMG_03681" description="&lt;b&gt;SSMG_03681&lt;/b&gt;&lt;br&gt;cyclohexanecarboxyl-CoA dehydrogenase&lt;br&gt;Location: 4009343 - 4010492" points="28,35 33,30 48,30 48,40 33,40 28,35 " style="stroke-width:1; stroke:black; fill:white; " id="subclusterblast-14_q2_0_all" class="clusterblast-orf"  />
<polygon locus_tag="SSMG_03682" description="&lt;b&gt;SSMG_03682&lt;/b&gt;&lt;br&gt;predicted protein&lt;br&gt;Location: 4010488 - 4011319" points="48,35 53,30 63,30 63,40 53,40 48,35 " style="stroke-width:1; stroke:black; fill:white; " id="subclusterblast-14_q3_0_all" class="clusterblast-orf"  />
<polygon locus_tag="SSMG_03683" description="&lt;b&gt;SSMG_03683&lt;/b&gt;&lt;br&gt;cyclohexanecarboxyl-CoA dehydrogenase&lt;br&gt;Location: 4011315 - 4012503" points="63,35 68,30 84,30 84,40 68,40 63,35 " style="stroke-width:1; stroke:black; fill:white; " id="subclusterblast-14_q4_0_all" class="clusterblast-orf"  />
<polygon locus_tag="SSMG_03684" description="&lt;b&gt;SSMG_03684&lt;/b&gt;&lt;br&gt;predicted protein&lt;br&gt;Location: 4012692 - 4013370" points="88,40 95,40 100,35 95,30 88,30 88,40 " style="stroke-width:1; stroke:black; fill:white; " id="subclusterblast-14_q5_0_all" class="clusterblast-orf"  />
<polygon locus_tag="SSMG_03685" description="&lt;b&gt;SSMG_03685&lt;/b&gt;&lt;br&gt;amidase&lt;br&gt;Location: 4013427 - 4014879" points="101,40 122,40 127,35 122,30 101,30 101,40 " style="stroke-width:1; stroke:black; fill:white; " id="subclusterblast-14_q6_0_all" class="clusterblast-orf"  />
<polygon locus_tag="SSMG_03686" description="&lt;b&gt;SSMG_03686&lt;/b&gt;&lt;br&gt;predicted protein&lt;br&gt;Location: 4014997 - 4016458" points="129,40 150,40 155,35 150,30 129,30 129,40 " style="stroke-width:1; stroke:black; fill:white; " id="subclusterblast-14_q7_0_all" class="clusterblast-orf"  />
<polygon locus_tag="SSMG_03687" description="&lt;b&gt;SSMG_03687&lt;/b&gt;&lt;br&gt;predicted protein&lt;br&gt;Location: 4016454 - 4017525" points="155,40 169,40 174,35 169,30 155,30 155,40 " style="stroke-width:1; stroke:black; fill:white; " id="subclusterblast-14_q8_0_all" class="clusterblast-orf"  />
<polygon locus_tag="SSMG_03688" description="&lt;b&gt;SSMG_03688&lt;/b&gt;&lt;br&gt;predicted protein&lt;br&gt;Location: 4017546 - 4018155" points="174,40 180,40 185,35 180,30 174,30 174,40 " style="stroke-width:1; stroke:black; fill:white; " id="subclusterblast-14_q9_0_all" class="clusterblast-orf"  />
<polygon locus_tag="SSMG_03689" description="&lt;b&gt;SSMG_03689&lt;/b&gt;&lt;br&gt;cytochrome P450 CYP105&lt;br&gt;Location: 4018196 - 4019411" points="186,35 191,30 207,30 207,40 191,40 186,35 " style="stroke-width:1; stroke:black; fill:white; " id="subclusterblast-14_q10_0_all" class="clusterblast-orf"  />
<polygon locus_tag="SSMG_03690" description="&lt;b&gt;SSMG_03690&lt;/b&gt;&lt;br&gt;conserved hypothetical protein&lt;br&gt;Location: 4019493 - 4022595" points="209,35 214,30 264,30 264,40 214,40 209,35 " style="stroke-width:1; stroke:black; fill:white; " id="subclusterblast-14_q11_0_all" class="clusterblast-orf"  />
<polygon locus_tag="SSMG_03691" description="&lt;b&gt;SSMG_03691&lt;/b&gt;&lt;br&gt;predicted protein&lt;br&gt;Location: 4022591 - 4023416" points="264,35 269,30 279,30 279,40 269,40 264,35 " style="stroke-width:1; stroke:black; fill:white; " id="subclusterblast-14_q12_0_all" class="clusterblast-orf"  />
<polygon locus_tag="SSMG_03692" description="&lt;b&gt;SSMG_03692&lt;/b&gt;&lt;br&gt;phospholipase C, phosphocholine-specific&lt;br&gt;Location: 4023536 - 4025570" points="281,35 286,30 317,30 317,40 286,40 281,35 " style="stroke-width:1; stroke:black; fill:white; " id="subclusterblast-14_q13_0_all" class="clusterblast-orf"  />
<polygon locus_tag="SSMG_03693" description="&lt;b&gt;SSMG_03693&lt;/b&gt;&lt;br&gt;phospholipase C&lt;br&gt;Location: 4025622 - 4027221" points="318,35 323,30 347,30 347,40 323,40 318,35 " style="stroke-width:1; stroke:black; fill:white; " id="subclusterblast-14_q14_0_all" class="clusterblast-orf"  />
<polygon locus_tag="SSMG_03694" description="&lt;b&gt;SSMG_03694&lt;/b&gt;&lt;br&gt;predicted protein&lt;br&gt;Location: 4027528 - 4031518" points="352,35 357,30 423,30 423,40 357,40 352,35 " style="stroke-width:1; stroke:black; fill:white; " id="subclusterblast-14_q15_0_all" class="clusterblast-orf"  />
<polygon locus_tag="SSMG_03695" description="&lt;b&gt;SSMG_03695&lt;/b&gt;&lt;br&gt;sodium/calcium exchanger membrane region&lt;br&gt;Location: 4032435 - 4033482" points="440,40 453,40 458,35 453,30 440,30 440,40 " style="stroke-width:1; stroke:black; fill:white; " id="subclusterblast-14_q16_0_all" class="clusterblast-orf"  />
<polygon locus_tag="SSMG_03696" description="&lt;b&gt;SSMG_03696&lt;/b&gt;&lt;br&gt;predicted protein&lt;br&gt;Location: 4033617 - 4034883" points="461,40 478,40 483,35 478,30 461,30 461,40 " style="stroke-width:1; stroke:black; fill:white; " id="subclusterblast-14_q17_0_all" class="clusterblast-orf"  />
<polygon locus_tag="SSMG_03697" description="&lt;b&gt;SSMG_03697&lt;/b&gt;&lt;br&gt;predicted protein&lt;br&gt;Location: 4034913 - 4035825" points="484,35 489,30 500,30 500,40 489,40 484,35 " style="stroke-width:1; stroke:black; fill:white; " id="subclusterblast-14_q18_0_all" class="clusterblast-orf"  />
<polygon locus_tag="SSMG_03698" description="&lt;b&gt;SSMG_03698&lt;/b&gt;&lt;br&gt;UDP-glucose 4-epimerase&lt;br&gt;Location: 4035802 - 4036783" points="500,35 505,30 517,30 517,40 505,40 500,35 " style="stroke-width:1; stroke:black; fill:white; " id="subclusterblast-14_q19_0_all" class="clusterblast-orf"  />
<polygon locus_tag="SSMG_03699" description="&lt;b&gt;SSMG_03699&lt;/b&gt;&lt;br&gt;undecaprenyldiphospho-muramoylpentapeptide beta-N-acetylglucosaminyltransferase&lt;br&gt;Location: 4036779 - 4037943" points="517,35 522,30 538,30 538,40 522,40 517,35 " style="stroke-width:1; stroke:black; fill:white; " id="subclusterblast-14_q20_0_all" class="clusterblast-orf"  />
<polygon locus_tag="SSMG_03700" description="&lt;b&gt;SSMG_03700&lt;/b&gt;&lt;br&gt;phosphate regulon transcriptional regulatory protein PhoB&lt;br&gt;Location: 4038029 - 4038722" points="539,40 547,40 552,35 547,30 539,30 539,40 " style="stroke-width:1; stroke:black; fill:white; " id="subclusterblast-14_q21_0_all" class="clusterblast-orf"  />
<polygon locus_tag="SSMG_03701" description="&lt;b&gt;SSMG_03701&lt;/b&gt;&lt;br&gt;phosphate regulon sensor kinase PhoR&lt;br&gt;Location: 4038718 - 4040077" points="552,40 571,40 576,35 571,30 552,30 552,40 " style="stroke-width:1; stroke:black; fill:white; " id="subclusterblast-14_q22_0_all" class="clusterblast-orf"  />
<polygon locus_tag="SSMG_03702" description="&lt;b&gt;SSMG_03702&lt;/b&gt;&lt;br&gt;conserved hypothetical protein&lt;br&gt;Location: 4040125 - 4041112" points="577,40 589,40 594,35 589,30 577,30 577,40 " style="stroke-width:1; stroke:black; fill:white; " id="subclusterblast-14_q23_0_all" class="clusterblast-orf"  />
<polygon locus_tag="SSMG_03703" description="&lt;b&gt;SSMG_03703&lt;/b&gt;&lt;br&gt;predicted protein&lt;br&gt;Location: 4041120 - 4041924" points="594,35 599,30 609,30 609,40 599,40 594,35 " style="stroke-width:1; stroke:black; fill:white; " id="subclusterblast-14_q24_0_all" class="clusterblast-orf"  />
<polygon locus_tag="SSMG_03704" description="&lt;b&gt;SSMG_03704&lt;/b&gt;&lt;br&gt;predicted protein&lt;br&gt;Location: 4041920 - 4043375" points="609,35 614,30 635,30 635,40 614,40 609,35 " style="stroke-width:1; stroke:black; fill:white; " id="subclusterblast-14_q25_0_all" class="clusterblast-orf"  />
<polygon locus_tag="SSMG_03705" description="&lt;b&gt;SSMG_03705&lt;/b&gt;&lt;br&gt;histidinol dehydrogenase&lt;br&gt;Location: 4043452 - 4044769" points="636,35 641,30 659,30 659,40 641,40 636,35 " style="stroke-width:1; stroke:black; fill:white; " id="subclusterblast-14_q26_0_all" class="clusterblast-orf"  />
<polygon locus_tag="SSMG_03706" description="&lt;b&gt;SSMG_03706&lt;/b&gt;&lt;br&gt;transcriptional regulator&lt;br&gt;Location: 4044916 - 4045867" points="662,35 667,30 679,30 679,40 667,40 662,35 " style="stroke-width:1; stroke:black; fill:white; " id="subclusterblast-14_q27_0_all" class="clusterblast-orf"  />
<polygon locus_tag="SSMG_03707" description="&lt;b&gt;SSMG_03707&lt;/b&gt;&lt;br&gt;predicted protein&lt;br&gt;Location: 4045902 - 4046895" points="680,35 685,30 697,30 697,40 685,40 680,35 " style="stroke-width:1; stroke:black; fill:white; " id="subclusterblast-14_q28_0_all" class="clusterblast-orf"  />
<polygon locus_tag="SSMG_03708" description="&lt;b&gt;SSMG_03708&lt;/b&gt;&lt;br&gt;predicted protein&lt;br&gt;Location: 4047117 - 4048455" points="701,40 720,40 725,35 720,30 701,30 701,40 " style="stroke-width:1; stroke:black; fill:white; " id="subclusterblast-14_q29_0_all" class="clusterblast-orf"  />
<polygon locus_tag="SSMG_03709" description="&lt;b&gt;SSMG_03709&lt;/b&gt;&lt;br&gt;predicted protein&lt;br&gt;Location: 4048494 - 4049487" points="726,35 731,30 744,30 744,40 731,40 726,35 " style="stroke-width:1; stroke:black; fill:white; " id="subclusterblast-14_q30_0_all" class="clusterblast-orf"  />
<polygon locus_tag="SSMG_03710" description="&lt;b&gt;SSMG_03710&lt;/b&gt;&lt;br&gt;predicted protein&lt;br&gt;Location: 4049668 - 4050796" points="747,40 762,40 767,35 762,30 747,30 747,40 " style="stroke-width:1; stroke:black; fill:white; " id="subclusterblast-14_q31_0_all" class="clusterblast-orf"  />
<polygon locus_tag="SSMG_03711" description="&lt;b&gt;SSMG_03711&lt;/b&gt;&lt;br&gt;predicted protein&lt;br&gt;Location: 4050792 - 4051515" points="767,40 775,40 780,35 775,30 767,30 767,40 " style="stroke-width:1; stroke:black; fill:white; " id="subclusterblast-14_q32_0_all" class="clusterblast-orf"  />
</g>
</svg>
