<svg version="1.1" xmlns="http://www.w3.org/2000/svg" height="230" width="800" xmlns:xlink="http://www.w3.org/1999/xlink" preserveAspectRatio="none" x="0" y="0" viewBox="0 0 800 230"  >
<g label="Query sequence" class="clusterblast-cluster"  >
<text class="clusterblast-acc" y="20" x="5"  >
Query sequence</text>
<line x1="10" x2="778.0" y2="35" style="stroke-width:1; stroke:grey; " y1="35"  />
<polygon locus_tag="SSMG_03375" description="&lt;b&gt;SSMG_03375&lt;/b&gt;&lt;br&gt;predicted protein&lt;br&gt;Location: 3680898 - 3681750" points="184,40 188,40 193,35 188,30 184,30 184,40 " style="stroke-width:1; stroke:black; fill:white; " id="dummy-13_q0_0_all" class="clusterblast-orf"  />
<polygon locus_tag="SSMG_03376" description="&lt;b&gt;SSMG_03376&lt;/b&gt;&lt;br&gt;predicted protein&lt;br&gt;Location: 3681823 - 3683095" points="193,35 198,30 205,30 205,40 198,40 193,35 " style="stroke-width:1; stroke:black; fill:white; " id="dummy-13_q1_0_all" class="clusterblast-orf"  />
<polygon locus_tag="SSMG_03377" description="&lt;b&gt;SSMG_03377&lt;/b&gt;&lt;br&gt;ECF sub family sigma-70 factor&lt;br&gt;Location: 3683266 - 3683791" points="207,40 207,40 212,35 207,30 207,30 207,40 " style="stroke-width:1; stroke:black; fill:white; " id="dummy-13_q2_0_all" class="clusterblast-orf"  />
<polygon locus_tag="SSMG_03378" description="&lt;b&gt;SSMG_03378&lt;/b&gt;&lt;br&gt;predicted protein&lt;br&gt;Location: 3683787 - 3684474" points="212,40 214,40 219,35 214,30 212,30 212,40 " style="stroke-width:1; stroke:black; fill:white; " id="dummy-13_q3_0_all" class="clusterblast-orf"  />
<polygon locus_tag="SSMG_03379" description="&lt;b&gt;SSMG_03379&lt;/b&gt;&lt;br&gt;predicted protein&lt;br&gt;Location: 3684512 - 3684920" points="219,40 223,35 219,30 219,40 " style="stroke-width:1; stroke:black; fill:white; " id="dummy-13_q4_0_all" class="clusterblast-orf"  />
<polygon locus_tag="SSMG_03380" description="&lt;b&gt;SSMG_03380&lt;/b&gt;&lt;br&gt;metallophosphoesterase&lt;br&gt;Location: 3684916 - 3685855" points="223,40 227,40 232,35 227,30 223,30 223,40 " style="stroke-width:1; stroke:black; fill:white; " id="dummy-13_q5_0_all" class="clusterblast-orf"  />
<polygon locus_tag="SSMG_03381" description="&lt;b&gt;SSMG_03381&lt;/b&gt;&lt;br&gt;predicted protein&lt;br&gt;Location: 3685851 - 3686256" points="232,40 236,35 232,30 232,40 " style="stroke-width:1; stroke:black; fill:white; " id="dummy-13_q6_0_all" class="clusterblast-orf"  />
<polygon locus_tag="SSMG_03382" description="&lt;b&gt;SSMG_03382&lt;/b&gt;&lt;br&gt;transcriptional regulator&lt;br&gt;Location: 3686293 - 3686932" points="236,35 241,30 242,30 242,40 241,40 236,35 " style="stroke-width:1; stroke:black; fill:white; " id="dummy-13_q7_0_all" class="clusterblast-orf"  />
<polygon locus_tag="SSMG_03383" description="&lt;b&gt;SSMG_03383&lt;/b&gt;&lt;br&gt;conserved hypothetical protein&lt;br&gt;Location: 3686936 - 3687500" points="242,35 247,30 248,30 248,40 247,40 242,35 " style="stroke-width:1; stroke:black; fill:white; " id="dummy-13_q8_0_all" class="clusterblast-orf"  />
<polygon locus_tag="SSMG_03384" description="&lt;b&gt;SSMG_03384&lt;/b&gt;&lt;br&gt;predicted protein&lt;br&gt;Location: 3687873 - 3688647" points="251,35 256,30 259,30 259,40 256,40 251,35 " style="stroke-width:1; stroke:black; fill:white; " id="dummy-13_q9_0_all" class="clusterblast-orf"  />
<polygon locus_tag="SSMG_03385" description="&lt;b&gt;SSMG_03385&lt;/b&gt;&lt;br&gt;predicted protein&lt;br&gt;Location: 3688668 - 3689325" points="259,35 264,30 265,30 265,40 264,40 259,35 " style="stroke-width:1; stroke:black; fill:white; " id="dummy-13_q10_0_all" class="clusterblast-orf"  />
<polygon locus_tag="SSMG_03386" description="&lt;b&gt;SSMG_03386&lt;/b&gt;&lt;br&gt;predicted protein&lt;br&gt;Location: 3689568 - 3689937" points="267,35 271,30 271,40 267,35 " style="stroke-width:1; stroke:black; fill:white; " id="dummy-13_q11_0_all" class="clusterblast-orf"  />
<polygon locus_tag="SSMG_03387" description="&lt;b&gt;SSMG_03387&lt;/b&gt;&lt;br&gt;conserved hypothetical protein&lt;br&gt;Location: 3689917 - 3690343" points="271,35 275,30 275,40 271,35 " style="stroke-width:1; stroke:black; fill:white; " id="dummy-13_q12_0_all" class="clusterblast-orf"  />
<polygon locus_tag="SSMG_03388" description="&lt;b&gt;SSMG_03388&lt;/b&gt;&lt;br&gt;short chain dehydrogenase&lt;br&gt;Location: 3690377 - 3691079" points="275,35 280,30 282,30 282,40 280,40 275,35 " style="stroke-width:1; stroke:black; fill:white; " id="dummy-13_q13_0_all" class="clusterblast-orf"  />
<polygon locus_tag="SSMG_03389" description="&lt;b&gt;SSMG_03389&lt;/b&gt;&lt;br&gt;conserved hypothetical protein&lt;br&gt;Location: 3691165 - 3691654" points="283,40 287,35 283,30 283,40 " style="stroke-width:1; stroke:black; fill:white; " id="dummy-13_q14_0_all" class="clusterblast-orf"  />
<polygon locus_tag="SSMG_03390" description="&lt;b&gt;SSMG_03390&lt;/b&gt;&lt;br&gt;acetyl-CoA C-acyltransferase FadA&lt;br&gt;Location: 3691709 - 3692876" points="288,35 293,30 299,30 299,40 293,40 288,35 " style="stroke-width:1; stroke:black; fill:white; " id="dummy-13_q15_0_all" class="clusterblast-orf"  />
<polygon locus_tag="SSMG_03391" description="&lt;b&gt;SSMG_03391&lt;/b&gt;&lt;br&gt;transcriptional regulator&lt;br&gt;Location: 3692998 - 3693439" points="300,40 304,35 300,30 300,40 " style="stroke-width:1; stroke:black; fill:white; " id="dummy-13_q16_0_all" class="clusterblast-orf"  />
<polygon locus_tag="SSMG_03392" description="&lt;b&gt;SSMG_03392&lt;/b&gt;&lt;br&gt;predicted protein&lt;br&gt;Location: 3693425 - 3693881" points="304,40 304,40 309,35 304,30 304,30 304,40 " style="stroke-width:1; stroke:black; fill:white; " id="dummy-13_q17_0_all" class="clusterblast-orf"  />
<polygon locus_tag="SSMG_03393" description="&lt;b&gt;SSMG_03393&lt;/b&gt;&lt;br&gt;CalU8&lt;br&gt;Location: 3693975 - 3694626" points="310,40 311,40 316,35 311,30 310,30 310,40 " style="stroke-width:1; stroke:black; fill:white; " id="dummy-13_q18_0_all" class="clusterblast-orf"  />
<polygon locus_tag="SSMG_03394" description="&lt;b&gt;SSMG_03394&lt;/b&gt;&lt;br&gt;predicted protein&lt;br&gt;Location: 3695111 - 3696059" points="320,40 324,40 329,35 324,30 320,30 320,40 " style="stroke-width:1; stroke:black; fill:white; " id="dummy-13_q19_0_all" class="clusterblast-orf"  />
<polygon locus_tag="SSMG_03395" description="&lt;b&gt;SSMG_03395&lt;/b&gt;&lt;br&gt;FG-GAP repeat-containing protein&lt;br&gt;Location: 3696112 - 3698014" points="330,40 343,40 348,35 343,30 330,30 330,40 " style="stroke-width:1; stroke:black; fill:white; " id="dummy-13_q20_0_all" class="clusterblast-orf"  />
<polygon locus_tag="SSMG_03396" description="&lt;b&gt;SSMG_03396&lt;/b&gt;&lt;br&gt;UnbU protein&lt;br&gt;Location: 3698010 - 3699000" points="348,40 353,40 358,35 353,30 348,30 348,40 " style="stroke-width:1; stroke:black; fill:#d81515; " id="dummy-13_q21_0_all" class="clusterblast-orf"  />
<polygon locus_tag="SSMG_03397" description="&lt;b&gt;SSMG_03397&lt;/b&gt;&lt;br&gt;predicted protein&lt;br&gt;Location: 3700172 - 3704279" points="369,40 403,40 408,35 403,30 369,30 369,40 " style="stroke-width:1; stroke:black; fill:white; " id="dummy-13_q22_0_all" class="clusterblast-orf"  />
<polygon locus_tag="SSMG_03398" description="&lt;b&gt;SSMG_03398&lt;/b&gt;&lt;br&gt;TebC protein&lt;br&gt;Location: 3704275 - 3704689" points="408,40 412,35 408,30 408,40 " style="stroke-width:1; stroke:black; fill:white; " id="dummy-13_q23_0_all" class="clusterblast-orf"  />
<polygon locus_tag="SSMG_03399" description="&lt;b&gt;SSMG_03399&lt;/b&gt;&lt;br&gt;predicted protein&lt;br&gt;Location: 3704698 - 3706147" points="412,40 421,40 426,35 421,30 412,30 412,40 " style="stroke-width:1; stroke:black; fill:white; " id="dummy-13_q24_0_all" class="clusterblast-orf"  />
<polygon locus_tag="SSMG_03400" description="&lt;b&gt;SSMG_03400&lt;/b&gt;&lt;br&gt;methionine synthase vitamin-B12 independent&lt;br&gt;Location: 3706143 - 3707229" points="426,40 431,40 436,35 431,30 426,30 426,40 " style="stroke-width:1; stroke:black; fill:white; " id="dummy-13_q25_0_all" class="clusterblast-orf"  />
<polygon locus_tag="SSMG_03401" description="&lt;b&gt;SSMG_03401&lt;/b&gt;&lt;br&gt;CalU12&lt;br&gt;Location: 3707219 - 3707882" points="436,35 441,30 443,30 443,40 441,40 436,35 " style="stroke-width:1; stroke:black; fill:white; " id="dummy-13_q26_0_all" class="clusterblast-orf"  />
<polygon locus_tag="SSMG_03402" description="&lt;b&gt;SSMG_03402&lt;/b&gt;&lt;br&gt;ATP-dependent chaperone ClpB&lt;br&gt;Location: 3708067 - 3710563" points="444,40 463,40 468,35 463,30 444,30 444,40 " style="stroke-width:1; stroke:black; fill:white; " id="dummy-13_q27_0_all" class="clusterblast-orf"  />
<polygon locus_tag="SSMG_03403" description="&lt;b&gt;SSMG_03403&lt;/b&gt;&lt;br&gt;CalU10&lt;br&gt;Location: 3710746 - 3711949" points="470,40 477,40 482,35 477,30 470,30 470,40 " style="stroke-width:1; stroke:black; fill:white; " id="dummy-13_q28_0_all" class="clusterblast-orf"  />
<polygon locus_tag="SSMG_03404" description="&lt;b&gt;SSMG_03404&lt;/b&gt;&lt;br&gt;CalE3&lt;br&gt;Location: 3712083 - 3712944" points="483,40 486,40 491,35 486,30 483,30 483,40 " style="stroke-width:1; stroke:black; fill:#15d815; " id="dummy-13_q29_0_all" class="clusterblast-orf"  />
<polygon locus_tag="SSMG_03405" description="&lt;b&gt;SSMG_03405&lt;/b&gt;&lt;br&gt;predicted protein&lt;br&gt;Location: 3712943 - 3713582" points="491,40 492,40 497,35 492,30 491,30 491,40 " style="stroke-width:1; stroke:black; fill:white; " id="dummy-13_q30_0_all" class="clusterblast-orf"  />
<polygon locus_tag="SSMG_03406" description="&lt;b&gt;SSMG_03406&lt;/b&gt;&lt;br&gt;CalR9&lt;br&gt;Location: 3713574 - 3714834" points="497,40 504,40 509,35 504,30 497,30 497,40 " style="stroke-width:1; stroke:black; fill:white; " id="dummy-13_q31_0_all" class="clusterblast-orf"  />
<polygon locus_tag="SSMG_03407" description="&lt;b&gt;SSMG_03407&lt;/b&gt;&lt;br&gt;transcriptional regulator&lt;br&gt;Location: 3715094 - 3715925" points="512,40 515,40 520,35 515,30 512,30 512,40 " style="stroke-width:1; stroke:black; fill:white; " id="dummy-13_q32_0_all" class="clusterblast-orf"  />
<polygon locus_tag="SSMG_03408" description="&lt;b&gt;SSMG_03408&lt;/b&gt;&lt;br&gt;predicted protein&lt;br&gt;Location: 3715940 - 3716801" points="520,35 525,30 528,30 528,40 525,40 520,35 " style="stroke-width:1; stroke:black; fill:white; " id="dummy-13_q33_0_all" class="clusterblast-orf"  />
<polygon locus_tag="SSMG_03409" description="&lt;b&gt;SSMG_03409&lt;/b&gt;&lt;br&gt;predicted protein&lt;br&gt;Location: 3717072 - 3717516" points="531,40 535,35 531,30 531,40 " style="stroke-width:1; stroke:black; fill:white; " id="dummy-13_q34_0_all" class="clusterblast-orf"  />
<polygon locus_tag="SSMG_03410" description="&lt;b&gt;SSMG_03410&lt;/b&gt;&lt;br&gt;predicted protein&lt;br&gt;Location: 3717512 - 3718970" points="535,40 544,40 549,35 544,30 535,30 535,40 " style="stroke-width:1; stroke:black; fill:white; " id="dummy-13_q35_0_all" class="clusterblast-orf"  />
<polygon locus_tag="SSMG_03411" description="&lt;b&gt;SSMG_03411&lt;/b&gt;&lt;br&gt;predicted protein&lt;br&gt;Location: 3718979 - 3720668" points="549,35 554,30 565,30 565,40 554,40 549,35 " style="stroke-width:1; stroke:black; fill:white; " id="dummy-13_q36_0_all" class="clusterblast-orf"  />
<polygon locus_tag="SSMG_03412" description="&lt;b&gt;SSMG_03412&lt;/b&gt;&lt;br&gt;CalE9&lt;br&gt;Location: 3720664 - 3721978" points="565,35 570,30 578,30 578,40 570,40 565,35 " style="stroke-width:1; stroke:black; fill:#1515d8; " id="dummy-13_q37_0_all" class="clusterblast-orf"  />
<polygon locus_tag="SSMG_03413" description="&lt;b&gt;SSMG_03413&lt;/b&gt;&lt;br&gt;CalT6&lt;br&gt;Location: 3722072 - 3723779" points="578,40 590,40 595,35 590,30 578,30 578,40 " style="stroke-width:1; stroke:black; fill:white; " id="dummy-13_q38_0_all" class="clusterblast-orf"  />
</g>
<g label="AF497482" description="AF497482_c2: calicheamicin enediyne (23% of genes show similarity), enediyne" class="clusterblast-cluster"  >
<text class="clusterblast-acc" y="70" x="5"  >
AF497482_c2: calicheamicin enediyne (23% of genes show similarity), enediyne</text>
<line x1="10" x2="778.0" y2="85" style="stroke-width:1; stroke:grey; " y1="85"  />
</g>
<g id="a13_000"  >
<polygon locus_tag="AF497482_2_calE10" description="&lt;b&gt;AF497482_2_calE10&lt;/b&gt;&lt;br&gt;CalE10&lt;br&gt;Location: 85229 - 84045" points="0,85 5,80 11,80 11,90 5,90 0,85 " style="stroke-width:1; stroke:black; fill:white; " id="dummy-13_h13_1_0" class="clusterblast-orf"  />
</g>
<g id="a13_001"  >
<polygon locus_tag="AF497482_2_calE9" description="&lt;b&gt;AF497482_2_calE9&lt;/b&gt;&lt;br&gt;CalE9&lt;br&gt;Location: 63463 - 62177&lt;br&gt;&lt;br&gt;&lt;b&gt;BlastP hit with SSMG_03412&lt;/b&gt;&lt;br&gt;Percentage identity: 77&lt;br&gt;Percentage coverage: 96&lt;br&gt;BLAST bit score: 672&lt;br&gt;E-value: 0.0" points="208,85 213,80 220,80 220,90 213,90 208,85 " style="stroke-width:1; stroke:black; fill:#1515d8; " id="dummy-13_h13_1_1" class="clusterblast-orf"  />
</g>
<g id="a13_002"  >
<polygon locus_tag="AF497482_2_calU15" description="&lt;b&gt;AF497482_2_calU15&lt;/b&gt;&lt;br&gt;CalU15&lt;br&gt;Location: 48416 - 47448" points="352,90 356,90 361,85 356,80 352,80 352,90 " style="stroke-width:1; stroke:black; fill:white; " id="dummy-13_h13_1_2" class="clusterblast-orf"  />
</g>
<g id="a13_003"  >
<polygon locus_tag="AF497482_2_calU14" description="&lt;b&gt;AF497482_2_calU14&lt;/b&gt;&lt;br&gt;CalU14&lt;br&gt;Location: 47426 - 45471" points="361,90 375,90 380,85 375,80 361,80 361,90 " style="stroke-width:1; stroke:black; fill:white; " id="dummy-13_h13_1_3" class="clusterblast-orf"  />
</g>
<g id="a13_004"  >
<polygon locus_tag="AF497482_2_calT3" description="&lt;b&gt;AF497482_2_calT3&lt;/b&gt;&lt;br&gt;CalT3&lt;br&gt;Location: 45474 - 44509&lt;br&gt;&lt;br&gt;&lt;b&gt;BlastP hit with SSMG_03396&lt;/b&gt;&lt;br&gt;Percentage identity: 52&lt;br&gt;Percentage coverage: 92&lt;br&gt;BLAST bit score: 285&lt;br&gt;E-value: 4.44e-97" points="380,90 384,90 389,85 384,80 380,80 380,90 " style="stroke-width:1; stroke:black; fill:#d81515; " id="dummy-13_h13_1_4" class="clusterblast-orf"  />
</g>
<g id="a13_005"  >
<polygon locus_tag="AF497482_2_calE8" description="&lt;b&gt;AF497482_2_calE8&lt;/b&gt;&lt;br&gt;CalE8&lt;br&gt;Location: 44512 - 38753" points="389,90 439,90 444,85 439,80 389,80 389,90 " style="stroke-width:1; stroke:black; fill:white; " id="dummy-13_h13_1_5" class="clusterblast-orf"  />
</g>
<g id="a13_006"  >
<polygon locus_tag="AF497482_2_calE7" description="&lt;b&gt;AF497482_2_calE7&lt;/b&gt;&lt;br&gt;CalE7&lt;br&gt;Location: 38756 - 38310" points="444,90 444,90 449,85 444,80 444,80 444,90 " style="stroke-width:1; stroke:black; fill:white; " id="dummy-13_h13_1_6" class="clusterblast-orf"  />
</g>
<g id="a13_007"  >
<polygon locus_tag="AF497482_2_calE6" description="&lt;b&gt;AF497482_2_calE6&lt;/b&gt;&lt;br&gt;CalE6&lt;br&gt;Location: 38313 - 37168" points="448,90 454,90 459,85 454,80 448,80 448,90 " style="stroke-width:1; stroke:black; fill:white; " id="dummy-13_h13_1_7" class="clusterblast-orf"  />
</g>
<g id="a13_008"  >
<polygon locus_tag="AF497482_2_calE5" description="&lt;b&gt;AF497482_2_calE5&lt;/b&gt;&lt;br&gt;CalE5&lt;br&gt;Location: 34553 - 33669" points="484,90 488,90 493,85 488,80 484,80 484,90 " style="stroke-width:1; stroke:black; fill:white; " id="dummy-13_h13_1_8" class="clusterblast-orf"  />
</g>
<g id="a13_009"  >
<polygon locus_tag="AF497482_2_calE4" description="&lt;b&gt;AF497482_2_calE4&lt;/b&gt;&lt;br&gt;CalE4&lt;br&gt;Location: 32797 - 31589" points="501,90 508,90 513,85 508,80 501,80 501,90 " style="stroke-width:1; stroke:black; fill:white; " id="dummy-13_h13_1_9" class="clusterblast-orf"  />
</g>
<g id="a13_0010"  >
<polygon locus_tag="AF497482_2_calE3" description="&lt;b&gt;AF497482_2_calE3&lt;/b&gt;&lt;br&gt;CalE3&lt;br&gt;Location: 20794 - 19901&lt;br&gt;&lt;br&gt;&lt;b&gt;BlastP hit with SSMG_03404&lt;/b&gt;&lt;br&gt;Percentage identity: 62&lt;br&gt;Percentage coverage: 103&lt;br&gt;BLAST bit score: 354&lt;br&gt;E-value: 3.09e-125" points="616,85 621,80 625,80 625,90 621,90 616,85 " style="stroke-width:1; stroke:black; fill:#15d815; " id="dummy-13_h13_1_10" class="clusterblast-orf"  />
</g>
<g id="a13_0011"  >
<polygon locus_tag="AF497482_2_calE2" description="&lt;b&gt;AF497482_2_calE2&lt;/b&gt;&lt;br&gt;CalE2&lt;br&gt;Location: 15017 - 14103" points="671,85 676,80 680,80 680,90 676,90 671,85 " style="stroke-width:1; stroke:black; fill:white; " id="dummy-13_h13_1_11" class="clusterblast-orf"  />
</g>
<g id="a13_0012"  >
<polygon locus_tag="AF497482_2_calE1" description="&lt;b&gt;AF497482_2_calE1&lt;/b&gt;&lt;br&gt;CalE1&lt;br&gt;Location: 5048 - 3723" points="767,85 772,80 780,80 780,90 772,90 767,85 " style="stroke-width:1; stroke:black; fill:white; " id="dummy-13_h13_1_12" class="clusterblast-orf"  />
</g>
</svg>
