<svg version="1.1" xmlns="http://www.w3.org/2000/svg" height="50" width="800" xmlns:xlink="http://www.w3.org/1999/xlink" preserveAspectRatio="none" x="0" y="0" viewBox="0 0 800 50"  >
<g label="Query sequence" class="clusterblast-cluster"  >
<text class="clusterblast-acc" y="20" x="5"  >
Query sequence</text>
<line x1="10" x2="778.0" y2="35" style="stroke-width:1; stroke:grey; " y1="35"  />
<polygon locus_tag="SSMG_00995" description="&lt;b&gt;SSMG_00995&lt;/b&gt;&lt;br&gt;predicted protein&lt;br&gt;Location: 1052056 - 1052755" points="0,40 21,40 26,35 21,30 0,30 0,40 " style="stroke-width:1; stroke:black; fill:white; " id="subclusterblast-3_q0_0_all" class="clusterblast-orf"  />
<polygon locus_tag="SSMG_00996" description="&lt;b&gt;SSMG_00996&lt;/b&gt;&lt;br&gt;cytochrome P450 hydroxylase&lt;br&gt;Location: 1052894 - 1054115" points="31,40 72,40 77,35 72,30 31,30 31,40 " style="stroke-width:1; stroke:black; fill:white; " id="subclusterblast-3_q1_0_all" class="clusterblast-orf"  />
<polygon locus_tag="SSMG_00997" description="&lt;b&gt;SSMG_00997&lt;/b&gt;&lt;br&gt;transposase IS116/IS110/IS902 family protein&lt;br&gt;Location: 1054138 - 1055371" points="78,35 83,30 125,30 125,40 83,40 78,35 " style="stroke-width:1; stroke:black; fill:white; " id="subclusterblast-3_q2_0_all" class="clusterblast-orf"  />
<polygon locus_tag="SSMG_00998" description="&lt;b&gt;SSMG_00998&lt;/b&gt;&lt;br&gt;predicted protein&lt;br&gt;Location: 1055392 - 1055722" points="125,40 133,40 138,35 133,30 125,30 125,40 " style="stroke-width:1; stroke:black; fill:white; " id="subclusterblast-3_q3_0_all" class="clusterblast-orf"  />
<polygon locus_tag="SSMG_00999" description="&lt;b&gt;SSMG_00999&lt;/b&gt;&lt;br&gt;predicted protein&lt;br&gt;Location: 1055732 - 1055927" points="138,40 141,40 146,35 141,30 138,30 138,40 " style="stroke-width:1; stroke:black; fill:white; " id="subclusterblast-3_q4_0_all" class="clusterblast-orf"  />
<polygon locus_tag="SSMG_01000" description="&lt;b&gt;SSMG_01000&lt;/b&gt;&lt;br&gt;transcriptional regulator&lt;br&gt;Location: 1055976 - 1056777" points="147,40 172,40 177,35 172,30 147,30 147,40 " style="stroke-width:1; stroke:black; fill:white; " id="subclusterblast-3_q5_0_all" class="clusterblast-orf"  />
<polygon locus_tag="SSMG_01001" description="&lt;b&gt;SSMG_01001&lt;/b&gt;&lt;br&gt;methyltransferase type 11&lt;br&gt;Location: 1056742 - 1057531" points="176,35 181,30 206,30 206,40 181,40 176,35 " style="stroke-width:1; stroke:black; fill:white; " id="subclusterblast-3_q6_0_all" class="clusterblast-orf"  />
<polygon locus_tag="SSMG_01002" description="&lt;b&gt;SSMG_01002&lt;/b&gt;&lt;br&gt;predicted protein&lt;br&gt;Location: 1057505 - 1057736" points="205,35 210,30 214,30 214,40 210,40 205,35 " style="stroke-width:1; stroke:black; fill:white; " id="subclusterblast-3_q7_0_all" class="clusterblast-orf"  />
<polygon locus_tag="SSMG_01003" description="&lt;b&gt;SSMG_01003&lt;/b&gt;&lt;br&gt;glutaredoxin&lt;br&gt;Location: 1057732 - 1057972" points="213,35 218,30 222,30 222,40 218,40 213,35 " style="stroke-width:1; stroke:black; fill:white; " id="subclusterblast-3_q8_0_all" class="clusterblast-orf"  />
<polygon locus_tag="SSMG_01004" description="&lt;b&gt;SSMG_01004&lt;/b&gt;&lt;br&gt;predicted protein&lt;br&gt;Location: 1057968 - 1060089" points="222,35 227,30 302,30 302,40 227,40 222,35 " style="stroke-width:1; stroke:black; fill:white; " id="subclusterblast-3_q9_0_all" class="clusterblast-orf"  />
<polygon locus_tag="SSMG_01005" description="&lt;b&gt;SSMG_01005&lt;/b&gt;&lt;br&gt;predicted protein&lt;br&gt;Location: 1060085 - 1060751" points="302,35 307,30 327,30 327,40 307,40 302,35 " style="stroke-width:1; stroke:black; fill:white; " id="subclusterblast-3_q10_0_all" class="clusterblast-orf"  />
<polygon locus_tag="SSMG_01006" description="&lt;b&gt;SSMG_01006&lt;/b&gt;&lt;br&gt;predicted protein&lt;br&gt;Location: 1060669 - 1061392" points="324,35 329,30 351,30 351,40 329,40 324,35 " style="stroke-width:1; stroke:black; fill:white; " id="subclusterblast-3_q11_0_all" class="clusterblast-orf"  />
<polygon locus_tag="SSMG_01007" description="&lt;b&gt;SSMG_01007&lt;/b&gt;&lt;br&gt;terpene synthase&lt;br&gt;Location: 1061718 - 1063962" points="363,35 368,30 448,30 448,40 368,40 363,35 " style="stroke-width:1; stroke:black; fill:white; " id="subclusterblast-3_q12_0_all" class="clusterblast-orf"  />
<polygon locus_tag="SSMG_01008" description="&lt;b&gt;SSMG_01008&lt;/b&gt;&lt;br&gt;conserved hypothetical protein&lt;br&gt;Location: 1064394 - 1065990" points="464,40 519,40 524,35 519,30 464,30 464,40 " style="stroke-width:1; stroke:black; fill:white; " id="subclusterblast-3_q13_0_all" class="clusterblast-orf"  />
<polygon locus_tag="SSMG_01009" description="&lt;b&gt;SSMG_01009&lt;/b&gt;&lt;br&gt;hydrolase&lt;br&gt;Location: 1066040 - 1068095" points="526,35 531,30 603,30 603,40 531,40 526,35 " style="stroke-width:1; stroke:black; fill:white; " id="subclusterblast-3_q14_0_all" class="clusterblast-orf"  />
<polygon locus_tag="SSMG_01010" description="&lt;b&gt;SSMG_01010&lt;/b&gt;&lt;br&gt;sugar transport integral membrane protein&lt;br&gt;Location: 1068101 - 1068971" points="604,35 609,30 636,30 636,40 609,40 604,35 " style="stroke-width:1; stroke:black; fill:white; " id="subclusterblast-3_q15_0_all" class="clusterblast-orf"  />
<polygon locus_tag="SSMG_01011" description="&lt;b&gt;SSMG_01011&lt;/b&gt;&lt;br&gt;sugar transport integral membrane protein&lt;br&gt;Location: 1068972 - 1069923" points="636,35 641,30 672,30 672,40 641,40 636,35 " style="stroke-width:1; stroke:black; fill:white; " id="subclusterblast-3_q16_0_all" class="clusterblast-orf"  />
<polygon locus_tag="SSMG_01012" description="&lt;b&gt;SSMG_01012&lt;/b&gt;&lt;br&gt;sugar transport sugar binding protein&lt;br&gt;Location: 1069919 - 1071305" points="672,35 677,30 724,30 724,40 677,40 672,35 " style="stroke-width:1; stroke:black; fill:white; " id="subclusterblast-3_q17_0_all" class="clusterblast-orf"  />
<polygon locus_tag="SSMG_01013" description="&lt;b&gt;SSMG_01013&lt;/b&gt;&lt;br&gt;catabolite control protein A&lt;br&gt;Location: 1071441 - 1072476" points="729,40 763,40 768,35 763,30 729,30 729,40 " style="stroke-width:1; stroke:black; fill:white; " id="subclusterblast-3_q18_0_all" class="clusterblast-orf"  />
<polygon locus_tag="SSMG_01014" description="&lt;b&gt;SSMG_01014&lt;/b&gt;&lt;br&gt;predicted protein&lt;br&gt;Location: 1072468 - 1072789" points="768,40 775,40 780,35 775,30 768,30 768,40 " style="stroke-width:1; stroke:black; fill:white; " id="subclusterblast-3_q19_0_all" class="clusterblast-orf"  />
</g>
</svg>
