<svg version="1.1" xmlns="http://www.w3.org/2000/svg" height="50" width="800" xmlns:xlink="http://www.w3.org/1999/xlink" preserveAspectRatio="none" x="0" y="0" viewBox="0 0 800 50"  >
<g label="Query sequence" class="clusterblast-cluster"  >
<text class="clusterblast-acc" y="20" x="5"  >
Query sequence</text>
<line x1="10" x2="778.0" y2="35" style="stroke-width:1; stroke:grey; " y1="35"  />
<polygon locus_tag="SSMG_02824" description="&lt;b&gt;SSMG_02824&lt;/b&gt;&lt;br&gt;RNA polymerase sigma-C factor&lt;br&gt;Location: 3055539 - 3056109" points="0,40 4,40 9,35 4,30 0,30 0,40 " style="stroke-width:1; stroke:black; fill:white; " id="subclusterblast-10_q0_0_all" class="clusterblast-orf"  />
<polygon locus_tag="SSMG_02825" description="&lt;b&gt;SSMG_02825&lt;/b&gt;&lt;br&gt;hypothetical protein&lt;br&gt;Location: 3056738 - 3058676" points="19,40 46,40 51,35 46,30 19,30 19,40 " style="stroke-width:1; stroke:black; fill:white; " id="subclusterblast-10_q1_0_all" class="clusterblast-orf"  />
<polygon locus_tag="SSMG_02826" description="&lt;b&gt;SSMG_02826&lt;/b&gt;&lt;br&gt;conserved hypothetical protein&lt;br&gt;Location: 3058827 - 3059061" points="53,35 57,30 57,40 53,35 " style="stroke-width:1; stroke:black; fill:white; " id="subclusterblast-10_q2_0_all" class="clusterblast-orf"  />
<polygon locus_tag="SSMG_02827" description="&lt;b&gt;SSMG_02827&lt;/b&gt;&lt;br&gt;copper-translocating P-type ATPase&lt;br&gt;Location: 3059250 - 3061485" points="60,40 91,40 96,35 91,30 60,30 60,40 " style="stroke-width:1; stroke:black; fill:white; " id="subclusterblast-10_q3_0_all" class="clusterblast-orf"  />
<polygon locus_tag="SSMG_02828" description="&lt;b&gt;SSMG_02828&lt;/b&gt;&lt;br&gt;predicted protein&lt;br&gt;Location: 3061548 - 3062046" points="97,40 100,40 105,35 100,30 97,30 97,40 " style="stroke-width:1; stroke:black; fill:white; " id="subclusterblast-10_q4_0_all" class="clusterblast-orf"  />
<polygon locus_tag="SSMG_02829" description="&lt;b&gt;SSMG_02829&lt;/b&gt;&lt;br&gt;aminodeoxychorismate synthase, component I&lt;br&gt;Location: 3062390 - 3063599" points="111,40 125,40 130,35 125,30 111,30 111,40 " style="stroke-width:1; stroke:black; fill:white; " id="subclusterblast-10_q5_0_all" class="clusterblast-orf"  />
<polygon locus_tag="SSMG_02830" description="&lt;b&gt;SSMG_02830&lt;/b&gt;&lt;br&gt;3-deoxy-7-phosphoheptulonate synthase&lt;br&gt;Location: 3063579 - 3063789" points="130,40 134,35 130,30 130,40 " style="stroke-width:1; stroke:black; fill:white; " id="subclusterblast-10_q6_0_all" class="clusterblast-orf"  />
<polygon locus_tag="SSMG_02831" description="&lt;b&gt;SSMG_02831&lt;/b&gt;&lt;br&gt;predicted protein&lt;br&gt;Location: 3063880 - 3064720" points="135,35 140,30 149,30 149,40 140,40 135,35 " style="stroke-width:1; stroke:black; fill:white; " id="subclusterblast-10_q7_0_all" class="clusterblast-orf"  />
<polygon locus_tag="SSMG_02832" description="&lt;b&gt;SSMG_02832&lt;/b&gt;&lt;br&gt;dicarboxylate-CoA ligase PimA&lt;br&gt;Location: 3064922 - 3066551" points="152,40 173,40 178,35 173,30 152,30 152,40 " style="stroke-width:1; stroke:black; fill:white; " id="subclusterblast-10_q8_0_all" class="clusterblast-orf"  />
<polygon locus_tag="SSMG_02833" description="&lt;b&gt;SSMG_02833&lt;/b&gt;&lt;br&gt;short-chain dehydrogenase/reductase SDR&lt;br&gt;Location: 3066582 - 3067380" points="179,40 187,40 192,35 187,30 179,30 179,40 " style="stroke-width:1; stroke:black; fill:white; " id="subclusterblast-10_q9_0_all" class="clusterblast-orf"  />
<polygon locus_tag="SSMG_02834" description="&lt;b&gt;SSMG_02834&lt;/b&gt;&lt;br&gt;predicted protein&lt;br&gt;Location: 3067466 - 3068045" points="193,35 198,30 203,30 203,40 198,40 193,35 " style="stroke-width:1; stroke:black; fill:white; " id="subclusterblast-10_q10_0_all" class="clusterblast-orf"  />
<polygon locus_tag="SSMG_02835" description="&lt;b&gt;SSMG_02835&lt;/b&gt;&lt;br&gt;predicted protein&lt;br&gt;Location: 3068090 - 3068735" points="203,40 209,40 214,35 209,30 203,30 203,40 " style="stroke-width:1; stroke:black; fill:white; " id="subclusterblast-10_q11_0_all" class="clusterblast-orf"  />
<polygon locus_tag="SSMG_02836" description="&lt;b&gt;SSMG_02836&lt;/b&gt;&lt;br&gt;predicted protein&lt;br&gt;Location: 3068749 - 3069541" points="214,35 219,30 227,30 227,40 219,40 214,35 " style="stroke-width:1; stroke:black; fill:white; " id="subclusterblast-10_q12_0_all" class="clusterblast-orf"  />
<polygon locus_tag="SSMG_02837" description="&lt;b&gt;SSMG_02837&lt;/b&gt;&lt;br&gt;predicted protein&lt;br&gt;Location: 3069974 - 3070925" points="234,35 239,30 249,30 249,40 239,40 234,35 " style="stroke-width:1; stroke:black; fill:white; " id="subclusterblast-10_q13_0_all" class="clusterblast-orf"  />
<polygon locus_tag="SSMG_02838" description="&lt;b&gt;SSMG_02838&lt;/b&gt;&lt;br&gt;O-succinylbenzoate-CoA ligase&lt;br&gt;Location: 3070921 - 3072493" points="249,35 254,30 275,30 275,40 254,40 249,35 " style="stroke-width:1; stroke:black; fill:white; " id="subclusterblast-10_q14_0_all" class="clusterblast-orf"  />
<polygon locus_tag="SSMG_02839" description="&lt;b&gt;SSMG_02839&lt;/b&gt;&lt;br&gt;2-ketocyclohexanecarboxyl-CoA hydrolase&lt;br&gt;Location: 3072489 - 3073230" points="275,35 280,30 287,30 287,40 280,40 275,35 " style="stroke-width:1; stroke:black; fill:white; " id="subclusterblast-10_q15_0_all" class="clusterblast-orf"  />
<polygon locus_tag="SSMG_02840" description="&lt;b&gt;SSMG_02840&lt;/b&gt;&lt;br&gt;formyl-CoA transferase&lt;br&gt;Location: 3073229 - 3074420" points="287,35 292,30 306,30 306,40 292,40 287,35 " style="stroke-width:1; stroke:black; fill:white; " id="subclusterblast-10_q16_0_all" class="clusterblast-orf"  />
<polygon locus_tag="SSMG_02841" description="&lt;b&gt;SSMG_02841&lt;/b&gt;&lt;br&gt;2-ketocyclohexanecarboxyl-CoA hydrolase&lt;br&gt;Location: 3074416 - 3075148" points="306,35 311,30 318,30 318,40 311,40 306,35 " style="stroke-width:1; stroke:black; fill:white; " id="subclusterblast-10_q17_0_all" class="clusterblast-orf"  />
<polygon locus_tag="SSMG_02842" description="&lt;b&gt;SSMG_02842&lt;/b&gt;&lt;br&gt;isopropylmalate/homocitrate/citramalate synthase&lt;br&gt;Location: 3075155 - 3076076" points="318,35 323,30 333,30 333,40 323,40 318,35 " style="stroke-width:1; stroke:black; fill:white; " id="subclusterblast-10_q18_0_all" class="clusterblast-orf"  />
<polygon locus_tag="SSMG_02843" description="&lt;b&gt;SSMG_02843&lt;/b&gt;&lt;br&gt;transcriptional regulator&lt;br&gt;Location: 3076137 - 3076671" points="334,35 339,30 343,30 343,40 339,40 334,35 " style="stroke-width:1; stroke:black; fill:white; " id="subclusterblast-10_q19_0_all" class="clusterblast-orf"  />
<polygon locus_tag="SSMG_02844" description="&lt;b&gt;SSMG_02844&lt;/b&gt;&lt;br&gt;4-hydroxyphenylacetate permease&lt;br&gt;Location: 3076720 - 3078058" points="343,40 360,40 365,35 360,30 343,30 343,40 " style="stroke-width:1; stroke:black; fill:white; " id="subclusterblast-10_q20_0_all" class="clusterblast-orf"  />
<polygon locus_tag="SSMG_02845" description="&lt;b&gt;SSMG_02845&lt;/b&gt;&lt;br&gt;transcriptional regulator&lt;br&gt;Location: 3078181 - 3079615" points="367,40 385,40 390,35 385,30 367,30 367,40 " style="stroke-width:1; stroke:black; fill:white; " id="subclusterblast-10_q21_0_all" class="clusterblast-orf"  />
<polygon locus_tag="SSMG_02846" description="&lt;b&gt;SSMG_02846&lt;/b&gt;&lt;br&gt;non-ribosomal peptide synthetase&lt;br&gt;Location: 3079854 - 3083772" points="394,40 453,40 458,35 453,30 394,30 394,40 " style="stroke-width:1; stroke:black; fill:white; " id="subclusterblast-10_q22_0_all" class="clusterblast-orf"  />
<polygon locus_tag="SSMG_02847" description="&lt;b&gt;SSMG_02847&lt;/b&gt;&lt;br&gt;formyl-CoA transferase&lt;br&gt;Location: 3083841 - 3085032" points="459,35 464,30 478,30 478,40 464,40 459,35 " style="stroke-width:1; stroke:black; fill:white; " id="subclusterblast-10_q23_0_all" class="clusterblast-orf"  />
<polygon locus_tag="SSMG_02848" description="&lt;b&gt;SSMG_02848&lt;/b&gt;&lt;br&gt;cyclohexanecarboxyl-CoA dehydrogenase&lt;br&gt;Location: 3085031 - 3086222" points="478,35 483,30 498,30 498,40 483,40 478,35 " style="stroke-width:1; stroke:black; fill:white; " id="subclusterblast-10_q24_0_all" class="clusterblast-orf"  />
<polygon locus_tag="SSMG_02849" description="&lt;b&gt;SSMG_02849&lt;/b&gt;&lt;br&gt;predicted protein&lt;br&gt;Location: 3086340 - 3087081" points="500,40 507,40 512,35 507,30 500,30 500,40 " style="stroke-width:1; stroke:black; fill:white; " id="subclusterblast-10_q25_0_all" class="clusterblast-orf"  />
<polygon locus_tag="SSMG_02850" description="&lt;b&gt;SSMG_02850&lt;/b&gt;&lt;br&gt;predicted protein&lt;br&gt;Location: 3087226 - 3088543" points="514,40 530,40 535,35 530,30 514,30 514,40 " style="stroke-width:1; stroke:black; fill:white; " id="subclusterblast-10_q26_0_all" class="clusterblast-orf"  />
<polygon locus_tag="SSMG_02851" description="&lt;b&gt;SSMG_02851&lt;/b&gt;&lt;br&gt;predicted protein&lt;br&gt;Location: 3088653 - 3089235" points="537,35 542,30 546,30 546,40 542,40 537,35 " style="stroke-width:1; stroke:black; fill:white; " id="subclusterblast-10_q27_0_all" class="clusterblast-orf"  />
<polygon locus_tag="SSMG_02852" description="&lt;b&gt;SSMG_02852&lt;/b&gt;&lt;br&gt;predicted protein&lt;br&gt;Location: 3089418 - 3090249" points="549,40 558,40 563,35 558,30 549,30 549,40 " style="stroke-width:1; stroke:black; fill:white; " id="subclusterblast-10_q28_0_all" class="clusterblast-orf"  />
<polygon locus_tag="SSMG_02853" description="&lt;b&gt;SSMG_02853&lt;/b&gt;&lt;br&gt;glycosyl transferase&lt;br&gt;Location: 3090245 - 3092261" points="563,40 591,40 596,35 591,30 563,30 563,40 " style="stroke-width:1; stroke:black; fill:white; " id="subclusterblast-10_q29_0_all" class="clusterblast-orf"  />
<polygon locus_tag="SSMG_02854" description="&lt;b&gt;SSMG_02854&lt;/b&gt;&lt;br&gt;immunoreactive 87kD antigen PG92&lt;br&gt;Location: 3092331 - 3095499" points="597,35 602,30 648,30 648,40 602,40 597,35 " style="stroke-width:1; stroke:black; fill:white; " id="subclusterblast-10_q30_0_all" class="clusterblast-orf"  />
<polygon locus_tag="SSMG_02855" description="&lt;b&gt;SSMG_02855&lt;/b&gt;&lt;br&gt;predicted protein&lt;br&gt;Location: 3096001 - 3097363" points="656,35 661,30 678,30 678,40 661,40 656,35 " style="stroke-width:1; stroke:black; fill:white; " id="subclusterblast-10_q31_0_all" class="clusterblast-orf"  />
<polygon locus_tag="SSMG_02856" description="&lt;b&gt;SSMG_02856&lt;/b&gt;&lt;br&gt;glyoxylate carboligase&lt;br&gt;Location: 3097406 - 3099266" points="679,35 684,30 709,30 709,40 684,40 679,35 " style="stroke-width:1; stroke:black; fill:white; " id="subclusterblast-10_q32_0_all" class="clusterblast-orf"  />
<polygon locus_tag="SSMG_02857" description="&lt;b&gt;SSMG_02857&lt;/b&gt;&lt;br&gt;myo-inositol catabolism IolB protein&lt;br&gt;Location: 3099262 - 3100069" points="709,35 714,30 722,30 722,40 714,40 709,35 " style="stroke-width:1; stroke:black; fill:white; " id="subclusterblast-10_q33_0_all" class="clusterblast-orf"  />
<polygon locus_tag="SSMG_02858" description="&lt;b&gt;SSMG_02858&lt;/b&gt;&lt;br&gt;deoxyribose-phosphate aldolase superfamily protein&lt;br&gt;Location: 3100065 - 3100932" points="722,35 727,30 736,30 736,40 727,40 722,35 " style="stroke-width:1; stroke:black; fill:white; " id="subclusterblast-10_q34_0_all" class="clusterblast-orf"  />
<polygon locus_tag="SSMG_02859" description="&lt;b&gt;SSMG_02859&lt;/b&gt;&lt;br&gt;PfkB domain-containing protein&lt;br&gt;Location: 3100928 - 3101876" points="736,35 741,30 752,30 752,40 741,40 736,35 " style="stroke-width:1; stroke:black; fill:white; " id="subclusterblast-10_q35_0_all" class="clusterblast-orf"  />
<polygon locus_tag="SSMG_02860" description="&lt;b&gt;SSMG_02860&lt;/b&gt;&lt;br&gt;phosphonate metabolism transcriptional regulator PhnF&lt;br&gt;Location: 3101966 - 3102731" points="753,40 761,40 766,35 761,30 753,30 753,40 " style="stroke-width:1; stroke:black; fill:white; " id="subclusterblast-10_q36_0_all" class="clusterblast-orf"  />
<polygon locus_tag="SSMG_02861" description="&lt;b&gt;SSMG_02861&lt;/b&gt;&lt;br&gt;2-ketocyclohexanecarboxyl-CoA hydrolase&lt;br&gt;Location: 3102790 - 3103603" points="766,35 771,30 780,30 780,40 771,40 766,35 " style="stroke-width:1; stroke:black; fill:white; " id="subclusterblast-10_q37_0_all" class="clusterblast-orf"  />
</g>
</svg>
