<svg version="1.1" xmlns="http://www.w3.org/2000/svg" height="50" width="800" xmlns:xlink="http://www.w3.org/1999/xlink" preserveAspectRatio="none" x="0" y="0" viewBox="0 0 800 50"  >
<g label="Query sequence" class="clusterblast-cluster"  >
<text class="clusterblast-acc" y="20" x="5"  >
Query sequence</text>
<line x1="10" x2="778.0" y2="35" style="stroke-width:1; stroke:grey; " y1="35"  />
<polygon locus_tag="SSMG_06194" description="&lt;b&gt;SSMG_06194&lt;/b&gt;&lt;br&gt;predicted protein&lt;br&gt;Location: 6829393 - 6830566" points="0,35 5,30 45,30 45,40 5,40 0,35 " style="stroke-width:1; stroke:black; fill:white; " id="subclusterblast-23_q0_0_all" class="clusterblast-orf"  />
<polygon locus_tag="SSMG_06195" description="&lt;b&gt;SSMG_06195&lt;/b&gt;&lt;br&gt;nitrilotriacetate monooxygenase component B&lt;br&gt;Location: 6830694 - 6831291" points="49,35 54,30 72,30 72,40 54,40 49,35 " style="stroke-width:1; stroke:black; fill:white; " id="subclusterblast-23_q1_0_all" class="clusterblast-orf"  />
<polygon locus_tag="SSMG_06196" description="&lt;b&gt;SSMG_06196&lt;/b&gt;&lt;br&gt;cobalt-zinc-cadmium resistance protein&lt;br&gt;Location: 6831301 - 6832222" points="73,35 78,30 108,30 108,40 78,40 73,35 " style="stroke-width:1; stroke:black; fill:white; " id="subclusterblast-23_q2_0_all" class="clusterblast-orf"  />
<polygon locus_tag="SSMG_06197" description="&lt;b&gt;SSMG_06197&lt;/b&gt;&lt;br&gt;epoxide hydrolase 1&lt;br&gt;Location: 6832356 - 6833478" points="113,35 118,30 156,30 156,40 118,40 113,35 " style="stroke-width:1; stroke:black; fill:white; " id="subclusterblast-23_q3_0_all" class="clusterblast-orf"  />
<polygon locus_tag="SSMG_06198" description="&lt;b&gt;SSMG_06198&lt;/b&gt;&lt;br&gt;predicted protein&lt;br&gt;Location: 6834815 - 6836270" points="207,35 212,30 262,30 262,40 212,40 207,35 " style="stroke-width:1; stroke:black; fill:white; " id="subclusterblast-23_q4_0_all" class="clusterblast-orf"  />
<polygon locus_tag="SSMG_06199" description="&lt;b&gt;SSMG_06199&lt;/b&gt;&lt;br&gt;predicted protein&lt;br&gt;Location: 6836347 - 6837520" points="265,35 270,30 310,30 310,40 270,40 265,35 " style="stroke-width:1; stroke:black; fill:white; " id="subclusterblast-23_q5_0_all" class="clusterblast-orf"  />
<polygon locus_tag="SSMG_06200" description="&lt;b&gt;SSMG_06200&lt;/b&gt;&lt;br&gt;permease&lt;br&gt;Location: 6837627 - 6839307" points="314,35 319,30 378,30 378,40 319,40 314,35 " style="stroke-width:1; stroke:black; fill:white; " id="subclusterblast-23_q6_0_all" class="clusterblast-orf"  />
<polygon locus_tag="SSMG_06201" description="&lt;b&gt;SSMG_06201&lt;/b&gt;&lt;br&gt;predicted protein&lt;br&gt;Location: 6839303 - 6839987" points="378,35 383,30 404,30 404,40 383,40 378,35 " style="stroke-width:1; stroke:black; fill:white; " id="subclusterblast-23_q7_0_all" class="clusterblast-orf"  />
<polygon locus_tag="SSMG_06202" description="&lt;b&gt;SSMG_06202&lt;/b&gt;&lt;br&gt;hypothetical protein&lt;br&gt;Location: 6840900 - 6841356" points="439,35 444,30 456,30 456,40 444,40 439,35 " style="stroke-width:1; stroke:black; fill:white; " id="subclusterblast-23_q8_0_all" class="clusterblast-orf"  />
<polygon locus_tag="SSMG_06203" description="&lt;b&gt;SSMG_06203&lt;/b&gt;&lt;br&gt;conserved hypothetical protein&lt;br&gt;Location: 6841440 - 6841770" points="459,40 467,40 472,35 467,30 459,30 459,40 " style="stroke-width:1; stroke:black; fill:white; " id="subclusterblast-23_q9_0_all" class="clusterblast-orf"  />
<polygon locus_tag="SSMG_06204" description="&lt;b&gt;SSMG_06204&lt;/b&gt;&lt;br&gt;conserved hypothetical protein&lt;br&gt;Location: 6841803 - 6842352" points="473,40 489,40 494,35 489,30 473,30 473,40 " style="stroke-width:1; stroke:black; fill:white; " id="subclusterblast-23_q10_0_all" class="clusterblast-orf"  />
<polygon locus_tag="SSMG_06205" description="&lt;b&gt;SSMG_06205&lt;/b&gt;&lt;br&gt;predicted protein&lt;br&gt;Location: 6842412 - 6843192" points="496,35 501,30 526,30 526,40 501,40 496,35 " style="stroke-width:1; stroke:black; fill:white; " id="subclusterblast-23_q11_0_all" class="clusterblast-orf"  />
<polygon locus_tag="SSMG_06206" description="&lt;b&gt;SSMG_06206&lt;/b&gt;&lt;br&gt;predicted protein&lt;br&gt;Location: 6843246 - 6846084" points="528,35 533,30 636,30 636,40 533,40 528,35 " style="stroke-width:1; stroke:black; fill:white; " id="subclusterblast-23_q12_0_all" class="clusterblast-orf"  />
<polygon locus_tag="SSMG_06207" description="&lt;b&gt;SSMG_06207&lt;/b&gt;&lt;br&gt;acetyltransferase&lt;br&gt;Location: 6846127 - 6846682" points="638,35 643,30 659,30 659,40 643,40 638,35 " style="stroke-width:1; stroke:black; fill:white; " id="subclusterblast-23_q13_0_all" class="clusterblast-orf"  />
<polygon locus_tag="SSMG_06208" description="&lt;b&gt;SSMG_06208&lt;/b&gt;&lt;br&gt;imidazolonepropionase&lt;br&gt;Location: 6846678 - 6847995" points="659,35 664,30 709,30 709,40 664,40 659,35 " style="stroke-width:1; stroke:black; fill:white; " id="subclusterblast-23_q14_0_all" class="clusterblast-orf"  />
<polygon locus_tag="SSMG_06209" description="&lt;b&gt;SSMG_06209&lt;/b&gt;&lt;br&gt;predicted protein&lt;br&gt;Location: 6847993 - 6848437" points="709,40 721,40 726,35 721,30 709,30 709,40 " style="stroke-width:1; stroke:black; fill:white; " id="subclusterblast-23_q15_0_all" class="clusterblast-orf"  />
<polygon locus_tag="SSMG_06210" description="&lt;b&gt;SSMG_06210&lt;/b&gt;&lt;br&gt;predicted protein&lt;br&gt;Location: 6848525 - 6849854" points="729,35 734,30 780,30 780,40 734,40 729,35 " style="stroke-width:1; stroke:black; fill:white; " id="subclusterblast-23_q16_0_all" class="clusterblast-orf"  />
</g>
</svg>
