<svg version="1.1" xmlns="http://www.w3.org/2000/svg" height="50" width="800" xmlns:xlink="http://www.w3.org/1999/xlink" preserveAspectRatio="none" x="0" y="0" viewBox="0 0 800 50"  >
<g label="Query sequence" class="clusterblast-cluster"  >
<text class="clusterblast-acc" y="20" x="5"  >
Query sequence</text>
<line x1="10" x2="778.0" y2="35" style="stroke-width:1; stroke:grey; " y1="35"  />
<polygon locus_tag="SSMG_07210" description="&lt;b&gt;SSMG_07210&lt;/b&gt;&lt;br&gt;HAD-superfamily subfamily IB&lt;br&gt;Location: 7911286 - 7912108" points="0,40 5,40 10,35 5,30 0,30 0,40 " style="stroke-width:1; stroke:black; fill:white; " id="subclusterblast-26_q0_0_all" class="clusterblast-orf"  />
<polygon locus_tag="SSMG_07211" description="&lt;b&gt;SSMG_07211&lt;/b&gt;&lt;br&gt;beta-N-Acetylglucosaminidase&lt;br&gt;Location: 7912745 - 7914542" points="19,40 37,40 42,35 37,30 19,30 19,40 " style="stroke-width:1; stroke:black; fill:white; " id="subclusterblast-26_q1_0_all" class="clusterblast-orf"  />
<polygon locus_tag="SSMG_07212" description="&lt;b&gt;SSMG_07212&lt;/b&gt;&lt;br&gt;conserved hypothetical protein&lt;br&gt;Location: 7914592 - 7915819" points="43,40 54,40 59,35 54,30 43,30 43,40 " style="stroke-width:1; stroke:black; fill:white; " id="subclusterblast-26_q2_0_all" class="clusterblast-orf"  />
<polygon locus_tag="SSMG_07213" description="&lt;b&gt;SSMG_07213&lt;/b&gt;&lt;br&gt;beta-lactamase&lt;br&gt;Location: 7915869 - 7917585" points="60,40 77,40 82,35 77,30 60,30 60,40 " style="stroke-width:1; stroke:black; fill:white; " id="subclusterblast-26_q3_0_all" class="clusterblast-orf"  />
<polygon locus_tag="SSMG_07214" description="&lt;b&gt;SSMG_07214&lt;/b&gt;&lt;br&gt;transcriptional regulator&lt;br&gt;Location: 7917796 - 7918798" points="85,40 93,40 98,35 93,30 85,30 85,40 " style="stroke-width:1; stroke:black; fill:white; " id="subclusterblast-26_q4_0_all" class="clusterblast-orf"  />
<polygon locus_tag="SSMG_07215" description="&lt;b&gt;SSMG_07215&lt;/b&gt;&lt;br&gt;N-acetylmuramic acid 6-phosphate etherase&lt;br&gt;Location: 7918817 - 7919744" points="98,40 105,40 110,35 105,30 98,30 98,40 " style="stroke-width:1; stroke:black; fill:white; " id="subclusterblast-26_q5_0_all" class="clusterblast-orf"  />
<polygon locus_tag="SSMG_07216" description="&lt;b&gt;SSMG_07216&lt;/b&gt;&lt;br&gt;high-affinity nickel-transporter&lt;br&gt;Location: 7919817 - 7920912" points="111,40 121,40 126,35 121,30 111,30 111,40 " style="stroke-width:1; stroke:black; fill:white; " id="subclusterblast-26_q6_0_all" class="clusterblast-orf"  />
<polygon locus_tag="SSMG_07217" description="&lt;b&gt;SSMG_07217&lt;/b&gt;&lt;br&gt;alkylhydroperoxidase AhpD&lt;br&gt;Location: 7921132 - 7921585" points="129,35 134,30 135,30 135,40 134,40 129,35 " style="stroke-width:1; stroke:black; fill:white; " id="subclusterblast-26_q7_0_all" class="clusterblast-orf"  />
<polygon locus_tag="SSMG_07218" description="&lt;b&gt;SSMG_07218&lt;/b&gt;&lt;br&gt;sigma factor&lt;br&gt;Location: 7921656 - 7922535" points="136,40 142,40 147,35 142,30 136,30 136,40 " style="stroke-width:1; stroke:black; fill:white; " id="subclusterblast-26_q8_0_all" class="clusterblast-orf"  />
<polygon locus_tag="SSMG_07219" description="&lt;b&gt;SSMG_07219&lt;/b&gt;&lt;br&gt;oxidoreductase&lt;br&gt;Location: 7922537 - 7923437" points="147,35 152,30 159,30 159,40 152,40 147,35 " style="stroke-width:1; stroke:black; fill:white; " id="subclusterblast-26_q9_0_all" class="clusterblast-orf"  />
<polygon locus_tag="SSMG_07220" description="&lt;b&gt;SSMG_07220&lt;/b&gt;&lt;br&gt;TetR family protein transcriptional regulator&lt;br&gt;Location: 7923501 - 7924071" points="160,40 162,40 167,35 162,30 160,30 160,40 " style="stroke-width:1; stroke:black; fill:white; " id="subclusterblast-26_q10_0_all" class="clusterblast-orf"  />
<polygon locus_tag="SSMG_07221" description="&lt;b&gt;SSMG_07221&lt;/b&gt;&lt;br&gt;GAF domain-containing protein&lt;br&gt;Location: 7924055 - 7925972" points="167,35 172,30 192,30 192,40 172,40 167,35 " style="stroke-width:1; stroke:black; fill:white; " id="subclusterblast-26_q11_0_all" class="clusterblast-orf"  />
<polygon locus_tag="SSMG_07222" description="&lt;b&gt;SSMG_07222&lt;/b&gt;&lt;br&gt;integral membrane transporter&lt;br&gt;Location: 7925872 - 7927255" points="191,35 196,30 209,30 209,40 196,40 191,35 " style="stroke-width:1; stroke:black; fill:white; " id="subclusterblast-26_q12_0_all" class="clusterblast-orf"  />
<polygon locus_tag="SSMG_07223" description="&lt;b&gt;SSMG_07223&lt;/b&gt;&lt;br&gt;2-hydroxycyclohexanecarboxyl-CoA dehydrogenase&lt;br&gt;Location: 7927214 - 7927964" points="208,35 213,30 218,30 218,40 213,40 208,35 " style="stroke-width:1; stroke:black; fill:white; " id="subclusterblast-26_q13_0_all" class="clusterblast-orf"  />
<polygon locus_tag="SSMG_07224" description="&lt;b&gt;SSMG_07224&lt;/b&gt;&lt;br&gt;predicted protein&lt;br&gt;Location: 7928053 - 7928776" points="219,35 224,30 229,30 229,40 224,40 219,35 " style="stroke-width:1; stroke:black; fill:white; " id="subclusterblast-26_q14_0_all" class="clusterblast-orf"  />
<polygon locus_tag="SSMG_07225" description="&lt;b&gt;SSMG_07225&lt;/b&gt;&lt;br&gt;purine phosphoribosyltransferase&lt;br&gt;Location: 7928858 - 7929356" points="230,35 235,30 236,30 236,40 235,40 230,35 " style="stroke-width:1; stroke:black; fill:white; " id="subclusterblast-26_q15_0_all" class="clusterblast-orf"  />
<polygon locus_tag="SSMG_07226" description="&lt;b&gt;SSMG_07226&lt;/b&gt;&lt;br&gt;acetyltransferase&lt;br&gt;Location: 7929469 - 7930048" points="238,40 240,40 245,35 240,30 238,30 238,40 " style="stroke-width:1; stroke:black; fill:white; " id="subclusterblast-26_q16_0_all" class="clusterblast-orf"  />
<polygon locus_tag="SSMG_07227" description="&lt;b&gt;SSMG_07227&lt;/b&gt;&lt;br&gt;acetate-CoA ligase&lt;br&gt;Location: 7930166 - 7932146" points="247,40 268,40 273,35 268,30 247,30 247,40 " style="stroke-width:1; stroke:black; fill:white; " id="subclusterblast-26_q17_0_all" class="clusterblast-orf"  />
<polygon locus_tag="SSMG_07228" description="&lt;b&gt;SSMG_07228&lt;/b&gt;&lt;br&gt;predicted protein&lt;br&gt;Location: 7932283 - 7932799" points="275,40 277,40 282,35 277,30 275,30 275,40 " style="stroke-width:1; stroke:black; fill:white; " id="subclusterblast-26_q18_0_all" class="clusterblast-orf"  />
<polygon locus_tag="SSMG_07229" description="&lt;b&gt;SSMG_07229&lt;/b&gt;&lt;br&gt;predicted protein&lt;br&gt;Location: 7932861 - 7933200" points="282,35 287,30 287,30 287,40 287,40 282,35 " style="stroke-width:1; stroke:black; fill:white; " id="subclusterblast-26_q19_0_all" class="clusterblast-orf"  />
<polygon locus_tag="SSMG_07230" description="&lt;b&gt;SSMG_07230&lt;/b&gt;&lt;br&gt;integral membrane protein&lt;br&gt;Location: 7933320 - 7934043" points="288,40 293,40 298,35 293,30 288,30 288,40 " style="stroke-width:1; stroke:black; fill:white; " id="subclusterblast-26_q20_0_all" class="clusterblast-orf"  />
<polygon locus_tag="SSMG_07231" description="&lt;b&gt;SSMG_07231&lt;/b&gt;&lt;br&gt;predicted protein&lt;br&gt;Location: 7934044 - 7935256" points="298,35 303,30 314,30 314,40 303,40 298,35 " style="stroke-width:1; stroke:black; fill:white; " id="subclusterblast-26_q21_0_all" class="clusterblast-orf"  />
<polygon locus_tag="SSMG_07232" description="&lt;b&gt;SSMG_07232&lt;/b&gt;&lt;br&gt;predicted protein&lt;br&gt;Location: 7935293 - 7936613" points="314,35 319,30 331,30 331,40 319,40 314,35 " style="stroke-width:1; stroke:black; fill:white; " id="subclusterblast-26_q22_0_all" class="clusterblast-orf"  />
<polygon locus_tag="SSMG_07233" description="&lt;b&gt;SSMG_07233&lt;/b&gt;&lt;br&gt;3-deoxy-7-phosphoheptulonate synthase&lt;br&gt;Location: 7936657 - 7937824" points="332,35 337,30 347,30 347,40 337,40 332,35 " style="stroke-width:1; stroke:black; fill:white; " id="subclusterblast-26_q23_0_all" class="clusterblast-orf"  />
<polygon locus_tag="SSMG_07234" description="&lt;b&gt;SSMG_07234&lt;/b&gt;&lt;br&gt;phenazine biosynthesis protein PhzE&lt;br&gt;Location: 7937875 - 7939819" points="348,35 353,30 374,30 374,40 353,40 348,35 " style="stroke-width:1; stroke:black; fill:white; " id="subclusterblast-26_q24_0_all" class="clusterblast-orf"  />
<polygon locus_tag="SSMG_07235" description="&lt;b&gt;SSMG_07235&lt;/b&gt;&lt;br&gt;predicted protein&lt;br&gt;Location: 7939815 - 7940535" points="373,35 378,30 383,30 383,40 378,40 373,35 " style="stroke-width:1; stroke:black; fill:white; " id="subclusterblast-26_q25_0_all" class="clusterblast-orf"  />
<polygon locus_tag="SSMG_07236" description="&lt;b&gt;SSMG_07236&lt;/b&gt;&lt;br&gt;predicted protein&lt;br&gt;Location: 7940531 - 7943624" points="383,35 388,30 423,30 423,40 388,40 383,35 " style="stroke-width:1; stroke:black; fill:white; " id="subclusterblast-26_q26_0_all" class="clusterblast-orf"  />
<polygon locus_tag="SSMG_07237" description="&lt;b&gt;SSMG_07237&lt;/b&gt;&lt;br&gt;modular polyketide synthase&lt;br&gt;Location: 7943657 - 7945214" points="424,35 429,30 444,30 444,40 429,40 424,35 " style="stroke-width:1; stroke:black; fill:white; " id="subclusterblast-26_q27_0_all" class="clusterblast-orf"  />
<polygon locus_tag="SSMG_07238" description="&lt;b&gt;SSMG_07238&lt;/b&gt;&lt;br&gt;peptidyl carrier protein&lt;br&gt;Location: 7945279 - 7945537" points="445,35 448,30 448,40 445,35 " style="stroke-width:1; stroke:black; fill:white; " id="subclusterblast-26_q28_0_all" class="clusterblast-orf"  />
<polygon locus_tag="SSMG_07239" description="&lt;b&gt;SSMG_07239&lt;/b&gt;&lt;br&gt;predicted protein&lt;br&gt;Location: 7945805 - 7947257" points="452,40 466,40 471,35 466,30 452,30 452,40 " style="stroke-width:1; stroke:black; fill:white; " id="subclusterblast-26_q29_0_all" class="clusterblast-orf"  />
<polygon locus_tag="SSMG_07240" description="&lt;b&gt;SSMG_07240&lt;/b&gt;&lt;br&gt;predicted protein&lt;br&gt;Location: 7947409 - 7948612" points="473,40 484,40 489,35 484,30 473,30 473,40 " style="stroke-width:1; stroke:black; fill:white; " id="subclusterblast-26_q30_0_all" class="clusterblast-orf"  />
<polygon locus_tag="SSMG_07241" description="&lt;b&gt;SSMG_07241&lt;/b&gt;&lt;br&gt;isochorismatase&lt;br&gt;Location: 7948589 - 7949279" points="488,35 493,30 497,30 497,40 493,40 488,35 " style="stroke-width:1; stroke:black; fill:white; " id="subclusterblast-26_q31_0_all" class="clusterblast-orf"  />
<polygon locus_tag="SSMG_07242" description="&lt;b&gt;SSMG_07242&lt;/b&gt;&lt;br&gt;predicted protein&lt;br&gt;Location: 7949360 - 7950515" points="499,40 509,40 514,35 509,30 499,30 499,40 " style="stroke-width:1; stroke:black; fill:white; " id="subclusterblast-26_q32_0_all" class="clusterblast-orf"  />
<polygon locus_tag="SSMG_07243" description="&lt;b&gt;SSMG_07243&lt;/b&gt;&lt;br&gt;predicted protein&lt;br&gt;Location: 7950511 - 7951132" points="514,40 517,40 522,35 517,30 514,30 514,40 " style="stroke-width:1; stroke:black; fill:white; " id="subclusterblast-26_q33_0_all" class="clusterblast-orf"  />
<polygon locus_tag="SSMG_07244" description="&lt;b&gt;SSMG_07244&lt;/b&gt;&lt;br&gt;di/tripeptide permease&lt;br&gt;Location: 7951135 - 7952638" points="522,35 527,30 541,30 541,40 527,40 522,35 " style="stroke-width:1; stroke:black; fill:white; " id="subclusterblast-26_q34_0_all" class="clusterblast-orf"  />
<polygon locus_tag="SSMG_07245" description="&lt;b&gt;SSMG_07245&lt;/b&gt;&lt;br&gt;Na+/H+ antiporter NhaA&lt;br&gt;Location: 7952813 - 7954064" points="544,40 555,40 560,35 555,30 544,30 544,40 " style="stroke-width:1; stroke:black; fill:white; " id="subclusterblast-26_q35_0_all" class="clusterblast-orf"  />
<polygon locus_tag="SSMG_07246" description="&lt;b&gt;SSMG_07246&lt;/b&gt;&lt;br&gt;predicted protein&lt;br&gt;Location: 7954102 - 7954621" points="561,40 562,40 567,35 562,30 561,30 561,40 " style="stroke-width:1; stroke:black; fill:white; " id="subclusterblast-26_q36_0_all" class="clusterblast-orf"  />
<polygon locus_tag="SSMG_07247" description="&lt;b&gt;SSMG_07247&lt;/b&gt;&lt;br&gt;alpha/beta hydrolase fold containing protein&lt;br&gt;Location: 7954637 - 7955558" points="568,40 575,40 580,35 575,30 568,30 568,40 " style="stroke-width:1; stroke:black; fill:white; " id="subclusterblast-26_q37_0_all" class="clusterblast-orf"  />
<polygon locus_tag="SSMG_07248" description="&lt;b&gt;SSMG_07248&lt;/b&gt;&lt;br&gt;protease&lt;br&gt;Location: 7955788 - 7956973" points="583,35 588,30 598,30 598,40 588,40 583,35 " style="stroke-width:1; stroke:black; fill:white; " id="subclusterblast-26_q38_0_all" class="clusterblast-orf"  />
<polygon locus_tag="SSMG_07249" description="&lt;b&gt;SSMG_07249&lt;/b&gt;&lt;br&gt;predicted protein&lt;br&gt;Location: 7956980 - 7957697" points="598,35 603,30 608,30 608,40 603,40 598,35 " style="stroke-width:1; stroke:black; fill:white; " id="subclusterblast-26_q39_0_all" class="clusterblast-orf"  />
<polygon locus_tag="SSMG_07250" description="&lt;b&gt;SSMG_07250&lt;/b&gt;&lt;br&gt;redoxin&lt;br&gt;Location: 7957693 - 7958296" points="608,35 613,30 616,30 616,40 613,40 608,35 " style="stroke-width:1; stroke:black; fill:white; " id="subclusterblast-26_q40_0_all" class="clusterblast-orf"  />
<polygon locus_tag="SSMG_07251" description="&lt;b&gt;SSMG_07251&lt;/b&gt;&lt;br&gt;endonuclease III&lt;br&gt;Location: 7958292 - 7959054" points="616,35 621,30 626,30 626,40 621,40 616,35 " style="stroke-width:1; stroke:black; fill:white; " id="subclusterblast-26_q41_0_all" class="clusterblast-orf"  />
<polygon locus_tag="SSMG_07252" description="&lt;b&gt;SSMG_07252&lt;/b&gt;&lt;br&gt;predicted protein&lt;br&gt;Location: 7959183 - 7959465" points="627,40 631,35 627,30 627,40 " style="stroke-width:1; stroke:black; fill:white; " id="subclusterblast-26_q42_0_all" class="clusterblast-orf"  />
<polygon locus_tag="SSMG_07253" description="&lt;b&gt;SSMG_07253&lt;/b&gt;&lt;br&gt;transcriptional regulator&lt;br&gt;Location: 7959624 - 7960299" points="633,40 637,40 642,35 637,30 633,30 633,40 " style="stroke-width:1; stroke:black; fill:white; " id="subclusterblast-26_q43_0_all" class="clusterblast-orf"  />
<polygon locus_tag="SSMG_07254" description="&lt;b&gt;SSMG_07254&lt;/b&gt;&lt;br&gt;predicted protein&lt;br&gt;Location: 7960711 - 7961908" points="647,35 652,30 663,30 663,40 652,40 647,35 " style="stroke-width:1; stroke:black; fill:white; " id="subclusterblast-26_q44_0_all" class="clusterblast-orf"  />
<polygon locus_tag="SSMG_07255" description="&lt;b&gt;SSMG_07255&lt;/b&gt;&lt;br&gt;predicted protein&lt;br&gt;Location: 7962045 - 7963215" points="665,40 675,40 680,35 675,30 665,30 665,40 " style="stroke-width:1; stroke:black; fill:white; " id="subclusterblast-26_q45_0_all" class="clusterblast-orf"  />
<polygon locus_tag="SSMG_07256" description="&lt;b&gt;SSMG_07256&lt;/b&gt;&lt;br&gt;DNA polymerase III, beta subunit&lt;br&gt;Location: 7963479 - 7964577" points="684,40 693,40 698,35 693,30 684,30 684,40 " style="stroke-width:1; stroke:black; fill:white; " id="subclusterblast-26_q46_0_all" class="clusterblast-orf"  />
<polygon locus_tag="SSMG_07257" description="&lt;b&gt;SSMG_07257&lt;/b&gt;&lt;br&gt;conserved hypothetical protein&lt;br&gt;Location: 7964848 - 7965172" points="701,35 706,30 706,30 706,40 706,40 701,35 " style="stroke-width:1; stroke:black; fill:white; " id="subclusterblast-26_q47_0_all" class="clusterblast-orf"  />
<polygon locus_tag="SSMG_07258" description="&lt;b&gt;SSMG_07258&lt;/b&gt;&lt;br&gt;beta-lactamase domain-containing protein&lt;br&gt;Location: 7965099 - 7965876" points="705,35 710,30 715,30 715,40 710,40 705,35 " style="stroke-width:1; stroke:black; fill:white; " id="subclusterblast-26_q48_0_all" class="clusterblast-orf"  />
<polygon locus_tag="SSMG_07259" description="&lt;b&gt;SSMG_07259&lt;/b&gt;&lt;br&gt;NUDIX hydrolase&lt;br&gt;Location: 7965876 - 7966701" points="715,35 720,30 726,30 726,40 720,40 715,35 " style="stroke-width:1; stroke:black; fill:white; " id="subclusterblast-26_q49_0_all" class="clusterblast-orf"  />
<polygon locus_tag="SSMG_07260" description="&lt;b&gt;SSMG_07260&lt;/b&gt;&lt;br&gt;predicted protein&lt;br&gt;Location: 7966916 - 7968101" points="729,35 734,30 744,30 744,40 734,40 729,35 " style="stroke-width:1; stroke:black; fill:white; " id="subclusterblast-26_q50_0_all" class="clusterblast-orf"  />
<polygon locus_tag="SSMG_07261" description="&lt;b&gt;SSMG_07261&lt;/b&gt;&lt;br&gt;conserved hypothetical protein&lt;br&gt;Location: 7968139 - 7968712" points="745,35 750,30 752,30 752,40 750,40 745,35 " style="stroke-width:1; stroke:black; fill:white; " id="subclusterblast-26_q51_0_all" class="clusterblast-orf"  />
<polygon locus_tag="SSMG_07262" description="&lt;b&gt;SSMG_07262&lt;/b&gt;&lt;br&gt;endoribonuclease L-PSP&lt;br&gt;Location: 7968768 - 7969224" points="753,35 758,30 759,30 759,40 758,40 753,35 " style="stroke-width:1; stroke:black; fill:white; " id="subclusterblast-26_q52_0_all" class="clusterblast-orf"  />
<polygon locus_tag="SSMG_07263" description="&lt;b&gt;SSMG_07263&lt;/b&gt;&lt;br&gt;endoribonuclease L-PSP&lt;br&gt;Location: 7969234 - 7969423" points="759,35 761,30 761,40 759,35 " style="stroke-width:1; stroke:black; fill:white; " id="subclusterblast-26_q53_0_all" class="clusterblast-orf"  />
<polygon locus_tag="SSMG_07264" description="&lt;b&gt;SSMG_07264&lt;/b&gt;&lt;br&gt;predicted protein&lt;br&gt;Location: 7969537 - 7969786" points="763,40 766,35 763,30 763,40 " style="stroke-width:1; stroke:black; fill:white; " id="subclusterblast-26_q54_0_all" class="clusterblast-orf"  />
<polygon locus_tag="SSMG_07265" description="&lt;b&gt;SSMG_07265&lt;/b&gt;&lt;br&gt;anion transporter ATPase&lt;br&gt;Location: 7969808 - 7970813" points="766,40 775,40 780,35 775,30 766,30 766,40 " style="stroke-width:1; stroke:black; fill:white; " id="subclusterblast-26_q55_0_all" class="clusterblast-orf"  />
</g>
</svg>
