<svg version="1.1" xmlns="http://www.w3.org/2000/svg" height="50" width="800" xmlns:xlink="http://www.w3.org/1999/xlink" preserveAspectRatio="none" x="0" y="0" viewBox="0 0 800 50"  >
<g label="Query sequence" class="clusterblast-cluster"  >
<text class="clusterblast-acc" y="20" x="5"  >
Query sequence</text>
<line x1="10" x2="778.0" y2="35" style="stroke-width:1; stroke:grey; " y1="35"  />
<polygon locus_tag="SSMG_03201" description="&lt;b&gt;SSMG_03201&lt;/b&gt;&lt;br&gt;DNA ligase, NAD-dependent&lt;br&gt;Location: 3472881 - 3474873" points="0,40 67,40 72,35 67,30 0,30 0,40 " style="stroke-width:1; stroke:black; fill:white; " id="subclusterblast-12_q0_0_all" class="clusterblast-orf"  />
<polygon locus_tag="SSMG_03202" description="&lt;b&gt;SSMG_03202&lt;/b&gt;&lt;br&gt;predicted protein&lt;br&gt;Location: 3476058 - 3477006" points="114,35 119,30 148,30 148,40 119,40 114,35 " style="stroke-width:1; stroke:black; fill:white; " id="subclusterblast-12_q1_0_all" class="clusterblast-orf"  />
<polygon locus_tag="SSMG_03203" description="&lt;b&gt;SSMG_03203&lt;/b&gt;&lt;br&gt;predicted protein&lt;br&gt;Location: 3477056 - 3477656" points="150,40 167,40 172,35 167,30 150,30 150,40 " style="stroke-width:1; stroke:black; fill:white; " id="subclusterblast-12_q2_0_all" class="clusterblast-orf"  />
<polygon locus_tag="SSMG_03204" description="&lt;b&gt;SSMG_03204&lt;/b&gt;&lt;br&gt;predicted protein&lt;br&gt;Location: 3477878 - 3479594" points="180,35 185,30 241,30 241,40 185,40 180,35 " style="stroke-width:1; stroke:black; fill:white; " id="subclusterblast-12_q3_0_all" class="clusterblast-orf"  />
<polygon locus_tag="SSMG_03205" description="&lt;b&gt;SSMG_03205&lt;/b&gt;&lt;br&gt;predicted protein&lt;br&gt;Location: 3480123 - 3481776" points="260,35 265,30 320,30 320,40 265,40 260,35 " style="stroke-width:1; stroke:black; fill:white; " id="subclusterblast-12_q4_0_all" class="clusterblast-orf"  />
<polygon locus_tag="SSMG_03206" description="&lt;b&gt;SSMG_03206&lt;/b&gt;&lt;br&gt;serine/threonine protein kinase&lt;br&gt;Location: 3482531 - 3485132" points="347,35 352,30 441,30 441,40 352,40 347,35 " style="stroke-width:1; stroke:black; fill:white; " id="subclusterblast-12_q5_0_all" class="clusterblast-orf"  />
<polygon locus_tag="SSMG_03207" description="&lt;b&gt;SSMG_03207&lt;/b&gt;&lt;br&gt;transcriptional regulator&lt;br&gt;Location: 3485491 - 3486403" points="454,35 459,30 486,30 486,40 459,40 454,35 " style="stroke-width:1; stroke:black; fill:white; " id="subclusterblast-12_q6_0_all" class="clusterblast-orf"  />
<polygon locus_tag="SSMG_03208" description="&lt;b&gt;SSMG_03208&lt;/b&gt;&lt;br&gt;predicted protein&lt;br&gt;Location: 3486431 - 3487364" points="487,40 516,40 521,35 516,30 487,30 487,40 " style="stroke-width:1; stroke:black; fill:white; " id="subclusterblast-12_q7_0_all" class="clusterblast-orf"  />
<polygon locus_tag="SSMG_03209" description="&lt;b&gt;SSMG_03209&lt;/b&gt;&lt;br&gt;predicted protein&lt;br&gt;Location: 3487360 - 3488143" points="521,35 526,30 549,30 549,40 526,40 521,35 " style="stroke-width:1; stroke:black; fill:white; " id="subclusterblast-12_q8_0_all" class="clusterblast-orf"  />
<polygon locus_tag="SSMG_03210" description="&lt;b&gt;SSMG_03210&lt;/b&gt;&lt;br&gt;secreted protein&lt;br&gt;Location: 3488195 - 3489029" points="551,35 556,30 581,30 581,40 556,40 551,35 " style="stroke-width:1; stroke:black; fill:white; " id="subclusterblast-12_q9_0_all" class="clusterblast-orf"  />
<polygon locus_tag="SSMG_03211" description="&lt;b&gt;SSMG_03211&lt;/b&gt;&lt;br&gt;alpha-galactosidase&lt;br&gt;Location: 3489206 - 3490511" points="587,35 592,30 634,30 634,40 592,40 587,35 " style="stroke-width:1; stroke:black; fill:white; " id="subclusterblast-12_q10_0_all" class="clusterblast-orf"  />
<polygon locus_tag="SSMG_03212" description="&lt;b&gt;SSMG_03212&lt;/b&gt;&lt;br&gt;predicted protein&lt;br&gt;Location: 3490507 - 3491473" points="634,35 639,30 669,30 669,40 639,40 634,35 " style="stroke-width:1; stroke:black; fill:white; " id="subclusterblast-12_q11_0_all" class="clusterblast-orf"  />
<polygon locus_tag="SSMG_03213" description="&lt;b&gt;SSMG_03213&lt;/b&gt;&lt;br&gt;sugar transport membrane protein&lt;br&gt;Location: 3491469 - 3492357" points="669,35 674,30 701,30 701,40 674,40 669,35 " style="stroke-width:1; stroke:black; fill:white; " id="subclusterblast-12_q12_0_all" class="clusterblast-orf"  />
<polygon locus_tag="SSMG_03214" description="&lt;b&gt;SSMG_03214&lt;/b&gt;&lt;br&gt;sugar transporter membrane protein&lt;br&gt;Location: 3492353 - 3493268" points="701,35 706,30 734,30 734,40 706,40 701,35 " style="stroke-width:1; stroke:black; fill:white; " id="subclusterblast-12_q13_0_all" class="clusterblast-orf"  />
<polygon locus_tag="SSMG_03215" description="&lt;b&gt;SSMG_03215&lt;/b&gt;&lt;br&gt;sugar transporter sugar binding lipoprotein&lt;br&gt;Location: 3493278 - 3494556" points="734,35 739,30 780,30 780,40 739,40 734,35 " style="stroke-width:1; stroke:black; fill:white; " id="subclusterblast-12_q14_0_all" class="clusterblast-orf"  />
</g>
</svg>
