<svg version="1.1" xmlns="http://www.w3.org/2000/svg" height="50" width="800" xmlns:xlink="http://www.w3.org/1999/xlink" preserveAspectRatio="none" x="0" y="0" viewBox="0 0 800 50"  >
<g label="Query sequence" class="clusterblast-cluster"  >
<text class="clusterblast-acc" y="20" x="5"  >
Query sequence</text>
<line x1="10" x2="778.0" y2="35" style="stroke-width:1; stroke:grey; " y1="35"  />
<polygon locus_tag="SSMG_04571" description="&lt;b&gt;SSMG_04571&lt;/b&gt;&lt;br&gt;predicted protein&lt;br&gt;Location: 5016278 - 5016476" points="0,35 3,30 3,40 0,35 " style="stroke-width:1; stroke:black; fill:white; " id="subclusterblast-19_q0_0_all" class="clusterblast-orf"  />
<polygon locus_tag="SSMG_04572" description="&lt;b&gt;SSMG_04572&lt;/b&gt;&lt;br&gt;conserved hypothetical protein&lt;br&gt;Location: 5016531 - 5016717" points="4,35 7,30 7,40 4,35 " style="stroke-width:1; stroke:black; fill:white; " id="subclusterblast-19_q1_0_all" class="clusterblast-orf"  />
<polygon locus_tag="SSMG_04573" description="&lt;b&gt;SSMG_04573&lt;/b&gt;&lt;br&gt;magnesium and cobalt transporter CorA&lt;br&gt;Location: 5016985 - 5017954" points="11,40 22,40 27,35 22,30 11,30 11,40 " style="stroke-width:1; stroke:black; fill:white; " id="subclusterblast-19_q2_0_all" class="clusterblast-orf"  />
<polygon locus_tag="SSMG_04574" description="&lt;b&gt;SSMG_04574&lt;/b&gt;&lt;br&gt;predicted protein&lt;br&gt;Location: 5018045 - 5018759" points="29,40 35,40 40,35 35,30 29,30 29,40 " style="stroke-width:1; stroke:black; fill:white; " id="subclusterblast-19_q3_0_all" class="clusterblast-orf"  />
<polygon locus_tag="SSMG_04575" description="&lt;b&gt;SSMG_04575&lt;/b&gt;&lt;br&gt;predicted protein&lt;br&gt;Location: 5019044 - 5019236" points="45,35 48,30 48,40 45,35 " style="stroke-width:1; stroke:black; fill:white; " id="subclusterblast-19_q4_0_all" class="clusterblast-orf"  />
<polygon locus_tag="SSMG_04576" description="&lt;b&gt;SSMG_04576&lt;/b&gt;&lt;br&gt;predicted protein&lt;br&gt;Location: 5019224 - 5019596" points="48,40 49,40 54,35 49,30 48,30 48,40 " style="stroke-width:1; stroke:black; fill:white; " id="subclusterblast-19_q5_0_all" class="clusterblast-orf"  />
<polygon locus_tag="SSMG_04577" description="&lt;b&gt;SSMG_04577&lt;/b&gt;&lt;br&gt;predicted protein&lt;br&gt;Location: 5019614 - 5020178" points="54,35 59,30 64,30 64,40 59,40 54,35 " style="stroke-width:1; stroke:black; fill:white; " id="subclusterblast-19_q6_0_all" class="clusterblast-orf"  />
<polygon locus_tag="SSMG_04578" description="&lt;b&gt;SSMG_04578&lt;/b&gt;&lt;br&gt;acetyltransferase&lt;br&gt;Location: 5020236 - 5020761" points="65,40 68,40 73,35 68,30 65,30 65,40 " style="stroke-width:1; stroke:black; fill:white; " id="subclusterblast-19_q7_0_all" class="clusterblast-orf"  />
<polygon locus_tag="SSMG_04579" description="&lt;b&gt;SSMG_04579&lt;/b&gt;&lt;br&gt;imidazolonepropionase&lt;br&gt;Location: 5020774 - 5022061" points="73,35 78,30 95,30 95,40 78,40 73,35 " style="stroke-width:1; stroke:black; fill:white; " id="subclusterblast-19_q8_0_all" class="clusterblast-orf"  />
<polygon locus_tag="SSMG_04580" description="&lt;b&gt;SSMG_04580&lt;/b&gt;&lt;br&gt;predicted protein&lt;br&gt;Location: 5022057 - 5023515" points="94,35 99,30 118,30 118,40 99,40 94,35 " style="stroke-width:1; stroke:black; fill:white; " id="subclusterblast-19_q9_0_all" class="clusterblast-orf"  />
<polygon locus_tag="SSMG_04581" description="&lt;b&gt;SSMG_04581&lt;/b&gt;&lt;br&gt;predicted protein&lt;br&gt;Location: 5023643 - 5024669" points="120,40 132,40 137,35 132,30 120,30 120,40 " style="stroke-width:1; stroke:black; fill:white; " id="subclusterblast-19_q10_0_all" class="clusterblast-orf"  />
<polygon locus_tag="SSMG_04582" description="&lt;b&gt;SSMG_04582&lt;/b&gt;&lt;br&gt;predicted protein&lt;br&gt;Location: 5024831 - 5028356" points="140,40 193,40 198,35 193,30 140,30 140,40 " style="stroke-width:1; stroke:black; fill:white; " id="subclusterblast-19_q11_0_all" class="clusterblast-orf"  />
<polygon locus_tag="SSMG_04583" description="&lt;b&gt;SSMG_04583&lt;/b&gt;&lt;br&gt;predicted protein&lt;br&gt;Location: 5028607 - 5029621" points="202,40 214,40 219,35 214,30 202,30 202,40 " style="stroke-width:1; stroke:black; fill:white; " id="subclusterblast-19_q12_0_all" class="clusterblast-orf"  />
<polygon locus_tag="SSMG_04584" description="&lt;b&gt;SSMG_04584&lt;/b&gt;&lt;br&gt;aldo/keto reductase&lt;br&gt;Location: 5029887 - 5030874" points="223,35 228,30 239,30 239,40 228,40 223,35 " style="stroke-width:1; stroke:black; fill:white; " id="subclusterblast-19_q13_0_all" class="clusterblast-orf"  />
<polygon locus_tag="SSMG_04585" description="&lt;b&gt;SSMG_04585&lt;/b&gt;&lt;br&gt;predicted protein&lt;br&gt;Location: 5031439 - 5031892" points="248,35 253,30 256,30 256,40 253,40 248,35 " style="stroke-width:1; stroke:black; fill:white; " id="subclusterblast-19_q14_0_all" class="clusterblast-orf"  />
<polygon locus_tag="SSMG_04586" description="&lt;b&gt;SSMG_04586&lt;/b&gt;&lt;br&gt;branched-chain amino acid transporter&lt;br&gt;Location: 5031899 - 5032229" points="256,35 261,30 261,30 261,40 261,40 256,35 " style="stroke-width:1; stroke:black; fill:white; " id="subclusterblast-19_q15_0_all" class="clusterblast-orf"  />
<polygon locus_tag="SSMG_04587" description="&lt;b&gt;SSMG_04587&lt;/b&gt;&lt;br&gt;azaleucine resistance protein AzlC&lt;br&gt;Location: 5032221 - 5032938" points="261,35 266,30 273,30 273,40 266,40 261,35 " style="stroke-width:1; stroke:black; fill:white; " id="subclusterblast-19_q16_0_all" class="clusterblast-orf"  />
<polygon locus_tag="SSMG_04588" description="&lt;b&gt;SSMG_04588&lt;/b&gt;&lt;br&gt;leucine-responsive regulator&lt;br&gt;Location: 5033001 - 5033460" points="274,40 276,40 281,35 276,30 274,30 274,40 " style="stroke-width:1; stroke:black; fill:white; " id="subclusterblast-19_q17_0_all" class="clusterblast-orf"  />
<polygon locus_tag="SSMG_04589" description="&lt;b&gt;SSMG_04589&lt;/b&gt;&lt;br&gt;zinc-binding alcohol dehydrogenase&lt;br&gt;Location: 5033502 - 5034450" points="282,35 287,30 298,30 298,40 287,40 282,35 " style="stroke-width:1; stroke:black; fill:white; " id="subclusterblast-19_q18_0_all" class="clusterblast-orf"  />
<polygon locus_tag="SSMG_04590" description="&lt;b&gt;SSMG_04590&lt;/b&gt;&lt;br&gt;antibiotic biosynthesis monooxygenase&lt;br&gt;Location: 5034461 - 5034749" points="298,35 303,30 303,30 303,40 303,40 298,35 " style="stroke-width:1; stroke:black; fill:white; " id="subclusterblast-19_q19_0_all" class="clusterblast-orf"  />
<polygon locus_tag="SSMG_04591" description="&lt;b&gt;SSMG_04591&lt;/b&gt;&lt;br&gt;dicarboxylate-CoA ligase PimA&lt;br&gt;Location: 5034745 - 5036440" points="303,35 308,30 330,30 330,40 308,40 303,35 " style="stroke-width:1; stroke:black; fill:white; " id="subclusterblast-19_q20_0_all" class="clusterblast-orf"  />
<polygon locus_tag="SSMG_04592" description="&lt;b&gt;SSMG_04592&lt;/b&gt;&lt;br&gt;conserved hypothetical protein&lt;br&gt;Location: 5036436 - 5037393" points="330,35 335,30 346,30 346,40 335,40 330,35 " style="stroke-width:1; stroke:black; fill:white; " id="subclusterblast-19_q21_0_all" class="clusterblast-orf"  />
<polygon locus_tag="SSMG_04593" description="&lt;b&gt;SSMG_04593&lt;/b&gt;&lt;br&gt;conserved hypothetical protein&lt;br&gt;Location: 5037545 - 5038397" points="348,40 357,40 362,35 357,30 348,30 348,40 " style="stroke-width:1; stroke:black; fill:white; " id="subclusterblast-19_q22_0_all" class="clusterblast-orf"  />
<polygon locus_tag="SSMG_04594" description="&lt;b&gt;SSMG_04594&lt;/b&gt;&lt;br&gt;predicted protein&lt;br&gt;Location: 5038500 - 5039706" points="364,40 379,40 384,35 379,30 364,30 364,40 " style="stroke-width:1; stroke:black; fill:white; " id="subclusterblast-19_q23_0_all" class="clusterblast-orf"  />
<polygon locus_tag="SSMG_04595" description="&lt;b&gt;SSMG_04595&lt;/b&gt;&lt;br&gt;DJ-1/PfpI family protein&lt;br&gt;Location: 5039824 - 5040598" points="386,40 394,40 399,35 394,30 386,30 386,40 " style="stroke-width:1; stroke:black; fill:white; " id="subclusterblast-19_q24_0_all" class="clusterblast-orf"  />
<polygon locus_tag="SSMG_04596" description="&lt;b&gt;SSMG_04596&lt;/b&gt;&lt;br&gt;conserved hypothetical protein&lt;br&gt;Location: 5040857 - 5041343" points="403,35 408,30 411,30 411,40 408,40 403,35 " style="stroke-width:1; stroke:black; fill:white; " id="subclusterblast-19_q25_0_all" class="clusterblast-orf"  />
<polygon locus_tag="SSMG_04597" description="&lt;b&gt;SSMG_04597&lt;/b&gt;&lt;br&gt;predicted protein&lt;br&gt;Location: 5041538 - 5041820" points="414,35 419,30 419,30 419,40 419,40 414,35 " style="stroke-width:1; stroke:black; fill:white; " id="subclusterblast-19_q26_0_all" class="clusterblast-orf"  />
<polygon locus_tag="SSMG_04598" description="&lt;b&gt;SSMG_04598&lt;/b&gt;&lt;br&gt;predicted protein&lt;br&gt;Location: 5042805 - 5043999" points="435,35 440,30 454,30 454,40 440,40 435,35 " style="stroke-width:1; stroke:black; fill:white; " id="subclusterblast-19_q27_0_all" class="clusterblast-orf"  />
<polygon locus_tag="SSMG_04599" description="&lt;b&gt;SSMG_04599&lt;/b&gt;&lt;br&gt;hypothetical protein&lt;br&gt;Location: 5043995 - 5045036" points="454,35 459,30 471,30 471,40 459,40 454,35 " style="stroke-width:1; stroke:black; fill:white; " id="subclusterblast-19_q28_0_all" class="clusterblast-orf"  />
<polygon locus_tag="SSMG_04600" description="&lt;b&gt;SSMG_04600&lt;/b&gt;&lt;br&gt;predicted protein&lt;br&gt;Location: 5045032 - 5045941" points="471,35 476,30 486,30 486,40 476,40 471,35 " style="stroke-width:1; stroke:black; fill:white; " id="subclusterblast-19_q29_0_all" class="clusterblast-orf"  />
<polygon locus_tag="SSMG_04601" description="&lt;b&gt;SSMG_04601&lt;/b&gt;&lt;br&gt;predicted protein&lt;br&gt;Location: 5045937 - 5047152" points="486,35 491,30 506,30 506,40 491,40 486,35 " style="stroke-width:1; stroke:black; fill:white; " id="subclusterblast-19_q30_0_all" class="clusterblast-orf"  />
<polygon locus_tag="SSMG_04602" description="&lt;b&gt;SSMG_04602&lt;/b&gt;&lt;br&gt;acyl carrier protein&lt;br&gt;Location: 5047148 - 5047400" points="506,35 510,30 510,40 506,35 " style="stroke-width:1; stroke:black; fill:white; " id="subclusterblast-19_q31_0_all" class="clusterblast-orf"  />
<polygon locus_tag="SSMG_04603" description="&lt;b&gt;SSMG_04603&lt;/b&gt;&lt;br&gt;hypothetical protein&lt;br&gt;Location: 5047405 - 5048581" points="510,35 515,30 530,30 530,40 515,40 510,35 " style="stroke-width:1; stroke:black; fill:white; " id="subclusterblast-19_q32_0_all" class="clusterblast-orf"  />
<polygon locus_tag="SSMG_04604" description="&lt;b&gt;SSMG_04604&lt;/b&gt;&lt;br&gt;predicted protein&lt;br&gt;Location: 5048741 - 5049221" points="532,35 537,30 540,30 540,40 537,40 532,35 " style="stroke-width:1; stroke:black; fill:white; " id="subclusterblast-19_q33_0_all" class="clusterblast-orf"  />
<polygon locus_tag="SSMG_04605" description="&lt;b&gt;SSMG_04605&lt;/b&gt;&lt;br&gt;predicted protein&lt;br&gt;Location: 5049350 - 5050472" points="542,40 556,40 561,35 556,30 542,30 542,40 " style="stroke-width:1; stroke:black; fill:white; " id="subclusterblast-19_q34_0_all" class="clusterblast-orf"  />
<polygon locus_tag="SSMG_04606" description="&lt;b&gt;SSMG_04606&lt;/b&gt;&lt;br&gt;predicted protein&lt;br&gt;Location: 5050485 - 5051361" points="561,35 566,30 575,30 575,40 566,40 561,35 " style="stroke-width:1; stroke:black; fill:white; " id="subclusterblast-19_q35_0_all" class="clusterblast-orf"  />
<polygon locus_tag="SSMG_04607" description="&lt;b&gt;SSMG_04607&lt;/b&gt;&lt;br&gt;predicted protein&lt;br&gt;Location: 5051376 - 5051796" points="575,35 580,30 582,30 582,40 580,40 575,35 " style="stroke-width:1; stroke:black; fill:white; " id="subclusterblast-19_q36_0_all" class="clusterblast-orf"  />
<polygon locus_tag="SSMG_04608" description="&lt;b&gt;SSMG_04608&lt;/b&gt;&lt;br&gt;predicted protein&lt;br&gt;Location: 5051993 - 5053214" points="585,35 590,30 606,30 606,40 590,40 585,35 " style="stroke-width:1; stroke:black; fill:white; " id="subclusterblast-19_q37_0_all" class="clusterblast-orf"  />
<polygon locus_tag="SSMG_04609" description="&lt;b&gt;SSMG_04609&lt;/b&gt;&lt;br&gt;predicted protein&lt;br&gt;Location: 5053210 - 5057104" points="605,35 610,30 669,30 669,40 610,40 605,35 " style="stroke-width:1; stroke:black; fill:white; " id="subclusterblast-19_q38_0_all" class="clusterblast-orf"  />
<polygon locus_tag="SSMG_04610" description="&lt;b&gt;SSMG_04610&lt;/b&gt;&lt;br&gt;conserved hypothetical protein&lt;br&gt;Location: 5057533 - 5058733" points="676,35 681,30 696,30 696,40 681,40 676,35 " style="stroke-width:1; stroke:black; fill:white; " id="subclusterblast-19_q39_0_all" class="clusterblast-orf"  />
<polygon locus_tag="SSMG_04611" description="&lt;b&gt;SSMG_04611&lt;/b&gt;&lt;br&gt;ATPase&lt;br&gt;Location: 5058732 - 5059938" points="696,35 701,30 716,30 716,40 701,40 696,35 " style="stroke-width:1; stroke:black; fill:white; " id="subclusterblast-19_q40_0_all" class="clusterblast-orf"  />
<polygon locus_tag="SSMG_04612" description="&lt;b&gt;SSMG_04612&lt;/b&gt;&lt;br&gt;predicted protein&lt;br&gt;Location: 5059974 - 5061252" points="716,35 721,30 737,30 737,40 721,40 716,35 " style="stroke-width:1; stroke:black; fill:white; " id="subclusterblast-19_q41_0_all" class="clusterblast-orf"  />
<polygon locus_tag="SSMG_04613" description="&lt;b&gt;SSMG_04613&lt;/b&gt;&lt;br&gt;conserved hypothetical protein&lt;br&gt;Location: 5061449 - 5062064" points="741,40 746,40 751,35 746,30 741,30 741,40 " style="stroke-width:1; stroke:black; fill:white; " id="subclusterblast-19_q42_0_all" class="clusterblast-orf"  />
<polygon locus_tag="SSMG_04614" description="&lt;b&gt;SSMG_04614&lt;/b&gt;&lt;br&gt;3-ketosteroid-delta-1-dehydrogenase&lt;br&gt;Location: 5062110 - 5063832" points="751,35 756,30 780,30 780,40 756,40 751,35 " style="stroke-width:1; stroke:black; fill:white; " id="subclusterblast-19_q43_0_all" class="clusterblast-orf"  />
</g>
</svg>
