<svg version="1.1" xmlns="http://www.w3.org/2000/svg" height="50" width="800" xmlns:xlink="http://www.w3.org/1999/xlink" preserveAspectRatio="none" x="0" y="0" viewBox="0 0 800 50"  >
<g label="Query sequence" class="clusterblast-cluster"  >
<text class="clusterblast-acc" y="20" x="5"  >
Query sequence</text>
<line x1="10" x2="778.0" y2="35" style="stroke-width:1; stroke:grey; " y1="35"  />
<polygon locus_tag="SSMG_00940" description="&lt;b&gt;SSMG_00940&lt;/b&gt;&lt;br&gt;cell division ATP-binding protein FtsE&lt;br&gt;Location: 992900 - 993590" points="0,40 22,40 27,35 22,30 0,30 0,40 " style="stroke-width:1; stroke:black; fill:white; " id="subclusterblast-2_q0_0_all" class="clusterblast-orf"  />
<polygon locus_tag="SSMG_00941" description="&lt;b&gt;SSMG_00941&lt;/b&gt;&lt;br&gt;conserved hypothetical protein&lt;br&gt;Location: 993641 - 994535" points="29,40 58,40 63,35 58,30 29,30 29,40 " style="stroke-width:1; stroke:black; fill:white; " id="subclusterblast-2_q1_0_all" class="clusterblast-orf"  />
<polygon locus_tag="SSMG_00942" description="&lt;b&gt;SSMG_00942&lt;/b&gt;&lt;br&gt;SsrA-binding protein&lt;br&gt;Location: 994586 - 995069" points="65,40 79,40 84,35 79,30 65,30 65,40 " style="stroke-width:1; stroke:black; fill:white; " id="subclusterblast-2_q2_0_all" class="clusterblast-orf"  />
<polygon locus_tag="SSMG_00943" description="&lt;b&gt;SSMG_00943&lt;/b&gt;&lt;br&gt;amidohydrolase 2&lt;br&gt;Location: 995065 - 995962" points="84,40 113,40 118,35 113,30 84,30 84,40 " style="stroke-width:1; stroke:black; fill:white; " id="subclusterblast-2_q3_0_all" class="clusterblast-orf"  />
<polygon locus_tag="SSMG_00944" description="&lt;b&gt;SSMG_00944&lt;/b&gt;&lt;br&gt;predicted protein&lt;br&gt;Location: 995951 - 997283" points="118,35 123,30 169,30 169,40 123,40 118,35 " style="stroke-width:1; stroke:black; fill:white; " id="subclusterblast-2_q4_0_all" class="clusterblast-orf"  />
<polygon locus_tag="SSMG_00945" description="&lt;b&gt;SSMG_00945&lt;/b&gt;&lt;br&gt;conserved hypothetical protein&lt;br&gt;Location: 997392 - 997611" points="174,35 179,30 182,30 182,40 179,40 174,35 " style="stroke-width:1; stroke:black; fill:white; " id="subclusterblast-2_q5_0_all" class="clusterblast-orf"  />
<polygon locus_tag="SSMG_00946" description="&lt;b&gt;SSMG_00946&lt;/b&gt;&lt;br&gt;two component transcriptional regulator&lt;br&gt;Location: 997699 - 998341" points="185,35 190,30 210,30 210,40 190,40 185,35 " style="stroke-width:1; stroke:black; fill:white; " id="subclusterblast-2_q6_0_all" class="clusterblast-orf"  />
<polygon locus_tag="SSMG_00947" description="&lt;b&gt;SSMG_00947&lt;/b&gt;&lt;br&gt;predicted protein&lt;br&gt;Location: 998398 - 999532" points="212,35 217,30 256,30 256,40 217,40 212,35 " style="stroke-width:1; stroke:black; fill:white; " id="subclusterblast-2_q7_0_all" class="clusterblast-orf"  />
<polygon locus_tag="SSMG_00948" description="&lt;b&gt;SSMG_00948&lt;/b&gt;&lt;br&gt;predicted protein&lt;br&gt;Location: 999528 - 1000221" points="256,35 261,30 283,30 283,40 261,40 256,35 " style="stroke-width:1; stroke:black; fill:white; " id="subclusterblast-2_q8_0_all" class="clusterblast-orf"  />
<polygon locus_tag="SSMG_00949" description="&lt;b&gt;SSMG_00949&lt;/b&gt;&lt;br&gt;predicted protein&lt;br&gt;Location: 1001154 - 1001457" points="319,35 324,30 331,30 331,40 324,40 319,35 " style="stroke-width:1; stroke:black; fill:white; " id="subclusterblast-2_q9_0_all" class="clusterblast-orf"  />
<polygon locus_tag="SSMG_00950" description="&lt;b&gt;SSMG_00950&lt;/b&gt;&lt;br&gt;predicted protein&lt;br&gt;Location: 1001760 - 1002501" points="342,35 347,30 371,30 371,40 347,40 342,35 " style="stroke-width:1; stroke:black; fill:white; " id="subclusterblast-2_q10_0_all" class="clusterblast-orf"  />
<polygon locus_tag="SSMG_00951" description="&lt;b&gt;SSMG_00951&lt;/b&gt;&lt;br&gt;predicted protein&lt;br&gt;Location: 1002516 - 1003194" points="372,35 377,30 398,30 398,40 377,40 372,35 " style="stroke-width:1; stroke:black; fill:white; " id="subclusterblast-2_q11_0_all" class="clusterblast-orf"  />
<polygon locus_tag="SSMG_00952" description="&lt;b&gt;SSMG_00952&lt;/b&gt;&lt;br&gt;predicted protein&lt;br&gt;Location: 1003190 - 1004774" points="398,35 403,30 459,30 459,40 403,40 398,35 " style="stroke-width:1; stroke:black; fill:white; " id="subclusterblast-2_q12_0_all" class="clusterblast-orf"  />
<polygon locus_tag="SSMG_00953" description="&lt;b&gt;SSMG_00953&lt;/b&gt;&lt;br&gt;IclR-type transcriptional regulator&lt;br&gt;Location: 1005293 - 1006079" points="479,35 484,30 509,30 509,40 484,40 479,35 " style="stroke-width:1; stroke:black; fill:white; " id="subclusterblast-2_q13_0_all" class="clusterblast-orf"  />
<polygon locus_tag="SSMG_00954" description="&lt;b&gt;SSMG_00954&lt;/b&gt;&lt;br&gt;histidine ammonia-lyase&lt;br&gt;Location: 1006259 - 1007786" points="516,40 570,40 575,35 570,30 516,30 516,40 " style="stroke-width:1; stroke:black; fill:white; " id="subclusterblast-2_q14_0_all" class="clusterblast-orf"  />
<polygon locus_tag="SSMG_00955" description="&lt;b&gt;SSMG_00955&lt;/b&gt;&lt;br&gt;urocanate hydratase&lt;br&gt;Location: 1007789 - 1009451" points="575,40 635,40 640,35 635,30 575,30 575,40 " style="stroke-width:1; stroke:black; fill:white; " id="subclusterblast-2_q15_0_all" class="clusterblast-orf"  />
<polygon locus_tag="SSMG_00956" description="&lt;b&gt;SSMG_00956&lt;/b&gt;&lt;br&gt;allantoate amidohydrolase&lt;br&gt;Location: 1009447 - 1010644" points="640,40 681,40 686,35 681,30 640,30 640,40 " style="stroke-width:1; stroke:black; fill:white; " id="subclusterblast-2_q16_0_all" class="clusterblast-orf"  />
<polygon locus_tag="SSMG_00957" description="&lt;b&gt;SSMG_00957&lt;/b&gt;&lt;br&gt;formiminoglutamate deiminase&lt;br&gt;Location: 1010640 - 1011945" points="686,40 731,40 736,35 731,30 686,30 686,40 " style="stroke-width:1; stroke:black; fill:white; " id="subclusterblast-2_q17_0_all" class="clusterblast-orf"  />
<polygon locus_tag="SSMG_00958" description="&lt;b&gt;SSMG_00958&lt;/b&gt;&lt;br&gt;imidazolonepropionase&lt;br&gt;Location: 1011932 - 1013078" points="736,40 775,40 780,35 775,30 736,30 736,40 " style="stroke-width:1; stroke:black; fill:white; " id="subclusterblast-2_q18_0_all" class="clusterblast-orf"  />
</g>
</svg>
