<svg version="1.1" xmlns="http://www.w3.org/2000/svg" height="50" width="800" xmlns:xlink="http://www.w3.org/1999/xlink" preserveAspectRatio="none" x="0" y="0" viewBox="0 0 800 50"  >
<g label="Query sequence" class="clusterblast-cluster"  >
<text class="clusterblast-acc" y="20" x="5"  >
Query sequence</text>
<line x1="10" x2="778.0" y2="35" style="stroke-width:1; stroke:grey; " y1="35"  />
<polygon locus_tag="SSMG_04642" description="&lt;b&gt;SSMG_04642&lt;/b&gt;&lt;br&gt;RNA polymerase sigma-B factor&lt;br&gt;Location: 5091933 - 5092719" points="0,35 5,30 63,30 63,40 5,40 0,35 " style="stroke-width:1; stroke:black; fill:white; " id="subclusterblast-20_q0_0_all" class="clusterblast-orf"  />
<polygon locus_tag="SSMG_04643" description="&lt;b&gt;SSMG_04643&lt;/b&gt;&lt;br&gt;predicted protein&lt;br&gt;Location: 5092929 - 5093190" points="80,35 85,30 101,30 101,40 85,40 80,35 " style="stroke-width:1; stroke:black; fill:white; " id="subclusterblast-20_q1_0_all" class="clusterblast-orf"  />
<polygon locus_tag="SSMG_04644" description="&lt;b&gt;SSMG_04644&lt;/b&gt;&lt;br&gt;predicted protein&lt;br&gt;Location: 5093111 - 5093606" points="95,35 100,30 134,30 134,40 100,40 95,35 " style="stroke-width:1; stroke:black; fill:white; " id="subclusterblast-20_q2_0_all" class="clusterblast-orf"  />
<polygon locus_tag="SSMG_04645" description="&lt;b&gt;SSMG_04645&lt;/b&gt;&lt;br&gt;predicted protein&lt;br&gt;Location: 5093801 - 5095244" points="150,35 155,30 265,30 265,40 155,40 150,35 " style="stroke-width:1; stroke:black; fill:white; " id="subclusterblast-20_q3_0_all" class="clusterblast-orf"  />
<polygon locus_tag="SSMG_04646" description="&lt;b&gt;SSMG_04646&lt;/b&gt;&lt;br&gt;malate dehydrogenase&lt;br&gt;Location: 5095256 - 5096381" points="266,35 271,30 356,30 356,40 271,40 266,35 " style="stroke-width:1; stroke:black; fill:white; " id="subclusterblast-20_q4_0_all" class="clusterblast-orf"  />
<polygon locus_tag="SSMG_04647" description="&lt;b&gt;SSMG_04647&lt;/b&gt;&lt;br&gt;Linocin M18 bacteriocin protein&lt;br&gt;Location: 5096561 - 5097374" points="371,35 376,30 436,30 436,40 376,40 371,35 " style="stroke-width:1; stroke:black; fill:white; " id="subclusterblast-20_q5_0_all" class="clusterblast-orf"  />
<polygon locus_tag="SSMG_04648" description="&lt;b&gt;SSMG_04648&lt;/b&gt;&lt;br&gt;predicted protein&lt;br&gt;Location: 5097389 - 5097947" points="437,35 442,30 482,30 482,40 442,40 437,35 " style="stroke-width:1; stroke:black; fill:white; " id="subclusterblast-20_q6_0_all" class="clusterblast-orf"  />
<polygon locus_tag="SSMG_04649" description="&lt;b&gt;SSMG_04649&lt;/b&gt;&lt;br&gt;DNA polymerase&lt;br&gt;Location: 5098024 - 5098642" points="488,40 533,40 538,35 533,30 488,30 488,40 " style="stroke-width:1; stroke:black; fill:white; " id="subclusterblast-20_q7_0_all" class="clusterblast-orf"  />
<polygon locus_tag="SSMG_04650" description="&lt;b&gt;SSMG_04650&lt;/b&gt;&lt;br&gt;formaldehyde dehydrogenase, glutathione-independent&lt;br&gt;Location: 5098677 - 5099868" points="540,40 631,40 636,35 631,30 540,30 540,40 " style="stroke-width:1; stroke:black; fill:white; " id="subclusterblast-20_q8_0_all" class="clusterblast-orf"  />
<polygon locus_tag="SSMG_04651" description="&lt;b&gt;SSMG_04651&lt;/b&gt;&lt;br&gt;predicted protein&lt;br&gt;Location: 5099899 - 5100847" points="638,35 643,30 714,30 714,40 643,40 638,35 " style="stroke-width:1; stroke:black; fill:white; " id="subclusterblast-20_q9_0_all" class="clusterblast-orf"  />
<polygon locus_tag="SSMG_04652" description="&lt;b&gt;SSMG_04652&lt;/b&gt;&lt;br&gt;formate dehydrogenase, beta subunit&lt;br&gt;Location: 5100843 - 5101674" points="714,35 719,30 780,30 780,40 719,40 714,35 " style="stroke-width:1; stroke:black; fill:white; " id="subclusterblast-20_q10_0_all" class="clusterblast-orf"  />
</g>
</svg>
