<svg version="1.1" xmlns="http://www.w3.org/2000/svg" height="50" width="800" xmlns:xlink="http://www.w3.org/1999/xlink" preserveAspectRatio="none" x="0" y="0" viewBox="0 0 800 50"  >
<g label="Query sequence" class="clusterblast-cluster"  >
<text class="clusterblast-acc" y="20" x="5"  >
Query sequence</text>
<line x1="10" x2="778.0" y2="35" style="stroke-width:1; stroke:grey; " y1="35"  />
<polygon locus_tag="SSMG_04068" description="&lt;b&gt;SSMG_04068&lt;/b&gt;&lt;br&gt;predicted protein&lt;br&gt;Location: 4430591 - 4431389" points="0,40 8,40 13,35 8,30 0,30 0,40 " style="stroke-width:1; stroke:black; fill:white; " id="subclusterblast-16_q0_0_all" class="clusterblast-orf"  />
<polygon locus_tag="SSMG_04069" description="&lt;b&gt;SSMG_04069&lt;/b&gt;&lt;br&gt;proline/betaine transporter&lt;br&gt;Location: 4431385 - 4432696" points="13,40 31,40 36,35 31,30 13,30 13,40 " style="stroke-width:1; stroke:black; fill:white; " id="subclusterblast-16_q1_0_all" class="clusterblast-orf"  />
<polygon locus_tag="SSMG_04070" description="&lt;b&gt;SSMG_04070&lt;/b&gt;&lt;br&gt;predicted protein&lt;br&gt;Location: 4432692 - 4434222" points="36,40 57,40 62,35 57,30 36,30 36,40 " style="stroke-width:1; stroke:black; fill:white; " id="subclusterblast-16_q2_0_all" class="clusterblast-orf"  />
<polygon locus_tag="SSMG_04071" description="&lt;b&gt;SSMG_04071&lt;/b&gt;&lt;br&gt;predicted protein&lt;br&gt;Location: 4434196 - 4436218" points="62,40 91,40 96,35 91,30 62,30 62,40 " style="stroke-width:1; stroke:black; fill:white; " id="subclusterblast-16_q3_0_all" class="clusterblast-orf"  />
<polygon locus_tag="SSMG_04072" description="&lt;b&gt;SSMG_04072&lt;/b&gt;&lt;br&gt;predicted protein&lt;br&gt;Location: 4436425 - 4437238" points="100,35 105,30 114,30 114,40 105,40 100,35 " style="stroke-width:1; stroke:black; fill:white; " id="subclusterblast-16_q4_0_all" class="clusterblast-orf"  />
<polygon locus_tag="SSMG_04073" description="&lt;b&gt;SSMG_04073&lt;/b&gt;&lt;br&gt;major facilitator superfamily transporter permease&lt;br&gt;Location: 4437234 - 4438521" points="114,35 119,30 136,30 136,40 119,40 114,35 " style="stroke-width:1; stroke:black; fill:white; " id="subclusterblast-16_q5_0_all" class="clusterblast-orf"  />
<polygon locus_tag="SSMG_04074" description="&lt;b&gt;SSMG_04074&lt;/b&gt;&lt;br&gt;conserved hypothetical protein&lt;br&gt;Location: 4438628 - 4441787" points="138,40 187,40 192,35 187,30 138,30 138,40 " style="stroke-width:1; stroke:black; fill:white; " id="subclusterblast-16_q6_0_all" class="clusterblast-orf"  />
<polygon locus_tag="SSMG_04075" description="&lt;b&gt;SSMG_04075&lt;/b&gt;&lt;br&gt;predicted protein&lt;br&gt;Location: 4442155 - 4443325" points="198,35 203,30 218,30 218,40 203,40 198,35 " style="stroke-width:1; stroke:black; fill:white; " id="subclusterblast-16_q7_0_all" class="clusterblast-orf"  />
<polygon locus_tag="SSMG_04076" description="&lt;b&gt;SSMG_04076&lt;/b&gt;&lt;br&gt;acetyl coenzyme A synthetase&lt;br&gt;Location: 4443318 - 4445454" points="218,40 250,40 255,35 250,30 218,30 218,40 " style="stroke-width:1; stroke:black; fill:white; " id="subclusterblast-16_q8_0_all" class="clusterblast-orf"  />
<polygon locus_tag="SSMG_04077" description="&lt;b&gt;SSMG_04077&lt;/b&gt;&lt;br&gt;predicted protein&lt;br&gt;Location: 4445446 - 4446766" points="255,40 273,40 278,35 273,30 255,30 255,40 " style="stroke-width:1; stroke:black; fill:white; " id="subclusterblast-16_q9_0_all" class="clusterblast-orf"  />
<polygon locus_tag="SSMG_04078" description="&lt;b&gt;SSMG_04078&lt;/b&gt;&lt;br&gt;predicted protein&lt;br&gt;Location: 4446822 - 4448145" points="278,40 296,40 301,35 296,30 278,30 278,40 " style="stroke-width:1; stroke:black; fill:white; " id="subclusterblast-16_q10_0_all" class="clusterblast-orf"  />
<polygon locus_tag="SSMG_04079" description="&lt;b&gt;SSMG_04079&lt;/b&gt;&lt;br&gt;predicted protein&lt;br&gt;Location: 4448144 - 4449326" points="301,40 316,40 321,35 316,30 301,30 301,40 " style="stroke-width:1; stroke:black; fill:white; " id="subclusterblast-16_q11_0_all" class="clusterblast-orf"  />
<polygon locus_tag="SSMG_04080" description="&lt;b&gt;SSMG_04080&lt;/b&gt;&lt;br&gt;cytochrome P450&lt;br&gt;Location: 4449339 - 4450548" points="322,35 327,30 342,30 342,40 327,40 322,35 " style="stroke-width:1; stroke:black; fill:white; " id="subclusterblast-16_q12_0_all" class="clusterblast-orf"  />
<polygon locus_tag="SSMG_04081" description="&lt;b&gt;SSMG_04081&lt;/b&gt;&lt;br&gt;predicted protein&lt;br&gt;Location: 4450544 - 4456262" points="342,35 347,30 441,30 441,40 347,40 342,35 " style="stroke-width:1; stroke:black; fill:white; " id="subclusterblast-16_q13_0_all" class="clusterblast-orf"  />
<polygon locus_tag="SSMG_04082" description="&lt;b&gt;SSMG_04082&lt;/b&gt;&lt;br&gt;predicted protein&lt;br&gt;Location: 4456548 - 4457130" points="446,40 451,40 456,35 451,30 446,30 446,40 " style="stroke-width:1; stroke:black; fill:white; " id="subclusterblast-16_q14_0_all" class="clusterblast-orf"  />
<polygon locus_tag="SSMG_04083" description="&lt;b&gt;SSMG_04083&lt;/b&gt;&lt;br&gt;translation elongation factor EF-1, subunit alpha&lt;br&gt;Location: 4457199 - 4459032" points="457,35 462,30 488,30 488,40 462,40 457,35 " style="stroke-width:1; stroke:black; fill:white; " id="subclusterblast-16_q15_0_all" class="clusterblast-orf"  />
<polygon locus_tag="SSMG_04084" description="&lt;b&gt;SSMG_04084&lt;/b&gt;&lt;br&gt;sulfate adenylyltransferase subunit 2&lt;br&gt;Location: 4459028 - 4459946" points="488,35 493,30 504,30 504,40 493,40 488,35 " style="stroke-width:1; stroke:black; fill:white; " id="subclusterblast-16_q16_0_all" class="clusterblast-orf"  />
<polygon locus_tag="SSMG_04085" description="&lt;b&gt;SSMG_04085&lt;/b&gt;&lt;br&gt;baiE protein&lt;br&gt;Location: 4460028 - 4460502" points="505,40 508,40 513,35 508,30 505,30 505,40 " style="stroke-width:1; stroke:black; fill:white; " id="subclusterblast-16_q17_0_all" class="clusterblast-orf"  />
<polygon locus_tag="SSMG_04086" description="&lt;b&gt;SSMG_04086&lt;/b&gt;&lt;br&gt;transcriptional regulator&lt;br&gt;Location: 4460511 - 4461399" points="514,35 519,30 529,30 529,40 519,40 514,35 " style="stroke-width:1; stroke:black; fill:white; " id="subclusterblast-16_q18_0_all" class="clusterblast-orf"  />
<polygon locus_tag="SSMG_04087" description="&lt;b&gt;SSMG_04087&lt;/b&gt;&lt;br&gt;conserved hypothetical protein&lt;br&gt;Location: 4461487 - 4462654" points="530,40 545,40 550,35 545,30 530,30 530,40 " style="stroke-width:1; stroke:black; fill:white; " id="subclusterblast-16_q19_0_all" class="clusterblast-orf"  />
<polygon locus_tag="SSMG_04088" description="&lt;b&gt;SSMG_04088&lt;/b&gt;&lt;br&gt;3-oxoacyl-[acyl-carrier-protein] reductase&lt;br&gt;Location: 4462658 - 4463438" points="551,40 559,40 564,35 559,30 551,30 551,40 " style="stroke-width:1; stroke:black; fill:white; " id="subclusterblast-16_q20_0_all" class="clusterblast-orf"  />
<polygon locus_tag="SSMG_04089" description="&lt;b&gt;SSMG_04089&lt;/b&gt;&lt;br&gt;conserved hypothetical protein&lt;br&gt;Location: 4463448 - 4464600" points="564,40 579,40 584,35 579,30 564,30 564,40 " style="stroke-width:1; stroke:black; fill:white; " id="subclusterblast-16_q21_0_all" class="clusterblast-orf"  />
<polygon locus_tag="SSMG_04090" description="&lt;b&gt;SSMG_04090&lt;/b&gt;&lt;br&gt;predicted protein&lt;br&gt;Location: 4464580 - 4465225" points="584,40 590,40 595,35 590,30 584,30 584,40 " style="stroke-width:1; stroke:black; fill:white; " id="subclusterblast-16_q22_0_all" class="clusterblast-orf"  />
<polygon locus_tag="SSMG_04091" description="&lt;b&gt;SSMG_04091&lt;/b&gt;&lt;br&gt;predicted protein&lt;br&gt;Location: 4465316 - 4469924" points="596,35 601,30 675,30 675,40 601,40 596,35 " style="stroke-width:1; stroke:black; fill:white; " id="subclusterblast-16_q23_0_all" class="clusterblast-orf"  />
<polygon locus_tag="SSMG_04092" description="&lt;b&gt;SSMG_04092&lt;/b&gt;&lt;br&gt;conserved hypothetical protein&lt;br&gt;Location: 4470040 - 4470820" points="677,35 682,30 691,30 691,40 682,40 677,35 " style="stroke-width:1; stroke:black; fill:white; " id="subclusterblast-16_q24_0_all" class="clusterblast-orf"  />
<polygon locus_tag="SSMG_04093" description="&lt;b&gt;SSMG_04093&lt;/b&gt;&lt;br&gt;predicted protein&lt;br&gt;Location: 4471112 - 4471874" points="696,40 704,40 709,35 704,30 696,30 696,40 " style="stroke-width:1; stroke:black; fill:white; " id="subclusterblast-16_q25_0_all" class="clusterblast-orf"  />
<polygon locus_tag="SSMG_04094" description="&lt;b&gt;SSMG_04094&lt;/b&gt;&lt;br&gt;NUDIX hydrolase&lt;br&gt;Location: 4471920 - 4472331" points="710,40 712,40 717,35 712,30 710,30 710,40 " style="stroke-width:1; stroke:black; fill:white; " id="subclusterblast-16_q26_0_all" class="clusterblast-orf"  />
<polygon locus_tag="SSMG_04095" description="&lt;b&gt;SSMG_04095&lt;/b&gt;&lt;br&gt;5-oxoprolinase&lt;br&gt;Location: 4472373 - 4473963" points="717,35 722,30 745,30 745,40 722,40 717,35 " style="stroke-width:1; stroke:black; fill:white; " id="subclusterblast-16_q27_0_all" class="clusterblast-orf"  />
<polygon locus_tag="SSMG_04096" description="&lt;b&gt;SSMG_04096&lt;/b&gt;&lt;br&gt;5-oxoprolinase&lt;br&gt;Location: 4473959 - 4475999" points="745,35 750,30 780,30 780,40 750,40 745,35 " style="stroke-width:1; stroke:black; fill:white; " id="subclusterblast-16_q28_0_all" class="clusterblast-orf"  />
</g>
</svg>
