<svg version="1.1" xmlns="http://www.w3.org/2000/svg" height="50" width="800" xmlns:xlink="http://www.w3.org/1999/xlink" preserveAspectRatio="none" x="0" y="0" viewBox="0 0 800 50"  >
<g label="Query sequence" class="clusterblast-cluster"  >
<text class="clusterblast-acc" y="20" x="5"  >
Query sequence</text>
<line x1="10" x2="778.0" y2="35" style="stroke-width:1; stroke:grey; " y1="35"  />
<polygon locus_tag="SSMG_02316" description="&lt;b&gt;SSMG_02316&lt;/b&gt;&lt;br&gt;metal-sulfur cluster biosynthetic protein&lt;br&gt;Location: 2485229 - 2485628" points="0,40 10,40 15,35 10,30 0,30 0,40 " style="stroke-width:1; stroke:black; fill:white; " id="subclusterblast-7_q0_0_all" class="clusterblast-orf"  />
<polygon locus_tag="SSMG_02317" description="&lt;b&gt;SSMG_02317&lt;/b&gt;&lt;br&gt;predicted protein&lt;br&gt;Location: 2485756 - 2486182" points="20,40 32,40 37,35 32,30 20,30 20,40 " style="stroke-width:1; stroke:black; fill:white; " id="subclusterblast-7_q1_0_all" class="clusterblast-orf"  />
<polygon locus_tag="SSMG_02318" description="&lt;b&gt;SSMG_02318&lt;/b&gt;&lt;br&gt;predicted protein&lt;br&gt;Location: 2486211 - 2487087" points="38,40 67,40 72,35 67,30 38,30 38,40 " style="stroke-width:1; stroke:black; fill:white; " id="subclusterblast-7_q2_0_all" class="clusterblast-orf"  />
<polygon locus_tag="SSMG_02319" description="&lt;b&gt;SSMG_02319&lt;/b&gt;&lt;br&gt;predicted protein&lt;br&gt;Location: 2487068 - 2487305" points="71,40 75,40 80,35 75,30 71,30 71,40 " style="stroke-width:1; stroke:black; fill:white; " id="subclusterblast-7_q3_0_all" class="clusterblast-orf"  />
<polygon locus_tag="SSMG_02320" description="&lt;b&gt;SSMG_02320&lt;/b&gt;&lt;br&gt;2-polyprenylphenol 6-hydroxylase&lt;br&gt;Location: 2487627 - 2489571" points="92,35 97,30 167,30 167,40 97,40 92,35 " style="stroke-width:1; stroke:black; fill:white; " id="subclusterblast-7_q4_0_all" class="clusterblast-orf"  />
<polygon locus_tag="SSMG_02321" description="&lt;b&gt;SSMG_02321&lt;/b&gt;&lt;br&gt;methyltransferase&lt;br&gt;Location: 2490456 - 2491191" points="202,35 207,30 230,30 230,40 207,40 202,35 " style="stroke-width:1; stroke:black; fill:white; " id="subclusterblast-7_q5_0_all" class="clusterblast-orf"  />
<polygon locus_tag="SSMG_02322" description="&lt;b&gt;SSMG_02322&lt;/b&gt;&lt;br&gt;predicted protein&lt;br&gt;Location: 2491265 - 2492465" points="233,40 274,40 279,35 274,30 233,30 233,40 " style="stroke-width:1; stroke:black; fill:white; " id="subclusterblast-7_q6_0_all" class="clusterblast-orf"  />
<polygon locus_tag="SSMG_02323" description="&lt;b&gt;SSMG_02323&lt;/b&gt;&lt;br&gt;two-component system response regulator&lt;br&gt;Location: 2492461 - 2493106" points="279,40 299,40 304,35 299,30 279,30 279,40 " style="stroke-width:1; stroke:black; fill:white; " id="subclusterblast-7_q7_0_all" class="clusterblast-orf"  />
<polygon locus_tag="SSMG_02324" description="&lt;b&gt;SSMG_02324&lt;/b&gt;&lt;br&gt;predicted protein&lt;br&gt;Location: 2493089 - 2494760" points="303,35 308,30 368,30 368,40 308,40 303,35 " style="stroke-width:1; stroke:black; fill:white; " id="subclusterblast-7_q8_0_all" class="clusterblast-orf"  />
<polygon locus_tag="SSMG_02325" description="&lt;b&gt;SSMG_02325&lt;/b&gt;&lt;br&gt;predicted protein&lt;br&gt;Location: 2494914 - 2496021" points="374,35 379,30 416,30 416,40 379,40 374,35 " style="stroke-width:1; stroke:black; fill:white; " id="subclusterblast-7_q9_0_all" class="clusterblast-orf"  />
<polygon locus_tag="SSMG_02326" description="&lt;b&gt;SSMG_02326&lt;/b&gt;&lt;br&gt;dGTP triphosphohydrolase&lt;br&gt;Location: 2496059 - 2497622" points="418,40 473,40 478,35 473,30 418,30 418,40 " style="stroke-width:1; stroke:black; fill:white; " id="subclusterblast-7_q10_0_all" class="clusterblast-orf"  />
<polygon locus_tag="SSMG_02327" description="&lt;b&gt;SSMG_02327&lt;/b&gt;&lt;br&gt;acetyltransferase&lt;br&gt;Location: 2497663 - 2498155" points="480,40 494,40 499,35 494,30 480,30 480,40 " style="stroke-width:1; stroke:black; fill:white; " id="subclusterblast-7_q11_0_all" class="clusterblast-orf"  />
<polygon locus_tag="SSMG_02328" description="&lt;b&gt;SSMG_02328&lt;/b&gt;&lt;br&gt;predicted protein&lt;br&gt;Location: 2498351 - 2501222" points="506,40 612,40 617,35 612,30 506,30 506,40 " style="stroke-width:1; stroke:black; fill:white; " id="subclusterblast-7_q12_0_all" class="clusterblast-orf"  />
<polygon locus_tag="SSMG_02329" description="&lt;b&gt;SSMG_02329&lt;/b&gt;&lt;br&gt;conserved hypothetical protein&lt;br&gt;Location: 2501226 - 2501949" points="617,40 640,40 645,35 640,30 617,30 617,40 " style="stroke-width:1; stroke:black; fill:white; " id="subclusterblast-7_q13_0_all" class="clusterblast-orf"  />
<polygon locus_tag="SSMG_02330" description="&lt;b&gt;SSMG_02330&lt;/b&gt;&lt;br&gt;ABC transporter&lt;br&gt;Location: 2502113 - 2503745" points="651,40 709,40 714,35 709,30 651,30 651,40 " style="stroke-width:1; stroke:black; fill:white; " id="subclusterblast-7_q14_0_all" class="clusterblast-orf"  />
<polygon locus_tag="SSMG_02331" description="&lt;b&gt;SSMG_02331&lt;/b&gt;&lt;br&gt;transcriptional regulator&lt;br&gt;Location: 2503924 - 2504134" points="721,40 724,40 729,35 724,30 721,30 721,40 " style="stroke-width:1; stroke:black; fill:white; " id="subclusterblast-7_q15_0_all" class="clusterblast-orf"  />
<polygon locus_tag="SSMG_02332" description="&lt;b&gt;SSMG_02332&lt;/b&gt;&lt;br&gt;predicted protein&lt;br&gt;Location: 2504120 - 2505443" points="729,35 734,30 780,30 780,40 734,40 729,35 " style="stroke-width:1; stroke:black; fill:white; " id="subclusterblast-7_q16_0_all" class="clusterblast-orf"  />
</g>
</svg>
