<svg version="1.1" xmlns="http://www.w3.org/2000/svg" height="50" width="800" xmlns:xlink="http://www.w3.org/1999/xlink" preserveAspectRatio="none" x="0" y="0" viewBox="0 0 800 50"  >
<g label="Query sequence" class="clusterblast-cluster"  >
<text class="clusterblast-acc" y="20" x="5"  >
Query sequence</text>
<line x1="10" x2="778.0" y2="35" style="stroke-width:1; stroke:grey; " y1="35"  />
<polygon locus_tag="SSMG_04654" description="&lt;b&gt;SSMG_04654&lt;/b&gt;&lt;br&gt;molybdopterin oxidoreductase Fe4s4 region&lt;br&gt;Location: 5104309 - 5104879" points="0,35 5,30 11,30 11,40 5,40 0,35 " style="stroke-width:1; stroke:black; fill:white; " id="subclusterblast-21_q0_0_all" class="clusterblast-orf"  />
<polygon locus_tag="SSMG_04655" description="&lt;b&gt;SSMG_04655&lt;/b&gt;&lt;br&gt;selenocysteine-specific translation elongation factor&lt;br&gt;Location: 5104884 - 5106639" points="11,35 16,30 45,30 45,40 16,40 11,35 " style="stroke-width:1; stroke:black; fill:white; " id="subclusterblast-21_q1_0_all" class="clusterblast-orf"  />
<polygon locus_tag="SSMG_04656" description="&lt;b&gt;SSMG_04656&lt;/b&gt;&lt;br&gt;L-seryl-tRNA selenium transferase&lt;br&gt;Location: 5106629 - 5107913" points="45,35 50,30 70,30 70,40 50,40 45,35 " style="stroke-width:1; stroke:black; fill:white; " id="subclusterblast-21_q2_0_all" class="clusterblast-orf"  />
<polygon locus_tag="SSMG_04657" description="&lt;b&gt;SSMG_04657&lt;/b&gt;&lt;br&gt;selenide, water dikinase&lt;br&gt;Location: 5108049 - 5109048" points="72,40 87,40 92,35 87,30 72,30 72,40 " style="stroke-width:1; stroke:black; fill:white; " id="subclusterblast-21_q3_0_all" class="clusterblast-orf"  />
<polygon locus_tag="SSMG_04658" description="&lt;b&gt;SSMG_04658&lt;/b&gt;&lt;br&gt;predicted protein&lt;br&gt;Location: 5109351 - 5109807" points="98,40 102,40 107,35 102,30 98,30 98,40 " style="stroke-width:1; stroke:black; fill:white; " id="subclusterblast-21_q4_0_all" class="clusterblast-orf"  />
<polygon locus_tag="SSMG_04659" description="&lt;b&gt;SSMG_04659&lt;/b&gt;&lt;br&gt;predicted protein&lt;br&gt;Location: 5109862 - 5110351" points="108,40 112,40 117,35 112,30 108,30 108,40 " style="stroke-width:1; stroke:black; fill:white; " id="subclusterblast-21_q5_0_all" class="clusterblast-orf"  />
<polygon locus_tag="SSMG_04660" description="&lt;b&gt;SSMG_04660&lt;/b&gt;&lt;br&gt;predicted protein&lt;br&gt;Location: 5110347 - 5110584" points="117,40 117,40 122,35 117,30 117,30 117,40 " style="stroke-width:1; stroke:black; fill:white; " id="subclusterblast-21_q6_0_all" class="clusterblast-orf"  />
<polygon locus_tag="SSMG_04661" description="&lt;b&gt;SSMG_04661&lt;/b&gt;&lt;br&gt;predicted protein&lt;br&gt;Location: 5110580 - 5111297" points="122,40 131,40 136,35 131,30 122,30 122,40 " style="stroke-width:1; stroke:black; fill:white; " id="subclusterblast-21_q7_0_all" class="clusterblast-orf"  />
<polygon locus_tag="SSMG_04662" description="&lt;b&gt;SSMG_04662&lt;/b&gt;&lt;br&gt;dehydrogenase&lt;br&gt;Location: 5111293 - 5111647" points="136,40 137,40 142,35 137,30 136,30 136,40 " style="stroke-width:1; stroke:black; fill:white; " id="subclusterblast-21_q8_0_all" class="clusterblast-orf"  />
<polygon locus_tag="SSMG_04663" description="&lt;b&gt;SSMG_04663&lt;/b&gt;&lt;br&gt;predicted protein&lt;br&gt;Location: 5111685 - 5113431" points="143,40 172,40 177,35 172,30 143,30 143,40 " style="stroke-width:1; stroke:black; fill:white; " id="subclusterblast-21_q9_0_all" class="clusterblast-orf"  />
<polygon locus_tag="SSMG_04664" description="&lt;b&gt;SSMG_04664&lt;/b&gt;&lt;br&gt;predicted protein&lt;br&gt;Location: 5113548 - 5114052" points="179,35 184,30 189,30 189,40 184,40 179,35 " style="stroke-width:1; stroke:black; fill:white; " id="subclusterblast-21_q10_0_all" class="clusterblast-orf"  />
<polygon locus_tag="SSMG_04665" description="&lt;b&gt;SSMG_04665&lt;/b&gt;&lt;br&gt;predicted protein&lt;br&gt;Location: 5114079 - 5114463" points="190,40 192,40 197,35 192,30 190,30 190,40 " style="stroke-width:1; stroke:black; fill:white; " id="subclusterblast-21_q11_0_all" class="clusterblast-orf"  />
<polygon locus_tag="SSMG_04666" description="&lt;b&gt;SSMG_04666&lt;/b&gt;&lt;br&gt;hypothetical protein&lt;br&gt;Location: 5114613 - 5114940" points="200,35 205,30 207,30 207,40 205,40 200,35 " style="stroke-width:1; stroke:black; fill:white; " id="subclusterblast-21_q12_0_all" class="clusterblast-orf"  />
<polygon locus_tag="SSMG_04667" description="&lt;b&gt;SSMG_04667&lt;/b&gt;&lt;br&gt;predicted protein&lt;br&gt;Location: 5114959 - 5115181" points="207,40 211,35 207,30 207,40 " style="stroke-width:1; stroke:black; fill:white; " id="subclusterblast-21_q13_0_all" class="clusterblast-orf"  />
<polygon locus_tag="SSMG_04668" description="&lt;b&gt;SSMG_04668&lt;/b&gt;&lt;br&gt;cupin 2 domain-containing protein&lt;br&gt;Location: 5115170 - 5115572" points="211,35 216,30 219,30 219,40 216,40 211,35 " style="stroke-width:1; stroke:black; fill:white; " id="subclusterblast-21_q14_0_all" class="clusterblast-orf"  />
<polygon locus_tag="SSMG_04669" description="&lt;b&gt;SSMG_04669&lt;/b&gt;&lt;br&gt;carboxymuconolactone decarboxylase&lt;br&gt;Location: 5115604 - 5115919" points="219,35 224,30 226,30 226,40 224,40 219,35 " style="stroke-width:1; stroke:black; fill:white; " id="subclusterblast-21_q15_0_all" class="clusterblast-orf"  />
<polygon locus_tag="SSMG_04670" description="&lt;b&gt;SSMG_04670&lt;/b&gt;&lt;br&gt;predicted protein&lt;br&gt;Location: 5115915 - 5117274" points="226,35 231,30 252,30 252,40 231,40 226,35 " style="stroke-width:1; stroke:black; fill:white; " id="subclusterblast-21_q16_0_all" class="clusterblast-orf"  />
<polygon locus_tag="SSMG_04671" description="&lt;b&gt;SSMG_04671&lt;/b&gt;&lt;br&gt;helix-turn-helix domain-containing protein&lt;br&gt;Location: 5117965 - 5118877" points="265,40 278,40 283,35 278,30 265,30 265,40 " style="stroke-width:1; stroke:black; fill:white; " id="subclusterblast-21_q17_0_all" class="clusterblast-orf"  />
<polygon locus_tag="SSMG_04672" description="&lt;b&gt;SSMG_04672&lt;/b&gt;&lt;br&gt;nitroreductase&lt;br&gt;Location: 5118920 - 5119508" points="284,40 290,40 295,35 290,30 284,30 284,40 " style="stroke-width:1; stroke:black; fill:white; " id="subclusterblast-21_q18_0_all" class="clusterblast-orf"  />
<polygon locus_tag="SSMG_04673" description="&lt;b&gt;SSMG_04673&lt;/b&gt;&lt;br&gt;non-ribosomal peptide synthetase&lt;br&gt;Location: 5120432 - 5122946" points="313,40 357,40 362,35 357,30 313,30 313,40 " style="stroke-width:1; stroke:black; fill:white; " id="subclusterblast-21_q19_0_all" class="clusterblast-orf"  />
<polygon locus_tag="SSMG_04674" description="&lt;b&gt;SSMG_04674&lt;/b&gt;&lt;br&gt;D-alanine-poly(phosphoribitol) ligase, subunit 1&lt;br&gt;Location: 5122978 - 5125453" points="363,40 406,40 411,35 406,30 363,30 363,40 " style="stroke-width:1; stroke:black; fill:white; " id="subclusterblast-21_q20_0_all" class="clusterblast-orf"  />
<polygon locus_tag="SSMG_04675" description="&lt;b&gt;SSMG_04675&lt;/b&gt;&lt;br&gt;regulatory protein B&lt;br&gt;Location: 5125486 - 5126500" points="412,40 426,40 431,35 426,30 412,30 412,40 " style="stroke-width:1; stroke:black; fill:white; " id="subclusterblast-21_q21_0_all" class="clusterblast-orf"  />
<polygon locus_tag="SSMG_04676" description="&lt;b&gt;SSMG_04676&lt;/b&gt;&lt;br&gt;ornithine cyclodeaminase&lt;br&gt;Location: 5126496 - 5127564" points="431,40 447,40 452,35 447,30 431,30 431,40 " style="stroke-width:1; stroke:black; fill:white; " id="subclusterblast-21_q22_0_all" class="clusterblast-orf"  />
<polygon locus_tag="SSMG_04677" description="&lt;b&gt;SSMG_04677&lt;/b&gt;&lt;br&gt;cysteine synthase B&lt;br&gt;Location: 5127584 - 5128580" points="453,40 467,40 472,35 467,30 453,30 453,40 " style="stroke-width:1; stroke:black; fill:white; " id="subclusterblast-21_q23_0_all" class="clusterblast-orf"  />
<polygon locus_tag="SSMG_04678" description="&lt;b&gt;SSMG_04678&lt;/b&gt;&lt;br&gt;predicted protein&lt;br&gt;Location: 5128625 - 5129813" points="473,35 478,30 496,30 496,40 478,40 473,35 " style="stroke-width:1; stroke:black; fill:white; " id="subclusterblast-21_q24_0_all" class="clusterblast-orf"  />
<polygon locus_tag="SSMG_04679" description="&lt;b&gt;SSMG_04679&lt;/b&gt;&lt;br&gt;predicted protein&lt;br&gt;Location: 5129847 - 5130747" points="497,35 502,30 514,30 514,40 502,40 497,35 " style="stroke-width:1; stroke:black; fill:white; " id="subclusterblast-21_q25_0_all" class="clusterblast-orf"  />
<polygon locus_tag="SSMG_04680" description="&lt;b&gt;SSMG_04680&lt;/b&gt;&lt;br&gt;transcriptional repressor&lt;br&gt;Location: 5130743 - 5131100" points="514,35 519,30 521,30 521,40 519,40 514,35 " style="stroke-width:1; stroke:black; fill:white; " id="subclusterblast-21_q26_0_all" class="clusterblast-orf"  />
<polygon locus_tag="SSMG_04681" description="&lt;b&gt;SSMG_04681&lt;/b&gt;&lt;br&gt;cation efflux system protein&lt;br&gt;Location: 5131175 - 5132168" points="522,35 527,30 542,30 542,40 527,40 522,35 " style="stroke-width:1; stroke:black; fill:white; " id="subclusterblast-21_q27_0_all" class="clusterblast-orf"  />
<polygon locus_tag="SSMG_04682" description="&lt;b&gt;SSMG_04682&lt;/b&gt;&lt;br&gt;M24/M37 family peptidase&lt;br&gt;Location: 5132193 - 5132862" points="542,35 547,30 555,30 555,40 547,40 542,35 " style="stroke-width:1; stroke:black; fill:white; " id="subclusterblast-21_q28_0_all" class="clusterblast-orf"  />
<polygon locus_tag="SSMG_04683" description="&lt;b&gt;SSMG_04683&lt;/b&gt;&lt;br&gt;2-hydroxycyclohexanecarboxyl-CoA dehydrogenase&lt;br&gt;Location: 5132926 - 5133667" points="556,35 561,30 571,30 571,40 561,40 556,35 " style="stroke-width:1; stroke:black; fill:white; " id="subclusterblast-21_q29_0_all" class="clusterblast-orf"  />
<polygon locus_tag="SSMG_04684" description="&lt;b&gt;SSMG_04684&lt;/b&gt;&lt;br&gt;2-hydroxycyclohexanecarboxyl-CoA dehydrogenase&lt;br&gt;Location: 5133693 - 5134431" points="571,35 576,30 586,30 586,40 576,40 571,35 " style="stroke-width:1; stroke:black; fill:white; " id="subclusterblast-21_q30_0_all" class="clusterblast-orf"  />
<polygon locus_tag="SSMG_04685" description="&lt;b&gt;SSMG_04685&lt;/b&gt;&lt;br&gt;transcriptional regulator&lt;br&gt;Location: 5134509 - 5135337" points="587,40 598,40 603,35 598,30 587,30 587,40 " style="stroke-width:1; stroke:black; fill:white; " id="subclusterblast-21_q31_0_all" class="clusterblast-orf"  />
<polygon locus_tag="SSMG_04686" description="&lt;b&gt;SSMG_04686&lt;/b&gt;&lt;br&gt;predicted protein&lt;br&gt;Location: 5135757 - 5136441" points="612,35 617,30 625,30 625,40 617,40 612,35 " style="stroke-width:1; stroke:black; fill:white; " id="subclusterblast-21_q32_0_all" class="clusterblast-orf"  />
<polygon locus_tag="SSMG_04687" description="&lt;b&gt;SSMG_04687&lt;/b&gt;&lt;br&gt;predicted protein&lt;br&gt;Location: 5136429 - 5137119" points="625,40 633,40 638,35 633,30 625,30 625,40 " style="stroke-width:1; stroke:black; fill:white; " id="subclusterblast-21_q33_0_all" class="clusterblast-orf"  />
<polygon locus_tag="SSMG_04688" description="&lt;b&gt;SSMG_04688&lt;/b&gt;&lt;br&gt;predicted protein&lt;br&gt;Location: 5137449 - 5137695" points="644,40 644,40 649,35 644,30 644,30 644,40 " style="stroke-width:1; stroke:black; fill:white; " id="subclusterblast-21_q34_0_all" class="clusterblast-orf"  />
<polygon locus_tag="SSMG_04689" description="&lt;b&gt;SSMG_04689&lt;/b&gt;&lt;br&gt;diaminobutyrate-2-oxoglutarate aminotransferase&lt;br&gt;Location: 5137691 - 5139053" points="649,40 671,40 676,35 671,30 649,30 649,40 " style="stroke-width:1; stroke:black; fill:white; " id="subclusterblast-21_q35_0_all" class="clusterblast-orf"  />
<polygon locus_tag="SSMG_04690" description="&lt;b&gt;SSMG_04690&lt;/b&gt;&lt;br&gt;predicted protein&lt;br&gt;Location: 5139483 - 5140212" points="684,40 693,40 698,35 693,30 684,30 684,40 " style="stroke-width:1; stroke:black; fill:white; " id="subclusterblast-21_q36_0_all" class="clusterblast-orf"  />
<polygon locus_tag="SSMG_04691" description="&lt;b&gt;SSMG_04691&lt;/b&gt;&lt;br&gt;predicted protein&lt;br&gt;Location: 5140266 - 5143080" points="699,40 749,40 754,35 749,30 699,30 699,40 " style="stroke-width:1; stroke:black; fill:white; " id="subclusterblast-21_q37_0_all" class="clusterblast-orf"  />
<polygon locus_tag="SSMG_04692" description="&lt;b&gt;SSMG_04692&lt;/b&gt;&lt;br&gt;UPF0324 membrane protein&lt;br&gt;Location: 5143129 - 5144398" points="755,35 760,30 780,30 780,40 760,40 755,35 " style="stroke-width:1; stroke:black; fill:white; " id="subclusterblast-21_q38_0_all" class="clusterblast-orf"  />
</g>
</svg>
